<?xml version="1.0" encoding="UTF-8" standalone="no"?>
<svg
   xmlns:dc="http://purl.org/dc/elements/1.1/"
   xmlns:cc="http://creativecommons.org/ns#"
   xmlns:rdf="http://www.w3.org/1999/02/22-rdf-syntax-ns#"
   xmlns:svg="http://www.w3.org/2000/svg"
   xmlns="http://www.w3.org/2000/svg"
   xmlns:sodipodi="http://sodipodi.sourceforge.net/DTD/sodipodi-0.dtd"
   xmlns:inkscape="http://www.inkscape.org/namespaces/inkscape"
   width="1066.3721pt"
   height="354.95737pt"
   viewBox="0 0 1777.2849 591.5956"
   version="1.1"
   id="svg441"
   sodipodi:docname="axis2.svg"
   inkscape:version="0.92.1 r15371">
  <metadata
     id="metadata447">
    <rdf:RDF>
      <cc:Work
         rdf:about="">
        <dc:format>image/svg+xml</dc:format>
        <dc:type
           rdf:resource="http://purl.org/dc/dcmitype/StillImage" />
        <dc:title />
      </cc:Work>
    </rdf:RDF>
  </metadata>
  <defs
     id="defs445">
    <pattern
       y="0"
       x="0"
       height="6"
       width="6"
       patternUnits="userSpaceOnUse"
       id="EMFhbasepattern" />
    <pattern
       y="0"
       x="0"
       height="6"
       width="6"
       patternUnits="userSpaceOnUse"
       id="EMFhbasepattern-5" />
  </defs>
  <sodipodi:namedview
     pagecolor="#ffffff"
     bordercolor="#666666"
     borderopacity="1"
     objecttolerance="10"
     gridtolerance="10"
     guidetolerance="10"
     inkscape:pageopacity="0"
     inkscape:pageshadow="2"
     inkscape:window-width="1920"
     inkscape:window-height="1019"
     id="namedview443"
     showgrid="false"
     showguides="true"
     inkscape:guide-bbox="true"
     inkscape:zoom="0.5"
     inkscape:cx="334.56832"
     inkscape:cy="222.4401"
     inkscape:window-x="-9"
     inkscape:window-y="-9"
     inkscape:window-maximized="1"
     inkscape:current-layer="svg441" />
  <g
     id="g439"
     transform="translate(-47.413139,30.2003)">
    <pattern
       id="pattern0"
       patternUnits="userSpaceOnUse"
       x="0"
       y="0"
       width="7"
       height="7">
      <line
         x1="0"
         y1="3"
         x2="7"
         y2="3"
         style="fill:none; stroke:rgb(0,0,0); opacity:1"
         id="line2" />
    </pattern>
    <g
       clip-path="url(#cliprect1)"
       id="g437" />
    <path
       id="path5058"
       d="M 121.51164,489.79582 H 86.511897"
       style="fill:none;stroke:#000000;stroke-width:3.29997563px;stroke-linecap:butt;stroke-linejoin:miter;stroke-miterlimit:4;stroke-dasharray:none;stroke-opacity:1"
       inkscape:connector-curvature="0" />
    <path
       id="path5060"
       d="M 1654.3002,489.79582 H 104.71176"
       style="fill:none;stroke:#000000;stroke-width:3.29997563px;stroke-linecap:butt;stroke-linejoin:miter;stroke-miterlimit:4;stroke-dasharray:none;stroke-opacity:1"
       inkscape:connector-curvature="0" />
    <path
       id="path5062"
       d="m 116.11168,-6.80048 -22.899832,-0.1 11.499912,-23.29982 z"
       style="fill:#000000;fill-opacity:1;fill-rule:nonzero;stroke:none;stroke-width:1.25"
       inkscape:connector-curvature="0" />
    <path
       id="path5064"
       d="M 1654.0002,501.19574 V 478.2959 l 23.3999,11.49992 z"
       style="fill:#000000;fill-opacity:1;fill-rule:nonzero;stroke:none;stroke-width:1.25"
       inkscape:connector-curvature="0" />
    <path
       id="path5066"
       d="m 47.412189,489.59582 c 0,-4.49997 0.399997,-8.19994 1.39999,-10.89992 0.899993,-2.79997 2.299982,-4.89996 4.099969,-6.39995 1.799987,-1.49998 4.099969,-2.19998 6.899949,-2.19998 2.099984,0 3.899971,0.4 5.39996,1.19998 1.599987,0.8 2.799978,1.99999 3.799971,3.59998 0.999992,1.49999 1.799987,3.39997 2.399982,5.69996 0.599995,2.19998 0.899994,5.19996 0.899994,8.99993 0,4.49997 -0.499996,8.09995 -1.39999,10.79992 -0.899994,2.79998 -2.299983,4.89996 -4.199969,6.39995 -1.799987,1.49999 -4.099969,2.29999 -6.899948,2.29999 -3.699972,0 -6.599951,-1.39999 -8.699936,-3.99998 -2.499981,-3.19997 -3.699972,-8.29993 -3.699972,-15.49988 z m 4.799964,0 c 0,6.29996 0.699995,10.39992 2.199984,12.49991 1.499989,2.09999 3.299975,3.09997 5.39996,3.09997 2.199984,0 3.99997,-0.99998 5.39996,-3.09997 1.499988,-2.09999 2.199983,-6.29995 2.199983,-12.49991 0,-6.29995 -0.699995,-10.49992 -2.199983,-12.4999 -1.39999,-2.09999 -3.199976,-3.09998 -5.39996,-3.09998 -2.199984,0 -3.899971,0.89999 -5.199961,2.69998 -1.599989,2.29998 -2.399983,6.59995 -2.399983,12.8999 z"
       style="fill:#000000;fill-opacity:1;fill-rule:nonzero;stroke:none;stroke-width:1.25"
       inkscape:connector-curvature="0" />
    <path
       id="path5068"
       d="m 1668.4001,509.09568 10.6,-2.29999 c 0.8,1.79999 1.4,3.69998 1.9,5.59996 0.6,2.69998 1.2,5.99995 1.5999,9.79993 0.2,1.89998 0.4,5.89996 0.8,12.09991 3,-3.39998 4.9,-5.49996 5.4,-6.29995 3.3,-4.29998 5.2,-6.89995 5.7,-7.69995 0.7,-1.29999 1.3,-2.39998 1.6,-3.39998 0.3,-0.69998 0.4,-1.39998 0.4,-2.09998 0,-0.59999 -0.5,-1.29999 -1.7,-2.19998 -1.1,-0.8 -1.7,-1.79998 -1.7,-2.79998 0,-0.79999 0.3,-1.39999 0.9,-1.99998 0.7,-0.7 1.4,-1 2.3,-1 1,0 1.9,0.4 2.7,1.29999 0.7998,0.8 1.1998,1.89999 1.1998,3.09999 0,1.29998 -0.2,2.49997 -0.6,3.59996 -0.5998,1.89998 -1.7998,4.09997 -3.5998,6.79995 -1.7,2.69998 -4.5,6.29996 -8.4,10.79992 -0.5,0.6 -3.2,3.39998 -8.0999,8.49994 h -1.4 c -0.6,-15.49989 -1.8,-25.09981 -3.7,-28.99979 -0.6,-1.19998 -1.6,-1.89998 -3,-1.89998 -0.6,0 -1.5,0.2 -2.6,0.4 z"
       style="fill:#000000;fill-opacity:1;fill-rule:nonzero;stroke:none;stroke-width:1.25"
       inkscape:connector-curvature="0" />
    <path
       id="path5070"
       d="m 104.71176,-8.70046 v 500.5252"
       style="fill:none;stroke:#000000;stroke-width:2.33140731px;stroke-linecap:butt;stroke-linejoin:miter;stroke-miterlimit:4;stroke-dasharray:none;stroke-opacity:1"
       inkscape:connector-curvature="0" />
    <path
       id="path5078"
       d="M 1654.3002,146.19838 H 1686 v -31.69976 h -31.6998 z"
       style="fill:#cc0000;fill-opacity:1;fill-rule:nonzero;stroke:none;stroke-width:1.25"
       inkscape:connector-curvature="0" />
    <path
       id="path5080"
       d="M 1654.3002,51.19909 H 1686 V 19.49932 h -31.6998 z"
       style="fill:#ccaa00;fill-opacity:1;fill-rule:nonzero;stroke:none;stroke-width:1.25"
       inkscape:connector-curvature="0" />
    <path
       id="path5098"
       d="m 1742.6996,113.99862 -7.2,24.89981 -0.8,3.39998 c -0.1,0.3 -0.1,0.6 -0.1,0.8 0,0.39998 0.1,0.69998 0.4,0.99998 0.2,0.2 0.4,0.3 0.7,0.3 0.3,0 0.7,-0.2 1.2,-0.5 1,-0.69998 2.2,-2.19997 3.9,-4.39996 l 1.2,0.79999 c -1.7,2.59999 -3.4,4.49997 -5.2,5.89996 -1.8,1.29999 -3.5,1.89999 -4.9999,1.89999 -1,0 -1.8,-0.2 -2.3,-0.7 -0.6,-0.59999 -0.8,-1.29999 -0.8,-2.29998 0,-1.2 0.3,-2.79998 0.8,-4.79997 l 0.8,-2.69998 c -3.2,4.19997 -6.2,7.09995 -8.9,8.79994 -1.9,1.09999 -3.8,1.69999 -5.6999,1.69999 -1.8,0 -3.3,-0.7 -4.6,-2.19999 -1.3,-1.39999 -1.9,-3.49997 -1.9,-6.09995 0,-3.79997 1.1,-7.99995 3.4,-12.29991 2.4,-4.29996 5.3999,-7.79994 8.9999,-10.39992 2.8,-1.99999 5.4,-3.09998 7.9,-3.09998 1.5,0 2.8,0.4 3.6999,1.19999 1,0.8 1.8,2.09999 2.3,3.89997 l 1.3,-4.09997 z m -13.0999,1.99999 c -1.6,0 -3.2,0.69999 -5,2.19997 -2.5,2.09999 -4.7,5.09997 -6.7,9.19994 -1.9,4.09997 -2.8999,7.79994 -2.8999,11.09991 0,1.69999 0.4,2.99999 1.1999,3.89998 0.9,1 1.9,1.49998 3,1.49998 2.6,0 5.5,-1.99998 8.6,-5.89995 4.2,-5.29996 6.2999,-10.59992 6.2999,-16.09988 0,-2.09998 -0.4,-3.59998 -1.2,-4.49996 -0.7999,-0.99999 -1.8999,-1.39999 -3.2999,-1.39999 z"
       style="fill:#000000;fill-opacity:1;fill-rule:nonzero;stroke:none;stroke-width:1.25"
       inkscape:connector-curvature="0" />
    <path
       id="path5100"
       d="m 1759.0995,162.79826 -1.3,0.6 c -2.9,-5.59997 -5,-10.49993 -6.2,-14.7999 -1,-3.29998 -1.5,-6.69995 -1.5,-9.99993 0,-7.89994 1.8,-14.99988 5.5,-21.19983 4.4,-7.59995 11.6998,-15.09989 21.6998,-22.29984 l 0.9,1.29999 c -4.6,3.29997 -8.2,7.09995 -11.1,11.29992 -3.5998,5.09996 -6.4998,11.39991 -8.7998,18.69986 -2.2,7.39994 -3.4,13.99989 -3.4,19.99985 0,4.69996 1.4,10.09993 4.2,16.39988 z"
       style="fill:#000000;fill-opacity:1;fill-rule:nonzero;stroke:none;stroke-width:1.25"
       inkscape:connector-curvature="0" />
    <path
       id="path5102"
       d="m 1771.4993,116.29861 10.6,-2.29999 c 0.8,1.89999 1.3999,3.69998 1.8999,5.59996 0.6,2.79998 1.2,6.09995 1.6,9.79993 0.2,1.99998 0.4,5.99995 0.8,12.09991 3,-3.29998 4.9,-5.39996 5.4,-6.19996 3.3,-4.39997 5.2,-6.99995 5.7,-7.69994 0.7,-1.29999 1.3,-2.49999 1.6,-3.39997 0.3,-0.8 0.4,-1.49999 0.4,-2.09999 0,-0.69999 -0.5,-1.39999 -1.7,-2.19999 -1.1,-0.89999 -1.7,-1.79997 -1.7,-2.79997 0,-0.79999 0.3,-1.49999 0.9,-2.09999 0.7,-0.59999 1.4,-0.99999 2.3,-0.99999 0.9999,0 1.8999,0.5 2.6999,1.29999 0.8,0.9 1.1,1.89999 1.1,3.19997 0,1.2 -0.2,2.39999 -0.5,3.59998 -0.7,1.79999 -1.8,4.09997 -3.5999,6.79995 -1.7,2.59998 -4.5,6.19995 -8.4,10.79992 -0.5,0.49999 -3.2,3.29998 -8.0999,8.39994 h -1.4 c -0.6,-15.39989 -1.8,-25.09981 -3.7,-28.99979 -0.6,-1.19998 -1.6,-1.79998 -3,-1.79998 -0.6,0 -1.5,0.1 -2.6,0.3 z"
       style="fill:#000000;fill-opacity:1;fill-rule:nonzero;stroke:none;stroke-width:1.25"
       inkscape:connector-curvature="0" />
    <path
       id="path5104"
       d="m 1814.1991,95.79876 1.3,-0.7 c 2.8999,5.49996 4.8999,10.39992 6.1999,14.69989 1,3.29998 1.5,6.69995 1.5,9.99993 0,7.89994 -1.8,14.99989 -5.5,21.19984 -4.4999,7.59994 -11.6999,15.09989 -21.6998,22.39984 l -0.9,-1.2 c 4.5,-3.39998 8.1999,-7.09994 11.0999,-11.19992 3.6,-5.19996 6.5,-11.49991 8.8,-18.89986 2.1999,-7.29993 3.3999,-13.99988 3.3999,-19.99985 0,-4.59996 -1.3999,-9.99992 -4.1999,-16.29987 z"
       style="fill:#000000;fill-opacity:1;fill-rule:nonzero;stroke:none;stroke-width:1.25"
       inkscape:connector-curvature="0" />
    <path
       id="path5106"
       d="m 1603.0006,472.49595 v 34.99974"
       style="fill:none;stroke:#000000;stroke-width:3.29997563px;stroke-linecap:butt;stroke-linejoin:miter;stroke-miterlimit:4;stroke-dasharray:none;stroke-opacity:1"
       inkscape:connector-curvature="0" />
    <path
       id="path5110"
       d="M 72.612001,38.19919 H 67.912037 V 8.39941 c -1.099993,0.99999 -2.599982,2.09998 -4.499968,3.19997 -1.799986,1.1 -3.399973,1.89999 -4.899963,2.39999 V 9.4994 C 61.112087,8.19941 63.412069,6.79942 65.412055,4.99943 67.41204,3.19945 68.71203,1.49946 69.612024,-0.10053 h 2.999977 z"
       style="fill:#000000;fill-opacity:1;fill-rule:nonzero;stroke:none;stroke-width:1.25"
       inkscape:connector-curvature="0" />
    <path
       id="path5112"
       d="M 122.91163,19.49932 H 87.911887"
       style="fill:none;stroke:#000000;stroke-width:3.29997563px;stroke-linecap:butt;stroke-linejoin:miter;stroke-miterlimit:4;stroke-dasharray:none;stroke-opacity:1"
       inkscape:connector-curvature="0" />
    <path
       id="path5130"
       d="m 1586.4007,556.19533 v 4.49996 h -25.1997 c -0.1,-1.09999 0.1,-2.19998 0.5,-3.29998 0.6,-1.69998 1.7,-3.39997 3.0998,-4.99996 1.4,-1.69999 3.4,-3.59997 6.1,-5.79995 4.2,-3.39997 7,-6.09996 8.4,-8.09995 1.5,-1.99997 2.1999,-3.89996 2.1999,-5.59995 0,-1.89999 -0.6999,-3.49997 -1.9999,-4.69996 -1.3,-1.3 -3,-1.99999 -5.2,-1.99999 -2.2,0 -4,0.69999 -5.4,2.09998 -1.3,1.3 -2,3.19998 -2,5.59996 l -4.8998,-0.5 c 0.4,-3.59996 1.6,-6.29995 3.7998,-8.19994 2.1,-1.89999 5,-2.79997 8.6,-2.79997 3.7,0 6.5999,0.99998 8.6999,2.99997 2.2,1.99999 3.2,4.59996 3.2,7.59995 0,1.49999 -0.3,2.99998 -0.9,4.49996 -0.6,1.39999 -1.7,2.99998 -3.1,4.59997 -1.4999,1.69998 -3.8999,3.89997 -7.1999,6.79995 -2.9,2.29998 -4.7,3.89997 -5.5,4.79996 -0.8,0.8 -1.4,1.59999 -1.9,2.49999 z"
       style="fill:#000000;fill-opacity:1;fill-rule:nonzero;stroke:none;stroke-width:1.25"
       inkscape:connector-curvature="0" />
    <path
       id="path5132"
       d="m 1591.4007,550.69536 5,-0.4 c 0.3,2.39999 1.2,4.19998 2.4999,5.39997 1.3,1.2 2.9,1.79998 4.8,1.79998 2.3,0 4.2,-0.89998 5.7,-2.59997 1.6,-1.69999 2.4,-3.89998 2.4,-6.69995 0,-2.69999 -0.8,-4.79996 -2.3,-6.39996 -1.5,-1.49999 -3.4,-2.29998 -5.9,-2.29998 -1.5,0 -2.8,0.4 -4.1,1.09999 -1.2,0.6 -2.0999,1.49999 -2.7999,2.59999 l -4.4,-0.5 3.7,-19.69985 h 18.9998 v 4.49996 h -15.2999 l -1.9999,10.29992 c 2.2999,-1.59998 4.6999,-2.39998 7.1999,-2.39998 3.3,0 6.1,1.1 8.4,3.49997 2.2999,2.29999 3.4999,5.19996 3.4999,8.89994 0,3.39997 -1.1,6.39995 -3.0999,8.89994 -2.4,3.09997 -5.8,4.69996 -10,4.69996 -3.5,0 -6.2999,-1 -8.4999,-2.99998 -2.2,-1.89998 -3.4,-4.49997 -3.8,-7.69995 z"
       style="fill:#000000;fill-opacity:1;fill-rule:nonzero;stroke:none;stroke-width:1.25"
       inkscape:connector-curvature="0" />
    <path
       id="path5134"
       d="m 1621.1005,550.69536 4.9,-0.4 c 0.4,2.39999 1.3,4.19998 2.6,5.39997 1.3,1.2 2.8998,1.79998 4.7998,1.79998 2.2,0 4.2,-0.89998 5.7,-2.59997 1.6,-1.69999 2.4,-3.89998 2.4,-6.69995 0,-2.69999 -0.8,-4.79996 -2.3,-6.39996 -1.5,-1.49999 -3.5,-2.29998 -5.9,-2.29998 -1.5,0 -2.8998,0.4 -4.0998,1.09999 -1.2,0.6 -2.1,1.49999 -2.8,2.59999 l -4.4,-0.5 3.7,-19.69985 h 18.8998 v 4.49996 h -15.1998 l -2.1,10.29992 c 2.3,-1.59998 4.6998,-2.39998 7.2998,-2.39998 3.3,0 6.1,1.1 8.4,3.49997 2.3,2.29999 3.4,5.19996 3.4,8.89994 0,3.39997 -1,6.39995 -3,8.89994 -2.4,3.09997 -5.8,4.69996 -10,4.69996 -3.4998,0 -6.2998,-1 -8.4998,-2.99998 -2.2,-1.89998 -3.5,-4.49997 -3.8,-7.69995 z"
       style="fill:#000000;fill-opacity:1;fill-rule:nonzero;stroke:none;stroke-width:1.25"
       inkscape:connector-curvature="0" />
    <path
       id="path5185"
       d="m 1716.3998,31.09922 -1.5,4.79996 H 1695.9 l 1.5,-4.79996 z"
       style="fill:#000000;fill-opacity:1;fill-rule:nonzero;stroke:none;stroke-width:1.25"
       inkscape:connector-curvature="0" />
    <path
       id="path5189"
       d="m 1760.5994,65.29896 -1.2,0.6 c -2.9999,-5.59996 -4.9999,-10.49992 -6.2999,-14.79989 -1,-3.29998 -1.5,-6.69995 -1.5,-9.99993 0,-7.89994 1.8,-14.89989 5.4999,-21.19984 4.5,-7.59994 11.7,-14.9998869 21.6999,-22.2998334 l 0.9,1.29999 c -4.5,3.299976 -8.2,7.0999485 -11.0999,11.2999164 -3.5,5.099957 -6.5,11.399917 -8.7,18.799857 -2.3,7.29995 -3.4999,13.8999 -3.4999,19.99985 0,4.59997 1.3999,9.99993 4.1999,16.29988 z"
       style="fill:#000000;fill-opacity:1;fill-rule:nonzero;stroke:none;stroke-width:1.25"
       inkscape:connector-curvature="0" />
    <path
       id="path5191"
       d="m 1772.9993,18.79931 10.6999,-2.19999 c 0.7,1.79999 1.3,3.59998 1.8,5.49996 0.6,2.79998 1.2,6.09996 1.6,9.89993 0.2,1.89999 0.5,5.89996 0.8,11.99991 3.1,-3.29997 4.9,-5.39996 5.5,-6.19995 3.2,-4.39997 5.0999,-6.89995 5.5999,-7.69995 0.8,-1.29999 1.3,-2.49998 1.7,-3.39997 0.2,-0.79999 0.4,-1.49999 0.4,-2.09998 0,-0.7 -0.6,-1.39999 -1.8,-2.19999 -1.1,-0.89999 -1.7,-1.79998 -1.7,-2.79998 0,-0.79999 0.3,-1.49999 1,-2.09998 0.6,-0.6 1.3,-0.9 2.2,-0.9 1,0 1.9,0.4 2.7,1.2 0.8,0.89999 1.2,1.89998 1.2,3.19997 0,1.19999 -0.2,2.39998 -0.6,3.59998 -0.6,1.79998 -1.8,4.09997 -3.6,6.79995 -1.7,2.59998 -4.4999,6.19995 -8.3999,10.79992 -0.5,0.49999 -3.2,3.29997 -8.1,8.39993 h -1.2999 c -0.7,-15.39988 -1.9,-25.09981 -3.7,-28.89978 -0.6,-1.29999 -1.7,-1.89999 -3.1,-1.89999 -0.6,0 -1.5,0.1 -2.6,0.4 z"
       style="fill:#000000;fill-opacity:1;fill-rule:nonzero;stroke:none;stroke-width:1.25"
       inkscape:connector-curvature="0" />
    <path
       id="path5193"
       d="m 1815.699,-1.7005384 1.3,-0.699995 c 2.9,5.4999595 5,10.3999235 6.2,14.6998934 0.9999,3.29997 1.4999,6.69995 1.4999,9.99992 0,7.89994 -1.7999,14.99989 -5.4999,21.19985 -4.5,7.59994 -11.6999,15.09988 -21.6999,22.39983 l -0.8999,-1.19999 c 4.4999,-3.29998 8.1999,-7.09995 11.0999,-11.19992 3.5999,-5.19996 6.4999,-11.49991 8.7999,-18.79986 2.2,-7.39994 3.4,-14.09989 3.4,-20.09985 0,-4.5999649 -1.4,-9.9999249 -4.2,-16.2998784 z"
       style="fill:#000000;fill-opacity:1;fill-rule:nonzero;stroke:none;stroke-width:1.25"
       inkscape:connector-curvature="0" />
    <text
       xml:space="preserve"
       style="font-style:normal;font-variant:normal;font-weight:normal;font-stretch:normal;font-size:106.66666412px;line-height:1.25;font-family:Vijaya;-inkscape-font-specification:'Vijaya, Normal';font-variant-ligatures:normal;font-variant-caps:normal;font-variant-numeric:normal;font-feature-settings:normal;text-align:start;letter-spacing:0px;word-spacing:0px;writing-mode:lr-tb;text-anchor:start;fill:#000000;fill-opacity:1;stroke:none;stroke-width:1.25"
       x="1722.0997"
       y="52.332813"
       id="text1974"><tspan
         sodipodi:role="line"
         id="tspan1972"
         x="1722.0997"
         y="52.332813"
         style="font-style:normal;font-variant:normal;font-weight:normal;font-stretch:normal;font-size:106.66666412px;font-family:Vijaya;-inkscape-font-specification:'Vijaya, Normal';font-variant-ligatures:normal;font-variant-caps:normal;font-variant-numeric:normal;font-feature-settings:normal;text-align:start;writing-mode:lr-tb;text-anchor:start;stroke-width:1.25">t</tspan></text>
  </g>
</svg>
