<?xml version="1.0" encoding="UTF-8" standalone="no"?>
<svg
   xmlns:dc="http://purl.org/dc/elements/1.1/"
   xmlns:cc="http://creativecommons.org/ns#"
   xmlns:rdf="http://www.w3.org/1999/02/22-rdf-syntax-ns#"
   xmlns:svg="http://www.w3.org/2000/svg"
   xmlns="http://www.w3.org/2000/svg"
   xmlns:sodipodi="http://sodipodi.sourceforge.net/DTD/sodipodi-0.dtd"
   xmlns:inkscape="http://www.inkscape.org/namespaces/inkscape"
   width="1072.0592pt"
   height="666.52264pt"
   viewBox="0 0 1786.7635 1110.8711"
   version="1.1"
   id="svg441"
   sodipodi:docname="bonsai_nothresh_ft.svg"
   inkscape:version="0.92.1 r15371">
  <metadata
     id="metadata447">
    <rdf:RDF>
      <cc:Work
         rdf:about="">
        <dc:format>image/svg+xml</dc:format>
        <dc:type
           rdf:resource="http://purl.org/dc/dcmitype/StillImage" />
      </cc:Work>
    </rdf:RDF>
  </metadata>
  <defs
     id="defs445">
    <clipPath
       id="cliprect0">
      <rect
         x="76"
         y="29"
         width="1599"
         height="943"
         id="rect571" />
    </clipPath>
  </defs>
  <sodipodi:namedview
     pagecolor="#ffffff"
     bordercolor="#666666"
     borderopacity="1"
     objecttolerance="10"
     gridtolerance="10"
     guidetolerance="10"
     inkscape:pageopacity="0"
     inkscape:pageshadow="2"
     inkscape:window-width="1920"
     inkscape:window-height="1019"
     id="namedview443"
     showgrid="false"
     inkscape:zoom="0.57014773"
     inkscape:cx="809.27472"
     inkscape:cy="409.26908"
     inkscape:window-x="-9"
     inkscape:window-y="-9"
     inkscape:window-maximized="1"
     inkscape:current-layer="g439" />
  <g
     id="g439"
     transform="translate(511.90254,-645.72728)">
    <pattern
       id="pattern0"
       patternUnits="userSpaceOnUse"
       x="0"
       y="0"
       width="7"
       height="7">
      <line
         x1="0"
         y1="3"
         x2="7"
         y2="3"
         style="fill:none; stroke:rgb(0,0,0); opacity:1"
         id="line2" />
    </pattern>
    <g
       clip-path="url(#cliprect1)"
       id="g437" />
    <path
       d="m -427.17407,1230.8013 h -35.017"
       style="fill:none;stroke:#000000;stroke-width:3.33333302;stroke-linecap:butt;stroke-linejoin:miter;stroke-miterlimit:4;stroke-dasharray:none;stroke-opacity:1"
       id="path4525-1-0-2"
       inkscape:connector-curvature="0" />
    <path
       style="fill:none;stroke:#000000;stroke-width:3.26746154;stroke-linecap:butt;stroke-linejoin:miter;stroke-miterlimit:4;stroke-dasharray:none;stroke-opacity:1"
       d="M 1105.6034,1230.8013 H -444.02702"
       id="path5658-2"
       inkscape:connector-curvature="0" />
    <path
       d="m -432.64735,734.24462 -22.87834,-0.0767 11.49867,-23.37333 z"
       style="fill:#000000;fill-opacity:1;fill-rule:nonzero;stroke:none;stroke-width:0.16666664"
       id="path4507"
       inkscape:connector-curvature="0" />
    <path
       d="m 1105.2469,1242.1814 0.076,-22.8769 23.3666,11.4967 z"
       style="fill:#000000;fill-opacity:1;fill-rule:nonzero;stroke:none;stroke-width:0.16666664"
       id="path4517"
       inkscape:connector-curvature="0" />
    <text
       xml:space="preserve"
       style="font-style:normal;font-variant:normal;font-weight:normal;font-stretch:normal;font-size:53.33332825px;line-height:1.25;font-family:Arial;-inkscape-font-specification:'Arial, Normal';font-variant-ligatures:normal;font-variant-caps:normal;font-variant-numeric:normal;font-feature-settings:normal;text-align:start;letter-spacing:0px;word-spacing:0px;writing-mode:lr-tb;text-anchor:start;fill:#000000;fill-opacity:1;stroke:none;stroke-width:1.25"
       x="-503.54587"
       y="1249.4424"
       id="text6467"><tspan
         sodipodi:role="line"
         id="tspan6465"
         x="-503.54587"
         y="1249.4424"
         style="font-style:normal;font-variant:normal;font-weight:normal;font-stretch:normal;font-size:53.33332825px;font-family:Arial;-inkscape-font-specification:'Arial, Normal';font-variant-ligatures:normal;font-variant-caps:normal;font-variant-numeric:normal;font-feature-settings:normal;text-align:start;writing-mode:lr-tb;text-anchor:start;stroke-width:1.25">0</tspan></text>
    <text
       xml:space="preserve"
       style="font-style:normal;font-variant:normal;font-weight:normal;font-stretch:normal;font-size:93.33332825px;line-height:1.25;font-family:Vijaya;-inkscape-font-specification:'Vijaya, Normal';font-variant-ligatures:normal;font-variant-caps:normal;font-variant-numeric:normal;font-feature-settings:normal;text-align:start;letter-spacing:0px;word-spacing:0px;writing-mode:lr-tb;text-anchor:start;fill:#000000;fill-opacity:1;stroke:none;stroke-width:1.25"
       x="1118.124"
       y="1281.048"
       id="text6471"><tspan
         sodipodi:role="line"
         id="tspan6469"
         x="1118.124"
         y="1281.048"
         style="font-style:normal;font-variant:normal;font-weight:normal;font-stretch:normal;font-size:93.33332825px;font-family:Vijaya;-inkscape-font-specification:'Vijaya, Normal';font-variant-ligatures:normal;font-variant-caps:normal;font-variant-numeric:normal;font-feature-settings:normal;text-align:start;writing-mode:lr-tb;text-anchor:start;stroke-width:1.25">v</tspan></text>
    <path
       style="fill:none;stroke:#000000;stroke-width:3.33333302;stroke-linecap:butt;stroke-linejoin:miter;stroke-miterlimit:4;stroke-dasharray:none;stroke-opacity:1"
       d="M -444.02702,732.29094 V 1735.1521"
       id="path5658"
       inkscape:connector-curvature="0" />
    <path
       d="m -455.40668,1733.148 22.87833,0.077 -11.49867,23.3733 z"
       style="fill:#000000;fill-opacity:1;fill-rule:nonzero;stroke:none;stroke-width:0.16666664"
       id="path4507-0"
       inkscape:connector-curvature="0" />
    <text
       xml:space="preserve"
       style="font-style:normal;font-variant:normal;font-weight:normal;font-stretch:normal;font-size:53.33332825px;line-height:1.25;font-family:Arial;-inkscape-font-specification:'Arial, Normal';font-variant-ligatures:normal;font-variant-caps:normal;font-variant-numeric:normal;font-feature-settings:normal;text-align:start;letter-spacing:0px;word-spacing:0px;writing-mode:lr-tb;text-anchor:start;fill:#000000;fill-opacity:1;stroke:none;stroke-width:1.25"
       x="-513.59607"
       y="1715.8879"
       id="text6463-6"><tspan
         sodipodi:role="line"
         id="tspan6461-6"
         x="-513.59607"
         y="1715.8879"
         style="font-style:normal;font-variant:normal;font-weight:normal;font-stretch:normal;font-size:53.33332825px;font-family:Arial;-inkscape-font-specification:'Arial, Normal';font-variant-ligatures:normal;font-variant-caps:normal;font-variant-numeric:normal;font-feature-settings:normal;text-align:start;writing-mode:lr-tb;text-anchor:start;stroke-width:1.25">-1</tspan></text>
    <path
       d="m 1105.6034,887.20047 h 31.6666 v -31.66666 h -31.6666 z"
       style="fill:#cc0000;fill-opacity:1;fill-rule:nonzero;stroke:none;stroke-width:0.16666664"
       id="path5774-9"
       inkscape:connector-curvature="0" />
    <path
       d="m 1105.6034,792.20048 h 31.6666 v -31.66666 h -31.6666 z"
       style="fill:#00cc00;fill-opacity:1;fill-rule:nonzero;stroke:none;stroke-width:0.16666664"
       id="path5774-2"
       inkscape:connector-curvature="0" />
    <text
       xml:space="preserve"
       style="font-style:normal;font-variant:normal;font-weight:normal;font-stretch:normal;font-size:93.33332825px;line-height:1.25;font-family:Vijaya;-inkscape-font-specification:'Vijaya, Normal';font-variant-ligatures:normal;font-variant-caps:normal;font-variant-numeric:normal;font-feature-settings:normal;text-align:start;letter-spacing:0px;word-spacing:0px;writing-mode:lr-tb;text-anchor:start;fill:#000000;fill-opacity:1;stroke:none;stroke-width:1.25"
       x="1158.8114"
       y="697.90826"
       id="text6422"><tspan
         sodipodi:role="line"
         id="tspan6420"
         x="1158.8114"
         y="697.90826"
         style="font-style:normal;font-variant:normal;font-weight:normal;font-stretch:normal;font-size:93.33332825px;font-family:Vijaya;-inkscape-font-specification:'Vijaya, Normal';font-variant-ligatures:normal;font-variant-caps:normal;font-variant-numeric:normal;font-feature-settings:normal;text-align:start;writing-mode:lr-tb;text-anchor:start;stroke-width:1.25">g(v)</tspan></text>
    <text
       xml:space="preserve"
       style="font-style:normal;font-variant:normal;font-weight:normal;font-stretch:normal;font-size:93.33332825px;line-height:1.25;font-family:Vijaya;-inkscape-font-specification:'Vijaya, Normal';font-variant-ligatures:normal;font-variant-caps:normal;font-variant-numeric:normal;font-feature-settings:normal;text-align:start;letter-spacing:0px;word-spacing:0px;writing-mode:lr-tb;text-anchor:start;fill:#000000;fill-opacity:1;stroke:none;stroke-width:1.25"
       x="1159.061"
       y="792.60181"
       id="text6426"><tspan
         sodipodi:role="line"
         id="tspan6424"
         x="1159.061"
         y="792.60181"
         style="font-style:normal;font-variant:normal;font-weight:normal;font-stretch:normal;font-size:93.33332825px;font-family:Vijaya;-inkscape-font-specification:'Vijaya, Normal';font-variant-ligatures:normal;font-variant-caps:normal;font-variant-numeric:normal;font-feature-settings:normal;text-align:start;writing-mode:lr-tb;text-anchor:start;stroke-width:1.25">h(v)</tspan></text>
    <text
       xml:space="preserve"
       style="font-style:normal;font-variant:normal;font-weight:normal;font-stretch:normal;font-size:93.33332825px;line-height:1.25;font-family:Vijaya;-inkscape-font-specification:'Vijaya, Normal';font-variant-ligatures:normal;font-variant-caps:normal;font-variant-numeric:normal;font-feature-settings:normal;text-align:start;letter-spacing:0px;word-spacing:0px;writing-mode:lr-tb;text-anchor:start;fill:#000000;fill-opacity:1;stroke:none;stroke-width:1.25"
       x="1158.6948"
       y="888.29559"
       id="text6430"><tspan
         sodipodi:role="line"
         id="tspan6428"
         x="1158.6948"
         y="888.29559"
         style="font-style:normal;font-variant:normal;font-weight:normal;font-stretch:normal;font-size:93.33332825px;font-family:Vijaya;-inkscape-font-specification:'Vijaya, Normal';font-variant-ligatures:normal;font-variant-caps:normal;font-variant-numeric:normal;font-feature-settings:normal;text-align:start;writing-mode:lr-tb;text-anchor:start;stroke-width:1.25">a(v)</tspan></text>
    <path
       d="m 1054.2541,1213.5484 v 35.017"
       style="fill:none;stroke:#000000;stroke-width:3.33333302;stroke-linecap:butt;stroke-linejoin:miter;stroke-miterlimit:4;stroke-dasharray:none;stroke-opacity:1"
       id="path4525-1"
       inkscape:connector-curvature="0" />
    <path
       d="m -426.68866,1697.6333 h -35.01699"
       style="fill:none;stroke:#000000;stroke-width:3.33333302;stroke-linecap:butt;stroke-linejoin:miter;stroke-miterlimit:4;stroke-dasharray:none;stroke-opacity:1"
       id="path4525-1-0"
       inkscape:connector-curvature="0" />
    <text
       xml:space="preserve"
       style="font-style:normal;font-variant:normal;font-weight:normal;font-stretch:normal;font-size:53.33332825px;line-height:1.25;font-family:Arial;-inkscape-font-specification:'Arial, Normal';font-variant-ligatures:normal;font-variant-caps:normal;font-variant-numeric:normal;font-feature-settings:normal;text-align:start;letter-spacing:0px;word-spacing:0px;writing-mode:lr-tb;text-anchor:start;fill:#000000;fill-opacity:1;stroke:none;stroke-width:1.25"
       x="-495.99472"
       y="779.25726"
       id="text6463-6-2"><tspan
         sodipodi:role="line"
         id="tspan6461-6-6"
         x="-495.99472"
         y="779.25726"
         style="font-style:normal;font-variant:normal;font-weight:normal;font-stretch:normal;font-size:53.33332825px;font-family:Arial;-inkscape-font-specification:'Arial, Normal';font-variant-ligatures:normal;font-variant-caps:normal;font-variant-numeric:normal;font-feature-settings:normal;text-align:start;writing-mode:lr-tb;text-anchor:start;stroke-width:1.25">1</tspan></text>
    <path
       d="m -425.80606,760.53384 h -35.017"
       style="fill:none;stroke:#000000;stroke-width:3.33333302;stroke-linecap:butt;stroke-linejoin:miter;stroke-miterlimit:4;stroke-dasharray:none;stroke-opacity:1"
       id="path4525-1-0-3"
       inkscape:connector-curvature="0" />
    <path
       d="m 1105.6034,697.20049 h 31.6666 v -31.66666 h -31.6666 z"
       style="fill:#0000cc;fill-opacity:1;fill-rule:nonzero;stroke:none;stroke-width:0.16666664"
       id="path5774-0-6"
       inkscape:connector-curvature="0" />
    <text
       xml:space="preserve"
       style="font-style:normal;font-variant:normal;font-weight:normal;font-stretch:normal;font-size:53.33332825px;line-height:1.25;font-family:Arial;-inkscape-font-specification:'Arial, Normal';font-variant-ligatures:normal;font-variant-caps:normal;font-variant-numeric:normal;font-feature-settings:normal;text-align:start;letter-spacing:0px;word-spacing:0px;writing-mode:lr-tb;text-anchor:start;fill:#000000;fill-opacity:1;stroke:none;stroke-width:1.25"
       x="1010.8337"
       y="1301.7297"
       id="text5688"><tspan
         sodipodi:role="line"
         id="tspan5686"
         x="1010.8337"
         y="1301.7297"
         style="font-style:normal;font-variant:normal;font-weight:normal;font-stretch:normal;font-size:53.33332825px;font-family:Arial;-inkscape-font-specification:'Arial, Normal';font-variant-ligatures:normal;font-variant-caps:normal;font-variant-numeric:normal;font-feature-settings:normal;text-align:start;writing-mode:lr-tb;text-anchor:start;stroke-width:1.25">255</tspan></text>
    <g
       transform="translate(-520.02702,731.22484)"
       clip-path="url(#cliprect0)"
       id="g435"
       style="stroke-width:4.99999952;stroke-miterlimit:4;stroke-dasharray:none">
      <polyline
         style="opacity:1;fill:none;stroke:#0000cc;stroke-width:4.99999952;stroke-linecap:butt;stroke-linejoin:miter;stroke-miterlimit:4;stroke-dasharray:none"
         points="76,491.675 81.8824,466.313 87.7647,443.328 93.6471,424.432 99.5294,406.327 105.412,390.139 111.294,375.775 117.176,363.194 123.059,352.289 128.941,342.913 134.824,334.91 140.706,328.134 146.588,322.459 152.471,317.787 158.353,314.045 164.235,311.179 170.118,309.144 176,307.892 181.882,307.364 187.765,307.482 193.647,308.144 199.529,309.227 205.412,310.59 211.294,312.088 217.176,313.583 223.059,314.963 228.941,316.159 234.824,317.158 240.706,318.009 246.588,318.816 252.471,319.726 258.353,320.898 264.235,322.471 270.118,324.529 276,327.072 281.882,330 287.765,333.113 293.647,336.126 299.529,338.709 305.412,340.517 311.294,341.237 317.176,340.619 323.059,338.491 328.941,334.767 334.824,329.43 340.706,322.515 346.588,314.085 352.471,304.214 358.353,292.975 364.235,280.444 370.118,266.706 376,251.869 381.882,236.075 387.765,219.51 393.647,202.405 399.529,185.024 405.412,167.655 411.294,150.592 417.176,134.118 423.059,118.487 428.941,103.918 434.824,90.5849 440.706,78.6136 446.588,68.0836 452.471,59.0293 458.353,51.4447 464.235,45.2877 470.118,40.4857 476,36.9419 481.882,34.542 487.765,33.1607 493.647,32.6683 499.529,32.9366 505.412,33.8434 511.294,35.2762 517.176,37.1333 523.059,39.3249 528.941,41.7721 534.824,44.4063 540.706,47.1682 546.588,50.0078 552.471,52.8844 558.353,55.7678 564.235,58.6388 570.118,61.4897 576,64.324 581.882,67.1545 587.765,70.0003 593.647,72.8833 599.529,75.8238 605.412,78.8375 611.294,81.9328 617.176,85.1096 623.059,88.3606 628.941,91.673 634.824,95.0313 640.706,98.4214 646.588,101.833 652.471,105.264 658.353,108.72 664.235,112.216 670.118,115.777 676,119.437 681.882,123.233 687.765,127.205 693.647,131.392 699.529,135.83 705.412,140.545 711.294,145.554 717.176,150.864 723.059,156.474 728.941,162.374 734.824,168.546 740.706,174.97 746.588,181.624 752.471,188.487 758.353,195.537 764.235,202.755 770.118,210.121 776,217.614 781.882,225.212 787.765,232.886 793.647,240.604 799.529,248.324 805.412,255.994 811.294,263.551 817.176,270.923 823.059,278.023 828.941,284.759 834.824,291.032 840.706,296.745 846.588,301.805 852.471,306.134 858.353,309.672 864.235,312.384 870.118,314.263 876,315.329 881.882,315.626 887.765,315.22 893.647,314.189 899.529,312.62 905.412,310.595 911.294,308.191 917.176,305.473 923.059,302.49 928.941,299.275 934.824,295.846 940.706,292.208 946.588,288.356 952.471,284.276 958.353,279.951 964.235,275.362 970.118,270.49 976,265.318 981.882,259.831 987.765,254.019 993.647,247.876 999.529,241.401 1005.41,234.598 1011.29,227.478 1017.18,220.06 1023.06,212.369 1028.94,204.439 1034.82,196.309 1040.71,188.025 1046.59,179.638 1052.47,171.201 1058.35,162.77 1064.24,154.399 1070.12,146.143 1076,138.054 1081.88,130.179 1087.76,122.564 1093.65,115.25 1099.53,108.278 1105.41,101.685 1111.29,95.5093 1117.18,89.7909 1123.06,84.5763 1128.94,79.9202 1134.82,75.8878 1140.71,72.5573 1146.59,70.0201 1152.47,68.382 1158.35,67.7619 1164.24,68.2918 1170.12,70.1152 1176,73.386 1181.88,78.2659 1187.76,84.9192 1193.65,93.5043 1199.53,104.16 1205.41,116.987 1211.29,132.02 1217.18,149.207 1223.06,168.375 1228.94,189.218 1234.82,211.283 1240.71,233.976 1246.59,256.596 1252.47,278.371 1258.35,298.523 1264.24,316.332 1270.12,331.202 1276,342.713 1281.88,350.661 1287.76,355.062 1293.65,356.148 1299.53,354.32 1305.41,350.106 1311.29,344.093 1317.18,336.873 1323.06,328.988 1328.94,320.897 1334.82,312.946 1340.71,305.368 1346.59,298.283 1352.47,291.714 1358.35,285.609 1364.24,279.858 1370.12,274.318 1376,268.831 1381.88,263.236 1387.76,257.385 1393.65,251.15 1399.53,244.432 1405.41,237.165 1411.29,229.319 1417.18,220.899 1423.06,211.949 1428.94,202.546 1434.82,192.799 1440.71,182.84 1446.59,172.823 1452.47,162.918 1458.35,153.3 1464.24,144.151 1470.12,135.656 1476,128.003 1481.88,121.389 1487.76,116.02 1493.65,112.124 1499.53,109.951 1505.41,109.779 1511.29,111.915 1517.18,116.691 1523.06,124.451 1528.94,135.539 1534.82,150.265 1540.71,168.874 1546.59,191.495 1552.47,218.104 1558.35,248.776 1564.24,281.141 1570.12,321.759 1576,367.099 "
         id="polyline422" />
      <polyline
         style="opacity:1;fill:none;stroke:#00cc00;stroke-width:4.99999952;stroke-linecap:butt;stroke-linejoin:miter;stroke-miterlimit:4;stroke-dasharray:none"
         points="76,485.076 81.8824,469.032 87.7647,455.406 93.6471,445.9 99.5294,437.161 105.412,430.292 111.294,425.157 117.176,421.671 123.059,419.679 128.941,418.982 134.824,419.372 140.706,420.652 146.588,422.648 152.471,425.221 158.353,428.264 164.235,431.701 170.118,435.48 176,439.565 181.882,443.924 187.765,448.526 193.647,453.329 199.529,458.276 205.412,463.297 211.294,468.304 217.176,473.201 223.059,477.888 228.941,482.271 234.824,486.272 240.706,489.838 246.588,492.944 252.471,495.601 258.353,497.85 264.235,499.758 270.118,501.412 276,502.904 281.882,504.326 287.765,505.757 293.647,507.257 299.529,508.855 305.412,510.552 311.294,512.314 317.176,514.069 323.059,515.714 328.941,517.116 334.824,518.121 340.706,518.567 346.588,518.291 352.471,517.15 358.353,515.033 364.235,511.872 370.118,507.655 376,502.427 381.882,496.293 387.765,489.41 393.647,481.978 399.529,474.222 405.412,466.383 411.294,458.698 417.176,451.384 423.059,444.633 428.941,438.599 434.824,433.396 440.706,429.094 446.588,425.726 452.471,423.285 458.353,421.736 464.235,421.017 470.118,421.05 476,421.743 481.882,423.001 487.765,424.73 493.647,426.84 499.529,429.249 505.412,431.886 511.294,434.69 517.176,437.613 523.059,440.615 528.941,443.666 534.824,446.742 540.706,449.824 546.588,452.899 552.471,455.955 558.353,458.983 564.235,461.976 570.118,464.928 576,467.837 581.882,470.701 587.765,473.52 593.647,476.293 599.529,479.02 605.412,481.701 611.294,484.331 617.176,486.908 623.059,489.426 628.941,491.881 634.824,494.267 640.706,496.582 646.588,498.824 652.471,500.993 658.353,503.093 664.235,505.127 670.118,507.101 676,509.021 681.882,510.889 687.765,512.712 693.647,514.489 699.529,516.223 705.412,517.911 711.294,519.551 717.176,521.137 723.059,522.664 728.941,524.123 734.824,525.505 740.706,526.8 746.588,527.997 752.471,529.087 758.353,530.06 764.235,530.907 770.118,531.622 776,532.2 781.882,532.64 787.765,532.94 793.647,533.104 799.529,533.134 805.412,533.036 811.294,532.814 817.176,532.473 823.059,532.022 828.941,531.467 834.824,530.817 840.706,530.086 846.588,529.288 852.471,528.446 858.353,527.582 864.235,526.729 870.118,525.919 876,525.189 881.882,524.576 887.765,524.115 893.647,523.84 899.529,523.776 905.412,523.942 911.294,524.352 917.176,525.011 923.059,525.919 928.941,527.071 934.824,528.46 940.706,530.077 946.588,531.918 952.471,533.977 958.353,536.255 964.235,538.756 970.118,541.485 976,544.453 981.882,547.672 987.765,551.156 993.647,554.92 999.529,558.976 1005.41,563.338 1011.29,568.017 1017.18,573.021 1023.06,578.359 1028.94,584.034 1034.82,590.05 1040.71,596.407 1046.59,603.106 1052.47,610.144 1058.35,617.516 1064.24,625.219 1070.12,633.244 1076,641.584 1081.88,650.23 1087.76,659.173 1093.65,668.402 1099.53,677.906 1105.41,687.675 1111.29,697.691 1117.18,707.936 1123.06,718.38 1128.94,728.985 1134.82,739.697 1140.71,750.448 1146.59,761.153 1152.47,771.707 1158.35,781.985 1164.24,791.838 1170.12,801.087 1176,809.524 1181.88,816.902 1187.76,822.938 1193.65,827.316 1199.53,829.698 1205.41,829.747 1211.29,827.158 1217.18,821.697 1223.06,813.247 1228.94,801.847 1234.82,787.732 1240.71,771.343 1246.59,753.328 1252.47,734.509 1258.35,715.832 1264.24,698.294 1270.12,682.862 1276,670.391 1281.88,661.556 1287.76,656.808 1293.65,656.344 1299.53,660.12 1305.41,667.877 1311.29,679.195 1317.18,693.543 1323.06,710.344 1328.94,729.018 1334.82,749.025 1340.71,769.876 1346.59,791.142 1352.47,812.442 1358.35,833.427 1364.24,853.764 1370.12,873.128 1376,891.196 1381.88,907.662 1387.76,922.255 1393.65,934.765 1399.53,945.064 1405.41,953.133 1411.29,959.062 1417.18,963.045 1423.06,965.36 1428.94,966.332 1434.82,966.298 1440.71,965.571 1446.59,964.408 1452.47,962.997 1458.35,961.456 1464.24,959.839 1470.12,958.162 1476,956.42 1481.88,954.61 1487.76,952.737 1493.65,950.817 1499.53,948.867 1505.41,946.884 1511.29,944.822 1517.18,942.579 1523.06,939.979 1528.94,936.781 1534.82,932.688 1540.71,927.384 1546.59,920.58 1552.47,912.057 1558.35,901.538 1564.24,890.216 1570.12,874.089 1576,855.072 "
         id="polyline424" />
      <polyline
         style="opacity:1;fill:none;stroke:#ccaa00;stroke-width:4.99999952;stroke-linecap:butt;stroke-linejoin:miter;stroke-miterlimit:4;stroke-dasharray:none"
         points="76,486.864 81.8824,502.713 87.7647,517.887 93.6471,531.865 99.5294,545.582 105.412,558.675 111.294,571.129 117.176,582.901 123.059,593.963 128.941,604.288 134.824,613.841 140.706,622.583 146.588,630.461 152.471,637.421 158.353,643.41 164.235,648.389 170.118,652.346 176,655.301 181.882,657.313 187.765,658.488 193.647,658.969 199.529,658.932 205.412,658.571 211.294,658.083 217.176,657.647 223.059,657.4 228.941,657.421 234.824,657.715 240.706,658.206 246.588,658.747 252.471,659.137 258.353,659.153 264.235,658.592 270.118,657.31 276,655.257 281.882,652.497 287.765,649.21 293.647,645.677 299.529,642.241 305.412,639.27 311.294,637.108 317.176,636.048 323.059,636.306 328.941,638.027 334.824,641.293 340.706,646.149 346.588,652.625 352.471,660.753 358.353,670.571 364.235,682.112 370.118,695.391 376,710.373 381.882,726.955 387.765,744.949 393.647,764.085 399.529,784.016 405.412,804.343 411.294,824.641 417.176,844.492 423.059,863.505 428.941,881.343 434.824,897.731 440.706,912.464 446.588,925.407 452.471,936.489 458.353,945.698 464.235,953.075 470.118,958.701 476,962.69 481.882,965.182 487.765,966.332 493.647,966.303 499.529,965.259 505.412,963.357 511.294,960.746 517.176,957.562 523.059,953.929 528.941,949.958 534.824,945.749 540.706,941.391 546.588,936.959 552.471,932.514 558.353,928.102 564.235,923.749 570.118,919.461 576,915.225 581.882,911.013 587.765,906.785 593.647,902.496 599.529,898.107 605.412,893.587 611.294,888.922 617.176,884.113 623.059,879.179 628.941,874.148 634.824,869.058 640.706,863.945 646.588,858.84 652.471,853.761 658.353,848.711 664.235,843.675 670.118,838.617 676,833.489 681.882,828.229 687.765,822.771 693.647,817.047 699.529,811 705.412,804.583 711.294,797.769 717.176,790.547 723.059,782.925 728.941,774.925 734.824,766.581 740.706,757.932 746.588,749.018 752.471,739.878 758.353,730.547 764.235,721.055 770.118,711.429 776,701.696 781.882,691.882 787.765,682.018 793.647,672.145 799.529,662.312 805.412,652.584 811.294,643.04 817.176,633.778 823.059,624.911 828.941,616.564 834.824,608.872 840.706,601.967 846.588,595.971 852.471,590.989 858.353,587.094 864.235,584.322 870.118,582.671 876,582.094 881.882,582.509 887.765,583.803 893.647,585.844 899.529,588.493 905.412,591.612 911.294,595.081 917.176,598.8 923.059,602.696 928.941,606.725 934.824,610.871 940.706,615.145 946.588,619.578 952.471,624.215 958.353,629.112 964.235,634.33 970.118,639.929 976,645.965 981.882,652.487 987.765,659.533 993.647,667.132 999.529,675.298 1005.41,684.034 1011.29,693.33 1017.18,703.16 1023.06,713.485 1028.94,724.256 1034.82,735.41 1040.71,746.873 1046.59,758.567 1052.47,770.407 1058.35,782.305 1064.24,794.171 1070.12,805.917 1076,817.451 1081.88,828.686 1087.76,839.529 1093.65,849.889 1099.53,859.671 1105.41,868.776 1111.29,877.101 1117.18,884.531 1123.06,890.946 1128.94,896.209 1134.82,900.169 1140.71,902.659 1146.59,903.496 1152.47,902.481 1158.35,899.412 1164.24,894.081 1170.12,886.292 1176,875.871 1181.88,862.678 1187.76,846.629 1193.65,827.709 1199.53,805.995 1205.41,781.676 1211.29,755.07 1217.18,726.638 1223.06,696.98 1228.94,666.829 1234.82,637.018 1240.71,608.434 1246.59,581.952 1252.47,558.367 1258.35,538.307 1264.24,522.168 1270.12,510.055 1276,501.751 1281.88,496.721 1287.76,494.138 1293.65,492.952 1299.53,491.969 1305.41,489.955 1311.29,485.729 1317.18,478.262 1323.06,466.747 1328.94,450.66 1334.82,429.791 1340.71,404.263 1346.59,374.532 1352.47,341.371 1358.35,305.844 1364.24,269.256 1370.12,233.096 1376,198.949 1381.88,168.398 1387.76,142.913 1393.65,123.733 1399.53,111.778 1405.41,107.566 1411.29,111.196 1417.18,122.356 1423.06,140.388 1428.94,164.379 1434.82,193.28 1440.71,226.014 1446.59,261.569 1452.47,299.058 1458.35,337.741 1464.24,377.004 1470.12,416.317 1476,455.17 1481.88,493.009 1487.76,529.19 1493.65,562.952 1499.53,593.411 1505.41,619.585 1511.29,640.433 1517.18,654.909 1523.06,662.022 1528.94,660.895 1534.82,650.831 1540.71,631.375 1546.59,602.405 1552.47,564.174 1558.35,516.739 1564.24,465.438 1570.12,396.192 1576,316.827 "
         id="polyline426" />
      <polyline
         style="opacity:1;fill:none;stroke:#cc0000;stroke-width:4.99999952;stroke-linecap:butt;stroke-linejoin:miter;stroke-miterlimit:4;stroke-dasharray:none"
         points="76,499.5 81.8824,499.5 87.7647,499.5 93.6471,499.5 99.5294,499.5 105.412,499.5 111.294,499.5 117.176,499.5 123.059,499.5 128.941,499.5 134.824,499.5 140.706,499.5 146.588,499.5 152.471,499.5 158.353,499.5 164.235,499.5 170.118,499.499 176,499.492 181.882,499.461 187.765,499.328 193.647,498.821 199.529,497.093 205.412,491.927 211.294,478.663 217.176,450.068 223.059,399.331 228.941,326.198 234.824,240.865 240.706,159.857 246.588,96.7897 252.471,56.6741 258.353,37.1194 264.235,32.7798 270.118,38.881 276,52.6452 281.882,73.2638 287.765,101.179 293.647,137.001 299.529,180.207 305.412,228.092 311.294,275.793 317.176,317.788 323.059,349.89 328.941,370.117 334.824,377.908 340.706,372.575 346.588,352.062 352.471,312.841 358.353,252.057 364.235,173.141 370.118,92.7232 376,39.9301 381.882,40.3676 387.765,95.9709 393.647,183.536 399.529,273.41 405.412,346.813 411.294,398.884 417.176,432.817 423.059,453.945 428.941,466.837 434.824,474.638 440.706,479.297 446.588,481.961 452.471,483.28 458.353,483.61 464.235,483.127 470.118,481.897 476,479.913 481.882,477.117 487.765,473.418 493.647,468.701 499.529,462.835 505.412,455.683 511.294,447.107 517.176,436.977 523.059,425.173 528.941,411.597 534.824,396.18 540.706,378.891 546.588,359.754 552.471,338.851 558.353,316.338 564.235,292.445 570.118,267.47 576,241.773 581.882,215.761 587.765,189.874 593.647,164.577 599.529,140.342 605.412,117.639 611.294,96.9245 617.176,78.6181 623.059,63.082 628.941,50.5988 634.824,41.3548 640.706,35.4332 646.588,32.8199 652.471,33.419 658.353,37.0755 664.235,43.5982 670.118,52.78 676,64.4105 681.882,78.2822 687.765,94.1907 693.647,111.929 699.529,131.279 705.412,152.005 711.294,173.844 717.176,196.501 723.059,219.652 728.941,242.943 734.824,266.011 740.706,288.495 746.588,310.06 752.471,330.419 758.353,349.345 764.235,366.689 770.118,382.372 776,396.385 781.882,408.771 787.765,419.613 793.647,429.015 799.529,437.087 805.412,443.935 811.294,449.653 817.176,454.314 823.059,457.974 828.941,460.667 834.824,462.405 840.706,463.181 846.588,462.969 852.471,461.734 858.353,459.451 864.235,456.133 870.118,451.874 876,446.899 881.882,441.586 887.765,436.462 893.647,432.142 899.529,429.223 905.412,428.172 911.294,429.239 917.176,432.417 923.059,437.45 928.941,443.901 934.824,451.229 940.706,458.88 946.588,466.361 952.471,473.286 958.353,479.398 964.235,484.563 970.118,488.756 976,492.029 981.882,494.484 987.765,496.256 993.647,497.481 999.529,498.294 1005.41,498.81 1011.29,499.122 1017.18,499.302 1023.06,499.402 1028.94,499.453 1034.82,499.479 1040.71,499.491 1046.59,499.496 1052.47,499.499 1058.35,499.5 1064.24,499.5 1070.12,499.5 1076,499.5 1081.88,499.5 1087.76,499.5 1093.65,499.5 1099.53,499.5 1105.41,499.5 1111.29,499.5 1117.18,499.5 1123.06,499.5 1128.94,499.5 1134.82,499.5 1140.71,499.5 1146.59,499.5 1152.47,499.5 1158.35,499.5 1164.24,499.5 1170.12,499.5 1176,499.5 1181.88,499.5 1187.76,499.5 1193.65,499.5 1199.53,499.5 1205.41,499.5 1211.29,499.5 1217.18,499.5 1223.06,499.5 1228.94,499.5 1234.82,499.5 1240.71,499.5 1246.59,499.5 1252.47,499.5 1258.35,499.5 1264.24,499.5 1270.12,499.5 1276,499.5 1281.88,499.5 1287.76,499.5 1293.65,499.5 1299.53,499.5 1305.41,499.5 1311.29,499.5 1317.18,499.5 1323.06,499.5 1328.94,499.5 1334.82,499.5 1340.71,499.5 1346.59,499.5 1352.47,499.5 1358.35,499.5 1364.24,499.5 1370.12,499.5 1376,499.5 1381.88,499.5 1387.76,499.5 1393.65,499.5 1399.53,499.5 1405.41,499.5 1411.29,499.5 1417.18,499.5 1423.06,499.5 1428.94,499.5 1434.82,499.5 1440.71,499.5 1446.59,499.5 1452.47,499.5 1458.35,499.5 1464.24,499.5 1470.12,499.5 1476,499.5 1481.88,499.5 1487.76,499.5 1493.65,499.5 1499.53,499.5 1505.41,499.5 1511.29,499.5 1517.18,499.5 1523.06,499.5 1528.94,499.5 1534.82,499.5 1540.71,499.5 1546.59,499.5 1552.47,499.5 1558.35,499.5 1564.24,499.5 1570.12,499.5 1576,499.5 "
         id="polyline430" />
      <clipPath
         id="cliprect1">
        <rect
           x="0"
           y="0"
           width="1618"
           height="1017"
           id="rect432" />
      </clipPath>
    </g>
  </g>
</svg>
