<?xml version="1.0" encoding="UTF-8" standalone="no"?>
<!-- Created with Inkscape (http://www.inkscape.org/) -->

<svg
   xmlns:dc="http://purl.org/dc/elements/1.1/"
   xmlns:cc="http://creativecommons.org/ns#"
   xmlns:rdf="http://www.w3.org/1999/02/22-rdf-syntax-ns#"
   xmlns:svg="http://www.w3.org/2000/svg"
   xmlns="http://www.w3.org/2000/svg"
   xmlns:sodipodi="http://sodipodi.sourceforge.net/DTD/sodipodi-0.dtd"
   xmlns:inkscape="http://www.inkscape.org/namespaces/inkscape"
   version="1.1"
   id="svg4485"
   xml:space="preserve"
   width="1429.4122"
   height="888.69659"
   viewBox="0 0 1429.4121 888.69657"
   sodipodi:docname="r_3sphere_ft.svg"
   inkscape:version="0.92.1 r15371"><metadata
     id="metadata4491"><rdf:RDF><cc:Work
         rdf:about=""><dc:format>image/svg+xml</dc:format><dc:type
           rdf:resource="http://purl.org/dc/dcmitype/StillImage" /><dc:title></dc:title></cc:Work></rdf:RDF></metadata><defs
     id="defs4489"><clipPath
       id="cliprect0"><rect
         x="76"
         y="29"
         width="1599"
         height="943"
         id="rect571" /></clipPath><clipPath
       id="cliprect0-1"><rect
         x="76"
         y="29"
         width="1599"
         height="943"
         id="rect571-3" /></clipPath><clipPath
       clipPathUnits="userSpaceOnUse"
       id="clipPath6622"><path
         d="M 256,0 V 5123 H 9851 V 0 Z"
         id="path6620"
         inkscape:connector-curvature="0" /></clipPath><clipPath
       clipPathUnits="userSpaceOnUse"
       id="clipPath7306"><path
         d="m 407.27,329.789 h 9593.98 v 5657.97 H 407.27 Z"
         id="path7304"
         inkscape:connector-curvature="0" /></clipPath></defs><sodipodi:namedview
     pagecolor="#ffffff"
     bordercolor="#666666"
     borderopacity="1"
     objecttolerance="10"
     gridtolerance="10"
     guidetolerance="10"
     inkscape:pageopacity="0"
     inkscape:pageshadow="2"
     inkscape:window-width="1920"
     inkscape:window-height="1019"
     id="namedview4487"
     showgrid="false"
     inkscape:zoom="0.70710678"
     inkscape:cx="877.35064"
     inkscape:cy="384.58023"
     inkscape:window-x="-9"
     inkscape:window-y="-9"
     inkscape:window-maximized="1"
     inkscape:current-layer="g437"
     showguides="true"
     inkscape:guide-bbox="true"><sodipodi:guide
       position="54.301078,836.64263"
       orientation="1,0"
       id="guide4551"
       inkscape:locked="false" /><sodipodi:guide
       position="549.11305,796.85125"
       orientation="0,1"
       id="guide4553"
       inkscape:locked="false" /><sodipodi:guide
       position="54.301078,420.63731"
       orientation="0,1"
       id="guide4555"
       inkscape:locked="false" /><sodipodi:guide
       position="1278.3171,47.171713"
       orientation="0,1"
       id="guide5660"
       inkscape:locked="false" /><sodipodi:guide
       position="28.747806,254.55842"
       orientation="1,0"
       id="guide6497"
       inkscape:locked="false" /><sodipodi:guide
       position="1343.9663,847.51791"
       orientation="0,1"
       id="guide6570"
       inkscape:locked="false" /><sodipodi:guide
       position="1343.9663,771.51794"
       orientation="0,1"
       id="guide6572"
       inkscape:locked="false" /><sodipodi:guide
       position="1343.9663,720.85128"
       orientation="0,1"
       id="guide6574"
       inkscape:locked="false" /><sodipodi:guide
       position="1343.9663,695.51794"
       orientation="0,1"
       id="guide6576"
       inkscape:locked="false" /><sodipodi:guide
       position="1343.9663,872.85126"
       orientation="0,1"
       id="guide6580"
       inkscape:locked="false" /><sodipodi:guide
       position="713.64748,394.56556"
       orientation="0,1"
       id="guide8609"
       inkscape:locked="false" /><sodipodi:guide
       position="1294.0053,1055.0033"
       orientation="1,0"
       id="guide4554"
       inkscape:locked="false" /></sodipodi:namedview><g
     id="g4493"
     inkscape:groupmode="layer"
     inkscape:label="ink_ext_XXXXXX"
     transform="matrix(1.3333333,0,0,-1.3333333,4.1130818,504.91385)"><g
       id="g4495"
       transform="scale(0.1)"><path
         d="M 477.5277,276.40972 H 267.4257"
         style="fill:none;stroke:#000000;stroke-width:20;stroke-linecap:butt;stroke-linejoin:miter;stroke-miterlimit:4;stroke-dasharray:none;stroke-opacity:1"
         id="path4525-1-0-2"
         inkscape:connector-curvature="0" /><path
         style="fill:none;stroke:#000000;stroke-width:19.60477066;stroke-linecap:butt;stroke-linejoin:miter;stroke-miterlimit:4;stroke-dasharray:none;stroke-opacity:1"
         d="M 9674.1923,276.40972 H 376.41001"
         id="path5658-2"
         inkscape:connector-curvature="0" /><path
         d="m 444.688,3255.7498 -137.27,0.46 68.992,140.24 z"
         style="fill:#000000;fill-opacity:1;fill-rule:nonzero;stroke:none"
         id="path4507"
         inkscape:connector-curvature="0" /><path
         d="m 9672.0533,208.12919 0.46,137.261 140.2,-68.98 z"
         style="fill:#000000;fill-opacity:1;fill-rule:nonzero;stroke:none"
         id="path4517"
         inkscape:connector-curvature="0" /><text
         xml:space="preserve"
         style="font-style:normal;font-variant:normal;font-weight:normal;font-stretch:normal;font-size:320px;line-height:1.25;font-family:Arial;-inkscape-font-specification:'Arial, Normal';font-variant-ligatures:normal;font-variant-caps:normal;font-variant-numeric:normal;font-feature-settings:normal;text-align:start;letter-spacing:0px;word-spacing:0px;writing-mode:lr-tb;text-anchor:start;fill:#000000;fill-opacity:1;stroke:none;stroke-width:7.5"
         x="19.296806"
         y="-164.56311"
         id="text6467"
         transform="scale(1,-1)"><tspan
           sodipodi:role="line"
           id="tspan6465"
           x="19.296806"
           y="-164.56311"
           style="font-style:normal;font-variant:normal;font-weight:normal;font-stretch:normal;font-size:320px;font-family:Arial;-inkscape-font-specification:'Arial, Normal';font-variant-ligatures:normal;font-variant-caps:normal;font-variant-numeric:normal;font-feature-settings:normal;text-align:start;writing-mode:lr-tb;text-anchor:start;stroke-width:7.5">0</tspan></text>
<text
         xml:space="preserve"
         style="font-style:normal;font-variant:normal;font-weight:normal;font-stretch:normal;font-size:560px;line-height:1.25;font-family:Vijaya;-inkscape-font-specification:'Vijaya, Normal';font-variant-ligatures:normal;font-variant-caps:normal;font-variant-numeric:normal;font-feature-settings:normal;text-align:start;letter-spacing:0px;word-spacing:0px;writing-mode:lr-tb;text-anchor:start;fill:#000000;fill-opacity:1;stroke:none;stroke-width:7.5"
         x="9749.3174"
         y="25.07062"
         id="text6471"
         transform="scale(1,-1)"><tspan
           sodipodi:role="line"
           id="tspan6469"
           x="9749.3174"
           y="25.07062"
           style="font-style:normal;font-variant:normal;font-weight:normal;font-stretch:normal;font-size:560px;font-family:Vijaya;-inkscape-font-specification:'Vijaya, Normal';font-variant-ligatures:normal;font-variant-caps:normal;font-variant-numeric:normal;font-feature-settings:normal;text-align:start;writing-mode:lr-tb;text-anchor:start;stroke-width:7.5">v</tspan></text>
<path
         style="fill:none;stroke:#000000;stroke-width:20;stroke-linecap:butt;stroke-linejoin:miter;stroke-miterlimit:4;stroke-dasharray:none;stroke-opacity:1"
         d="m 376.41,3267.4719 v -6017.167"
         id="path5658"
         inkscape:connector-curvature="0" /><path
         d="m 308.13201,-2737.6704 137.27,-0.46 -68.992,-140.24 z"
         style="fill:#000000;fill-opacity:1;fill-rule:nonzero;stroke:none;stroke-width:0.99999994"
         id="path4507-0"
         inkscape:connector-curvature="0" /><text
         xml:space="preserve"
         style="font-style:normal;font-variant:normal;font-weight:normal;font-stretch:normal;font-size:320px;line-height:1.25;font-family:Arial;-inkscape-font-specification:'Arial, Normal';font-variant-ligatures:normal;font-variant-caps:normal;font-variant-numeric:normal;font-feature-settings:normal;text-align:start;letter-spacing:0px;word-spacing:0px;writing-mode:lr-tb;text-anchor:start;fill:#000000;fill-opacity:1;stroke:none;stroke-width:7.5"
         x="-41.004364"
         y="2634.1108"
         id="text6463-6"
         transform="scale(1,-1)"><tspan
           sodipodi:role="line"
           id="tspan6461-6"
           x="-41.004364"
           y="2634.1108"
           style="font-style:normal;font-variant:normal;font-weight:normal;font-stretch:normal;font-size:320px;font-family:Arial;-inkscape-font-specification:'Arial, Normal';font-variant-ligatures:normal;font-variant-caps:normal;font-variant-numeric:normal;font-feature-settings:normal;text-align:start;writing-mode:lr-tb;text-anchor:start;stroke-width:7.5">-1</tspan></text>
<path
         d="m 9674.1923,2338.0146 h 190 v 190 h -190 z"
         style="fill:#cc0000;fill-opacity:1;fill-rule:nonzero;stroke:none;stroke-width:0.99999994"
         id="path5774-9"
         inkscape:connector-curvature="0" /><path
         d="m 9674.1923,2908.0146 h 190 v 190 h -190 z"
         style="fill:#00cc00;fill-opacity:1;fill-rule:nonzero;stroke:none;stroke-width:0.99999994"
         id="path5774-2"
         inkscape:connector-curvature="0" /><text
         xml:space="preserve"
         style="font-style:normal;font-variant:normal;font-weight:normal;font-stretch:normal;font-size:560px;line-height:1.25;font-family:Vijaya;-inkscape-font-specification:'Vijaya, Normal';font-variant-ligatures:normal;font-variant-caps:normal;font-variant-numeric:normal;font-feature-settings:normal;text-align:start;letter-spacing:0px;word-spacing:0px;writing-mode:lr-tb;text-anchor:start;fill:#000000;fill-opacity:1;stroke:none;stroke-width:7.5"
         x="9993.4414"
         y="-3473.7681"
         id="text6422"
         transform="scale(1,-1)"><tspan
           sodipodi:role="line"
           id="tspan6420"
           x="9993.4414"
           y="-3473.7681"
           style="font-style:normal;font-variant:normal;font-weight:normal;font-stretch:normal;font-size:560px;font-family:Vijaya;-inkscape-font-specification:'Vijaya, Normal';font-variant-ligatures:normal;font-variant-caps:normal;font-variant-numeric:normal;font-feature-settings:normal;text-align:start;writing-mode:lr-tb;text-anchor:start;stroke-width:7.5">g(v)</tspan></text>
<text
         xml:space="preserve"
         style="font-style:normal;font-variant:normal;font-weight:normal;font-stretch:normal;font-size:560px;line-height:1.25;font-family:Vijaya;-inkscape-font-specification:'Vijaya, Normal';font-variant-ligatures:normal;font-variant-caps:normal;font-variant-numeric:normal;font-feature-settings:normal;text-align:start;letter-spacing:0px;word-spacing:0px;writing-mode:lr-tb;text-anchor:start;fill:#000000;fill-opacity:1;stroke:none;stroke-width:7.5"
         x="9994.9395"
         y="-2905.6067"
         id="text6426"
         transform="scale(1,-1)"><tspan
           sodipodi:role="line"
           id="tspan6424"
           x="9994.9395"
           y="-2905.6067"
           style="font-style:normal;font-variant:normal;font-weight:normal;font-stretch:normal;font-size:560px;font-family:Vijaya;-inkscape-font-specification:'Vijaya, Normal';font-variant-ligatures:normal;font-variant-caps:normal;font-variant-numeric:normal;font-feature-settings:normal;text-align:start;writing-mode:lr-tb;text-anchor:start;stroke-width:7.5">h(v)</tspan></text>
<text
         xml:space="preserve"
         style="font-style:normal;font-variant:normal;font-weight:normal;font-stretch:normal;font-size:560px;line-height:1.25;font-family:Vijaya;-inkscape-font-specification:'Vijaya, Normal';font-variant-ligatures:normal;font-variant-caps:normal;font-variant-numeric:normal;font-feature-settings:normal;text-align:start;letter-spacing:0px;word-spacing:0px;writing-mode:lr-tb;text-anchor:start;fill:#000000;fill-opacity:1;stroke:none;stroke-width:7.5"
         x="9992.7422"
         y="-2331.4438"
         id="text6430"
         transform="scale(1,-1)"><tspan
           sodipodi:role="line"
           id="tspan6428"
           x="9992.7422"
           y="-2331.4438"
           style="font-style:normal;font-variant:normal;font-weight:normal;font-stretch:normal;font-size:560px;font-family:Vijaya;-inkscape-font-specification:'Vijaya, Normal';font-variant-ligatures:normal;font-variant-caps:normal;font-variant-numeric:normal;font-feature-settings:normal;text-align:start;writing-mode:lr-tb;text-anchor:start;stroke-width:7.5">a(v)</tspan></text>
<path
         d="M 9366.0972,379.92718 V 169.8252"
         style="fill:none;stroke:#000000;stroke-width:20;stroke-linecap:butt;stroke-linejoin:miter;stroke-miterlimit:4;stroke-dasharray:none;stroke-opacity:1"
         id="path4525-1"
         inkscape:connector-curvature="0" /><path
         d="m 480.44018,-2524.5825 h -210.102"
         style="fill:none;stroke:#000000;stroke-width:20;stroke-linecap:butt;stroke-linejoin:miter;stroke-miterlimit:4;stroke-dasharray:none;stroke-opacity:1"
         id="path4525-1-0"
         inkscape:connector-curvature="0" /><text
         xml:space="preserve"
         style="font-style:normal;font-variant:normal;font-weight:normal;font-stretch:normal;font-size:320px;line-height:1.25;font-family:Arial;-inkscape-font-specification:'Arial, Normal';font-variant-ligatures:normal;font-variant-caps:normal;font-variant-numeric:normal;font-feature-settings:normal;text-align:start;letter-spacing:0px;word-spacing:0px;writing-mode:lr-tb;text-anchor:start;fill:#000000;fill-opacity:1;stroke:none;stroke-width:7.5"
         x="64.603706"
         y="-2985.6738"
         id="text6463-6-2"
         transform="scale(1,-1)"><tspan
           sodipodi:role="line"
           id="tspan6461-6-6"
           x="64.603706"
           y="-2985.6738"
           style="font-style:normal;font-variant:normal;font-weight:normal;font-stretch:normal;font-size:320px;font-family:Arial;-inkscape-font-specification:'Arial, Normal';font-variant-ligatures:normal;font-variant-caps:normal;font-variant-numeric:normal;font-feature-settings:normal;text-align:start;writing-mode:lr-tb;text-anchor:start;stroke-width:7.5">1</tspan></text>
<path
         d="m 485.73577,3098.0145 h -210.102"
         style="fill:none;stroke:#000000;stroke-width:20;stroke-linecap:butt;stroke-linejoin:miter;stroke-miterlimit:4;stroke-dasharray:none;stroke-opacity:1"
         id="path4525-1-0-3"
         inkscape:connector-curvature="0" /><path
         d="m 9674.1923,3478.0146 h 190 v 190 h -190 z"
         style="fill:#0000cc;fill-opacity:1;fill-rule:nonzero;stroke:none;stroke-width:0.99999994"
         id="path5774-0-6"
         inkscape:connector-curvature="0" /><g
         id="g4618"
         transform="translate(816.70835,2237.993)"><text
           transform="scale(1,-1)"
           id="text5022"
           y="1678.3165"
           x="8999.3662"
           style="font-style:normal;font-variant:normal;font-weight:normal;font-stretch:normal;font-size:360px;line-height:1.25;font-family:Vijaya;-inkscape-font-specification:'Vijaya, Normal';font-variant-ligatures:normal;font-variant-caps:normal;font-variant-numeric:normal;font-feature-settings:normal;text-align:start;letter-spacing:0px;word-spacing:0px;writing-mode:lr-tb;text-anchor:start;fill:#000000;fill-opacity:1;stroke:none;stroke-width:7.5"
           xml:space="preserve"><tspan
             style="stroke-width:7.5"
             y="1678.3165"
             x="8999.3662"
             id="tspan5020"
             sodipodi:role="line">thresh</tspan></text>
<text
           transform="scale(1,-1)"
           id="text5026"
           y="1573.0807"
           x="8775.7422"
           style="font-style:normal;font-variant:normal;font-weight:normal;font-stretch:normal;font-size:360px;line-height:1.25;font-family:Vijaya;-inkscape-font-specification:'Vijaya, Normal';font-variant-ligatures:normal;font-variant-caps:normal;font-variant-numeric:normal;font-feature-settings:normal;text-align:start;letter-spacing:0px;word-spacing:0px;writing-mode:lr-tb;text-anchor:start;fill:#000000;fill-opacity:1;stroke:none;stroke-width:7.5"
           xml:space="preserve"><tspan
             style="font-size:479.99996948px;stroke-width:7.5"
             y="1573.0807"
             x="8775.7422"
             id="tspan5024"
             sodipodi:role="line">g</tspan></text>
</g><text
         xml:space="preserve"
         style="font-style:normal;font-variant:normal;font-weight:normal;font-stretch:normal;font-size:320px;line-height:1.25;font-family:Arial;-inkscape-font-specification:'Arial, Normal';font-variant-ligatures:normal;font-variant-caps:normal;font-variant-numeric:normal;font-feature-settings:normal;text-align:start;letter-spacing:0px;word-spacing:0px;writing-mode:lr-tb;text-anchor:start;fill:#000000;fill-opacity:1;stroke:none;stroke-width:7.5"
         x="9105.5752"
         y="149.1613"
         id="text5688"
         transform="scale(1,-1)"><tspan
           sodipodi:role="line"
           id="tspan5686"
           x="9105.5752"
           y="149.1613"
           style="font-style:normal;font-variant:normal;font-weight:normal;font-stretch:normal;font-size:320px;font-family:Arial;-inkscape-font-specification:'Arial, Normal';font-variant-ligatures:normal;font-variant-caps:normal;font-variant-numeric:normal;font-feature-settings:normal;text-align:start;writing-mode:lr-tb;text-anchor:start;stroke-width:7.5">255</tspan></text>
<g
         clip-path="url(#cliprect0)"
         id="g437"
         style="stroke-width:3.33333314;stroke-miterlimit:4;stroke-dasharray:none"
         transform="matrix(6.0000005,0,0,-6.0000005,-79.590033,3273.9543)"><polyline
           style="opacity:1;fill:none;stroke:#0000cc;stroke-width:3.33333314;stroke-linecap:butt;stroke-linejoin:miter;stroke-miterlimit:4;stroke-dasharray:none"
           points="76,457.939 81.8824,457.749 87.7647,457.584 93.6471,457.463 99.5294,457.348 105.412,457.252 111.294,457.171 117.176,457.103 123.059,457.043 128.941,456.987 134.824,456.927 140.706,456.851 146.588,456.745 152.471,456.585 158.353,456.338 164.235,455.954 170.118,455.367 176,454.487 181.882,453.2 187.765,451.368 193.647,448.834 199.529,445.434 205.412,441.003 211.294,435.401 217.176,428.524 223.059,420.329 228.941,410.842 234.824,400.165 240.706,388.477 246.588,376.017 252.471,363.066 258.353,349.922 264.235,336.873 270.118,324.174 276,312.03 281.882,300.584 287.765,289.917 293.647,280.055 299.529,270.978 305.412,262.633 311.294,254.949 317.176,247.847 323.059,241.249 328.941,235.084 334.824,229.293 340.706,223.824 346.588,218.639 352.471,213.704 358.353,208.996 364.235,204.494 370.118,200.184 376,196.051 381.882,192.085 387.765,188.276 393.647,184.617 399.529,181.099 405.412,177.717 411.294,174.467 417.176,171.344 423.059,168.344 428.941,165.465 434.824,162.704 440.706,160.059 446.588,157.528 452.471,155.109 458.353,152.798 464.235,150.593 470.118,148.49 476,146.488 481.882,144.583 487.765,142.773 493.647,141.054 499.529,139.424 505.412,137.881 511.294,136.422 517.176,135.044 523.059,133.747 528.941,132.527 534.824,131.384 540.706,130.317 546.588,129.326 552.471,128.411 558.353,127.574 564.235,126.816 570.118,126.137 576,125.539 581.882,125.023 587.765,124.587 593.647,124.231 599.529,123.954 605.412,123.755 611.294,123.632 617.176,123.585 623.059,123.614 628.941,123.719 634.824,123.899 640.706,124.157 646.588,124.491 652.471,124.904 658.353,125.395 664.235,125.966 670.118,126.619 676,127.36 681.882,128.194 687.765,129.134 693.647,130.194 699.529,131.395 705.412,132.762 711.294,134.329 717.176,136.133 723.059,138.214 728.941,140.618 734.824,143.392 740.706,146.579 746.588,150.219 752.471,154.345 758.353,158.981 764.235,164.135 770.118,169.804 776,175.97 781.882,182.6 787.765,189.65 793.647,197.061 799.529,204.769 805.412,212.7 811.294,220.779 817.176,228.923 823.059,237.048 828.941,245.066 834.824,252.884 840.706,260.407 846.588,267.535 852.471,274.17 858.353,280.223 864.235,285.62 870.118,290.318 876,294.317 881.882,297.666 887.765,300.476 893.647,302.915 899.529,305.199 905.412,307.578 911.294,310.305 917.176,313.615 923.059,317.694 928.941,322.658 934.824,328.541 940.706,335.293 946.588,342.787 952.471,350.841 958.353,359.236 964.235,367.744 970.118,376.145 976,384.244 981.882,391.881 987.765,398.93 993.647,405.295 999.529,410.906 1005.41,415.699 1011.29,419.614 1017.18,422.582 1023.06,424.525 1028.94,425.353 1034.82,424.976 1040.71,423.316 1046.59,420.326 1052.47,416.005 1058.35,410.419 1064.24,403.709 1070.12,396.093 1076,387.86 1081.88,379.349 1087.76,370.926 1093.65,362.95 1099.53,355.743 1105.41,349.571 1111.29,344.619 1117.18,340.991 1123.06,338.707 1128.94,337.715 1134.82,337.905 1140.71,339.122 1146.59,341.181 1152.47,343.875 1158.35,346.976 1164.24,350.239 1170.12,353.394 1176,356.15 1181.88,358.189 1187.76,359.181 1193.65,358.798 1199.53,356.747 1205.41,352.808 1211.29,346.873 1217.18,338.989 1223.06,329.386 1228.94,318.482 1234.82,306.871 1240.71,295.275 1246.59,284.478 1252.47,275.247 1258.35,268.252 1264.24,263.988 1270.12,262.739 1276,264.549 1281.88,269.243 1287.76,276.461 1293.65,285.712 1299.53,296.435 1305.41,308.052 1311.29,320.01 1317.18,331.801 1323.06,342.97 1328.94,353.094 1334.82,361.762 1340.71,368.544 1346.59,372.966 1352.47,374.501 1358.35,372.575 1364.24,366.607 1370.12,356.074 1376,340.594 1381.88,320.027 1387.76,294.568 1393.65,264.806 1399.53,231.75 1405.41,196.789 1411.29,161.59 1417.18,127.947 1423.06,97.6009 1428.94,72.0548 1434.82,52.4207 1440.71,39.3216 1446.59,32.862 1452.47,32.6683 1458.35,37.9855 1464.24,47.8086 1470.12,61.0236 1476,76.5332 1481.88,93.3526 1487.76,110.668 1493.65,127.856 1499.53,144.478 1505.41,160.254 1511.29,175.026 1517.18,188.728 1523.06,201.352 1528.94,212.933 1534.82,223.529 1540.71,233.215 1546.59,242.076 1552.47,250.209 1558.35,257.684 1564.24,264.88 1570.12,270.954 1576,276.423 "
           id="polyline422" /><polyline
           style="opacity:1;fill:none;stroke:#00cc00;stroke-width:3.33333314;stroke-linecap:butt;stroke-linejoin:miter;stroke-miterlimit:4;stroke-dasharray:none"
           points="76,515.536 81.8824,514.392 87.7647,513.319 93.6471,512.365 99.5294,511.433 105.412,510.553 111.294,509.718 117.176,508.925 123.059,508.164 128.941,507.425 134.824,506.694 140.706,505.95 146.588,505.168 152.471,504.307 158.353,503.312 164.235,502.104 170.118,500.576 176,498.59 181.882,495.974 187.765,492.528 193.647,488.034 199.529,482.276 205.412,475.064 211.294,466.262 217.176,455.82 223.059,443.798 228.941,430.379 234.824,415.872 240.706,400.69 246.588,385.323 252.471,370.294 258.353,356.104 264.235,343.195 270.118,331.907 276,322.457 281.882,314.938 287.765,309.324 293.647,305.494 299.529,303.26 305.412,302.399 311.294,302.674 317.176,303.863 323.059,305.766 328.941,308.212 334.824,311.065 340.706,314.218 346.588,317.59 352.471,321.118 358.353,324.758 364.235,328.476 370.118,332.248 376,336.056 381.882,339.89 387.765,343.743 393.647,347.612 399.529,351.495 405.412,355.394 411.294,359.308 417.176,363.238 423.059,367.182 428.941,371.139 434.824,375.104 440.706,379.073 446.588,383.041 452.471,387.004 458.353,390.959 464.235,394.906 470.118,398.844 476,402.777 481.882,406.709 487.765,410.644 493.647,414.587 499.529,418.542 505.412,422.512 511.294,426.498 517.176,430.5 523.059,434.514 528.941,438.537 534.824,442.565 540.706,446.59 546.588,450.608 552.471,454.615 558.353,458.607 564.235,462.582 570.118,466.539 576,470.479 581.882,474.404 587.765,478.316 593.647,482.22 599.529,486.12 605.412,490.019 611.294,493.921 617.176,497.829 623.059,501.745 628.941,505.67 634.824,509.604 640.706,513.546 646.588,517.495 652.471,521.447 658.353,525.403 664.235,529.36 670.118,533.319 676,537.278 681.882,541.236 687.765,545.191 693.647,549.135 699.529,553.06 705.412,556.951 711.294,560.788 717.176,564.546 723.059,568.196 728.941,571.703 734.824,575.032 740.706,578.145 746.588,581.003 752.471,583.573 758.353,585.822 764.235,587.724 770.118,589.26 776,590.416 781.882,591.189 787.765,591.581 793.647,591.603 799.529,591.273 805.412,590.615 811.294,589.662 817.176,588.455 823.059,587.041 828.941,585.479 834.824,583.839 840.706,582.199 846.588,580.651 852.471,579.293 858.353,578.228 864.235,577.554 870.118,577.354 876,577.687 881.882,578.574 887.765,579.988 893.647,581.848 899.529,584.023 905.412,586.334 911.294,588.573 917.176,590.517 923.059,591.956 928.941,592.71 934.824,592.648 940.706,591.698 946.588,589.851 952.471,587.154 958.353,583.7 964.235,579.616 970.118,575.042 976,570.121 981.882,564.982 987.765,559.735 993.647,554.462 999.529,549.219 1005.41,544.037 1011.29,538.925 1017.18,533.879 1023.06,528.89 1028.94,523.953 1034.82,519.078 1040.71,514.3 1046.59,509.688 1052.47,505.35 1058.35,501.429 1064.24,498.103 1070.12,495.568 1076,494.023 1081.88,493.645 1087.76,494.576 1093.65,496.897 1099.53,500.618 1105.41,505.677 1111.29,511.938 1117.18,519.208 1123.06,527.247 1128.94,535.792 1134.82,544.575 1140.71,553.338 1146.59,561.849 1152.47,569.907 1158.35,577.357 1164.24,584.082 1170.12,590.015 1176,595.131 1181.88,599.45 1187.76,603.035 1193.65,605.987 1199.53,608.441 1205.41,610.556 1211.29,612.504 1217.18,614.456 1223.06,616.565 1228.94,618.954 1234.82,621.697 1240.71,624.811 1246.59,628.255 1252.47,631.929 1258.35,635.688 1264.24,639.352 1270.12,642.731 1276,645.64 1281.88,647.92 1287.76,649.45 1293.65,650.153 1299.53,650.002 1305.41,649.012 1311.29,647.236 1317.18,644.752 1323.06,641.656 1328.94,638.057 1334.82,634.07 1340.71,629.824 1346.59,625.462 1352.47,621.152 1358.35,617.094 1364.24,613.53 1370.12,610.744 1376,609.06 1381.88,608.832 1387.76,610.422 1393.65,614.178 1399.53,620.395 1405.41,629.286 1411.29,640.952 1417.18,655.351 1423.06,672.289 1428.94,691.418 1434.82,712.25 1440.71,734.181 1446.59,756.535 1452.47,778.609 1458.35,799.725 1464.24,819.286 1470.12,836.821 1476,852.021 1481.88,864.763 1487.76,875.11 1493.65,883.295 1499.53,889.686 1505.41,894.737 1511.29,898.938 1517.18,902.759 1523.06,906.611 1528.94,910.811 1534.82,915.574 1540.71,921.013 1546.59,927.149 1552.47,933.934 1558.35,941.3 1564.24,948.924 1570.12,957.413 1576,966.332 "
           id="polyline424" /><polyline
           style="opacity:1;fill:none;stroke:#ccaa00;stroke-width:3.33333314;stroke-linecap:butt;stroke-linejoin:miter;stroke-miterlimit:4;stroke-dasharray:none"
           points="76,497.471 81.8824,496.812 87.7647,496.235 93.6471,495.798 99.5294,495.388 105.412,495.04 111.294,494.752 117.176,494.518 123.059,494.335 128.941,494.192 134.824,494.082 140.706,493.995 146.588,493.92 152.471,493.847 158.353,493.763 164.235,493.653 170.118,493.503 176,493.296 181.882,493.014 187.765,492.643 193.647,492.175 199.529,491.611 205.412,490.968 211.294,490.282 217.176,489.611 223.059,489.035 228.941,488.648 234.824,488.561 240.706,488.881 246.588,489.707 252.471,491.113 258.353,493.142 264.235,495.799 270.118,499.049 276,502.821 281.882,507.016 287.765,511.519 293.647,516.206 299.529,520.958 305.412,525.672 311.294,530.26 317.176,534.655 323.059,538.812 328.941,542.706 334.824,546.324 340.706,549.667 346.588,552.746 352.471,555.575 358.353,558.172 364.235,560.557 370.118,562.747 376,564.761 381.882,566.616 387.765,568.326 393.647,569.904 399.529,571.363 405.412,572.712 411.294,573.96 417.176,575.117 423.059,576.188 428.941,577.181 434.824,578.103 440.706,578.957 446.588,579.751 452.471,580.487 458.353,581.172 464.235,581.808 470.118,582.401 476,582.952 481.882,583.466 487.765,583.945 493.647,584.392 499.529,584.809 505.412,585.2 511.294,585.567 517.176,585.912 523.059,586.237 528.941,586.544 534.824,586.836 540.706,587.112 546.588,587.374 552.471,587.621 558.353,587.852 564.235,588.066 570.118,588.262 576,588.44 581.882,588.597 587.765,588.734 593.647,588.851 599.529,588.948 605.412,589.026 611.294,589.083 617.176,589.12 623.059,589.136 628.941,589.128 634.824,589.097 640.706,589.041 646.588,588.96 652.471,588.853 658.353,588.722 664.235,588.567 670.118,588.389 676,588.188 681.882,587.963 687.765,587.71 693.647,587.425 699.529,587.099 705.412,586.723 711.294,586.284 717.176,585.765 723.059,585.15 728.941,584.42 734.824,583.557 740.706,582.542 746.588,581.36 752.471,579.997 758.353,578.446 764.235,576.702 770.118,574.767 776,572.649 781.882,570.36 787.765,567.919 793.647,565.346 799.529,562.665 805.412,559.904 811.294,557.089 817.176,554.248 823.059,551.412 828.941,548.61 834.824,545.875 840.706,543.241 846.588,540.742 852.471,538.414 858.353,536.288 864.235,534.39 870.118,532.736 876,531.328 881.882,530.149 887.765,529.161 893.647,528.309 899.529,527.517 905.412,526.701 911.294,525.773 917.176,524.655 923.059,523.281 928.941,521.614 934.824,519.643 940.706,517.387 946.588,514.891 952.471,512.222 958.353,509.459 964.235,506.685 970.118,503.983 976,501.426 981.882,499.081 987.765,497.004 993.647,495.245 999.529,493.852 1005.41,492.873 1011.29,492.365 1017.18,492.393 1023.06,493.033 1028.94,494.366 1034.82,496.473 1040.71,499.426 1046.59,503.272 1052.47,508.02 1058.35,513.63 1064.24,520.003 1070.12,526.975 1076,534.325 1081.88,541.786 1087.76,549.062 1093.65,555.854 1099.53,561.879 1105.41,566.895 1111.29,570.719 1117.18,573.234 1123.06,574.396 1128.94,574.228 1134.82,572.82 1140.71,570.314 1146.59,566.9 1152.47,562.811 1158.35,558.319 1164.24,553.735 1170.12,549.415 1176,545.751 1181.88,543.171 1187.76,542.12 1193.65,543.033 1199.53,546.29 1205.41,552.169 1211.29,560.789 1217.18,572.06 1223.06,585.648 1228.94,600.972 1234.82,617.227 1240.71,633.446 1246.59,648.589 1252.47,661.652 1258.35,671.765 1264.24,678.29 1270.12,680.874 1276,679.469 1281.88,674.318 1287.76,665.896 1293.65,654.847 1299.53,641.902 1305.41,627.808 1311.29,613.283 1317.18,598.977 1323.06,585.479 1328.94,573.325 1334.82,563.035 1340.71,555.149 1346.59,550.253 1352.47,548.995 1358.35,552.071 1364.24,560.178 1370.12,573.933 1376,593.768 1381.88,619.807 1387.76,651.757 1393.65,688.829 1399.53,729.722 1405.41,772.677 1411.29,815.607 1417.18,856.29 1423.06,892.601 1428.94,922.737 1434.82,945.408 1440.71,959.945 1446.59,966.332 1452.47,965.136 1458.35,957.378 1464.24,944.356 1470.12,927.459 1476,908.006 1481.88,887.134 1487.76,865.726 1493.65,844.403 1499.53,823.548 1505.41,803.354 1511.29,783.886 1517.18,765.135 1523.06,747.062 1528.94,729.626 1534.82,712.798 1540.71,696.566 1546.59,680.924 1552.47,665.861 1558.35,651.398 1564.24,637.181 1570.12,624.241 1576,612.049 "
           id="polyline426" /><polyline
           style="opacity:1;fill:none;stroke:#000000;stroke-width:3.33333324;stroke-linecap:butt;stroke-linejoin:miter;stroke-miterlimit:4;stroke-dasharray:13.33333295,26.66666591;stroke-dashoffset:0"
           points="76,425.943 1576,425.943 "
           id="polyline428" /><polyline
           style="opacity:1;fill:none;stroke:#cc00ff;stroke-width:3.33333314;stroke-linecap:butt;stroke-linejoin:miter;stroke-miterlimit:4;stroke-dasharray:none;stroke-opacity:1"
           points="76,499.5 81.8824,499.5 87.7647,499.5 93.6471,499.5 99.5294,499.5 105.412,499.5 111.294,499.5 117.176,499.5 123.059,499.5 128.941,499.5 134.824,499.5 140.706,499.5 146.588,499.5 152.471,499.5 158.353,499.5 164.235,499.5 170.118,499.5 176,499.5 181.882,499.5 187.765,499.5 193.647,499.5 199.529,499.5 205.412,499.5 211.294,499.5 217.176,499.5 223.059,499.5 228.941,499.5 234.824,499.5 240.706,499.5 246.588,499.5 252.471,499.5 258.353,499.5 264.235,499.5 270.118,499.5 276,499.5 281.882,499.5 287.765,499.5 293.647,499.5 299.529,499.5 305.412,499.5 311.294,499.5 317.176,499.5 323.059,499.5 328.941,499.5 334.824,499.5 340.706,499.5 346.588,499.5 352.471,499.5 358.353,499.5 364.235,499.5 370.118,499.5 376,499.5 381.882,499.5 387.765,499.5 393.647,499.5 399.529,499.5 405.412,499.5 411.294,499.5 417.176,499.5 423.059,499.5 428.941,499.5 434.824,499.5 440.706,499.5 446.588,499.5 452.471,499.5 458.353,499.5 464.235,499.5 470.118,499.5 476,499.5 481.882,499.5 487.765,499.5 493.647,499.5 499.529,499.5 505.412,499.5 511.294,499.5 517.176,499.5 523.059,499.5 528.941,499.5 534.824,499.5 540.706,499.5 546.588,499.5 552.471,499.5 558.353,499.5 564.235,499.5 570.118,499.5 576,499.5 581.882,499.486 587.765,499.209 593.647,496.021 599.529,474.625 605.412,392.2 611.294,218.814 617.176,53.4914 623.059,69.5766 628.941,249.018 634.824,411.76 640.706,481.139 646.588,497.221 652.471,499.334 658.353,499.493 664.235,499.5 670.118,499.5 676,499.5 681.882,499.5 687.765,499.5 693.647,499.5 699.529,499.5 705.412,499.5 711.294,499.5 717.176,499.5 723.059,499.5 728.941,499.5 734.824,499.5 740.706,499.5 746.588,499.5 752.471,499.5 758.353,499.5 764.235,499.5 770.118,499.5 776,499.5 781.882,499.5 787.765,499.5 793.647,499.5 799.529,499.5 805.412,499.5 811.294,499.5 817.176,499.5 823.059,499.5 828.941,499.5 834.824,499.5 840.706,499.5 846.588,499.5 852.471,499.5 858.353,499.5 864.235,499.5 870.118,499.5 876,499.5 881.882,499.5 887.765,499.5 893.647,499.5 899.529,499.5 905.412,499.5 911.294,499.5 917.176,499.5 923.059,499.5 928.941,499.5 934.824,499.5 940.706,499.5 946.588,499.5 952.471,499.5 958.353,499.5 964.235,499.5 970.118,499.5 976,499.5 981.882,499.5 987.765,499.5 993.647,499.5 999.529,499.5 1005.41,499.5 1011.29,499.5 1017.18,499.5 1023.06,499.5 1028.94,499.5 1034.82,499.5 1040.71,499.5 1046.59,499.5 1052.47,499.5 1058.35,499.5 1064.24,498.215 1070.12,499.5 1076,499.5 1081.88,499.5 1087.76,499.497 1093.65,463.078 1099.53,179.889 1105.41,499.473 1111.29,499.5 1117.18,499.5 1123.06,499.5 1128.94,499.5 1134.82,499.5 1140.71,499.5 1146.59,499.5 1152.47,499.5 1158.35,499.5 1164.24,499.5 1170.12,499.5 1176,499.5 1181.88,499.5 1187.76,499.5 1193.65,499.5 1199.53,499.5 1205.41,499.5 1211.29,499.5 1217.18,499.5 1223.06,499.5 1228.94,499.5 1234.82,499.5 1240.71,499.5 1246.59,499.5 1252.47,499.5 1258.35,499.5 1264.24,499.5 1270.12,499.5 1276,499.5 1281.88,499.5 1287.76,499.5 1293.65,499.5 1299.53,499.5 1305.41,499.5 1311.29,499.5 1317.18,499.5 1323.06,499.5 1328.94,499.5 1334.82,499.5 1340.71,499.5 1346.59,499.5 1352.47,499.5 1358.35,499.5 1364.24,499.5 1370.12,499.5 1376,499.5 1381.88,499.5 1387.76,499.5 1393.65,499.5 1399.53,499.5 1405.41,499.5 1411.29,499.5 1417.18,499.5 1423.06,499.5 1428.94,499.5 1434.82,499.5 1440.71,499.5 1446.59,499.5 1452.47,499.5 1458.35,499.5 1464.24,499.5 1470.12,499.5 1476,499.5 1481.88,499.5 1487.76,499.5 1493.65,499.5 1499.53,499.5 1505.41,499.5 1511.29,499.5 1517.18,499.5 1523.06,499.5 1528.94,499.5 1534.82,499.5 1540.71,499.5 1546.59,499.5 1552.47,499.5 1558.35,499.5 1564.24,499.5 1570.12,499.5 1576,499.5 "
           id="polyline430" /><clipPath
           id="cliprect1"><rect
             x="0"
             y="0"
             width="1618"
             height="1017"
             id="rect434" /></clipPath><polyline
           style="opacity:1;fill:none;stroke:#cc0004;stroke-width:3.33333314;stroke-linecap:butt;stroke-linejoin:miter;stroke-miterlimit:4;stroke-dasharray:none;stroke-opacity:1"
           points="76,499.5 81.8824,499.5 87.7647,499.5 93.6471,499.5 99.5294,499.5 105.412,499.5 111.294,499.5 117.176,499.5 123.059,499.5 128.941,499.5 134.824,499.5 140.706,499.5 146.588,499.5 152.471,499.5 158.353,499.5 164.235,499.5 170.118,499.5 176,499.5 181.882,499.5 187.765,499.5 193.647,499.5 199.529,499.5 205.412,499.5 211.294,499.5 217.176,499.5 223.059,499.5 228.941,499.5 234.824,499.5 240.706,499.5 246.588,499.5 252.471,499.5 258.353,499.5 264.235,499.5 270.118,499.5 276,499.5 281.882,499.5 287.765,499.5 293.647,499.5 299.529,499.5 305.412,499.5 311.294,499.5 317.176,499.5 323.059,499.5 328.941,499.5 334.824,499.5 340.706,499.5 346.588,499.5 352.471,499.5 358.353,499.5 364.235,499.5 370.118,499.5 376,499.5 381.882,499.5 387.765,499.5 393.647,499.5 399.529,499.5 405.412,499.5 411.294,499.5 417.176,499.5 423.059,499.5 428.941,499.5 434.824,499.5 440.706,499.5 446.588,499.5 452.471,499.5 458.353,499.5 464.235,499.5 470.118,499.5 476,499.5 481.882,499.5 487.765,499.5 493.647,499.5 499.529,499.5 505.412,499.5 511.294,499.5 517.176,499.5 523.059,499.5 528.941,499.5 534.824,499.5 540.706,499.5 546.588,499.5 552.471,499.5 558.353,499.5 564.235,499.5 570.118,499.5 576,499.5 581.882,499.5 587.765,499.5 593.647,499.5 599.529,499.5 605.412,499.5 611.294,498.504 617.176,470.4 623.059,409.864 628.941,470.4 634.824,498.504 640.706,499.5 646.588,499.5 652.471,499.5 658.353,499.5 664.235,499.5 670.118,499.5 676,499.5 681.882,499.5 687.765,499.5 693.647,499.5 699.529,499.5 705.412,499.5 711.294,499.5 717.176,499.5 723.059,499.5 728.941,499.5 734.824,499.5 740.706,499.5 746.588,499.5 752.471,499.5 758.353,499.5 764.235,499.5 770.118,499.5 776,499.5 781.882,499.5 787.765,499.5 793.647,499.5 799.529,499.5 805.412,499.5 811.294,499.5 817.176,499.5 823.059,499.5 828.941,499.5 834.824,499.5 840.706,499.5 846.588,499.5 852.471,499.5 858.353,499.5 864.235,499.5 870.118,499.5 876,499.5 881.882,499.5 887.765,499.5 893.647,499.5 899.529,499.5 905.412,499.5 911.294,499.5 917.176,499.5 923.059,499.5 928.941,499.5 934.824,499.5 940.706,499.5 946.588,499.5 952.471,499.5 958.353,499.5 964.235,499.5 970.118,499.5 976,499.5 981.882,499.5 987.765,499.5 993.647,499.5 999.529,499.5 1005.41,499.5 1011.29,499.5 1017.18,499.5 1023.06,499.5 1028.94,499.5 1034.82,499.5 1040.71,499.5 1046.59,499.5 1052.47,499.5 1058.35,499.5 1064.24,499.5 1070.12,499.5 1076,499.5 1081.88,499.5 1087.76,499.5 1093.65,499.5 1099.53,499.5 1105.41,499.5 1111.29,498.668 1117.18,475.185 1123.06,424.604 1128.94,475.185 1134.82,498.668 1140.71,499.5 1146.59,499.5 1152.47,499.5 1158.35,499.5 1164.24,499.5 1170.12,499.5 1176,499.5 1181.88,499.5 1187.76,499.5 1193.65,499.5 1199.53,499.5 1205.41,499.5 1211.29,499.5 1217.18,499.5 1223.06,499.5 1228.94,499.5 1234.82,499.5 1240.71,499.5 1246.59,499.5 1252.47,499.5 1258.35,497.485 1264.24,440.617 1270.12,318.126 1276,440.617 1281.88,497.485 1287.76,499.5 1293.65,499.5 1299.53,499.5 1305.41,499.5 1311.29,499.5 1317.18,499.5 1323.06,499.5 1328.94,499.5 1334.82,499.5 1340.71,499.5 1346.59,499.5 1352.47,499.5 1358.35,499.5 1364.24,499.5 1370.12,499.5 1376,499.5 1381.88,499.5 1387.76,499.5 1393.65,499.5 1399.53,499.5 1405.41,499.5 1411.29,499.5 1417.18,499.5 1423.06,499.5 1428.94,499.5 1434.82,494.314 1440.71,347.942 1446.59,32.6683 1452.47,347.942 1458.35,494.314 1464.24,499.5 1470.12,499.5 1476,499.5 1481.88,499.5 1487.76,499.5 1493.65,499.5 1499.53,499.5 1505.41,499.5 1511.29,499.5 1517.18,499.5 1523.06,499.5 1528.94,499.5 1534.82,499.5 1540.71,499.5 1546.59,499.5 1552.47,499.5 1558.35,499.5 1564.24,499.5 1570.12,499.5 1576,499.5 "
           id="polyline428-7" /></g></g></g></svg>