<?xml version="1.0" encoding="UTF-8" standalone="no"?>
<svg
   xmlns:dc="http://purl.org/dc/elements/1.1/"
   xmlns:cc="http://creativecommons.org/ns#"
   xmlns:rdf="http://www.w3.org/1999/02/22-rdf-syntax-ns#"
   xmlns:svg="http://www.w3.org/2000/svg"
   xmlns="http://www.w3.org/2000/svg"
   xmlns:sodipodi="http://sodipodi.sourceforge.net/DTD/sodipodi-0.dtd"
   xmlns:inkscape="http://www.inkscape.org/namespaces/inkscape"
   width="1080.4722pt"
   height="666.52264pt"
   viewBox="0 0 1800.785 1110.8711"
   version="1.1"
   id="svg441"
   sodipodi:docname="r_box_sw_kd_ft.svg"
   inkscape:version="0.92.1 r15371">
  <metadata
     id="metadata447">
    <rdf:RDF>
      <cc:Work
         rdf:about="">
        <dc:format>image/svg+xml</dc:format>
        <dc:type
           rdf:resource="http://purl.org/dc/dcmitype/StillImage" />
      </cc:Work>
    </rdf:RDF>
  </metadata>
  <defs
     id="defs445" />
  <sodipodi:namedview
     pagecolor="#ffffff"
     bordercolor="#666666"
     borderopacity="1"
     objecttolerance="10"
     gridtolerance="10"
     guidetolerance="10"
     inkscape:pageopacity="0"
     inkscape:pageshadow="2"
     inkscape:window-width="1920"
     inkscape:window-height="1019"
     id="namedview443"
     showgrid="false"
     inkscape:zoom="0.40315533"
     inkscape:cx="1261.1331"
     inkscape:cy="811.22368"
     inkscape:window-x="-9"
     inkscape:window-y="-9"
     inkscape:window-maximized="1"
     inkscape:current-layer="g435" />
  <g
     id="g439"
     transform="translate(-8.1244383,85.574011)">
    <pattern
       id="pattern0"
       patternUnits="userSpaceOnUse"
       x="0"
       y="0"
       width="7"
       height="7">
      <line
         x1="0"
         y1="3"
         x2="7"
         y2="3"
         style="fill:none; stroke:rgb(0,0,0); opacity:1"
         id="line2" />
    </pattern>
    <g
       clip-path="url(#cliprect0)"
       id="g435">
      <path
         d="m 92.85295,499.5 h -35.017"
         style="fill:none;stroke:#000000;stroke-width:3.33333302;stroke-linecap:butt;stroke-linejoin:miter;stroke-miterlimit:4;stroke-dasharray:none;stroke-opacity:1"
         id="path4525-1-0-2"
         inkscape:connector-curvature="0" />
      <path
         style="fill:none;stroke:#000000;stroke-width:3.26746154;stroke-linecap:butt;stroke-linejoin:miter;stroke-miterlimit:4;stroke-dasharray:none;stroke-opacity:1"
         d="M 1625.6304,499.5 H 76"
         id="path5658-2"
         inkscape:connector-curvature="0" />
      <path
         d="M 87.37966,2.943353 64.50133,2.866683 76,-20.506649 Z"
         style="fill:#000000;fill-opacity:1;fill-rule:nonzero;stroke:none;stroke-width:0.16666664"
         id="path4507"
         inkscape:connector-curvature="0" />
      <path
         d="m 1625.2739,510.88009 0.076,-22.87684 23.3666,11.49666 z"
         style="fill:#000000;fill-opacity:1;fill-rule:nonzero;stroke:none;stroke-width:0.16666664"
         id="path4517"
         inkscape:connector-curvature="0" />
      <text
         xml:space="preserve"
         style="font-style:normal;font-variant:normal;font-weight:normal;font-stretch:normal;font-size:53.33332825px;line-height:1.25;font-family:Arial;-inkscape-font-specification:'Arial, Normal';font-variant-ligatures:normal;font-variant-caps:normal;font-variant-numeric:normal;font-feature-settings:normal;text-align:start;letter-spacing:0px;word-spacing:0px;writing-mode:lr-tb;text-anchor:start;fill:#000000;fill-opacity:1;stroke:none;stroke-width:1.25"
         x="16.481144"
         y="518.14111"
         id="text6467"><tspan
           sodipodi:role="line"
           id="tspan6465"
           x="16.481144"
           y="518.14111"
           style="font-style:normal;font-variant:normal;font-weight:normal;font-stretch:normal;font-size:53.33332825px;font-family:Arial;-inkscape-font-specification:'Arial, Normal';font-variant-ligatures:normal;font-variant-caps:normal;font-variant-numeric:normal;font-feature-settings:normal;text-align:start;writing-mode:lr-tb;text-anchor:start;stroke-width:1.25">0</tspan></text>
      <text
         xml:space="preserve"
         style="font-style:normal;font-variant:normal;font-weight:normal;font-stretch:normal;font-size:93.33332825px;line-height:1.25;font-family:Vijaya;-inkscape-font-specification:'Vijaya, Normal';font-variant-ligatures:normal;font-variant-caps:normal;font-variant-numeric:normal;font-feature-settings:normal;text-align:start;letter-spacing:0px;word-spacing:0px;writing-mode:lr-tb;text-anchor:start;fill:#000000;fill-opacity:1;stroke:none;stroke-width:1.25"
         x="1638.151"
         y="549.74677"
         id="text6471"><tspan
           sodipodi:role="line"
           id="tspan6469"
           x="1638.151"
           y="549.74677"
           style="font-style:normal;font-variant:normal;font-weight:normal;font-stretch:normal;font-size:93.33332825px;font-family:Vijaya;-inkscape-font-specification:'Vijaya, Normal';font-variant-ligatures:normal;font-variant-caps:normal;font-variant-numeric:normal;font-feature-settings:normal;text-align:start;writing-mode:lr-tb;text-anchor:start;stroke-width:1.25">v</tspan></text>
      <path
         style="fill:none;stroke:#000000;stroke-width:3.33333302;stroke-linecap:butt;stroke-linejoin:miter;stroke-miterlimit:4;stroke-dasharray:none;stroke-opacity:1"
         d="M 76,0.989669 V 1003.8508"
         id="path5658"
         inkscape:connector-curvature="0" />
      <path
         d="m 64.62033,1001.8467 22.87833,0.077 L 76,1025.297 Z"
         style="fill:#000000;fill-opacity:1;fill-rule:nonzero;stroke:none;stroke-width:0.16666664"
         id="path4507-0"
         inkscape:connector-curvature="0" />
      <text
         xml:space="preserve"
         style="font-style:normal;font-variant:normal;font-weight:normal;font-stretch:normal;font-size:53.33332825px;line-height:1.25;font-family:Arial;-inkscape-font-specification:'Arial, Normal';font-variant-ligatures:normal;font-variant-caps:normal;font-variant-numeric:normal;font-feature-settings:normal;text-align:start;letter-spacing:0px;word-spacing:0px;writing-mode:lr-tb;text-anchor:start;fill:#000000;fill-opacity:1;stroke:none;stroke-width:1.25"
         x="6.430912"
         y="984.58673"
         id="text6463-6"><tspan
           sodipodi:role="line"
           id="tspan6461-6"
           x="6.430912"
           y="984.58673"
           style="font-style:normal;font-variant:normal;font-weight:normal;font-stretch:normal;font-size:53.33332825px;font-family:Arial;-inkscape-font-specification:'Arial, Normal';font-variant-ligatures:normal;font-variant-caps:normal;font-variant-numeric:normal;font-feature-settings:normal;text-align:start;writing-mode:lr-tb;text-anchor:start;stroke-width:1.25">-1</tspan></text>
      <path
         d="m 1625.6304,155.8992 h 31.6666 v -31.66666 h -31.6666 z"
         style="fill:#cc0000;fill-opacity:1;fill-rule:nonzero;stroke:none;stroke-width:0.16666664"
         id="path5774-9"
         inkscape:connector-curvature="0" />
      <path
         d="m 1625.6304,60.899212 h 31.6666 v -31.66666 h -31.6666 z"
         style="fill:#00cc00;fill-opacity:1;fill-rule:nonzero;stroke:none;stroke-width:0.16666664"
         id="path5774-2"
         inkscape:connector-curvature="0" />
      <text
         xml:space="preserve"
         style="font-style:normal;font-variant:normal;font-weight:normal;font-stretch:normal;font-size:93.33332825px;line-height:1.25;font-family:Vijaya;-inkscape-font-specification:'Vijaya, Normal';font-variant-ligatures:normal;font-variant-caps:normal;font-variant-numeric:normal;font-feature-settings:normal;text-align:start;letter-spacing:0px;word-spacing:0px;writing-mode:lr-tb;text-anchor:start;fill:#000000;fill-opacity:1;stroke:none;stroke-width:1.25"
         x="1678.8384"
         y="-33.393024"
         id="text6422"><tspan
           sodipodi:role="line"
           id="tspan6420"
           x="1678.8384"
           y="-33.393024"
           style="font-style:normal;font-variant:normal;font-weight:normal;font-stretch:normal;font-size:93.33332825px;font-family:Vijaya;-inkscape-font-specification:'Vijaya, Normal';font-variant-ligatures:normal;font-variant-caps:normal;font-variant-numeric:normal;font-feature-settings:normal;text-align:start;writing-mode:lr-tb;text-anchor:start;stroke-width:1.25">g(v)</tspan></text>
      <text
         xml:space="preserve"
         style="font-style:normal;font-variant:normal;font-weight:normal;font-stretch:normal;font-size:93.33332825px;line-height:1.25;font-family:Vijaya;-inkscape-font-specification:'Vijaya, Normal';font-variant-ligatures:normal;font-variant-caps:normal;font-variant-numeric:normal;font-feature-settings:normal;text-align:start;letter-spacing:0px;word-spacing:0px;writing-mode:lr-tb;text-anchor:start;fill:#000000;fill-opacity:1;stroke:none;stroke-width:1.25"
         x="1679.088"
         y="61.300533"
         id="text6426"><tspan
           sodipodi:role="line"
           id="tspan6424"
           x="1679.088"
           y="61.300533"
           style="font-style:normal;font-variant:normal;font-weight:normal;font-stretch:normal;font-size:93.33332825px;font-family:Vijaya;-inkscape-font-specification:'Vijaya, Normal';font-variant-ligatures:normal;font-variant-caps:normal;font-variant-numeric:normal;font-feature-settings:normal;text-align:start;writing-mode:lr-tb;text-anchor:start;stroke-width:1.25">h(v)</tspan></text>
      <text
         xml:space="preserve"
         style="font-style:normal;font-variant:normal;font-weight:normal;font-stretch:normal;font-size:93.33332825px;line-height:1.25;font-family:Vijaya;-inkscape-font-specification:'Vijaya, Normal';font-variant-ligatures:normal;font-variant-caps:normal;font-variant-numeric:normal;font-feature-settings:normal;text-align:start;letter-spacing:0px;word-spacing:0px;writing-mode:lr-tb;text-anchor:start;fill:#000000;fill-opacity:1;stroke:none;stroke-width:1.25"
         x="1678.7218"
         y="156.99434"
         id="text6430"><tspan
           sodipodi:role="line"
           id="tspan6428"
           x="1678.7218"
           y="156.99434"
           style="font-style:normal;font-variant:normal;font-weight:normal;font-stretch:normal;font-size:93.33332825px;font-family:Vijaya;-inkscape-font-specification:'Vijaya, Normal';font-variant-ligatures:normal;font-variant-caps:normal;font-variant-numeric:normal;font-feature-settings:normal;text-align:start;writing-mode:lr-tb;text-anchor:start;stroke-width:1.25">a(v)</tspan></text>
      <path
         d="m 1574.2811,482.24709 v 35.017"
         style="fill:none;stroke:#000000;stroke-width:3.33333302;stroke-linecap:butt;stroke-linejoin:miter;stroke-miterlimit:4;stroke-dasharray:none;stroke-opacity:1"
         id="path4525-1"
         inkscape:connector-curvature="0" />
      <path
         d="m 93.33836,966.33199 h -35.017"
         style="fill:none;stroke:#000000;stroke-width:3.33333302;stroke-linecap:butt;stroke-linejoin:miter;stroke-miterlimit:4;stroke-dasharray:none;stroke-opacity:1"
         id="path4525-1-0"
         inkscape:connector-curvature="0" />
      <text
         xml:space="preserve"
         style="font-style:normal;font-variant:normal;font-weight:normal;font-stretch:normal;font-size:53.33332825px;line-height:1.25;font-family:Arial;-inkscape-font-specification:'Arial, Normal';font-variant-ligatures:normal;font-variant-caps:normal;font-variant-numeric:normal;font-feature-settings:normal;text-align:start;letter-spacing:0px;word-spacing:0px;writing-mode:lr-tb;text-anchor:start;fill:#000000;fill-opacity:1;stroke:none;stroke-width:1.25"
         x="24.032291"
         y="47.956005"
         id="text6463-6-2"><tspan
           sodipodi:role="line"
           id="tspan6461-6-6"
           x="24.032291"
           y="47.956005"
           style="font-style:normal;font-variant:normal;font-weight:normal;font-stretch:normal;font-size:53.33332825px;font-family:Arial;-inkscape-font-specification:'Arial, Normal';font-variant-ligatures:normal;font-variant-caps:normal;font-variant-numeric:normal;font-feature-settings:normal;text-align:start;writing-mode:lr-tb;text-anchor:start;stroke-width:1.25">1</tspan></text>
      <path
         d="m 94.22096,29.232572 h -35.017"
         style="fill:none;stroke:#000000;stroke-width:3.33333302;stroke-linecap:butt;stroke-linejoin:miter;stroke-miterlimit:4;stroke-dasharray:none;stroke-opacity:1"
         id="path4525-1-0-3"
         inkscape:connector-curvature="0" />
      <path
         d="m 1625.6304,-34.100778 h 31.6666 v -31.666665 h -31.6666 z"
         style="fill:#0000cc;fill-opacity:1;fill-rule:nonzero;stroke:none;stroke-width:0.16666664"
         id="path5774-0-6"
         inkscape:connector-curvature="0" />
      <text
         xml:space="preserve"
         style="font-style:normal;font-variant:normal;font-weight:normal;font-stretch:normal;font-size:53.33332825px;line-height:1.25;font-family:Arial;-inkscape-font-specification:'Arial, Normal';font-variant-ligatures:normal;font-variant-caps:normal;font-variant-numeric:normal;font-feature-settings:normal;text-align:start;letter-spacing:0px;word-spacing:0px;writing-mode:lr-tb;text-anchor:start;fill:#000000;fill-opacity:1;stroke:none;stroke-width:1.25"
         x="1530.8606"
         y="570.42853"
         id="text5688"><tspan
           sodipodi:role="line"
           id="tspan5686"
           x="1530.8606"
           y="570.42853"
           style="font-style:normal;font-variant:normal;font-weight:normal;font-stretch:normal;font-size:53.33332825px;font-family:Arial;-inkscape-font-specification:'Arial, Normal';font-variant-ligatures:normal;font-variant-caps:normal;font-variant-numeric:normal;font-feature-settings:normal;text-align:start;writing-mode:lr-tb;text-anchor:start;stroke-width:1.25">255</tspan></text>
      <polyline
         style="opacity:1;fill:none;stroke:#0000cc;stroke-width:5;stroke-linecap:butt;stroke-linejoin:miter;stroke-miterlimit:4;stroke-dasharray:none"
         points="76,464.064 81.8824,404.757 87.7647,350.456 93.6471,304.974 99.5294,261.361 105.412,222.221 111.294,187.579 117.176,157.59 123.059,132.265 128.941,111.489 134.824,95.0607 140.706,82.6971 146.588,74.0357 152.471,68.6326 158.353,65.9629 164.235,65.4299 170.118,66.388 176,68.1781 181.882,70.1725 187.765,71.8218 193.647,72.6969 199.529,72.5175 205.412,71.1622 211.294,68.6601 217.176,65.166 223.059,60.9251 228.941,56.2336 234.824,51.4023 240.706,46.7265 246.588,42.4652 252.471,38.8276 258.353,35.9661 264.235,33.9734 270.118,32.8823 276,32.6683 281.882,33.2556 287.765,34.5281 293.647,36.347 299.529,38.5732 305.412,41.0932 311.294,43.8455 317.176,46.8411 323.059,50.1755 328.941,54.0278 334.824,58.6469 340.706,64.3255 346.588,71.366 352.471,80.0427 358.353,90.5653 364.235,103.047 370.118,117.483 376,133.733 381.882,151.527 387.765,170.471 393.647,190.072 399.529,209.775 405.412,229.008 411.294,247.225 417.176,263.962 423.059,278.865 428.941,291.723 434.824,302.469 440.706,311.169 446.588,317.991 452.471,323.174 458.353,326.982 464.235,329.67 470.118,331.46 476,332.525 481.882,332.982 487.765,332.898 493.647,332.297 499.529,331.166 505.412,329.466 511.294,327.132 517.176,324.082 523.059,320.217 528.941,315.433 534.824,309.629 540.706,302.726 546.588,294.686 552.471,285.531 558.353,275.368 564.235,264.394 570.118,252.898 576,241.249 581.882,229.866 587.765,219.178 593.647,209.575 599.529,201.361 605.412,194.722 611.294,189.705 617.176,186.222 623.059,184.079 628.941,183.017 634.824,182.759 640.706,183.062 646.588,183.745 652.471,184.704 658.353,185.913 664.235,187.398 670.118,189.208 676,191.388 681.882,193.954 687.765,196.879 693.647,200.096 699.529,203.516 705.412,207.048 711.294,210.625 717.176,214.232 723.059,217.911 728.941,221.77 734.824,225.969 740.706,230.691 746.588,236.111 752.471,242.364 758.353,249.507 764.235,257.499 770.118,266.195 776,275.353 781.882,284.655 787.765,293.747 793.647,302.274 799.529,309.928 805.412,316.475 811.294,321.78 817.176,325.81 823.059,328.626 828.941,330.368 834.824,331.227 840.706,331.424 846.588,331.185 852.471,330.73 858.353,330.264 864.235,329.974 870.118,330.028 876,330.573 881.882,331.727 887.765,333.575 893.647,336.155 899.529,339.452 905.412,343.392 911.294,347.844 917.176,352.633 923.059,357.556 928.941,362.403 934.824,366.982 940.706,371.136 946.588,374.756 952.471,377.788 958.353,380.226 964.235,382.105 970.118,383.484 976,384.438 981.882,385.038 987.765,385.348 993.647,385.417 999.529,385.278 1005.41,384.951 1011.29,384.449 1017.18,383.778 1023.06,382.942 1028.94,381.947 1034.82,380.796 1040.71,379.491 1046.59,378.026 1052.47,376.389 1058.35,374.558 1064.24,372.502 1070.12,370.183 1076,367.559 1081.88,364.587 1087.76,361.233 1093.65,357.474 1099.53,353.303 1105.41,348.738 1111.29,343.822 1117.18,338.626 1123.06,333.252 1128.94,327.832 1134.82,322.522 1140.71,317.5 1146.59,312.952 1152.47,309.066 1158.35,306.014 1164.24,303.942 1170.12,302.956 1176,303.111 1181.88,304.411 1187.76,306.802 1193.65,310.183 1199.53,314.414 1205.41,319.328 1211.29,324.742 1217.18,330.466 1223.06,336.317 1228.94,342.111 1234.82,347.672 1240.71,352.827 1246.59,357.402 1252.47,361.228 1258.35,364.137 1264.24,365.976 1270.12,366.615 1276,365.96 1281.88,363.968 1287.76,360.661 1293.65,356.137 1299.53,350.572 1305.41,344.22 1311.29,337.401 1317.18,330.474 1323.06,323.817 1328.94,317.785 1334.82,312.681 1340.71,308.729 1346.59,306.049 1352.47,304.66 1358.35,304.476 1364.24,305.333 1370.12,307.009 1376,309.256 1381.88,311.826 1387.76,314.499 1393.65,317.1 1399.53,319.508 1405.41,321.664 1411.29,323.566 1417.18,325.259 1423.06,326.83 1428.94,328.387 1434.82,330.049 1440.71,331.935 1446.59,334.15 1452.47,336.788 1458.35,339.921 1464.24,343.608 1470.12,347.891 1476,352.798 1481.88,358.339 1487.76,364.511 1493.65,371.286 1499.53,378.619 1505.41,386.437 1511.29,394.65 1517.18,403.15 1523.06,411.82 1528.94,420.543 1534.82,429.21 1540.71,437.724 1546.59,446.017 1552.47,454.044 1558.35,461.767 1564.24,469.364 1570.12,476.277 1576,482.791 "
         id="polyline422" />
      <polyline
         style="opacity:1;fill:none;stroke:#00cc00;stroke-width:5;stroke-linecap:butt;stroke-linejoin:miter;stroke-miterlimit:4;stroke-dasharray:none"
         points="76,360.777 81.8824,320.528 87.7647,285.554 93.6471,259.564 99.5294,235.226 105.412,214.913 111.294,198.269 117.176,185.01 123.059,174.666 128.941,166.634 134.824,160.262 140.706,154.896 146.588,149.93 152.471,144.836 158.353,139.187 164.235,132.666 170.118,125.077 176,116.353 181.882,106.553 187.765,95.871 193.647,84.6272 199.529,73.2584 205.412,62.293 211.294,52.313 217.176,43.9017 223.059,37.5833 228.941,33.7614 234.824,32.6683 240.706,34.3379 246.588,38.6081 252.471,45.1571 258.353,53.5671 264.235,63.4027 270.118,74.2876 276,85.9612 281.882,98.3042 287.765,111.327 293.647,125.125 299.529,139.823 305.412,155.503 311.294,172.165 317.176,189.696 323.059,207.879 328.941,226.423 334.824,245.007 340.706,263.329 346.588,281.141 352.471,298.28 358.353,314.665 364.235,330.286 370.118,345.18 376,359.4 381.882,372.986 387.765,385.941 393.647,398.221 399.529,409.732 405.412,420.343 411.294,429.902 417.176,438.26 423.059,445.291 428.941,450.913 434.824,455.1 440.706,457.883 446.588,459.35 452.471,459.633 458.353,458.901 464.235,457.343 470.118,455.16 476,452.556 481.882,449.729 487.765,446.869 493.647,444.153 499.529,441.737 505.412,439.752 511.294,438.291 517.176,437.404 523.059,437.09 528.941,437.293 534.824,437.91 540.706,438.798 546.588,439.795 552.471,440.743 558.353,441.516 564.235,442.044 570.118,442.334 576,442.481 581.882,442.666 587.765,443.146 593.647,444.225 599.529,446.222 605.412,449.435 611.294,454.095 617.176,460.333 623.059,468.153 628.941,477.419 634.824,487.859 640.706,499.08 646.588,510.61 652.471,521.942 658.353,532.592 664.235,542.148 670.118,550.32 676,556.973 681.882,562.132 687.765,565.986 693.647,568.849 699.529,571.127 705.412,573.253 711.294,575.643 717.176,578.628 723.059,582.42 728.941,587.079 734.824,592.501 740.706,598.431 746.588,604.493 752.471,610.236 758.353,615.197 764.235,618.969 770.118,621.253 776,621.916 781.882,621.007 787.765,618.753 793.647,615.527 799.529,611.782 805.412,607.975 811.294,604.478 817.176,601.505 823.059,599.062 828.941,596.928 834.824,594.677 840.706,591.732 846.588,587.449 852.471,581.214 858.353,572.538 864.235,561.129 870.118,546.937 876,530.169 881.882,511.254 887.765,490.795 893.647,469.49 899.529,448.058 905.412,427.166 911.294,407.379 917.176,389.123 923.059,372.679 928.941,358.188 934.824,345.68 940.706,335.102 946.588,326.35 952.471,319.302 958.353,313.847 964.235,309.894 970.118,307.392 976,306.326 981.882,306.713 987.765,308.592 993.647,312.007 999.529,316.991 1005.41,323.548 1011.29,331.639 1017.18,341.176 1023.06,352.02 1028.94,363.992 1034.82,376.879 1040.71,390.462 1046.59,404.525 1052.47,418.874 1058.35,433.344 1064.24,447.807 1070.12,462.163 1076,476.34 1081.88,490.285 1087.76,503.958 1093.65,517.331 1099.53,530.381 1105.41,543.094 1111.29,555.46 1117.18,567.467 1123.06,579.095 1128.94,590.305 1134.82,601.022 1140.71,611.135 1146.59,620.489 1152.47,628.898 1158.35,636.166 1164.24,642.118 1170.12,646.642 1176,649.72 1181.88,651.454 1187.76,652.071 1193.65,651.902 1199.53,651.342 1205.41,650.788 1211.29,650.584 1217.18,650.966 1223.06,652.033 1228.94,653.752 1234.82,655.986 1240.71,658.544 1246.59,661.235 1252.47,663.915 1258.35,666.506 1264.24,668.992 1270.12,671.383 1276,673.668 1281.88,675.763 1287.76,677.478 1293.65,678.504 1299.53,678.439 1305.41,676.838 1311.29,673.281 1317.18,667.453 1323.06,659.205 1328.94,648.605 1334.82,635.946 1340.71,621.734 1346.59,606.642 1352.47,591.449 1358.35,576.965 1364.24,563.964 1370.12,553.116 1376,544.942 1381.88,539.785 1387.76,537.794 1393.65,538.929 1399.53,542.984 1405.41,549.615 1411.29,558.383 1417.18,568.801 1423.06,580.374 1428.94,592.643 1434.82,605.211 1440.71,617.759 1446.59,630.045 1452.47,641.893 1458.35,653.172 1464.24,663.767 1470.12,673.559 1476,682.405 1481.88,690.132 1487.76,696.539 1493.65,701.398 1499.53,704.474 1505.41,705.529 1511.29,704.332 1517.18,700.667 1523.06,694.335 1528.94,685.155 1534.82,672.98 1540.71,657.704 1546.59,639.301 1552.47,617.839 1558.35,593.298 1564.24,567.475 1570.12,535.465 1576,499.92 "
         id="polyline424" />
      <polyline
         style="opacity:1;fill:none;stroke:#cc0000;stroke-width:5;stroke-linecap:butt;stroke-linejoin:miter;stroke-miterlimit:4;stroke-dasharray:none"
         points="76,499.5 81.8824,499.5 87.7647,499.5 93.6471,499.5 99.5294,499.5 105.412,499.5 111.294,499.5 117.176,499.5 123.059,499.5 128.941,499.5 134.824,499.5 140.706,499.5 146.588,499.5 152.471,499.5 158.353,499.5 164.235,499.5 170.118,499.5 176,499.5 181.882,499.5 187.765,499.5 193.647,499.5 199.529,499.5 205.412,499.5 211.294,499.5 217.176,499.5 223.059,499.5 228.941,499.5 234.824,499.5 240.706,499.5 246.588,499.5 252.471,499.5 258.353,499.5 264.235,499.5 270.118,499.5 276,499.5 281.882,499.5 287.765,499.5 293.647,499.5 299.529,499.5 305.412,499.5 311.294,499.5 317.176,499.5 323.059,499.5 328.941,499.5 334.824,499.5 340.706,499.5 346.588,499.5 352.471,499.5 358.353,499.5 364.235,499.5 370.118,499.5 376,499.5 381.882,499.5 387.765,499.5 393.647,499.5 399.529,499.5 405.412,499.5 411.294,499.5 417.176,499.5 423.059,499.5 428.941,499.5 434.824,499.5 440.706,499.5 446.588,499.5 452.471,499.5 458.353,499.5 464.235,499.5 470.118,499.5 476,499.5 481.882,499.5 487.765,499.5 493.647,499.5 499.529,499.5 505.412,499.5 511.294,499.5 517.176,499.5 523.059,499.5 528.941,499.5 534.824,499.5 540.706,499.5 546.588,499.5 552.471,499.5 558.353,499.5 564.235,499.5 570.118,499.5 576,499.5 581.882,499.5 587.765,499.5 593.647,499.5 599.529,499.5 605.412,499.5 611.294,499.5 617.176,499.5 623.059,499.5 628.941,499.5 634.824,499.498 640.706,40.0498 646.588,499.494 652.471,499.5 658.353,499.5 664.235,499.5 670.118,499.5 676,499.5 681.882,499.5 687.765,499.5 693.647,499.5 699.529,499.5 705.412,499.5 711.294,499.5 717.176,499.5 723.059,499.5 728.941,499.5 734.824,499.5 740.706,499.5 746.588,499.5 752.471,499.5 758.353,499.5 764.235,499.5 770.118,499.5 776,499.5 781.882,499.5 787.765,499.5 793.647,499.5 799.529,499.5 805.412,499.5 811.294,499.5 817.176,499.5 823.059,499.5 828.941,499.5 834.824,499.5 840.706,499.5 846.588,499.5 852.471,499.5 858.353,499.5 864.235,499.5 870.118,499.5 876,499.5 881.882,499.5 887.765,499.5 893.647,499.5 899.529,499.5 905.412,499.5 911.294,499.5 917.176,499.5 923.059,499.5 928.941,499.5 934.824,499.5 940.706,499.5 946.588,499.5 952.471,499.5 958.353,499.5 964.235,499.5 970.118,499.5 976,499.5 981.882,499.5 987.765,499.5 993.647,499.5 999.529,499.5 1005.41,499.5 1011.29,499.5 1017.18,499.5 1023.06,499.5 1028.94,499.5 1034.82,499.5 1040.71,499.5 1046.59,499.5 1052.47,499.5 1058.35,499.5 1064.24,499.5 1070.12,499.5 1076,499.5 1081.88,499.5 1087.76,499.461 1093.65,499.5 1099.53,499.5 1105.41,499.5 1111.29,499.5 1117.18,499.5 1123.06,499.5 1128.94,499.5 1134.82,499.5 1140.71,499.5 1146.59,499.5 1152.47,499.5 1158.35,499.5 1164.24,499.5 1170.12,499.5 1176,499.5 1181.88,499.5 1187.76,499.5 1193.65,499.5 1199.53,499.5 1205.41,499.5 1211.29,499.5 1217.18,499.5 1223.06,499.5 1228.94,499.5 1234.82,499.5 1240.71,499.5 1246.59,499.5 1252.47,499.5 1258.35,499.5 1264.24,499.5 1270.12,499.5 1276,499.5 1281.88,499.5 1287.76,499.5 1293.65,499.5 1299.53,499.5 1305.41,499.5 1311.29,499.5 1317.18,499.5 1323.06,499.5 1328.94,499.5 1334.82,499.5 1340.71,499.5 1346.59,499.5 1352.47,499.5 1358.35,499.5 1364.24,499.5 1370.12,499.5 1376,499.5 1381.88,499.5 1387.76,499.5 1393.65,499.5 1399.53,499.5 1405.41,499.5 1411.29,499.5 1417.18,499.5 1423.06,499.5 1428.94,499.5 1434.82,499.5 1440.71,499.5 1446.59,499.5 1452.47,499.5 1458.35,499.5 1464.24,499.5 1470.12,499.5 1476,499.5 1481.88,499.5 1487.76,499.5 1493.65,499.5 1499.53,499.5 1505.41,499.5 1511.29,499.5 1517.18,499.5 1523.06,499.5 1528.94,499.5 1534.82,499.5 1540.71,499.5 1546.59,499.5 1552.47,499.5 1558.35,499.5 1564.24,499.5 1570.12,499.5 1576,497.959 "
         id="polyline430" />
      <clipPath
         id="cliprect1">
        <rect
           x="0"
           y="0"
           width="1618"
           height="1017"
           id="rect432" />
      </clipPath>
    </g>
    <g
       clip-path="url(#cliprect1)"
       id="g437" />
  </g>
</svg>
