<?xml version="1.0" encoding="UTF-8" standalone="no"?>
<svg
   xmlns:dc="http://purl.org/dc/elements/1.1/"
   xmlns:cc="http://creativecommons.org/ns#"
   xmlns:rdf="http://www.w3.org/1999/02/22-rdf-syntax-ns#"
   xmlns:svg="http://www.w3.org/2000/svg"
   xmlns="http://www.w3.org/2000/svg"
   xmlns:sodipodi="http://sodipodi.sourceforge.net/DTD/sodipodi-0.dtd"
   xmlns:inkscape="http://www.inkscape.org/namespaces/inkscape"
   width="1072.0592pt"
   height="666.52258pt"
   viewBox="0 0 1786.7635 1110.8709"
   version="1.1"
   id="svg441"
   sodipodi:docname="r_box_sg_kd_ft.svg"
   inkscape:version="0.92.1 r15371">
  <metadata
     id="metadata447">
    <rdf:RDF>
      <cc:Work
         rdf:about="">
        <dc:format>image/svg+xml</dc:format>
        <dc:type
           rdf:resource="http://purl.org/dc/dcmitype/StillImage" />
      </cc:Work>
    </rdf:RDF>
  </metadata>
  <defs
     id="defs445" />
  <sodipodi:namedview
     pagecolor="#ffffff"
     bordercolor="#666666"
     borderopacity="1"
     objecttolerance="10"
     gridtolerance="10"
     guidetolerance="10"
     inkscape:pageopacity="0"
     inkscape:pageshadow="2"
     inkscape:window-width="1920"
     inkscape:window-height="1019"
     id="namedview443"
     showgrid="false"
     inkscape:zoom="0.40315533"
     inkscape:cx="1343.1908"
     inkscape:cy="468.51069"
     inkscape:window-x="-9"
     inkscape:window-y="-9"
     inkscape:window-maximized="1"
     inkscape:current-layer="g439" />
  <g
     id="g439"
     transform="translate(-8.1244783,85.574011)">
    <pattern
       id="pattern0"
       patternUnits="userSpaceOnUse"
       x="0"
       y="0"
       width="7"
       height="7">
      <line
         x1="0"
         y1="3"
         x2="7"
         y2="3"
         style="fill:none; stroke:rgb(0,0,0); opacity:1"
         id="line2" />
    </pattern>
    <path
       d="m 92.85295,499.5 h -35.017"
       style="fill:none;stroke:#000000;stroke-width:3.33333302;stroke-linecap:butt;stroke-linejoin:miter;stroke-miterlimit:4;stroke-dasharray:none;stroke-opacity:1"
       id="path4525-1-0-2"
       inkscape:connector-curvature="0" />
    <path
       style="fill:none;stroke:#000000;stroke-width:3.26746154;stroke-linecap:butt;stroke-linejoin:miter;stroke-miterlimit:4;stroke-dasharray:none;stroke-opacity:1"
       d="M 1625.6303,499.5 H 76"
       id="path5658-2"
       inkscape:connector-curvature="0" />
    <path
       d="M 87.37967,2.943355 64.50134,2.866655 76,-20.506675 Z"
       style="fill:#000000;fill-opacity:1;fill-rule:nonzero;stroke:none;stroke-width:0.16666664"
       id="path4507"
       inkscape:connector-curvature="0" />
    <path
       d="m 1625.2738,510.88009 0.076,-22.87684 23.3666,11.49666 z"
       style="fill:#000000;fill-opacity:1;fill-rule:nonzero;stroke:none;stroke-width:0.16666664"
       id="path4517"
       inkscape:connector-curvature="0" />
    <text
       xml:space="preserve"
       style="font-style:normal;font-variant:normal;font-weight:normal;font-stretch:normal;font-size:53.33332825px;line-height:1.25;font-family:Arial;-inkscape-font-specification:'Arial, Normal';font-variant-ligatures:normal;font-variant-caps:normal;font-variant-numeric:normal;font-feature-settings:normal;text-align:start;letter-spacing:0px;word-spacing:0px;writing-mode:lr-tb;text-anchor:start;fill:#000000;fill-opacity:1;stroke:none;stroke-width:1.25"
       x="16.481125"
       y="518.14105"
       id="text6467"><tspan
         sodipodi:role="line"
         id="tspan6465"
         x="16.481125"
         y="518.14105"
         style="font-style:normal;font-variant:normal;font-weight:normal;font-stretch:normal;font-size:53.33332825px;font-family:Arial;-inkscape-font-specification:'Arial, Normal';font-variant-ligatures:normal;font-variant-caps:normal;font-variant-numeric:normal;font-feature-settings:normal;text-align:start;writing-mode:lr-tb;text-anchor:start;stroke-width:1.25">0</tspan></text>
    <text
       xml:space="preserve"
       style="font-style:normal;font-variant:normal;font-weight:normal;font-stretch:normal;font-size:93.33332825px;line-height:1.25;font-family:Vijaya;-inkscape-font-specification:'Vijaya, Normal';font-variant-ligatures:normal;font-variant-caps:normal;font-variant-numeric:normal;font-feature-settings:normal;text-align:start;letter-spacing:0px;word-spacing:0px;writing-mode:lr-tb;text-anchor:start;fill:#000000;fill-opacity:1;stroke:none;stroke-width:1.25"
       x="1638.1511"
       y="549.7467"
       id="text6471"><tspan
         sodipodi:role="line"
         id="tspan6469"
         x="1638.1511"
         y="549.7467"
         style="font-style:normal;font-variant:normal;font-weight:normal;font-stretch:normal;font-size:93.33332825px;font-family:Vijaya;-inkscape-font-specification:'Vijaya, Normal';font-variant-ligatures:normal;font-variant-caps:normal;font-variant-numeric:normal;font-feature-settings:normal;text-align:start;writing-mode:lr-tb;text-anchor:start;stroke-width:1.25">v</tspan></text>
    <path
       style="fill:none;stroke:#000000;stroke-width:3.33333302;stroke-linecap:butt;stroke-linejoin:miter;stroke-miterlimit:4;stroke-dasharray:none;stroke-opacity:1"
       d="M 76,0.9896646 V 1003.8507"
       id="path5658"
       inkscape:connector-curvature="0" />
    <path
       d="m 64.62034,1001.8466 22.87833,0.077 L 76,1025.2969 Z"
       style="fill:#000000;fill-opacity:1;fill-rule:nonzero;stroke:none;stroke-width:0.16666664"
       id="path4507-0"
       inkscape:connector-curvature="0" />
    <text
       xml:space="preserve"
       style="font-style:normal;font-variant:normal;font-weight:normal;font-stretch:normal;font-size:53.33332825px;line-height:1.25;font-family:Arial;-inkscape-font-specification:'Arial, Normal';font-variant-ligatures:normal;font-variant-caps:normal;font-variant-numeric:normal;font-feature-settings:normal;text-align:start;letter-spacing:0px;word-spacing:0px;writing-mode:lr-tb;text-anchor:start;fill:#000000;fill-opacity:1;stroke:none;stroke-width:1.25"
       x="6.4309521"
       y="984.58667"
       id="text6463-6"><tspan
         sodipodi:role="line"
         id="tspan6461-6"
         x="6.4309521"
         y="984.58667"
         style="font-style:normal;font-variant:normal;font-weight:normal;font-stretch:normal;font-size:53.33332825px;font-family:Arial;-inkscape-font-specification:'Arial, Normal';font-variant-ligatures:normal;font-variant-caps:normal;font-variant-numeric:normal;font-feature-settings:normal;text-align:start;writing-mode:lr-tb;text-anchor:start;stroke-width:1.25">-1</tspan></text>
    <path
       d="m 1625.6303,155.8992 h 31.6666 v -31.66666 h -31.6666 z"
       style="fill:#cc0000;fill-opacity:1;fill-rule:nonzero;stroke:none;stroke-width:0.16666664"
       id="path5774-9"
       inkscape:connector-curvature="0" />
    <path
       d="m 1625.6303,60.899215 h 31.6666 v -31.66666 h -31.6666 z"
       style="fill:#00cc00;fill-opacity:1;fill-rule:nonzero;stroke:none;stroke-width:0.16666664"
       id="path5774-2"
       inkscape:connector-curvature="0" />
    <text
       xml:space="preserve"
       style="font-style:normal;font-variant:normal;font-weight:normal;font-stretch:normal;font-size:93.33332825px;line-height:1.25;font-family:Vijaya;-inkscape-font-specification:'Vijaya, Normal';font-variant-ligatures:normal;font-variant-caps:normal;font-variant-numeric:normal;font-feature-settings:normal;text-align:start;letter-spacing:0px;word-spacing:0px;writing-mode:lr-tb;text-anchor:start;fill:#000000;fill-opacity:1;stroke:none;stroke-width:1.25"
       x="1678.8385"
       y="-33.393024"
       id="text6422"><tspan
         sodipodi:role="line"
         id="tspan6420"
         x="1678.8385"
         y="-33.393024"
         style="font-style:normal;font-variant:normal;font-weight:normal;font-stretch:normal;font-size:93.33332825px;font-family:Vijaya;-inkscape-font-specification:'Vijaya, Normal';font-variant-ligatures:normal;font-variant-caps:normal;font-variant-numeric:normal;font-feature-settings:normal;text-align:start;writing-mode:lr-tb;text-anchor:start;stroke-width:1.25">g(v)</tspan></text>
    <text
       xml:space="preserve"
       style="font-style:normal;font-variant:normal;font-weight:normal;font-stretch:normal;font-size:93.33332825px;line-height:1.25;font-family:Vijaya;-inkscape-font-specification:'Vijaya, Normal';font-variant-ligatures:normal;font-variant-caps:normal;font-variant-numeric:normal;font-feature-settings:normal;text-align:start;letter-spacing:0px;word-spacing:0px;writing-mode:lr-tb;text-anchor:start;fill:#000000;fill-opacity:1;stroke:none;stroke-width:1.25"
       x="1679.0881"
       y="61.300537"
       id="text6426"><tspan
         sodipodi:role="line"
         id="tspan6424"
         x="1679.0881"
         y="61.300537"
         style="font-style:normal;font-variant:normal;font-weight:normal;font-stretch:normal;font-size:93.33332825px;font-family:Vijaya;-inkscape-font-specification:'Vijaya, Normal';font-variant-ligatures:normal;font-variant-caps:normal;font-variant-numeric:normal;font-feature-settings:normal;text-align:start;writing-mode:lr-tb;text-anchor:start;stroke-width:1.25">h(v)</tspan></text>
    <text
       xml:space="preserve"
       style="font-style:normal;font-variant:normal;font-weight:normal;font-stretch:normal;font-size:93.33332825px;line-height:1.25;font-family:Vijaya;-inkscape-font-specification:'Vijaya, Normal';font-variant-ligatures:normal;font-variant-caps:normal;font-variant-numeric:normal;font-feature-settings:normal;text-align:start;letter-spacing:0px;word-spacing:0px;writing-mode:lr-tb;text-anchor:start;fill:#000000;fill-opacity:1;stroke:none;stroke-width:1.25"
       x="1678.7219"
       y="156.99434"
       id="text6430"><tspan
         sodipodi:role="line"
         id="tspan6428"
         x="1678.7219"
         y="156.99434"
         style="font-style:normal;font-variant:normal;font-weight:normal;font-stretch:normal;font-size:93.33332825px;font-family:Vijaya;-inkscape-font-specification:'Vijaya, Normal';font-variant-ligatures:normal;font-variant-caps:normal;font-variant-numeric:normal;font-feature-settings:normal;text-align:start;writing-mode:lr-tb;text-anchor:start;stroke-width:1.25">a(v)</tspan></text>
    <path
       d="m 1574.281,482.24709 v 35.017"
       style="fill:none;stroke:#000000;stroke-width:3.33333302;stroke-linecap:butt;stroke-linejoin:miter;stroke-miterlimit:4;stroke-dasharray:none;stroke-opacity:1"
       id="path4525-1"
       inkscape:connector-curvature="0" />
    <path
       d="m 93.33837,966.33194 h -35.017"
       style="fill:none;stroke:#000000;stroke-width:3.33333302;stroke-linecap:butt;stroke-linejoin:miter;stroke-miterlimit:4;stroke-dasharray:none;stroke-opacity:1"
       id="path4525-1-0"
       inkscape:connector-curvature="0" />
    <text
       xml:space="preserve"
       style="font-style:normal;font-variant:normal;font-weight:normal;font-stretch:normal;font-size:53.33332825px;line-height:1.25;font-family:Arial;-inkscape-font-specification:'Arial, Normal';font-variant-ligatures:normal;font-variant-caps:normal;font-variant-numeric:normal;font-feature-settings:normal;text-align:start;letter-spacing:0px;word-spacing:0px;writing-mode:lr-tb;text-anchor:start;fill:#000000;fill-opacity:1;stroke:none;stroke-width:1.25"
       x="24.03227"
       y="47.956009"
       id="text6463-6-2"><tspan
         sodipodi:role="line"
         id="tspan6461-6-6"
         x="24.03227"
         y="47.956009"
         style="font-style:normal;font-variant:normal;font-weight:normal;font-stretch:normal;font-size:53.33332825px;font-family:Arial;-inkscape-font-specification:'Arial, Normal';font-variant-ligatures:normal;font-variant-caps:normal;font-variant-numeric:normal;font-feature-settings:normal;text-align:start;writing-mode:lr-tb;text-anchor:start;stroke-width:1.25">1</tspan></text>
    <path
       d="M 94.22096,29.232575 H 59.20397"
       style="fill:none;stroke:#000000;stroke-width:3.33333302;stroke-linecap:butt;stroke-linejoin:miter;stroke-miterlimit:4;stroke-dasharray:none;stroke-opacity:1"
       id="path4525-1-0-3"
       inkscape:connector-curvature="0" />
    <path
       d="m 1625.6303,-34.100778 h 31.6666 v -31.666665 h -31.6666 z"
       style="fill:#0000cc;fill-opacity:1;fill-rule:nonzero;stroke:none;stroke-width:0.16666664"
       id="path5774-0-6"
       inkscape:connector-curvature="0" />
    <text
       xml:space="preserve"
       style="font-style:normal;font-variant:normal;font-weight:normal;font-stretch:normal;font-size:53.33332825px;line-height:1.25;font-family:Arial;-inkscape-font-specification:'Arial, Normal';font-variant-ligatures:normal;font-variant-caps:normal;font-variant-numeric:normal;font-feature-settings:normal;text-align:start;letter-spacing:0px;word-spacing:0px;writing-mode:lr-tb;text-anchor:start;fill:#000000;fill-opacity:1;stroke:none;stroke-width:1.25"
       x="1530.8607"
       y="570.42847"
       id="text5688"><tspan
         sodipodi:role="line"
         id="tspan5686"
         x="1530.8607"
         y="570.42847"
         style="font-style:normal;font-variant:normal;font-weight:normal;font-stretch:normal;font-size:53.33332825px;font-family:Arial;-inkscape-font-specification:'Arial, Normal';font-variant-ligatures:normal;font-variant-caps:normal;font-variant-numeric:normal;font-feature-settings:normal;text-align:start;writing-mode:lr-tb;text-anchor:start;stroke-width:1.25">255</tspan></text>
    <g
       clip-path="url(#cliprect0)"
       id="g435">
      <polyline
         style="opacity:1;fill:none;stroke:#0000cc;stroke-width:5;stroke-linecap:butt;stroke-linejoin:miter;stroke-miterlimit:4;stroke-dasharray:none"
         points="76,496.855 81.8824,451.242 87.7647,407.939 93.6471,369.125 99.5294,331.537 105.412,296.747 111.294,265.023 117.176,236.619 123.059,211.621 128.941,189.937 134.824,171.337 140.706,155.482 146.588,141.98 152.471,130.423 158.353,120.432 164.235,111.681 170.118,103.909 176,96.9197 181.882,90.5678 187.765,84.746 193.647,79.3663 199.529,74.3481 205.412,69.6118 211.294,65.0798 217.176,60.6846 223.059,56.3802 228.941,52.1542 234.824,48.0372 240.706,44.1081 246.588,40.4916 252.471,37.3506 258.353,34.8724 264.235,33.2511 270.118,32.6683 276,33.2731 281.882,35.1635 287.765,38.3719 293.647,42.8541 299.529,48.4861 305.412,55.0678 311.294,62.3348 317.176,69.9775 323.059,77.664 328.941,85.065 334.824,91.8761 340.706,97.8352 346.588,102.733 352.471,106.417 358.353,108.79 364.235,109.811 370.118,109.484 376,107.864 381.882,105.05 387.765,101.183 393.647,96.4459 399.529,91.05 405.412,85.2282 411.294,79.2184 417.176,73.2494 423.059,67.5273 428.941,62.2266 434.824,57.4851 440.706,53.4049 446.588,50.0559 452.471,47.4823 458.353,45.7078 464.235,44.7402 470.118,44.5739 476,45.1908 481.882,46.5607 487.765,48.6428 493.647,51.3872 499.529,54.7397 505.412,58.6453 511.294,63.0526 517.176,67.9151 523.059,73.1903 528.941,78.8354 534.824,84.8013 540.706,91.0263 546.588,97.4309 552.471,103.918 558.353,110.373 564.235,116.676 570.118,122.707 576,128.356 581.882,133.534 587.765,138.178 593.647,142.246 599.529,145.724 605.412,148.613 611.294,150.927 617.176,152.685 623.059,153.911 628.941,154.627 634.824,154.851 640.706,154.605 646.588,153.908 652.471,152.779 658.353,151.245 664.235,149.331 670.118,147.074 676,144.517 681.882,141.714 687.765,138.735 693.647,135.669 699.529,132.62 705.412,129.707 711.294,127.059 717.176,124.799 723.059,123.033 728.941,121.837 734.824,121.243 740.706,121.233 746.588,121.739 752.471,122.644 758.353,123.803 764.235,125.048 770.118,126.207 776,127.116 781.882,127.622 787.765,127.594 793.647,126.919 799.529,125.505 805.412,123.288 811.294,120.234 817.176,116.356 823.059,111.722 828.941,106.47 834.824,100.805 840.706,94.9944 846.588,89.3499 852.471,84.1938 858.353,79.8215 864.235,76.4623 870.118,74.247 876,73.1896 881.882,73.1875 887.765,74.0415 893.647,75.4913 899.529,77.2597 905.412,79.0972 911.294,80.8169 917.176,82.3146 923.059,83.5699 928.941,84.6324 934.824,85.5962 940.706,86.5707 946.588,87.6558 952.471,88.9253 958.353,90.4217 964.235,92.1611 970.118,94.1438 976,96.3669 981.882,98.8322 987.765,101.549 993.647,104.529 999.529,107.775 1005.41,111.269 1011.29,114.96 1017.18,118.76 1023.06,122.546 1028.94,126.167 1034.82,129.463 1040.71,132.276 1046.59,134.467 1052.47,135.93 1058.35,136.592 1064.24,136.418 1070.12,135.405 1076,133.572 1081.88,130.961 1087.76,127.625 1093.65,123.631 1099.53,119.059 1105.41,114.009 1111.29,108.599 1117.18,102.98 1123.06,97.3299 1128.94,91.8587 1134.82,86.8 1140.71,82.4005 1146.59,78.9019 1152.47,76.519 1158.35,75.4155 1164.24,75.6826 1170.12,77.3243 1176,80.2547 1181.88,84.3079 1187.76,89.2637 1193.65,94.8824 1199.53,100.947 1205.41,107.304 1211.29,113.898 1217.18,120.786 1223.06,128.144 1228.94,136.251 1234.82,145.449 1240.71,156.102 1246.59,168.54 1252.47,183.005 1258.35,199.605 1264.24,218.281 1270.12,238.794 1276,260.73 1281.88,283.533 1287.76,306.549 1293.65,329.092 1299.53,350.502 1305.41,370.205 1311.29,387.757 1317.18,402.874 1323.06,415.432 1328.94,425.46 1334.82,433.109 1340.71,438.617 1346.59,442.272 1352.47,444.376 1358.35,445.218 1364.24,445.062 1370.12,444.138 1376,442.644 1381.88,440.753 1387.76,438.626 1393.65,436.413 1399.53,434.259 1405.41,432.305 1411.29,430.679 1417.18,429.496 1423.06,428.848 1428.94,428.805 1434.82,429.404 1440.71,430.659 1446.59,432.548 1452.47,435.024 1458.35,438.006 1464.24,441.391 1470.12,445.052 1476,448.853 1481.88,452.655 1487.76,456.328 1493.65,459.767 1499.53,462.894 1505.41,465.667 1511.29,468.075 1517.18,470.138 1523.06,471.897 1528.94,473.404 1534.82,474.717 1540.71,475.891 1546.59,476.972 1552.47,477.997 1558.35,478.993 1564.24,479.976 1570.12,480.96 1576,481.952 "
         id="polyline422" />
      <polyline
         style="opacity:1;fill:none;stroke:#00cc00;stroke-width:5;stroke-linecap:butt;stroke-linejoin:miter;stroke-miterlimit:4;stroke-dasharray:none"
         points="76,420.708 81.8824,345.898 87.7647,279.042 93.6471,226.482 99.5294,177.091 105.412,135.167 111.294,100.748 117.176,73.9362 123.059,54.445 128.941,41.6515 134.824,34.7145 140.706,32.6683 146.588,34.5164 152.471,39.307 158.353,46.1871 164.235,54.4343 170.118,63.4705 176,72.8631 181.882,82.3177 187.765,91.6672 193.647,100.855 199.529,109.914 205.412,118.94 211.294,128.059 217.176,137.39 223.059,147.006 228.941,156.914 234.824,167.028 240.706,177.18 246.588,187.129 252.471,196.6 258.353,205.318 264.235,213.047 270.118,219.626 276,224.982 281.882,229.138 287.765,232.196 293.647,234.322 299.529,235.716 305.412,236.589 311.294,237.141 317.176,237.55 323.059,237.964 328.941,238.509 334.824,239.288 340.706,240.393 346.588,241.91 352.471,243.923 358.353,246.51 364.235,249.741 370.118,253.666 376,258.306 381.882,263.649 387.765,269.639 393.647,276.18 399.529,283.143 405.412,290.381 411.294,297.74 417.176,305.081 423.059,312.297 428.941,319.326 434.824,326.163 440.706,332.859 446.588,339.517 452.471,346.278 458.353,353.302 464.235,360.737 470.118,368.686 476,377.18 481.882,386.142 487.765,395.381 493.647,404.589 499.529,413.364 505.412,421.255 511.294,427.82 517.176,432.69 523.059,435.631 528.941,436.584 534.824,435.679 540.706,433.224 546.588,429.66 552.471,425.505 558.353,421.286 564.235,417.479 570.118,414.464 576,412.496 581.882,411.709 587.765,412.124 593.647,413.675 599.529,416.242 605.412,419.674 611.294,423.819 617.176,428.532 623.059,433.691 628.941,439.193 634.824,444.956 640.706,450.913 646.588,457.01 652.471,463.196 658.353,469.427 664.235,475.657 670.118,481.844 676,487.951 681.882,493.941 687.765,499.789 693.647,505.476 699.529,510.995 705.412,516.347 711.294,521.544 717.176,526.605 723.059,531.551 728.941,536.406 734.824,541.194 740.706,545.934 746.588,550.643 752.471,555.334 758.353,560.016 764.235,564.69 770.118,569.352 776,573.99 781.882,578.582 787.765,583.092 793.647,587.477 799.529,591.683 805.412,595.656 811.294,599.347 817.176,602.722 823.059,605.77 828.941,608.513 834.824,611.003 840.706,613.322 846.588,615.572 852.471,617.859 858.353,620.277 864.235,622.896 870.118,625.748 876,628.828 881.882,632.099 887.765,635.504 893.647,638.983 899.529,642.491 905.412,646.008 911.294,649.542 917.176,653.123 923.059,656.792 928.941,660.584 934.824,664.517 940.706,668.579 946.588,672.731 952.471,676.922 958.353,681.099 964.235,685.234 970.118,689.34 976,693.48 981.882,697.763 987.765,702.333 993.647,707.342 999.529,712.92 1005.41,719.145 1011.29,726.023 1017.18,733.474 1023.06,741.343 1028.94,749.41 1034.82,757.421 1040.71,765.117 1046.59,772.262 1052.47,778.663 1058.35,784.186 1064.24,788.76 1070.12,792.369 1076,795.044 1081.88,796.851 1087.76,797.878 1093.65,798.225 1099.53,797.995 1105.41,797.299 1111.29,796.251 1117.18,794.982 1123.06,793.642 1128.94,792.409 1134.82,791.492 1140.71,791.123 1146.59,791.547 1152.47,792.998 1158.35,795.673 1164.24,799.708 1170.12,805.151 1176,811.955 1181.88,819.972 1187.76,828.969 1193.65,838.65 1199.53,848.681 1205.41,858.713 1211.29,868.399 1217.18,877.399 1223.06,885.377 1228.94,891.984 1234.82,896.85 1240.71,899.583 1246.59,899.774 1252.47,897.03 1258.35,891.018 1264.24,881.516 1270.12,868.466 1276,852.012 1281.88,832.518 1287.76,810.554 1293.65,786.859 1299.53,762.28 1305.41,737.696 1311.29,713.951 1317.18,691.785 1323.06,671.8 1328.94,654.431 1334.82,639.947 1340.71,628.465 1346.59,619.973 1352.47,614.35 1358.35,611.397 1364.24,610.854 1370.12,612.415 1376,615.741 1381.88,620.477 1387.76,626.257 1393.65,632.717 1399.53,639.502 1405.41,646.273 1411.29,652.707 1417.18,658.505 1423.06,663.39 1428.94,667.121 1434.82,669.497 1440.71,670.377 1446.59,669.693 1452.47,667.453 1458.35,663.742 1464.24,658.71 1470.12,652.55 1476,645.472 1481.88,637.684 1487.76,629.374 1493.65,620.707 1499.53,611.827 1505.41,602.868 1511.29,593.96 1517.18,585.229 1523.06,576.793 1528.94,568.75 1534.82,561.169 1540.71,554.075 1546.59,547.449 1552.47,541.23 1558.35,535.338 1564.24,529.6 1570.12,524.177 1576,518.859 "
         id="polyline424" />
      <polyline
         style="opacity:1;fill:none;stroke:#cc0000;stroke-width:5;stroke-linecap:butt;stroke-linejoin:miter;stroke-miterlimit:4;stroke-dasharray:none"
         points="76,499.5 81.8824,499.5 87.7647,499.5 93.6471,499.5 99.5294,499.5 105.412,499.5 111.294,499.5 117.176,499.5 123.059,499.5 128.941,499.5 134.824,499.5 140.706,499.5 146.588,499.5 152.471,499.5 158.353,499.5 164.235,499.5 170.118,499.5 176,499.5 181.882,499.5 187.765,499.5 193.647,499.5 199.529,499.5 205.412,499.5 211.294,499.5 217.176,499.5 223.059,499.5 228.941,499.5 234.824,499.5 240.706,499.5 246.588,499.5 252.471,499.5 258.353,499.5 264.235,499.5 270.118,499.5 276,499.5 281.882,499.5 287.765,499.5 293.647,499.5 299.529,499.5 305.412,499.5 311.294,499.5 317.176,499.5 323.059,499.5 328.941,499.5 334.824,499.5 340.706,499.5 346.588,499.5 352.471,499.5 358.353,499.5 364.235,499.5 370.118,499.5 376,499.5 381.882,499.5 387.765,499.5 393.647,499.5 399.529,499.5 405.412,499.5 411.294,499.5 417.176,499.5 423.059,499.5 428.941,499.5 434.824,499.5 440.706,499.5 446.588,499.5 452.471,499.5 458.353,499.5 464.235,499.5 470.118,499.5 476,499.5 481.882,499.5 487.765,499.5 493.647,499.5 499.529,499.5 505.412,499.5 511.294,499.5 517.176,499.5 523.059,499.5 528.941,499.5 534.824,499.5 540.706,499.5 546.588,499.5 552.471,499.5 558.353,499.5 564.235,499.5 570.118,499.5 576,499.5 581.882,499.5 587.765,499.5 593.647,499.5 599.529,499.5 605.412,499.5 611.294,499.5 617.176,499.5 623.059,499.5 628.941,499.5 634.824,499.5 640.706,499.5 646.588,499.5 652.471,499.5 658.353,499.5 664.235,499.5 670.118,499.5 676,499.5 681.882,498.555 687.765,40.2905 693.647,499.044 699.529,499.5 705.412,499.5 711.294,499.5 717.176,499.5 723.059,499.5 728.941,499.5 734.824,499.5 740.706,499.5 746.588,499.5 752.471,499.5 758.353,499.5 764.235,499.5 770.118,499.5 776,499.5 781.882,499.5 787.765,499.5 793.647,499.5 799.529,499.5 805.412,499.5 811.294,499.5 817.176,499.5 823.059,499.5 828.941,499.5 834.824,499.5 840.706,499.5 846.588,499.5 852.471,499.5 858.353,499.5 864.235,499.5 870.118,499.5 876,499.5 881.882,499.5 887.765,499.5 893.647,499.5 899.529,499.5 905.412,499.5 911.294,499.5 917.176,499.5 923.059,499.5 928.941,499.5 934.824,499.5 940.706,499.5 946.588,499.5 952.471,499.5 958.353,499.5 964.235,499.5 970.118,499.5 976,499.5 981.882,499.5 987.765,499.5 993.647,499.5 999.529,499.5 1005.41,499.5 1011.29,499.5 1017.18,499.5 1023.06,499.5 1028.94,499.5 1034.82,499.5 1040.71,499.5 1046.59,499.5 1052.47,499.5 1058.35,499.5 1064.24,499.5 1070.12,499.5 1076,499.5 1081.88,499.5 1087.76,499.5 1093.65,499.5 1099.53,499.5 1105.41,499.5 1111.29,499.5 1117.18,499.5 1123.06,499.5 1128.94,499.5 1134.82,499.5 1140.71,499.5 1146.59,499.5 1152.47,499.5 1158.35,499.5 1164.24,499.5 1170.12,499.5 1176,499.5 1181.88,499.5 1187.76,499.5 1193.65,499.5 1199.53,499.5 1205.41,499.5 1211.29,499.5 1217.18,499.5 1223.06,499.5 1228.94,499.5 1234.82,499.5 1240.71,499.5 1246.59,499.5 1252.47,499.5 1258.35,499.5 1264.24,499.5 1270.12,499.5 1276,499.5 1281.88,499.5 1287.76,499.5 1293.65,499.5 1299.53,499.5 1305.41,499.5 1311.29,499.5 1317.18,499.5 1323.06,499.5 1328.94,499.5 1334.82,499.5 1340.71,499.5 1346.59,499.5 1352.47,499.5 1358.35,499.5 1364.24,499.5 1370.12,499.5 1376,499.5 1381.88,499.5 1387.76,499.5 1393.65,499.5 1399.53,499.5 1405.41,499.5 1411.29,499.5 1417.18,499.5 1423.06,499.5 1428.94,499.5 1434.82,499.5 1440.71,499.5 1446.59,499.5 1452.47,499.5 1458.35,499.5 1464.24,499.5 1470.12,499.5 1476,499.5 1481.88,499.5 1487.76,499.5 1493.65,499.5 1499.53,499.5 1505.41,499.5 1511.29,499.5 1517.18,499.5 1523.06,499.5 1528.94,499.5 1534.82,499.5 1540.71,499.5 1546.59,499.5 1552.47,499.5 1558.35,499.5 1564.24,499.5 1570.12,499.5 1576,499.5 "
         id="polyline430" />
      <clipPath
         id="cliprect1">
        <rect
           x="0"
           y="0"
           width="1618"
           height="1017"
           id="rect432" />
      </clipPath>
    </g>
    <g
       clip-path="url(#cliprect1)"
       id="g437" />
  </g>
</svg>
