<?xml version="1.0" encoding="UTF-8" standalone="no"?>
<svg
   xmlns:dc="http://purl.org/dc/elements/1.1/"
   xmlns:cc="http://creativecommons.org/ns#"
   xmlns:rdf="http://www.w3.org/1999/02/22-rdf-syntax-ns#"
   xmlns:svg="http://www.w3.org/2000/svg"
   xmlns="http://www.w3.org/2000/svg"
   xmlns:sodipodi="http://sodipodi.sourceforge.net/DTD/sodipodi-0.dtd"
   xmlns:inkscape="http://www.inkscape.org/namespaces/inkscape"
   width="1072.3721pt"
   height="354.95737pt"
   viewBox="0 0 1787.2849 591.5956"
   version="1.1"
   id="svg441"
   sodipodi:docname="r_box_sw_mine_ft.svg"
   inkscape:version="0.92.1 r15371">
  <metadata
     id="metadata447">
    <rdf:RDF>
      <cc:Work
         rdf:about="">
        <dc:format>image/svg+xml</dc:format>
        <dc:type
           rdf:resource="http://purl.org/dc/dcmitype/StillImage" />
      </cc:Work>
    </rdf:RDF>
  </metadata>
  <defs
     id="defs445">
    <pattern
       y="0"
       x="0"
       height="6"
       width="6"
       patternUnits="userSpaceOnUse"
       id="EMFhbasepattern" />
  </defs>
  <sodipodi:namedview
     pagecolor="#ffffff"
     bordercolor="#666666"
     borderopacity="1"
     objecttolerance="10"
     gridtolerance="10"
     guidetolerance="10"
     inkscape:pageopacity="0"
     inkscape:pageshadow="2"
     inkscape:window-width="1920"
     inkscape:window-height="1019"
     id="namedview443"
     showgrid="false"
     inkscape:zoom="0.40315533"
     inkscape:cx="561.14179"
     inkscape:cy="283.14598"
     inkscape:window-x="-9"
     inkscape:window-y="-9"
     inkscape:window-maximized="1"
     inkscape:current-layer="g435" />
  <g
     id="g439"
     transform="translate(-18.701244,20.496125)">
    <pattern
       id="pattern0"
       patternUnits="userSpaceOnUse"
       x="0"
       y="0"
       width="7"
       height="7">
      <line
         x1="0"
         y1="3"
         x2="7"
         y2="3"
         style="fill:none; stroke:rgb(0,0,0); opacity:1"
         id="line2" />
    </pattern>
    <g
       clip-path="url(#cliprect0)"
       id="g435">
      <path
         id="path4927"
         d="M 92.79987,499.5 H 57.80013"
         style="fill:none;stroke:#000000;stroke-width:3.29997563px;stroke-linecap:butt;stroke-linejoin:miter;stroke-miterlimit:4;stroke-dasharray:none;stroke-opacity:1"
         inkscape:connector-curvature="0" />
      <path
         id="path4929"
         d="M 1625.5884,499.5 H 76"
         style="fill:none;stroke:#000000;stroke-width:3.29997563px;stroke-linecap:butt;stroke-linejoin:miter;stroke-miterlimit:4;stroke-dasharray:none;stroke-opacity:1"
         inkscape:connector-curvature="0" />
      <path
         id="path4931"
         d="m 87.39991,2.903695 -22.89983,-0.1 L 76,-20.496125 Z"
         style="fill:#000000;fill-opacity:1;fill-rule:nonzero;stroke:none;stroke-width:1.25"
         inkscape:connector-curvature="0" />
      <path
         id="path4933"
         d="M 1625.2884,510.89991 V 488.00008 L 1648.6882,499.5 Z"
         style="fill:#000000;fill-opacity:1;fill-rule:nonzero;stroke:none;stroke-width:1.25"
         inkscape:connector-curvature="0" />
      <path
         id="path4935"
         d="m 18.700426,499.3 c 0,-4.49997 0.39999,-8.19994 1.39998,-10.89993 0.9,-2.79997 2.29999,-4.89996 4.09997,-6.39995 1.79999,-1.49999 4.09997,-2.19997 6.89995,-2.19997 2.09999,0 3.89997,0.39998 5.39996,1.19998 1.59999,0.79999 2.79998,1.99999 3.79997,3.59998 1,1.49999 1.79999,3.39997 2.39999,5.69995 0.59999,2.19999 0.89999,5.19996 0.89999,8.99994 0,4.49996 -0.5,8.09993 -1.39999,10.79992 -0.89999,2.79998 -2.29998,4.89996 -4.19997,6.39995 -1.79999,1.49999 -4.09997,2.29998 -6.89995,2.29998 -3.69997,0 -6.59995,-1.39999 -8.69993,-3.99997 -2.49998,-3.19997 -3.69997,-8.29993 -3.69997,-15.49988 z m 4.79996,0 c 0,6.29995 0.69999,10.39992 2.19998,12.49991 1.49999,2.09997 3.29998,3.09997 5.39996,3.09997 2.19999,0 3.99997,-1 5.39996,-3.09997 1.49999,-2.09999 2.19999,-6.29996 2.19999,-12.49991 0,-6.29995 -0.7,-10.49993 -2.19999,-12.49992 -1.39999,-2.09997 -3.19997,-3.09997 -5.399959,-3.09997 -2.199981,0 -3.899971,0.9 -5.199961,2.69999 -1.59999,2.29997 -2.39998,6.59995 -2.39998,12.8999 z"
         style="fill:#000000;fill-opacity:1;fill-rule:nonzero;stroke:none;stroke-width:1.25"
         inkscape:connector-curvature="0" />
      <path
         id="path4937"
         d="m 1639.6883,518.79985 10.5999,-2.29998 c 0.8,1.79999 1.4,3.69998 1.9,5.59995 0.6,2.69999 1.2,5.99996 1.6,9.79994 0.2,1.89999 0.4,5.89995 0.8,12.0999 3,-3.39998 4.9,-5.49995 5.4,-6.29995 3.3,-4.29996 5.1999,-6.89995 5.6999,-7.69994 0.7,-1.29999 1.3,-2.39999 1.6,-3.39997 0.3,-0.7 0.4,-1.39999 0.4,-2.09999 0,-0.6 -0.5,-1.29999 -1.7,-2.19999 -1.1,-0.79999 -1.7,-1.79999 -1.7,-2.79997 0,-0.8 0.3,-1.39999 0.9,-1.99999 0.7,-0.69999 1.4,-0.99999 2.3,-0.99999 1,0 1.9,0.4 2.7,1.29999 0.8,0.8 1.2,1.89999 1.2,3.09997 0,1.29999 -0.2,2.49999 -0.6,3.59998 -0.6,1.89999 -1.8,4.09997 -3.6,6.79995 -1.7,2.69997 -4.4999,6.29995 -8.3999,10.79992 -0.5,0.59999 -3.2,3.39998 -8.1,8.49994 h -1.4 c -0.6,-15.49989 -1.8,-25.09982 -3.6999,-28.99979 -0.6,-1.2 -1.6,-1.89998 -3,-1.89998 -0.6,0 -1.5,0.2 -2.6,0.4 z"
         style="fill:#000000;fill-opacity:1;fill-rule:nonzero;stroke:none;stroke-width:1.25"
         inkscape:connector-curvature="0" />
      <path
         id="path4939"
         d="M 76,1.003715 V 501.49998"
         style="fill:none;stroke:#000000;stroke-width:2.29998279px;stroke-linecap:butt;stroke-linejoin:miter;stroke-miterlimit:4;stroke-dasharray:none;stroke-opacity:1"
         inkscape:connector-curvature="0" />
      <path
         id="path4941"
         d="m 1625.5884,155.90256 h 31.6998 V 124.2028 h -31.6998 z"
         style="fill:#cc0000;fill-opacity:1;fill-rule:nonzero;stroke:none;stroke-width:1.25"
         inkscape:connector-curvature="0" />
      <path
         id="path4943"
         d="m 1625.5884,60.903265 h 31.6998 v -31.69976 h -31.6998 z"
         style="fill:#ccaa00;fill-opacity:1;fill-rule:nonzero;stroke:none;stroke-width:1.25"
         inkscape:connector-curvature="0" />
      <path
         id="path4945"
         d="m 1713.9878,123.70281 -7.2,24.89981 -0.8,3.39998 c -0.1,0.3 -0.1,0.59998 -0.1,0.79998 0,0.4 0.1,0.7 0.4,1 0.2,0.2 0.4,0.3 0.7,0.3 0.3,0 0.7,-0.2 1.2,-0.5 1,-0.7 2.2,-2.19998 3.9,-4.39997 l 1.2,0.8 c -1.7,2.59997 -3.4,4.49996 -5.2,5.89995 -1.8,1.3 -3.5,1.89999 -5,1.89999 -1,0 -1.8,-0.2 -2.3,-0.69999 -0.6,-0.6 -0.8,-1.29999 -0.8,-2.29999 0,-1.19999 0.3,-2.79997 0.8,-4.79996 l 0.8,-2.69998 c -3.2,4.19997 -6.1999,7.09994 -8.8999,8.79993 -1.9,1.1 -3.8,1.69999 -5.7,1.69999 -1.8,0 -3.3,-0.69999 -4.6,-2.19998 -1.3,-1.4 -1.8998,-3.49997 -1.8998,-6.09996 0,-3.79996 1.0998,-7.99994 3.3998,-12.2999 2.4,-4.29997 5.4,-7.79995 9,-10.39992 2.8,-1.99999 5.3999,-3.09998 7.8999,-3.09998 1.5,0 2.8,0.39999 3.7,1.19999 1,0.79999 1.8,2.09999 2.3,3.89997 l 1.3,-4.09997 z m -13.1,1.99998 c -1.6,0 -3.1999,0.7 -4.9999,2.19998 -2.5,2.09999 -4.7,5.09997 -6.7,9.19994 -1.9,4.09996 -2.9,7.79994 -2.9,11.09991 0,1.69999 0.4,2.99998 1.2,3.89998 0.9,0.99998 1.9,1.49998 3,1.49998 2.6,0 5.5,-1.99998 8.5999,-5.89996 4.2,-5.29996 6.3,-10.59991 6.3,-16.09987 0,-2.09999 -0.4,-3.59998 -1.2,-4.49996 -0.8,-1 -1.9,-1.4 -3.3,-1.4 z"
         style="fill:#000000;fill-opacity:1;fill-rule:nonzero;stroke:none;stroke-width:1.25"
         inkscape:connector-curvature="0" />
      <path
         id="path4947"
         d="m 1730.3877,172.50245 -1.3,0.59998 c -2.9,-5.59995 -5,-10.49992 -6.2,-14.79988 -1,-3.29998 -1.5,-6.69995 -1.5,-9.99993 0,-7.89993 1.8,-14.99988 5.5,-21.19983 4.4,-7.59995 11.6999,-15.0999 21.6997,-22.29984 l 0.9,1.29999 c -4.5998,3.29997 -8.1998,7.09995 -11.0998,11.29991 -3.6,5.09996 -6.5,11.39992 -8.7999,18.69986 -2.2,7.39995 -3.4,13.9999 -3.4,19.99985 0,4.69997 1.4,10.09992 4.2,16.39989 z"
         style="fill:#000000;fill-opacity:1;fill-rule:nonzero;stroke:none;stroke-width:1.25"
         inkscape:connector-curvature="0" />
      <path
         id="path4949"
         d="m 1742.7876,126.00279 10.5998,-2.29998 c 0.8,1.89998 1.4,3.69996 1.9,5.59995 0.6,2.79999 1.2,6.09996 1.6,9.79993 0.2,1.99998 0.4,5.99996 0.8,12.09991 3,-3.29998 4.9,-5.39996 5.4,-6.19995 3.2999,-4.39996 5.1999,-6.99995 5.6999,-7.69995 0.7,-1.29999 1.3,-2.49998 1.6,-3.39996 0.3,-0.8 0.4,-1.5 0.4,-2.09999 0,-0.7 -0.5,-1.39999 -1.7,-2.19999 -1.1,-0.89999 -1.7,-1.79999 -1.7,-2.79997 0,-0.8 0.3,-1.49999 0.9,-2.09999 0.7,-0.6 1.4,-0.99999 2.3,-0.99999 1,0 1.9,0.49999 2.7,1.29999 0.8,0.89999 1.1,1.89999 1.1,3.19997 0,1.19999 -0.2,2.39998 -0.5,3.59998 -0.7,1.79999 -1.8,4.09996 -3.6,6.79995 -1.7,2.59997 -4.5,6.19995 -8.3999,10.79991 -0.5,0.5 -3.2,3.29997 -8.1,8.39994 h -1.4 c -0.6,-15.39989 -1.8,-25.09981 -3.7,-28.99978 -0.5998,-1.2 -1.5998,-1.79998 -2.9998,-1.79998 -0.6,0 -1.5,0.1 -2.6,0.29998 z"
         style="fill:#000000;fill-opacity:1;fill-rule:nonzero;stroke:none;stroke-width:1.25"
         inkscape:connector-curvature="0" />
      <path
         id="path4951"
         d="m 1785.4872,105.50294 1.3,-0.69999 c 2.9,5.49995 4.9,10.39992 6.2,14.69989 1,3.29997 1.5,6.69995 1.5,9.99992 0,7.89994 -1.8,14.99989 -5.5,21.19985 -4.5,7.59994 -11.6999,15.09989 -21.6999,22.39982 l -0.9,-1.19998 c 4.5,-3.39998 8.2,-7.09995 11.1,-11.19992 3.6,-5.19996 6.4999,-11.49992 8.7999,-18.89986 2.2,-7.29995 3.4,-13.9999 3.4,-19.99985 0,-4.59997 -1.4,-9.99992 -4.2,-16.29988 z"
         style="fill:#000000;fill-opacity:1;fill-rule:nonzero;stroke:none;stroke-width:1.25"
         inkscape:connector-curvature="0" />
      <path
         id="path4953"
         d="m 1574.2888,482.20012 v 34.99974"
         style="fill:none;stroke:#000000;stroke-width:3.29997563px;stroke-linecap:butt;stroke-linejoin:miter;stroke-miterlimit:4;stroke-dasharray:none;stroke-opacity:1"
         inkscape:connector-curvature="0" />
      <path
         id="path4955"
         d="m 43.900236,47.903365 h -4.69997 v -29.79978 c -1.09999,0.99999 -2.59998,2.09999 -4.49996,3.19998 -1.79999,1.09999 -3.39998,1.89998 -4.89997,2.39998 v -4.49997 c 2.59998,-1.29999 4.89997,-2.69998 6.89995,-4.49996 1.99999,-1.79999 3.29998,-3.49998 4.19997,-5.09997 h 2.99998 z"
         style="fill:#000000;fill-opacity:1;fill-rule:nonzero;stroke:none;stroke-width:1.25"
         inkscape:connector-curvature="0" />
      <path
         id="path4957"
         d="M 94.19986,29.203505 H 59.20012"
         style="fill:none;stroke:#000000;stroke-width:3.29997563px;stroke-linecap:butt;stroke-linejoin:miter;stroke-miterlimit:4;stroke-dasharray:none;stroke-opacity:1"
         inkscape:connector-curvature="0" />
      <path
         id="path4959"
         d="m 1557.6889,565.89951 v 4.49996 h -25.1998 c -0.1,-1.1 0.1,-2.19999 0.5,-3.29998 0.6,-1.69998 1.7,-3.39997 3.1,-4.99996 1.4,-1.69999 3.4,-3.59997 6.1,-5.79996 4.1998,-3.39998 6.9998,-6.09995 8.3998,-8.09994 1.5,-1.99999 2.2,-3.89997 2.2,-5.59996 0,-1.89999 -0.7,-3.49998 -2,-4.69996 -1.3,-1.29999 -3,-1.99999 -5.1998,-1.99999 -2.2,0 -4,0.7 -5.4,2.09999 -1.3,1.29998 -2,3.19997 -2,5.59996 l -4.9,-0.5 c 0.4,-3.59998 1.6,-6.29995 3.8,-8.19994 2.1,-1.89998 5,-2.79997 8.6,-2.79997 3.6998,0 6.5998,0.99999 8.6998,2.99997 2.2,1.99999 3.2,4.59996 3.2,7.59994 0,1.49999 -0.3,2.99997 -0.9,4.49997 -0.6,1.39999 -1.7,2.99998 -3.1,4.59997 -1.5,1.69998 -3.9,3.89997 -7.2,6.79995 -2.8998,2.29997 -4.6998,3.89997 -5.4998,4.79996 -0.8,0.8 -1.4,1.59999 -1.9,2.49999 z"
         style="fill:#000000;fill-opacity:1;fill-rule:nonzero;stroke:none;stroke-width:1.25"
         inkscape:connector-curvature="0" />
      <path
         id="path4961"
         d="m 1562.6889,560.39954 4.9999,-0.4 c 0.3,2.39999 1.2,4.19998 2.5,5.39997 1.3,1.19998 2.9,1.79998 4.8,1.79998 2.3,0 4.2,-0.9 5.6999,-2.59998 1.6,-1.69999 2.4,-3.89997 2.4,-6.69995 0,-2.69998 -0.8,-4.79997 -2.3,-6.39995 -1.4999,-1.49999 -3.3999,-2.29999 -5.8999,-2.29999 -1.5,0 -2.8,0.4 -4.1,1.1 -1.2,0.59999 -2.1,1.49999 -2.8,2.59997 l -4.4,-0.49998 3.7,-19.69986 h 18.9999 v 4.49997 h -15.2999 l -2,10.29991 c 2.3,-1.59999 4.7,-2.39997 7.2,-2.39997 3.3,0 6.0999,1.09998 8.3999,3.49997 2.3,2.29998 3.5,5.19996 3.5,8.89993 0,3.39997 -1.1,6.39996 -3.1,8.89993 -2.4,3.09998 -5.7999,4.69997 -9.9999,4.69997 -3.5,0 -6.3,-0.99999 -8.5,-2.99998 -2.2,-1.89999 -3.4,-4.49996 -3.7999,-7.69994 z"
         style="fill:#000000;fill-opacity:1;fill-rule:nonzero;stroke:none;stroke-width:1.25"
         inkscape:connector-curvature="0" />
      <path
         id="path4963"
         d="m 1592.3887,560.39954 4.8999,-0.4 c 0.4,2.39999 1.3,4.19998 2.6,5.39997 1.3,1.19998 2.9,1.79998 4.8,1.79998 2.2,0 4.2,-0.9 5.7,-2.59998 1.6,-1.69999 2.4,-3.89997 2.4,-6.69995 0,-2.69998 -0.8,-4.79997 -2.3,-6.39995 -1.5,-1.49999 -3.5,-2.29999 -5.9,-2.29999 -1.5,0 -2.9,0.4 -4.1,1.1 -1.2,0.59999 -2.1,1.49999 -2.8,2.59997 l -4.3999,-0.49998 3.6999,-19.69986 h 18.8998 v 4.49997 h -15.1998 l -2.1,10.29991 c 2.3,-1.59999 4.7,-2.39997 7.3,-2.39997 3.3,0 6.1,1.09998 8.3998,3.49997 2.3,2.29998 3.4,5.19996 3.4,8.89993 0,3.39997 -1,6.39996 -3,8.89993 -2.3998,3.09998 -5.7998,4.69997 -9.9998,4.69997 -3.5,0 -6.3,-0.99999 -8.4999,-2.99998 -2.2,-1.89999 -3.5,-4.49996 -3.8,-7.69994 z"
         style="fill:#000000;fill-opacity:1;fill-rule:nonzero;stroke:none;stroke-width:1.25"
         inkscape:connector-curvature="0" />
      <path
         id="path4965"
         d="m 1687.6879,40.803415 -1.5,4.79997 h -18.9998 l 1.5,-4.79997 z"
         style="fill:#000000;fill-opacity:1;fill-rule:nonzero;stroke:none;stroke-width:1.25"
         inkscape:connector-curvature="0" />
      <path
         id="path4967"
         d="m 1712.2878,7.303665 -10.3,35.59974 c 4.4,-6.69995 7.9,-11.09992 10.4,-13.29991 2.4999,-2.19998 4.7999,-3.29997 7.0999,-3.29997 1.2,0 2.2,0.4 2.9,1.19999 0.8,0.8 1.2,1.89999 1.2,3.19998 0,1.59998 -0.3,3.59997 -1,5.89995 l -4.4,15.39989 c -0.6,1.79999 -0.9,2.79998 -0.9,3.09998 0,0.29999 0.1,0.59999 0.3,0.79999 0.2,0.2 0.5,0.3 0.7,0.3 0.3,0 0.7,-0.2 1.1,-0.5 1.4,-0.99999 2.8,-2.49998 4.2,-4.39997 l 1.1,0.7 c -0.8,1.29999 -2,2.69998 -3.5,4.19997 -1.5,1.59998 -2.7,2.69998 -3.8,3.29997 -1,0.6 -2,0.8 -2.7999,0.8 -0.9,0 -1.7,-0.2 -2.2,-0.8 -0.6,-0.59999 -0.9,-1.29999 -0.9,-2.19998 0,-1.09999 0.4,-3.09998 1.3,-5.99996 l 4.1999,-14.69989 c 0.5,-1.79998 0.8,-3.29997 0.8,-4.29997 0,-0.49999 -0.2,-0.89999 -0.5,-1.19999 -0.3,-0.29999 -0.7,-0.49999 -1.2,-0.49999 -0.7,0 -1.4999,0.29999 -2.3999,0.89999 -1.6,0.99999 -3.6,2.89998 -5.7,5.69996 -0.6,0.79999 -2.6,3.79997 -5.9,9.19993 -1,1.69999 -1.9,3.49997 -2.5,5.59996 l -2.3999,7.49994 h -5.5 l 12.0999,-41.99968 1.3,-4.49997 c 0,-0.7 -0.3,-1.19999 -0.8,-1.69999 -0.6,-0.49999 -1.2,-0.79999 -2,-0.79999 -0.4,0 -1.1,0.1 -2,0.3 l -0.7,0.1 v -1.49999 z"
         style="fill:#000000;fill-opacity:1;fill-rule:nonzero;stroke:none;stroke-width:1.25"
         inkscape:connector-curvature="0" />
      <path
         id="path4969"
         d="m 1741.8876,75.003165 -1.2,0.59999 c -3,-5.59996 -5,-10.49992 -6.3,-14.79989 -1,-3.29997 -1.5,-6.69995 -1.5,-9.99992 0,-7.89994 1.8,-14.89989 5.5,-21.19985 4.5,-7.59994 11.6998,-14.99988 21.6998,-22.29983 l 0.9,1.29999 c -4.5,3.29998 -8.2,7.09995 -11.1,11.29992 -3.4998,5.09996 -6.4998,11.39991 -8.6998,18.79986 -2.3,7.29994 -3.5,13.89989 -3.5,19.99985 0,4.59996 1.4,9.99992 4.2,16.29988 z"
         style="fill:#000000;fill-opacity:1;fill-rule:nonzero;stroke:none;stroke-width:1.25"
         inkscape:connector-curvature="0" />
      <path
         id="path4971"
         d="m 1754.2874,28.503505 10.7,-2.19998 c 0.6999,1.79999 1.2999,3.59997 1.7999,5.49996 0.6,2.79998 1.2,6.09995 1.6,9.89992 0.2,1.89999 0.5,5.89996 0.8,11.99992 3.1,-3.29998 4.9,-5.39996 5.5,-6.19996 3.2,-4.39997 5.1,-6.89995 5.6,-7.69994 0.8,-1.29999 1.3,-2.49998 1.7,-3.39998 0.1999,-0.79999 0.3999,-1.49998 0.3999,-2.09998 0,-0.7 -0.5999,-1.39999 -1.7999,-2.19998 -1.1,-0.9 -1.7,-1.79999 -1.7,-2.79998 0,-0.8 0.3,-1.49999 1,-2.09999 0.6,-0.59999 1.3,-0.89999 2.2,-0.89999 0.9999,0 1.8999,0.4 2.6999,1.19999 0.8,0.89999 1.2,1.89999 1.2,3.19998 0,1.19999 -0.2,2.39998 -0.6,3.59997 -0.6,1.79999 -1.8,4.09997 -3.5999,6.79995 -1.7,2.59998 -4.5,6.19995 -8.4,10.79992 -0.5,0.5 -3.2,3.29997 -8.1,8.39994 h -1.2999 c -0.7,-15.39989 -1.9,-25.09982 -3.7,-28.89979 -0.6,-1.29999 -1.7,-1.89998 -3.1,-1.89998 -0.6,0 -1.5,0.1 -2.6,0.39999 z"
         style="fill:#000000;fill-opacity:1;fill-rule:nonzero;stroke:none;stroke-width:1.25"
         inkscape:connector-curvature="0" />
      <path
         id="path4973"
         d="m 1796.9872,8.003665 1.3,-0.7 c 2.8999,5.49996 4.9999,10.39992 6.1999,14.69989 1,3.29998 1.5,6.69995 1.5,9.99993 0,7.89994 -1.8,14.99989 -5.5,21.19984 -4.4999,7.59994 -11.6999,15.09989 -21.6998,22.39983 l -0.9,-1.19999 c 4.4999,-3.29997 8.1999,-7.09995 11.0999,-11.19992 3.6,-5.19996 6.5,-11.49991 8.8,-18.79986 2.1999,-7.39994 3.3999,-14.09989 3.3999,-20.09984 0,-4.59997 -1.4,-9.99993 -4.1999,-16.29988 z"
         style="fill:#000000;fill-opacity:1;fill-rule:nonzero;stroke:none;stroke-width:1.25"
         inkscape:connector-curvature="0" />
      <polyline
         style="opacity:1;fill:none;stroke:#ccaa00;stroke-width:5;stroke-linecap:butt;stroke-linejoin:miter;stroke-miterlimit:4;stroke-dasharray:none"
         points="76,479.343 81.8824,548.586 87.7647,612.593 93.6471,667.269 99.5294,719.88 105.412,767.571 111.294,810.181 117.176,847.387 123.059,879.002 128.941,904.973 134.824,925.355 140.706,940.327 146.588,950.205 152.471,955.461 158.353,956.726 164.235,954.773 170.118,950.487 176,944.801 181.882,938.631 187.765,932.804 193.647,927.994 199.529,924.686 205.412,923.156 211.294,923.484 217.176,925.576 223.059,929.2 228.941,934.023 234.824,939.645 240.706,945.625 246.588,951.511 252.471,956.862 258.353,961.282 264.235,964.45 270.118,966.158 276,966.332 281.882,965.045 287.765,962.512 293.647,959.058 299.529,955.068 305.412,950.93 311.294,946.964 317.176,943.368 323.059,940.176 328.941,937.239 334.824,934.238 340.706,930.714 346.588,926.123 352.471,919.902 358.353,911.538 364.235,900.638 370.118,886.977 376,870.537 381.882,851.523 387.765,830.352 393.647,807.614 399.529,784.024 405.412,760.349 411.294,737.329 417.176,715.613 423.059,695.696 428.941,677.889 434.824,662.312 440.706,648.911 446.588,637.501 452.471,627.82 458.353,619.578 464.235,612.51 470.118,606.409 476,601.14 481.882,596.647 487.765,592.943 493.647,590.093 499.529,588.197 505.412,587.376 511.294,587.754 517.176,589.453 523.059,592.578 528.941,597.207 534.824,603.386 540.706,611.11 546.588,620.317 552.471,630.88 558.353,642.598 564.235,655.203 570.118,668.37 576,681.738 581.882,694.938 587.765,707.633 593.647,719.551 599.529,730.516 605.412,740.462 611.294,749.433 617.176,757.554 623.059,764.996 628.941,771.916 634.824,778.413 640.706,784.488 646.588,790.027 652.471,794.816 658.353,798.574 664.235,801.007 670.118,801.871 676,801.017 681.882,798.437 687.765,794.264 693.647,788.765 699.529,782.302 705.412,775.274 711.294,768.059 717.176,760.961 723.059,754.16 728.941,747.694 734.824,741.458 740.706,735.229 746.588,728.703 752.471,721.555 758.353,713.491 764.235,704.3 770.118,693.892 776,682.315 781.882,669.754 787.765,656.503 793.647,642.934 799.529,629.449 805.412,616.435 811.294,604.235 817.176,593.127 823.059,583.315 828.941,574.944 834.824,568.107 840.706,562.863 846.588,559.241 852.471,557.241 858.353,556.82 864.235,557.88 870.118,560.256 876,563.706 881.882,567.924 887.765,572.558 893.647,577.238 899.529,581.616 905.412,585.401 911.294,588.382 917.176,590.446 923.059,591.58 928.941,591.857 934.824,591.416 940.706,590.437 946.588,589.112 952.471,587.625 958.353,586.129 964.235,584.734 970.118,583.498 976,582.429 981.882,581.485 987.765,580.586 993.647,579.623 999.529,578.476 1005.41,577.031 1011.29,575.191 1017.18,572.896 1023.06,570.123 1028.94,566.891 1034.82,563.263 1040.71,559.337 1046.59,555.238 1052.47,551.112 1058.35,547.116 1064.24,543.415 1070.12,540.175 1076,537.553 1081.88,535.693 1087.76,534.715 1093.65,534.706 1099.53,535.707 1105.41,537.707 1111.29,540.638 1117.18,544.377 1123.06,548.752 1128.94,553.562 1134.82,558.589 1140.71,563.624 1146.59,568.481 1152.47,573.018 1158.35,577.138 1164.24,580.789 1170.12,583.955 1176,586.64 1181.88,588.845 1187.76,590.557 1193.65,591.733 1199.53,592.304 1205.41,592.182 1211.29,591.279 1217.18,589.533 1223.06,586.933 1228.94,583.536 1234.82,579.477 1240.71,574.964 1246.59,570.265 1252.47,565.68 1258.35,561.522 1264.24,558.089 1270.12,555.65 1276,554.436 1281.88,554.637 1287.76,556.396 1293.65,559.814 1299.53,564.936 1305.41,571.741 1311.29,580.129 1317.18,589.91 1323.06,600.801 1328.94,612.436 1334.82,624.393 1340.71,636.232 1346.59,647.539 1352.47,657.973 1358.35,667.293 1364.24,675.386 1370.12,682.259 1376,688.02 1381.88,692.846 1387.76,696.942 1393.65,700.501 1399.53,703.673 1405.41,706.547 1411.29,709.144 1417.18,711.42 1423.06,713.283 1428.94,714.606 1434.82,715.244 1440.71,715.044 1446.59,713.858 1452.47,711.544 1458.35,707.979 1464.24,703.054 1470.12,696.691 1476,688.843 1481.88,679.502 1487.76,668.711 1493.65,656.561 1499.53,643.2 1505.41,628.83 1511.29,613.704 1517.18,598.118 1523.06,582.405 1528.94,566.917 1534.82,552.007 1540.71,538.009 1546.59,525.197 1552.47,513.762 1558.35,503.924 1564.24,494.734 1570.12,489.337 1576,486.208 "
         id="polyline426"
         transform="matrix(1,0,0,-1,0,998.6343)" />
      <polyline
         style="opacity:1;fill:none;stroke:#cc0000;stroke-width:5;stroke-linecap:butt;stroke-linejoin:miter;stroke-miterlimit:4;stroke-dasharray:none"
         points="76,499.5 81.8824,499.5 87.7647,499.5 93.6471,499.5 99.5294,499.5 105.412,499.5 111.294,499.5 117.176,499.5 123.059,499.5 128.941,499.5 134.824,499.5 140.706,474.526 146.588,373.909 152.471,168.493 158.353,42.2741 164.235,168.493 170.118,373.909 176,474.526 181.882,499.5 187.765,499.5 193.647,499.5 199.529,499.5 205.412,499.5 211.294,499.5 217.176,499.5 223.059,499.5 228.941,499.5 234.824,499.5 240.706,499.5 246.588,499.5 252.471,499.5 258.353,474.001 264.235,371.271 270.118,161.539 276,32.6683 281.882,161.539 287.765,371.271 293.647,474.001 299.529,499.5 305.412,499.5 311.294,499.5 317.176,499.5 323.059,499.5 328.941,499.5 334.824,499.5 340.706,499.5 346.588,499.5 352.471,499.5 358.353,499.5 364.235,499.5 370.118,499.5 376,499.5 381.882,499.5 387.765,499.5 393.647,499.5 399.529,499.5 405.412,499.5 411.294,499.5 417.176,499.5 423.059,499.5 428.941,499.5 434.824,499.5 440.706,499.5 446.588,499.5 452.471,499.5 458.353,499.5 464.235,499.5 470.118,499.5 476,499.5 481.882,499.5 487.765,499.5 493.647,499.5 499.529,499.5 505.412,499.5 511.294,499.5 517.176,499.5 523.059,499.5 528.941,499.5 534.824,499.5 540.706,499.5 546.588,499.5 552.471,499.5 558.353,499.5 564.235,499.5 570.118,499.5 576,499.5 581.882,499.5 587.765,499.5 593.647,499.5 599.529,499.5 605.412,499.5 611.294,499.5 617.176,499.5 623.059,499.5 628.941,499.5 634.824,499.5 640.706,499.5 646.588,499.5 652.471,482.984 658.353,416.445 664.235,280.6 670.118,197.129 676,280.6 681.882,416.445 687.765,482.984 693.647,499.5 699.529,499.5 705.412,499.5 711.294,499.5 717.176,499.5 723.059,499.5 728.941,499.5 734.824,499.5 740.706,499.5 746.588,499.5 752.471,499.5 758.353,499.5 764.235,499.5 770.118,499.5 776,499.5 781.882,499.5 787.765,499.5 793.647,499.5 799.529,499.5 805.412,499.5 811.294,499.5 817.176,499.5 823.059,499.5 828.941,499.5 834.824,499.5 840.706,499.5 846.588,499.5 852.471,499.5 858.353,499.5 864.235,499.5 870.118,499.5 876,499.5 881.882,499.5 887.765,499.5 893.647,499.5 899.529,499.5 905.412,499.5 911.294,494.455 917.176,474.131 923.059,432.639 928.941,407.143 934.824,432.639 940.706,474.131 946.588,494.455 952.471,499.5 958.353,499.5 964.235,499.5 970.118,499.5 976,499.5 981.882,499.5 987.765,499.5 993.647,499.5 999.529,499.5 1005.41,499.5 1011.29,499.5 1017.18,499.5 1023.06,499.5 1028.94,499.5 1034.82,499.5 1040.71,499.5 1046.59,499.5 1052.47,499.5 1058.35,499.5 1064.24,499.5 1070.12,499.5 1076,499.5 1081.88,499.5 1087.76,499.5 1093.65,499.5 1099.53,499.5 1105.41,499.5 1111.29,499.5 1117.18,499.5 1123.06,499.5 1128.94,499.5 1134.82,499.5 1140.71,499.5 1146.59,499.5 1152.47,499.5 1158.35,499.5 1164.24,499.5 1170.12,499.5 1176,499.5 1181.88,494.431 1187.76,474.008 1193.65,432.315 1199.53,406.696 1205.41,432.315 1211.29,474.008 1217.18,494.431 1223.06,499.5 1228.94,499.5 1234.82,499.5 1240.71,499.5 1246.59,499.5 1252.47,499.5 1258.35,499.5 1264.24,499.5 1270.12,499.5 1276,499.5 1281.88,499.5 1287.76,499.5 1293.65,499.5 1299.53,499.5 1305.41,499.5 1311.29,499.5 1317.18,499.5 1323.06,499.5 1328.94,499.5 1334.82,499.5 1340.71,499.5 1346.59,499.5 1352.47,499.5 1358.35,499.5 1364.24,499.5 1370.12,499.5 1376,499.5 1381.88,499.5 1387.76,499.5 1393.65,499.5 1399.53,499.5 1405.41,499.5 1411.29,499.5 1417.18,487.716 1423.06,440.239 1428.94,343.313 1434.82,283.756 1440.71,343.313 1446.59,440.239 1452.47,487.716 1458.35,499.5 1464.24,499.5 1470.12,499.5 1476,499.5 1481.88,499.5 1487.76,499.5 1493.65,499.5 1499.53,499.5 1505.41,499.5 1511.29,499.5 1517.18,499.5 1523.06,499.5 1528.94,499.5 1534.82,499.5 1540.71,499.5 1546.59,499.5 1552.47,499.5 1558.35,499.5 1564.24,499.5 1570.12,499.5 1576,499.5 "
         id="polyline428" />
      <clipPath
         id="cliprect1">
        <rect
           x="0"
           y="0"
           width="1618"
           height="1017"
           id="rect432" />
      </clipPath>
    </g>
    <g
       clip-path="url(#cliprect1)"
       id="g437" />
  </g>
</svg>
