<?xml version="1.0" encoding="UTF-8" standalone="no"?>
<svg
   xmlns:dc="http://purl.org/dc/elements/1.1/"
   xmlns:cc="http://creativecommons.org/ns#"
   xmlns:rdf="http://www.w3.org/1999/02/22-rdf-syntax-ns#"
   xmlns:svg="http://www.w3.org/2000/svg"
   xmlns="http://www.w3.org/2000/svg"
   xmlns:sodipodi="http://sodipodi.sourceforge.net/DTD/sodipodi-0.dtd"
   xmlns:inkscape="http://www.inkscape.org/namespaces/inkscape"
   width="1080.4722pt"
   height="666.52264pt"
   viewBox="0 0 1800.785 1110.8711"
   version="1.1"
   id="svg441"
   sodipodi:docname="r_box_so_kd_ft.svg"
   inkscape:version="0.92.1 r15371">
  <metadata
     id="metadata447">
    <rdf:RDF>
      <cc:Work
         rdf:about="">
        <dc:format>image/svg+xml</dc:format>
        <dc:type
           rdf:resource="http://purl.org/dc/dcmitype/StillImage" />
      </cc:Work>
    </rdf:RDF>
  </metadata>
  <defs
     id="defs445" />
  <sodipodi:namedview
     pagecolor="#ffffff"
     bordercolor="#666666"
     borderopacity="1"
     objecttolerance="10"
     gridtolerance="10"
     guidetolerance="10"
     inkscape:pageopacity="0"
     inkscape:pageshadow="2"
     inkscape:window-width="1920"
     inkscape:window-height="1019"
     id="namedview443"
     showgrid="false"
     inkscape:zoom="0.57014773"
     inkscape:cx="885.45629"
     inkscape:cy="554.84925"
     inkscape:window-x="-9"
     inkscape:window-y="-9"
     inkscape:window-maximized="1"
     inkscape:current-layer="g435" />
  <g
     id="g439"
     transform="translate(-8.1244707,85.574046)">
    <pattern
       id="pattern0"
       patternUnits="userSpaceOnUse"
       x="0"
       y="0"
       width="7"
       height="7">
      <line
         x1="0"
         y1="3"
         x2="7"
         y2="3"
         style="fill:none; stroke:rgb(0,0,0); opacity:1"
         id="line2" />
    </pattern>
    <g
       clip-path="url(#cliprect0)"
       id="g435">
      <path
         d="m 92.85295,499.5 h -35.017"
         style="fill:none;stroke:#000000;stroke-width:3.33333302;stroke-linecap:butt;stroke-linejoin:miter;stroke-miterlimit:4;stroke-dasharray:none;stroke-opacity:1"
         id="path4525-1-0-2"
         inkscape:connector-curvature="0" />
      <path
         style="fill:none;stroke:#000000;stroke-width:3.26746154;stroke-linecap:butt;stroke-linejoin:miter;stroke-miterlimit:4;stroke-dasharray:none;stroke-opacity:1"
         d="M 1625.6304,499.5 H 76"
         id="path5658-2"
         inkscape:connector-curvature="0" />
      <path
         d="M 87.37967,2.9433353 64.50134,2.8666353 76,-20.506695 Z"
         style="fill:#000000;fill-opacity:1;fill-rule:nonzero;stroke:none;stroke-width:0.16666664"
         id="path4507"
         inkscape:connector-curvature="0" />
      <path
         d="m 1625.2739,510.8801 0.076,-22.8769 23.3666,11.4967 z"
         style="fill:#000000;fill-opacity:1;fill-rule:nonzero;stroke:none;stroke-width:0.16666664"
         id="path4517"
         inkscape:connector-curvature="0" />
      <text
         xml:space="preserve"
         style="font-style:normal;font-variant:normal;font-weight:normal;font-stretch:normal;font-size:53.33332825px;line-height:1.25;font-family:Arial;-inkscape-font-specification:'Arial, Normal';font-variant-ligatures:normal;font-variant-caps:normal;font-variant-numeric:normal;font-feature-settings:normal;text-align:start;letter-spacing:0px;word-spacing:0px;writing-mode:lr-tb;text-anchor:start;fill:#000000;fill-opacity:1;stroke:none;stroke-width:1.25"
         x="16.481142"
         y="518.14111"
         id="text6467"><tspan
           sodipodi:role="line"
           id="tspan6465"
           x="16.481142"
           y="518.14111"
           style="font-style:normal;font-variant:normal;font-weight:normal;font-stretch:normal;font-size:53.33332825px;font-family:Arial;-inkscape-font-specification:'Arial, Normal';font-variant-ligatures:normal;font-variant-caps:normal;font-variant-numeric:normal;font-feature-settings:normal;text-align:start;writing-mode:lr-tb;text-anchor:start;stroke-width:1.25">0</tspan></text>
      <text
         xml:space="preserve"
         style="font-style:normal;font-variant:normal;font-weight:normal;font-stretch:normal;font-size:93.33332825px;line-height:1.25;font-family:Vijaya;-inkscape-font-specification:'Vijaya, Normal';font-variant-ligatures:normal;font-variant-caps:normal;font-variant-numeric:normal;font-feature-settings:normal;text-align:start;letter-spacing:0px;word-spacing:0px;writing-mode:lr-tb;text-anchor:start;fill:#000000;fill-opacity:1;stroke:none;stroke-width:1.25"
         x="1638.1511"
         y="549.7467"
         id="text6471"><tspan
           sodipodi:role="line"
           id="tspan6469"
           x="1638.1511"
           y="549.7467"
           style="font-style:normal;font-variant:normal;font-weight:normal;font-stretch:normal;font-size:93.33332825px;font-family:Vijaya;-inkscape-font-specification:'Vijaya, Normal';font-variant-ligatures:normal;font-variant-caps:normal;font-variant-numeric:normal;font-feature-settings:normal;text-align:start;writing-mode:lr-tb;text-anchor:start;stroke-width:1.25">v</tspan></text>
      <path
         style="fill:none;stroke:#000000;stroke-width:3.33333302;stroke-linecap:butt;stroke-linejoin:miter;stroke-miterlimit:4;stroke-dasharray:none;stroke-opacity:1"
         d="M 76,0.9896553 V 1003.8508"
         id="path5658"
         inkscape:connector-curvature="0" />
      <path
         d="m 64.62034,1001.8467 22.87833,0.077 L 76,1025.297 Z"
         style="fill:#000000;fill-opacity:1;fill-rule:nonzero;stroke:none;stroke-width:0.16666664"
         id="path4507-0"
         inkscape:connector-curvature="0" />
      <text
         xml:space="preserve"
         style="font-style:normal;font-variant:normal;font-weight:normal;font-stretch:normal;font-size:53.33332825px;line-height:1.25;font-family:Arial;-inkscape-font-specification:'Arial, Normal';font-variant-ligatures:normal;font-variant-caps:normal;font-variant-numeric:normal;font-feature-settings:normal;text-align:start;letter-spacing:0px;word-spacing:0px;writing-mode:lr-tb;text-anchor:start;fill:#000000;fill-opacity:1;stroke:none;stroke-width:1.25"
         x="6.4309444"
         y="984.58673"
         id="text6463-6"><tspan
           sodipodi:role="line"
           id="tspan6461-6"
           x="6.4309444"
           y="984.58673"
           style="font-style:normal;font-variant:normal;font-weight:normal;font-stretch:normal;font-size:53.33332825px;font-family:Arial;-inkscape-font-specification:'Arial, Normal';font-variant-ligatures:normal;font-variant-caps:normal;font-variant-numeric:normal;font-feature-settings:normal;text-align:start;writing-mode:lr-tb;text-anchor:start;stroke-width:1.25">-1</tspan></text>
      <path
         d="m 1625.6304,155.89919 h 31.6666 v -31.66666 h -31.6666 z"
         style="fill:#cc0000;fill-opacity:1;fill-rule:nonzero;stroke:none;stroke-width:0.16666664"
         id="path5774-9"
         inkscape:connector-curvature="0" />
      <path
         d="m 1625.6304,60.899195 h 31.6666 v -31.66666 h -31.6666 z"
         style="fill:#00cc00;fill-opacity:1;fill-rule:nonzero;stroke:none;stroke-width:0.16666664"
         id="path5774-2"
         inkscape:connector-curvature="0" />
      <text
         xml:space="preserve"
         style="font-style:normal;font-variant:normal;font-weight:normal;font-stretch:normal;font-size:93.33332825px;line-height:1.25;font-family:Vijaya;-inkscape-font-specification:'Vijaya, Normal';font-variant-ligatures:normal;font-variant-caps:normal;font-variant-numeric:normal;font-feature-settings:normal;text-align:start;letter-spacing:0px;word-spacing:0px;writing-mode:lr-tb;text-anchor:start;fill:#000000;fill-opacity:1;stroke:none;stroke-width:1.25"
         x="1678.8385"
         y="-33.393059"
         id="text6422"><tspan
           sodipodi:role="line"
           id="tspan6420"
           x="1678.8385"
           y="-33.393059"
           style="font-style:normal;font-variant:normal;font-weight:normal;font-stretch:normal;font-size:93.33332825px;font-family:Vijaya;-inkscape-font-specification:'Vijaya, Normal';font-variant-ligatures:normal;font-variant-caps:normal;font-variant-numeric:normal;font-feature-settings:normal;text-align:start;writing-mode:lr-tb;text-anchor:start;stroke-width:1.25">g(v)</tspan></text>
      <text
         xml:space="preserve"
         style="font-style:normal;font-variant:normal;font-weight:normal;font-stretch:normal;font-size:93.33332825px;line-height:1.25;font-family:Vijaya;-inkscape-font-specification:'Vijaya, Normal';font-variant-ligatures:normal;font-variant-caps:normal;font-variant-numeric:normal;font-feature-settings:normal;text-align:start;letter-spacing:0px;word-spacing:0px;writing-mode:lr-tb;text-anchor:start;fill:#000000;fill-opacity:1;stroke:none;stroke-width:1.25"
         x="1679.0881"
         y="61.300549"
         id="text6426"><tspan
           sodipodi:role="line"
           id="tspan6424"
           x="1679.0881"
           y="61.300549"
           style="font-style:normal;font-variant:normal;font-weight:normal;font-stretch:normal;font-size:93.33332825px;font-family:Vijaya;-inkscape-font-specification:'Vijaya, Normal';font-variant-ligatures:normal;font-variant-caps:normal;font-variant-numeric:normal;font-feature-settings:normal;text-align:start;writing-mode:lr-tb;text-anchor:start;stroke-width:1.25">h(v)</tspan></text>
      <text
         xml:space="preserve"
         style="font-style:normal;font-variant:normal;font-weight:normal;font-stretch:normal;font-size:93.33332825px;line-height:1.25;font-family:Vijaya;-inkscape-font-specification:'Vijaya, Normal';font-variant-ligatures:normal;font-variant-caps:normal;font-variant-numeric:normal;font-feature-settings:normal;text-align:start;letter-spacing:0px;word-spacing:0px;writing-mode:lr-tb;text-anchor:start;fill:#000000;fill-opacity:1;stroke:none;stroke-width:1.25"
         x="1678.7219"
         y="156.99432"
         id="text6430"><tspan
           sodipodi:role="line"
           id="tspan6428"
           x="1678.7219"
           y="156.99432"
           style="font-style:normal;font-variant:normal;font-weight:normal;font-stretch:normal;font-size:93.33332825px;font-family:Vijaya;-inkscape-font-specification:'Vijaya, Normal';font-variant-ligatures:normal;font-variant-caps:normal;font-variant-numeric:normal;font-feature-settings:normal;text-align:start;writing-mode:lr-tb;text-anchor:start;stroke-width:1.25">a(v)</tspan></text>
      <path
         d="m 1574.2811,482.2471 v 35.017"
         style="fill:none;stroke:#000000;stroke-width:3.33333302;stroke-linecap:butt;stroke-linejoin:miter;stroke-miterlimit:4;stroke-dasharray:none;stroke-opacity:1"
         id="path4525-1"
         inkscape:connector-curvature="0" />
      <path
         d="M 93.33836,966.332 H 58.32137"
         style="fill:none;stroke:#000000;stroke-width:3.33333302;stroke-linecap:butt;stroke-linejoin:miter;stroke-miterlimit:4;stroke-dasharray:none;stroke-opacity:1"
         id="path4525-1-0"
         inkscape:connector-curvature="0" />
      <text
         xml:space="preserve"
         style="font-style:normal;font-variant:normal;font-weight:normal;font-stretch:normal;font-size:53.33332825px;line-height:1.25;font-family:Arial;-inkscape-font-specification:'Arial, Normal';font-variant-ligatures:normal;font-variant-caps:normal;font-variant-numeric:normal;font-feature-settings:normal;text-align:start;letter-spacing:0px;word-spacing:0px;writing-mode:lr-tb;text-anchor:start;fill:#000000;fill-opacity:1;stroke:none;stroke-width:1.25"
         x="24.03229"
         y="47.956001"
         id="text6463-6-2"><tspan
           sodipodi:role="line"
           id="tspan6461-6-6"
           x="24.03229"
           y="47.956001"
           style="font-style:normal;font-variant:normal;font-weight:normal;font-stretch:normal;font-size:53.33332825px;font-family:Arial;-inkscape-font-specification:'Arial, Normal';font-variant-ligatures:normal;font-variant-caps:normal;font-variant-numeric:normal;font-feature-settings:normal;text-align:start;writing-mode:lr-tb;text-anchor:start;stroke-width:1.25">1</tspan></text>
      <path
         d="m 94.22096,29.232555 h -35.017"
         style="fill:none;stroke:#000000;stroke-width:3.33333302;stroke-linecap:butt;stroke-linejoin:miter;stroke-miterlimit:4;stroke-dasharray:none;stroke-opacity:1"
         id="path4525-1-0-3"
         inkscape:connector-curvature="0" />
      <path
         d="m 1625.6304,-34.100795 h 31.6666 v -31.66667 h -31.6666 z"
         style="fill:#0000cc;fill-opacity:1;fill-rule:nonzero;stroke:none;stroke-width:0.16666664"
         id="path5774-0-6"
         inkscape:connector-curvature="0" />
      <g
         id="g4618"
         transform="matrix(0.16666665,0,0,-0.16666665,190.04169,94.78771)">
        <text
           transform="scale(1,-1)"
           id="text5022"
           y="1678.3165"
           x="8999.3662"
           style="font-style:normal;font-variant:normal;font-weight:normal;font-stretch:normal;font-size:360px;line-height:1.25;font-family:Vijaya;-inkscape-font-specification:'Vijaya, Normal';font-variant-ligatures:normal;font-variant-caps:normal;font-variant-numeric:normal;font-feature-settings:normal;text-align:start;letter-spacing:0px;word-spacing:0px;writing-mode:lr-tb;text-anchor:start;fill:#000000;fill-opacity:1;stroke:none;stroke-width:7.5"
           xml:space="preserve"><tspan
             style="stroke-width:7.5"
             y="1678.3165"
             x="8999.3662"
             id="tspan5020"
             sodipodi:role="line">thresh</tspan></text>
        <text
           transform="scale(1,-1)"
           id="text5026"
           y="1573.0807"
           x="8775.7422"
           style="font-style:normal;font-variant:normal;font-weight:normal;font-stretch:normal;font-size:360px;line-height:1.25;font-family:Vijaya;-inkscape-font-specification:'Vijaya, Normal';font-variant-ligatures:normal;font-variant-caps:normal;font-variant-numeric:normal;font-feature-settings:normal;text-align:start;letter-spacing:0px;word-spacing:0px;writing-mode:lr-tb;text-anchor:start;fill:#000000;fill-opacity:1;stroke:none;stroke-width:7.5"
           xml:space="preserve"><tspan
             style="font-size:479.99996948px;stroke-width:7.5"
             y="1573.0807"
             x="8775.7422"
             id="tspan5024"
             sodipodi:role="line">g</tspan></text>
      </g>
      <text
         xml:space="preserve"
         style="font-style:normal;font-variant:normal;font-weight:normal;font-stretch:normal;font-size:53.33332825px;line-height:1.25;font-family:Arial;-inkscape-font-specification:'Arial, Normal';font-variant-ligatures:normal;font-variant-caps:normal;font-variant-numeric:normal;font-feature-settings:normal;text-align:start;letter-spacing:0px;word-spacing:0px;writing-mode:lr-tb;text-anchor:start;fill:#000000;fill-opacity:1;stroke:none;stroke-width:1.25"
         x="1530.8607"
         y="570.42847"
         id="text5688"><tspan
           sodipodi:role="line"
           id="tspan5686"
           x="1530.8607"
           y="570.42847"
           style="font-style:normal;font-variant:normal;font-weight:normal;font-stretch:normal;font-size:53.33332825px;font-family:Arial;-inkscape-font-specification:'Arial, Normal';font-variant-ligatures:normal;font-variant-caps:normal;font-variant-numeric:normal;font-feature-settings:normal;text-align:start;writing-mode:lr-tb;text-anchor:start;stroke-width:1.25">255</tspan></text>
      <polyline
         style="opacity:1;fill:none;stroke:#0000cc;stroke-width:5;stroke-linecap:butt;stroke-linejoin:miter;stroke-miterlimit:4;stroke-dasharray:none"
         points="76,446.754 81.8824,435.358 87.7647,423.658 93.6471,411.599 99.5294,399.616 105.412,387.784 111.294,376.365 117.176,365.673 123.059,356.076 128.941,347.966 134.824,341.712 140.706,337.618 146.588,335.873 152.471,336.522 158.353,339.442 164.235,344.351 170.118,350.834 176,358.388 181.882,366.478 187.765,374.599 193.647,382.32 199.529,389.326 205.412,395.43 211.294,400.57 217.176,404.787 223.059,408.194 228.941,410.944 234.824,413.198 240.706,415.102 246.588,416.772 252.471,418.292 258.353,419.716 264.235,421.077 270.118,422.392 276,423.673 281.882,424.932 287.765,426.177 293.647,427.417 299.529,428.663 305.412,429.921 311.294,431.197 317.176,432.496 323.059,433.823 328.941,435.186 334.824,436.589 340.706,438.036 346.588,439.527 352.471,441.054 358.353,442.6 364.235,444.138 370.118,445.629 376,447.025 381.882,448.275 387.765,449.323 393.647,450.121 399.529,450.624 405.412,450.804 411.294,450.646 417.176,450.149 423.059,449.332 428.941,448.222 434.824,446.852 440.706,445.257 446.588,443.458 452.471,441.461 458.353,439.241 464.235,436.746 470.118,433.888 476,430.551 481.882,426.596 487.765,421.871 493.647,416.228 499.529,409.529 505.412,401.664 511.294,392.56 517.176,382.182 523.059,370.542 528.941,357.698 534.824,343.756 540.706,328.869 546.588,313.236 552.471,297.104 558.353,280.76 564.235,264.527 570.118,248.749 576,233.777 581.882,219.945 587.765,207.552 593.647,196.835 599.529,187.958 605.412,180.999 611.294,175.945 617.176,172.702 623.059,171.102 628.941,170.922 634.824,171.902 640.706,173.771 646.588,176.259 652.471,179.119 658.353,182.139 664.235,185.145 670.118,188.014 676,190.663 681.882,193.056 687.765,195.191 693.647,197.095 699.529,198.812 705.412,200.402 711.294,201.924 717.176,203.434 723.059,204.981 728.941,206.599 734.824,208.311 740.706,210.128 746.588,212.047 752.471,214.055 758.353,216.129 764.235,218.24 770.118,220.353 776,222.432 781.882,224.439 787.765,226.348 793.647,228.141 799.529,229.817 805.412,231.397 811.294,232.915 817.176,234.42 823.059,235.96 828.941,237.572 834.824,239.267 840.706,241.025 846.588,242.788 852.471,244.468 858.353,245.95 864.235,247.114 870.118,247.85 876,248.067 881.882,247.708 887.765,246.75 893.647,245.204 899.529,243.111 905.412,240.534 911.294,237.553 917.176,234.26 923.059,230.756 928.941,227.152 934.824,223.563 940.706,220.105 946.588,216.893 952.471,214.03 958.353,211.603 964.235,209.676 970.118,208.281 976,207.423 981.882,207.078 987.765,207.195 993.647,207.708 999.529,208.546 1005.41,209.641 1011.29,210.942 1017.18,212.418 1023.06,214.059 1028.94,215.876 1034.82,217.883 1040.71,220.081 1046.59,222.44 1052.47,224.883 1058.35,227.277 1064.24,229.434 1070.12,231.13 1076,232.126 1081.88,232.199 1087.76,231.178 1093.65,228.964 1099.53,225.551 1105.41,221.031 1111.29,215.59 1117.18,209.487 1123.06,203.036 1128.94,196.572 1134.82,190.415 1140.71,184.835 1146.59,180.016 1152.47,176.029 1158.35,172.815 1164.24,170.191 1170.12,167.868 1176,165.495 1181.88,162.711 1187.76,159.203 1193.65,154.758 1199.53,149.299 1205.41,142.898 1211.29,135.773 1217.18,128.254 1223.06,120.743 1228.94,113.666 1234.82,107.419 1240.71,102.33 1246.59,98.6233 1252.47,96.4005 1258.35,95.6404 1264.24,96.2113 1270.12,97.9006 1276,100.456 1281.88,103.634 1287.76,107.245 1293.65,111.194 1299.53,115.493 1305.41,120.261 1311.29,125.694 1317.18,132.022 1323.06,139.449 1328.94,148.102 1334.82,157.992 1340.71,168.987 1346.59,180.823 1352.47,193.124 1358.35,205.443 1364.24,217.316 1370.12,228.307 1376,238.051 1381.88,246.281 1387.76,252.842 1393.65,257.691 1399.53,260.879 1405.41,262.531 1411.29,262.82 1417.18,261.936 1423.06,260.064 1428.94,257.362 1434.82,253.955 1440.71,249.93 1446.59,245.338 1452.47,240.206 1458.35,234.547 1464.24,228.372 1470.12,221.694 1476,214.535 1481.88,206.922 1487.76,198.881 1493.65,190.436 1499.53,181.599 1505.41,172.371 1511.29,162.741 1517.18,152.697 1523.06,142.226 1528.94,131.327 1534.82,120.012 1540.71,108.309 1546.59,96.2637 1552.47,83.9313 1558.35,71.3665 1564.24,58.6976 1570.12,45.7459 1576,32.6683 "
         id="polyline422" />
      <polyline
         style="opacity:1;fill:none;stroke:#00cc00;stroke-width:5;stroke-linecap:butt;stroke-linejoin:miter;stroke-miterlimit:4;stroke-dasharray:none"
         points="76,377.222 81.8824,318.33 87.7647,267.072 93.6471,229.185 99.5294,194.084 105.412,165.677 111.294,143.958 117.176,129.125 123.059,121.157 128.941,119.841 134.824,124.807 140.706,135.541 146.588,151.379 152.471,171.516 158.353,195.018 164.235,220.864 170.118,247.995 176,275.378 181.882,302.078 187.765,327.312 193.647,350.493 199.529,371.245 205.412,389.394 211.294,404.944 217.176,418.034 223.059,428.894 228.941,437.804 234.824,445.061 240.706,450.956 246.588,455.765 252.471,459.738 258.353,463.105 264.235,466.071 270.118,468.817 276,471.495 281.882,474.222 287.765,477.073 293.647,480.084 299.529,483.244 305.412,486.507 311.294,489.797 317.176,493.022 323.059,496.083 328.941,498.89 334.824,501.361 340.706,503.432 346.588,505.054 352.471,506.188 358.353,506.803 364.235,506.876 370.118,506.383 376,505.309 381.882,503.641 387.765,501.374 393.647,498.512 399.529,495.065 405.412,491.049 411.294,486.485 417.176,481.39 423.059,475.783 428.941,469.676 434.824,463.077 440.706,455.986 446.588,448.402 452.471,440.315 458.353,431.708 464.235,422.556 470.118,412.826 476,402.482 481.882,391.488 487.765,379.829 493.647,367.522 499.529,354.646 505.412,341.361 511.294,327.927 517.176,314.714 523.059,302.195 528.941,290.922 534.824,281.484 540.706,274.449 546.588,270.307 552.471,269.398 558.353,271.868 564.235,277.636 570.118,286.385 576,297.592 581.882,310.572 587.765,324.548 593.647,338.723 599.529,352.357 605.412,364.827 611.294,375.666 617.176,384.591 623.059,391.498 628.941,396.452 634.824,399.654 640.706,401.41 646.588,402.093 652.471,402.101 658.353,401.827 664.235,401.625 670.118,401.783 676,402.51 681.882,403.923 687.765,406.052 693.647,408.849 699.529,412.21 705.412,416.004 711.294,420.097 717.176,424.384 723.059,428.81 728.941,433.384 734.824,438.18 740.706,443.326 746.588,448.992 752.471,455.36 758.353,462.598 764.235,470.834 770.118,480.128 776,490.461 781.882,501.725 787.765,513.726 793.647,526.2 799.529,538.826 805.412,551.258 811.294,563.15 817.176,574.18 823.059,584.071 828.941,592.606 834.824,599.637 840.706,605.089 846.588,608.956 852.471,611.303 858.353,612.261 864.235,612.022 870.118,610.833 876,608.99 881.882,606.815 887.765,604.645 893.647,602.8 899.529,601.565 905.412,601.165 911.294,601.754 917.176,603.407 923.059,606.123 928.941,609.836 934.824,614.428 940.706,619.735 946.588,625.557 952.471,631.66 958.353,637.781 964.235,643.631 970.118,648.912 976,653.333 981.882,656.645 987.765,658.662 993.647,659.293 999.529,658.552 1005.41,656.555 1011.29,653.506 1017.18,649.661 1023.06,645.29 1028.94,640.64 1034.82,635.903 1040.71,631.208 1046.59,626.613 1052.47,622.13 1058.35,617.744 1064.24,613.444 1070.12,609.249 1076,605.224 1081.88,601.488 1087.76,598.204 1093.65,595.563 1099.53,593.76 1105.41,592.965 1111.29,593.293 1117.18,594.789 1123.06,597.417 1128.94,601.069 1134.82,605.589 1140.71,610.817 1146.59,616.628 1152.47,622.978 1158.35,629.932 1164.24,637.664 1170.12,646.437 1176,656.546 1181.88,668.253 1187.76,681.714 1193.65,696.919 1199.53,713.659 1205.41,731.527 1211.29,749.948 1217.18,768.246 1223.06,785.714 1228.94,801.708 1234.82,815.709 1240.71,827.387 1246.59,836.63 1252.47,843.539 1258.35,848.408 1264.24,851.662 1270.12,853.784 1276,855.232 1281.88,856.363 1287.76,857.365 1293.65,858.244 1299.53,858.829 1305.41,858.84 1311.29,857.97 1317.18,855.995 1323.06,852.864 1328.94,848.757 1334.82,844.096 1340.71,839.498 1346.59,835.682 1352.47,833.354 1358.35,833.083 1364.24,835.217 1370.12,839.832 1376,846.746 1381.88,855.571 1387.76,865.797 1393.65,876.885 1399.53,888.345 1405.41,899.779 1411.29,910.901 1417.18,921.508 1423.06,931.447 1428.94,940.568 1434.82,948.69 1440.71,955.59 1446.59,961.006 1452.47,964.668 1458.35,966.332 1464.24,965.821 1470.12,963.052 1476,958.046 1481.88,950.92 1487.76,941.86 1493.65,931.09 1499.53,918.834 1505.41,905.287 1511.29,890.598 1517.18,874.872 1523.06,858.177 1528.94,840.566 1534.82,822.092 1540.71,802.825 1546.59,782.861 1552.47,762.318 1558.35,741.317 1564.24,720.106 1570.12,698.396 1576,676.488 "
         id="polyline424" />
      <polyline
         style="opacity:1;fill:none;stroke:#cc0000;stroke-width:5;stroke-linecap:butt;stroke-linejoin:miter;stroke-miterlimit:4;stroke-dasharray:none"
         points="76,499.5 81.8824,499.5 87.7647,499.5 93.6471,499.5 99.5294,499.5 105.412,499.5 111.294,499.5 117.176,499.5 123.059,499.5 128.941,499.5 134.824,499.5 140.706,499.5 146.588,499.5 152.471,499.5 158.353,499.5 164.235,499.5 170.118,499.5 176,499.5 181.882,499.5 187.765,499.5 193.647,499.5 199.529,499.5 205.412,499.5 211.294,499.5 217.176,499.5 223.059,499.5 228.941,499.5 234.824,499.5 240.706,499.5 246.588,499.5 252.471,499.5 258.353,499.5 264.235,499.5 270.118,499.5 276,499.5 281.882,499.5 287.765,499.5 293.647,499.5 299.529,499.5 305.412,499.5 311.294,499.5 317.176,499.5 323.059,499.45 328.941,155.034 334.824,475.188 340.706,499.5 346.588,499.5 352.471,499.5 358.353,499.5 364.235,499.5 370.118,499.5 376,499.5 381.882,499.5 387.765,495.301 393.647,378.724 399.529,499.5 405.412,499.5 411.294,499.5 417.176,499.5 423.059,499.5 428.941,499.5 434.824,499.5 440.706,499.5 446.588,499.5 452.471,499.5 458.353,499.5 464.235,499.5 470.118,499.5 476,499.5 481.882,499.5 487.765,499.5 493.647,499.5 499.529,499.5 505.412,499.5 511.294,499.5 517.176,499.5 523.059,499.5 528.941,499.5 534.824,499.5 540.706,499.5 546.588,499.5 552.471,499.5 558.353,499.5 564.235,499.5 570.118,499.5 576,499.5 581.882,499.5 587.765,499.5 593.647,499.5 599.529,499.5 605.412,499.5 611.294,499.5 617.176,499.5 623.059,499.5 628.941,499.5 634.824,499.5 640.706,499.5 646.588,499.5 652.471,499.5 658.353,499.5 664.235,499.5 670.118,499.5 676,499.5 681.882,499.5 687.765,499.5 693.647,499.5 699.529,499.5 705.412,499.5 711.294,499.5 717.176,499.5 723.059,499.5 728.941,499.5 734.824,499.5 740.706,499.5 746.588,499.5 752.471,499.5 758.353,499.5 764.235,499.5 770.118,499.5 776,486.668 781.882,125.208 787.765,499.451 793.647,499.5 799.529,499.5 805.412,499.5 811.294,499.5 817.176,499.5 823.059,499.5 828.941,499.5 834.824,499.5 840.706,499.5 846.588,499.5 852.471,499.5 858.353,499.5 864.235,499.5 870.118,499.5 876,499.5 881.882,499.5 887.765,499.5 893.647,499.5 899.529,499.5 905.412,499.5 911.294,499.5 917.176,499.5 923.059,499.5 928.941,499.5 934.824,499.5 940.706,499.5 946.588,499.5 952.471,499.5 958.353,499.5 964.235,499.5 970.118,499.5 976,499.5 981.882,499.5 987.765,499.5 993.647,499.5 999.529,499.5 1005.41,499.5 1011.29,499.5 1017.18,499.5 1023.06,499.5 1028.94,499.5 1034.82,499.5 1040.71,499.5 1046.59,499.5 1052.47,499.5 1058.35,499.5 1064.24,499.5 1070.12,499.5 1076,499.5 1081.88,499.5 1087.76,499.5 1093.65,499.5 1099.53,499.5 1105.41,499.5 1111.29,499.5 1117.18,499.5 1123.06,499.5 1128.94,499.5 1134.82,499.5 1140.71,499.5 1146.59,499.5 1152.47,499.5 1158.35,499.5 1164.24,499.5 1170.12,499.5 1176,499.5 1181.88,499.5 1187.76,499.5 1193.65,499.5 1199.53,499.5 1205.41,499.5 1211.29,499.5 1217.18,499.5 1223.06,499.5 1228.94,499.5 1234.82,499.5 1240.71,499.5 1246.59,499.5 1252.47,499.5 1258.35,499.5 1264.24,499.5 1270.12,499.5 1276,499.5 1281.88,499.5 1287.76,499.5 1293.65,499.5 1299.53,499.5 1305.41,499.5 1311.29,499.5 1317.18,499.5 1323.06,499.5 1328.94,499.5 1334.82,499.5 1340.71,499.5 1346.59,499.5 1352.47,499.5 1358.35,499.5 1364.24,499.5 1370.12,499.5 1376,499.5 1381.88,499.5 1387.76,499.5 1393.65,499.5 1399.53,499.5 1405.41,499.5 1411.29,499.5 1417.18,499.5 1423.06,499.5 1428.94,499.5 1434.82,499.5 1440.71,499.5 1446.59,499.5 1452.47,499.5 1458.35,499.5 1464.24,499.5 1470.12,499.5 1476,499.5 1481.88,499.5 1487.76,499.5 1493.65,499.5 1499.53,499.5 1505.41,499.5 1511.29,499.5 1517.18,499.5 1523.06,499.5 1528.94,499.5 1534.82,499.5 1540.71,499.5 1546.59,499.5 1552.47,499.5 1558.35,499.5 1564.24,499.5 1570.12,499.5 1576,499.5 "
         id="polyline430" />
      <clipPath
         id="cliprect1">
        <rect
           x="0"
           y="0"
           width="1618"
           height="1017"
           id="rect432" />
      </clipPath>
    </g>
    <g
       clip-path="url(#cliprect1)"
       id="g437" />
  </g>
</svg>
