<?xml version="1.0" encoding="UTF-8" standalone="no"?>
<svg
   xmlns:dc="http://purl.org/dc/elements/1.1/"
   xmlns:cc="http://creativecommons.org/ns#"
   xmlns:rdf="http://www.w3.org/1999/02/22-rdf-syntax-ns#"
   xmlns:svg="http://www.w3.org/2000/svg"
   xmlns="http://www.w3.org/2000/svg"
   xmlns:sodipodi="http://sodipodi.sourceforge.net/DTD/sodipodi-0.dtd"
   xmlns:inkscape="http://www.inkscape.org/namespaces/inkscape"
   width="1072.3721pt"
   height="381.75183pt"
   viewBox="0 0 1787.2849 636.25304"
   version="1.1"
   id="svg441"
   sodipodi:docname="r_box_so_mine_ft.svg"
   inkscape:version="0.92.1 r15371">
  <metadata
     id="metadata447">
    <rdf:RDF>
      <cc:Work
         rdf:about="">
        <dc:format>image/svg+xml</dc:format>
        <dc:type
           rdf:resource="http://purl.org/dc/dcmitype/StillImage" />
      </cc:Work>
    </rdf:RDF>
  </metadata>
  <defs
     id="defs445">
    <pattern
       y="0"
       x="0"
       height="6"
       width="6"
       patternUnits="userSpaceOnUse"
       id="EMFhbasepattern" />
  </defs>
  <sodipodi:namedview
     pagecolor="#ffffff"
     bordercolor="#666666"
     borderopacity="1"
     objecttolerance="10"
     gridtolerance="10"
     guidetolerance="10"
     inkscape:pageopacity="0"
     inkscape:pageshadow="2"
     inkscape:window-width="1920"
     inkscape:window-height="1019"
     id="namedview443"
     showgrid="false"
     inkscape:zoom="0.80631065"
     inkscape:cx="770.0967"
     inkscape:cy="315.24222"
     inkscape:window-x="-9"
     inkscape:window-y="-9"
     inkscape:window-maximized="1"
     inkscape:current-layer="g435" />
  <g
     id="g439"
     transform="translate(-18.701242,20.496125)">
    <pattern
       id="pattern0"
       patternUnits="userSpaceOnUse"
       x="0"
       y="0"
       width="7"
       height="7">
      <line
         x1="0"
         y1="3"
         x2="7"
         y2="3"
         style="fill:none; stroke:rgb(0,0,0); opacity:1"
         id="line2" />
    </pattern>
    <g
       clip-path="url(#cliprect0)"
       id="g435">
      <path
         id="path4927"
         d="M 92.79987,499.5 H 57.800132"
         style="fill:none;stroke:#000000;stroke-width:3.29997563px;stroke-linecap:butt;stroke-linejoin:miter;stroke-miterlimit:4;stroke-dasharray:none;stroke-opacity:1"
         inkscape:connector-curvature="0" />
      <path
         id="path4929"
         d="M 1625.5885,499.5 H 76"
         style="fill:none;stroke:#000000;stroke-width:3.29997563px;stroke-linecap:butt;stroke-linejoin:miter;stroke-miterlimit:4;stroke-dasharray:none;stroke-opacity:1"
         inkscape:connector-curvature="0" />
      <path
         id="path4931"
         d="m 87.39991,2.9036953 -22.899827,-0.1 L 76,-20.496125 Z"
         style="fill:#000000;fill-opacity:1;fill-rule:nonzero;stroke:none;stroke-width:1.25"
         inkscape:connector-curvature="0" />
      <path
         id="path4933"
         d="M 1625.2885,510.8999 V 488.0001 L 1648.6883,499.5 Z"
         style="fill:#000000;fill-opacity:1;fill-rule:nonzero;stroke:none;stroke-width:1.25"
         inkscape:connector-curvature="0" />
      <path
         id="path4935"
         d="m 18.700424,499.3 c 0,-4.5 0.399997,-8.1999 1.399989,-10.8999 0.899994,-2.8 2.299983,-4.9 4.09997,-6.4 1.799986,-1.5 4.099969,-2.1999 6.899948,-2.1999 2.099985,0 3.899971,0.3999 5.399961,1.1999 1.599987,0.8 2.799978,2 3.799971,3.6 0.999992,1.5 1.799986,3.4 2.399982,5.7 0.599995,2.2 0.899993,5.1999 0.899993,8.9999 0,4.5 -0.499996,8.0999 -1.399989,10.7999 -0.899994,2.8 -2.299984,4.9 -4.199968,6.4 -1.799988,1.5 -4.09997,2.3 -6.89995,2.3 -3.699972,0 -6.59995,-1.4 -8.699935,-4 -2.499981,-3.2 -3.699972,-8.2999 -3.699972,-15.4999 z m 4.799964,0 c 0,6.3 0.699995,10.3999 2.199984,12.4999 1.499988,2.1 3.299975,3.1 5.399959,3.1 2.199984,0 3.999971,-1 5.399961,-3.1 1.499989,-2.1 2.199982,-6.2999 2.199982,-12.4999 0,-6.2999 -0.699993,-10.4999 -2.199982,-12.4999 -1.39999,-2.1 -3.199977,-3.1 -5.399961,-3.1 -2.199983,0 -3.899971,0.9 -5.199961,2.7 -1.599988,2.3 -2.399982,6.6 -2.399982,12.8999 z"
         style="fill:#000000;fill-opacity:1;fill-rule:nonzero;stroke:none;stroke-width:1.25"
         inkscape:connector-curvature="0" />
      <path
         id="path4937"
         d="m 1639.6884,518.7999 10.5999,-2.3 c 0.8,1.8 1.4,3.7 1.9,5.5999 0.6,2.7 1.2,6 1.6,9.8 0.2,1.9 0.4,5.8999 0.8,12.0999 3,-3.4 4.9,-5.5 5.4,-6.3 3.3,-4.2999 5.1999,-6.8999 5.6999,-7.6999 0.7,-1.3 1.3,-2.4 1.6,-3.4 0.3,-0.7 0.4,-1.4 0.4,-2.1 0,-0.6 -0.5,-1.3 -1.7,-2.2 -1.1,-0.8 -1.7,-1.8 -1.7,-2.7999 0,-0.8 0.3,-1.4 0.9,-2 0.7,-0.7 1.4,-1 2.3,-1 1,0 1.9,0.4 2.7,1.3 0.8,0.8 1.2,1.9 1.2,3.0999 0,1.3 -0.2,2.5 -0.6,3.6 -0.6,1.9 -1.8,4.1 -3.6,6.8 -1.7,2.6999 -4.4999,6.2999 -8.3999,10.7999 -0.5,0.6 -3.2,3.4 -8.1,8.4999 h -1.4 c -0.6,-15.4999 -1.8,-25.0998 -3.6999,-28.9998 -0.6,-1.2 -1.6,-1.8999 -3,-1.8999 -0.6,0 -1.5,0.2 -2.6,0.4 z"
         style="fill:#000000;fill-opacity:1;fill-rule:nonzero;stroke:none;stroke-width:1.25"
         inkscape:connector-curvature="0" />
      <path
         id="path4939"
         d="M 76,1.0037153 V 501.5"
         style="fill:none;stroke:#000000;stroke-width:2.29998279px;stroke-linecap:butt;stroke-linejoin:miter;stroke-miterlimit:4;stroke-dasharray:none;stroke-opacity:1"
         inkscape:connector-curvature="0" />
      <path
         id="path4941"
         d="m 1625.5885,155.90256 h 31.6998 V 124.2028 h -31.6998 z"
         style="fill:#cc0000;fill-opacity:1;fill-rule:nonzero;stroke:none;stroke-width:1.25"
         inkscape:connector-curvature="0" />
      <path
         id="path4943"
         d="m 1625.5885,60.903265 h 31.6998 v -31.69976 h -31.6998 z"
         style="fill:#ccaa00;fill-opacity:1;fill-rule:nonzero;stroke:none;stroke-width:1.25"
         inkscape:connector-curvature="0" />
      <path
         id="path4945"
         d="m 1713.9879,123.70281 -7.2,24.89981 -0.8,3.39998 c -0.1,0.3 -0.1,0.59998 -0.1,0.79998 0,0.4 0.1,0.7 0.4,1 0.2,0.2 0.4,0.3 0.7,0.3 0.3,0 0.7,-0.2 1.2,-0.5 1,-0.7 2.2,-2.19998 3.9,-4.39997 l 1.2,0.8 c -1.7,2.59997 -3.4,4.49996 -5.2,5.89995 -1.8,1.3 -3.5,1.89999 -5,1.89999 -1,0 -1.8,-0.2 -2.3,-0.69999 -0.6,-0.6 -0.8,-1.29999 -0.8,-2.29999 0,-1.19999 0.3,-2.79997 0.8,-4.79996 l 0.8,-2.69998 c -3.2,4.19997 -6.1999,7.09994 -8.8999,8.79993 -1.9,1.1 -3.8,1.69999 -5.7,1.69999 -1.8,0 -3.3,-0.69999 -4.6,-2.19998 -1.3,-1.4 -1.8998,-3.49997 -1.8998,-6.09996 0,-3.79996 1.0998,-7.99994 3.3998,-12.2999 2.4,-4.29997 5.4,-7.79995 9,-10.39992 2.8,-1.99999 5.3999,-3.09998 7.8999,-3.09998 1.5,0 2.8,0.39999 3.7,1.19999 1,0.79999 1.8,2.09999 2.3,3.89997 l 1.3,-4.09997 z m -13.1,1.99998 c -1.6,0 -3.1999,0.7 -4.9999,2.19998 -2.5,2.09999 -4.7,5.09997 -6.7,9.19994 -1.9,4.09996 -2.9,7.79994 -2.9,11.09991 0,1.69999 0.4,2.99998 1.2,3.89998 0.9,0.99998 1.9,1.49998 3,1.49998 2.6,0 5.5,-1.99998 8.5999,-5.89996 4.2,-5.29996 6.3,-10.59991 6.3,-16.09987 0,-2.09999 -0.4,-3.59998 -1.2,-4.49996 -0.8,-1 -1.9,-1.4 -3.3,-1.4 z"
         style="fill:#000000;fill-opacity:1;fill-rule:nonzero;stroke:none;stroke-width:1.25"
         inkscape:connector-curvature="0" />
      <path
         id="path4947"
         d="m 1730.3878,172.50245 -1.3,0.59998 c -2.9,-5.59995 -5,-10.49992 -6.2,-14.79988 -1,-3.29998 -1.5,-6.69995 -1.5,-9.99993 0,-7.89993 1.8,-14.99988 5.5,-21.19983 4.4,-7.59995 11.6999,-15.0999 21.6997,-22.29984 l 0.9,1.29999 c -4.5998,3.29997 -8.1998,7.09995 -11.0998,11.29991 -3.6,5.09996 -6.5,11.39992 -8.7999,18.69986 -2.2,7.39995 -3.4,13.9999 -3.4,19.99985 0,4.69997 1.4,10.09992 4.2,16.39989 z"
         style="fill:#000000;fill-opacity:1;fill-rule:nonzero;stroke:none;stroke-width:1.25"
         inkscape:connector-curvature="0" />
      <path
         id="path4949"
         d="m 1742.7877,126.00279 10.5998,-2.29998 c 0.8,1.89998 1.4,3.69996 1.9,5.59995 0.6,2.79999 1.2,6.09996 1.6,9.79993 0.2,1.99998 0.4,5.99996 0.8,12.09991 3,-3.29998 4.9,-5.39996 5.4,-6.19995 3.2999,-4.39996 5.1999,-6.99995 5.6999,-7.69995 0.7,-1.29999 1.3,-2.49998 1.6,-3.39996 0.3,-0.8 0.4,-1.5 0.4,-2.09999 0,-0.7 -0.5,-1.39999 -1.7,-2.19999 -1.1,-0.89999 -1.7,-1.79999 -1.7,-2.79997 0,-0.8 0.3,-1.49999 0.9,-2.09999 0.7,-0.6 1.4,-0.99999 2.3,-0.99999 1,0 1.9,0.49999 2.7,1.29999 0.8,0.89999 1.1,1.89999 1.1,3.19997 0,1.19999 -0.2,2.39998 -0.5,3.59998 -0.7,1.79999 -1.8,4.09996 -3.6,6.79995 -1.7,2.59997 -4.5,6.19995 -8.3999,10.79991 -0.5,0.5 -3.2,3.29997 -8.1,8.39994 h -1.4 c -0.6,-15.39989 -1.8,-25.09981 -3.7,-28.99978 -0.5998,-1.2 -1.5998,-1.79998 -2.9998,-1.79998 -0.6,0 -1.5,0.1 -2.6,0.29998 z"
         style="fill:#000000;fill-opacity:1;fill-rule:nonzero;stroke:none;stroke-width:1.25"
         inkscape:connector-curvature="0" />
      <path
         id="path4951"
         d="m 1785.4873,105.50294 1.3,-0.69999 c 2.9,5.49995 4.9,10.39992 6.2,14.69989 1,3.29997 1.5,6.69995 1.5,9.99992 0,7.89994 -1.8,14.99989 -5.5,21.19985 -4.5,7.59994 -11.6999,15.09989 -21.6999,22.39982 l -0.9,-1.19998 c 4.5,-3.39998 8.2,-7.09995 11.1,-11.19992 3.6,-5.19996 6.4999,-11.49992 8.7999,-18.89986 2.2,-7.29995 3.4,-13.9999 3.4,-19.99985 0,-4.59997 -1.4,-9.99992 -4.2,-16.29988 z"
         style="fill:#000000;fill-opacity:1;fill-rule:nonzero;stroke:none;stroke-width:1.25"
         inkscape:connector-curvature="0" />
      <path
         id="path4953"
         d="m 1574.2889,482.2001 v 34.9998"
         style="fill:none;stroke:#000000;stroke-width:3.29997563px;stroke-linecap:butt;stroke-linejoin:miter;stroke-miterlimit:4;stroke-dasharray:none;stroke-opacity:1"
         inkscape:connector-curvature="0" />
      <path
         id="path4955"
         d="m 43.900237,47.903365 h -4.699965 v -29.79978 c -1.099993,0.99999 -2.599981,2.09998 -4.499968,3.19998 -1.799986,1.09999 -3.399974,1.89998 -4.899963,2.39998 v -4.49997 c 2.599981,-1.29999 4.899963,-2.69998 6.899948,-4.49997 1.999985,-1.79998 3.299976,-3.49997 4.199969,-5.09996 h 2.999979 z"
         style="fill:#000000;fill-opacity:1;fill-rule:nonzero;stroke:none;stroke-width:1.25"
         inkscape:connector-curvature="0" />
      <path
         id="path4957"
         d="M 94.19986,29.203505 H 59.200122"
         style="fill:none;stroke:#000000;stroke-width:3.29997563px;stroke-linecap:butt;stroke-linejoin:miter;stroke-miterlimit:4;stroke-dasharray:none;stroke-opacity:1"
         inkscape:connector-curvature="0" />
      <path
         id="path4959"
         d="m 1557.689,565.8995 v 4.5 h -25.1998 c -0.1,-1.1 0.1,-2.2 0.5,-3.3 0.6,-1.7 1.7,-3.4 3.1,-5 1.4,-1.7 3.4,-3.5999 6.1,-5.7999 4.1998,-3.4 6.9998,-6.1 8.3998,-8.1 1.5,-2 2.2,-3.8999 2.2,-5.5999 0,-1.9 -0.7,-3.5 -2,-4.7 -1.3,-1.3 -3,-2 -5.1998,-2 -2.2,0 -4,0.7 -5.4,2.1 -1.3,1.3 -2,3.2 -2,5.6 l -4.9,-0.5 c 0.4,-3.6 1.6,-6.3 3.8,-8.2 2.1,-1.8999 5,-2.7999 8.6,-2.7999 3.6998,0 6.5998,1 8.6998,2.9999 2.2,2 3.2,4.6 3.2,7.6 0,1.5 -0.3,2.9999 -0.9,4.4999 -0.6,1.4 -1.7,3 -3.1,4.6 -1.5,1.7 -3.9,3.9 -7.2,6.8 -2.8998,2.2999 -4.6998,3.8999 -5.4998,4.7999 -0.8,0.8 -1.4,1.6 -1.9,2.5 z"
         style="fill:#000000;fill-opacity:1;fill-rule:nonzero;stroke:none;stroke-width:1.25"
         inkscape:connector-curvature="0" />
      <path
         id="path4961"
         d="m 1562.689,560.3995 4.9999,-0.4 c 0.3,2.4 1.2,4.2 2.5,5.4 1.3,1.2 2.9,1.8 4.8,1.8 2.3,0 4.2,-0.9 5.6999,-2.6 1.6,-1.7 2.4,-3.9 2.4,-6.6999 0,-2.7 -0.8,-4.8 -2.3,-6.4 -1.4999,-1.5 -3.3999,-2.3 -5.8999,-2.3 -1.5,0 -2.8,0.4 -4.1,1.1 -1.2,0.6 -2.1,1.5 -2.8,2.6 l -4.4,-0.5 3.7,-19.6998 h 18.9999 v 4.4999 h -15.2999 l -2,10.2999 c 2.3,-1.6 4.7,-2.3999 7.2,-2.3999 3.3,0 6.0999,1.0999 8.3999,3.4999 2.3,2.3 3.5,5.2 3.5,8.9 0,3.3999 -1.1,6.3999 -3.1,8.8999 -2.4,3.1 -5.7999,4.7 -9.9999,4.7 -3.5,0 -6.3,-1 -8.5,-3 -2.2,-1.9 -3.4,-4.5 -3.7999,-7.7 z"
         style="fill:#000000;fill-opacity:1;fill-rule:nonzero;stroke:none;stroke-width:1.25"
         inkscape:connector-curvature="0" />
      <path
         id="path4963"
         d="m 1592.3888,560.3995 4.8999,-0.4 c 0.4,2.4 1.3,4.2 2.6,5.4 1.3,1.2 2.9,1.8 4.8,1.8 2.2,0 4.2,-0.9 5.7,-2.6 1.6,-1.7 2.4,-3.9 2.4,-6.6999 0,-2.7 -0.8,-4.8 -2.3,-6.4 -1.5,-1.5 -3.5,-2.3 -5.9,-2.3 -1.5,0 -2.9,0.4 -4.1,1.1 -1.2,0.6 -2.1,1.5 -2.8,2.6 l -4.3999,-0.5 3.6999,-19.6998 h 18.8998 v 4.4999 h -15.1998 l -2.1,10.2999 c 2.3,-1.6 4.7,-2.3999 7.3,-2.3999 3.3,0 6.1,1.0999 8.3998,3.4999 2.3,2.3 3.4,5.2 3.4,8.9 0,3.3999 -1,6.3999 -3,8.8999 -2.3998,3.1 -5.7998,4.7 -9.9998,4.7 -3.5,0 -6.3,-1 -8.4999,-3 -2.2,-1.9 -3.5,-4.5 -3.8,-7.7 z"
         style="fill:#000000;fill-opacity:1;fill-rule:nonzero;stroke:none;stroke-width:1.25"
         inkscape:connector-curvature="0" />
      <path
         id="path4965"
         d="m 1687.688,40.803415 -1.5,4.79996 h -18.9998 l 1.5,-4.79996 z"
         style="fill:#000000;fill-opacity:1;fill-rule:nonzero;stroke:none;stroke-width:1.25"
         inkscape:connector-curvature="0" />
      <path
         id="path4967"
         d="m 1712.2879,7.303665 -10.3,35.59973 c 4.4,-6.69995 7.9,-11.09991 10.4,-13.2999 2.4999,-2.19998 4.7999,-3.29997 7.0999,-3.29997 1.2,0 2.2,0.4 2.9,1.19999 0.8,0.79999 1.2,1.89999 1.2,3.19998 0,1.59998 -0.3,3.59997 -1,5.89995 l -4.4,15.39989 c -0.6,1.79998 -0.9,2.79998 -0.9,3.09997 0,0.3 0.1,0.6 0.3,0.8 0.2,0.2 0.5,0.3 0.7,0.3 0.3,0 0.7,-0.2 1.1,-0.5 1.4,-0.99999 2.8,-2.49998 4.2,-4.39997 l 1.1,0.7 c -0.8,1.29999 -2,2.69998 -3.5,4.19997 -1.5,1.59998 -2.7,2.69998 -3.8,3.29997 -1,0.6 -2,0.8 -2.7999,0.8 -0.9,0 -1.7,-0.2 -2.2,-0.8 -0.6,-0.59999 -0.9,-1.29999 -0.9,-2.19998 0,-1.09999 0.4,-3.09998 1.3,-5.99996 l 4.1999,-14.69989 c 0.5,-1.79998 0.8,-3.29997 0.8,-4.29997 0,-0.49999 -0.2,-0.89999 -0.5,-1.19999 -0.3,-0.29999 -0.7,-0.49999 -1.2,-0.49999 -0.7,0 -1.4999,0.29999 -2.3999,0.89999 -1.6,0.99999 -3.6,2.89998 -5.7,5.69996 -0.6,0.79999 -2.6,3.79997 -5.9,9.19993 -1,1.69999 -1.9,3.49997 -2.5,5.59996 l -2.3999,7.49994 h -5.5 l 12.0999,-41.99969 1.3,-4.49996 c 0,-0.7 -0.3,-1.19999 -0.8,-1.69999 -0.6,-0.5 -1.2,-0.79999 -2,-0.79999 -0.4,0 -1.1,0.1 -2,0.29999 l -0.7,0.1 v -1.49998 z"
         style="fill:#000000;fill-opacity:1;fill-rule:nonzero;stroke:none;stroke-width:1.25"
         inkscape:connector-curvature="0" />
      <path
         id="path4969"
         d="m 1741.8877,75.003169 -1.2,0.59999 c -3,-5.59996 -5,-10.499924 -6.3,-14.799894 -1,-3.29997 -1.5,-6.69995 -1.5,-9.99992 0,-7.89995 1.8,-14.89989 5.5,-21.19985 4.5,-7.59994 11.6998,-14.99988 21.6998,-22.29983 l 0.9,1.29999 c -4.5,3.29998 -8.2,7.09995 -11.1,11.29992 -3.4998,5.09996 -6.4998,11.39991 -8.6998,18.79986 -2.3,7.29994 -3.5,13.89989 -3.5,19.99985 0,4.59996 1.4,9.999924 4.2,16.299884 z"
         style="fill:#000000;fill-opacity:1;fill-rule:nonzero;stroke:none;stroke-width:1.25"
         inkscape:connector-curvature="0" />
      <path
         id="path4971"
         d="m 1754.2875,28.503505 10.7,-2.19998 c 0.6999,1.79999 1.2999,3.59997 1.7999,5.49996 0.6,2.79998 1.2,6.09995 1.6,9.89992 0.2,1.89999 0.5,5.89996 0.8,11.99991 3.1,-3.29997 4.9,-5.39996 5.5,-6.19995 3.2,-4.39997 5.1,-6.89995 5.6,-7.69994 0.8,-1.29999 1.3,-2.49998 1.7,-3.39998 0.1999,-0.79999 0.3999,-1.49998 0.3999,-2.09998 0,-0.7 -0.5999,-1.39999 -1.7999,-2.19998 -1.1,-0.9 -1.7,-1.79999 -1.7,-2.79998 0,-0.8 0.3,-1.49999 1,-2.09999 0.6,-0.59999 1.3,-0.89999 2.2,-0.89999 0.9999,0 1.8999,0.4 2.6999,1.19999 0.8,0.89999 1.2,1.89999 1.2,3.19998 0,1.19999 -0.2,2.39998 -0.6,3.59997 -0.6,1.79999 -1.8,4.09997 -3.5999,6.79995 -1.7,2.59998 -4.5,6.19995 -8.4,10.79992 -0.5,0.49999 -3.2,3.29997 -8.1,8.39994 h -1.2999 c -0.7,-15.39989 -1.9,-25.09982 -3.7,-28.89979 -0.6,-1.29999 -1.7,-1.89998 -3.1,-1.89998 -0.6,0 -1.5,0.1 -2.6,0.39999 z"
         style="fill:#000000;fill-opacity:1;fill-rule:nonzero;stroke:none;stroke-width:1.25"
         inkscape:connector-curvature="0" />
      <path
         id="path4973"
         d="m 1796.9873,8.003655 1.3,-0.69999 c 2.8999,5.49996 4.9999,10.39992 6.1999,14.69989 1,3.29998 1.5,6.69995 1.5,9.99993 0,7.89994 -1.8,14.99988 -5.5,21.19984 -4.4999,7.59994 -11.6999,15.09989 -21.6998,22.399834 l -0.9,-1.19999 c 4.4999,-3.29998 8.1999,-7.099954 11.0999,-11.199924 3.6,-5.19996 6.5,-11.49991 8.8,-18.79986 2.1999,-7.39994 3.3999,-14.09989 3.3999,-20.09985 0,-4.59996 -1.4,-9.99992 -4.1999,-16.29988 z"
         style="fill:#000000;fill-opacity:1;fill-rule:nonzero;stroke:none;stroke-width:1.25"
         inkscape:connector-curvature="0" />
      <polyline
         style="opacity:1;fill:none;stroke:#ccaa00;stroke-width:5;stroke-linecap:butt;stroke-linejoin:miter;stroke-miterlimit:4;stroke-dasharray:none"
         points="76,383.864 81.8824,411.122 87.7647,442.031 93.6471,478.596 99.5294,515.722 105.412,554.349 111.294,593.479 117.176,632.014 123.059,668.635 128.941,701.918 134.824,730.492 140.706,753.191 146.588,769.188 152.471,778.103 158.353,780.048 164.235,775.617 170.118,765.817 176,751.942 181.882,735.421 187.765,717.655 193.647,699.873 199.529,683.029 205.412,667.746 211.294,654.314 217.176,642.739 223.059,632.815 228.941,624.217 234.824,616.584 240.706,609.589 246.588,602.98 252.471,596.6 258.353,590.378 264.235,584.313 270.118,578.447 276,572.842 281.882,567.559 287.765,562.645 293.647,558.129 299.529,554.015 305.412,550.286 311.294,546.905 317.176,543.815 323.059,540.945 328.941,538.216 334.824,535.544 340.706,532.85 346.588,530.065 352.471,527.14 358.353,524.049 364.235,520.789 370.118,517.385 376,513.88 381.882,510.336 387.765,506.82 393.647,503.4 399.529,500.138 405.412,497.074 411.294,494.229 417.176,491.599 423.059,489.156 428.941,486.862 434.824,484.672 440.706,482.559 446.588,480.523 452.471,478.611 458.353,476.921 464.235,475.611 470.118,474.887 476,474.997 481.882,476.214 487.765,478.809 493.647,483.037 499.529,489.114 505.412,497.202 511.294,507.393 517.176,519.702 523.059,534.058 528.941,550.299 534.824,568.175 540.706,587.35 546.588,607.417 552.471,627.914 558.353,648.352 564.235,668.242 570.118,687.132 576,704.63 581.882,720.428 587.765,734.317 593.647,746.192 599.529,756.043 605.412,763.946 611.294,770.042 617.176,774.517 623.059,777.587 628.941,779.474 634.824,780.397 640.706,780.558 646.588,780.138 652.471,779.294 658.353,778.159 664.235,776.846 670.118,775.448 676,774.046 681.882,772.709 687.765,771.496 693.647,770.457 699.529,769.623 705.412,769.006 711.294,768.591 717.176,768.329 723.059,768.142 728.941,767.921 734.824,767.541 740.706,766.867 746.588,765.775 752.471,764.166 758.353,761.978 764.235,759.194 770.118,755.848 776,752.016 781.882,747.81 787.765,743.36 793.647,738.798 799.529,734.248 805.412,729.815 811.294,725.588 817.176,721.639 823.059,718.041 828.941,714.873 834.824,712.224 840.706,710.196 846.588,708.888 852.471,708.382 858.353,708.716 864.235,709.876 870.118,711.776 876,714.269 881.882,717.157 887.765,720.221 893.647,723.249 899.529,726.073 905.412,728.589 911.294,730.78 917.176,732.714 923.059,734.539 928.941,736.453 934.824,738.673 940.706,741.392 946.588,744.73 952.471,748.7 958.353,753.18 964.235,757.909 970.118,762.509 976,766.531 981.882,769.516 987.765,771.074 993.647,770.941 999.529,769.029 1005.41,765.441 1011.29,760.457 1017.18,754.492 1023.06,748.041 1028.94,741.621 1034.82,735.716 1040.71,730.75 1046.59,727.068 1052.47,724.938 1058.35,724.551 1064.24,726.033 1070.12,729.437 1076,734.73 1081.88,741.786 1087.76,750.369 1093.65,760.132 1099.53,770.642 1105.41,781.404 1111.29,791.913 1117.18,801.707 1123.06,810.411 1128.94,817.775 1134.82,823.69 1140.71,828.185 1146.59,831.409 1152.47,833.603 1158.35,835.064 1164.24,836.116 1170.12,837.09 1176,838.306 1181.88,840.067 1187.76,842.651 1193.65,846.311 1199.53,851.259 1205.41,857.654 1211.29,865.576 1217.18,874.998 1223.06,885.764 1228.94,897.573 1234.82,909.979 1240.71,922.418 1246.59,934.259 1252.47,944.867 1258.35,953.683 1264.24,960.298 1270.12,964.507 1276,966.332 1281.88,966.008 1287.76,963.94 1293.65,960.628 1299.53,956.583 1305.41,952.248 1311.29,947.937 1317.18,943.793 1323.06,939.786 1328.94,935.731 1334.82,931.325 1340.71,926.211 1346.59,920.036 1352.47,912.518 1358.35,903.498 1364.24,892.984 1370.12,881.174 1376,868.455 1381.88,855.378 1387.76,842.61 1393.65,830.87 1399.53,820.848 1405.41,813.133 1411.29,808.145 1417.18,806.081 1423.06,806.904 1428.94,810.343 1434.82,815.936 1440.71,823.084 1446.59,831.128 1452.47,839.419 1458.35,847.385 1464.24,854.58 1470.12,860.712 1476,865.648 1481.88,869.401 1487.76,872.101 1493.65,873.96 1499.53,875.231 1505.41,876.173 1511.29,877.019 1517.18,877.957 1523.06,879.116 1528.94,880.57 1534.82,882.34 1540.71,884.406 1546.59,886.726 1552.47,889.244 1558.35,891.905 1564.24,894.631 1570.12,897.479 1576,900.367 "
         id="polyline426"
         transform="matrix(1,0,0,-1,0,999.09354)" />
      <polyline
         style="opacity:1;fill:none;stroke:#cc0000;stroke-width:5;stroke-linecap:butt;stroke-linejoin:miter;stroke-miterlimit:4;stroke-dasharray:none"
         points="76,499.5 81.8824,499.5 87.7647,499.5 93.6471,499.5 99.5294,499.5 105.412,499.5 111.294,499.5 117.176,499.5 123.059,499.5 128.941,499.5 134.824,499.5 140.706,499.5 146.588,499.5 152.471,417.136 158.353,218.952 164.235,417.136 170.118,499.5 176,499.5 181.882,499.5 187.765,499.5 193.647,499.5 199.529,499.5 205.412,499.5 211.294,499.5 217.176,499.5 223.059,499.5 228.941,499.5 234.824,499.5 240.706,499.5 246.588,499.5 252.471,499.5 258.353,499.5 264.235,499.5 270.118,499.5 276,499.5 281.882,499.5 287.765,499.5 293.647,499.5 299.529,499.5 305.412,499.5 311.294,499.5 317.176,499.5 323.059,499.5 328.941,499.5 334.824,499.5 340.706,499.5 346.588,499.5 352.471,499.5 358.353,499.5 364.235,499.5 370.118,499.5 376,499.5 381.882,499.5 387.765,499.5 393.647,499.5 399.529,499.5 405.412,499.5 411.294,499.5 417.176,499.5 423.059,499.5 428.941,499.5 434.824,499.5 440.706,499.5 446.588,499.5 452.471,499.5 458.353,499.5 464.235,499.5 470.118,499.5 476,499.5 481.882,499.5 487.765,499.5 493.647,499.5 499.529,499.5 505.412,499.5 511.294,499.5 517.176,499.5 523.059,499.5 528.941,499.5 534.824,499.5 540.706,499.5 546.588,499.5 552.471,499.5 558.353,499.5 564.235,499.5 570.118,499.5 576,499.5 581.882,499.5 587.765,499.5 593.647,499.5 599.529,499.5 605.412,499.5 611.294,499.5 617.176,499.5 623.059,499.5 628.941,499.5 634.824,416.986 640.706,218.442 646.588,416.986 652.471,499.5 658.353,499.5 664.235,499.5 670.118,499.5 676,499.5 681.882,499.5 687.765,499.5 693.647,499.5 699.529,499.5 705.412,499.5 711.294,499.5 717.176,499.5 723.059,499.5 728.941,499.5 734.824,499.5 740.706,499.5 746.588,499.5 752.471,499.5 758.353,499.5 764.235,499.5 770.118,499.5 776,499.5 781.882,499.5 787.765,499.5 793.647,499.5 799.529,499.5 805.412,499.5 811.294,499.5 817.176,499.5 823.059,499.5 828.941,499.5 834.824,499.5 840.706,499.5 846.588,499.5 852.471,499.5 858.353,499.5 864.235,499.5 870.118,499.5 876,499.5 881.882,499.5 887.765,499.5 893.647,499.5 899.529,499.5 905.412,499.5 911.294,499.5 917.176,499.5 923.059,499.5 928.941,499.5 934.824,499.5 940.706,499.5 946.588,499.5 952.471,499.5 958.353,499.5 964.235,499.5 970.118,499.5 976,499.5 981.882,419.77 987.765,227.926 993.647,419.77 999.529,499.5 1005.41,499.5 1011.29,499.5 1017.18,499.5 1023.06,499.5 1028.94,499.5 1034.82,499.5 1040.71,499.5 1046.59,499.5 1052.47,499.5 1058.35,499.5 1064.24,499.5 1070.12,499.5 1076,499.5 1081.88,499.5 1087.76,499.5 1093.65,499.5 1099.53,499.5 1105.41,499.5 1111.29,499.5 1117.18,499.5 1123.06,499.5 1128.94,499.5 1134.82,499.5 1140.71,499.5 1146.59,499.5 1152.47,499.5 1158.35,499.5 1164.24,499.5 1170.12,499.5 1176,499.5 1181.88,499.5 1187.76,499.5 1193.65,499.5 1199.53,499.5 1205.41,499.5 1211.29,499.5 1217.18,499.5 1223.06,499.5 1228.94,499.5 1234.82,499.5 1240.71,499.5 1246.59,499.5 1252.47,499.5 1258.35,499.5 1264.24,499.5 1270.12,362.446 1276,32.6683 1281.88,362.446 1287.76,499.5 1293.65,499.5 1299.53,499.5 1305.41,499.5 1311.29,499.5 1317.18,499.5 1323.06,499.5 1328.94,499.5 1334.82,499.5 1340.71,499.5 1346.59,499.5 1352.47,499.5 1358.35,499.5 1364.24,499.5 1370.12,499.5 1376,499.5 1381.88,499.5 1387.76,499.5 1393.65,499.5 1399.53,499.5 1405.41,499.5 1411.29,499.5 1417.18,499.5 1423.06,499.5 1428.94,499.5 1434.82,499.5 1440.71,499.5 1446.59,499.5 1452.47,499.5 1458.35,499.5 1464.24,499.5 1470.12,499.5 1476,499.5 1481.88,499.5 1487.76,499.5 1493.65,499.5 1499.53,499.5 1505.41,499.5 1511.29,499.5 1517.18,499.5 1523.06,499.5 1528.94,499.5 1534.82,499.5 1540.71,499.5 1546.59,499.5 1552.47,499.5 1558.35,499.5 1564.24,499.5 1570.12,499.5 1576,499.5 "
         id="polyline428" />
      <clipPath
         id="cliprect1">
        <rect
           x="0"
           y="0"
           width="1618"
           height="1017"
           id="rect432" />
      </clipPath>
    </g>
    <g
       clip-path="url(#cliprect1)"
       id="g437" />
  </g>
</svg>
