<?xml version="1.0" encoding="UTF-8" standalone="no"?>
<svg
   xmlns:dc="http://purl.org/dc/elements/1.1/"
   xmlns:cc="http://creativecommons.org/ns#"
   xmlns:rdf="http://www.w3.org/1999/02/22-rdf-syntax-ns#"
   xmlns:svg="http://www.w3.org/2000/svg"
   xmlns="http://www.w3.org/2000/svg"
   xmlns:sodipodi="http://sodipodi.sourceforge.net/DTD/sodipodi-0.dtd"
   xmlns:inkscape="http://www.inkscape.org/namespaces/inkscape"
   width="1080.4722pt"
   height="666.5224pt"
   viewBox="0 0 1800.785 1110.8706"
   version="1.1"
   id="svg441"
   sodipodi:docname="r_g_cthead.svg"
   inkscape:version="0.92.1 r15371">
  <metadata
     id="metadata447">
    <rdf:RDF>
      <cc:Work
         rdf:about="">
        <dc:format>image/svg+xml</dc:format>
        <dc:type
           rdf:resource="http://purl.org/dc/dcmitype/StillImage" />
      </cc:Work>
    </rdf:RDF>
  </metadata>
  <defs
     id="defs445" />
  <sodipodi:namedview
     pagecolor="#ffffff"
     bordercolor="#666666"
     borderopacity="1"
     objecttolerance="10"
     gridtolerance="10"
     guidetolerance="10"
     inkscape:pageopacity="0"
     inkscape:pageshadow="2"
     inkscape:window-width="1360"
     inkscape:window-height="715"
     id="namedview443"
     showgrid="false"
     inkscape:zoom="0.29006882"
     inkscape:cx="757.4299"
     inkscape:cy="240.47945"
     inkscape:window-x="-8"
     inkscape:window-y="-8"
     inkscape:window-maximized="1"
     inkscape:current-layer="g4495" />
  <g
     id="g439"
     transform="translate(-9.8434223,68.321081)">
    <pattern
       id="pattern0"
       patternUnits="userSpaceOnUse"
       x="0"
       y="0"
       width="7"
       height="7">
      <line
         x1="0"
         y1="3"
         x2="7"
         y2="3"
         style="fill:none; stroke:rgb(0,0,0); opacity:1"
         id="line2" />
    </pattern>
    <g
       clip-path="url(#cliprect1)"
       id="g437" />
    <g
       id="g4495"
       transform="matrix(0.16666665,0,0,-0.16666665,14.983956,562.82119)">
      <path
         d="M 477.5277,276.40972 H 267.4257"
         style="fill:none;stroke:#000000;stroke-width:20;stroke-linecap:butt;stroke-linejoin:miter;stroke-miterlimit:4;stroke-dasharray:none;stroke-opacity:1"
         id="path4525-1-0-2"
         inkscape:connector-curvature="0" />
      <path
         style="fill:none;stroke:#000000;stroke-width:19.60477066;stroke-linecap:butt;stroke-linejoin:miter;stroke-miterlimit:4;stroke-dasharray:none;stroke-opacity:1"
         d="M 9674.1923,276.40972 H 376.41001"
         id="path5658-2"
         inkscape:connector-curvature="0" />
      <path
         d="m 444.688,3255.7498 -137.27,0.46 68.992,140.24 z"
         style="fill:#000000;fill-opacity:1;fill-rule:nonzero;stroke:none"
         id="path4507"
         inkscape:connector-curvature="0" />
      <path
         d="m 9672.0533,208.12919 0.46,137.261 140.2,-68.98 z"
         style="fill:#000000;fill-opacity:1;fill-rule:nonzero;stroke:none"
         id="path4517"
         inkscape:connector-curvature="0" />
      <text
         xml:space="preserve"
         style="font-style:normal;font-variant:normal;font-weight:normal;font-stretch:normal;font-size:320px;line-height:1.25;font-family:Arial;-inkscape-font-specification:'Arial, Normal';font-variant-ligatures:normal;font-variant-caps:normal;font-variant-numeric:normal;font-feature-settings:normal;text-align:start;letter-spacing:0px;word-spacing:0px;writing-mode:lr-tb;text-anchor:start;fill:#000000;fill-opacity:1;stroke:none;stroke-width:7.5"
         x="19.296806"
         y="-164.56311"
         id="text6467"
         transform="scale(1,-1)"><tspan
           sodipodi:role="line"
           id="tspan6465"
           x="19.296806"
           y="-164.56311"
           style="font-style:normal;font-variant:normal;font-weight:normal;font-stretch:normal;font-size:320px;font-family:Arial;-inkscape-font-specification:'Arial, Normal';font-variant-ligatures:normal;font-variant-caps:normal;font-variant-numeric:normal;font-feature-settings:normal;text-align:start;writing-mode:lr-tb;text-anchor:start;stroke-width:7.5">0</tspan></text>
      <text
         xml:space="preserve"
         style="font-style:normal;font-variant:normal;font-weight:normal;font-stretch:normal;font-size:560px;line-height:1.25;font-family:Vijaya;-inkscape-font-specification:'Vijaya, Normal';font-variant-ligatures:normal;font-variant-caps:normal;font-variant-numeric:normal;font-feature-settings:normal;text-align:start;letter-spacing:0px;word-spacing:0px;writing-mode:lr-tb;text-anchor:start;fill:#000000;fill-opacity:1;stroke:none;stroke-width:7.5"
         x="9749.3174"
         y="25.07062"
         id="text6471"
         transform="scale(1,-1)"><tspan
           sodipodi:role="line"
           id="tspan6469"
           x="9749.3174"
           y="25.07062"
           style="font-style:normal;font-variant:normal;font-weight:normal;font-stretch:normal;font-size:560px;font-family:Vijaya;-inkscape-font-specification:'Vijaya, Normal';font-variant-ligatures:normal;font-variant-caps:normal;font-variant-numeric:normal;font-feature-settings:normal;text-align:start;writing-mode:lr-tb;text-anchor:start;stroke-width:7.5">v</tspan></text>
      <path
         style="fill:none;stroke:#000000;stroke-width:20;stroke-linecap:butt;stroke-linejoin:miter;stroke-miterlimit:4;stroke-dasharray:none;stroke-opacity:1"
         d="m 376.41,3267.4719 v -6017.167"
         id="path5658"
         inkscape:connector-curvature="0" />
      <path
         d="m 308.13201,-2737.6704 137.27,-0.46 -68.992,-140.24 z"
         style="fill:#000000;fill-opacity:1;fill-rule:nonzero;stroke:none;stroke-width:0.99999994"
         id="path4507-0"
         inkscape:connector-curvature="0" />
      <text
         xml:space="preserve"
         style="font-style:normal;font-variant:normal;font-weight:normal;font-stretch:normal;font-size:320px;line-height:1.25;font-family:Arial;-inkscape-font-specification:'Arial, Normal';font-variant-ligatures:normal;font-variant-caps:normal;font-variant-numeric:normal;font-feature-settings:normal;text-align:start;letter-spacing:0px;word-spacing:0px;writing-mode:lr-tb;text-anchor:start;fill:#000000;fill-opacity:1;stroke:none;stroke-width:7.5"
         x="-41.004364"
         y="2634.1108"
         id="text6463-6"
         transform="scale(1,-1)"><tspan
           sodipodi:role="line"
           id="tspan6461-6"
           x="-41.004364"
           y="2634.1108"
           style="font-style:normal;font-variant:normal;font-weight:normal;font-stretch:normal;font-size:320px;font-family:Arial;-inkscape-font-specification:'Arial, Normal';font-variant-ligatures:normal;font-variant-caps:normal;font-variant-numeric:normal;font-feature-settings:normal;text-align:start;writing-mode:lr-tb;text-anchor:start;stroke-width:7.5">-1</tspan></text>
      <path
         d="m 9674.1923,2338.0146 h 190 v 190 h -190 z"
         style="fill:#cc0000;fill-opacity:1;fill-rule:nonzero;stroke:none;stroke-width:0.99999994"
         id="path5774-9"
         inkscape:connector-curvature="0" />
      <path
         d="m 9674.1923,2908.0146 h 190 v 190 h -190 z"
         style="fill:#00cc00;fill-opacity:1;fill-rule:nonzero;stroke:none;stroke-width:0.99999994"
         id="path5774-2"
         inkscape:connector-curvature="0" />
      <text
         xml:space="preserve"
         style="font-style:normal;font-variant:normal;font-weight:normal;font-stretch:normal;font-size:560px;line-height:1.25;font-family:Vijaya;-inkscape-font-specification:'Vijaya, Normal';font-variant-ligatures:normal;font-variant-caps:normal;font-variant-numeric:normal;font-feature-settings:normal;text-align:start;letter-spacing:0px;word-spacing:0px;writing-mode:lr-tb;text-anchor:start;fill:#000000;fill-opacity:1;stroke:none;stroke-width:7.5"
         x="9993.4414"
         y="-3473.7681"
         id="text6422"
         transform="scale(1,-1)"><tspan
           sodipodi:role="line"
           id="tspan6420"
           x="9993.4414"
           y="-3473.7681"
           style="font-style:normal;font-variant:normal;font-weight:normal;font-stretch:normal;font-size:560px;font-family:Vijaya;-inkscape-font-specification:'Vijaya, Normal';font-variant-ligatures:normal;font-variant-caps:normal;font-variant-numeric:normal;font-feature-settings:normal;text-align:start;writing-mode:lr-tb;text-anchor:start;stroke-width:7.5">g(v)</tspan></text>
      <text
         xml:space="preserve"
         style="font-style:normal;font-variant:normal;font-weight:normal;font-stretch:normal;font-size:560px;line-height:1.25;font-family:Vijaya;-inkscape-font-specification:'Vijaya, Normal';font-variant-ligatures:normal;font-variant-caps:normal;font-variant-numeric:normal;font-feature-settings:normal;text-align:start;letter-spacing:0px;word-spacing:0px;writing-mode:lr-tb;text-anchor:start;fill:#000000;fill-opacity:1;stroke:none;stroke-width:7.5"
         x="9994.9395"
         y="-2905.6067"
         id="text6426"
         transform="scale(1,-1)"><tspan
           sodipodi:role="line"
           id="tspan6424"
           x="9994.9395"
           y="-2905.6067"
           style="font-style:normal;font-variant:normal;font-weight:normal;font-stretch:normal;font-size:560px;font-family:Vijaya;-inkscape-font-specification:'Vijaya, Normal';font-variant-ligatures:normal;font-variant-caps:normal;font-variant-numeric:normal;font-feature-settings:normal;text-align:start;writing-mode:lr-tb;text-anchor:start;stroke-width:7.5">h(v)</tspan></text>
      <text
         xml:space="preserve"
         style="font-style:normal;font-variant:normal;font-weight:normal;font-stretch:normal;font-size:560px;line-height:1.25;font-family:Vijaya;-inkscape-font-specification:'Vijaya, Normal';font-variant-ligatures:normal;font-variant-caps:normal;font-variant-numeric:normal;font-feature-settings:normal;text-align:start;letter-spacing:0px;word-spacing:0px;writing-mode:lr-tb;text-anchor:start;fill:#000000;fill-opacity:1;stroke:none;stroke-width:7.5"
         x="9992.7422"
         y="-2331.4438"
         id="text6430"
         transform="scale(1,-1)"><tspan
           sodipodi:role="line"
           id="tspan6428"
           x="9992.7422"
           y="-2331.4438"
           style="font-style:normal;font-variant:normal;font-weight:normal;font-stretch:normal;font-size:560px;font-family:Vijaya;-inkscape-font-specification:'Vijaya, Normal';font-variant-ligatures:normal;font-variant-caps:normal;font-variant-numeric:normal;font-feature-settings:normal;text-align:start;writing-mode:lr-tb;text-anchor:start;stroke-width:7.5">a(v)</tspan></text>
      <path
         d="M 9366.0972,379.92718 V 169.8252"
         style="fill:none;stroke:#000000;stroke-width:20;stroke-linecap:butt;stroke-linejoin:miter;stroke-miterlimit:4;stroke-dasharray:none;stroke-opacity:1"
         id="path4525-1"
         inkscape:connector-curvature="0" />
      <path
         d="m 480.44018,-2524.5825 h -210.102"
         style="fill:none;stroke:#000000;stroke-width:20;stroke-linecap:butt;stroke-linejoin:miter;stroke-miterlimit:4;stroke-dasharray:none;stroke-opacity:1"
         id="path4525-1-0"
         inkscape:connector-curvature="0" />
      <text
         xml:space="preserve"
         style="font-style:normal;font-variant:normal;font-weight:normal;font-stretch:normal;font-size:320px;line-height:1.25;font-family:Arial;-inkscape-font-specification:'Arial, Normal';font-variant-ligatures:normal;font-variant-caps:normal;font-variant-numeric:normal;font-feature-settings:normal;text-align:start;letter-spacing:0px;word-spacing:0px;writing-mode:lr-tb;text-anchor:start;fill:#000000;fill-opacity:1;stroke:none;stroke-width:7.5"
         x="64.603706"
         y="-2985.6738"
         id="text6463-6-2"
         transform="scale(1,-1)"><tspan
           sodipodi:role="line"
           id="tspan6461-6-6"
           x="64.603706"
           y="-2985.6738"
           style="font-style:normal;font-variant:normal;font-weight:normal;font-stretch:normal;font-size:320px;font-family:Arial;-inkscape-font-specification:'Arial, Normal';font-variant-ligatures:normal;font-variant-caps:normal;font-variant-numeric:normal;font-feature-settings:normal;text-align:start;writing-mode:lr-tb;text-anchor:start;stroke-width:7.5">1</tspan></text>
      <path
         d="m 485.73577,3098.0145 h -210.102"
         style="fill:none;stroke:#000000;stroke-width:20;stroke-linecap:butt;stroke-linejoin:miter;stroke-miterlimit:4;stroke-dasharray:none;stroke-opacity:1"
         id="path4525-1-0-3"
         inkscape:connector-curvature="0" />
      <path
         d="m 9674.1923,3478.0146 h 190 v 190 h -190 z"
         style="fill:#0000cc;fill-opacity:1;fill-rule:nonzero;stroke:none;stroke-width:0.99999994"
         id="path5774-0-6"
         inkscape:connector-curvature="0" />
      <g
         id="g4618"
         transform="translate(830.55554,2294.1256)">
        <text
           transform="scale(1,-1)"
           id="text5022"
           y="1678.3165"
           x="8999.3662"
           style="font-style:normal;font-variant:normal;font-weight:normal;font-stretch:normal;font-size:360px;line-height:1.25;font-family:Vijaya;-inkscape-font-specification:'Vijaya, Normal';font-variant-ligatures:normal;font-variant-caps:normal;font-variant-numeric:normal;font-feature-settings:normal;text-align:start;letter-spacing:0px;word-spacing:0px;writing-mode:lr-tb;text-anchor:start;fill:#000000;fill-opacity:1;stroke:none;stroke-width:7.5"
           xml:space="preserve"><tspan
             style="stroke-width:7.5"
             y="1678.3165"
             x="8999.3662"
             id="tspan5020"
             sodipodi:role="line">thresh</tspan></text>
        <text
           transform="scale(1,-1)"
           id="text5026"
           y="1573.0807"
           x="8775.7422"
           style="font-style:normal;font-variant:normal;font-weight:normal;font-stretch:normal;font-size:360px;line-height:1.25;font-family:Vijaya;-inkscape-font-specification:'Vijaya, Normal';font-variant-ligatures:normal;font-variant-caps:normal;font-variant-numeric:normal;font-feature-settings:normal;text-align:start;letter-spacing:0px;word-spacing:0px;writing-mode:lr-tb;text-anchor:start;fill:#000000;fill-opacity:1;stroke:none;stroke-width:7.5"
           xml:space="preserve"><tspan
             style="font-size:479.99996948px;stroke-width:7.5"
             y="1573.0807"
             x="8775.7422"
             id="tspan5024"
             sodipodi:role="line">g</tspan></text>
      </g>
      <text
         xml:space="preserve"
         style="font-style:normal;font-variant:normal;font-weight:normal;font-stretch:normal;font-size:320px;line-height:1.25;font-family:Arial;-inkscape-font-specification:'Arial, Normal';font-variant-ligatures:normal;font-variant-caps:normal;font-variant-numeric:normal;font-feature-settings:normal;text-align:start;letter-spacing:0px;word-spacing:0px;writing-mode:lr-tb;text-anchor:start;fill:#000000;fill-opacity:1;stroke:none;stroke-width:7.5"
         x="9105.5752"
         y="149.1613"
         id="text5688"
         transform="scale(1,-1)"><tspan
           sodipodi:role="line"
           id="tspan5686"
           x="9105.5752"
           y="149.1613"
           style="font-style:normal;font-variant:normal;font-weight:normal;font-stretch:normal;font-size:320px;font-family:Arial;-inkscape-font-specification:'Arial, Normal';font-variant-ligatures:normal;font-variant-caps:normal;font-variant-numeric:normal;font-feature-settings:normal;text-align:start;writing-mode:lr-tb;text-anchor:start;stroke-width:7.5">255</tspan></text>
    </g>
    <g
       clip-path="url(#cliprect0)"
       id="g435"
       transform="translate(1.7189514,17.252908)">
      <polyline
         style="opacity:1;fill:none;stroke:#0000cc;stroke-width:5;stroke-linecap:butt;stroke-linejoin:miter;stroke-miterlimit:4;stroke-dasharray:none"
         points="76,477.962 81.8824,477.881 87.7647,477.274 93.6471,475.79 99.5294,474.154 105.412,472.142 111.294,469.79 117.176,467.117 123.059,464.147 128.941,460.908 134.824,457.418 140.706,453.693 146.588,449.739 152.471,445.561 158.353,441.162 164.235,436.549 170.118,431.729 176,426.716 181.882,421.524 187.765,416.169 193.647,410.666 199.529,405.027 205.412,399.261 211.294,393.376 217.176,387.375 223.059,381.265 228.941,375.053 234.824,368.754 240.706,362.389 246.588,355.989 252.471,349.595 258.353,343.259 264.235,337.042 270.118,331.011 276,325.238 281.882,319.791 287.765,314.734 293.647,310.115 299.529,305.967 305.412,302.3 311.294,299.095 317.176,296.312 323.059,293.887 328.941,291.738 334.824,289.773 340.706,287.901 346.588,286.038 352.471,284.114 358.353,282.082 364.235,279.915 370.118,277.609 376,275.181 381.882,272.666 387.765,270.113 393.647,267.585 399.529,265.159 405.412,262.927 411.294,260.999 417.176,259.505 423.059,258.594 428.941,258.431 434.824,259.195 440.706,261.065 446.588,264.204 452.471,268.748 458.353,274.782 464.235,282.329 470.118,291.335 476,301.665 481.882,313.104 487.765,325.373 493.647,338.142 499.529,351.054 505.412,363.75 511.294,375.88 517.176,387.127 523.059,397.205 528.941,405.863 534.824,412.884 540.706,418.08 546.588,421.297 552.471,422.418 558.353,421.377 564.235,418.173 570.118,412.888 576,405.688 581.882,396.83 587.765,386.65 593.647,375.54 599.529,363.918 605.412,352.197 611.294,340.755 617.176,329.904 623.059,319.876 628.941,310.818 634.824,302.792 640.706,295.788 646.588,289.741 652.471,284.55 658.353,280.093 664.235,276.247 670.118,272.893 676,269.927 681.882,267.263 687.765,264.829 693.647,262.574 699.529,260.456 705.412,258.447 711.294,256.528 717.176,254.685 723.059,252.91 728.941,251.199 734.824,249.552 740.706,247.971 746.588,246.458 752.471,245.021 758.353,243.664 764.235,242.394 770.118,241.217 776,240.138 781.882,239.163 787.765,238.293 793.647,237.534 799.529,236.887 805.412,236.356 811.294,235.947 817.176,235.667 823.059,235.527 828.941,235.542 834.824,235.73 840.706,236.114 846.588,236.718 852.471,237.569 858.353,238.692 864.235,240.111 870.118,241.845 876,243.904 881.882,246.295 887.765,249.013 893.647,252.048 899.529,255.381 905.412,258.99 911.294,262.85 917.176,266.932 923.059,271.207 928.941,275.648 934.824,280.225 940.706,284.91 946.588,289.671 952.471,294.477 958.353,299.291 964.235,304.075 970.118,308.787 976,313.381 981.882,317.812 987.765,322.033 993.647,325.997 999.529,329.662 1005.41,332.991 1011.29,335.949 1017.18,338.51 1023.06,340.654 1028.94,342.369 1034.82,343.648 1040.71,344.491 1046.59,344.907 1052.47,344.907 1058.35,344.512 1064.24,343.749 1070.12,342.649 1076,341.251 1081.88,339.601 1087.76,337.75 1093.65,335.752 1099.53,333.667 1105.41,331.557 1111.29,329.481 1117.18,327.499 1123.06,325.662 1128.94,324.018 1134.82,322.6 1140.71,321.434 1146.59,320.532 1152.47,319.894 1158.35,319.508 1164.24,319.353 1170.12,319.396 1176,319.6 1181.88,319.924 1187.76,320.323 1193.65,320.754 1199.53,321.178 1205.41,321.555 1211.29,321.855 1217.18,322.048 1223.06,322.113 1228.94,322.03 1234.82,321.779 1240.71,321.344 1246.59,320.703 1252.47,319.832 1258.35,318.704 1264.24,317.287 1270.12,315.545 1276,313.444 1281.88,310.953 1287.76,308.05 1293.65,304.721 1299.53,300.972 1305.41,296.824 1311.29,292.318 1317.18,287.51 1323.06,282.47 1328.94,277.28 1334.82,272.023 1340.71,266.778 1346.59,261.619 1352.47,256.606 1358.35,251.787 1364.24,247.194 1370.12,242.843 1376,238.739 1381.88,234.87 1387.76,231.215 1393.65,227.738 1399.53,224.392 1405.41,221.115 1411.29,217.84 1417.18,214.487 1423.06,210.976 1428.94,207.227 1434.82,203.165 1440.71,198.733 1446.59,193.888 1452.47,188.611 1458.35,182.909 1464.24,176.818 1470.12,170.396 1476,163.723 1481.88,156.895 1487.76,150.01 1493.65,143.163 1499.53,136.429 1505.41,129.855 1511.29,123.451 1517.18,117.182 1523.06,110.969 1528.94,104.689 1534.82,98.1884 1540.71,91.2946 1546.59,83.8414 1552.47,75.6895 1558.35,66.6697 1564.24,57.3083 1570.12,45.6842 1576,32.6683 "
         id="polyline422" />
      <polyline
         style="opacity:1;fill:none;stroke:#00cc00;stroke-width:5;stroke-linecap:butt;stroke-linejoin:miter;stroke-miterlimit:4;stroke-dasharray:none"
         points="76,403.24 81.8824,412.698 87.7647,419.895 93.6471,423.344 99.5294,426.173 105.412,427.458 111.294,427.422 117.176,426.241 123.059,424.154 128.941,421.427 134.824,418.325 140.706,415.09 146.588,411.927 152.471,409.003 158.353,406.443 164.235,404.337 170.118,402.74 176,401.684 181.882,401.177 187.765,401.212 193.647,401.772 199.529,402.832 205.412,404.366 211.294,406.352 217.176,408.772 223.059,411.615 228.941,414.88 234.824,418.572 240.706,422.703 246.588,427.287 252.471,432.341 258.353,437.877 264.235,443.9 270.118,450.408 276,457.389 281.882,464.818 287.765,472.665 293.647,480.888 299.529,489.445 305.412,498.289 311.294,507.374 317.176,516.655 323.059,526.091 328.941,535.644 334.824,545.275 340.706,554.949 346.588,564.631 352.471,574.284 358.353,583.876 364.235,593.375 370.118,602.753 376,611.984 381.882,621.047 387.765,629.918 393.647,638.565 399.529,646.944 405.412,654.984 411.294,662.586 417.176,669.61 423.059,675.872 428.941,681.149 434.824,685.186 440.706,687.709 446.588,688.447 452.471,687.16 458.353,683.664 464.235,677.86 470.118,669.751 476,659.456 481.882,647.207 487.765,633.33 493.647,618.218 499.529,602.286 505.412,585.936 511.294,569.503 517.176,553.229 523.059,537.233 528.941,521.513 534.824,505.953 540.706,490.352 546.588,474.467 552.471,458.058 558.353,440.945 564.235,423.048 570.118,404.421 576,385.273 581.882,365.959 587.765,346.957 593.647,328.827 599.529,312.154 605.412,297.486 611.294,285.285 617.176,275.877 623.059,269.429 628.941,265.946 634.824,265.279 640.706,267.163 646.588,271.245 652.471,277.133 658.353,284.429 664.235,292.762 670.118,301.808 676,311.301 681.882,321.035 687.765,330.862 693.647,340.681 699.529,350.43 705.412,360.077 711.294,369.608 717.176,379.025 723.059,388.332 728.941,397.539 734.824,406.657 740.706,415.692 746.588,424.652 752.471,433.542 758.353,442.363 764.235,451.118 770.118,459.807 776,468.431 781.882,476.989 787.765,485.481 793.647,493.904 799.529,502.258 805.412,510.538 811.294,518.739 817.176,526.854 823.059,534.873 828.941,542.785 834.824,550.575 840.706,558.23 846.588,565.733 852.471,573.065 858.353,580.207 864.235,587.135 870.118,593.823 876,600.241 881.882,606.357 887.765,612.136 893.647,617.541 899.529,622.537 905.412,627.095 911.294,631.189 917.176,634.804 923.059,637.938 928.941,640.6 934.824,642.816 940.706,644.624 946.588,646.081 952.471,647.255 958.353,648.228 964.235,649.093 970.118,649.951 976,650.904 981.882,652.057 987.765,653.507 993.647,655.341 999.529,657.628 1005.41,660.418 1011.29,663.737 1017.18,667.589 1023.06,671.953 1028.94,676.786 1034.82,682.034 1040.71,687.627 1046.59,693.494 1052.47,699.564 1058.35,705.773 1064.24,712.069 1070.12,718.414 1076,724.789 1081.88,731.196 1087.76,737.656 1093.65,744.21 1099.53,750.915 1105.41,757.842 1111.29,765.067 1117.18,772.665 1123.06,780.704 1128.94,789.235 1134.82,798.288 1140.71,807.86 1146.59,817.919 1152.47,828.393 1158.35,839.176 1164.24,850.129 1170.12,861.088 1176,871.867 1181.88,882.278 1187.76,892.134 1193.65,901.273 1199.53,909.558 1205.41,916.899 1211.29,923.25 1217.18,928.614 1223.06,933.043 1228.94,936.63 1234.82,939.5 1240.71,941.802 1246.59,943.695 1252.47,945.342 1258.35,946.892 1264.24,948.475 1270.12,950.191 1276,952.101 1281.88,954.217 1287.76,956.501 1293.65,958.864 1299.53,961.169 1305.41,963.247 1311.29,964.913 1317.18,965.99 1323.06,966.332 1328.94,965.844 1334.82,964.505 1340.71,962.37 1346.59,959.573 1352.47,956.307 1358.35,952.807 1364.24,949.313 1370.12,946.043 1376,943.154 1381.88,940.725 1387.76,938.741 1393.65,937.093 1399.53,935.593 1405.41,934.002 1411.29,932.062 1417.18,929.537 1423.06,926.241 1428.94,922.071 1434.82,917.018 1440.71,911.164 1446.59,904.671 1452.47,897.758 1458.35,890.668 1464.24,883.64 1470.12,876.882 1476,870.55 1481.88,864.747 1487.76,859.518 1493.65,854.86 1499.53,850.732 1505.41,847.069 1511.29,843.79 1517.18,840.797 1523.06,837.978 1528.94,835.203 1534.82,832.322 1540.71,829.17 1546.59,825.584 1552.47,821.415 1558.35,816.479 1564.24,811.249 1570.12,803.881 1576,795.171 "
         id="polyline424" />
      <polyline
         style="opacity:1;fill:none;stroke:#000000;stroke-width:3.33333325;stroke-linecap:butt;stroke-linejoin:miter;stroke-miterlimit:4;stroke-dasharray:26.66666546, 26.66666546;stroke-dashoffset:0"
         points="76,423.108 1576,423.108 "
         id="polyline428" />
      <polyline
         style="opacity:1;fill:none;stroke:#cc0000;stroke-width:5;stroke-linecap:butt;stroke-linejoin:miter;stroke-miterlimit:4;stroke-dasharray:none"
         points="76,499.5 81.8824,499.5 87.7647,499.5 93.6471,499.5 99.5294,499.5 105.412,499.5 111.294,499.5 117.176,499.5 123.059,499.5 128.941,499.5 134.824,499.5 140.706,499.5 146.588,499.5 152.471,499.5 158.353,499.5 164.235,499.5 170.118,499.5 176,499.5 181.882,499.5 187.765,499.5 193.647,499.5 199.529,499.5 205.412,499.5 211.294,499.5 217.176,499.5 223.059,499.5 228.941,499.5 234.824,499.5 240.706,499.5 246.588,499.5 252.471,499.5 258.353,499.5 264.235,499.5 270.118,499.479 276,498.818 281.882,490.721 287.765,445.779 293.647,320.169 299.529,139.479 305.412,34.3196 311.294,94.5255 317.176,254.691 323.059,394.632 328.941,467.149 334.824,492.186 340.706,498.26 346.588,499.337 352.471,499.483 358.353,499.498 364.235,499.5 370.118,499.5 376,499.5 381.882,499.5 387.765,499.5 393.647,499.5 399.529,499.5 405.412,499.5 411.294,499.5 417.176,499.5 423.059,499.5 428.941,499.5 434.824,499.5 440.706,499.5 446.588,499.5 452.471,499.5 458.353,499.5 464.235,499.5 470.118,499.5 476,499.5 481.882,499.5 487.765,499.5 493.647,499.5 499.529,499.5 505.412,499.5 511.294,499.5 517.176,499.5 523.059,499.5 528.941,499.5 534.824,499.5 540.706,499.5 546.588,499.5 552.471,499.5 558.353,499.5 564.235,499.5 570.118,499.5 576,499.5 581.882,499.5 587.765,499.5 593.647,499.5 599.529,499.5 605.412,499.5 611.294,499.5 617.176,499.5 623.059,499.5 628.941,499.5 634.824,499.5 640.706,499.5 646.588,499.5 652.471,499.5 658.353,499.5 664.235,499.5 670.118,499.5 676,499.5 681.882,499.5 687.765,499.5 693.647,499.5 699.529,499.5 705.412,499.5 711.294,499.5 717.176,499.5 723.059,499.5 728.941,499.498 734.824,499.481 740.706,499.355 746.588,498.669 752.471,495.799 758.353,486.425 764.235,462.224 770.118,412.434 776,330.618 781.882,224.205 787.765,118.403 793.647,47.3984 799.529,36.2657 805.412,86.7795 811.294,177.892 817.176,279.208 823.059,366.285 828.941,428.121 834.824,465.516 840.706,485.097 846.588,494.063 852.471,497.674 858.353,498.955 864.235,499.356 870.118,499.467 876,499.493 881.882,499.499 887.765,499.5 893.647,499.5 899.529,499.5 905.412,499.5 911.294,499.5 917.176,499.5 923.059,499.5 928.941,499.5 934.824,499.5 940.706,499.5 946.588,499.5 952.471,499.5 958.353,499.5 964.235,499.5 970.118,499.5 976,499.5 981.882,499.5 987.765,499.5 993.647,499.5 999.529,499.5 1005.41,499.5 1011.29,499.5 1017.18,499.5 1023.06,499.5 1028.94,499.5 1034.82,499.5 1040.71,499.5 1046.59,499.5 1052.47,499.5 1058.35,499.5 1064.24,499.5 1070.12,499.5 1076,499.5 1081.88,499.5 1087.76,499.5 1093.65,499.5 1099.53,499.5 1105.41,499.5 1111.29,499.5 1117.18,499.5 1123.06,499.5 1128.94,499.5 1134.82,499.5 1140.71,499.5 1146.59,499.5 1152.47,499.5 1158.35,499.5 1164.24,499.5 1170.12,499.5 1176,499.5 1181.88,499.5 1187.76,499.5 1193.65,499.5 1199.53,499.5 1205.41,499.5 1211.29,499.5 1217.18,499.5 1223.06,499.5 1228.94,499.5 1234.82,499.5 1240.71,499.5 1246.59,499.5 1252.47,499.5 1258.35,499.5 1264.24,499.5 1270.12,499.5 1276,499.5 1281.88,499.5 1287.76,499.5 1293.65,499.5 1299.53,499.5 1305.41,499.5 1311.29,499.5 1317.18,499.5 1323.06,499.5 1328.94,499.5 1334.82,499.5 1340.71,499.5 1346.59,499.5 1352.47,499.5 1358.35,499.5 1364.24,499.5 1370.12,499.5 1376,499.5 1381.88,499.5 1387.76,499.5 1393.65,499.5 1399.53,499.5 1405.41,499.5 1411.29,499.5 1417.18,499.5 1423.06,499.5 1428.94,499.5 1434.82,499.5 1440.71,499.5 1446.59,499.5 1452.47,499.5 1458.35,499.5 1464.24,499.5 1470.12,499.5 1476,499.5 1481.88,499.5 1487.76,499.5 1493.65,499.5 1499.53,499.5 1505.41,499.5 1511.29,499.5 1517.18,499.5 1523.06,499.5 1528.94,499.5 1534.82,499.5 1540.71,499.5 1546.59,499.5 1552.47,499.5 1558.35,499.5 1564.24,499.5 1570.12,499.5 1576,499.5 "
         id="polyline430" />
      <clipPath
         id="cliprect1">
        <rect
           x="0"
           y="0"
           width="1618"
           height="1017"
           id="rect432" />
      </clipPath>
    </g>
  </g>
</svg>
