<?xml version="1.0" encoding="UTF-8" standalone="no"?>
<svg
   xmlns:dc="http://purl.org/dc/elements/1.1/"
   xmlns:cc="http://creativecommons.org/ns#"
   xmlns:rdf="http://www.w3.org/1999/02/22-rdf-syntax-ns#"
   xmlns:svg="http://www.w3.org/2000/svg"
   xmlns="http://www.w3.org/2000/svg"
   xmlns:sodipodi="http://sodipodi.sourceforge.net/DTD/sodipodi-0.dtd"
   xmlns:inkscape="http://www.inkscape.org/namespaces/inkscape"
   width="970.801pt"
   height="610.2pt"
   viewBox="0 0 1618 1017"
   version="1.1"
   id="svg441"
   sodipodi:docname="r_g_skull.svg"
   inkscape:version="0.92.1 r15371">
  <metadata
     id="metadata447">
    <rdf:RDF>
      <cc:Work
         rdf:about="">
        <dc:format>image/svg+xml</dc:format>
        <dc:type
           rdf:resource="http://purl.org/dc/dcmitype/StillImage" />
      </cc:Work>
    </rdf:RDF>
  </metadata>
  <defs
     id="defs445" />
  <sodipodi:namedview
     pagecolor="#ffffff"
     bordercolor="#666666"
     borderopacity="1"
     objecttolerance="10"
     gridtolerance="10"
     guidetolerance="10"
     inkscape:pageopacity="0"
     inkscape:pageshadow="2"
     inkscape:window-width="1920"
     inkscape:window-height="1019"
     id="namedview443"
     showgrid="false"
     inkscape:zoom="1.4815139"
     inkscape:cx="422.75699"
     inkscape:cy="420.95362"
     inkscape:window-x="-9"
     inkscape:window-y="-9"
     inkscape:window-maximized="1"
     inkscape:current-layer="g435" />
  <g
     id="g439">
    <pattern
       id="pattern0"
       patternUnits="userSpaceOnUse"
       x="0"
       y="0"
       width="7"
       height="7">
      <line
         x1="0"
         y1="3"
         x2="7"
         y2="3"
         style="fill:none; stroke:rgb(0,0,0); opacity:1"
         id="line2" />
    </pattern>
    <g
       clip-path="url(#cliprect0)"
       id="g435">
      <polyline
         style="fill:none;stroke:rgb(0, 0, 204);stroke-width:4.99999977;stroke-linecap:butt;stroke-linejoin:miter;stroke-dasharray:none;opacity:1;stroke-miterlimit:4"
         points="76,487.49 81.8824,485.478 87.7647,483.744 93.6471,482.478 99.5294,481.295 105.412,480.315 111.294,479.511 117.176,478.862 123.059,478.333 128.941,477.881 134.824,477.458 140.706,477.015 146.588,476.507 152.471,475.888 158.353,475.123 164.235,474.18 170.118,473.037 176,471.675 181.882,470.087 187.765,468.268 193.647,466.223 199.529,463.96 205.412,461.491 211.294,458.835 217.176,456.012 223.059,453.047 228.941,449.968 234.824,446.804 240.706,443.59 246.588,440.359 252.471,437.15 258.353,433.997 264.235,430.936 270.118,428.001 276,425.22 281.882,422.616 287.765,420.206 293.647,418.002 299.529,416.007 305.412,414.218 311.294,412.626 317.176,411.22 323.059,409.983 328.941,408.899 334.824,407.951 340.706,407.122 346.588,406.397 352.471,405.764 358.353,405.209 364.235,404.725 370.118,404.301 376,403.93 381.882,403.605 387.765,403.32 393.647,403.068 399.529,402.845 405.412,402.646 411.294,402.467 417.176,402.305 423.059,402.159 428.941,402.026 434.824,401.907 440.706,401.798 446.588,401.699 452.471,401.607 458.353,401.517 464.235,401.425 470.118,401.325 476,401.21 481.882,401.073 487.765,400.908 493.647,400.711 499.529,400.478 505.412,400.207 511.294,399.899 517.176,399.556 523.059,399.18 528.941,398.774 534.824,398.342 540.706,397.886 546.588,397.407 552.471,396.905 558.353,396.379 564.235,395.826 570.118,395.244 576,394.63 581.882,393.982 587.765,393.299 593.647,392.579 599.529,391.822 605.412,391.027 611.294,390.194 617.176,389.319 623.059,388.399 628.941,387.428 634.824,386.399 640.706,385.301 646.588,384.126 652.471,382.863 658.353,381.502 664.235,380.037 670.118,378.461 676,376.771 681.882,374.964 687.765,373.04 693.647,370.997 699.529,368.838 705.412,366.561 711.294,364.168 717.176,361.662 723.059,359.049 728.941,356.336 734.824,353.536 740.706,350.665 746.588,347.744 752.471,344.794 758.353,341.839 764.235,338.903 770.118,336.008 776,333.176 781.882,330.422 787.765,327.761 793.647,325.201 799.529,322.747 805.412,320.401 811.294,318.158 817.176,316.014 823.059,313.96 828.941,311.988 834.824,310.09 840.706,308.261 846.588,306.501 852.471,304.812 858.353,303.202 864.235,301.678 870.118,300.251 876,298.928 881.882,297.712 887.765,296.602 893.647,295.589 899.529,294.658 905.412,293.791 911.294,292.965 917.176,292.155 923.059,291.337 928.941,290.492 934.824,289.602 940.706,288.655 946.588,287.644 952.471,286.567 958.353,285.422 964.235,284.212 970.118,282.934 976,281.583 981.882,280.148 987.765,278.61 993.647,276.948 999.529,275.133 1005.41,273.137 1011.29,270.936 1017.18,268.51 1023.06,265.846 1028.94,262.942 1034.82,259.804 1040.71,256.445 1046.59,252.883 1052.47,249.139 1058.35,245.234 1064.24,241.187 1070.12,237.015 1076,232.733 1081.88,228.355 1087.76,223.894 1093.65,219.363 1099.53,214.776 1105.41,210.144 1111.29,205.476 1117.18,200.777 1123.06,196.046 1128.94,191.273 1134.82,186.446 1140.71,181.546 1146.59,176.551 1152.47,171.439 1158.35,166.192 1164.24,160.794 1170.12,155.232 1176,149.5 1181.88,143.592 1187.76,137.507 1193.65,131.245 1199.53,124.807 1205.41,118.198 1211.29,111.43 1217.18,104.523 1223.06,97.5125 1228.94,90.4474 1234.82,83.396 1240.71,76.444 1246.59,69.6922 1252.47,63.2515 1258.35,57.2357 1264.24,51.7531 1270.12,46.8973 1276,42.7393 1281.88,39.321 1287.76,36.6522 1293.65,34.7111 1299.53,33.4485 1305.41,32.7947 1311.29,32.6683 1317.18,32.9842 1323.06,33.6606 1328.94,34.6225 1334.82,35.8028 1340.71,37.1398 1346.59,38.5741 1352.47,40.046 1358.35,41.4942 1364.24,42.8572 1370.12,44.0781 1376,45.1103 1381.88,45.9252 1387.76,46.5177 1393.65,46.9103 1399.53,47.1535 1405.41,47.3218 1411.29,47.507 1417.18,47.8068 1423.06,48.3126 1428.94,49.0964 1434.82,50.2003 1440.71,51.6298 1446.59,53.3526 1452.47,55.3045 1458.35,57.4016 1464.24,59.5569 1470.12,61.6999 1476,63.7953 1481.88,65.8584 1487.76,67.9665 1493.65,70.2636 1499.53,72.9614 1505.41,76.3362 1511.29,80.7231 1517.18,86.5078 1523.06,94.1149 1528.94,103.99 1534.82,116.573 1540.71,132.265 1546.59,151.366 1552.47,174.032 1558.35,200.521 1564.24,228.579 1570.12,265.004 1576,306.333 "
         id="polyline422" />
      <polyline
         style="fill:none;stroke:rgb(0, 204, 0);stroke-width:4.99999977;stroke-linecap:butt;stroke-linejoin:miter;stroke-dasharray:none;opacity:1;stroke-miterlimit:4"
         points="76,470.099 81.8824,472.816 87.7647,475.402 93.6471,477.746 99.5294,480.031 105.412,482.178 111.294,484.174 117.176,486.007 123.059,487.665 128.941,489.145 134.824,490.444 140.706,491.565 146.588,492.512 152.471,493.294 158.353,493.92 164.235,494.402 170.118,494.756 176,494.997 181.882,495.144 187.765,495.215 193.647,495.232 199.529,495.215 205.412,495.186 211.294,495.166 217.176,495.178 223.059,495.241 228.941,495.374 234.824,495.595 240.706,495.919 246.588,496.359 252.471,496.926 258.353,497.627 264.235,498.465 270.118,499.442 276,500.555 281.882,501.798 287.765,503.162 293.647,504.636 299.529,506.208 305.412,507.865 311.294,509.592 317.176,511.376 323.059,513.204 328.941,515.064 334.824,516.947 340.706,518.843 346.588,520.745 352.471,522.647 358.353,524.545 364.235,526.434 370.118,528.312 376,530.176 381.882,532.024 387.765,533.854 393.647,535.665 399.529,537.457 405.412,539.227 411.294,540.976 417.176,542.702 423.059,544.404 428.941,546.08 434.824,547.728 440.706,549.347 446.588,550.932 452.471,552.481 458.353,553.993 464.235,555.464 470.118,556.895 476,558.286 481.882,559.638 487.765,560.952 493.647,562.232 499.529,563.481 505.412,564.701 511.294,565.893 517.176,567.06 523.059,568.202 528.941,569.32 534.824,570.411 540.706,571.476 546.588,572.513 552.471,573.52 558.353,574.497 564.235,575.443 570.118,576.358 576,577.243 581.882,578.099 587.765,578.927 593.647,579.73 599.529,580.508 605.412,581.262 611.294,581.995 617.176,582.704 623.059,583.392 628.941,584.057 634.824,584.699 640.706,585.32 646.588,585.921 652.471,586.506 658.353,587.08 664.235,587.648 670.118,588.22 676,588.802 681.882,589.405 687.765,590.036 693.647,590.7 699.529,591.404 705.412,592.149 711.294,592.938 717.176,593.769 723.059,594.644 728.941,595.562 734.824,596.523 740.706,597.525 746.588,598.569 752.471,599.653 758.353,600.774 764.235,601.927 770.118,603.108 776,604.311 781.882,605.534 787.765,606.772 793.647,608.026 799.529,609.297 805.412,610.59 811.294,611.906 817.176,613.251 823.059,614.622 828.941,616.018 834.824,617.433 840.706,618.856 846.588,620.277 852.471,621.685 858.353,623.071 864.235,624.43 870.118,625.763 876,627.075 881.882,628.379 887.765,629.695 893.647,631.045 899.529,632.453 905.412,633.94 911.294,635.525 917.176,637.216 923.059,639.013 928.941,640.905 934.824,642.868 940.706,644.87 946.588,646.873 952.471,648.838 958.353,650.727 964.235,652.51 970.118,654.166 976,655.684 981.882,657.064 987.765,658.313 993.647,659.446 999.529,660.481 1005.41,661.438 1011.29,662.336 1017.18,663.193 1023.06,664.023 1028.94,664.843 1034.82,665.666 1040.71,666.504 1046.59,667.371 1052.47,668.278 1058.35,669.235 1064.24,670.248 1070.12,671.323 1076,672.46 1081.88,673.659 1087.76,674.915 1093.65,676.224 1099.53,677.584 1105.41,678.995 1111.29,680.461 1117.18,681.992 1123.06,683.602 1128.94,685.311 1134.82,687.139 1140.71,689.106 1146.59,691.234 1152.47,693.536 1158.35,696.025 1164.24,698.708 1170.12,701.584 1176,704.652 1181.88,707.907 1187.76,711.34 1193.65,714.942 1199.53,718.703 1205.41,722.61 1211.29,726.649 1217.18,730.8 1223.06,735.042 1228.94,739.351 1234.82,743.703 1240.71,748.073 1246.59,752.441 1252.47,756.794 1258.35,761.122 1264.24,765.423 1270.12,769.699 1276,773.955 1281.88,778.193 1287.76,782.41 1293.65,786.6 1299.53,790.749 1305.41,794.836 1311.29,798.839 1317.18,802.738 1323.06,806.519 1328.94,810.18 1334.82,813.735 1340.71,817.218 1346.59,820.678 1352.47,824.18 1358.35,827.797 1364.24,831.602 1370.12,835.655 1376,839.999 1381.88,844.654 1387.76,849.607 1393.65,854.822 1399.53,860.236 1405.41,865.771 1411.29,871.339 1417.18,876.857 1423.06,882.251 1428.94,887.466 1434.82,892.473 1440.71,897.272 1446.59,901.888 1452.47,906.37 1458.35,910.778 1464.24,915.177 1470.12,919.622 1476,924.146 1481.88,928.759 1487.76,933.435 1493.65,938.12 1499.53,942.732 1505.41,947.171 1511.29,951.331 1517.18,955.105 1523.06,958.404 1528.94,961.157 1534.82,963.322 1540.71,964.887 1546.59,965.874 1552.47,966.332 1558.35,966.311 1564.24,966.08 1570.12,965.087 1576,963.7 "
         id="polyline424" />
      <polyline
         style="fill:none;stroke:rgb(0, 0, 0);stroke-width:3.33333319;stroke-linecap:butt;stroke-linejoin:miter;stroke-dasharray:13.33333274,26.66666546;opacity:1;stroke-miterlimit:4;stroke-dashoffset:0"
         points="76,491.009 1576,491.009 "
         id="polyline428" />
      <polyline
         style="fill:none;stroke:rgb(204, 0, 0);stroke-width:4.99999977;stroke-linecap:butt;stroke-linejoin:miter;stroke-dasharray:none;opacity:1;stroke-miterlimit:4"
         points="76,499.5 81.8824,499.5 87.7647,499.5 93.6471,499.5 99.5294,499.5 105.412,499.5 111.294,499.5 117.176,499.5 123.059,499.5 128.941,499.5 134.824,499.5 140.706,499.5 146.588,499.5 152.471,499.5 158.353,499.5 164.235,499.5 170.118,499.5 176,499.5 181.882,499.5 187.765,499.5 193.647,499.5 199.529,499.5 205.412,499.5 211.294,499.5 217.176,499.5 223.059,499.499 228.941,499.485 234.824,499.34 240.706,498.128 246.588,490.335 252.471,454.284 258.353,344.653 264.235,154.796 270.118,33.0698 276,140.556 281.882,352.195 287.765,469.159 293.647,496.532 299.529,499.369 305.412,499.497 311.294,499.5 317.176,499.5 323.059,499.5 328.941,499.5 334.824,499.5 340.706,499.5 346.588,499.5 352.471,499.5 358.353,499.5 364.235,499.5 370.118,499.5 376,499.5 381.882,499.5 387.765,499.5 393.647,499.5 399.529,499.5 405.412,499.5 411.294,499.5 417.176,499.5 423.059,499.5 428.941,499.5 434.824,499.5 440.706,499.5 446.588,499.5 452.471,499.5 458.353,499.5 464.235,499.5 470.118,499.5 476,499.5 481.882,499.5 487.765,499.5 493.647,499.5 499.529,499.5 505.412,499.5 511.294,499.5 517.176,499.5 523.059,499.5 528.941,499.5 534.824,499.5 540.706,499.5 546.588,499.5 552.471,499.5 558.353,499.5 564.235,499.5 570.118,499.5 576,499.5 581.882,499.5 587.765,499.5 593.647,499.5 599.529,499.5 605.412,499.5 611.294,499.5 617.176,499.5 623.059,499.5 628.941,499.5 634.824,499.5 640.706,499.5 646.588,499.5 652.471,499.5 658.353,499.5 664.235,499.5 670.118,499.5 676,499.5 681.882,499.5 687.765,499.5 693.647,499.5 699.529,499.5 705.412,499.5 711.294,499.5 717.176,499.5 723.059,499.5 728.941,499.5 734.824,499.5 740.706,499.5 746.588,499.5 752.471,499.5 758.353,499.5 764.235,499.5 770.118,499.5 776,499.5 781.882,499.5 787.765,499.5 793.647,499.5 799.529,499.5 805.412,499.5 811.294,499.5 817.176,499.5 823.059,499.5 828.941,499.5 834.824,499.5 840.706,499.5 846.588,499.5 852.471,499.5 858.353,499.5 864.235,499.5 870.118,499.5 876,499.5 881.882,499.5 887.765,499.5 893.647,499.5 899.529,499.5 905.412,499.5 911.294,499.5 917.176,499.5 923.059,499.5 928.941,499.5 934.824,499.5 940.706,499.5 946.588,499.5 952.471,499.5 958.353,499.5 964.235,499.5 970.118,499.5 976,499.5 981.882,499.5 987.765,499.5 993.647,499.5 999.529,499.5 1005.41,499.5 1011.29,499.5 1017.18,499.5 1023.06,499.5 1028.94,499.5 1034.82,499.5 1040.71,499.5 1046.59,499.5 1052.47,499.5 1058.35,499.5 1064.24,499.5 1070.12,499.5 1076,499.5 1081.88,499.5 1087.76,499.5 1093.65,499.5 1099.53,499.5 1105.41,499.5 1111.29,499.5 1117.18,499.5 1123.06,499.5 1128.94,499.5 1134.82,499.5 1140.71,499.5 1146.59,499.5 1152.47,499.5 1158.35,499.5 1164.24,499.5 1170.12,499.5 1176,499.5 1181.88,499.5 1187.76,499.5 1193.65,499.5 1199.53,499.5 1205.41,499.5 1211.29,499.5 1217.18,499.5 1223.06,499.5 1228.94,499.5 1234.82,499.5 1240.71,499.5 1246.59,499.5 1252.47,499.5 1258.35,499.5 1264.24,499.5 1270.12,499.5 1276,499.5 1281.88,499.5 1287.76,499.5 1293.65,499.5 1299.53,499.5 1305.41,499.5 1311.29,499.5 1317.18,499.5 1323.06,499.5 1328.94,499.5 1334.82,499.5 1340.71,499.5 1346.59,499.5 1352.47,499.5 1358.35,499.5 1364.24,499.5 1370.12,499.5 1376,499.5 1381.88,499.5 1387.76,499.5 1393.65,499.5 1399.53,499.5 1405.41,499.5 1411.29,499.5 1417.18,499.5 1423.06,499.5 1428.94,499.5 1434.82,499.5 1440.71,499.5 1446.59,499.5 1452.47,499.5 1458.35,499.5 1464.24,499.5 1470.12,499.5 1476,499.5 1481.88,499.5 1487.76,499.5 1493.65,499.5 1499.53,499.5 1505.41,499.5 1511.29,499.5 1517.18,499.5 1523.06,499.5 1528.94,499.5 1534.82,499.5 1540.71,499.5 1546.59,499.5 1552.47,499.5 1558.35,499.5 1564.24,499.5 1570.12,499.5 1576,499.5 "
         id="polyline430" />
      <clipPath
         id="cliprect1">
        <rect
           x="0"
           y="0"
           width="1618"
           height="1017"
           id="rect432" />
      </clipPath>
    </g>
    <g
       clip-path="url(#cliprect1)"
       id="g437" />
  </g>
</svg>
