<?xml version="1.0" encoding="UTF-8" standalone="no"?>
<svg
   xmlns:dc="http://purl.org/dc/elements/1.1/"
   xmlns:cc="http://creativecommons.org/ns#"
   xmlns:rdf="http://www.w3.org/1999/02/22-rdf-syntax-ns#"
   xmlns:svg="http://www.w3.org/2000/svg"
   xmlns="http://www.w3.org/2000/svg"
   xmlns:sodipodi="http://sodipodi.sourceforge.net/DTD/sodipodi-0.dtd"
   xmlns:inkscape="http://www.inkscape.org/namespaces/inkscape"
   width="970.801pt"
   height="610.2pt"
   viewBox="0 0 1618 1017"
   version="1.1"
   id="svg1831"
   sodipodi:docname="r_g_bonsai_ft.svg"
   inkscape:version="0.92.1 r15371">
  <metadata
     id="metadata1837">
    <rdf:RDF>
      <cc:Work
         rdf:about="">
        <dc:format>image/svg+xml</dc:format>
        <dc:type
           rdf:resource="http://purl.org/dc/dcmitype/StillImage" />
      </cc:Work>
    </rdf:RDF>
  </metadata>
  <defs
     id="defs1835" />
  <sodipodi:namedview
     pagecolor="#ffffff"
     bordercolor="#666666"
     borderopacity="1"
     objecttolerance="10"
     gridtolerance="10"
     guidetolerance="10"
     inkscape:pageopacity="0"
     inkscape:pageshadow="2"
     inkscape:window-width="1920"
     inkscape:window-height="1019"
     id="namedview1833"
     showgrid="false"
     inkscape:zoom="1.0475885"
     inkscape:cx="645.11994"
     inkscape:cy="358.50608"
     inkscape:window-x="-9"
     inkscape:window-y="-9"
     inkscape:window-maximized="1"
     inkscape:current-layer="g1825" />
  <g
     id="g1829">
    <pattern
       id="pattern0"
       patternUnits="userSpaceOnUse"
       x="0"
       y="0"
       width="7"
       height="7">
      <line
         x1="0"
         y1="3"
         x2="7"
         y2="3"
         style="fill:none; stroke:rgb(0,0,0); opacity:1"
         id="line1392" />
    </pattern>
    <g
       clip-path="url(#cliprect0)"
       id="g1825">
      <polyline
         style="fill:none; stroke:rgb(0,0,204); stroke-width:1; stroke-linecap:butt; stroke-linejoin:miter; stroke-dasharray:0; opacity:1"
         points="76,491.675 81.8824,466.313 87.7647,443.328 93.6471,424.432 99.5294,406.327 105.412,390.139 111.294,375.775 117.176,363.194 123.059,352.289 128.941,342.913 134.824,334.91 140.706,328.134 146.588,322.459 152.471,317.787 158.353,314.045 164.235,311.179 170.118,309.144 176,307.892 181.882,307.364 187.765,307.482 193.647,308.144 199.529,309.227 205.412,310.59 211.294,312.088 217.176,313.583 223.059,314.963 228.941,316.159 234.824,317.158 240.706,318.009 246.588,318.816 252.471,319.726 258.353,320.898 264.235,322.471 270.118,324.529 276,327.072 281.882,330 287.765,333.113 293.647,336.126 299.529,338.709 305.412,340.517 311.294,341.237 317.176,340.619 323.059,338.491 328.941,334.767 334.824,329.43 340.706,322.515 346.588,314.085 352.471,304.214 358.353,292.975 364.235,280.444 370.118,266.706 376,251.869 381.882,236.075 387.765,219.51 393.647,202.405 399.529,185.024 405.412,167.655 411.294,150.592 417.176,134.118 423.059,118.487 428.941,103.918 434.824,90.5849 440.706,78.6136 446.588,68.0836 452.471,59.0293 458.353,51.4447 464.235,45.2877 470.118,40.4857 476,36.9419 481.882,34.542 487.765,33.1607 493.647,32.6683 499.529,32.9366 505.412,33.8434 511.294,35.2762 517.176,37.1333 523.059,39.3249 528.941,41.7721 534.824,44.4063 540.706,47.1682 546.588,50.0078 552.471,52.8844 558.353,55.7678 564.235,58.6388 570.118,61.4897 576,64.324 581.882,67.1545 587.765,70.0003 593.647,72.8833 599.529,75.8238 605.412,78.8375 611.294,81.9328 617.176,85.1096 623.059,88.3606 628.941,91.673 634.824,95.0313 640.706,98.4214 646.588,101.833 652.471,105.264 658.353,108.72 664.235,112.216 670.118,115.777 676,119.437 681.882,123.233 687.765,127.205 693.647,131.392 699.529,135.83 705.412,140.545 711.294,145.554 717.176,150.864 723.059,156.474 728.941,162.374 734.824,168.546 740.706,174.97 746.588,181.624 752.471,188.487 758.353,195.537 764.235,202.755 770.118,210.121 776,217.614 781.882,225.212 787.765,232.886 793.647,240.604 799.529,248.324 805.412,255.994 811.294,263.551 817.176,270.923 823.059,278.023 828.941,284.759 834.824,291.032 840.706,296.745 846.588,301.805 852.471,306.134 858.353,309.672 864.235,312.384 870.118,314.263 876,315.329 881.882,315.626 887.765,315.22 893.647,314.189 899.529,312.62 905.412,310.595 911.294,308.191 917.176,305.473 923.059,302.49 928.941,299.275 934.824,295.846 940.706,292.208 946.588,288.356 952.471,284.276 958.353,279.951 964.235,275.362 970.118,270.49 976,265.318 981.882,259.831 987.765,254.019 993.647,247.876 999.529,241.401 1005.41,234.598 1011.29,227.478 1017.18,220.06 1023.06,212.369 1028.94,204.439 1034.82,196.309 1040.71,188.025 1046.59,179.638 1052.47,171.201 1058.35,162.77 1064.24,154.399 1070.12,146.143 1076,138.054 1081.88,130.179 1087.76,122.564 1093.65,115.25 1099.53,108.278 1105.41,101.685 1111.29,95.5093 1117.18,89.7909 1123.06,84.5763 1128.94,79.9202 1134.82,75.8878 1140.71,72.5573 1146.59,70.0201 1152.47,68.382 1158.35,67.7619 1164.24,68.2918 1170.12,70.1152 1176,73.386 1181.88,78.2659 1187.76,84.9192 1193.65,93.5043 1199.53,104.16 1205.41,116.987 1211.29,132.02 1217.18,149.207 1223.06,168.375 1228.94,189.218 1234.82,211.283 1240.71,233.976 1246.59,256.596 1252.47,278.371 1258.35,298.523 1264.24,316.332 1270.12,331.202 1276,342.713 1281.88,350.661 1287.76,355.062 1293.65,356.148 1299.53,354.32 1305.41,350.106 1311.29,344.093 1317.18,336.873 1323.06,328.988 1328.94,320.897 1334.82,312.946 1340.71,305.368 1346.59,298.283 1352.47,291.714 1358.35,285.609 1364.24,279.858 1370.12,274.318 1376,268.831 1381.88,263.236 1387.76,257.385 1393.65,251.15 1399.53,244.432 1405.41,237.165 1411.29,229.319 1417.18,220.899 1423.06,211.949 1428.94,202.546 1434.82,192.799 1440.71,182.84 1446.59,172.823 1452.47,162.918 1458.35,153.3 1464.24,144.151 1470.12,135.656 1476,128.003 1481.88,121.389 1487.76,116.02 1493.65,112.124 1499.53,109.951 1505.41,109.779 1511.29,111.915 1517.18,116.691 1523.06,124.451 1528.94,135.539 1534.82,150.265 1540.71,168.874 1546.59,191.495 1552.47,218.104 1558.35,248.776 1564.24,281.141 1570.12,321.759 1576,367.099 "
         id="polyline1812" />
      <polyline
         style="fill:none; stroke:rgb(0,204,0); stroke-width:1; stroke-linecap:butt; stroke-linejoin:miter; stroke-dasharray:0; opacity:1"
         points="76,485.076 81.8824,469.032 87.7647,455.406 93.6471,445.9 99.5294,437.161 105.412,430.292 111.294,425.157 117.176,421.671 123.059,419.679 128.941,418.982 134.824,419.372 140.706,420.652 146.588,422.648 152.471,425.221 158.353,428.264 164.235,431.701 170.118,435.48 176,439.565 181.882,443.924 187.765,448.526 193.647,453.329 199.529,458.276 205.412,463.297 211.294,468.304 217.176,473.201 223.059,477.888 228.941,482.271 234.824,486.272 240.706,489.838 246.588,492.944 252.471,495.601 258.353,497.85 264.235,499.758 270.118,501.412 276,502.904 281.882,504.326 287.765,505.757 293.647,507.257 299.529,508.855 305.412,510.552 311.294,512.314 317.176,514.069 323.059,515.714 328.941,517.116 334.824,518.121 340.706,518.567 346.588,518.291 352.471,517.15 358.353,515.033 364.235,511.872 370.118,507.655 376,502.427 381.882,496.293 387.765,489.41 393.647,481.978 399.529,474.222 405.412,466.383 411.294,458.698 417.176,451.384 423.059,444.633 428.941,438.599 434.824,433.396 440.706,429.094 446.588,425.726 452.471,423.285 458.353,421.736 464.235,421.017 470.118,421.05 476,421.743 481.882,423.001 487.765,424.73 493.647,426.84 499.529,429.249 505.412,431.886 511.294,434.69 517.176,437.613 523.059,440.615 528.941,443.666 534.824,446.742 540.706,449.824 546.588,452.899 552.471,455.955 558.353,458.983 564.235,461.976 570.118,464.928 576,467.837 581.882,470.701 587.765,473.52 593.647,476.293 599.529,479.02 605.412,481.701 611.294,484.331 617.176,486.908 623.059,489.426 628.941,491.881 634.824,494.267 640.706,496.582 646.588,498.824 652.471,500.993 658.353,503.093 664.235,505.127 670.118,507.101 676,509.021 681.882,510.889 687.765,512.712 693.647,514.489 699.529,516.223 705.412,517.911 711.294,519.551 717.176,521.137 723.059,522.664 728.941,524.123 734.824,525.505 740.706,526.8 746.588,527.997 752.471,529.087 758.353,530.06 764.235,530.907 770.118,531.622 776,532.2 781.882,532.64 787.765,532.94 793.647,533.104 799.529,533.134 805.412,533.036 811.294,532.814 817.176,532.473 823.059,532.022 828.941,531.467 834.824,530.817 840.706,530.086 846.588,529.288 852.471,528.446 858.353,527.582 864.235,526.729 870.118,525.919 876,525.189 881.882,524.576 887.765,524.115 893.647,523.84 899.529,523.776 905.412,523.942 911.294,524.352 917.176,525.011 923.059,525.919 928.941,527.071 934.824,528.46 940.706,530.077 946.588,531.918 952.471,533.977 958.353,536.255 964.235,538.756 970.118,541.485 976,544.453 981.882,547.672 987.765,551.156 993.647,554.92 999.529,558.976 1005.41,563.338 1011.29,568.017 1017.18,573.021 1023.06,578.359 1028.94,584.034 1034.82,590.05 1040.71,596.407 1046.59,603.106 1052.47,610.144 1058.35,617.516 1064.24,625.219 1070.12,633.244 1076,641.584 1081.88,650.23 1087.76,659.173 1093.65,668.402 1099.53,677.906 1105.41,687.675 1111.29,697.691 1117.18,707.936 1123.06,718.38 1128.94,728.985 1134.82,739.697 1140.71,750.448 1146.59,761.153 1152.47,771.707 1158.35,781.985 1164.24,791.838 1170.12,801.087 1176,809.524 1181.88,816.902 1187.76,822.938 1193.65,827.316 1199.53,829.698 1205.41,829.747 1211.29,827.158 1217.18,821.697 1223.06,813.247 1228.94,801.847 1234.82,787.732 1240.71,771.343 1246.59,753.328 1252.47,734.509 1258.35,715.832 1264.24,698.294 1270.12,682.862 1276,670.391 1281.88,661.556 1287.76,656.808 1293.65,656.344 1299.53,660.12 1305.41,667.877 1311.29,679.195 1317.18,693.543 1323.06,710.344 1328.94,729.018 1334.82,749.025 1340.71,769.876 1346.59,791.142 1352.47,812.442 1358.35,833.427 1364.24,853.764 1370.12,873.128 1376,891.196 1381.88,907.662 1387.76,922.255 1393.65,934.765 1399.53,945.064 1405.41,953.133 1411.29,959.062 1417.18,963.045 1423.06,965.36 1428.94,966.332 1434.82,966.298 1440.71,965.571 1446.59,964.408 1452.47,962.997 1458.35,961.456 1464.24,959.839 1470.12,958.162 1476,956.42 1481.88,954.61 1487.76,952.737 1493.65,950.817 1499.53,948.867 1505.41,946.884 1511.29,944.822 1517.18,942.579 1523.06,939.979 1528.94,936.781 1534.82,932.688 1540.71,927.384 1546.59,920.58 1552.47,912.057 1558.35,901.538 1564.24,890.216 1570.12,874.089 1576,855.072 "
         id="polyline1814" />
      <polyline
         style="fill:none; stroke:rgb(0,0,0); stroke-width:1; stroke-linecap:butt; stroke-linejoin:miter; stroke-dasharray:0; opacity:1"
         points="76,318.421 1576,318.421 "
         id="polyline1818" />
      <polyline
         style="fill:none; stroke:rgb(204,0,0); stroke-width:1; stroke-linecap:butt; stroke-linejoin:miter; stroke-dasharray:0; opacity:1"
         points="76,499.5 81.8824,499.5 87.7647,499.5 93.6471,499.5 99.5294,499.5 105.412,499.5 111.294,499.5 117.176,499.5 123.059,499.5 128.941,499.5 134.824,499.5 140.706,499.5 146.588,499.5 152.471,499.5 158.353,499.5 164.235,499.5 170.118,499.5 176,499.5 181.882,499.5 187.765,499.5 193.647,499.5 199.529,499.5 205.412,499.5 211.294,499.5 217.176,499.5 223.059,499.5 228.941,499.5 234.824,499.5 240.706,499.5 246.588,499.5 252.471,499.5 258.353,499.5 264.235,499.5 270.118,499.5 276,499.5 281.882,499.5 287.765,499.5 293.647,499.5 299.529,499.5 305.412,499.5 311.294,499.5 317.176,499.5 323.059,499.5 328.941,499.5 334.824,499.5 340.706,499.5 346.588,499.5 352.471,499.5 358.353,499.5 364.235,497.388 370.118,367.7 376,76.4067 381.882,67.323 387.765,224.505 393.647,353.177 399.529,424.331 405.412,459.373 411.294,476.401 417.176,484.923 423.059,489.368 428.941,491.762 434.824,493.047 440.706,493.676 446.588,493.866 452.471,493.715 458.353,493.26 464.235,492.494 470.118,491.384 476,489.871 481.882,487.881 487.765,485.32 493.647,482.081 499.529,478.039 505.412,473.061 511.294,466.998 517.176,459.693 523.059,450.981 528.941,440.691 534.824,428.652 540.706,414.706 546.588,398.72 552.471,380.603 558.353,360.33 564.235,337.952 570.118,313.618 576,287.575 581.882,260.171 587.765,231.847 593.647,203.125 599.529,174.601 605.412,146.931 611.294,120.809 617.176,96.9489 623.059,76.0417 628.941,58.7203 634.824,45.5161 640.706,36.827 646.588,32.8999 652.471,33.8316 658.353,39.5859 664.235,50.0195 670.118,64.9097 676,83.977 681.882,106.897 687.765,133.302 693.647,162.768 699.529,194.794 705.412,228.779 711.294,264 717.176,299.595 723.059,334.586 728.941,367.914 734.824,398.532 740.706,425.506 746.588,448.143 752.471,466.093 758.353,479.406 764.235,488.521 770.118,494.179 776,497.287 781.882,498.747 787.765,499.304 793.647,499.465 799.529,499.496 805.412,499.5 811.294,499.5 817.176,499.5 823.059,499.5 828.941,499.5 834.824,499.5 840.706,499.5 846.588,499.5 852.471,499.5 858.353,499.5 864.235,499.5 870.118,499.5 876,499.5 881.882,499.5 887.765,499.5 893.647,499.5 899.529,499.5 905.412,499.5 911.294,499.5 917.176,499.5 923.059,499.5 928.941,499.5 934.824,499.5 940.706,499.5 946.588,499.5 952.471,499.5 958.353,499.5 964.235,499.5 970.118,499.5 976,499.5 981.882,499.5 987.765,499.5 993.647,499.5 999.529,499.5 1005.41,499.5 1011.29,499.5 1017.18,499.5 1023.06,499.5 1028.94,499.5 1034.82,499.5 1040.71,499.5 1046.59,499.5 1052.47,499.5 1058.35,499.5 1064.24,499.5 1070.12,499.5 1076,499.5 1081.88,499.5 1087.76,499.5 1093.65,499.5 1099.53,499.5 1105.41,499.5 1111.29,499.5 1117.18,499.5 1123.06,499.5 1128.94,499.5 1134.82,499.5 1140.71,499.5 1146.59,499.5 1152.47,499.5 1158.35,499.5 1164.24,499.5 1170.12,499.5 1176,499.5 1181.88,499.5 1187.76,499.5 1193.65,499.5 1199.53,499.5 1205.41,499.5 1211.29,499.5 1217.18,499.5 1223.06,499.5 1228.94,499.5 1234.82,499.5 1240.71,499.5 1246.59,499.5 1252.47,499.5 1258.35,499.5 1264.24,499.5 1270.12,499.5 1276,499.5 1281.88,499.5 1287.76,499.5 1293.65,499.5 1299.53,499.5 1305.41,499.5 1311.29,499.5 1317.18,499.5 1323.06,499.5 1328.94,499.5 1334.82,499.5 1340.71,499.5 1346.59,499.5 1352.47,499.5 1358.35,499.5 1364.24,499.5 1370.12,499.5 1376,499.5 1381.88,499.5 1387.76,499.5 1393.65,499.5 1399.53,499.5 1405.41,499.5 1411.29,499.5 1417.18,499.5 1423.06,499.5 1428.94,499.5 1434.82,499.5 1440.71,499.5 1446.59,499.5 1452.47,499.5 1458.35,499.5 1464.24,499.5 1470.12,499.5 1476,499.5 1481.88,499.5 1487.76,499.5 1493.65,499.5 1499.53,499.5 1505.41,499.5 1511.29,499.5 1517.18,499.5 1523.06,499.5 1528.94,499.5 1534.82,499.5 1540.71,499.5 1546.59,499.5 1552.47,499.5 1558.35,499.5 1564.24,499.5 1570.12,499.5 1576,499.5 "
         id="polyline1820" />
      <clipPath
         id="cliprect1">
        <rect
           x="0"
           y="0"
           width="1618"
           height="1017"
           id="rect1822" />
      </clipPath>
    </g>
    <g
       clip-path="url(#cliprect1)"
       id="g1827" />
  </g>
</svg>
