<?xml version="1.0" encoding="UTF-8" standalone="no"?>
<svg
   xmlns:dc="http://purl.org/dc/elements/1.1/"
   xmlns:cc="http://creativecommons.org/ns#"
   xmlns:rdf="http://www.w3.org/1999/02/22-rdf-syntax-ns#"
   xmlns:svg="http://www.w3.org/2000/svg"
   xmlns="http://www.w3.org/2000/svg"
   xmlns:sodipodi="http://sodipodi.sourceforge.net/DTD/sodipodi-0.dtd"
   xmlns:inkscape="http://www.inkscape.org/namespaces/inkscape"
   width="1080.4722pt"
   height="666.5224pt"
   viewBox="0 0 1800.785 1110.8706"
   version="1.1"
   id="svg441"
   sodipodi:docname="r_g_nucleon.svg"
   inkscape:version="0.92.1 r15371">
  <metadata
     id="metadata447">
    <rdf:RDF>
      <cc:Work
         rdf:about="">
        <dc:format>image/svg+xml</dc:format>
        <dc:type
           rdf:resource="http://purl.org/dc/dcmitype/StillImage" />
      </cc:Work>
    </rdf:RDF>
  </metadata>
  <defs
     id="defs445" />
  <sodipodi:namedview
     pagecolor="#ffffff"
     bordercolor="#666666"
     borderopacity="1"
     objecttolerance="10"
     gridtolerance="10"
     guidetolerance="10"
     inkscape:pageopacity="0"
     inkscape:pageshadow="2"
     inkscape:window-width="1360"
     inkscape:window-height="715"
     id="namedview443"
     showgrid="false"
     inkscape:zoom="0.58013765"
     inkscape:cx="745.65493"
     inkscape:cy="485.85735"
     inkscape:window-x="-8"
     inkscape:window-y="-8"
     inkscape:window-maximized="1"
     inkscape:current-layer="g4495" />
  <g
     id="g439"
     transform="translate(-8.1244713,85.573991)">
    <pattern
       id="pattern0"
       patternUnits="userSpaceOnUse"
       x="0"
       y="0"
       width="7"
       height="7">
      <line
         x1="0"
         y1="3"
         x2="7"
         y2="3"
         style="fill:none; stroke:rgb(0,0,0); opacity:1"
         id="line2" />
    </pattern>
    <g
       clip-path="url(#cliprect0)"
       id="g435">
      <g
         id="g4495"
         transform="matrix(0.16666665,0,0,-0.16666665,13.265005,545.56828)">
        <path
           d="M 477.5277,276.40972 H 267.4257"
           style="fill:none;stroke:#000000;stroke-width:20;stroke-linecap:butt;stroke-linejoin:miter;stroke-miterlimit:4;stroke-dasharray:none;stroke-opacity:1"
           id="path4525-1-0-2"
           inkscape:connector-curvature="0" />
        <path
           style="fill:none;stroke:#000000;stroke-width:19.60477066;stroke-linecap:butt;stroke-linejoin:miter;stroke-miterlimit:4;stroke-dasharray:none;stroke-opacity:1"
           d="M 9674.1923,276.40972 H 376.41001"
           id="path5658-2"
           inkscape:connector-curvature="0" />
        <path
           d="m 444.688,3255.7498 -137.27,0.46 68.992,140.24 z"
           style="fill:#000000;fill-opacity:1;fill-rule:nonzero;stroke:none"
           id="path4507"
           inkscape:connector-curvature="0" />
        <path
           d="m 9672.0533,208.12919 0.46,137.261 140.2,-68.98 z"
           style="fill:#000000;fill-opacity:1;fill-rule:nonzero;stroke:none"
           id="path4517"
           inkscape:connector-curvature="0" />
        <text
           xml:space="preserve"
           style="font-style:normal;font-variant:normal;font-weight:normal;font-stretch:normal;font-size:320px;line-height:1.25;font-family:Arial;-inkscape-font-specification:'Arial, Normal';font-variant-ligatures:normal;font-variant-caps:normal;font-variant-numeric:normal;font-feature-settings:normal;text-align:start;letter-spacing:0px;word-spacing:0px;writing-mode:lr-tb;text-anchor:start;fill:#000000;fill-opacity:1;stroke:none;stroke-width:7.5"
           x="19.296806"
           y="-164.56311"
           id="text6467"
           transform="scale(1,-1)"><tspan
             sodipodi:role="line"
             id="tspan6465"
             x="19.296806"
             y="-164.56311"
             style="font-style:normal;font-variant:normal;font-weight:normal;font-stretch:normal;font-size:320px;font-family:Arial;-inkscape-font-specification:'Arial, Normal';font-variant-ligatures:normal;font-variant-caps:normal;font-variant-numeric:normal;font-feature-settings:normal;text-align:start;writing-mode:lr-tb;text-anchor:start;stroke-width:7.5">0</tspan></text>
        <text
           xml:space="preserve"
           style="font-style:normal;font-variant:normal;font-weight:normal;font-stretch:normal;font-size:560px;line-height:1.25;font-family:Vijaya;-inkscape-font-specification:'Vijaya, Normal';font-variant-ligatures:normal;font-variant-caps:normal;font-variant-numeric:normal;font-feature-settings:normal;text-align:start;letter-spacing:0px;word-spacing:0px;writing-mode:lr-tb;text-anchor:start;fill:#000000;fill-opacity:1;stroke:none;stroke-width:7.5"
           x="9749.3174"
           y="25.07062"
           id="text6471"
           transform="scale(1,-1)"><tspan
             sodipodi:role="line"
             id="tspan6469"
             x="9749.3174"
             y="25.07062"
             style="font-style:normal;font-variant:normal;font-weight:normal;font-stretch:normal;font-size:560px;font-family:Vijaya;-inkscape-font-specification:'Vijaya, Normal';font-variant-ligatures:normal;font-variant-caps:normal;font-variant-numeric:normal;font-feature-settings:normal;text-align:start;writing-mode:lr-tb;text-anchor:start;stroke-width:7.5">v</tspan></text>
        <path
           style="fill:none;stroke:#000000;stroke-width:20;stroke-linecap:butt;stroke-linejoin:miter;stroke-miterlimit:4;stroke-dasharray:none;stroke-opacity:1"
           d="m 376.41,3267.4719 v -6017.167"
           id="path5658"
           inkscape:connector-curvature="0" />
        <path
           d="m 308.13201,-2737.6704 137.27,-0.46 -68.992,-140.24 z"
           style="fill:#000000;fill-opacity:1;fill-rule:nonzero;stroke:none;stroke-width:0.99999994"
           id="path4507-0"
           inkscape:connector-curvature="0" />
        <text
           xml:space="preserve"
           style="font-style:normal;font-variant:normal;font-weight:normal;font-stretch:normal;font-size:320px;line-height:1.25;font-family:Arial;-inkscape-font-specification:'Arial, Normal';font-variant-ligatures:normal;font-variant-caps:normal;font-variant-numeric:normal;font-feature-settings:normal;text-align:start;letter-spacing:0px;word-spacing:0px;writing-mode:lr-tb;text-anchor:start;fill:#000000;fill-opacity:1;stroke:none;stroke-width:7.5"
           x="-41.004364"
           y="2634.1108"
           id="text6463-6"
           transform="scale(1,-1)"><tspan
             sodipodi:role="line"
             id="tspan6461-6"
             x="-41.004364"
             y="2634.1108"
             style="font-style:normal;font-variant:normal;font-weight:normal;font-stretch:normal;font-size:320px;font-family:Arial;-inkscape-font-specification:'Arial, Normal';font-variant-ligatures:normal;font-variant-caps:normal;font-variant-numeric:normal;font-feature-settings:normal;text-align:start;writing-mode:lr-tb;text-anchor:start;stroke-width:7.5">-1</tspan></text>
        <path
           d="m 9674.1923,2338.0146 h 190 v 190 h -190 z"
           style="fill:#cc0000;fill-opacity:1;fill-rule:nonzero;stroke:none;stroke-width:0.99999994"
           id="path5774-9"
           inkscape:connector-curvature="0" />
        <path
           d="m 9674.1923,2908.0146 h 190 v 190 h -190 z"
           style="fill:#00cc00;fill-opacity:1;fill-rule:nonzero;stroke:none;stroke-width:0.99999994"
           id="path5774-2"
           inkscape:connector-curvature="0" />
        <text
           xml:space="preserve"
           style="font-style:normal;font-variant:normal;font-weight:normal;font-stretch:normal;font-size:560px;line-height:1.25;font-family:Vijaya;-inkscape-font-specification:'Vijaya, Normal';font-variant-ligatures:normal;font-variant-caps:normal;font-variant-numeric:normal;font-feature-settings:normal;text-align:start;letter-spacing:0px;word-spacing:0px;writing-mode:lr-tb;text-anchor:start;fill:#000000;fill-opacity:1;stroke:none;stroke-width:7.5"
           x="9993.4414"
           y="-3473.7681"
           id="text6422"
           transform="scale(1,-1)"><tspan
             sodipodi:role="line"
             id="tspan6420"
             x="9993.4414"
             y="-3473.7681"
             style="font-style:normal;font-variant:normal;font-weight:normal;font-stretch:normal;font-size:560px;font-family:Vijaya;-inkscape-font-specification:'Vijaya, Normal';font-variant-ligatures:normal;font-variant-caps:normal;font-variant-numeric:normal;font-feature-settings:normal;text-align:start;writing-mode:lr-tb;text-anchor:start;stroke-width:7.5">g(v)</tspan></text>
        <text
           xml:space="preserve"
           style="font-style:normal;font-variant:normal;font-weight:normal;font-stretch:normal;font-size:560px;line-height:1.25;font-family:Vijaya;-inkscape-font-specification:'Vijaya, Normal';font-variant-ligatures:normal;font-variant-caps:normal;font-variant-numeric:normal;font-feature-settings:normal;text-align:start;letter-spacing:0px;word-spacing:0px;writing-mode:lr-tb;text-anchor:start;fill:#000000;fill-opacity:1;stroke:none;stroke-width:7.5"
           x="9994.9395"
           y="-2905.6067"
           id="text6426"
           transform="scale(1,-1)"><tspan
             sodipodi:role="line"
             id="tspan6424"
             x="9994.9395"
             y="-2905.6067"
             style="font-style:normal;font-variant:normal;font-weight:normal;font-stretch:normal;font-size:560px;font-family:Vijaya;-inkscape-font-specification:'Vijaya, Normal';font-variant-ligatures:normal;font-variant-caps:normal;font-variant-numeric:normal;font-feature-settings:normal;text-align:start;writing-mode:lr-tb;text-anchor:start;stroke-width:7.5">h(v)</tspan></text>
        <text
           xml:space="preserve"
           style="font-style:normal;font-variant:normal;font-weight:normal;font-stretch:normal;font-size:560px;line-height:1.25;font-family:Vijaya;-inkscape-font-specification:'Vijaya, Normal';font-variant-ligatures:normal;font-variant-caps:normal;font-variant-numeric:normal;font-feature-settings:normal;text-align:start;letter-spacing:0px;word-spacing:0px;writing-mode:lr-tb;text-anchor:start;fill:#000000;fill-opacity:1;stroke:none;stroke-width:7.5"
           x="9992.7422"
           y="-2331.4438"
           id="text6430"
           transform="scale(1,-1)"><tspan
             sodipodi:role="line"
             id="tspan6428"
             x="9992.7422"
             y="-2331.4438"
             style="font-style:normal;font-variant:normal;font-weight:normal;font-stretch:normal;font-size:560px;font-family:Vijaya;-inkscape-font-specification:'Vijaya, Normal';font-variant-ligatures:normal;font-variant-caps:normal;font-variant-numeric:normal;font-feature-settings:normal;text-align:start;writing-mode:lr-tb;text-anchor:start;stroke-width:7.5">a(v)</tspan></text>
        <path
           d="M 9366.0972,379.92718 V 169.8252"
           style="fill:none;stroke:#000000;stroke-width:20;stroke-linecap:butt;stroke-linejoin:miter;stroke-miterlimit:4;stroke-dasharray:none;stroke-opacity:1"
           id="path4525-1"
           inkscape:connector-curvature="0" />
        <path
           d="m 480.44018,-2524.5825 h -210.102"
           style="fill:none;stroke:#000000;stroke-width:20;stroke-linecap:butt;stroke-linejoin:miter;stroke-miterlimit:4;stroke-dasharray:none;stroke-opacity:1"
           id="path4525-1-0"
           inkscape:connector-curvature="0" />
        <text
           xml:space="preserve"
           style="font-style:normal;font-variant:normal;font-weight:normal;font-stretch:normal;font-size:320px;line-height:1.25;font-family:Arial;-inkscape-font-specification:'Arial, Normal';font-variant-ligatures:normal;font-variant-caps:normal;font-variant-numeric:normal;font-feature-settings:normal;text-align:start;letter-spacing:0px;word-spacing:0px;writing-mode:lr-tb;text-anchor:start;fill:#000000;fill-opacity:1;stroke:none;stroke-width:7.5"
           x="64.603706"
           y="-2985.6738"
           id="text6463-6-2"
           transform="scale(1,-1)"><tspan
             sodipodi:role="line"
             id="tspan6461-6-6"
             x="64.603706"
             y="-2985.6738"
             style="font-style:normal;font-variant:normal;font-weight:normal;font-stretch:normal;font-size:320px;font-family:Arial;-inkscape-font-specification:'Arial, Normal';font-variant-ligatures:normal;font-variant-caps:normal;font-variant-numeric:normal;font-feature-settings:normal;text-align:start;writing-mode:lr-tb;text-anchor:start;stroke-width:7.5">1</tspan></text>
        <path
           d="m 485.73577,3098.0145 h -210.102"
           style="fill:none;stroke:#000000;stroke-width:20;stroke-linecap:butt;stroke-linejoin:miter;stroke-miterlimit:4;stroke-dasharray:none;stroke-opacity:1"
           id="path4525-1-0-3"
           inkscape:connector-curvature="0" />
        <path
           d="m 9674.1923,3478.0146 h 190 v 190 h -190 z"
           style="fill:#0000cc;fill-opacity:1;fill-rule:nonzero;stroke:none;stroke-width:0.99999994"
           id="path5774-0-6"
           inkscape:connector-curvature="0" />
        <g
           id="g4618"
           transform="translate(724.53323,3170.0901)">
          <text
             transform="scale(1,-1)"
             id="text5022"
             y="1678.3165"
             x="8999.3662"
             style="font-style:normal;font-variant:normal;font-weight:normal;font-stretch:normal;font-size:360px;line-height:1.25;font-family:Vijaya;-inkscape-font-specification:'Vijaya, Normal';font-variant-ligatures:normal;font-variant-caps:normal;font-variant-numeric:normal;font-feature-settings:normal;text-align:start;letter-spacing:0px;word-spacing:0px;writing-mode:lr-tb;text-anchor:start;fill:#000000;fill-opacity:1;stroke:none;stroke-width:7.5"
             xml:space="preserve"><tspan
               style="stroke-width:7.5"
               y="1678.3165"
               x="8999.3662"
               id="tspan5020"
               sodipodi:role="line">thresh</tspan></text>
          <text
             transform="scale(1,-1)"
             id="text5026"
             y="1573.0807"
             x="8775.7422"
             style="font-style:normal;font-variant:normal;font-weight:normal;font-stretch:normal;font-size:360px;line-height:1.25;font-family:Vijaya;-inkscape-font-specification:'Vijaya, Normal';font-variant-ligatures:normal;font-variant-caps:normal;font-variant-numeric:normal;font-feature-settings:normal;text-align:start;letter-spacing:0px;word-spacing:0px;writing-mode:lr-tb;text-anchor:start;fill:#000000;fill-opacity:1;stroke:none;stroke-width:7.5"
             xml:space="preserve"><tspan
               style="font-size:479.99996948px;stroke-width:7.5"
               y="1573.0807"
               x="8775.7422"
               id="tspan5024"
               sodipodi:role="line">g</tspan></text>
        </g>
        <text
           xml:space="preserve"
           style="font-style:normal;font-variant:normal;font-weight:normal;font-stretch:normal;font-size:320px;line-height:1.25;font-family:Arial;-inkscape-font-specification:'Arial, Normal';font-variant-ligatures:normal;font-variant-caps:normal;font-variant-numeric:normal;font-feature-settings:normal;text-align:start;letter-spacing:0px;word-spacing:0px;writing-mode:lr-tb;text-anchor:start;fill:#000000;fill-opacity:1;stroke:none;stroke-width:7.5"
           x="9105.5752"
           y="149.1613"
           id="text5688"
           transform="scale(1,-1)"><tspan
             sodipodi:role="line"
             id="tspan5686"
             x="9105.5752"
             y="149.1613"
             style="font-style:normal;font-variant:normal;font-weight:normal;font-stretch:normal;font-size:320px;font-family:Arial;-inkscape-font-specification:'Arial, Normal';font-variant-ligatures:normal;font-variant-caps:normal;font-variant-numeric:normal;font-feature-settings:normal;text-align:start;writing-mode:lr-tb;text-anchor:start;stroke-width:7.5">255</tspan></text>
      </g>
      <polyline
         style="opacity:1;fill:none;stroke:#0000cc;stroke-width:5;stroke-linecap:butt;stroke-linejoin:miter;stroke-miterlimit:4;stroke-dasharray:none"
         points="76,496.997 81.8824,488.389 87.7647,479.92 93.6471,471.687 99.5294,463.5 105.412,455.424 111.294,447.456 117.176,439.596 123.059,431.841 128.941,424.189 134.824,416.638 140.706,409.189 146.588,401.843 152.471,394.607 158.353,387.485 164.235,380.483 170.118,373.605 176,366.856 181.882,360.233 187.765,353.735 193.647,347.356 199.529,341.089 205.412,334.926 211.294,328.858 217.176,322.876 223.059,316.974 228.941,311.145 234.824,305.385 240.706,299.691 246.588,294.064 252.471,288.504 258.353,283.013 264.235,277.595 270.118,272.254 276,266.998 281.882,261.834 287.765,256.773 293.647,251.827 299.529,247.009 305.412,242.332 311.294,237.806 317.176,233.437 323.059,229.225 328.941,225.161 334.824,221.227 340.706,217.4 346.588,213.648 352.471,209.937 358.353,206.233 364.235,202.503 370.118,198.723 376,194.874 381.882,190.947 387.765,186.941 393.647,182.868 399.529,178.744 405.412,174.596 411.294,170.453 417.176,166.345 423.059,162.301 428.941,158.345 434.824,154.493 440.706,150.753 446.588,147.124 452.471,143.601 458.353,140.171 464.235,136.824 470.118,133.55 476,130.343 481.882,127.199 487.765,124.119 493.647,121.101 499.529,118.141 505.412,115.233 511.294,112.363 517.176,109.516 523.059,106.674 528.941,103.819 534.824,100.938 540.706,98.0231 546.588,95.0758 552.471,92.1054 558.353,89.1302 564.235,86.1764 570.118,83.2761 576,80.4645 581.882,77.7764 587.765,75.2422 593.647,72.8837 599.529,70.7108 605.412,68.7191 611.294,66.8902 617.176,65.1934 623.059,63.5899 628.941,62.0384 634.824,60.5014 640.706,58.9513 646.588,57.3739 652.471,55.7706 658.353,54.1571 664.235,52.5605 670.118,51.0134 676,49.5492 681.882,48.1962 687.765,46.9739 693.647,45.8915 699.529,44.9474 705.412,44.1312 711.294,43.4249 717.176,42.8063 723.059,42.2506 728.941,41.7331 734.824,41.2305 740.706,40.7234 746.588,40.1976 752.471,39.646 758.353,39.0689 764.235,38.4739 770.118,37.8735 776,37.2832 781.882,36.7171 787.765,36.1853 793.647,35.6921 799.529,35.2354 805.412,34.8093 811.294,34.4069 817.176,34.0244 823.059,33.664 828.941,33.3355 834.824,33.0546 840.706,32.84 846.588,32.7081 852.471,32.6683 858.353,32.7194 864.235,32.8473 870.118,33.0272 876,33.2267 881.882,33.4117 887.765,33.5528 893.647,33.631 899.529,33.6415 905.412,33.5964 911.294,33.5239 917.176,33.4669 923.059,33.4798 928.941,33.6251 934.824,33.9699 940.706,34.5821 946.588,35.5259 952.471,36.8572 958.353,38.617 964.235,40.8256 970.118,43.4771 976,46.5363 981.882,49.9397 987.765,53.6007 993.647,57.4201 999.529,61.2994 1005.41,65.1547 1011.29,68.929 1017.18,72.599 1023.06,76.1754 1028.94,79.6966 1034.82,83.2157 1040.71,86.7867 1046.59,90.4502 1052.47,94.2246 1058.35,98.1045 1064.24,102.066 1070.12,106.08 1076,110.125 1081.88,114.206 1087.76,118.363 1093.65,122.672 1099.53,127.244 1105.41,132.209 1111.29,137.705 1117.18,143.853 1123.06,150.747 1128.94,158.44 1134.82,166.938 1140.71,176.203 1146.59,186.149 1152.47,196.65 1158.35,207.537 1164.24,218.595 1170.12,229.557 1176,240.097 1181.88,249.823 1187.76,258.283 1193.65,264.98 1199.53,269.399 1205.41,271.053 1211.29,269.534 1217.18,264.57 1223.06,256.073 1228.94,244.176 1234.82,229.24 1240.71,211.844 1246.59,192.742 1252.47,172.806 1258.35,152.948 1264.24,134.048 1270.12,116.877 1276,102.042 1281.88,89.943 1287.76,80.7535 1293.65,74.4233 1299.53,70.7007 1305.41,69.1705 1311.29,69.304 1317.18,70.5141 1323.06,72.2105 1328.94,73.8501 1334.82,74.9792 1340.71,75.2646 1346.59,74.5128 1352.47,72.6776 1358.35,69.8564 1364.24,66.2757 1370.12,62.2685 1376,58.242 1381.88,54.6407 1387.76,51.9045 1393.65,50.4261 1399.53,50.5121 1405.41,52.3511 1411.29,55.9936 1417.18,61.3469 1423.06,68.1852 1428.94,76.1752 1434.82,84.9139 1440.71,93.9733 1446.59,102.947 1452.47,111.495 1458.35,119.374 1464.24,126.466 1470.12,132.786 1476,138.482 1481.88,143.818 1487.76,149.148 1493.65,154.889 1499.53,161.476 1505.41,169.326 1511.29,178.8 1517.18,190.17 1523.06,203.597 1528.94,219.125 1534.82,236.676 1540.71,256.076 1546.59,277.068 1552.47,299.345 1558.35,322.612 1564.24,346.329 1570.12,371.06 1576,396.185 "
         id="polyline422" />
      <polyline
         style="opacity:1;fill:none;stroke:#00cc00;stroke-width:5;stroke-linecap:butt;stroke-linejoin:miter;stroke-miterlimit:4;stroke-dasharray:none"
         points="76,493.359 81.8824,483.885 87.7647,474.672 93.6471,465.944 99.5294,457.338 105.412,449.015 111.294,441.001 117.176,433.329 123.059,426.023 128.941,419.099 134.824,412.568 140.706,406.432 146.588,400.691 152.471,395.336 158.353,390.355 164.235,385.73 170.118,381.439 176,377.457 181.882,373.755 187.765,370.302 193.647,367.069 199.529,364.029 205.412,361.157 211.294,358.432 217.176,355.839 223.059,353.366 228.941,351.007 234.824,348.756 240.706,346.61 246.588,344.566 252.471,342.621 258.353,340.77 264.235,339.009 270.118,337.333 276,335.739 281.882,334.227 287.765,332.801 293.647,331.472 299.529,330.253 305.412,329.161 311.294,328.217 317.176,327.439 323.059,326.841 328.941,326.43 334.824,326.203 340.706,326.151 346.588,326.251 352.471,326.479 358.353,326.804 364.235,327.195 370.118,327.625 376,328.075 381.882,328.531 387.765,328.99 393.647,329.458 399.529,329.949 405.412,330.481 411.294,331.077 417.176,331.759 423.059,332.546 428.941,333.45 434.824,334.476 440.706,335.618 446.588,336.865 452.471,338.2 458.353,339.601 464.235,341.045 470.118,342.515 476,343.993 481.882,345.472 487.765,346.946 493.647,348.418 499.529,349.893 505.412,351.381 511.294,352.899 517.176,354.461 523.059,356.089 528.941,357.801 534.824,359.616 540.706,361.549 546.588,363.611 552.471,365.803 558.353,368.122 564.235,370.56 570.118,373.101 576,375.734 581.882,378.445 587.765,381.229 593.647,384.082 599.529,387.01 605.412,390.018 611.294,393.115 617.176,396.307 623.059,399.596 628.941,402.976 634.824,406.436 640.706,409.958 646.588,413.516 652.471,417.083 658.353,420.628 664.235,424.122 670.118,427.539 676,430.864 681.882,434.092 687.765,437.23 693.647,440.298 699.529,443.327 705.412,446.354 711.294,449.414 717.176,452.54 723.059,455.751 728.941,459.055 734.824,462.445 740.706,465.903 746.588,469.406 752.471,472.928 758.353,476.449 764.235,479.955 770.118,483.444 776,486.923 781.882,490.411 787.765,493.931 793.647,497.512 799.529,501.182 805.412,504.971 811.294,508.9 817.176,512.988 823.059,517.242 828.941,521.662 834.824,526.236 840.706,530.944 846.588,535.76 852.471,540.653 858.353,545.596 864.235,550.566 870.118,555.548 876,560.538 881.882,565.541 887.765,570.566 893.647,575.622 899.529,580.716 905.412,585.849 911.294,591.015 917.176,596.207 923.059,601.419 928.941,606.65 934.824,611.906 940.706,617.204 946.588,622.564 952.471,628.009 958.353,633.558 964.235,639.217 970.118,644.983 976,650.834 981.882,656.742 987.765,662.667 993.647,668.572 999.529,674.428 1005.41,680.218 1011.29,685.941 1017.18,691.615 1023.06,697.272 1028.94,702.953 1034.82,708.703 1040.71,714.556 1046.59,720.537 1052.47,726.648 1058.35,732.875 1064.24,739.184 1070.12,745.533 1076,751.872 1081.88,758.159 1087.76,764.355 1093.65,770.433 1099.53,776.37 1105.41,782.146 1111.29,787.731 1117.18,793.078 1123.06,798.113 1128.94,802.729 1134.82,806.783 1140.71,810.096 1146.59,812.463 1152.47,813.661 1158.35,813.473 1164.24,811.708 1170.12,808.227 1176,802.973 1181.88,795.993 1187.76,787.451 1193.65,777.639 1199.53,766.957 1205.41,755.896 1211.29,744.997 1217.18,734.799 1223.06,725.797 1228.94,718.384 1234.82,712.819 1240.71,709.196 1246.59,707.44 1252.47,707.313 1258.35,708.442 1264.24,710.358 1270.12,712.55 1276,714.518 1281.88,715.835 1287.76,716.2 1293.65,715.475 1299.53,713.712 1305.41,711.158 1311.29,708.239 1317.18,705.523 1323.06,703.668 1328.94,703.356 1334.82,705.223 1340.71,709.787 1346.59,717.385 1352.47,728.123 1358.35,741.841 1364.24,758.11 1370.12,776.244 1376,795.351 1381.88,814.408 1387.76,832.355 1393.65,848.202 1399.53,861.143 1405.41,870.642 1411.29,876.512 1417.18,878.934 1423.06,878.453 1428.94,875.916 1434.82,872.38 1440.71,868.997 1446.59,866.88 1452.47,866.978 1458.35,869.974 1464.24,876.197 1470.12,885.583 1476,897.67 1481.88,911.628 1487.76,926.337 1493.65,940.486 1499.53,952.7 1505.41,961.68 1511.29,966.332 1517.18,965.878 1523.06,959.934 1528.94,948.539 1534.82,932.133 1540.71,911.488 1546.59,887.601 1552.47,861.561 1558.35,834.494 1564.24,806.86 1570.12,780.812 1576,756.369 "
         id="polyline424" />
      <polyline
         style="opacity:1;fill:none;stroke:#000000;stroke-width:3.33333325;stroke-linecap:butt;stroke-linejoin:miter;stroke-miterlimit:4;stroke-dasharray:26.66666546, 26.66666546;stroke-dashoffset:0"
         points="76,270.323 1576,270.323 "
         id="polyline428" />
      <polyline
         style="opacity:1;fill:none;stroke:#cc0000;stroke-width:5;stroke-linecap:butt;stroke-linejoin:miter;stroke-miterlimit:4;stroke-dasharray:none"
         points="76,499.5 81.8824,499.5 87.7647,499.5 93.6471,499.5 99.5294,499.5 105.412,499.5 111.294,499.5 117.176,499.5 123.059,499.5 128.941,499.5 134.824,499.5 140.706,499.5 146.588,499.5 152.471,499.5 158.353,499.5 164.235,499.5 170.118,499.5 176,499.5 181.882,499.5 187.765,499.5 193.647,499.5 199.529,499.5 205.412,499.5 211.294,499.5 217.176,499.5 223.059,499.5 228.941,499.5 234.824,499.5 240.706,499.5 246.588,499.5 252.471,499.5 258.353,499.5 264.235,499.5 270.118,499.5 276,499.5 281.882,499.5 287.765,499.5 293.647,499.5 299.529,499.5 305.412,499.5 311.294,499.5 317.176,499.5 323.059,499.5 328.941,499.5 334.824,499.5 340.706,499.5 346.588,499.5 352.471,499.5 358.353,499.5 364.235,499.5 370.118,499.5 376,499.5 381.882,499.5 387.765,499.5 393.647,499.5 399.529,499.5 405.412,499.5 411.294,499.5 417.176,499.5 423.059,499.5 428.941,499.5 434.824,499.5 440.706,499.5 446.588,499.5 452.471,499.5 458.353,499.5 464.235,499.5 470.118,499.5 476,499.5 481.882,499.5 487.765,499.5 493.647,499.5 499.529,499.5 505.412,499.5 511.294,499.5 517.176,499.5 523.059,499.5 528.941,499.5 534.824,499.5 540.706,499.5 546.588,499.5 552.471,499.5 558.353,499.5 564.235,499.5 570.118,499.5 576,499.5 581.882,499.5 587.765,499.5 593.647,499.5 599.529,499.5 605.412,499.5 611.294,499.5 617.176,499.5 623.059,499.5 628.941,499.5 634.824,499.5 640.706,499.5 646.588,499.5 652.471,499.5 658.353,499.5 664.235,499.5 670.118,499.5 676,499.5 681.882,499.5 687.765,499.5 693.647,499.5 699.529,499.5 705.412,499.5 711.294,499.5 717.176,499.499 723.059,499.496 728.941,499.476 734.824,499.38 740.706,498.963 746.588,497.401 752.471,492.454 758.353,479.297 764.235,450.098 770.118,396.154 776,313.544 781.882,210.171 787.765,109.097 793.647,43.1442 799.529,40.1626 805.412,105.856 811.294,216.849 817.176,332.781 823.059,420.475 828.941,470.062 834.824,491.058 840.706,497.668 846.588,499.203 852.471,499.464 858.353,499.497 864.235,499.5 870.118,499.5 876,499.5 881.882,499.5 887.765,499.5 893.647,499.5 899.529,499.5 905.412,499.5 911.294,499.5 917.176,499.5 923.059,499.5 928.941,499.5 934.824,499.5 940.706,499.5 946.588,499.5 952.471,499.5 958.353,499.5 964.235,499.5 970.118,499.5 976,499.5 981.882,499.5 987.765,499.5 993.647,499.5 999.529,499.5 1005.41,499.5 1011.29,499.5 1017.18,499.5 1023.06,499.5 1028.94,499.5 1034.82,499.5 1040.71,499.5 1046.59,499.5 1052.47,499.5 1058.35,499.5 1064.24,499.5 1070.12,499.5 1076,499.5 1081.88,499.5 1087.76,499.5 1093.65,499.5 1099.53,499.5 1105.41,499.5 1111.29,499.5 1117.18,499.5 1123.06,499.5 1128.94,499.5 1134.82,499.5 1140.71,499.5 1146.59,499.5 1152.47,499.5 1158.35,499.5 1164.24,499.5 1170.12,499.5 1176,499.5 1181.88,499.5 1187.76,499.5 1193.65,499.5 1199.53,499.5 1205.41,499.5 1211.29,499.5 1217.18,499.5 1223.06,499.5 1228.94,499.5 1234.82,499.5 1240.71,499.5 1246.59,499.5 1252.47,499.5 1258.35,499.5 1264.24,499.5 1270.12,499.5 1276,499.5 1281.88,499.5 1287.76,499.5 1293.65,499.5 1299.53,499.5 1305.41,499.5 1311.29,499.5 1317.18,499.5 1323.06,499.5 1328.94,499.5 1334.82,499.5 1340.71,499.5 1346.59,499.5 1352.47,499.5 1358.35,499.5 1364.24,499.5 1370.12,499.5 1376,499.5 1381.88,499.5 1387.76,499.5 1393.65,499.5 1399.53,499.5 1405.41,499.5 1411.29,499.5 1417.18,499.5 1423.06,499.5 1428.94,499.5 1434.82,499.5 1440.71,499.5 1446.59,499.5 1452.47,499.5 1458.35,499.5 1464.24,499.5 1470.12,499.5 1476,499.5 1481.88,499.5 1487.76,499.5 1493.65,499.5 1499.53,499.5 1505.41,499.5 1511.29,499.5 1517.18,499.5 1523.06,499.5 1528.94,499.5 1534.82,499.5 1540.71,499.5 1546.59,499.5 1552.47,499.5 1558.35,499.5 1564.24,499.5 1570.12,499.5 1576,499.5 "
         id="polyline430" />
      <clipPath
         id="cliprect1">
        <rect
           x="0"
           y="0"
           width="1618"
           height="1017"
           id="rect432" />
      </clipPath>
    </g>
    <g
       clip-path="url(#cliprect1)"
       id="g437" />
  </g>
</svg>
