<?xml version="1.0" encoding="UTF-8" standalone="no"?>
<svg
   xmlns:dc="http://purl.org/dc/elements/1.1/"
   xmlns:cc="http://creativecommons.org/ns#"
   xmlns:rdf="http://www.w3.org/1999/02/22-rdf-syntax-ns#"
   xmlns:svg="http://www.w3.org/2000/svg"
   xmlns="http://www.w3.org/2000/svg"
   xmlns:sodipodi="http://sodipodi.sourceforge.net/DTD/sodipodi-0.dtd"
   xmlns:inkscape="http://www.inkscape.org/namespaces/inkscape"
   width="1080.4722pt"
   height="666.52264pt"
   viewBox="0 0 1800.785 1110.8711"
   version="1.1"
   id="svg443"
   sodipodi:docname="r_g_3sphere.svg"
   inkscape:version="0.92.1 r15371">
  <metadata
     id="metadata449">
    <rdf:RDF>
      <cc:Work
         rdf:about="">
        <dc:format>image/svg+xml</dc:format>
        <dc:type
           rdf:resource="http://purl.org/dc/dcmitype/StillImage" />
      </cc:Work>
    </rdf:RDF>
  </metadata>
  <defs
     id="defs447" />
  <sodipodi:namedview
     pagecolor="#ffffff"
     bordercolor="#666666"
     borderopacity="1"
     objecttolerance="10"
     gridtolerance="10"
     guidetolerance="10"
     inkscape:pageopacity="0"
     inkscape:pageshadow="2"
     inkscape:window-width="1360"
     inkscape:window-height="715"
     id="namedview445"
     showgrid="false"
     inkscape:zoom="0.29006882"
     inkscape:cx="304.07718"
     inkscape:cy="310.61752"
     inkscape:window-x="-8"
     inkscape:window-y="-8"
     inkscape:window-maximized="1"
     inkscape:current-layer="g441" />
  <g
     id="g441"
     transform="translate(184.313,-418.90437)">
    <pattern
       id="pattern0"
       patternUnits="userSpaceOnUse"
       x="0"
       y="0"
       width="7"
       height="7">
      <line
         x1="0"
         y1="3"
         x2="7"
         y2="3"
         style="fill:none; stroke:rgb(0,0,0); opacity:1"
         id="line2" />
    </pattern>
    <g
       clip-path="url(#cliprect1)"
       id="g439" />
    <path
       d="M -99.584521,1003.9784 H -134.60152"
       style="fill:none;stroke:#000000;stroke-width:3.33333302;stroke-linecap:butt;stroke-linejoin:miter;stroke-miterlimit:4;stroke-dasharray:none;stroke-opacity:1"
       id="path4525-1-0-2"
       inkscape:connector-curvature="0" />
    <path
       style="fill:none;stroke:#000000;stroke-width:3.26746154;stroke-linecap:butt;stroke-linejoin:miter;stroke-miterlimit:4;stroke-dasharray:none;stroke-opacity:1"
       d="M 1433.1929,1003.9784 H -116.43747"
       id="path5658-2"
       inkscape:connector-curvature="0" />
    <path
       d="m -105.0578,507.42173 -22.87834,-0.0767 11.49867,-23.37333 z"
       style="fill:#000000;fill-opacity:1;fill-rule:nonzero;stroke:none;stroke-width:0.16666664"
       id="path4507"
       inkscape:connector-curvature="0" />
    <path
       d="m 1432.8364,1015.3585 0.076,-22.87687 23.3666,11.49667 z"
       style="fill:#000000;fill-opacity:1;fill-rule:nonzero;stroke:none;stroke-width:0.16666664"
       id="path4517"
       inkscape:connector-curvature="0" />
    <text
       xml:space="preserve"
       style="font-style:normal;font-variant:normal;font-weight:normal;font-stretch:normal;font-size:53.33332825px;line-height:1.25;font-family:Arial;-inkscape-font-specification:'Arial, Normal';font-variant-ligatures:normal;font-variant-caps:normal;font-variant-numeric:normal;font-feature-settings:normal;text-align:start;letter-spacing:0px;word-spacing:0px;writing-mode:lr-tb;text-anchor:start;fill:#000000;fill-opacity:1;stroke:none;stroke-width:1.25"
       x="-175.95633"
       y="1022.6194"
       id="text6467"><tspan
         sodipodi:role="line"
         id="tspan6465"
         x="-175.95633"
         y="1022.6194"
         style="font-style:normal;font-variant:normal;font-weight:normal;font-stretch:normal;font-size:53.33332825px;font-family:Arial;-inkscape-font-specification:'Arial, Normal';font-variant-ligatures:normal;font-variant-caps:normal;font-variant-numeric:normal;font-feature-settings:normal;text-align:start;writing-mode:lr-tb;text-anchor:start;stroke-width:1.25">0</tspan></text>
    <text
       xml:space="preserve"
       style="font-style:normal;font-variant:normal;font-weight:normal;font-stretch:normal;font-size:93.33332825px;line-height:1.25;font-family:Vijaya;-inkscape-font-specification:'Vijaya, Normal';font-variant-ligatures:normal;font-variant-caps:normal;font-variant-numeric:normal;font-feature-settings:normal;text-align:start;letter-spacing:0px;word-spacing:0px;writing-mode:lr-tb;text-anchor:start;fill:#000000;fill-opacity:1;stroke:none;stroke-width:1.25"
       x="1445.7136"
       y="1054.2251"
       id="text6471"><tspan
         sodipodi:role="line"
         id="tspan6469"
         x="1445.7136"
         y="1054.2251"
         style="font-style:normal;font-variant:normal;font-weight:normal;font-stretch:normal;font-size:93.33332825px;font-family:Vijaya;-inkscape-font-specification:'Vijaya, Normal';font-variant-ligatures:normal;font-variant-caps:normal;font-variant-numeric:normal;font-feature-settings:normal;text-align:start;writing-mode:lr-tb;text-anchor:start;stroke-width:1.25">v</tspan></text>
    <path
       style="fill:none;stroke:#000000;stroke-width:3.33333302;stroke-linecap:butt;stroke-linejoin:miter;stroke-miterlimit:4;stroke-dasharray:none;stroke-opacity:1"
       d="M -116.43747,505.46804 V 1508.3292"
       id="path5658"
       inkscape:connector-curvature="0" />
    <path
       d="m -127.81713,1506.3251 22.87833,0.077 -11.49867,23.3733 z"
       style="fill:#000000;fill-opacity:1;fill-rule:nonzero;stroke:none;stroke-width:0.16666664"
       id="path4507-0"
       inkscape:connector-curvature="0" />
    <text
       xml:space="preserve"
       style="font-style:normal;font-variant:normal;font-weight:normal;font-stretch:normal;font-size:53.33332825px;line-height:1.25;font-family:Arial;-inkscape-font-specification:'Arial, Normal';font-variant-ligatures:normal;font-variant-caps:normal;font-variant-numeric:normal;font-feature-settings:normal;text-align:start;letter-spacing:0px;word-spacing:0px;writing-mode:lr-tb;text-anchor:start;fill:#000000;fill-opacity:1;stroke:none;stroke-width:1.25"
       x="-186.00653"
       y="1489.0651"
       id="text6463-6"><tspan
         sodipodi:role="line"
         id="tspan6461-6"
         x="-186.00653"
         y="1489.0651"
         style="font-style:normal;font-variant:normal;font-weight:normal;font-stretch:normal;font-size:53.33332825px;font-family:Arial;-inkscape-font-specification:'Arial, Normal';font-variant-ligatures:normal;font-variant-caps:normal;font-variant-numeric:normal;font-feature-settings:normal;text-align:start;writing-mode:lr-tb;text-anchor:start;stroke-width:1.25">-1</tspan></text>
    <path
       d="m 1433.1929,660.37758 h 31.6666 v -31.66666 h -31.6666 z"
       style="fill:#cc0000;fill-opacity:1;fill-rule:nonzero;stroke:none;stroke-width:0.16666664"
       id="path5774-9"
       inkscape:connector-curvature="0" />
    <path
       d="m 1433.1929,565.37759 h 31.6666 v -31.66666 h -31.6666 z"
       style="fill:#00cc00;fill-opacity:1;fill-rule:nonzero;stroke:none;stroke-width:0.16666664"
       id="path5774-2"
       inkscape:connector-curvature="0" />
    <text
       xml:space="preserve"
       style="font-style:normal;font-variant:normal;font-weight:normal;font-stretch:normal;font-size:93.33332825px;line-height:1.25;font-family:Vijaya;-inkscape-font-specification:'Vijaya, Normal';font-variant-ligatures:normal;font-variant-caps:normal;font-variant-numeric:normal;font-feature-settings:normal;text-align:start;letter-spacing:0px;word-spacing:0px;writing-mode:lr-tb;text-anchor:start;fill:#000000;fill-opacity:1;stroke:none;stroke-width:1.25"
       x="1486.401"
       y="471.08536"
       id="text6422"><tspan
         sodipodi:role="line"
         id="tspan6420"
         x="1486.401"
         y="471.08536"
         style="font-style:normal;font-variant:normal;font-weight:normal;font-stretch:normal;font-size:93.33332825px;font-family:Vijaya;-inkscape-font-specification:'Vijaya, Normal';font-variant-ligatures:normal;font-variant-caps:normal;font-variant-numeric:normal;font-feature-settings:normal;text-align:start;writing-mode:lr-tb;text-anchor:start;stroke-width:1.25">g(v)</tspan></text>
    <text
       xml:space="preserve"
       style="font-style:normal;font-variant:normal;font-weight:normal;font-stretch:normal;font-size:93.33332825px;line-height:1.25;font-family:Vijaya;-inkscape-font-specification:'Vijaya, Normal';font-variant-ligatures:normal;font-variant-caps:normal;font-variant-numeric:normal;font-feature-settings:normal;text-align:start;letter-spacing:0px;word-spacing:0px;writing-mode:lr-tb;text-anchor:start;fill:#000000;fill-opacity:1;stroke:none;stroke-width:1.25"
       x="1486.6506"
       y="565.77893"
       id="text6426"><tspan
         sodipodi:role="line"
         id="tspan6424"
         x="1486.6506"
         y="565.77893"
         style="font-style:normal;font-variant:normal;font-weight:normal;font-stretch:normal;font-size:93.33332825px;font-family:Vijaya;-inkscape-font-specification:'Vijaya, Normal';font-variant-ligatures:normal;font-variant-caps:normal;font-variant-numeric:normal;font-feature-settings:normal;text-align:start;writing-mode:lr-tb;text-anchor:start;stroke-width:1.25">h(v)</tspan></text>
    <text
       xml:space="preserve"
       style="font-style:normal;font-variant:normal;font-weight:normal;font-stretch:normal;font-size:93.33332825px;line-height:1.25;font-family:Vijaya;-inkscape-font-specification:'Vijaya, Normal';font-variant-ligatures:normal;font-variant-caps:normal;font-variant-numeric:normal;font-feature-settings:normal;text-align:start;letter-spacing:0px;word-spacing:0px;writing-mode:lr-tb;text-anchor:start;fill:#000000;fill-opacity:1;stroke:none;stroke-width:1.25"
       x="1486.2844"
       y="661.47272"
       id="text6430"><tspan
         sodipodi:role="line"
         id="tspan6428"
         x="1486.2844"
         y="661.47272"
         style="font-style:normal;font-variant:normal;font-weight:normal;font-stretch:normal;font-size:93.33332825px;font-family:Vijaya;-inkscape-font-specification:'Vijaya, Normal';font-variant-ligatures:normal;font-variant-caps:normal;font-variant-numeric:normal;font-feature-settings:normal;text-align:start;writing-mode:lr-tb;text-anchor:start;stroke-width:1.25">a(v)</tspan></text>
    <path
       d="m 1381.8436,986.72547 v 35.01703"
       style="fill:none;stroke:#000000;stroke-width:3.33333302;stroke-linecap:butt;stroke-linejoin:miter;stroke-miterlimit:4;stroke-dasharray:none;stroke-opacity:1"
       id="path4525-1"
       inkscape:connector-curvature="0" />
    <path
       d="M -99.099107,1470.8104 H -134.1161"
       style="fill:none;stroke:#000000;stroke-width:3.33333302;stroke-linecap:butt;stroke-linejoin:miter;stroke-miterlimit:4;stroke-dasharray:none;stroke-opacity:1"
       id="path4525-1-0"
       inkscape:connector-curvature="0" />
    <text
       xml:space="preserve"
       style="font-style:normal;font-variant:normal;font-weight:normal;font-stretch:normal;font-size:53.33332825px;line-height:1.25;font-family:Arial;-inkscape-font-specification:'Arial, Normal';font-variant-ligatures:normal;font-variant-caps:normal;font-variant-numeric:normal;font-feature-settings:normal;text-align:start;letter-spacing:0px;word-spacing:0px;writing-mode:lr-tb;text-anchor:start;fill:#000000;fill-opacity:1;stroke:none;stroke-width:1.25"
       x="-168.40518"
       y="552.43439"
       id="text6463-6-2"><tspan
         sodipodi:role="line"
         id="tspan6461-6-6"
         x="-168.40518"
         y="552.43439"
         style="font-style:normal;font-variant:normal;font-weight:normal;font-stretch:normal;font-size:53.33332825px;font-family:Arial;-inkscape-font-specification:'Arial, Normal';font-variant-ligatures:normal;font-variant-caps:normal;font-variant-numeric:normal;font-feature-settings:normal;text-align:start;writing-mode:lr-tb;text-anchor:start;stroke-width:1.25">1</tspan></text>
    <path
       d="m -98.21651,533.71095 h -35.017"
       style="fill:none;stroke:#000000;stroke-width:3.33333302;stroke-linecap:butt;stroke-linejoin:miter;stroke-miterlimit:4;stroke-dasharray:none;stroke-opacity:1"
       id="path4525-1-0-3"
       inkscape:connector-curvature="0" />
    <path
       d="m 1433.1929,470.3776 h 31.6666 v -31.66667 h -31.6666 z"
       style="fill:#0000cc;fill-opacity:1;fill-rule:nonzero;stroke:none;stroke-width:0.16666664"
       id="path5774-0-6"
       inkscape:connector-curvature="0" />
    <g
       id="g4618"
       transform="matrix(0.16666665,0,0,-0.16666665,-47.643664,674.67925)">
      <text
         transform="scale(1,-1)"
         id="text5022"
         y="1678.3165"
         x="8999.3662"
         style="font-style:normal;font-variant:normal;font-weight:normal;font-stretch:normal;font-size:360px;line-height:1.25;font-family:Vijaya;-inkscape-font-specification:'Vijaya, Normal';font-variant-ligatures:normal;font-variant-caps:normal;font-variant-numeric:normal;font-feature-settings:normal;text-align:start;letter-spacing:0px;word-spacing:0px;writing-mode:lr-tb;text-anchor:start;fill:#000000;fill-opacity:1;stroke:none;stroke-width:7.5"
         xml:space="preserve"><tspan
           style="stroke-width:7.5"
           y="1678.3165"
           x="8999.3662"
           id="tspan5020"
           sodipodi:role="line">thresh</tspan></text>
      <text
         transform="scale(1,-1)"
         id="text5026"
         y="1573.0807"
         x="8775.7422"
         style="font-style:normal;font-variant:normal;font-weight:normal;font-stretch:normal;font-size:360px;line-height:1.25;font-family:Vijaya;-inkscape-font-specification:'Vijaya, Normal';font-variant-ligatures:normal;font-variant-caps:normal;font-variant-numeric:normal;font-feature-settings:normal;text-align:start;letter-spacing:0px;word-spacing:0px;writing-mode:lr-tb;text-anchor:start;fill:#000000;fill-opacity:1;stroke:none;stroke-width:7.5"
         xml:space="preserve"><tspan
           style="font-size:479.99996948px;stroke-width:7.5"
           y="1573.0807"
           x="8775.7422"
           id="tspan5024"
           sodipodi:role="line">g</tspan></text>
    </g>
    <text
       xml:space="preserve"
       style="font-style:normal;font-variant:normal;font-weight:normal;font-stretch:normal;font-size:53.33332825px;line-height:1.25;font-family:Arial;-inkscape-font-specification:'Arial, Normal';font-variant-ligatures:normal;font-variant-caps:normal;font-variant-numeric:normal;font-feature-settings:normal;text-align:start;letter-spacing:0px;word-spacing:0px;writing-mode:lr-tb;text-anchor:start;fill:#000000;fill-opacity:1;stroke:none;stroke-width:1.25"
       x="1338.4232"
       y="1074.9069"
       id="text5688"><tspan
         sodipodi:role="line"
         id="tspan5686"
         x="1338.4232"
         y="1074.9069"
         style="font-style:normal;font-variant:normal;font-weight:normal;font-stretch:normal;font-size:53.33332825px;font-family:Arial;-inkscape-font-specification:'Arial, Normal';font-variant-ligatures:normal;font-variant-caps:normal;font-variant-numeric:normal;font-feature-settings:normal;text-align:start;writing-mode:lr-tb;text-anchor:start;stroke-width:1.25">255</tspan></text>
    <g
       clip-path="url(#cliprect0)"
       id="g437"
       transform="translate(-192.43747,504.4784)">
      <polyline
         style="opacity:1;fill:none;stroke:#0000cc;stroke-width:5;stroke-linecap:butt;stroke-linejoin:miter;stroke-miterlimit:4;stroke-dasharray:none"
         points="76,457.939 81.8824,457.749 87.7647,457.584 93.6471,457.463 99.5294,457.348 105.412,457.252 111.294,457.171 117.176,457.103 123.059,457.043 128.941,456.987 134.824,456.927 140.706,456.851 146.588,456.745 152.471,456.585 158.353,456.338 164.235,455.954 170.118,455.367 176,454.487 181.882,453.2 187.765,451.368 193.647,448.834 199.529,445.434 205.412,441.003 211.294,435.401 217.176,428.524 223.059,420.329 228.941,410.842 234.824,400.165 240.706,388.477 246.588,376.017 252.471,363.066 258.353,349.922 264.235,336.873 270.118,324.174 276,312.03 281.882,300.584 287.765,289.917 293.647,280.055 299.529,270.978 305.412,262.633 311.294,254.949 317.176,247.847 323.059,241.249 328.941,235.084 334.824,229.293 340.706,223.824 346.588,218.639 352.471,213.704 358.353,208.996 364.235,204.494 370.118,200.184 376,196.051 381.882,192.085 387.765,188.276 393.647,184.617 399.529,181.099 405.412,177.717 411.294,174.467 417.176,171.344 423.059,168.344 428.941,165.465 434.824,162.704 440.706,160.059 446.588,157.528 452.471,155.109 458.353,152.798 464.235,150.593 470.118,148.49 476,146.488 481.882,144.583 487.765,142.773 493.647,141.054 499.529,139.424 505.412,137.881 511.294,136.422 517.176,135.044 523.059,133.747 528.941,132.527 534.824,131.384 540.706,130.317 546.588,129.326 552.471,128.411 558.353,127.574 564.235,126.816 570.118,126.137 576,125.539 581.882,125.023 587.765,124.587 593.647,124.231 599.529,123.954 605.412,123.755 611.294,123.632 617.176,123.585 623.059,123.614 628.941,123.719 634.824,123.899 640.706,124.157 646.588,124.491 652.471,124.904 658.353,125.395 664.235,125.966 670.118,126.619 676,127.36 681.882,128.194 687.765,129.134 693.647,130.194 699.529,131.395 705.412,132.762 711.294,134.329 717.176,136.133 723.059,138.214 728.941,140.618 734.824,143.392 740.706,146.579 746.588,150.219 752.471,154.345 758.353,158.981 764.235,164.135 770.118,169.804 776,175.97 781.882,182.6 787.765,189.65 793.647,197.061 799.529,204.769 805.412,212.7 811.294,220.779 817.176,228.923 823.059,237.048 828.941,245.066 834.824,252.884 840.706,260.407 846.588,267.535 852.471,274.17 858.353,280.223 864.235,285.62 870.118,290.318 876,294.317 881.882,297.666 887.765,300.476 893.647,302.915 899.529,305.199 905.412,307.578 911.294,310.305 917.176,313.615 923.059,317.694 928.941,322.658 934.824,328.541 940.706,335.293 946.588,342.787 952.471,350.841 958.353,359.236 964.235,367.744 970.118,376.145 976,384.244 981.882,391.881 987.765,398.93 993.647,405.295 999.529,410.906 1005.41,415.699 1011.29,419.614 1017.18,422.582 1023.06,424.525 1028.94,425.353 1034.82,424.976 1040.71,423.316 1046.59,420.326 1052.47,416.005 1058.35,410.419 1064.24,403.709 1070.12,396.093 1076,387.86 1081.88,379.349 1087.76,370.926 1093.65,362.95 1099.53,355.743 1105.41,349.571 1111.29,344.619 1117.18,340.991 1123.06,338.707 1128.94,337.715 1134.82,337.905 1140.71,339.122 1146.59,341.181 1152.47,343.875 1158.35,346.976 1164.24,350.239 1170.12,353.394 1176,356.15 1181.88,358.189 1187.76,359.181 1193.65,358.798 1199.53,356.747 1205.41,352.808 1211.29,346.873 1217.18,338.989 1223.06,329.386 1228.94,318.482 1234.82,306.871 1240.71,295.275 1246.59,284.478 1252.47,275.247 1258.35,268.252 1264.24,263.988 1270.12,262.739 1276,264.549 1281.88,269.243 1287.76,276.461 1293.65,285.712 1299.53,296.435 1305.41,308.052 1311.29,320.01 1317.18,331.801 1323.06,342.97 1328.94,353.094 1334.82,361.762 1340.71,368.544 1346.59,372.966 1352.47,374.501 1358.35,372.575 1364.24,366.607 1370.12,356.074 1376,340.594 1381.88,320.027 1387.76,294.568 1393.65,264.806 1399.53,231.75 1405.41,196.789 1411.29,161.59 1417.18,127.947 1423.06,97.6009 1428.94,72.0548 1434.82,52.4207 1440.71,39.3216 1446.59,32.862 1452.47,32.6683 1458.35,37.9855 1464.24,47.8086 1470.12,61.0236 1476,76.5332 1481.88,93.3526 1487.76,110.668 1493.65,127.856 1499.53,144.478 1505.41,160.254 1511.29,175.026 1517.18,188.728 1523.06,201.352 1528.94,212.933 1534.82,223.529 1540.71,233.215 1546.59,242.076 1552.47,250.209 1558.35,257.684 1564.24,264.88 1570.12,270.954 1576,276.423 "
         id="polyline422" />
      <polyline
         style="opacity:1;fill:none;stroke:#00cc00;stroke-width:5;stroke-linecap:butt;stroke-linejoin:miter;stroke-miterlimit:4;stroke-dasharray:none"
         points="76,515.536 81.8824,514.392 87.7647,513.319 93.6471,512.365 99.5294,511.433 105.412,510.553 111.294,509.718 117.176,508.925 123.059,508.164 128.941,507.425 134.824,506.694 140.706,505.95 146.588,505.168 152.471,504.307 158.353,503.312 164.235,502.104 170.118,500.576 176,498.59 181.882,495.974 187.765,492.528 193.647,488.034 199.529,482.276 205.412,475.064 211.294,466.262 217.176,455.82 223.059,443.798 228.941,430.379 234.824,415.872 240.706,400.69 246.588,385.323 252.471,370.294 258.353,356.104 264.235,343.195 270.118,331.907 276,322.457 281.882,314.938 287.765,309.324 293.647,305.494 299.529,303.26 305.412,302.399 311.294,302.674 317.176,303.863 323.059,305.766 328.941,308.212 334.824,311.065 340.706,314.218 346.588,317.59 352.471,321.118 358.353,324.758 364.235,328.476 370.118,332.248 376,336.056 381.882,339.89 387.765,343.743 393.647,347.612 399.529,351.495 405.412,355.394 411.294,359.308 417.176,363.238 423.059,367.182 428.941,371.139 434.824,375.104 440.706,379.073 446.588,383.041 452.471,387.004 458.353,390.959 464.235,394.906 470.118,398.844 476,402.777 481.882,406.709 487.765,410.644 493.647,414.587 499.529,418.542 505.412,422.512 511.294,426.498 517.176,430.5 523.059,434.514 528.941,438.537 534.824,442.565 540.706,446.59 546.588,450.608 552.471,454.615 558.353,458.607 564.235,462.582 570.118,466.539 576,470.479 581.882,474.404 587.765,478.316 593.647,482.22 599.529,486.12 605.412,490.019 611.294,493.921 617.176,497.829 623.059,501.745 628.941,505.67 634.824,509.604 640.706,513.546 646.588,517.495 652.471,521.447 658.353,525.403 664.235,529.36 670.118,533.319 676,537.278 681.882,541.236 687.765,545.191 693.647,549.135 699.529,553.06 705.412,556.951 711.294,560.788 717.176,564.546 723.059,568.196 728.941,571.703 734.824,575.032 740.706,578.145 746.588,581.003 752.471,583.573 758.353,585.822 764.235,587.724 770.118,589.26 776,590.416 781.882,591.189 787.765,591.581 793.647,591.603 799.529,591.273 805.412,590.615 811.294,589.662 817.176,588.455 823.059,587.041 828.941,585.479 834.824,583.839 840.706,582.199 846.588,580.651 852.471,579.293 858.353,578.228 864.235,577.554 870.118,577.354 876,577.687 881.882,578.574 887.765,579.988 893.647,581.848 899.529,584.023 905.412,586.334 911.294,588.573 917.176,590.517 923.059,591.956 928.941,592.71 934.824,592.648 940.706,591.698 946.588,589.851 952.471,587.154 958.353,583.7 964.235,579.616 970.118,575.042 976,570.121 981.882,564.982 987.765,559.735 993.647,554.462 999.529,549.219 1005.41,544.037 1011.29,538.925 1017.18,533.879 1023.06,528.89 1028.94,523.953 1034.82,519.078 1040.71,514.3 1046.59,509.688 1052.47,505.35 1058.35,501.429 1064.24,498.103 1070.12,495.568 1076,494.023 1081.88,493.645 1087.76,494.576 1093.65,496.897 1099.53,500.618 1105.41,505.677 1111.29,511.938 1117.18,519.208 1123.06,527.247 1128.94,535.792 1134.82,544.575 1140.71,553.338 1146.59,561.849 1152.47,569.907 1158.35,577.357 1164.24,584.082 1170.12,590.015 1176,595.131 1181.88,599.45 1187.76,603.035 1193.65,605.987 1199.53,608.441 1205.41,610.556 1211.29,612.504 1217.18,614.456 1223.06,616.565 1228.94,618.954 1234.82,621.697 1240.71,624.811 1246.59,628.255 1252.47,631.929 1258.35,635.688 1264.24,639.352 1270.12,642.731 1276,645.64 1281.88,647.92 1287.76,649.45 1293.65,650.153 1299.53,650.002 1305.41,649.012 1311.29,647.236 1317.18,644.752 1323.06,641.656 1328.94,638.057 1334.82,634.07 1340.71,629.824 1346.59,625.462 1352.47,621.152 1358.35,617.094 1364.24,613.53 1370.12,610.744 1376,609.06 1381.88,608.832 1387.76,610.422 1393.65,614.178 1399.53,620.395 1405.41,629.286 1411.29,640.952 1417.18,655.351 1423.06,672.289 1428.94,691.418 1434.82,712.25 1440.71,734.181 1446.59,756.535 1452.47,778.609 1458.35,799.725 1464.24,819.286 1470.12,836.821 1476,852.021 1481.88,864.763 1487.76,875.11 1493.65,883.295 1499.53,889.686 1505.41,894.737 1511.29,898.938 1517.18,902.759 1523.06,906.611 1528.94,910.811 1534.82,915.574 1540.71,921.013 1546.59,927.149 1552.47,933.934 1558.35,941.3 1564.24,948.924 1570.12,957.413 1576,966.332 "
         id="polyline424" />
      <polyline
         style="opacity:1;fill:none;stroke:#000000;stroke-width:3.33333325;stroke-linecap:butt;stroke-linejoin:miter;stroke-miterlimit:4;stroke-dasharray:19.9999991, 19.9999991;stroke-dashoffset:0"
         points="76,425.943 1576,425.943 "
         id="polyline428" />
      <polyline
         style="opacity:1;fill:none;stroke:#cc0000;stroke-width:5;stroke-linecap:butt;stroke-linejoin:miter;stroke-miterlimit:4;stroke-dasharray:none"
         points="76,499.5 81.8824,499.5 87.7647,499.5 93.6471,499.5 99.5294,499.5 105.412,499.5 111.294,499.5 117.176,499.5 123.059,499.5 128.941,499.5 134.824,499.5 140.706,499.5 146.588,499.5 152.471,499.5 158.353,499.5 164.235,499.5 170.118,499.5 176,499.5 181.882,499.5 187.765,499.5 193.647,499.5 199.529,499.5 205.412,499.5 211.294,499.5 217.176,499.5 223.059,499.5 228.941,499.5 234.824,499.5 240.706,499.5 246.588,499.5 252.471,499.5 258.353,499.5 264.235,499.5 270.118,499.5 276,499.5 281.882,499.5 287.765,499.5 293.647,499.5 299.529,499.5 305.412,499.5 311.294,499.5 317.176,499.5 323.059,499.5 328.941,499.5 334.824,499.5 340.706,499.5 346.588,499.5 352.471,499.5 358.353,499.5 364.235,499.5 370.118,499.5 376,499.5 381.882,499.5 387.765,499.5 393.647,499.5 399.529,499.5 405.412,499.5 411.294,499.5 417.176,499.5 423.059,499.5 428.941,499.5 434.824,499.5 440.706,499.5 446.588,499.5 452.471,499.5 458.353,499.5 464.235,499.5 470.118,499.5 476,499.5 481.882,499.5 487.765,499.5 493.647,499.5 499.529,499.5 505.412,499.5 511.294,499.5 517.176,499.5 523.059,499.5 528.941,499.5 534.824,499.5 540.706,499.5 546.588,499.5 552.471,499.5 558.353,499.5 564.235,499.5 570.118,499.5 576,499.5 581.882,499.486 587.765,499.209 593.647,496.021 599.529,474.625 605.412,392.2 611.294,218.814 617.176,53.4914 623.059,69.5766 628.941,249.018 634.824,411.76 640.706,481.139 646.588,497.221 652.471,499.334 658.353,499.493 664.235,499.5 670.118,499.5 676,499.5 681.882,499.5 687.765,499.5 693.647,499.5 699.529,499.5 705.412,499.5 711.294,499.5 717.176,499.5 723.059,499.5 728.941,499.5 734.824,499.5 740.706,499.5 746.588,499.5 752.471,499.5 758.353,499.5 764.235,499.5 770.118,499.5 776,499.5 781.882,499.5 787.765,499.5 793.647,499.5 799.529,499.5 805.412,499.5 811.294,499.5 817.176,499.5 823.059,499.5 828.941,499.5 834.824,499.5 840.706,499.5 846.588,499.5 852.471,499.5 858.353,499.5 864.235,499.5 870.118,499.5 876,499.5 881.882,499.5 887.765,499.5 893.647,499.5 899.529,499.5 905.412,499.5 911.294,499.5 917.176,499.5 923.059,499.5 928.941,499.5 934.824,499.5 940.706,499.5 946.588,499.5 952.471,499.5 958.353,499.5 964.235,499.5 970.118,499.5 976,499.5 981.882,499.5 987.765,499.5 993.647,499.5 999.529,499.5 1005.41,499.5 1011.29,499.5 1017.18,499.5 1023.06,499.5 1028.94,499.5 1034.82,499.5 1040.71,499.5 1046.59,499.5 1052.47,499.5 1058.35,499.5 1064.24,498.215 1070.12,499.5 1076,499.5 1081.88,499.5 1087.76,499.497 1093.65,463.078 1099.53,179.889 1105.41,499.473 1111.29,499.5 1117.18,499.5 1123.06,499.5 1128.94,499.5 1134.82,499.5 1140.71,499.5 1146.59,499.5 1152.47,499.5 1158.35,499.5 1164.24,499.5 1170.12,499.5 1176,499.5 1181.88,499.5 1187.76,499.5 1193.65,499.5 1199.53,499.5 1205.41,499.5 1211.29,499.5 1217.18,499.5 1223.06,499.5 1228.94,499.5 1234.82,499.5 1240.71,499.5 1246.59,499.5 1252.47,499.5 1258.35,499.5 1264.24,499.5 1270.12,499.5 1276,499.5 1281.88,499.5 1287.76,499.5 1293.65,499.5 1299.53,499.5 1305.41,499.5 1311.29,499.5 1317.18,499.5 1323.06,499.5 1328.94,499.5 1334.82,499.5 1340.71,499.5 1346.59,499.5 1352.47,499.5 1358.35,499.5 1364.24,499.5 1370.12,499.5 1376,499.5 1381.88,499.5 1387.76,499.5 1393.65,499.5 1399.53,499.5 1405.41,499.5 1411.29,499.5 1417.18,499.5 1423.06,499.5 1428.94,499.5 1434.82,499.5 1440.71,499.5 1446.59,499.5 1452.47,499.5 1458.35,499.5 1464.24,499.5 1470.12,499.5 1476,499.5 1481.88,499.5 1487.76,499.5 1493.65,499.5 1499.53,499.5 1505.41,499.5 1511.29,499.5 1517.18,499.5 1523.06,499.5 1528.94,499.5 1534.82,499.5 1540.71,499.5 1546.59,499.5 1552.47,499.5 1558.35,499.5 1564.24,499.5 1570.12,499.5 1576,499.5 "
         id="polyline430" />
      <clipPath
         id="cliprect1">
        <rect
           x="0"
           y="0"
           width="1618"
           height="1017"
           id="rect434" />
      </clipPath>
    </g>
  </g>
</svg>
