<?xml version="1.0" encoding="UTF-8" standalone="no"?>
<svg
   xmlns:dc="http://purl.org/dc/elements/1.1/"
   xmlns:cc="http://creativecommons.org/ns#"
   xmlns:rdf="http://www.w3.org/1999/02/22-rdf-syntax-ns#"
   xmlns:svg="http://www.w3.org/2000/svg"
   xmlns="http://www.w3.org/2000/svg"
   xmlns:sodipodi="http://sodipodi.sourceforge.net/DTD/sodipodi-0.dtd"
   xmlns:inkscape="http://www.inkscape.org/namespaces/inkscape"
   width="970.801pt"
   height="610.2pt"
   viewBox="0 0 1618 1017"
   version="1.1"
   id="svg441"
   sodipodi:docname="r_g_tooth_ft.svg"
   inkscape:version="0.92.1 r15371">
  <metadata
     id="metadata447">
    <rdf:RDF>
      <cc:Work
         rdf:about="">
        <dc:format>image/svg+xml</dc:format>
        <dc:type
           rdf:resource="http://purl.org/dc/dcmitype/StillImage" />
      </cc:Work>
    </rdf:RDF>
  </metadata>
  <defs
     id="defs445" />
  <sodipodi:namedview
     pagecolor="#ffffff"
     bordercolor="#666666"
     borderopacity="1"
     objecttolerance="10"
     gridtolerance="10"
     guidetolerance="10"
     inkscape:pageopacity="0"
     inkscape:pageshadow="2"
     inkscape:window-width="1920"
     inkscape:window-height="1019"
     id="namedview443"
     showgrid="false"
     inkscape:zoom="0.74075694"
     inkscape:cx="367.9776"
     inkscape:cy="311.01917"
     inkscape:window-x="-9"
     inkscape:window-y="-9"
     inkscape:window-maximized="1"
     inkscape:current-layer="g435" />
  <g
     id="g439">
    <pattern
       id="pattern0"
       patternUnits="userSpaceOnUse"
       x="0"
       y="0"
       width="7"
       height="7">
      <line
         x1="0"
         y1="3"
         x2="7"
         y2="3"
         style="fill:none; stroke:rgb(0,0,0); opacity:1"
         id="line2" />
    </pattern>
    <g
       clip-path="url(#cliprect0)"
       id="g435">
      <polyline
         style="fill:none;stroke:rgb(0, 0, 204);stroke-width:4.99999977;stroke-linecap:butt;stroke-linejoin:miter;stroke-dasharray:none;opacity:1;stroke-miterlimit:4"
         points="76,498.346 81.8824,464.95 87.7647,433.99 93.6471,407.284 99.5294,381.444 105.412,357.688 111.294,335.966 117.176,316.283 123.059,298.56 128.941,282.66 134.824,268.413 140.706,255.634 146.588,244.139 152.471,233.752 158.353,224.313 164.235,215.682 170.118,207.735 176,200.369 181.882,193.496 187.765,187.048 193.647,180.971 199.529,175.224 205.412,169.781 211.294,164.627 217.176,159.755 223.059,155.167 228.941,150.871 234.824,146.878 240.706,143.203 246.588,139.861 252.471,136.868 258.353,134.237 264.235,131.981 270.118,130.108 276,128.624 281.882,127.532 287.765,126.831 293.647,126.519 299.529,126.592 305.412,127.045 311.294,127.873 317.176,129.074 323.059,130.648 328.941,132.599 334.824,134.934 340.706,137.664 346.588,140.807 352.471,144.386 358.353,148.43 364.235,152.981 370.118,158.087 376,163.813 381.882,170.235 387.765,177.444 393.647,185.542 399.529,194.638 405.412,204.838 411.294,216.234 417.176,228.892 423.059,242.829 428.941,258.005 434.824,274.307 440.706,291.546 446.588,309.456 452.471,327.707 458.353,345.923 464.235,363.708 470.118,380.673 476,396.467 481.882,410.793 487.765,423.428 493.647,434.224 499.529,443.106 505.412,450.056 511.294,455.099 517.176,458.278 523.059,459.641 528.941,459.222 534.824,457.04 540.706,453.093 546.588,447.368 552.471,439.853 558.353,430.546 564.235,419.478 570.118,406.718 576,392.385 581.882,376.65 587.765,359.733 593.647,341.894 599.529,323.42 605.412,304.61 611.294,285.756 617.176,267.13 623.059,248.97 628.941,231.472 634.824,214.783 640.706,199.006 646.588,184.198 652.471,170.379 658.353,157.539 664.235,145.645 670.118,134.65 676,124.499 681.882,115.134 687.765,106.501 693.647,98.5508 699.529,91.2411 705.412,84.5369 711.294,78.4108 717.176,72.8411 723.059,67.8112 728.941,63.3078 734.824,59.3198 740.706,55.8372 746.588,52.8512 752.471,50.3533 758.353,48.3364 764.235,46.795 770.118,45.726 776,45.1295 781.882,45.0096 787.765,45.3749 793.647,46.2393 799.529,47.6221 805.412,49.5484 811.294,52.0486 817.176,55.1574 823.059,58.9124 828.941,63.3517 834.824,68.5112 840.706,74.4212 846.588,81.1032 852.471,88.5661 858.353,96.8039 864.235,105.794 870.118,115.496 876,125.852 881.882,136.792 887.765,148.234 893.647,160.088 899.529,172.267 905.412,184.69 911.294,197.287 917.176,210.005 923.059,222.812 928.941,235.691 934.824,248.646 940.706,261.685 946.588,274.819 952.471,288.047 958.353,301.349 964.235,314.675 970.118,327.938 976,341.014 981.882,353.742 987.765,365.929 993.647,377.356 999.529,387.785 1005.41,396.967 1011.29,404.648 1017.18,410.571 1023.06,414.484 1028.94,416.143 1034.82,415.321 1040.71,411.813 1046.59,405.459 1052.47,396.155 1058.35,383.875 1064.24,368.691 1070.12,350.785 1076,330.456 1081.88,308.113 1087.76,284.265 1093.65,259.488 1099.53,234.395 1105.41,209.593 1111.29,185.647 1117.18,163.043 1123.06,142.166 1128.94,123.282 1134.82,106.538 1140.71,91.9693 1146.59,79.5159 1152.47,69.0447 1158.35,60.3742 1164.24,53.2978 1170.12,47.6041 1176,43.0927 1181.88,39.5845 1187.76,36.9269 1193.65,34.9952 1199.53,33.6904 1205.41,32.9349 1211.29,32.6683 1217.18,32.8425 1223.06,33.4186 1228.94,34.3649 1234.82,35.6567 1240.71,37.2764 1246.59,39.2149 1252.47,41.473 1258.35,44.0608 1264.24,46.9973 1270.12,50.3087 1276,54.0254 1281.88,58.1798 1287.76,62.8041 1293.65,67.93 1299.53,73.5893 1305.41,79.8153 1311.29,86.6456 1317.18,94.1241 1323.06,102.302 1328.94,111.237 1334.82,120.993 1340.71,131.63 1346.59,143.206 1352.47,155.762 1358.35,169.319 1364.24,183.867 1370.12,199.36 1376,215.707 1381.88,232.772 1387.76,250.372 1393.65,268.278 1399.53,286.229 1405.41,303.938 1411.29,321.109 1417.18,337.455 1423.06,352.715 1428.94,366.669 1434.82,379.153 1440.71,390.067 1446.59,399.376 1452.47,407.113 1458.35,413.369 1464.24,418.282 1470.12,422.029 1476,424.806 1481.88,426.818 1487.76,428.266 1493.65,429.34 1499.53,430.208 1505.41,431.023 1511.29,431.913 1517.18,432.991 1523.06,434.357 1528.94,436.1 1534.82,438.298 1540.71,441.019 1546.59,444.313 1552.47,448.203 1558.35,452.735 1564.24,457.528 1570.12,463.726 1576,470.747 "
         id="polyline422" />
      <polyline
         style="fill:none;stroke:rgb(0, 204, 0);stroke-width:4.99999977;stroke-linecap:butt;stroke-linejoin:miter;stroke-dasharray:none;opacity:1;stroke-miterlimit:4"
         points="76,493.556 81.8824,422.258 87.7647,360.106 93.6471,313.733 99.5294,270.438 105.412,234.58 111.294,205.795 117.176,183.891 123.059,168.379 128.941,158.557 134.824,153.632 140.706,152.797 146.588,155.286 152.471,160.419 158.353,167.618 164.235,176.41 170.118,186.425 176,197.379 181.882,209.064 187.765,221.331 193.647,234.077 199.529,247.238 205.412,260.772 211.294,274.658 217.176,288.883 223.059,303.443 228.941,318.335 234.824,333.552 240.706,349.087 246.588,364.923 252.471,381.041 258.353,397.415 264.235,414.014 270.118,430.804 276,447.746 281.882,464.803 287.765,481.936 293.647,499.104 299.529,516.27 305.412,533.4 311.294,550.461 317.176,567.424 323.059,584.265 328.941,600.962 334.824,617.494 340.706,633.842 346.588,649.979 352.471,665.87 358.353,681.465 364.235,696.69 370.118,711.44 376,725.573 381.882,738.901 387.765,751.184 393.647,762.134 399.529,771.413 405.412,778.649 411.294,783.456 417.176,785.46 423.059,784.337 428.941,779.851 434.824,771.89 440.706,760.497 446.588,745.89 452.471,728.456 458.353,708.736 464.235,687.383 470.118,665.111 476,642.628 481.882,620.573 487.765,599.459 493.647,579.626 499.529,561.22 505.412,544.178 511.294,528.251 517.176,513.026 523.059,497.975 528.941,482.506 534.824,466.025 540.706,447.989 546.588,427.967 552.471,405.679 558.353,381.039 564.235,354.164 570.118,325.382 576,295.206 581.882,264.298 587.765,233.422 593.647,203.381 599.529,174.955 605.412,148.847 611.294,125.636 617.176,105.745 623.059,89.4308 628.941,76.7837 634.824,67.7473 640.706,62.1446 646.588,59.7111 652.471,60.1292 658.353,63.0594 664.235,68.1668 670.118,75.1409 676,83.7088 681.882,93.6411 687.765,104.754 693.647,116.902 699.529,129.978 705.412,143.896 711.294,158.586 717.176,173.985 723.059,190.028 728.941,206.645 734.824,223.758 740.706,241.281 746.588,259.125 752.471,277.202 758.353,295.431 764.235,313.742 770.118,332.08 776,350.403 781.882,368.686 787.765,386.913 793.647,405.078 799.529,423.178 805.412,441.205 811.294,459.148 817.176,476.983 823.059,494.67 828.941,512.152 834.824,529.35 840.706,546.17 846.588,562.496 852.471,578.201 858.353,593.153 864.235,607.218 870.118,620.274 876,632.216 881.882,642.962 887.765,652.456 893.647,660.671 899.529,667.604 905.412,673.269 911.294,677.693 917.176,680.902 923.059,682.918 928.941,683.751 934.824,683.399 940.706,681.848 946.588,679.078 952.471,675.074 958.353,669.834 964.235,663.379 970.118,655.767 976,647.086 981.882,637.463 987.765,627.056 993.647,616.04 999.529,604.6 1005.41,592.915 1011.29,581.147 1017.18,569.431 1023.06,557.874 1028.94,546.556 1034.82,535.537 1040.71,524.872 1046.59,514.619 1052.47,504.859 1058.35,495.706 1064.24,487.311 1070.12,479.866 1076,473.595 1081.88,468.738 1087.76,465.531 1093.65,464.183 1099.53,464.856 1105.41,467.643 1111.29,472.56 1117.18,479.542 1123.06,488.45 1128.94,499.086 1134.82,511.211 1140.71,524.566 1146.59,538.894 1152.47,553.952 1158.35,569.527 1164.24,585.439 1170.12,601.543 1176,617.726 1181.88,633.904 1187.76,650.018 1193.65,666.023 1199.53,681.89 1205.41,697.597 1211.29,713.131 1217.18,728.483 1223.06,743.644 1228.94,758.61 1234.82,773.374 1240.71,787.928 1246.59,802.258 1252.47,816.346 1258.35,830.168 1264.24,843.691 1270.12,856.877 1276,869.685 1281.88,882.066 1287.76,893.971 1293.65,905.34 1299.53,916.109 1305.41,926.197 1311.29,935.505 1317.18,943.912 1323.06,951.27 1328.94,957.403 1334.82,962.109 1340.71,965.164 1346.59,966.332 1352.47,965.377 1358.35,962.079 1364.24,956.255 1370.12,947.776 1376,936.593 1381.88,922.754 1387.76,906.42 1393.65,887.873 1399.53,867.518 1405.41,845.865 1411.29,823.514 1417.18,801.121 1423.06,779.357 1428.94,758.873 1434.82,740.256 1440.71,723.998 1446.59,710.467 1452.47,699.893 1458.35,692.365 1464.24,687.836 1470.12,686.138 1476,687.008 1481.88,690.112 1487.76,695.071 1493.65,701.479 1499.53,708.922 1505.41,716.979 1511.29,725.221 1517.18,733.199 1523.06,740.44 1528.94,746.437 1534.82,750.668 1540.71,752.615 1546.59,751.83 1552.47,747.985 1558.35,740.643 1564.24,731.895 1570.12,714.814 1576,692.726 "
         id="polyline424" />
      <polyline
         style="fill:none;stroke:rgb(0, 0, 0);stroke-width:3.33333319;stroke-linecap:butt;stroke-linejoin:miter;stroke-dasharray:26.66666546,13.33333274;opacity:1;stroke-miterlimit:4;stroke-dashoffset:0"
         points="76,400.469 1576,400.469 "
         id="polyline428" />
      <polyline
         style="fill:none;stroke:rgb(204, 0, 0);stroke-width:4.99999977;stroke-linecap:butt;stroke-linejoin:miter;stroke-dasharray:none;opacity:1;stroke-miterlimit:4"
         points="76,499.5 81.8824,499.5 87.7647,499.5 93.6471,499.5 99.5294,499.5 105.412,499.5 111.294,499.5 117.176,499.5 123.059,499.5 128.941,499.5 134.824,499.5 140.706,499.5 146.588,499.5 152.471,499.5 158.353,499.5 164.235,499.5 170.118,499.5 176,499.5 181.882,499.5 187.765,499.5 193.647,499.5 199.529,499.5 205.412,499.5 211.294,499.5 217.176,499.5 223.059,499.5 228.941,499.5 234.824,499.5 240.706,499.5 246.588,499.5 252.471,499.5 258.353,499.5 264.235,499.499 270.118,499.415 276,495.784 281.882,445.398 287.765,230.016 293.647,32.7986 299.529,216.359 305.412,439.4 311.294,495.084 317.176,499.39 323.059,499.499 328.941,499.5 334.824,499.5 340.706,499.5 346.588,499.5 352.471,499.5 358.353,499.5 364.235,499.5 370.118,499.5 376,499.5 381.882,499.5 387.765,499.5 393.647,499.5 399.529,499.5 405.412,499.5 411.294,499.5 417.176,499.5 423.059,499.5 428.941,499.5 434.824,499.5 440.706,499.5 446.588,499.5 452.471,499.5 458.353,499.5 464.235,499.5 470.118,499.5 476,499.5 481.882,499.5 487.765,499.5 493.647,499.5 499.529,499.5 505.412,499.5 511.294,499.5 517.176,499.5 523.059,499.5 528.941,499.5 534.824,499.5 540.706,499.5 546.588,499.5 552.471,499.5 558.353,499.5 564.235,499.5 570.118,499.5 576,499.5 581.882,499.5 587.765,499.5 593.647,499.5 599.529,499.5 605.412,499.5 611.294,499.5 617.176,499.5 623.059,499.5 628.941,499.5 634.824,499.5 640.706,499.5 646.588,499.5 652.471,499.5 658.353,499.5 664.235,499.5 670.118,499.5 676,499.5 681.882,499.5 687.765,499.5 693.647,499.5 699.529,499.5 705.412,499.5 711.294,499.5 717.176,499.5 723.059,499.5 728.941,499.5 734.824,499.5 740.706,499.5 746.588,499.5 752.471,499.5 758.353,499.5 764.235,499.5 770.118,499.5 776,499.5 781.882,499.5 787.765,499.499 793.647,499.464 799.529,498.589 805.412,487.726 811.294,421.455 817.176,234.712 823.059,44.953 828.941,112.608 834.824,340.703 840.706,469.124 846.588,496.896 852.471,499.404 858.353,499.499 864.235,499.5 870.118,499.5 876,499.5 881.882,499.5 887.765,499.5 893.647,499.5 899.529,499.5 905.412,499.5 911.294,499.5 917.176,499.5 923.059,499.5 928.941,499.5 934.824,499.5 940.706,499.5 946.588,499.5 952.471,499.5 958.353,499.5 964.235,499.5 970.118,499.5 976,499.5 981.882,499.5 987.765,499.5 993.647,499.5 999.529,499.5 1005.41,499.5 1011.29,499.5 1017.18,499.5 1023.06,499.5 1028.94,499.5 1034.82,499.5 1040.71,499.5 1046.59,499.5 1052.47,499.5 1058.35,499.063 1064.24,499.5 1070.12,499.5 1076,499.5 1081.88,499.5 1087.76,499.495 1093.65,499.392 1099.53,498.091 1105.41,488.127 1111.29,442.177 1117.18,317.567 1123.06,133.763 1128.94,32.8072 1134.82,121.734 1140.71,305.947 1146.59,436.892 1152.47,486.742 1158.35,497.864 1164.24,499.368 1170.12,499.493 1176,499.5 1181.88,499.5 1187.76,499.5 1193.65,499.5 1199.53,499.5 1205.41,499.5 1211.29,499.5 1217.18,499.5 1223.06,499.5 1228.94,499.5 1234.82,499.5 1240.71,499.5 1246.59,499.5 1252.47,499.5 1258.35,499.5 1264.24,499.5 1270.12,499.5 1276,499.5 1281.88,499.5 1287.76,499.5 1293.65,499.5 1299.53,499.5 1305.41,499.5 1311.29,499.5 1317.18,499.5 1323.06,499.5 1328.94,499.5 1334.82,499.5 1340.71,499.5 1346.59,499.5 1352.47,499.5 1358.35,499.5 1364.24,499.5 1370.12,499.5 1376,499.5 1381.88,499.5 1387.76,499.5 1393.65,499.5 1399.53,499.5 1405.41,499.5 1411.29,499.5 1417.18,499.5 1423.06,499.5 1428.94,499.5 1434.82,499.5 1440.71,499.5 1446.59,499.5 1452.47,499.5 1458.35,499.5 1464.24,499.5 1470.12,499.5 1476,499.5 1481.88,499.5 1487.76,499.5 1493.65,499.5 1499.53,499.5 1505.41,499.5 1511.29,499.5 1517.18,499.5 1523.06,499.5 1528.94,499.5 1534.82,499.5 1540.71,499.5 1546.59,499.5 1552.47,499.5 1558.35,499.5 1564.24,499.5 1570.12,499.5 1576,499.5 "
         id="polyline430" />
      <clipPath
         id="cliprect1">
        <rect
           x="0"
           y="0"
           width="1618"
           height="1017"
           id="rect432" />
      </clipPath>
    </g>
    <g
       clip-path="url(#cliprect1)"
       id="g437" />
  </g>
</svg>
