<?xml version="1.0" encoding="UTF-8" standalone="no"?>
<svg
   xmlns:dc="http://purl.org/dc/elements/1.1/"
   xmlns:cc="http://creativecommons.org/ns#"
   xmlns:rdf="http://www.w3.org/1999/02/22-rdf-syntax-ns#"
   xmlns:svg="http://www.w3.org/2000/svg"
   xmlns="http://www.w3.org/2000/svg"
   xmlns:sodipodi="http://sodipodi.sourceforge.net/DTD/sodipodi-0.dtd"
   xmlns:inkscape="http://www.inkscape.org/namespaces/inkscape"
   width="970.801pt"
   height="610.2pt"
   viewBox="0 0 1618 1017"
   version="1.1"
   id="svg441"
   sodipodi:docname="r_m_tooth_ft.svg"
   inkscape:version="0.92.1 r15371">
  <metadata
     id="metadata447">
    <rdf:RDF>
      <cc:Work
         rdf:about="">
        <dc:format>image/svg+xml</dc:format>
        <dc:type
           rdf:resource="http://purl.org/dc/dcmitype/StillImage" />
      </cc:Work>
    </rdf:RDF>
  </metadata>
  <defs
     id="defs445" />
  <sodipodi:namedview
     pagecolor="#ffffff"
     bordercolor="#666666"
     borderopacity="1"
     objecttolerance="10"
     gridtolerance="10"
     guidetolerance="10"
     inkscape:pageopacity="0"
     inkscape:pageshadow="2"
     inkscape:window-width="1920"
     inkscape:window-height="1019"
     id="namedview443"
     showgrid="false"
     showguides="true"
     inkscape:guide-bbox="true"
     inkscape:zoom="1"
     inkscape:cx="646.96776"
     inkscape:cy="457.004"
     inkscape:window-x="-9"
     inkscape:window-y="-9"
     inkscape:window-maximized="1"
     inkscape:current-layer="g435" />
  <g
     id="g439">
    <pattern
       id="pattern0"
       patternUnits="userSpaceOnUse"
       x="0"
       y="0"
       width="7"
       height="7">
      <line
         x1="0"
         y1="3"
         x2="7"
         y2="3"
         style="fill:none; stroke:rgb(0,0,0); opacity:1"
         id="line2" />
    </pattern>
    <g
       clip-path="url(#cliprect0)"
       id="g435">
      <polyline
         style="opacity:1;fill:none;stroke:#ccaa00;stroke-width:4.99999977;stroke-linecap:butt;stroke-linejoin:miter;stroke-dasharray:none;stroke-miterlimit:4"
         points="76,493.943 81.8824,496.975 87.7647,503.493 93.6471,515.763 99.5294,528.958 105.412,544.465 111.294,561.9 117.176,580.938 123.059,601.156 128.941,622.086 134.824,643.272 140.706,664.305 146.588,684.851 152.471,704.661 158.353,723.568 164.235,741.484 170.118,758.381 176,774.276 181.882,789.22 187.765,803.277 193.647,816.518 199.529,829.009 205.412,840.808 211.294,851.957 217.176,862.487 223.059,872.409 228.941,881.723 234.824,890.416 240.706,898.463 246.588,905.83 252.471,912.481 258.353,918.375 264.235,923.474 270.118,927.741 276,931.147 281.882,933.666 287.765,935.282 293.647,935.984 299.529,935.767 305.412,934.628 311.294,932.564 317.176,929.576 323.059,925.656 328.941,920.796 334.824,914.983 340.706,908.198 346.588,900.419 352.471,891.618 358.353,881.766 364.235,870.83 370.118,858.775 376,845.566 381.882,831.174 387.765,815.572 393.647,798.753 399.529,780.731 405.412,761.558 411.294,741.329 417.176,720.201 423.059,698.393 428.941,676.19 434.824,653.939 440.706,632.03 446.588,610.877 452.471,590.883 458.353,572.417 464.235,555.77 470.118,541.141 476,528.61 481.882,518.131 487.765,509.543 493.647,502.578 499.529,496.889 505.412,492.083 511.294,487.749 517.176,483.501 523.059,479.011 528.941,474.036 534.824,468.454 540.706,462.277 546.588,455.66 552.471,448.906 558.353,442.44 564.235,436.788 570.118,432.53 576,430.251 581.882,430.49 587.765,433.686 593.647,440.135 599.529,449.972 605.412,463.151 611.294,479.462 617.176,498.549 623.059,519.949 628.941,543.135 634.824,567.556 640.706,592.677 646.588,618.008 652.471,643.128 658.353,667.691 664.235,691.436 670.118,714.174 676,735.784 681.882,756.2 687.765,775.398 693.647,793.381 699.529,810.171 705.412,825.802 711.294,840.304 717.176,853.711 723.059,866.047 728.941,877.332 734.824,887.578 740.706,896.794 746.588,904.984 752.471,912.15 758.353,918.294 764.235,923.418 770.118,927.52 776,930.599 781.882,932.65 787.765,933.66 793.647,933.612 799.529,932.477 805.412,930.22 811.294,926.793 817.176,922.148 823.059,916.228 828.941,908.983 834.824,900.371 840.706,890.365 846.588,878.961 852.471,866.184 858.353,852.091 864.235,836.777 870.118,820.368 876,803.025 881.882,784.933 887.765,766.298 893.647,747.333 899.529,728.252 905.412,709.26 911.294,690.544 917.176,672.269 923.059,654.574 928.941,637.571 934.824,621.346 940.706,605.965 946.588,591.477 952.471,577.921 958.353,565.329 964.235,553.731 970.118,543.16 976,533.647 981.882,525.231 987.765,517.953 993.647,511.861 999.529,507.015 1005.41,503.492 1011.29,501.388 1017.18,500.829 1023.06,501.968 1028.94,504.987 1034.82,510.092 1040.71,517.496 1046.59,527.402 1052.47,539.979 1058.35,555.336 1064.24,573.492 1070.12,594.361 1076,617.729 1081.88,643.259 1087.76,670.496 1093.65,698.891 1099.53,727.828 1105.41,756.672 1111.29,784.8 1117.18,811.649 1123.06,836.741 1128.94,859.71 1134.82,880.312 1140.71,898.422 1146.59,914.024 1152.47,927.192 1158.35,938.07 1164.24,946.842 1170.12,953.715 1176,958.898 1181.88,962.587 1187.76,964.959 1193.65,966.165 1199.53,966.332 1205.41,965.562 1211.29,963.941 1217.18,961.537 1223.06,958.405 1228.94,954.593 1234.82,950.133 1240.71,945.047 1246.59,939.344 1252.47,933.019 1258.35,926.052 1264.24,918.412 1270.12,910.06 1276,900.952 1281.88,891.046 1287.76,880.304 1293.65,868.696 1299.53,856.195 1305.41,842.783 1311.29,828.444 1317.18,813.163 1323.06,796.931 1328.94,779.74 1334.82,761.597 1340.71,742.528 1346.59,722.583 1352.47,701.852 1358.35,680.466 1364.24,658.606 1370.12,636.496 1376,614.4 1381.88,592.614 1387.76,571.444 1393.65,551.188 1399.53,532.119 1405.41,514.459 1411.29,498.361 1417.18,483.9 1423.06,471.062 1428.94,459.748 1434.82,449.776 1440.71,440.903 1446.59,432.835 1452.47,425.254 1458.35,417.832 1464.24,410.252 1470.12,402.223 1476,393.489 1481.88,383.834 1487.76,373.089 1493.65,361.133 1499.53,347.895 1505.41,333.366 1511.29,317.603 1517.18,300.742 1523.06,283.003 1528.94,264.7 1534.82,246.222 1540.71,228.017 1546.59,210.538 1552.47,194.196 1558.35,179.475 1564.24,165.367 1570.12,156.041 1576,149.743 "
         id="polyline426"
         transform="matrix(1,0,0,-1,0,998.7347)" />
      <polyline
         style="fill:none;stroke:rgb(204, 0, 0);stroke-width:4.99999977;stroke-linecap:butt;stroke-linejoin:miter;stroke-dasharray:none;opacity:1;stroke-miterlimit:4"
         points="76,499.5 81.8824,499.5 87.7647,499.5 93.6471,499.5 99.5294,499.5 105.412,499.5 111.294,499.5 117.176,499.5 123.059,499.5 128.941,499.5 134.824,499.5 140.706,499.5 146.588,499.5 152.471,499.5 158.353,499.5 164.235,499.5 170.118,499.5 176,499.5 181.882,499.5 187.765,499.5 193.647,499.5 199.529,499.5 205.412,499.5 211.294,499.5 217.176,499.5 223.059,499.5 228.941,499.5 234.824,499.5 240.706,499.5 246.588,499.5 252.471,499.5 258.353,499.5 264.235,499.5 270.118,499.5 276,475.659 281.882,379.606 287.765,183.508 293.647,63.0156 299.529,183.508 305.412,379.606 311.294,475.659 317.176,499.5 323.059,499.5 328.941,499.5 334.824,499.5 340.706,499.5 346.588,499.5 352.471,499.5 358.353,499.5 364.235,499.5 370.118,499.5 376,499.5 381.882,499.5 387.765,499.5 393.647,499.5 399.529,499.5 405.412,499.5 411.294,499.5 417.176,499.5 423.059,499.5 428.941,499.5 434.824,499.5 440.706,499.5 446.588,499.5 452.471,499.5 458.353,499.5 464.235,499.5 470.118,499.5 476,499.5 481.882,499.5 487.765,499.5 493.647,499.5 499.529,499.5 505.412,499.5 511.294,499.5 517.176,499.5 523.059,499.5 528.941,499.5 534.824,499.5 540.706,499.5 546.588,499.5 552.471,499.5 558.353,499.5 564.235,499.5 570.118,499.5 576,499.5 581.882,499.5 587.765,499.5 593.647,499.5 599.529,499.5 605.412,499.5 611.294,499.5 617.176,499.5 623.059,499.5 628.941,499.5 634.824,499.5 640.706,499.5 646.588,499.5 652.471,499.5 658.353,499.5 664.235,499.5 670.118,499.5 676,499.5 681.882,499.5 687.765,499.5 693.647,499.5 699.529,499.5 705.412,499.5 711.294,499.5 717.176,499.5 723.059,499.5 728.941,499.5 734.824,499.5 740.706,499.5 746.588,499.5 752.471,499.5 758.353,499.5 764.235,499.5 770.118,475.786 776,380.245 781.882,185.191 787.765,65.3398 793.647,185.191 799.529,380.245 805.412,475.786 811.294,499.5 817.176,499.5 823.059,499.5 828.941,499.5 834.824,499.5 840.706,499.5 846.588,499.5 852.471,499.5 858.353,499.5 864.235,499.5 870.118,499.5 876,499.5 881.882,499.5 887.765,499.5 893.647,499.5 899.529,499.5 905.412,499.5 911.294,499.5 917.176,499.5 923.059,499.5 928.941,499.5 934.824,499.5 940.706,499.5 946.588,499.5 952.471,499.5 958.353,499.5 964.235,499.5 970.118,499.5 976,499.5 981.882,499.5 987.765,499.5 993.647,499.5 999.529,499.5 1005.41,499.5 1011.29,499.5 1017.18,499.5 1023.06,499.5 1028.94,499.5 1034.82,499.5 1040.71,499.5 1046.59,499.5 1052.47,499.5 1058.35,499.5 1064.24,499.5 1070.12,499.5 1076,499.5 1081.88,499.5 1087.76,499.5 1093.65,499.5 1099.53,499.5 1105.41,499.5 1111.29,499.5 1117.18,499.5 1123.06,499.5 1128.94,499.5 1134.82,499.5 1140.71,499.5 1146.59,499.5 1152.47,499.5 1158.35,499.5 1164.24,499.5 1170.12,499.5 1176,499.5 1181.88,474.001 1187.76,371.271 1193.65,161.539 1199.53,32.6683 1205.41,161.539 1211.29,371.271 1217.18,474.001 1223.06,499.5 1228.94,499.5 1234.82,499.5 1240.71,499.5 1246.59,499.5 1252.47,499.5 1258.35,499.5 1264.24,499.5 1270.12,499.5 1276,499.5 1281.88,499.5 1287.76,499.5 1293.65,499.5 1299.53,499.5 1305.41,499.5 1311.29,499.5 1317.18,499.5 1323.06,499.5 1328.94,499.5 1334.82,499.5 1340.71,499.5 1346.59,499.5 1352.47,499.5 1358.35,499.5 1364.24,499.5 1370.12,499.5 1376,499.5 1381.88,499.5 1387.76,499.5 1393.65,499.5 1399.53,499.5 1405.41,499.5 1411.29,499.5 1417.18,499.5 1423.06,499.5 1428.94,499.5 1434.82,499.5 1440.71,499.5 1446.59,499.5 1452.47,499.5 1458.35,499.5 1464.24,499.5 1470.12,499.5 1476,499.5 1481.88,499.5 1487.76,499.5 1493.65,499.5 1499.53,499.5 1505.41,499.5 1511.29,499.5 1517.18,499.5 1523.06,499.5 1528.94,499.5 1534.82,499.5 1540.71,499.5 1546.59,499.5 1552.47,499.5 1558.35,499.5 1564.24,499.5 1570.12,499.5 1576,499.5 "
         id="polyline428" />
      <clipPath
         id="cliprect1">
        <rect
           x="0"
           y="0"
           width="1618"
           height="1017"
           id="rect432" />
      </clipPath>
    </g>
    <g
       clip-path="url(#cliprect1)"
       id="g437" />
  </g>
</svg>
