<?xml version="1.0" encoding="UTF-8" standalone="no"?>
<svg
   xmlns:dc="http://purl.org/dc/elements/1.1/"
   xmlns:cc="http://creativecommons.org/ns#"
   xmlns:rdf="http://www.w3.org/1999/02/22-rdf-syntax-ns#"
   xmlns:svg="http://www.w3.org/2000/svg"
   xmlns="http://www.w3.org/2000/svg"
   xmlns:sodipodi="http://sodipodi.sourceforge.net/DTD/sodipodi-0.dtd"
   xmlns:inkscape="http://www.inkscape.org/namespaces/inkscape"
   width="970.801pt"
   height="610.2pt"
   viewBox="0 0 1618 1017"
   version="1.1"
   id="svg441"
   sodipodi:docname="r_m_carp.svg"
   inkscape:version="0.92.1 r15371">
  <metadata
     id="metadata447">
    <rdf:RDF>
      <cc:Work
         rdf:about="">
        <dc:format>image/svg+xml</dc:format>
        <dc:type
           rdf:resource="http://purl.org/dc/dcmitype/StillImage" />
      </cc:Work>
    </rdf:RDF>
  </metadata>
  <defs
     id="defs445" />
  <sodipodi:namedview
     pagecolor="#ffffff"
     bordercolor="#666666"
     borderopacity="1"
     objecttolerance="10"
     gridtolerance="10"
     guidetolerance="10"
     inkscape:pageopacity="0"
     inkscape:pageshadow="2"
     inkscape:window-width="1920"
     inkscape:window-height="1019"
     id="namedview443"
     showgrid="false"
     showguides="true"
     inkscape:guide-bbox="true"
     inkscape:zoom="1"
     inkscape:cx="580.32513"
     inkscape:cy="492.19475"
     inkscape:window-x="-9"
     inkscape:window-y="-9"
     inkscape:window-maximized="1"
     inkscape:current-layer="g435" />
  <g
     id="g439">
    <pattern
       id="pattern0"
       patternUnits="userSpaceOnUse"
       x="0"
       y="0"
       width="7"
       height="7">
      <line
         x1="0"
         y1="3"
         x2="7"
         y2="3"
         style="fill:none; stroke:rgb(0,0,0); opacity:1"
         id="line2" />
    </pattern>
    <g
       clip-path="url(#cliprect0)"
       id="g435">
      <polyline
         style="opacity:1;fill:none;stroke:#ccaa00;stroke-width:4.99999977;stroke-linecap:butt;stroke-linejoin:miter;stroke-dasharray:none;stroke-miterlimit:4"
         points="76,477.616 81.8824,483.445 87.7647,488.737 93.6471,493.108 99.5294,497.305 105.412,501.085 111.294,504.486 117.176,507.553 123.059,510.368 128.941,513.053 134.824,515.77 140.706,518.723 146.588,522.155 152.471,526.34 158.353,531.572 164.235,538.15 170.118,546.347 176,556.389 181.882,568.429 187.765,582.519 193.647,598.603 199.529,616.511 205.412,635.97 211.294,656.623 217.176,678.06 223.059,699.852 228.941,721.582 234.824,742.876 240.706,763.423 246.588,782.986 252.471,801.402 258.353,818.58 264.235,834.489 270.118,849.143 276,862.587 281.882,874.888 287.765,886.122 293.647,896.367 299.529,905.7 305.412,914.191 311.294,921.904 317.176,928.896 323.059,935.212 328.941,940.892 334.824,945.966 340.706,950.456 346.588,954.379 352.471,957.743 358.353,960.554 364.235,962.812 370.118,964.52 376,965.675 381.882,966.278 387.765,966.332 393.647,965.84 399.529,964.81 405.412,963.251 411.294,961.173 417.176,958.587 423.059,955.503 428.941,951.931 434.824,947.875 440.706,943.336 446.588,938.31 452.471,932.787 458.353,926.752 464.235,920.182 470.118,913.049 476,905.316 481.882,896.941 487.765,887.87 493.647,878.044 499.529,867.395 505.412,855.847 511.294,843.322 517.176,829.745 523.059,815.052 528.941,799.201 534.824,782.184 540.706,764.038 546.588,744.856 552.471,724.794 558.353,704.07 564.235,682.96 570.118,661.786 576,640.897 581.882,620.649 587.765,601.382 593.647,583.399 599.529,566.948 605.412,552.219 611.294,539.33 617.176,528.341 623.059,519.255 628.941,512.035 634.824,506.607 640.706,502.878 646.588,500.733 652.471,500.043 658.353,500.663 664.235,502.431 670.118,505.167 676,508.679 681.882,512.764 687.765,517.218 693.647,521.846 699.529,526.471 705.412,530.943 711.294,535.143 717.176,538.985 723.059,542.413 728.941,545.403 734.824,547.951 740.706,550.069 746.588,551.783 752.471,553.124 758.353,554.126 764.235,554.825 770.118,555.259 776,555.461 781.882,555.465 787.765,555.301 793.647,554.995 799.529,554.571 805.412,554.045 811.294,553.433 817.176,552.742 823.059,551.98 828.941,551.15 834.824,550.255 840.706,549.3 846.588,548.289 852.471,547.23 858.353,546.132 864.235,545.007 870.118,543.867 876,542.725 881.882,541.593 887.765,540.482 893.647,539.402 899.529,538.36 905.412,537.361 911.294,536.408 917.176,535.498 923.059,534.63 928.941,533.795 934.824,532.987 940.706,532.196 946.588,531.412 952.471,530.629 958.353,529.842 964.235,529.052 970.118,528.263 976,527.483 981.882,526.723 987.765,525.996 993.647,525.313 999.529,524.684 1005.41,524.119 1011.29,523.622 1017.18,523.2 1023.06,522.857 1028.94,522.599 1034.82,522.437 1040.71,522.378 1046.59,522.433 1052.47,522.615 1058.35,522.931 1064.24,523.389 1070.12,523.992 1076,524.74 1081.88,525.628 1087.76,526.648 1093.65,527.787 1099.53,529.032 1105.41,530.365 1111.29,531.768 1117.18,533.224 1123.06,534.713 1128.94,536.215 1134.82,537.705 1140.71,539.157 1146.59,540.537 1152.47,541.805 1158.35,542.914 1164.24,543.812 1170.12,544.449 1176,544.784 1181.88,544.789 1187.76,544.456 1193.65,543.804 1199.53,542.872 1205.41,541.716 1211.29,540.394 1217.18,538.951 1223.06,537.405 1228.94,535.735 1234.82,533.88 1240.71,531.746 1246.59,529.224 1252.47,526.22 1258.35,522.683 1264.24,518.635 1270.12,514.195 1276,509.586 1281.88,505.127 1287.76,501.214 1293.65,498.277 1299.53,496.731 1305.41,496.93 1311.29,499.11 1317.18,503.356 1323.06,509.578 1328.94,517.517 1334.82,526.767 1340.71,536.824 1346.59,547.141 1352.47,557.198 1358.35,566.556 1364.24,574.905 1370.12,582.084 1376,588.087 1381.88,593.036 1387.76,597.151 1393.65,600.697 1399.53,603.939 1405.41,607.092 1411.29,610.295 1417.18,613.582 1423.06,616.887 1428.94,620.052 1434.82,622.859 1440.71,625.065 1446.59,626.443 1452.47,626.815 1458.35,626.075 1464.24,624.199 1470.12,621.227 1476,617.247 1481.88,612.362 1487.76,606.664 1493.65,600.208 1499.53,593.016 1505.41,585.08 1511.29,576.391 1517.18,566.963 1523.06,556.866 1528.94,546.242 1534.82,535.311 1540.71,524.352 1546.59,513.671 1552.47,503.559 1558.35,494.351 1564.24,485.478 1570.12,479.48 1576,475.325 "
         id="polyline426"
         transform="matrix(1,0,0,-1,0,999.01466)" />
      <polyline
         style="fill:none;stroke:rgb(204, 0, 0);stroke-width:4.99999977;stroke-linecap:butt;stroke-linejoin:miter;stroke-dasharray:none;opacity:1;stroke-miterlimit:4"
         points="76,499.5 81.8824,499.5 87.7647,499.5 93.6471,499.5 99.5294,499.5 105.412,499.5 111.294,499.5 117.176,499.5 123.059,499.5 128.941,499.5 134.824,499.5 140.706,499.5 146.588,499.5 152.471,499.5 158.353,499.5 164.235,499.5 170.118,499.5 176,499.5 181.882,499.5 187.765,499.5 193.647,499.5 199.529,499.5 205.412,499.5 211.294,499.5 217.176,499.5 223.059,499.5 228.941,499.5 234.824,499.5 240.706,499.5 246.588,499.5 252.471,499.5 258.353,499.5 264.235,499.5 270.118,499.5 276,499.5 281.882,499.5 287.765,499.5 293.647,499.5 299.529,499.5 305.412,499.5 311.294,499.5 317.176,493.455 323.059,487.396 328.941,476.684 334.824,459.013 340.706,431.865 346.588,393.133 352.471,342.019 358.353,280.003 364.235,211.487 370.118,143.724 376,85.764 381.882,46.5491 387.765,32.6683 393.647,46.5491 399.529,85.764 405.412,143.724 411.294,211.487 417.176,280.003 423.059,342.019 428.941,393.133 434.824,431.865 440.706,459.013 446.588,476.684 452.471,487.396 458.353,493.455 464.235,499.5 470.118,499.5 476,499.5 481.882,499.5 487.765,499.5 493.647,499.5 499.529,499.5 505.412,499.5 511.294,499.5 517.176,499.5 523.059,499.5 528.941,499.5 534.824,499.5 540.706,499.5 546.588,499.5 552.471,499.5 558.353,499.5 564.235,499.5 570.118,499.5 576,499.5 581.882,499.5 587.765,499.5 593.647,499.5 599.529,499.5 605.412,499.5 611.294,499.5 617.176,499.5 623.059,499.5 628.941,499.5 634.824,499.5 640.706,499.5 646.588,499.5 652.471,499.5 658.353,499.5 664.235,499.5 670.118,499.5 676,499.5 681.882,499.5 687.765,499.5 693.647,499.5 699.529,499.5 705.412,499.5 711.294,498.775 717.176,498.049 723.059,496.765 728.941,494.646 734.824,491.392 740.706,486.748 746.588,480.621 752.471,473.186 758.353,464.972 764.235,456.848 770.118,449.9 776,445.199 781.882,443.535 787.765,445.199 793.647,449.9 799.529,456.848 805.412,464.972 811.294,473.186 817.176,480.621 823.059,486.748 828.941,491.392 834.824,494.646 840.706,496.765 846.588,498.049 852.471,498.775 858.353,499.5 864.235,499.5 870.118,499.5 876,499.5 881.882,499.5 887.765,499.5 893.647,499.5 899.529,499.5 905.412,499.5 911.294,499.5 917.176,499.5 923.059,499.5 928.941,499.5 934.824,499.5 940.706,499.5 946.588,499.5 952.471,499.5 958.353,499.5 964.235,499.5 970.118,499.5 976,499.5 981.882,499.5 987.765,499.5 993.647,499.5 999.529,499.5 1005.41,499.5 1011.29,499.5 1017.18,499.5 1023.06,499.5 1028.94,499.5 1034.82,499.5 1040.71,499.5 1046.59,499.5 1052.47,499.5 1058.35,499.5 1064.24,499.5 1070.12,499.5 1076,499.5 1081.88,499.5 1087.76,499.5 1093.65,499.5 1099.53,499.5 1105.41,499.5 1111.29,498.914 1117.18,498.326 1123.06,497.287 1128.94,495.572 1134.82,492.939 1140.71,489.181 1146.59,484.222 1152.47,478.206 1158.35,471.559 1164.24,464.985 1170.12,459.362 1176,455.558 1181.88,454.211 1187.76,455.558 1193.65,459.362 1199.53,464.985 1205.41,471.559 1211.29,478.206 1217.18,484.222 1223.06,489.181 1228.94,492.939 1234.82,495.572 1240.71,497.287 1246.59,498.326 1252.47,498.914 1258.35,499.5 1264.24,499.5 1270.12,499.5 1276,499.5 1281.88,499.5 1287.76,499.5 1293.65,499.5 1299.53,499.5 1305.41,499.5 1311.29,499.5 1317.18,499.5 1323.06,499.5 1328.94,499.5 1334.82,499.5 1340.71,499.5 1346.59,499.5 1352.47,499.5 1358.35,499.5 1364.24,499.5 1370.12,499.5 1376,499.5 1381.88,497.851 1387.76,496.199 1393.65,493.278 1399.53,488.458 1405.41,481.055 1411.29,470.492 1417.18,456.552 1423.06,439.639 1428.94,420.953 1434.82,402.473 1440.71,386.666 1446.59,375.971 1452.47,372.185 1458.35,375.971 1464.24,386.666 1470.12,402.473 1476,420.953 1481.88,439.639 1487.76,456.552 1493.65,470.492 1499.53,481.055 1505.41,488.458 1511.29,493.278 1517.18,496.199 1523.06,497.851 1528.94,499.5 1534.82,499.5 1540.71,499.5 1546.59,499.5 1552.47,499.5 1558.35,499.5 1564.24,499.5 1570.12,499.5 1576,499.5 "
         id="polyline428" />
      <clipPath
         id="cliprect1">
        <rect
           x="0"
           y="0"
           width="1618"
           height="1017"
           id="rect432" />
      </clipPath>
    </g>
    <g
       clip-path="url(#cliprect1)"
       id="g437" />
  </g>
</svg>
