<?xml version="1.0" encoding="UTF-8" standalone="no"?>
<svg
   xmlns:dc="http://purl.org/dc/elements/1.1/"
   xmlns:cc="http://creativecommons.org/ns#"
   xmlns:rdf="http://www.w3.org/1999/02/22-rdf-syntax-ns#"
   xmlns:svg="http://www.w3.org/2000/svg"
   xmlns="http://www.w3.org/2000/svg"
   xmlns:sodipodi="http://sodipodi.sourceforge.net/DTD/sodipodi-0.dtd"
   xmlns:inkscape="http://www.inkscape.org/namespaces/inkscape"
   width="970.801pt"
   height="610.2pt"
   viewBox="0 0 1618 1017"
   version="1.1"
   id="svg441"
   sodipodi:docname="r_m_bonsai_ft.svg"
   inkscape:version="0.92.1 r15371">
  <metadata
     id="metadata447">
    <rdf:RDF>
      <cc:Work
         rdf:about="">
        <dc:format>image/svg+xml</dc:format>
        <dc:type
           rdf:resource="http://purl.org/dc/dcmitype/StillImage" />
      </cc:Work>
    </rdf:RDF>
  </metadata>
  <defs
     id="defs445" />
  <sodipodi:namedview
     pagecolor="#ffffff"
     bordercolor="#666666"
     borderopacity="1"
     objecttolerance="10"
     gridtolerance="10"
     guidetolerance="10"
     inkscape:pageopacity="0"
     inkscape:pageshadow="2"
     inkscape:window-width="1920"
     inkscape:window-height="1019"
     id="namedview443"
     showgrid="false"
     showguides="true"
     inkscape:guide-bbox="true"
     inkscape:zoom="0.5"
     inkscape:cx="1370.069"
     inkscape:cy="390.03893"
     inkscape:window-x="-9"
     inkscape:window-y="-9"
     inkscape:window-maximized="1"
     inkscape:current-layer="g435">
    <sodipodi:guide
       position="1482.9623,517.05076"
       orientation="1,0"
       id="guide449"
       inkscape:locked="false" />
  </sodipodi:namedview>
  <g
     id="g439">
    <pattern
       id="pattern0"
       patternUnits="userSpaceOnUse"
       x="0"
       y="0"
       width="7"
       height="7">
      <line
         x1="0"
         y1="3"
         x2="7"
         y2="3"
         style="fill:none; stroke:rgb(0,0,0); opacity:1"
         id="line2" />
    </pattern>
    <g
       clip-path="url(#cliprect0)"
       id="g435">
      <polyline
         style="opacity:1;fill:none;stroke:#ccaa00;stroke-width:1;stroke-linecap:butt;stroke-linejoin:miter;stroke-dasharray:none"
         points="76,486.864 81.8824,502.713 87.7647,517.887 93.6471,531.865 99.5294,545.582 105.412,558.675 111.294,571.129 117.176,582.901 123.059,593.963 128.941,604.288 134.824,613.841 140.706,622.583 146.588,630.461 152.471,637.421 158.353,643.41 164.235,648.389 170.118,652.346 176,655.301 181.882,657.313 187.765,658.488 193.647,658.969 199.529,658.932 205.412,658.571 211.294,658.083 217.176,657.647 223.059,657.4 228.941,657.421 234.824,657.715 240.706,658.206 246.588,658.747 252.471,659.137 258.353,659.153 264.235,658.592 270.118,657.31 276,655.257 281.882,652.497 287.765,649.21 293.647,645.677 299.529,642.241 305.412,639.27 311.294,637.108 317.176,636.048 323.059,636.306 328.941,638.027 334.824,641.293 340.706,646.149 346.588,652.625 352.471,660.753 358.353,670.571 364.235,682.112 370.118,695.391 376,710.373 381.882,726.955 387.765,744.949 393.647,764.085 399.529,784.016 405.412,804.343 411.294,824.641 417.176,844.492 423.059,863.505 428.941,881.343 434.824,897.731 440.706,912.464 446.588,925.407 452.471,936.489 458.353,945.698 464.235,953.075 470.118,958.701 476,962.69 481.882,965.182 487.765,966.332 493.647,966.303 499.529,965.259 505.412,963.357 511.294,960.746 517.176,957.562 523.059,953.929 528.941,949.958 534.824,945.749 540.706,941.391 546.588,936.959 552.471,932.514 558.353,928.102 564.235,923.749 570.118,919.461 576,915.225 581.882,911.013 587.765,906.785 593.647,902.496 599.529,898.107 605.412,893.587 611.294,888.922 617.176,884.113 623.059,879.179 628.941,874.148 634.824,869.058 640.706,863.945 646.588,858.84 652.471,853.761 658.353,848.711 664.235,843.675 670.118,838.617 676,833.489 681.882,828.229 687.765,822.771 693.647,817.047 699.529,811 705.412,804.583 711.294,797.769 717.176,790.547 723.059,782.925 728.941,774.925 734.824,766.581 740.706,757.932 746.588,749.018 752.471,739.878 758.353,730.547 764.235,721.055 770.118,711.429 776,701.696 781.882,691.882 787.765,682.018 793.647,672.145 799.529,662.312 805.412,652.584 811.294,643.04 817.176,633.778 823.059,624.911 828.941,616.564 834.824,608.872 840.706,601.967 846.588,595.971 852.471,590.989 858.353,587.094 864.235,584.322 870.118,582.671 876,582.094 881.882,582.509 887.765,583.803 893.647,585.844 899.529,588.493 905.412,591.612 911.294,595.081 917.176,598.8 923.059,602.696 928.941,606.725 934.824,610.871 940.706,615.145 946.588,619.578 952.471,624.215 958.353,629.112 964.235,634.33 970.118,639.929 976,645.965 981.882,652.487 987.765,659.533 993.647,667.132 999.529,675.298 1005.41,684.034 1011.29,693.33 1017.18,703.16 1023.06,713.485 1028.94,724.256 1034.82,735.41 1040.71,746.873 1046.59,758.567 1052.47,770.407 1058.35,782.305 1064.24,794.171 1070.12,805.917 1076,817.451 1081.88,828.686 1087.76,839.529 1093.65,849.889 1099.53,859.671 1105.41,868.776 1111.29,877.101 1117.18,884.531 1123.06,890.946 1128.94,896.209 1134.82,900.169 1140.71,902.659 1146.59,903.496 1152.47,902.481 1158.35,899.412 1164.24,894.081 1170.12,886.292 1176,875.871 1181.88,862.678 1187.76,846.629 1193.65,827.709 1199.53,805.995 1205.41,781.676 1211.29,755.07 1217.18,726.638 1223.06,696.98 1228.94,666.829 1234.82,637.018 1240.71,608.434 1246.59,581.952 1252.47,558.367 1258.35,538.307 1264.24,522.168 1270.12,510.055 1276,501.751 1281.88,496.721 1287.76,494.138 1293.65,492.952 1299.53,491.969 1305.41,489.955 1311.29,485.729 1317.18,478.262 1323.06,466.747 1328.94,450.66 1334.82,429.791 1340.71,404.263 1346.59,374.532 1352.47,341.371 1358.35,305.844 1364.24,269.256 1370.12,233.096 1376,198.949 1381.88,168.398 1387.76,142.913 1393.65,123.733 1399.53,111.778 1405.41,107.566 1411.29,111.196 1417.18,122.356 1423.06,140.388 1428.94,164.379 1434.82,193.28 1440.71,226.014 1446.59,261.569 1452.47,299.058 1458.35,337.741 1464.24,377.004 1470.12,416.317 1476,455.17 1481.88,493.009 1487.76,529.19 1493.65,562.952 1499.53,593.411 1505.41,619.585 1511.29,640.433 1517.18,654.909 1523.06,662.022 1528.94,660.895 1534.82,650.831 1540.71,631.375 1546.59,602.405 1552.47,564.174 1558.35,516.739 1564.24,465.438 1570.12,396.192 1576,316.827 "
         id="polyline426"
         transform="matrix(1,0,0,-1,0,998.7979)" />
      <polyline
         style="fill:none; stroke:rgb(204,0,0); stroke-width:1; stroke-linecap:butt; stroke-linejoin:miter; stroke-dasharray:0; opacity:1"
         points="76,499.5 81.8824,499.5 87.7647,499.5 93.6471,499.5 99.5294,499.5 105.412,499.5 111.294,499.5 117.176,499.5 123.059,499.5 128.941,499.5 134.824,499.5 140.706,499.5 146.588,499.5 152.471,499.5 158.353,499.5 164.235,499.5 170.118,499.5 176,499.5 181.882,499.5 187.765,499.5 193.647,499.5 199.529,499.5 205.412,499.5 211.294,499.5 217.176,499.5 223.059,499.5 228.941,499.5 234.824,499.5 240.706,499.5 246.588,499.5 252.471,499.5 258.353,499.5 264.235,499.5 270.118,499.5 276,499.5 281.882,499.5 287.765,499.5 293.647,499.5 299.529,499.5 305.412,499.5 311.294,499.5 317.176,499.5 323.059,499.5 328.941,499.5 334.824,499.5 340.706,499.5 346.588,499.5 352.471,492.715 358.353,489.775 364.235,485.783 370.118,480.46 376,473.489 381.882,464.531 387.765,453.234 393.647,439.259 399.529,422.307 405.412,402.155 411.294,378.69 417.176,351.947 423.059,322.146 428.941,289.708 434.824,255.275 440.706,219.703 446.588,184.037 452.471,149.469 458.353,117.276 464.235,88.7467 470.118,65.0928 476,47.3677 481.882,36.3874 487.765,32.6683 493.647,36.3874 499.529,47.3677 505.412,65.0928 511.294,88.7467 517.176,117.276 523.059,149.469 528.941,184.037 534.824,219.703 540.706,255.275 546.588,289.708 552.471,322.146 558.353,351.947 564.235,378.69 570.118,402.155 576,422.307 581.882,439.259 587.765,453.234 593.647,464.531 599.529,473.489 605.412,480.46 611.294,485.783 617.176,489.775 623.059,492.715 628.941,499.5 634.824,499.5 640.706,499.5 646.588,499.5 652.471,499.5 658.353,499.5 664.235,499.5 670.118,499.5 676,499.5 681.882,499.5 687.765,499.5 693.647,499.5 699.529,499.5 705.412,499.5 711.294,499.5 717.176,499.5 723.059,499.5 728.941,499.5 734.824,499.5 740.706,499.5 746.588,499.5 752.471,499.5 758.353,499.5 764.235,499.5 770.118,499.5 776,499.5 781.882,499.5 787.765,499.5 793.647,499.5 799.529,499.5 805.412,499.5 811.294,499.5 817.176,499.5 823.059,499.5 828.941,499.5 834.824,499.5 840.706,499.5 846.588,499.5 852.471,499.5 858.353,499.5 864.235,499.5 870.118,499.5 876,499.5 881.882,499.5 887.765,499.5 893.647,499.5 899.529,499.5 905.412,499.5 911.294,499.5 917.176,499.5 923.059,499.5 928.941,499.5 934.824,499.5 940.706,499.5 946.588,499.5 952.471,499.5 958.353,499.5 964.235,499.5 970.118,499.5 976,499.5 981.882,499.5 987.765,499.5 993.647,499.5 999.529,499.5 1005.41,499.5 1011.29,499.5 1017.18,499.5 1023.06,499.5 1028.94,499.5 1034.82,499.5 1040.71,499.5 1046.59,499.5 1052.47,499.5 1058.35,499.5 1064.24,499.5 1070.12,499.5 1076,499.5 1081.88,499.5 1087.76,499.5 1093.65,499.5 1099.53,499.5 1105.41,499.5 1111.29,499.5 1117.18,499.5 1123.06,499.5 1128.94,499.5 1134.82,499.5 1140.71,499.5 1146.59,499.5 1152.47,499.5 1158.35,499.5 1164.24,499.5 1170.12,499.5 1176,499.5 1181.88,499.5 1187.76,499.5 1193.65,499.5 1199.53,499.5 1205.41,499.5 1211.29,499.5 1217.18,499.5 1223.06,499.5 1228.94,499.5 1234.82,499.5 1240.71,499.5 1246.59,499.5 1252.47,499.5 1258.35,499.5 1264.24,499.5 1270.12,499.5 1276,499.5 1281.88,499.5 1287.76,499.5 1293.65,499.5 1299.53,499.5 1305.41,499.5 1311.29,499.5 1317.18,499.5 1323.06,499.5 1328.94,499.5 1334.82,499.5 1340.71,499.5 1346.59,499.5 1352.47,499.5 1358.35,499.5 1364.24,499.5 1370.12,499.5 1376,499.5 1381.88,499.5 1387.76,499.5 1393.65,499.5 1399.53,499.5 1405.41,499.5 1411.29,499.5 1417.18,499.5 1423.06,499.5 1428.94,499.5 1434.82,499.5 1440.71,499.5 1446.59,499.5 1452.47,499.5 1458.35,499.5 1464.24,499.5 1470.12,499.5 1476,499.5 1481.88,499.5 1487.76,499.5 1493.65,499.5 1499.53,499.5 1505.41,499.5 1511.29,499.5 1517.18,499.5 1523.06,499.5 1528.94,499.5 1534.82,499.5 1540.71,499.5 1546.59,499.5 1552.47,499.5 1558.35,499.5 1564.24,499.5 1570.12,499.5 1576,499.5 "
         id="polyline428" />
      <clipPath
         id="cliprect1">
        <rect
           x="0"
           y="0"
           width="1618"
           height="1017"
           id="rect432" />
      </clipPath>
    </g>
    <g
       clip-path="url(#cliprect1)"
       id="g437" />
  </g>
</svg>
