<?xml version="1.0" encoding="UTF-8" standalone="no"?>
<svg
   xmlns:dc="http://purl.org/dc/elements/1.1/"
   xmlns:cc="http://creativecommons.org/ns#"
   xmlns:rdf="http://www.w3.org/1999/02/22-rdf-syntax-ns#"
   xmlns:svg="http://www.w3.org/2000/svg"
   xmlns="http://www.w3.org/2000/svg"
   xmlns:sodipodi="http://sodipodi.sourceforge.net/DTD/sodipodi-0.dtd"
   xmlns:inkscape="http://www.inkscape.org/namespaces/inkscape"
   width="970.801pt"
   height="610.2pt"
   viewBox="0 0 1618 1017"
   version="1.1"
   id="svg441"
   sodipodi:docname="r_m_skull.svg"
   inkscape:version="0.92.1 r15371">
  <metadata
     id="metadata447">
    <rdf:RDF>
      <cc:Work
         rdf:about="">
        <dc:format>image/svg+xml</dc:format>
        <dc:type
           rdf:resource="http://purl.org/dc/dcmitype/StillImage" />
      </cc:Work>
    </rdf:RDF>
  </metadata>
  <defs
     id="defs445" />
  <sodipodi:namedview
     pagecolor="#ffffff"
     bordercolor="#666666"
     borderopacity="1"
     objecttolerance="10"
     gridtolerance="10"
     guidetolerance="10"
     inkscape:pageopacity="0"
     inkscape:pageshadow="2"
     inkscape:window-width="1920"
     inkscape:window-height="1019"
     id="namedview443"
     showgrid="false"
     showguides="true"
     inkscape:guide-bbox="true"
     inkscape:zoom="0.5"
     inkscape:cx="1441.1754"
     inkscape:cy="428.42954"
     inkscape:window-x="-9"
     inkscape:window-y="-9"
     inkscape:window-maximized="1"
     inkscape:current-layer="g435">
    <sodipodi:guide
       position="105.77626,517.05076"
       orientation="1,0"
       id="guide449"
       inkscape:locked="false" />
  </sodipodi:namedview>
  <g
     id="g439">
    <pattern
       id="pattern0"
       patternUnits="userSpaceOnUse"
       x="0"
       y="0"
       width="7"
       height="7">
      <line
         x1="0"
         y1="3"
         x2="7"
         y2="3"
         style="fill:none; stroke:rgb(0,0,0); opacity:1"
         id="line2" />
    </pattern>
    <g
       clip-path="url(#cliprect0)"
       id="g435">
      <polyline
         style="opacity:1;fill:none;stroke:#ccaa00;stroke-width:1;stroke-linecap:butt;stroke-linejoin:miter;stroke-dasharray:none"
         points="76,488.311 81.8824,491.344 87.7647,493.991 93.6471,495.98 99.5294,497.849 105.412,499.426 111.294,500.738 117.176,501.807 123.059,502.669 128.941,503.37 134.824,503.961 140.706,504.492 146.588,505.01 152.471,505.56 158.353,506.178 164.235,506.895 170.118,507.735 176,508.714 181.882,509.846 187.765,511.137 193.647,512.591 199.529,514.205 205.412,515.976 211.294,517.895 217.176,519.95 223.059,522.128 228.941,524.41 234.824,526.774 240.706,529.195 246.588,531.644 252.471,534.09 258.353,536.5 264.235,538.842 270.118,541.084 276,543.197 281.882,545.157 287.765,546.945 293.647,548.547 299.529,549.956 305.412,551.171 311.294,552.196 317.176,553.039 323.059,553.713 328.941,554.231 334.824,554.606 340.706,554.851 346.588,554.98 352.471,555.002 358.353,554.928 364.235,554.766 370.118,554.521 376,554.202 381.882,553.813 387.765,553.361 393.647,552.851 399.529,552.291 405.412,551.684 411.294,551.037 417.176,550.354 423.059,549.64 428.941,548.899 434.824,548.135 440.706,547.353 446.588,546.558 452.471,545.755 458.353,544.95 464.235,544.151 470.118,543.364 476,542.597 481.882,541.857 487.765,541.15 493.647,540.479 499.529,539.848 505.412,539.257 511.294,538.706 517.176,538.191 523.059,537.71 528.941,537.26 534.824,536.84 540.706,536.447 546.588,536.084 552.471,535.753 558.353,535.456 564.235,535.199 570.118,534.986 576,534.82 581.882,534.704 587.765,534.64 593.647,534.628 599.529,534.667 605.412,534.757 611.294,534.898 617.176,535.09 623.059,535.337 628.941,535.645 634.824,536.022 640.706,536.479 646.588,537.026 652.471,537.676 658.353,538.44 664.235,539.327 670.118,540.345 676,541.498 681.882,542.788 687.765,544.215 693.647,545.779 699.529,547.48 705.412,549.318 711.294,551.292 717.176,553.4 723.059,555.641 728.941,558.007 734.824,560.489 740.706,563.07 746.588,565.732 752.471,568.451 758.353,571.202 764.235,573.957 770.118,576.691 776,579.377 781.882,581.99 787.765,584.51 793.647,586.92 799.529,589.208 805.412,591.371 811.294,593.411 817.176,595.343 823.059,597.184 828.941,598.959 834.824,600.694 840.706,602.412 846.588,604.126 852.471,605.842 858.353,607.553 864.235,609.238 870.118,610.87 876,612.416 881.882,613.845 887.765,615.13 893.647,616.255 899.529,617.215 905.412,618.019 911.294,618.684 917.176,619.241 923.059,619.727 928.941,620.181 934.824,620.643 940.706,621.152 946.588,621.741 952.471,622.434 958.353,623.251 964.235,624.202 970.118,625.297 976,626.541 981.882,627.944 987.765,629.519 993.647,631.288 999.529,633.277 1005.41,635.516 1011.29,638.037 1017.18,640.869 1023.06,644.034 1028.94,647.547 1034.82,651.411 1040.71,655.621 1046.59,660.166 1052.47,665.029 1058.35,670.194 1064.24,675.642 1070.12,681.359 1076,687.331 1081.88,693.546 1087.76,699.985 1093.65,706.627 1099.53,713.443 1105.41,720.397 1111.29,727.447 1117.18,734.55 1123.06,741.663 1128.94,748.752 1134.82,755.794 1140.71,762.784 1146.59,769.734 1152.47,776.673 1158.35,783.648 1164.24,790.714 1170.12,797.936 1176,805.372 1181.88,813.077 1187.76,821.088 1193.65,829.428 1199.53,838.097 1205.41,847.076 1211.29,856.33 1217.18,865.804 1223.06,875.427 1228.94,885.115 1234.82,894.767 1240.71,904.265 1246.59,913.478 1252.47,922.264 1258.35,930.477 1264.24,937.976 1270.12,944.641 1276,950.383 1281.88,955.155 1287.76,958.961 1293.65,961.851 1299.53,963.914 1305.41,965.267 1311.29,966.034 1317.18,966.332 1323.06,966.256 1328.94,965.878 1334.82,965.244 1340.71,964.387 1346.59,963.34 1352.47,962.149 1358.35,960.878 1364.24,959.616 1370.12,958.465 1376,957.529 1381.88,956.893 1387.76,956.606 1393.65,956.666 1399.53,957.01 1405.41,957.52 1411.29,958.034 1417.18,958.37 1423.06,958.349 1428.94,957.827 1434.82,956.721 1440.71,955.018 1446.59,952.783 1452.47,950.141 1458.35,947.257 1464.24,944.295 1470.12,941.384 1476,938.584 1481.88,935.855 1487.76,933.046 1493.65,929.891 1499.53,926.014 1505.41,920.942 1511.29,914.118 1517.18,904.916 1523.06,892.661 1528.94,876.65 1534.82,856.193 1540.71,830.661 1546.59,799.581 1552.47,762.706 1558.35,719.612 1564.24,673.971 1570.12,614.677 1576,547.371 "
         id="polyline426"
         transform="matrix(1,0,0,-1,0,999.0078)" />
      <polyline
         style="fill:none; stroke:rgb(204,0,0); stroke-width:1; stroke-linecap:butt; stroke-linejoin:miter; stroke-dasharray:0; opacity:1"
         points="76,499.5 81.8824,499.5 87.7647,499.5 93.6471,499.5 99.5294,499.5 105.412,499.5 111.294,499.5 117.176,499.5 123.059,499.5 128.941,499.5 134.824,499.5 140.706,499.5 146.588,499.5 152.471,499.5 158.353,499.5 164.235,499.5 170.118,499.5 176,499.5 181.882,499.5 187.765,499.5 193.647,499.5 199.529,499.5 205.412,499.5 211.294,499.5 217.176,499.5 223.059,499.5 228.941,499.5 234.824,499.5 240.706,499.5 246.588,499.5 252.471,499.5 258.353,499.5 264.235,499.5 270.118,499.5 276,499.5 281.882,499.5 287.765,499.5 293.647,499.5 299.529,499.5 305.412,499.5 311.294,499.5 317.176,499.5 323.059,487.345 328.941,454.301 334.824,373.964 340.706,239.093 346.588,96.0558 352.471,32.6683 358.353,96.0558 364.235,239.093 370.118,373.964 376,454.301 381.882,487.345 387.765,499.5 393.647,499.5 399.529,499.5 405.412,499.5 411.294,499.5 417.176,499.5 423.059,499.5 428.941,499.5 434.824,499.5 440.706,499.5 446.588,499.5 452.471,499.5 458.353,499.5 464.235,499.5 470.118,499.5 476,499.5 481.882,499.5 487.765,499.5 493.647,499.5 499.529,499.5 505.412,499.5 511.294,499.5 517.176,499.5 523.059,499.5 528.941,499.5 534.824,499.5 540.706,499.5 546.588,499.5 552.471,499.5 558.353,499.5 564.235,499.5 570.118,499.5 576,499.5 581.882,499.5 587.765,499.5 593.647,499.5 599.529,499.5 605.412,499.5 611.294,499.5 617.176,499.5 623.059,499.5 628.941,499.5 634.824,499.5 640.706,499.5 646.588,499.5 652.471,499.5 658.353,499.5 664.235,499.5 670.118,499.5 676,499.5 681.882,499.5 687.765,499.5 693.647,499.5 699.529,499.5 705.412,499.5 711.294,499.5 717.176,499.5 723.059,499.5 728.941,499.5 734.824,499.5 740.706,499.5 746.588,499.5 752.471,499.5 758.353,499.5 764.235,499.5 770.118,499.5 776,499.5 781.882,499.5 787.765,499.5 793.647,499.5 799.529,499.5 805.412,499.5 811.294,499.5 817.176,499.5 823.059,499.5 828.941,499.5 834.824,499.5 840.706,499.5 846.588,499.5 852.471,499.5 858.353,499.5 864.235,499.5 870.118,499.5 876,499.5 881.882,499.5 887.765,499.5 893.647,499.5 899.529,499.5 905.412,499.5 911.294,499.5 917.176,499.5 923.059,499.5 928.941,499.5 934.824,499.5 940.706,499.5 946.588,499.5 952.471,499.5 958.353,499.5 964.235,499.5 970.118,499.5 976,499.5 981.882,499.5 987.765,499.5 993.647,499.5 999.529,499.5 1005.41,499.5 1011.29,499.5 1017.18,499.5 1023.06,499.5 1028.94,499.5 1034.82,499.5 1040.71,499.5 1046.59,499.5 1052.47,499.5 1058.35,499.5 1064.24,499.5 1070.12,499.5 1076,499.5 1081.88,499.5 1087.76,499.5 1093.65,499.5 1099.53,499.5 1105.41,499.5 1111.29,499.5 1117.18,499.5 1123.06,499.5 1128.94,499.5 1134.82,499.5 1140.71,499.5 1146.59,499.5 1152.47,499.5 1158.35,499.5 1164.24,499.5 1170.12,499.5 1176,499.5 1181.88,499.5 1187.76,499.5 1193.65,499.5 1199.53,499.5 1205.41,499.5 1211.29,499.5 1217.18,499.5 1223.06,499.5 1228.94,499.5 1234.82,499.5 1240.71,499.5 1246.59,499.5 1252.47,499.5 1258.35,499.5 1264.24,499.5 1270.12,499.5 1276,499.5 1281.88,499.5 1287.76,499.5 1293.65,499.5 1299.53,499.5 1305.41,499.5 1311.29,499.5 1317.18,499.5 1323.06,499.5 1328.94,499.5 1334.82,499.5 1340.71,499.5 1346.59,499.5 1352.47,499.5 1358.35,499.5 1364.24,499.5 1370.12,499.5 1376,499.5 1381.88,499.5 1387.76,499.5 1393.65,499.5 1399.53,499.5 1405.41,499.5 1411.29,499.5 1417.18,499.5 1423.06,499.5 1428.94,499.5 1434.82,499.5 1440.71,499.5 1446.59,499.5 1452.47,499.5 1458.35,499.5 1464.24,499.5 1470.12,499.5 1476,499.5 1481.88,499.5 1487.76,499.5 1493.65,499.5 1499.53,499.5 1505.41,499.5 1511.29,499.5 1517.18,499.5 1523.06,499.5 1528.94,499.5 1534.82,499.5 1540.71,499.5 1546.59,499.5 1552.47,499.5 1558.35,499.5 1564.24,499.5 1570.12,499.5 1576,499.5 "
         id="polyline428" />
      <clipPath
         id="cliprect1">
        <rect
           x="0"
           y="0"
           width="1618"
           height="1017"
           id="rect432" />
      </clipPath>
    </g>
    <g
       clip-path="url(#cliprect1)"
       id="g437" />
  </g>
</svg>
