<?xml version="1.0" encoding="UTF-8" standalone="no"?>
<svg
   xmlns:dc="http://purl.org/dc/elements/1.1/"
   xmlns:cc="http://creativecommons.org/ns#"
   xmlns:rdf="http://www.w3.org/1999/02/22-rdf-syntax-ns#"
   xmlns:svg="http://www.w3.org/2000/svg"
   xmlns="http://www.w3.org/2000/svg"
   xmlns:sodipodi="http://sodipodi.sourceforge.net/DTD/sodipodi-0.dtd"
   xmlns:inkscape="http://www.inkscape.org/namespaces/inkscape"
   width="1080.4727pt"
   height="627.4823pt"
   viewBox="0 0 1800.7858 1045.8038"
   version="1.1"
   id="svg441"
   sodipodi:docname="r_m_nucleon.svg"
   inkscape:version="0.92.1 r15371">
  <metadata
     id="metadata447">
    <rdf:RDF>
      <cc:Work
         rdf:about="">
        <dc:format>image/svg+xml</dc:format>
        <dc:type
           rdf:resource="http://purl.org/dc/dcmitype/StillImage" />
      </cc:Work>
    </rdf:RDF>
  </metadata>
  <defs
     id="defs445" />
  <sodipodi:namedview
     pagecolor="#ffffff"
     bordercolor="#666666"
     borderopacity="1"
     objecttolerance="10"
     gridtolerance="10"
     guidetolerance="10"
     inkscape:pageopacity="0"
     inkscape:pageshadow="2"
     inkscape:window-width="1360"
     inkscape:window-height="715"
     id="namedview443"
     showgrid="false"
     showguides="true"
     inkscape:guide-bbox="true"
     inkscape:zoom="0.41021926"
     inkscape:cx="733.80347"
     inkscape:cy="581.82752"
     inkscape:window-x="-8"
     inkscape:window-y="-8"
     inkscape:window-maximized="1"
     inkscape:current-layer="g4495" />
  <g
     id="g439"
     transform="translate(-8.1236532,20.50663)">
    <pattern
       id="pattern0"
       patternUnits="userSpaceOnUse"
       x="0"
       y="0"
       width="7"
       height="7">
      <line
         x1="0"
         y1="3"
         x2="7"
         y2="3"
         style="fill:none; stroke:rgb(0,0,0); opacity:1"
         id="line2" />
    </pattern>
    <g
       clip-path="url(#cliprect0)"
       id="g435">
      <g
         id="g4495"
         transform="matrix(0.16666665,0,0,-0.16666665,13.265005,545.56828)">
        <path
           d="M 477.5277,276.40972 H 267.4257"
           style="fill:none;stroke:#000000;stroke-width:20;stroke-linecap:butt;stroke-linejoin:miter;stroke-miterlimit:4;stroke-dasharray:none;stroke-opacity:1"
           id="path4525-1-0-2"
           inkscape:connector-curvature="0" />
        <path
           style="fill:none;stroke:#000000;stroke-width:19.60477066;stroke-linecap:butt;stroke-linejoin:miter;stroke-miterlimit:4;stroke-dasharray:none;stroke-opacity:1"
           d="M 9674.1923,276.40972 H 376.41001"
           id="path5658-2"
           inkscape:connector-curvature="0" />
        <path
           d="m 444.688,3255.7498 -137.27,0.46 68.992,140.24 z"
           style="fill:#000000;fill-opacity:1;fill-rule:nonzero;stroke:none"
           id="path4507"
           inkscape:connector-curvature="0" />
        <path
           d="m 9672.0533,208.12919 0.46,137.261 140.2,-68.98 z"
           style="fill:#000000;fill-opacity:1;fill-rule:nonzero;stroke:none"
           id="path4517"
           inkscape:connector-curvature="0" />
        <text
           xml:space="preserve"
           style="font-style:normal;font-variant:normal;font-weight:normal;font-stretch:normal;font-size:320px;line-height:1.25;font-family:Arial;-inkscape-font-specification:'Arial, Normal';font-variant-ligatures:normal;font-variant-caps:normal;font-variant-numeric:normal;font-feature-settings:normal;text-align:start;letter-spacing:0px;word-spacing:0px;writing-mode:lr-tb;text-anchor:start;fill:#000000;fill-opacity:1;stroke:none;stroke-width:7.5"
           x="19.296806"
           y="-164.56311"
           id="text6467"
           transform="scale(1,-1)"><tspan
             sodipodi:role="line"
             id="tspan6465"
             x="19.296806"
             y="-164.56311"
             style="font-style:normal;font-variant:normal;font-weight:normal;font-stretch:normal;font-size:320px;font-family:Arial;-inkscape-font-specification:'Arial, Normal';font-variant-ligatures:normal;font-variant-caps:normal;font-variant-numeric:normal;font-feature-settings:normal;text-align:start;writing-mode:lr-tb;text-anchor:start;stroke-width:7.5">0</tspan></text>
        <text
           xml:space="preserve"
           style="font-style:normal;font-variant:normal;font-weight:normal;font-stretch:normal;font-size:560px;line-height:1.25;font-family:Vijaya;-inkscape-font-specification:'Vijaya, Normal';font-variant-ligatures:normal;font-variant-caps:normal;font-variant-numeric:normal;font-feature-settings:normal;text-align:start;letter-spacing:0px;word-spacing:0px;writing-mode:lr-tb;text-anchor:start;fill:#000000;fill-opacity:1;stroke:none;stroke-width:7.5"
           x="9749.3174"
           y="25.07062"
           id="text6471"
           transform="scale(1,-1)"><tspan
             sodipodi:role="line"
             id="tspan6469"
             x="9749.3174"
             y="25.07062"
             style="font-style:normal;font-variant:normal;font-weight:normal;font-stretch:normal;font-size:560px;font-family:Vijaya;-inkscape-font-specification:'Vijaya, Normal';font-variant-ligatures:normal;font-variant-caps:normal;font-variant-numeric:normal;font-feature-settings:normal;text-align:start;writing-mode:lr-tb;text-anchor:start;stroke-width:7.5">v</tspan></text>
        <path
           style="fill:none;stroke:#000000;stroke-width:20;stroke-linecap:butt;stroke-linejoin:miter;stroke-miterlimit:4;stroke-dasharray:none;stroke-opacity:1"
           d="m 376.41,3267.4719 v -6017.167"
           id="path5658"
           inkscape:connector-curvature="0" />
        <path
           d="m 308.13201,-2737.6704 137.27,-0.46 -68.992,-140.24 z"
           style="fill:#000000;fill-opacity:1;fill-rule:nonzero;stroke:none;stroke-width:0.99999994"
           id="path4507-0"
           inkscape:connector-curvature="0" />
        <text
           xml:space="preserve"
           style="font-style:normal;font-variant:normal;font-weight:normal;font-stretch:normal;font-size:320px;line-height:1.25;font-family:Arial;-inkscape-font-specification:'Arial, Normal';font-variant-ligatures:normal;font-variant-caps:normal;font-variant-numeric:normal;font-feature-settings:normal;text-align:start;letter-spacing:0px;word-spacing:0px;writing-mode:lr-tb;text-anchor:start;fill:#000000;fill-opacity:1;stroke:none;stroke-width:7.5"
           x="-41.004364"
           y="2634.1108"
           id="text6463-6"
           transform="scale(1,-1)"><tspan
             sodipodi:role="line"
             id="tspan6461-6"
             x="-41.004364"
             y="2634.1108"
             style="font-style:normal;font-variant:normal;font-weight:normal;font-stretch:normal;font-size:320px;font-family:Arial;-inkscape-font-specification:'Arial, Normal';font-variant-ligatures:normal;font-variant-caps:normal;font-variant-numeric:normal;font-feature-settings:normal;text-align:start;writing-mode:lr-tb;text-anchor:start;stroke-width:7.5">-1</tspan></text>
        <path
           d="m 9674.1923,2338.0146 h 190 v 190 h -190 z"
           style="fill:#cc0000;fill-opacity:1;fill-rule:nonzero;stroke:none;stroke-width:0.99999994"
           id="path5774-9"
           inkscape:connector-curvature="0" />
        <text
           xml:space="preserve"
           style="font-style:normal;font-variant:normal;font-weight:normal;font-stretch:normal;font-size:560px;line-height:1.25;font-family:Vijaya;-inkscape-font-specification:'Vijaya, Normal';font-variant-ligatures:normal;font-variant-caps:normal;font-variant-numeric:normal;font-feature-settings:normal;text-align:start;letter-spacing:0px;word-spacing:0px;writing-mode:lr-tb;text-anchor:start;fill:#000000;fill-opacity:1;stroke:none;stroke-width:7.5"
           x="9992.7422"
           y="-2331.4438"
           id="text6430"
           transform="scale(1,-1)"><tspan
             sodipodi:role="line"
             id="tspan6428"
             x="9992.7422"
             y="-2331.4438"
             style="font-style:normal;font-variant:normal;font-weight:normal;font-stretch:normal;font-size:560px;font-family:Vijaya;-inkscape-font-specification:'Vijaya, Normal';font-variant-ligatures:normal;font-variant-caps:normal;font-variant-numeric:normal;font-feature-settings:normal;text-align:start;writing-mode:lr-tb;text-anchor:start;stroke-width:7.5">a(v)</tspan></text>
        <path
           d="M 9366.0972,379.92718 V 169.8252"
           style="fill:none;stroke:#000000;stroke-width:20;stroke-linecap:butt;stroke-linejoin:miter;stroke-miterlimit:4;stroke-dasharray:none;stroke-opacity:1"
           id="path4525-1"
           inkscape:connector-curvature="0" />
        <path
           d="m 480.44018,-2524.5825 h -210.102"
           style="fill:none;stroke:#000000;stroke-width:20;stroke-linecap:butt;stroke-linejoin:miter;stroke-miterlimit:4;stroke-dasharray:none;stroke-opacity:1"
           id="path4525-1-0"
           inkscape:connector-curvature="0" />
        <text
           xml:space="preserve"
           style="font-style:normal;font-variant:normal;font-weight:normal;font-stretch:normal;font-size:320px;line-height:1.25;font-family:Arial;-inkscape-font-specification:'Arial, Normal';font-variant-ligatures:normal;font-variant-caps:normal;font-variant-numeric:normal;font-feature-settings:normal;text-align:start;letter-spacing:0px;word-spacing:0px;writing-mode:lr-tb;text-anchor:start;fill:#000000;fill-opacity:1;stroke:none;stroke-width:7.5"
           x="64.603706"
           y="-2985.6738"
           id="text6463-6-2"
           transform="scale(1,-1)"><tspan
             sodipodi:role="line"
             id="tspan6461-6-6"
             x="64.603706"
             y="-2985.6738"
             style="font-style:normal;font-variant:normal;font-weight:normal;font-stretch:normal;font-size:320px;font-family:Arial;-inkscape-font-specification:'Arial, Normal';font-variant-ligatures:normal;font-variant-caps:normal;font-variant-numeric:normal;font-feature-settings:normal;text-align:start;writing-mode:lr-tb;text-anchor:start;stroke-width:7.5">1</tspan></text>
        <path
           d="m 485.73577,3098.0145 h -210.102"
           style="fill:none;stroke:#000000;stroke-width:20;stroke-linecap:butt;stroke-linejoin:miter;stroke-miterlimit:4;stroke-dasharray:none;stroke-opacity:1"
           id="path4525-1-0-3"
           inkscape:connector-curvature="0" />
        <g
           id="g4618"
           transform="translate(1060.6602,2704.6835)">
          <text
             transform="scale(1,-1)"
             id="text5022"
             y="1678.3165"
             x="8999.3662"
             style="font-style:normal;font-variant:normal;font-weight:normal;font-stretch:normal;font-size:360px;line-height:1.25;font-family:Vijaya;-inkscape-font-specification:'Vijaya, Normal';font-variant-ligatures:normal;font-variant-caps:normal;font-variant-numeric:normal;font-feature-settings:normal;text-align:start;letter-spacing:0px;word-spacing:0px;writing-mode:lr-tb;text-anchor:start;fill:#000000;fill-opacity:1;stroke:none;stroke-width:7.5"
             xml:space="preserve"><tspan
               style="stroke-width:7.5"
               y="1678.3165"
               x="8999.3662"
               id="tspan5020"
               sodipodi:role="line">thresh</tspan></text>
          <text
             transform="scale(1,-1)"
             id="text5026"
             y="1573.0807"
             x="8775.7422"
             style="font-style:normal;font-variant:normal;font-weight:normal;font-stretch:normal;font-size:360px;line-height:1.25;font-family:Vijaya;-inkscape-font-specification:'Vijaya, Normal';font-variant-ligatures:normal;font-variant-caps:normal;font-variant-numeric:normal;font-feature-settings:normal;text-align:start;letter-spacing:0px;word-spacing:0px;writing-mode:lr-tb;text-anchor:start;fill:#000000;fill-opacity:1;stroke:none;stroke-width:7.5"
             xml:space="preserve"><tspan
               style="font-size:479.99996948px;stroke-width:7.5"
               y="1573.0807"
               x="8775.7422"
               id="tspan5024"
               sodipodi:role="line">g</tspan></text>
        </g>
        <text
           xml:space="preserve"
           style="font-style:normal;font-variant:normal;font-weight:normal;font-stretch:normal;font-size:320px;line-height:1.25;font-family:Arial;-inkscape-font-specification:'Arial, Normal';font-variant-ligatures:normal;font-variant-caps:normal;font-variant-numeric:normal;font-feature-settings:normal;text-align:start;letter-spacing:0px;word-spacing:0px;writing-mode:lr-tb;text-anchor:start;fill:#000000;fill-opacity:1;stroke:none;stroke-width:7.5"
           x="9105.5752"
           y="149.1613"
           id="text5688"
           transform="scale(1,-1)"><tspan
             sodipodi:role="line"
             id="tspan5686"
             x="9105.5752"
             y="149.1613"
             style="font-style:normal;font-variant:normal;font-weight:normal;font-stretch:normal;font-size:320px;font-family:Arial;-inkscape-font-specification:'Arial, Normal';font-variant-ligatures:normal;font-variant-caps:normal;font-variant-numeric:normal;font-feature-settings:normal;text-align:start;writing-mode:lr-tb;text-anchor:start;stroke-width:7.5">255</tspan></text>
      </g>
      <polyline
         style="opacity:1;fill:none;stroke:#ccaa00;stroke-width:5;stroke-linecap:butt;stroke-linejoin:miter;stroke-miterlimit:4;stroke-dasharray:none"
         points="76,492.46 81.8824,482.848 87.7647,473.973 93.6471,466.441 99.5294,459.222 105.412,452.738 111.294,447.021 117.176,442.112 123.059,438.02 128.941,434.724 134.824,432.179 140.706,430.324 146.588,429.083 152.471,428.378 158.353,428.13 164.235,428.263 170.118,428.71 176,429.414 181.882,430.327 187.765,431.41 193.647,432.637 199.529,433.989 205.412,435.453 211.294,437.027 217.176,438.711 223.059,440.511 228.941,442.438 234.824,444.501 240.706,446.71 246.588,449.075 252.471,451.599 258.353,454.281 264.235,457.115 270.118,460.089 276,463.183 281.882,466.376 287.765,469.64 293.647,472.946 299.529,476.265 305.412,479.573 311.294,482.846 317.176,486.073 323.059,489.249 328.941,492.38 334.824,495.483 340.706,498.585 346.588,501.719 352.471,504.923 358.353,508.236 364.235,511.696 370.118,515.337 376,519.187 381.882,523.266 387.765,527.584 393.647,532.142 399.529,536.932 405.412,541.933 411.294,547.119 417.176,552.455 423.059,557.905 428.941,563.429 434.824,568.99 440.706,574.553 446.588,580.084 452.471,585.55 458.353,590.919 464.235,596.152 470.118,601.21 476,606.052 481.882,610.644 487.765,614.96 493.647,618.995 499.529,622.773 505.412,626.346 511.294,629.795 517.176,633.226 523.059,636.755 528.941,640.496 534.824,644.546 540.706,648.967 546.588,653.779 552.471,658.95 558.353,664.4 564.235,670.008 570.118,675.62 576,681.069 581.882,686.193 587.765,690.859 593.647,694.972 599.529,698.496 605.412,701.454 611.294,703.928 617.176,706.052 623.059,707.993 628.941,709.93 634.824,712.035 640.706,714.448 646.588,717.266 652.471,720.526 658.353,724.207 664.235,728.231 670.118,732.479 676,736.8 681.882,741.036 687.765,745.038 693.647,748.68 699.529,751.874 705.412,754.58 711.294,756.805 717.176,758.608 723.059,760.089 728.941,761.382 734.824,762.639 740.706,764.013 746.588,765.639 752.471,767.622 758.353,770.017 764.235,772.83 770.118,776.015 776,779.488 781.882,783.133 787.765,786.828 793.647,790.457 799.529,793.925 805.412,797.168 811.294,800.15 817.176,802.866 823.059,805.33 828.941,807.568 834.824,809.61 840.706,811.483 846.588,813.212 852.471,814.82 858.353,816.332 864.235,817.782 870.118,819.217 876,820.698 881.882,822.3 887.765,824.104 893.647,826.19 899.529,828.625 905.412,831.447 911.294,834.656 917.176,838.207 923.059,842.001 928.941,845.89 934.824,849.688 940.706,853.176 946.588,856.126 952.471,858.324 958.353,859.583 964.235,859.775 970.118,858.835 976,856.777 981.882,853.688 987.765,849.721 993.647,845.076 999.529,839.977 1005.41,834.645 1011.29,829.277 1017.18,824.02 1023.06,818.965 1028.94,814.135 1034.82,809.49 1040.71,804.932 1046.59,800.318 1052.47,795.472 1058.35,790.192 1064.24,784.263 1070.12,777.456 1076,769.538 1081.88,760.265 1087.76,749.395 1093.65,736.691 1099.53,721.933 1105.41,704.942 1111.29,685.598 1117.18,663.864 1123.06,639.805 1128.94,613.607 1134.82,585.577 1140.71,556.149 1146.59,525.864 1152.47,495.351 1158.35,465.295 1164.24,436.406 1170.12,409.375 1176,384.847 1181.88,363.39 1187.76,345.474 1193.65,331.466 1199.53,321.63 1205.41,316.133 1211.29,315.055 1217.18,318.397 1223.06,326.076 1228.94,337.916 1234.82,353.627 1240.71,372.783 1246.59,394.807 1252.47,418.972 1258.35,444.422 1264.24,470.226 1270.12,495.445 1276,519.222 1281.88,540.868 1287.76,559.924 1293.65,576.206 1299.53,589.797 1305.41,601.008 1311.29,610.305 1317.18,618.216 1323.06,625.237 1328.94,631.753 1334.82,637.986 1340.71,643.974 1346.59,649.596 1352.47,654.611 1358.35,658.729 1364.24,661.681 1370.12,663.281 1376,663.475 1381.88,662.352 1387.76,660.136 1393.65,657.142 1399.53,653.713 1405.41,650.145 1411.29,646.61 1417.18,643.095 1423.06,639.368 1428.94,634.965 1434.82,629.225 1440.71,621.357 1446.59,610.53 1452.47,595.992 1458.35,577.19 1464.24,553.876 1470.12,526.192 1476,494.709 1481.88,460.412 1487.76,424.628 1493.65,388.895 1499.53,354.783 1505.41,323.692 1511.29,296.652 1517.18,274.151 1523.06,256.024 1528.94,241.43 1534.82,228.924 1540.71,216.619 1546.59,202.474 1552.47,184.564 1558.35,160.695 1564.24,134.605 1570.12,89.6728 1576,32.6683 "
         id="polyline426"
         transform="matrix(1,0,0,-1,0,999.02676)" />
      <polyline
         style="opacity:1;fill:none;stroke:#cc0000;stroke-width:5;stroke-linecap:butt;stroke-linejoin:miter;stroke-miterlimit:4;stroke-dasharray:none"
         points="76,499.5 81.8824,499.5 87.7647,499.5 93.6471,499.5 99.5294,499.5 105.412,499.5 111.294,499.5 117.176,499.5 123.059,499.5 128.941,499.5 134.824,499.5 140.706,499.5 146.588,499.5 152.471,499.5 158.353,499.5 164.235,499.5 170.118,499.5 176,499.5 181.882,499.5 187.765,499.5 193.647,499.5 199.529,499.5 205.412,499.5 211.294,499.5 217.176,499.5 223.059,499.5 228.941,499.5 234.824,499.5 240.706,499.5 246.588,499.5 252.471,499.5 258.353,499.5 264.235,499.5 270.118,499.5 276,499.5 281.882,499.5 287.765,499.5 293.647,499.5 299.529,499.5 305.412,499.5 311.294,499.5 317.176,499.5 323.059,499.5 328.941,499.5 334.824,499.5 340.706,499.5 346.588,499.5 352.471,499.5 358.353,499.5 364.235,499.5 370.118,499.5 376,499.5 381.882,499.5 387.765,499.5 393.647,499.5 399.529,499.5 405.412,499.5 411.294,499.5 417.176,499.5 423.059,499.5 428.941,499.5 434.824,499.5 440.706,499.5 446.588,499.5 452.471,499.5 458.353,499.5 464.235,499.5 470.118,499.5 476,499.5 481.882,499.5 487.765,499.5 493.647,499.5 499.529,499.5 505.412,499.5 511.294,499.5 517.176,499.5 523.059,499.5 528.941,499.5 534.824,499.5 540.706,499.5 546.588,499.5 552.471,499.5 558.353,499.5 564.235,499.5 570.118,499.5 576,499.5 581.882,499.5 587.765,499.5 593.647,499.5 599.529,499.5 605.412,499.5 611.294,499.5 617.176,499.5 623.059,499.5 628.941,499.5 634.824,499.5 640.706,499.5 646.588,499.5 652.471,499.5 658.353,499.5 664.235,499.5 670.118,499.5 676,499.5 681.882,499.5 687.765,499.5 693.647,499.5 699.529,499.5 705.412,499.5 711.294,499.5 717.176,499.5 723.059,499.5 728.941,499.5 734.824,499.5 740.706,499.5 746.588,499.5 752.471,499.5 758.353,499.5 764.235,499.5 770.118,499.5 776,499.5 781.882,499.5 787.765,499.5 793.647,499.5 799.529,499.5 805.412,499.5 811.294,499.5 817.176,499.5 823.059,499.5 828.941,499.5 834.824,499.5 840.706,499.5 846.588,499.5 852.471,499.5 858.353,499.5 864.235,499.5 870.118,499.5 876,499.5 881.882,499.5 887.765,499.5 893.647,499.5 899.529,499.5 905.412,499.5 911.294,499.5 917.176,499.5 923.059,499.5 928.941,499.5 934.824,499.5 940.706,499.5 946.588,474.001 952.471,371.271 958.353,161.539 964.235,32.6683 970.118,161.539 976,371.271 981.882,474.001 987.765,499.5 993.647,499.5 999.529,499.5 1005.41,499.5 1011.29,499.5 1017.18,499.5 1023.06,499.5 1028.94,499.5 1034.82,499.5 1040.71,499.5 1046.59,499.5 1052.47,499.5 1058.35,499.5 1064.24,499.5 1070.12,499.5 1076,499.5 1081.88,499.5 1087.76,499.5 1093.65,499.5 1099.53,499.5 1105.41,499.5 1111.29,499.5 1117.18,499.5 1123.06,499.5 1128.94,499.5 1134.82,499.5 1140.71,499.5 1146.59,499.5 1152.47,499.5 1158.35,499.5 1164.24,499.5 1170.12,499.5 1176,499.5 1181.88,499.5 1187.76,499.5 1193.65,499.5 1199.53,499.5 1205.41,499.5 1211.29,499.5 1217.18,499.5 1223.06,499.5 1228.94,499.5 1234.82,499.5 1240.71,499.5 1246.59,499.5 1252.47,499.5 1258.35,499.5 1264.24,499.5 1270.12,499.5 1276,499.5 1281.88,499.5 1287.76,499.5 1293.65,499.5 1299.53,499.5 1305.41,499.5 1311.29,499.5 1317.18,499.5 1323.06,499.5 1328.94,499.5 1334.82,499.5 1340.71,499.5 1346.59,499.5 1352.47,499.5 1358.35,487.894 1364.24,441.138 1370.12,345.681 1376,287.027 1381.88,345.681 1387.76,441.138 1393.65,487.894 1399.53,499.5 1405.41,499.5 1411.29,499.5 1417.18,499.5 1423.06,499.5 1428.94,499.5 1434.82,499.5 1440.71,499.5 1446.59,499.5 1452.47,499.5 1458.35,499.5 1464.24,499.5 1470.12,499.5 1476,499.5 1481.88,499.5 1487.76,499.5 1493.65,499.5 1499.53,499.5 1505.41,499.5 1511.29,499.5 1517.18,499.5 1523.06,499.5 1528.94,499.5 1534.82,499.5 1540.71,499.5 1546.59,499.5 1552.47,499.5 1558.35,499.5 1564.24,499.5 1570.12,499.5 1576,499.5 "
         id="polyline428" />
      <clipPath
         id="cliprect1">
        <rect
           x="0"
           y="0"
           width="1618"
           height="1017"
           id="rect432" />
      </clipPath>
      <path
         id="path5080"
         d="m 1625.5971,60.899228 h 31.6998 V 29.199475 h -31.6998 z"
         style="fill:#ccaa00;fill-opacity:1;fill-rule:nonzero;stroke:none;stroke-width:1.24999928"
         inkscape:connector-curvature="0" />
      <path
         id="path5185"
         d="m 1687.6967,40.799368 -1.5,4.799957 h -18.9998 l 1.5,-4.799957 z"
         style="fill:#000000;fill-opacity:1;fill-rule:nonzero;stroke:none;stroke-width:1.24999928"
         inkscape:connector-curvature="0" />
      <path
         id="path5187"
         d="m 1712.2965,7.2996332 -10.2999,35.5997138 c 4.4,-6.699946 7.9,-11.099914 10.3999,-13.299893 2.5,-2.199978 4.8,-3.299978 7.1,-3.299978 1.2,0 2.2,0.4 2.9,1.2 0.8,0.799989 1.2,1.899978 1.2,3.199968 0,1.599989 -0.3,3.599978 -1,5.899956 l -4.4,15.399873 c -0.6,1.799989 -0.9,2.799979 -0.9,3.099978 0,0.3 0.1,0.6 0.3,0.8 0.2,0.19999 0.5,0.29999 0.7,0.29999 0.3,0 0.7,-0.2 1.1,-0.49999 1.4,-0.999999 2.8,-2.499979 4.2,-4.399967 l 1.1,0.699989 c -0.8,1.299989 -2,2.699979 -3.5,4.199968 -1.5,1.599989 -2.7,2.699978 -3.8,3.299978 -1,0.59999 -2,0.79999 -2.8,0.79999 -0.9,0 -1.7,-0.2 -2.2,-0.79999 -0.6,-0.6 -0.9,-1.299989 -0.9,-2.199979 0,-1.099999 0.4,-3.099978 1.3,-5.999956 l 4.2,-14.699884 c 0.5,-1.799989 0.8,-3.299978 0.8,-4.299967 0,-0.5 -0.2,-0.89999 -0.5,-1.199989 -0.3,-0.3 -0.7,-0.5 -1.2,-0.5 -0.7,0 -1.5,0.3 -2.4,0.899999 -1.6,0.99999 -3.5999,2.899969 -5.6999,5.699947 -0.6,0.8 -2.6,3.799978 -5.9,9.199936 -1,1.699979 -1.9,3.499968 -2.5,5.599947 l -2.3999,7.499946 h -5.5 l 12.0999,-41.999667 1.3,-4.499964 c 0,-0.699994 -0.3,-1.19999 -0.8,-1.699987 -0.6,-0.499995 -1.2,-0.799994 -2,-0.799994 -0.4,0 -1.1,0.1 -2,0.299999 l -0.7,0.1 V 9.3996178 Z"
         style="fill:#000000;fill-opacity:1;fill-rule:nonzero;stroke:none;stroke-width:1.24999928"
         inkscape:connector-curvature="0" />
      <path
         id="path5189"
         d="m 1741.8963,74.99909 -1.2,0.6 c -2.9999,-5.599957 -4.9999,-10.499914 -6.2999,-14.799882 -1,-3.299978 -1.5,-6.699946 -1.5,-9.999924 0,-7.899937 1.8,-14.899883 5.4999,-21.19983 4.5,-7.599935 11.7,-14.999878 21.6999,-22.2998208 l 0.9,1.2999896 c -4.5,3.2999742 -8.2,7.0999442 -11.0999,11.2999092 -3.5,5.099955 -6.5,11.399911 -8.7,18.799847 -2.3,7.299946 -3.4999,13.899894 -3.4999,19.99984 0,4.599968 1.3999,9.999925 4.1999,16.299871 z"
         style="fill:#000000;fill-opacity:1;fill-rule:nonzero;stroke:none;stroke-width:1.24999928"
         inkscape:connector-curvature="0" />
      <path
         id="path5191"
         d="m 1754.2962,28.499465 10.6998,-2.199989 c 0.7,1.799989 1.3,3.599978 1.8,5.499957 0.6,2.799979 1.2,6.099957 1.6,9.899925 0.2,1.899989 0.5,5.899958 0.8,11.999904 3.1,-3.299968 4.9,-5.399957 5.5,-6.199946 3.2,-4.399969 5.0999,-6.899948 5.5999,-7.699947 0.8,-1.29999 1.3,-2.499979 1.7,-3.399968 0.2,-0.79999 0.4,-1.49999 0.4,-2.099979 0,-0.7 -0.6,-1.399989 -1.8,-2.199989 -1.1,-0.89999 -1.7,-1.799979 -1.7,-2.799978 0,-0.79999 0.3,-1.49999 1,-2.099979 0.6,-0.6 1.3,-0.9 2.2,-0.9 1,0 1.9,0.4 2.7,1.2 0.8,0.899989 1.2,1.899978 1.2,3.199968 0,1.199989 -0.2,2.399978 -0.6,3.599978 -0.6,1.799979 -1.8,4.099967 -3.6,6.799946 -1.7,2.599979 -4.4999,6.199948 -8.3999,10.799915 -0.5,0.49999 -3.2,3.299968 -8.1,8.399926 h -1.2999 c -0.7,-15.399873 -1.8999,-25.099798 -3.6999,-28.899766 -0.6,-1.299989 -1.7,-1.899989 -3.1,-1.899989 -0.6,0 -1.5,0.1 -2.6,0.4 z"
         style="fill:#000000;fill-opacity:1;fill-rule:nonzero;stroke:none;stroke-width:1.24999928"
         inkscape:connector-curvature="0" />
      <path
         id="path5193"
         d="m 1796.9958,7.9996288 1.3,-0.6999956 c 2.9,5.4999568 5,10.3999178 6.2,14.6998858 0.9999,3.299968 1.4999,6.699946 1.4999,9.999914 0,7.899936 -1.7999,14.999883 -5.4999,21.199839 -4.5,7.599936 -11.6999,15.099872 -21.6999,22.399818 l -0.8999,-1.199989 c 4.4999,-3.299978 8.1999,-7.099946 11.0999,-11.199914 3.5999,-5.199957 6.4999,-11.499904 8.7999,-18.799851 2.2,-7.399936 3.4,-14.099882 3.4,-20.099839 0,-4.599962 -1.4,-9.999919 -4.2,-16.2998682 z"
         style="fill:#000000;fill-opacity:1;fill-rule:nonzero;stroke:none;stroke-width:1.24999928"
         inkscape:connector-curvature="0" />
    </g>
    <g
       clip-path="url(#cliprect1)"
       id="g437" />
  </g>
</svg>
