<?xml version="1.0" encoding="UTF-8" standalone="no"?>
<svg
   xmlns:dc="http://purl.org/dc/elements/1.1/"
   xmlns:cc="http://creativecommons.org/ns#"
   xmlns:rdf="http://www.w3.org/1999/02/22-rdf-syntax-ns#"
   xmlns:svg="http://www.w3.org/2000/svg"
   xmlns="http://www.w3.org/2000/svg"
   xmlns:sodipodi="http://sodipodi.sourceforge.net/DTD/sodipodi-0.dtd"
   xmlns:inkscape="http://www.inkscape.org/namespaces/inkscape"
   width="1072.3721pt"
   height="354.95737pt"
   viewBox="0 0 1787.2849 591.5956"
   version="1.1"
   id="svg441"
   sodipodi:docname="r_vrep_so_mine_ft.svg"
   inkscape:version="0.92.1 r15371">
  <metadata
     id="metadata447">
    <rdf:RDF>
      <cc:Work
         rdf:about="">
        <dc:format>image/svg+xml</dc:format>
        <dc:type
           rdf:resource="http://purl.org/dc/dcmitype/StillImage" />
      </cc:Work>
    </rdf:RDF>
  </metadata>
  <defs
     id="defs445" />
  <sodipodi:namedview
     pagecolor="#ffffff"
     bordercolor="#666666"
     borderopacity="1"
     objecttolerance="10"
     gridtolerance="10"
     guidetolerance="10"
     inkscape:pageopacity="0"
     inkscape:pageshadow="2"
     inkscape:window-width="1920"
     inkscape:window-height="1019"
     id="namedview443"
     showgrid="false"
     showguides="true"
     inkscape:guide-bbox="true"
     inkscape:zoom="0.5"
     inkscape:cx="779.44021"
     inkscape:cy="-87.731569"
     inkscape:window-x="-9"
     inkscape:window-y="-9"
     inkscape:window-maximized="1"
     inkscape:current-layer="svg441" />
  <g
     transform="translate(-47.413008,30.2003)"
     clip-path="url(#cliprect1)"
     id="g437" />
  <path
     id="path5058"
     d="M 74.098632,519.99611 H 39.098892"
     style="fill:none;stroke:#000000;stroke-width:3.29997563px;stroke-linecap:butt;stroke-linejoin:miter;stroke-miterlimit:4;stroke-dasharray:none;stroke-opacity:1"
     inkscape:connector-curvature="0" />
  <path
     id="path5060"
     d="M 1606.8871,519.99611 H 57.298752"
     style="fill:none;stroke:#000000;stroke-width:3.29997563px;stroke-linecap:butt;stroke-linejoin:miter;stroke-miterlimit:4;stroke-dasharray:none;stroke-opacity:1"
     inkscape:connector-curvature="0" />
  <path
     id="path5062"
     d="m 68.698672,23.39982 -22.89983,-0.1 L 57.298752,0 Z"
     style="fill:#000000;fill-opacity:1;fill-rule:nonzero;stroke:none;stroke-width:1.25"
     inkscape:connector-curvature="0" />
  <path
     id="path5064"
     d="m 1606.5871,531.39603 v -22.89984 l 23.4,11.49992 z"
     style="fill:#000000;fill-opacity:1;fill-rule:nonzero;stroke:none;stroke-width:1.25"
     inkscape:connector-curvature="0" />
  <path
     id="path5066"
     d="m -8.1807811e-4,519.79611 c 0,-4.49997 0.39999999811,-8.19995 1.39998997811,-10.89992 0.89999,-2.79998 2.2999804,-4.89996 4.0999704,-6.39995 1.79999,-1.49998 4.09997,-2.19998 6.8999497,-2.19998 2.09998,0 3.89997,0.4 5.39996,1.19998 1.59998,0.8 2.79998,1.99999 3.79997,3.59997 0.99999,1.5 1.79999,3.39998 2.39998,5.69997 0.6,2.19998 0.89999,5.19996 0.89999,8.99993 0,4.49997 -0.49999,8.09995 -1.39999,10.79992 -0.89999,2.79998 -2.29998,4.89996 -4.19996,6.39995 -1.79999,1.49998 -4.09997,2.29998 -6.89995,2.29998 -3.6999697,0 -6.5999497,-1.39998 -8.6999397,-3.99997 -2.4999804,-3.19998 -3.69997037811,-8.29993 -3.69997037811,-15.49988 z m 4.79996037811,0 c 0,6.29995 0.7,10.39992 2.19999,12.4999 1.49999,2.1 3.2999697,3.09998 5.3999597,3.09998 2.19998,0 3.99997,-0.99998 5.39996,-3.09998 1.49999,-2.09998 2.19998,-6.29995 2.19998,-12.4999 0,-6.29995 -0.69999,-10.49992 -2.19998,-12.4999 -1.39999,-2.1 -3.19998,-3.09998 -5.39996,-3.09998 -2.19999,0 -3.8999697,0.89998 -5.1999597,2.69998 -1.59999,2.29998 -2.39999,6.59995 -2.39999,12.8999 z"
     style="fill:#000000;fill-opacity:1;fill-rule:nonzero;stroke:none;stroke-width:1.25"
     inkscape:connector-curvature="0" />
  <path
     id="path5068"
     d="m 1620.9871,539.29596 10.6,-2.29998 c 0.8,1.79998 1.4,3.69998 1.9,5.59996 0.6,2.69997 1.2,5.99995 1.5999,9.79994 0.2,1.89997 0.4,5.89994 0.8,12.09989 3,-3.39997 4.9,-5.49995 5.4,-6.29995 3.3,-4.29997 5.2,-6.89994 5.7,-7.69994 0.7,-1.29999 1.3,-2.39998 1.6,-3.39998 0.3,-0.69999 0.4,-1.39999 0.4,-2.09999 0,-0.59998 -0.5,-1.29998 -1.7,-2.19997 -1.1,-0.8 -1.7,-1.79998 -1.7,-2.79998 0,-0.8 0.3,-1.4 0.9,-1.99998 0.7,-0.7 1.4,-1 2.3,-1 1,0 1.9,0.4 2.7,1.29998 0.7997,0.8 1.1997,1.9 1.1997,3.1 0,1.29998 -0.2,2.49997 -0.6,3.59995 -0.5997,1.89999 -1.7997,4.09998 -3.5997,6.79997 -1.7,2.69997 -4.5,6.29994 -8.4,10.79991 -0.5,0.6 -3.2,3.39998 -8.0999,8.49993 h -1.4 c -0.6,-15.49988 -1.8,-25.09981 -3.7,-28.99978 -0.6,-1.19998 -1.6,-1.89998 -3,-1.89998 -0.6,0 -1.5,0.2 -2.6,0.4 z"
     style="fill:#000000;fill-opacity:1;fill-rule:nonzero;stroke:none;stroke-width:1.25"
     inkscape:connector-curvature="0" />
  <path
     id="path5070"
     d="M 57.298752,21.49984 V 522.02503"
     style="fill:none;stroke:#000000;stroke-width:2.33140731px;stroke-linecap:butt;stroke-linejoin:miter;stroke-miterlimit:4;stroke-dasharray:none;stroke-opacity:1"
     inkscape:connector-curvature="0" />
  <path
     id="path5078"
     d="m 1606.8871,176.39868 h 31.6999 v -31.69976 h -31.6999 z"
     style="fill:#cc0000;fill-opacity:1;fill-rule:nonzero;stroke:none;stroke-width:1.25"
     inkscape:connector-curvature="0" />
  <path
     id="path5080"
     d="m 1606.8871,81.39939 h 31.6999 V 49.69962 h -31.6999 z"
     style="fill:#ccaa00;fill-opacity:1;fill-rule:nonzero;stroke:none;stroke-width:1.25"
     inkscape:connector-curvature="0" />
  <path
     id="path5098"
     d="m 1695.2866,144.19892 -7.2,24.89981 -0.8,3.39997 c -0.1,0.3 -0.1,0.6 -0.1,0.8 0,0.39999 0.1,0.69999 0.4,0.99999 0.2,0.2 0.4,0.3 0.7,0.3 0.3,0 0.7,-0.2 1.2,-0.5 1,-0.69999 2.2,-2.19997 3.9,-4.39996 l 1.2,0.79999 c -1.7,2.59998 -3.4,4.49997 -5.2,5.89996 -1.8,1.29999 -3.5,1.89999 -5,1.89999 -1,0 -1.8,-0.2 -2.3,-0.7 -0.6,-0.59999 -0.8,-1.29999 -0.8,-2.29998 0,-1.2 0.3,-2.79999 0.8,-4.79997 l 0.8,-2.69998 c -3.2,4.19996 -6.2,7.09995 -8.9,8.79994 -1.9,1.09999 -3.8,1.69999 -5.6999,1.69999 -1.8,0 -3.3,-0.7 -4.6,-2.19999 -1.3,-1.39999 -1.9,-3.49998 -1.9,-6.09995 0,-3.79997 1.1,-7.99995 3.4,-12.29991 2.4,-4.29996 5.3999,-7.79994 8.9999,-10.39993 2.8,-1.99998 5.4,-3.09997 7.9,-3.09997 1.5,0 2.8,0.4 3.7,1.19999 1,0.8 1.8,2.09998 2.3,3.89997 l 1.3,-4.09997 z m -13.1,1.99999 c -1.6,0 -3.2,0.69998 -5,2.19997 -2.5,2.09999 -4.7,5.09996 -6.7,9.19994 -1.9,4.09997 -2.8999,7.79994 -2.8999,11.09991 0,1.69999 0.4,2.99999 1.1999,3.89997 0.9,1 1.9,1.49999 3,1.49999 2.6,0 5.5,-1.99999 8.6,-5.89995 4.2,-5.29996 6.3,-10.59992 6.3,-16.09988 0,-2.09998 -0.4,-3.59998 -1.2,-4.49997 -0.8,-0.99998 -1.9,-1.39998 -3.3,-1.39998 z"
     style="fill:#000000;fill-opacity:1;fill-rule:nonzero;stroke:none;stroke-width:1.25"
     inkscape:connector-curvature="0" />
  <path
     id="path5100"
     d="m 1711.6865,192.99855 -1.3,0.6 c -2.9,-5.59996 -5,-10.49992 -6.2,-14.7999 -1,-3.29997 -1.5,-6.69995 -1.5,-9.99992 0,-7.89994 1.8,-14.99989 5.5,-21.19984 4.4,-7.59995 11.6997,-15.09988 21.6997,-22.29983 l 0.9,1.29998 c -4.6,3.29998 -8.2,7.09995 -11.1,11.29993 -3.5997,5.09996 -6.4997,11.39991 -8.7997,18.69986 -2.2,7.39994 -3.4,13.99989 -3.4,19.99985 0,4.69996 1.4,10.09992 4.2,16.39987 z"
     style="fill:#000000;fill-opacity:1;fill-rule:nonzero;stroke:none;stroke-width:1.25"
     inkscape:connector-curvature="0" />
  <path
     id="path5102"
     d="m 1724.0862,146.49891 10.6,-2.29999 c 0.8,1.89999 1.3999,3.69997 1.8999,5.59996 0.6,2.79998 1.2,6.09995 1.6,9.79993 0.2,1.99998 0.4,5.99995 0.8,12.09991 3,-3.29998 4.9,-5.39996 5.4,-6.19996 3.3,-4.39997 5.2,-6.99995 5.7,-7.69994 0.7,-1.29999 1.3,-2.49999 1.6,-3.39998 0.3,-0.8 0.4,-1.49998 0.4,-2.09998 0,-0.69999 -0.5,-1.39999 -1.7,-2.19999 -1.1,-0.89999 -1.7,-1.79998 -1.7,-2.79998 0,-0.79998 0.3,-1.49998 0.9,-2.09998 0.7,-0.59999 1.4,-0.99999 2.3,-0.99999 1,0 1.9,0.5 2.7,1.29999 0.8,0.9 1.1,1.89998 1.1,3.19997 0,1.2 -0.2,2.39999 -0.5,3.59998 -0.7,1.79998 -1.8,4.09997 -3.6,6.79995 -1.7,2.59998 -4.5,6.19995 -8.4,10.79992 -0.5,0.49999 -3.2,3.29997 -8.0999,8.39994 h -1.4 c -0.6,-15.39989 -1.8,-25.09981 -3.7,-28.99979 -0.6,-1.19999 -1.6,-1.79999 -3,-1.79999 -0.6,0 -1.5,0.1 -2.6,0.3 z"
     style="fill:#000000;fill-opacity:1;fill-rule:nonzero;stroke:none;stroke-width:1.25"
     inkscape:connector-curvature="0" />
  <path
     id="path5104"
     d="m 1766.7861,125.99906 1.3,-0.7 c 2.8999,5.49996 4.8999,10.39992 6.1999,14.69988 1,3.29999 1.5,6.69995 1.5,9.99994 0,7.89994 -1.8,14.99989 -5.5,21.19984 -4.4999,7.59993 -11.6999,15.09988 -21.6999,22.39983 l -0.9,-1.2 c 4.5,-3.39997 8.2,-7.09993 11.1,-11.19991 3.6,-5.19996 6.5,-11.49991 8.8,-18.89986 2.1999,-7.29994 3.3999,-13.99989 3.3999,-19.99985 0,-4.59996 -1.3999,-9.99992 -4.1999,-16.29987 z"
     style="fill:#000000;fill-opacity:1;fill-rule:nonzero;stroke:none;stroke-width:1.25"
     inkscape:connector-curvature="0" />
  <path
     id="path5106"
     d="m 1555.5876,502.69624 v 34.99974"
     style="fill:none;stroke:#000000;stroke-width:3.29997563px;stroke-linecap:butt;stroke-linejoin:miter;stroke-miterlimit:4;stroke-dasharray:none;stroke-opacity:1"
     inkscape:connector-curvature="0" />
  <path
     id="path5110"
     d="m 25.198992,68.39949 h -4.69996 V 38.59971 c -1.1,0.99999 -2.59998,2.09998 -4.49997,3.19997 -1.79999,1.1 -3.39997,1.89999 -4.89996,2.39999 V 39.6997 c 2.59998,-1.29999 4.89996,-2.69998 6.89995,-4.49997 1.99998,-1.79998 3.29997,-3.49997 4.19996,-5.09996 h 2.99998 z"
     style="fill:#000000;fill-opacity:1;fill-rule:nonzero;stroke:none;stroke-width:1.25"
     inkscape:connector-curvature="0" />
  <path
     id="path5112"
     d="M 75.498622,49.69962 H 40.498882"
     style="fill:none;stroke:#000000;stroke-width:3.29997563px;stroke-linecap:butt;stroke-linejoin:miter;stroke-miterlimit:4;stroke-dasharray:none;stroke-opacity:1"
     inkscape:connector-curvature="0" />
  <path
     id="path5130"
     d="m 1538.9876,586.39562 v 4.49995 h -25.1996 c -0.1,-1.09998 0.1,-2.19997 0.5,-3.29997 0.6,-1.69998 1.7,-3.39998 3.0997,-4.99996 1.4,-1.69999 3.4,-3.59997 6.1,-5.79995 4.2,-3.39997 7,-6.09997 8.4,-8.09995 1.5,-1.99997 2.1999,-3.89997 2.1999,-5.59995 0,-1.89999 -0.6999,-3.49997 -1.9999,-4.69997 -1.3,-1.3 -3,-1.99998 -5.2,-1.99998 -2.2,0 -4,0.69998 -5.4,2.09998 -1.3,1.3 -2,3.19998 -2,5.59995 l -4.8997,-0.5 c 0.4,-3.59995 1.6,-6.29995 3.7997,-8.19993 2.1,-1.89999 5,-2.79996 8.6,-2.79996 3.7,0 6.5999,0.99997 8.6999,2.99996 2.2,1.99998 3.2,4.59996 3.2,7.59995 0,1.49998 -0.3,2.99998 -0.9,4.49996 -0.6,1.39999 -1.7,2.99997 -3.1,4.59997 -1.4999,1.69998 -3.8999,3.89997 -7.1999,6.79995 -2.9,2.29998 -4.7,3.89997 -5.5,4.79995 -0.8,0.8 -1.4,1.6 -1.9,2.5 z"
     style="fill:#000000;fill-opacity:1;fill-rule:nonzero;stroke:none;stroke-width:1.25"
     inkscape:connector-curvature="0" />
  <path
     id="path5132"
     d="m 1543.9876,580.89565 5,-0.4 c 0.3,2.39999 1.2,4.19997 2.5,5.39997 1.3,1.2 2.9,1.79998 4.8,1.79998 2.3,0 4.2,-0.89998 5.7,-2.59998 1.6,-1.69998 2.4,-3.89997 2.4,-6.69995 0,-2.69998 -0.8,-4.79995 -2.3,-6.39995 -1.5,-1.5 -3.4,-2.29998 -5.9,-2.29998 -1.5,0 -2.8,0.4 -4.1,1.09998 -1.2,0.6 -2.1,1.5 -2.8,2.6 l -4.4,-0.5 3.7,-19.69984 h 18.9999 v 4.49994 h -15.2999 l -2,10.29993 c 2.3,-1.59998 4.7,-2.39998 7.2,-2.39998 3.3,0 6.1,1.1 8.4,3.49997 2.2999,2.29998 3.4999,5.19996 3.4999,8.89993 0,3.39998 -1.1,6.39995 -3.0999,8.89995 -2.4,3.09997 -5.8,4.69995 -10,4.69995 -3.5,0 -6.3,-1 -8.5,-2.99997 -2.2,-1.89998 -3.4,-4.49998 -3.8,-7.69995 z"
     style="fill:#000000;fill-opacity:1;fill-rule:nonzero;stroke:none;stroke-width:1.25"
     inkscape:connector-curvature="0" />
  <path
     id="path5134"
     d="m 1573.6875,580.89565 4.9,-0.4 c 0.4,2.39999 1.3,4.19997 2.6,5.39997 1.3,1.2 2.8997,1.79998 4.7997,1.79998 2.2,0 4.2,-0.89998 5.7,-2.59998 1.6,-1.69998 2.4,-3.89997 2.4,-6.69995 0,-2.69998 -0.8,-4.79995 -2.3,-6.39995 -1.5,-1.5 -3.5,-2.29998 -5.9,-2.29998 -1.5,0 -2.8997,0.4 -4.0997,1.09998 -1.2,0.6 -2.1,1.5 -2.8,2.6 l -4.4,-0.5 3.7,-19.69984 h 18.8997 v 4.49994 h -15.1997 l -2.1,10.29993 c 2.3,-1.59998 4.6997,-2.39998 7.2997,-2.39998 3.3,0 6.1,1.1 8.4,3.49997 2.3,2.29998 3.4,5.19996 3.4,8.89993 0,3.39998 -1,6.39995 -3,8.89995 -2.4,3.09997 -5.8,4.69995 -10,4.69995 -3.4997,0 -6.2997,-1 -8.4997,-2.99997 -2.2,-1.89998 -3.5,-4.49998 -3.8,-7.69995 z"
     style="fill:#000000;fill-opacity:1;fill-rule:nonzero;stroke:none;stroke-width:1.25"
     inkscape:connector-curvature="0" />
  <path
     id="path5185"
     d="m 1668.9867,61.29952 -1.5,4.79996 h -18.9997 l 1.5,-4.79996 z"
     style="fill:#000000;fill-opacity:1;fill-rule:nonzero;stroke:none;stroke-width:1.25"
     inkscape:connector-curvature="0" />
  <path
     id="path5187"
     d="m 1693.5866,27.79977 -10.3,35.59973 c 4.4,-6.69995 7.9,-11.09992 10.4,-13.2999 2.5,-2.19998 4.8,-3.29998 7.1,-3.29998 1.2,0 2.2,0.4 2.9,1.2 0.8,0.79999 1.2,1.89998 1.2,3.19997 0,1.59999 -0.3,3.59998 -1,5.89996 l -4.4,15.39988 c -0.6,1.79999 -0.9,2.79998 -0.9,3.09998 0,0.3 0.1,0.6 0.3,0.8 0.2,0.19999 0.5,0.29999 0.7,0.29999 0.3,0 0.7,-0.2 1.1,-0.49999 1.4,-1 2.8,-2.49998 4.2,-4.39997 l 1.1,0.69999 c -0.8,1.29999 -2,2.69998 -3.5,4.19997 -1.5,1.59999 -2.7,2.69998 -3.8,3.29998 -1,0.59999 -2,0.79999 -2.8,0.79999 -0.9,0 -1.7,-0.2 -2.2,-0.79999 -0.6,-0.6 -0.9,-1.29999 -0.9,-2.19998 0,-1.1 0.4,-3.09998 1.3,-5.99996 l 4.2,-14.69989 c 0.5,-1.79999 0.8,-3.29998 0.8,-4.29997 0,-0.5 -0.2,-0.89999 -0.5,-1.19999 -0.3,-0.3 -0.7,-0.5 -1.2,-0.5 -0.7,0 -1.5,0.3 -2.4,0.9 -1.6,0.99999 -3.6,2.89997 -5.7,5.69995 -0.6,0.8 -2.6,3.79998 -5.9,9.19994 -1,1.69998 -1.9,3.49997 -2.5,5.59995 l -2.3999,7.49995 h -5.5 l 12.0999,-41.99969 1.3,-4.49997 c 0,-0.69999 -0.3,-1.19999 -0.8,-1.69998 -0.6,-0.5 -1.2,-0.8 -2,-0.8 -0.4,0 -1.1,0.1 -2,0.3 l -0.7,0.1 v -1.49999 z"
     style="fill:#000000;fill-opacity:1;fill-rule:nonzero;stroke:none;stroke-width:1.25"
     inkscape:connector-curvature="0" />
  <path
     id="path5189"
     d="m 1723.1864,95.49926 -1.2,0.6 c -2.9999,-5.59996 -4.9999,-10.49992 -6.2999,-14.79989 -1,-3.29998 -1.5,-6.69995 -1.5,-9.99993 0,-7.89994 1.8,-14.89989 5.4999,-21.19984 4.5,-7.59994 11.7,-14.99989 21.6998,-22.29983 l 0.9,1.29999 c -4.5,3.29997 -8.2,7.09994 -11.0998,11.29991 -3.5,5.09996 -6.5,11.39992 -8.7,18.79986 -2.3,7.29995 -3.4999,13.8999 -3.4999,19.99985 0,4.59997 1.3999,9.99993 4.1999,16.29988 z"
     style="fill:#000000;fill-opacity:1;fill-rule:nonzero;stroke:none;stroke-width:1.25"
     inkscape:connector-curvature="0" />
  <path
     id="path5191"
     d="m 1735.5862,48.99961 10.6999,-2.19999 c 0.7,1.79999 1.3,3.59998 1.8,5.49996 0.6,2.79998 1.2,6.09996 1.6,9.89993 0.2,1.89999 0.5,5.89996 0.8,11.99991 3.1,-3.29997 4.9,-5.39996 5.5,-6.19995 3.2,-4.39997 5.1,-6.89995 5.6,-7.69995 0.8,-1.29999 1.3,-2.49998 1.7,-3.39997 0.2,-0.79999 0.4,-1.49999 0.4,-2.09998 0,-0.7 -0.6,-1.39999 -1.8,-2.19999 -1.1,-0.89999 -1.7,-1.79998 -1.7,-2.79998 0,-0.79999 0.3,-1.49999 1,-2.09998 0.6,-0.6 1.3,-0.9 2.2,-0.9 1,0 1.9,0.4 2.7,1.2 0.8,0.89999 1.2,1.89998 1.2,3.19997 0,1.19999 -0.2,2.39998 -0.6,3.59998 -0.6,1.79998 -1.8,4.09997 -3.6,6.79995 -1.7,2.59998 -4.5,6.19995 -8.4,10.79992 -0.5,0.49999 -3.2,3.29997 -8.1,8.39993 h -1.2999 c -0.7,-15.39988 -1.9,-25.09981 -3.7,-28.89978 -0.6,-1.29999 -1.7,-1.89999 -3.1,-1.89999 -0.6,0 -1.5,0.1 -2.6,0.4 z"
     style="fill:#000000;fill-opacity:1;fill-rule:nonzero;stroke:none;stroke-width:1.25"
     inkscape:connector-curvature="0" />
  <path
     id="path5193"
     d="m 1778.286,28.49976 1.3,-0.69999 c 2.9,5.49996 5,10.39992 6.2,14.69989 0.9999,3.29997 1.4999,6.69995 1.4999,9.99992 0,7.89994 -1.7999,14.99989 -5.4999,21.19985 -4.5,7.59994 -11.6999,15.09988 -21.6999,22.39983 l -0.9,-1.19999 c 4.5,-3.29998 8.2,-7.09995 11.1,-11.19992 3.5999,-5.19996 6.4999,-11.49991 8.7999,-18.79986 2.2,-7.39994 3.4,-14.09989 3.4,-20.09985 0,-4.59997 -1.4,-9.99993 -4.2,-16.29988 z"
     style="fill:#000000;fill-opacity:1;fill-rule:nonzero;stroke:none;stroke-width:1.25"
     inkscape:connector-curvature="0" />
  <polyline
     transform="matrix(1,0,0,-1,-18.701248,1018.3116)"
     style="opacity:1;fill:none;stroke:#ccaa00;stroke-width:5;stroke-linecap:butt;stroke-linejoin:miter;stroke-miterlimit:4;stroke-dasharray:none"
     points="76,497.494 81.8824,498.589 87.7647,499.549 93.6471,500.276 99.5294,500.956 105.412,501.524 111.294,501.981 117.176,502.324 123.059,502.553 128.941,502.67 134.824,502.677 140.706,502.576 146.588,502.373 152.471,502.077 158.353,501.705 164.235,501.278 170.118,500.827 176,500.391 181.882,500.01 187.765,499.724 193.647,499.569 199.529,499.568 205.412,499.731 211.294,500.051 217.176,500.506 223.059,501.058 228.941,501.66 234.824,502.262 240.706,502.815 246.588,503.276 252.471,503.612 258.353,503.803 264.235,503.842 270.118,503.731 276,503.485 281.882,503.125 287.765,502.677 293.647,502.172 299.529,501.64 305.412,501.112 311.294,500.615 317.176,500.175 323.059,499.807 328.941,499.524 334.824,499.329 340.706,499.22 346.588,499.188 352.471,499.217 358.353,499.292 364.235,499.395 370.118,499.507 376,499.616 381.882,499.709 387.765,499.78 393.647,499.825 399.529,499.845 405.412,499.842 411.294,499.82 417.176,499.785 423.059,499.742 428.941,499.695 434.824,499.648 440.706,499.605 446.588,499.566 452.471,499.533 458.353,499.506 464.235,499.487 470.118,499.473 476,499.465 481.882,499.461 487.765,499.462 493.647,499.465 499.529,499.471 505.412,499.478 511.294,499.486 517.176,499.493 523.059,499.498 528.941,499.499 534.824,499.496 540.706,499.485 546.588,499.465 552.471,499.431 558.353,499.382 564.235,499.311 570.118,499.214 576,499.086 581.882,498.919 587.765,498.706 593.647,498.439 599.529,498.108 605.412,497.704 611.294,497.216 617.176,496.632 623.059,495.941 628.941,495.133 634.824,494.198 640.706,493.126 646.588,491.912 652.471,490.553 658.353,489.049 664.235,487.406 670.118,485.635 676,483.755 681.882,481.79 687.765,479.775 693.647,477.75 699.529,475.766 705.412,473.876 711.294,472.139 717.176,470.613 723.059,469.351 728.941,468.399 734.824,467.79 740.706,467.543 746.588,467.659 752.471,468.122 758.353,468.898 764.235,469.939 770.118,471.183 776,472.561 781.882,473.998 787.765,475.418 793.647,476.749 799.529,477.931 805.412,478.918 811.294,479.687 817.176,480.243 823.059,480.622 828.941,480.896 834.824,481.171 840.706,481.582 846.588,482.291 852.471,483.476 858.353,485.323 864.235,488.017 870.118,491.73 876,496.613 881.882,502.787 887.765,510.327 893.647,519.254 899.529,529.529 905.412,541.038 911.294,553.6 917.176,566.969 923.059,580.846 928.941,594.898 934.824,608.786 940.706,622.186 946.588,634.821 952.471,646.476 958.353,657.026 964.235,666.447 970.118,674.826 976,682.361 981.882,689.352 987.765,696.174 993.647,703.248 999.529,710.986 1005.41,719.746 1011.29,729.77 1017.18,741.156 1023.06,753.829 1028.94,767.551 1034.82,781.954 1040.71,796.592 1046.59,811.005 1052.47,824.787 1058.35,837.638 1064.24,849.394 1070.12,860.038 1076,869.68 1081.88,878.521 1087.76,886.808 1093.65,894.787 1099.53,902.657 1105.41,910.541 1111.29,918.47 1117.18,926.379 1123.06,934.121 1128.94,941.482 1134.82,948.222 1140.71,954.101 1146.59,958.919 1152.47,962.545 1158.35,964.938 1164.24,966.152 1170.12,966.332 1176,965.689 1181.88,964.474 1187.76,962.94 1193.65,961.308 1199.53,959.734 1205.41,958.284 1211.29,956.925 1217.18,955.512 1223.06,953.795 1228.94,951.43 1234.82,948.003 1240.71,943.055 1246.59,936.124 1252.47,926.787 1258.35,914.706 1264.24,899.671 1270.12,881.633 1276,860.728 1281.88,837.276 1287.76,811.763 1293.65,784.808 1299.53,757.109 1305.41,729.387 1311.29,702.331 1317.18,676.542 1323.06,652.505 1328.94,630.561 1334.82,610.918 1340.71,593.655 1346.59,578.756 1352.47,566.141 1358.35,555.7 1364.24,547.327 1370.12,540.942 1376,536.508 1381.88,534.029 1387.76,533.548 1393.65,535.126 1399.53,538.815 1405.41,544.633 1411.29,552.535 1417.18,562.394 1423.06,573.99 1428.94,587.014 1434.82,601.077 1440.71,615.738 1446.59,630.53 1452.47,644.986 1458.35,658.666 1464.24,671.171 1470.12,682.147 1476,691.286 1481.88,698.323 1487.76,703.03 1493.65,705.214 1499.53,704.733 1505.41,701.503 1511.29,695.524 1517.18,686.899 1523.06,675.852 1528.94,662.731 1534.82,647.992 1540.71,632.174 1546.59,615.845 1552.47,599.543 1558.35,583.834 1564.24,568.306 1570.12,555.714 1576,545.125 "
     id="polyline426" />
  <polyline
     transform="translate(-18.701248,20.534112)"
     style="opacity:1;fill:none;stroke:#cc0000;stroke-width:5;stroke-linecap:butt;stroke-linejoin:miter;stroke-miterlimit:4;stroke-dasharray:none"
     points="76,499.462 81.8824,499.411 87.7647,499.312 93.6471,499.136 99.5294,498.853 105.412,498.447 111.294,497.933 117.176,497.365 123.059,496.838 128.941,496.46 134.824,496.323 140.706,496.46 146.588,496.838 152.471,497.365 158.353,497.933 164.235,498.447 170.118,498.853 176,499.136 181.882,499.312 187.765,499.411 193.647,499.462 199.529,499.5 205.412,499.448 211.294,499.379 217.176,499.243 223.059,499.002 228.941,498.615 234.824,498.062 240.706,497.359 246.588,496.583 252.471,495.862 258.353,495.346 264.235,495.158 270.118,495.346 276,495.862 281.882,496.583 287.765,497.359 293.647,498.062 299.529,498.615 305.412,499.002 311.294,499.243 317.176,499.379 323.059,499.448 328.941,499.5 334.824,499.5 340.706,499.496 346.588,499.49 352.471,499.48 358.353,499.46 364.235,499.43 370.118,499.386 376,499.33 381.882,499.268 387.765,499.211 393.647,499.17 399.529,499.155 405.412,499.17 411.294,499.211 417.176,499.268 423.059,499.33 428.941,499.386 434.824,499.43 440.706,499.46 446.588,499.48 452.471,499.49 458.353,499.496 464.235,499.5 470.118,499.5 476,499.5 481.882,499.5 487.765,499.5 493.647,499.5 499.529,499.5 505.412,499.5 511.294,499.499 517.176,499.499 523.059,499.499 528.941,499.499 534.824,499.499 540.706,499.499 546.588,499.499 552.471,499.5 558.353,499.5 564.235,499.5 570.118,499.5 576,499.5 581.882,499.5 587.765,499.5 593.647,499.5 599.529,499.5 605.412,499.5 611.294,499.5 617.176,499.5 623.059,499.5 628.941,499.5 634.824,499.5 640.706,499.5 646.588,499.5 652.471,499.5 658.353,499.5 664.235,499.5 670.118,499.5 676,499.5 681.882,499.5 687.765,499.5 693.647,499.5 699.529,499.5 705.412,499.5 711.294,499.5 717.176,499.5 723.059,499.5 728.941,499.5 734.824,499.5 740.706,499.5 746.588,499.5 752.471,499.5 758.353,499.5 764.235,499.5 770.118,499.5 776,499.5 781.882,499.5 787.765,499.5 793.647,499.5 799.529,499.5 805.412,499.5 811.294,499.5 817.176,499.5 823.059,499.5 828.941,499.5 834.824,499.5 840.706,499.5 846.588,499.5 852.471,499.5 858.353,499.5 864.235,499.5 870.118,499.5 876,499.5 881.882,499.5 887.765,499.5 893.647,499.5 899.529,499.5 905.412,499.5 911.294,499.5 917.176,499.5 923.059,499.5 928.941,499.5 934.824,499.5 940.706,499.5 946.588,499.5 952.471,499.5 958.353,499.5 964.235,499.5 970.118,499.5 976,499.5 981.882,499.5 987.765,499.5 993.647,499.5 999.529,499.5 1005.41,499.5 1011.29,499.5 1017.18,499.5 1023.06,499.5 1028.94,499.5 1034.82,499.5 1040.71,499.5 1046.59,499.5 1052.47,499.5 1058.35,499.5 1064.24,499.5 1070.12,499.5 1076,499.5 1081.88,499.5 1087.76,499.5 1093.65,499.5 1099.53,499.5 1105.41,499.5 1111.29,493.877 1117.18,486.479 1123.06,471.901 1128.94,445.949 1134.82,404.382 1140.71,344.843 1146.59,269.306 1152.47,185.857 1158.35,108.304 1164.24,52.8486 1170.12,32.6683 1176,52.8486 1181.88,108.304 1187.76,185.857 1193.65,269.306 1199.53,344.843 1205.41,404.382 1211.29,445.949 1217.18,471.901 1223.06,486.479 1228.94,493.877 1234.82,499.5 1240.71,499.5 1246.59,499.5 1252.47,499.5 1258.35,499.5 1264.24,499.5 1270.12,499.5 1276,499.5 1281.88,499.5 1287.76,499.5 1293.65,499.5 1299.53,499.5 1305.41,499.5 1311.29,499.5 1317.18,499.5 1323.06,499.5 1328.94,499.5 1334.82,499.5 1340.71,499.5 1346.59,499.5 1352.47,499.5 1358.35,499.5 1364.24,499.5 1370.12,499.5 1376,499.5 1381.88,499.5 1387.76,499.5 1393.65,499.5 1399.53,499.5 1405.41,499.5 1411.29,499.5 1417.18,499.5 1423.06,499.5 1428.94,499.5 1434.82,497.022 1440.71,493.762 1446.59,487.338 1452.47,475.902 1458.35,457.585 1464.24,431.349 1470.12,398.062 1476,361.29 1481.88,327.115 1487.76,302.678 1493.65,293.786 1499.53,302.678 1505.41,327.115 1511.29,361.29 1517.18,398.062 1523.06,431.349 1528.94,457.585 1534.82,475.902 1540.71,487.338 1546.59,493.762 1552.47,497.022 1558.35,499.5 1564.24,499.5 1570.12,499.5 1576,499.5 "
     id="polyline428" />
</svg>
