<?xml version="1.0" encoding="UTF-8"?>
<svg xmlns="http://www.w3.org/2000/svg" xmlns:xlink="http://www.w3.org/1999/xlink" width="970.801pt" height="610.2pt" viewBox="0 0 1618 1017" version="1.1">
<g>
<pattern id="pattern0" patternUnits="userSpaceOnUse" x="0" y="0" width="7" height="7">
<line x1="0" y1="3" x2="7" y2="3" style="fill:none; stroke:rgb(0,0,0); opacity:1" />
</pattern>
<rect x="0" y="0" width="1617" height="1016" style="fill:rgb(255,255,255); stroke:none; opacity:1" />
<g clip-path="url(#cliprect-1)">
<line x1="76" y1="971" x2="1576" y2="971" style="fill:none; stroke:rgb(0,0,0); stroke-width:1; stroke-linecap:butt; stroke-linejoin:miter; stroke-dasharray:0; opacity:1" />
<line x1="1576" y1="971" x2="1582" y2="971" style="fill:none; stroke:rgb(0,0,0); stroke-width:1; stroke-linecap:butt; stroke-linejoin:miter; stroke-dasharray:0; opacity:1" />
<polygon style="fill:rgb(0,0,0); fill-rule:evenodd; stroke:none; opacity:1" points="1582,971 1578,975 1578,967 " />
<text x="76" y="984" font-family="Segoe UI" font-size="9pt" font-style="normal" font-weight="normal" text-decoration="none" text-anchor="middle" dominant-baseline="text-before-edge" fill="rgb(0,0,0)">
&#x30;
</text>
<line x1="76" y1="971" x2="76" y2="980" style="fill:none; stroke:rgb(0,0,0); stroke-width:1; stroke-linecap:butt; stroke-linejoin:miter; stroke-dasharray:0; opacity:1" />
<line x1="99.5294" y1="971" x2="99.5294" y2="975" style="fill:none; stroke:rgb(0,0,0); stroke-width:1; stroke-linecap:butt; stroke-linejoin:miter; stroke-dasharray:0; opacity:1" />
<line x1="123.059" y1="971" x2="123.059" y2="975" style="fill:none; stroke:rgb(0,0,0); stroke-width:1; stroke-linecap:butt; stroke-linejoin:miter; stroke-dasharray:0; opacity:1" />
<line x1="146.588" y1="971" x2="146.588" y2="975" style="fill:none; stroke:rgb(0,0,0); stroke-width:1; stroke-linecap:butt; stroke-linejoin:miter; stroke-dasharray:0; opacity:1" />
<line x1="170.118" y1="971" x2="170.118" y2="975" style="fill:none; stroke:rgb(0,0,0); stroke-width:1; stroke-linecap:butt; stroke-linejoin:miter; stroke-dasharray:0; opacity:1" />
<text x="193.647" y="984" font-family="Segoe UI" font-size="9pt" font-style="normal" font-weight="normal" text-decoration="none" text-anchor="middle" dominant-baseline="text-before-edge" fill="rgb(0,0,0)">
&#x32;&#x30;
</text>
<line x1="193.647" y1="971" x2="193.647" y2="980" style="fill:none; stroke:rgb(0,0,0); stroke-width:1; stroke-linecap:butt; stroke-linejoin:miter; stroke-dasharray:0; opacity:1" />
<line x1="217.176" y1="971" x2="217.176" y2="975" style="fill:none; stroke:rgb(0,0,0); stroke-width:1; stroke-linecap:butt; stroke-linejoin:miter; stroke-dasharray:0; opacity:1" />
<line x1="240.706" y1="971" x2="240.706" y2="975" style="fill:none; stroke:rgb(0,0,0); stroke-width:1; stroke-linecap:butt; stroke-linejoin:miter; stroke-dasharray:0; opacity:1" />
<line x1="264.235" y1="971" x2="264.235" y2="975" style="fill:none; stroke:rgb(0,0,0); stroke-width:1; stroke-linecap:butt; stroke-linejoin:miter; stroke-dasharray:0; opacity:1" />
<line x1="287.765" y1="971" x2="287.765" y2="975" style="fill:none; stroke:rgb(0,0,0); stroke-width:1; stroke-linecap:butt; stroke-linejoin:miter; stroke-dasharray:0; opacity:1" />
<text x="311.294" y="984" font-family="Segoe UI" font-size="9pt" font-style="normal" font-weight="normal" text-decoration="none" text-anchor="middle" dominant-baseline="text-before-edge" fill="rgb(0,0,0)">
&#x34;&#x30;
</text>
<line x1="311.294" y1="971" x2="311.294" y2="980" style="fill:none; stroke:rgb(0,0,0); stroke-width:1; stroke-linecap:butt; stroke-linejoin:miter; stroke-dasharray:0; opacity:1" />
<line x1="334.824" y1="971" x2="334.824" y2="975" style="fill:none; stroke:rgb(0,0,0); stroke-width:1; stroke-linecap:butt; stroke-linejoin:miter; stroke-dasharray:0; opacity:1" />
<line x1="358.353" y1="971" x2="358.353" y2="975" style="fill:none; stroke:rgb(0,0,0); stroke-width:1; stroke-linecap:butt; stroke-linejoin:miter; stroke-dasharray:0; opacity:1" />
<line x1="381.882" y1="971" x2="381.882" y2="975" style="fill:none; stroke:rgb(0,0,0); stroke-width:1; stroke-linecap:butt; stroke-linejoin:miter; stroke-dasharray:0; opacity:1" />
<line x1="405.412" y1="971" x2="405.412" y2="975" style="fill:none; stroke:rgb(0,0,0); stroke-width:1; stroke-linecap:butt; stroke-linejoin:miter; stroke-dasharray:0; opacity:1" />
<text x="428.941" y="984" font-family="Segoe UI" font-size="9pt" font-style="normal" font-weight="normal" text-decoration="none" text-anchor="middle" dominant-baseline="text-before-edge" fill="rgb(0,0,0)">
&#x36;&#x30;
</text>
<line x1="428.941" y1="971" x2="428.941" y2="980" style="fill:none; stroke:rgb(0,0,0); stroke-width:1; stroke-linecap:butt; stroke-linejoin:miter; stroke-dasharray:0; opacity:1" />
<line x1="452.471" y1="971" x2="452.471" y2="975" style="fill:none; stroke:rgb(0,0,0); stroke-width:1; stroke-linecap:butt; stroke-linejoin:miter; stroke-dasharray:0; opacity:1" />
<line x1="476" y1="971" x2="476" y2="975" style="fill:none; stroke:rgb(0,0,0); stroke-width:1; stroke-linecap:butt; stroke-linejoin:miter; stroke-dasharray:0; opacity:1" />
<line x1="499.529" y1="971" x2="499.529" y2="975" style="fill:none; stroke:rgb(0,0,0); stroke-width:1; stroke-linecap:butt; stroke-linejoin:miter; stroke-dasharray:0; opacity:1" />
<line x1="523.059" y1="971" x2="523.059" y2="975" style="fill:none; stroke:rgb(0,0,0); stroke-width:1; stroke-linecap:butt; stroke-linejoin:miter; stroke-dasharray:0; opacity:1" />
<text x="546.588" y="984" font-family="Segoe UI" font-size="9pt" font-style="normal" font-weight="normal" text-decoration="none" text-anchor="middle" dominant-baseline="text-before-edge" fill="rgb(0,0,0)">
&#x38;&#x30;
</text>
<line x1="546.588" y1="971" x2="546.588" y2="980" style="fill:none; stroke:rgb(0,0,0); stroke-width:1; stroke-linecap:butt; stroke-linejoin:miter; stroke-dasharray:0; opacity:1" />
<line x1="570.118" y1="971" x2="570.118" y2="975" style="fill:none; stroke:rgb(0,0,0); stroke-width:1; stroke-linecap:butt; stroke-linejoin:miter; stroke-dasharray:0; opacity:1" />
<line x1="593.647" y1="971" x2="593.647" y2="975" style="fill:none; stroke:rgb(0,0,0); stroke-width:1; stroke-linecap:butt; stroke-linejoin:miter; stroke-dasharray:0; opacity:1" />
<line x1="617.176" y1="971" x2="617.176" y2="975" style="fill:none; stroke:rgb(0,0,0); stroke-width:1; stroke-linecap:butt; stroke-linejoin:miter; stroke-dasharray:0; opacity:1" />
<line x1="640.706" y1="971" x2="640.706" y2="975" style="fill:none; stroke:rgb(0,0,0); stroke-width:1; stroke-linecap:butt; stroke-linejoin:miter; stroke-dasharray:0; opacity:1" />
<text x="664.235" y="984" font-family="Segoe UI" font-size="9pt" font-style="normal" font-weight="normal" text-decoration="none" text-anchor="middle" dominant-baseline="text-before-edge" fill="rgb(0,0,0)">
&#x31;&#x30;&#x30;
</text>
<line x1="664.235" y1="971" x2="664.235" y2="980" style="fill:none; stroke:rgb(0,0,0); stroke-width:1; stroke-linecap:butt; stroke-linejoin:miter; stroke-dasharray:0; opacity:1" />
<line x1="687.765" y1="971" x2="687.765" y2="975" style="fill:none; stroke:rgb(0,0,0); stroke-width:1; stroke-linecap:butt; stroke-linejoin:miter; stroke-dasharray:0; opacity:1" />
<line x1="711.294" y1="971" x2="711.294" y2="975" style="fill:none; stroke:rgb(0,0,0); stroke-width:1; stroke-linecap:butt; stroke-linejoin:miter; stroke-dasharray:0; opacity:1" />
<line x1="734.824" y1="971" x2="734.824" y2="975" style="fill:none; stroke:rgb(0,0,0); stroke-width:1; stroke-linecap:butt; stroke-linejoin:miter; stroke-dasharray:0; opacity:1" />
<line x1="758.353" y1="971" x2="758.353" y2="975" style="fill:none; stroke:rgb(0,0,0); stroke-width:1; stroke-linecap:butt; stroke-linejoin:miter; stroke-dasharray:0; opacity:1" />
<text x="781.882" y="984" font-family="Segoe UI" font-size="9pt" font-style="normal" font-weight="normal" text-decoration="none" text-anchor="middle" dominant-baseline="text-before-edge" fill="rgb(0,0,0)">
&#x31;&#x32;&#x30;
</text>
<line x1="781.882" y1="971" x2="781.882" y2="980" style="fill:none; stroke:rgb(0,0,0); stroke-width:1; stroke-linecap:butt; stroke-linejoin:miter; stroke-dasharray:0; opacity:1" />
<line x1="805.412" y1="971" x2="805.412" y2="975" style="fill:none; stroke:rgb(0,0,0); stroke-width:1; stroke-linecap:butt; stroke-linejoin:miter; stroke-dasharray:0; opacity:1" />
<line x1="828.941" y1="971" x2="828.941" y2="975" style="fill:none; stroke:rgb(0,0,0); stroke-width:1; stroke-linecap:butt; stroke-linejoin:miter; stroke-dasharray:0; opacity:1" />
<line x1="852.471" y1="971" x2="852.471" y2="975" style="fill:none; stroke:rgb(0,0,0); stroke-width:1; stroke-linecap:butt; stroke-linejoin:miter; stroke-dasharray:0; opacity:1" />
<line x1="876" y1="971" x2="876" y2="975" style="fill:none; stroke:rgb(0,0,0); stroke-width:1; stroke-linecap:butt; stroke-linejoin:miter; stroke-dasharray:0; opacity:1" />
<text x="899.529" y="984" font-family="Segoe UI" font-size="9pt" font-style="normal" font-weight="normal" text-decoration="none" text-anchor="middle" dominant-baseline="text-before-edge" fill="rgb(0,0,0)">
&#x31;&#x34;&#x30;
</text>
<line x1="899.529" y1="971" x2="899.529" y2="980" style="fill:none; stroke:rgb(0,0,0); stroke-width:1; stroke-linecap:butt; stroke-linejoin:miter; stroke-dasharray:0; opacity:1" />
<line x1="923.059" y1="971" x2="923.059" y2="975" style="fill:none; stroke:rgb(0,0,0); stroke-width:1; stroke-linecap:butt; stroke-linejoin:miter; stroke-dasharray:0; opacity:1" />
<line x1="946.588" y1="971" x2="946.588" y2="975" style="fill:none; stroke:rgb(0,0,0); stroke-width:1; stroke-linecap:butt; stroke-linejoin:miter; stroke-dasharray:0; opacity:1" />
<line x1="970.118" y1="971" x2="970.118" y2="975" style="fill:none; stroke:rgb(0,0,0); stroke-width:1; stroke-linecap:butt; stroke-linejoin:miter; stroke-dasharray:0; opacity:1" />
<line x1="993.647" y1="971" x2="993.647" y2="975" style="fill:none; stroke:rgb(0,0,0); stroke-width:1; stroke-linecap:butt; stroke-linejoin:miter; stroke-dasharray:0; opacity:1" />
<text x="1017.18" y="984" font-family="Segoe UI" font-size="9pt" font-style="normal" font-weight="normal" text-decoration="none" text-anchor="middle" dominant-baseline="text-before-edge" fill="rgb(0,0,0)">
&#x31;&#x36;&#x30;
</text>
<line x1="1017.18" y1="971" x2="1017.18" y2="980" style="fill:none; stroke:rgb(0,0,0); stroke-width:1; stroke-linecap:butt; stroke-linejoin:miter; stroke-dasharray:0; opacity:1" />
<line x1="1040.71" y1="971" x2="1040.71" y2="975" style="fill:none; stroke:rgb(0,0,0); stroke-width:1; stroke-linecap:butt; stroke-linejoin:miter; stroke-dasharray:0; opacity:1" />
<line x1="1064.24" y1="971" x2="1064.24" y2="975" style="fill:none; stroke:rgb(0,0,0); stroke-width:1; stroke-linecap:butt; stroke-linejoin:miter; stroke-dasharray:0; opacity:1" />
<line x1="1087.76" y1="971" x2="1087.76" y2="975" style="fill:none; stroke:rgb(0,0,0); stroke-width:1; stroke-linecap:butt; stroke-linejoin:miter; stroke-dasharray:0; opacity:1" />
<line x1="1111.29" y1="971" x2="1111.29" y2="975" style="fill:none; stroke:rgb(0,0,0); stroke-width:1; stroke-linecap:butt; stroke-linejoin:miter; stroke-dasharray:0; opacity:1" />
<text x="1134.82" y="984" font-family="Segoe UI" font-size="9pt" font-style="normal" font-weight="normal" text-decoration="none" text-anchor="middle" dominant-baseline="text-before-edge" fill="rgb(0,0,0)">
&#x31;&#x38;&#x30;
</text>
<line x1="1134.82" y1="971" x2="1134.82" y2="980" style="fill:none; stroke:rgb(0,0,0); stroke-width:1; stroke-linecap:butt; stroke-linejoin:miter; stroke-dasharray:0; opacity:1" />
<line x1="1158.35" y1="971" x2="1158.35" y2="975" style="fill:none; stroke:rgb(0,0,0); stroke-width:1; stroke-linecap:butt; stroke-linejoin:miter; stroke-dasharray:0; opacity:1" />
<line x1="1181.88" y1="971" x2="1181.88" y2="975" style="fill:none; stroke:rgb(0,0,0); stroke-width:1; stroke-linecap:butt; stroke-linejoin:miter; stroke-dasharray:0; opacity:1" />
<line x1="1205.41" y1="971" x2="1205.41" y2="975" style="fill:none; stroke:rgb(0,0,0); stroke-width:1; stroke-linecap:butt; stroke-linejoin:miter; stroke-dasharray:0; opacity:1" />
<line x1="1228.94" y1="971" x2="1228.94" y2="975" style="fill:none; stroke:rgb(0,0,0); stroke-width:1; stroke-linecap:butt; stroke-linejoin:miter; stroke-dasharray:0; opacity:1" />
<text x="1252.47" y="984" font-family="Segoe UI" font-size="9pt" font-style="normal" font-weight="normal" text-decoration="none" text-anchor="middle" dominant-baseline="text-before-edge" fill="rgb(0,0,0)">
&#x32;&#x30;&#x30;
</text>
<line x1="1252.47" y1="971" x2="1252.47" y2="980" style="fill:none; stroke:rgb(0,0,0); stroke-width:1; stroke-linecap:butt; stroke-linejoin:miter; stroke-dasharray:0; opacity:1" />
<line x1="1276" y1="971" x2="1276" y2="975" style="fill:none; stroke:rgb(0,0,0); stroke-width:1; stroke-linecap:butt; stroke-linejoin:miter; stroke-dasharray:0; opacity:1" />
<line x1="1299.53" y1="971" x2="1299.53" y2="975" style="fill:none; stroke:rgb(0,0,0); stroke-width:1; stroke-linecap:butt; stroke-linejoin:miter; stroke-dasharray:0; opacity:1" />
<line x1="1323.06" y1="971" x2="1323.06" y2="975" style="fill:none; stroke:rgb(0,0,0); stroke-width:1; stroke-linecap:butt; stroke-linejoin:miter; stroke-dasharray:0; opacity:1" />
<line x1="1346.59" y1="971" x2="1346.59" y2="975" style="fill:none; stroke:rgb(0,0,0); stroke-width:1; stroke-linecap:butt; stroke-linejoin:miter; stroke-dasharray:0; opacity:1" />
<text x="1370.12" y="984" font-family="Segoe UI" font-size="9pt" font-style="normal" font-weight="normal" text-decoration="none" text-anchor="middle" dominant-baseline="text-before-edge" fill="rgb(0,0,0)">
&#x32;&#x32;&#x30;
</text>
<line x1="1370.12" y1="971" x2="1370.12" y2="980" style="fill:none; stroke:rgb(0,0,0); stroke-width:1; stroke-linecap:butt; stroke-linejoin:miter; stroke-dasharray:0; opacity:1" />
<line x1="1393.65" y1="971" x2="1393.65" y2="975" style="fill:none; stroke:rgb(0,0,0); stroke-width:1; stroke-linecap:butt; stroke-linejoin:miter; stroke-dasharray:0; opacity:1" />
<line x1="1417.18" y1="971" x2="1417.18" y2="975" style="fill:none; stroke:rgb(0,0,0); stroke-width:1; stroke-linecap:butt; stroke-linejoin:miter; stroke-dasharray:0; opacity:1" />
<line x1="1440.71" y1="971" x2="1440.71" y2="975" style="fill:none; stroke:rgb(0,0,0); stroke-width:1; stroke-linecap:butt; stroke-linejoin:miter; stroke-dasharray:0; opacity:1" />
<line x1="1464.24" y1="971" x2="1464.24" y2="975" style="fill:none; stroke:rgb(0,0,0); stroke-width:1; stroke-linecap:butt; stroke-linejoin:miter; stroke-dasharray:0; opacity:1" />
<text x="1487.76" y="984" font-family="Segoe UI" font-size="9pt" font-style="normal" font-weight="normal" text-decoration="none" text-anchor="middle" dominant-baseline="text-before-edge" fill="rgb(0,0,0)">
&#x32;&#x34;&#x30;
</text>
<line x1="1487.76" y1="971" x2="1487.76" y2="980" style="fill:none; stroke:rgb(0,0,0); stroke-width:1; stroke-linecap:butt; stroke-linejoin:miter; stroke-dasharray:0; opacity:1" />
<line x1="1511.29" y1="971" x2="1511.29" y2="975" style="fill:none; stroke:rgb(0,0,0); stroke-width:1; stroke-linecap:butt; stroke-linejoin:miter; stroke-dasharray:0; opacity:1" />
<line x1="1534.82" y1="971" x2="1534.82" y2="975" style="fill:none; stroke:rgb(0,0,0); stroke-width:1; stroke-linecap:butt; stroke-linejoin:miter; stroke-dasharray:0; opacity:1" />
<line x1="1558.35" y1="971" x2="1558.35" y2="975" style="fill:none; stroke:rgb(0,0,0); stroke-width:1; stroke-linecap:butt; stroke-linejoin:miter; stroke-dasharray:0; opacity:1" />
<line x1="76" y1="971" x2="76" y2="28" style="fill:none; stroke:rgb(0,0,0); stroke-width:1; stroke-linecap:butt; stroke-linejoin:miter; stroke-dasharray:0; opacity:1" />
<line x1="76" y1="28" x2="76" y2="22" style="fill:none; stroke:rgb(0,0,0); stroke-width:1; stroke-linecap:butt; stroke-linejoin:miter; stroke-dasharray:0; opacity:1" />
<polygon style="fill:rgb(0,0,0); fill-rule:evenodd; stroke:none; opacity:1" points="76,22 72,26 80,26 " />
<text x="63" y="966.332" font-family="Segoe UI" font-size="9pt" font-style="normal" font-weight="normal" text-decoration="none" text-anchor="end" dominant-baseline="middle" fill="rgb(0,0,0)">
&#x2D;&#x31;&#x2E;&#x30;
</text>
<line x1="76" y1="966.332" x2="67" y2="966.332" style="fill:none; stroke:rgb(0,0,0); stroke-width:1; stroke-linecap:butt; stroke-linejoin:miter; stroke-dasharray:0; opacity:1" />
<line x1="76" y1="956.995" x2="72" y2="956.995" style="fill:none; stroke:rgb(0,0,0); stroke-width:1; stroke-linecap:butt; stroke-linejoin:miter; stroke-dasharray:0; opacity:1" />
<line x1="76" y1="947.658" x2="72" y2="947.658" style="fill:none; stroke:rgb(0,0,0); stroke-width:1; stroke-linecap:butt; stroke-linejoin:miter; stroke-dasharray:0; opacity:1" />
<line x1="76" y1="938.322" x2="72" y2="938.322" style="fill:none; stroke:rgb(0,0,0); stroke-width:1; stroke-linecap:butt; stroke-linejoin:miter; stroke-dasharray:0; opacity:1" />
<line x1="76" y1="928.985" x2="72" y2="928.985" style="fill:none; stroke:rgb(0,0,0); stroke-width:1; stroke-linecap:butt; stroke-linejoin:miter; stroke-dasharray:0; opacity:1" />
<text x="63" y="919.649" font-family="Segoe UI" font-size="9pt" font-style="normal" font-weight="normal" text-decoration="none" text-anchor="end" dominant-baseline="middle" fill="rgb(0,0,0)">
&#x2D;&#x30;&#x2E;&#x39;
</text>
<line x1="76" y1="919.649" x2="67" y2="919.649" style="fill:none; stroke:rgb(0,0,0); stroke-width:1; stroke-linecap:butt; stroke-linejoin:miter; stroke-dasharray:0; opacity:1" />
<line x1="76" y1="910.312" x2="72" y2="910.312" style="fill:none; stroke:rgb(0,0,0); stroke-width:1; stroke-linecap:butt; stroke-linejoin:miter; stroke-dasharray:0; opacity:1" />
<line x1="76" y1="900.975" x2="72" y2="900.975" style="fill:none; stroke:rgb(0,0,0); stroke-width:1; stroke-linecap:butt; stroke-linejoin:miter; stroke-dasharray:0; opacity:1" />
<line x1="76" y1="891.639" x2="72" y2="891.639" style="fill:none; stroke:rgb(0,0,0); stroke-width:1; stroke-linecap:butt; stroke-linejoin:miter; stroke-dasharray:0; opacity:1" />
<line x1="76" y1="882.302" x2="72" y2="882.302" style="fill:none; stroke:rgb(0,0,0); stroke-width:1; stroke-linecap:butt; stroke-linejoin:miter; stroke-dasharray:0; opacity:1" />
<text x="63" y="872.965" font-family="Segoe UI" font-size="9pt" font-style="normal" font-weight="normal" text-decoration="none" text-anchor="end" dominant-baseline="middle" fill="rgb(0,0,0)">
&#x2D;&#x30;&#x2E;&#x38;
</text>
<line x1="76" y1="872.965" x2="67" y2="872.965" style="fill:none; stroke:rgb(0,0,0); stroke-width:1; stroke-linecap:butt; stroke-linejoin:miter; stroke-dasharray:0; opacity:1" />
<line x1="76" y1="863.629" x2="72" y2="863.629" style="fill:none; stroke:rgb(0,0,0); stroke-width:1; stroke-linecap:butt; stroke-linejoin:miter; stroke-dasharray:0; opacity:1" />
<line x1="76" y1="854.292" x2="72" y2="854.292" style="fill:none; stroke:rgb(0,0,0); stroke-width:1; stroke-linecap:butt; stroke-linejoin:miter; stroke-dasharray:0; opacity:1" />
<line x1="76" y1="844.955" x2="72" y2="844.955" style="fill:none; stroke:rgb(0,0,0); stroke-width:1; stroke-linecap:butt; stroke-linejoin:miter; stroke-dasharray:0; opacity:1" />
<line x1="76" y1="835.619" x2="72" y2="835.619" style="fill:none; stroke:rgb(0,0,0); stroke-width:1; stroke-linecap:butt; stroke-linejoin:miter; stroke-dasharray:0; opacity:1" />
<text x="63" y="826.282" font-family="Segoe UI" font-size="9pt" font-style="normal" font-weight="normal" text-decoration="none" text-anchor="end" dominant-baseline="middle" fill="rgb(0,0,0)">
&#x2D;&#x30;&#x2E;&#x37;
</text>
<line x1="76" y1="826.282" x2="67" y2="826.282" style="fill:none; stroke:rgb(0,0,0); stroke-width:1; stroke-linecap:butt; stroke-linejoin:miter; stroke-dasharray:0; opacity:1" />
<line x1="76" y1="816.946" x2="72" y2="816.946" style="fill:none; stroke:rgb(0,0,0); stroke-width:1; stroke-linecap:butt; stroke-linejoin:miter; stroke-dasharray:0; opacity:1" />
<line x1="76" y1="807.609" x2="72" y2="807.609" style="fill:none; stroke:rgb(0,0,0); stroke-width:1; stroke-linecap:butt; stroke-linejoin:miter; stroke-dasharray:0; opacity:1" />
<line x1="76" y1="798.272" x2="72" y2="798.272" style="fill:none; stroke:rgb(0,0,0); stroke-width:1; stroke-linecap:butt; stroke-linejoin:miter; stroke-dasharray:0; opacity:1" />
<line x1="76" y1="788.936" x2="72" y2="788.936" style="fill:none; stroke:rgb(0,0,0); stroke-width:1; stroke-linecap:butt; stroke-linejoin:miter; stroke-dasharray:0; opacity:1" />
<text x="63" y="779.599" font-family="Segoe UI" font-size="9pt" font-style="normal" font-weight="normal" text-decoration="none" text-anchor="end" dominant-baseline="middle" fill="rgb(0,0,0)">
&#x2D;&#x30;&#x2E;&#x36;
</text>
<line x1="76" y1="779.599" x2="67" y2="779.599" style="fill:none; stroke:rgb(0,0,0); stroke-width:1; stroke-linecap:butt; stroke-linejoin:miter; stroke-dasharray:0; opacity:1" />
<line x1="76" y1="770.262" x2="72" y2="770.262" style="fill:none; stroke:rgb(0,0,0); stroke-width:1; stroke-linecap:butt; stroke-linejoin:miter; stroke-dasharray:0; opacity:1" />
<line x1="76" y1="760.926" x2="72" y2="760.926" style="fill:none; stroke:rgb(0,0,0); stroke-width:1; stroke-linecap:butt; stroke-linejoin:miter; stroke-dasharray:0; opacity:1" />
<line x1="76" y1="751.589" x2="72" y2="751.589" style="fill:none; stroke:rgb(0,0,0); stroke-width:1; stroke-linecap:butt; stroke-linejoin:miter; stroke-dasharray:0; opacity:1" />
<line x1="76" y1="742.252" x2="72" y2="742.252" style="fill:none; stroke:rgb(0,0,0); stroke-width:1; stroke-linecap:butt; stroke-linejoin:miter; stroke-dasharray:0; opacity:1" />
<text x="63" y="732.916" font-family="Segoe UI" font-size="9pt" font-style="normal" font-weight="normal" text-decoration="none" text-anchor="end" dominant-baseline="middle" fill="rgb(0,0,0)">
&#x2D;&#x30;&#x2E;&#x35;
</text>
<line x1="76" y1="732.916" x2="67" y2="732.916" style="fill:none; stroke:rgb(0,0,0); stroke-width:1; stroke-linecap:butt; stroke-linejoin:miter; stroke-dasharray:0; opacity:1" />
<line x1="76" y1="723.579" x2="72" y2="723.579" style="fill:none; stroke:rgb(0,0,0); stroke-width:1; stroke-linecap:butt; stroke-linejoin:miter; stroke-dasharray:0; opacity:1" />
<line x1="76" y1="714.243" x2="72" y2="714.243" style="fill:none; stroke:rgb(0,0,0); stroke-width:1; stroke-linecap:butt; stroke-linejoin:miter; stroke-dasharray:0; opacity:1" />
<line x1="76" y1="704.906" x2="72" y2="704.906" style="fill:none; stroke:rgb(0,0,0); stroke-width:1; stroke-linecap:butt; stroke-linejoin:miter; stroke-dasharray:0; opacity:1" />
<line x1="76" y1="695.569" x2="72" y2="695.569" style="fill:none; stroke:rgb(0,0,0); stroke-width:1; stroke-linecap:butt; stroke-linejoin:miter; stroke-dasharray:0; opacity:1" />
<text x="63" y="686.233" font-family="Segoe UI" font-size="9pt" font-style="normal" font-weight="normal" text-decoration="none" text-anchor="end" dominant-baseline="middle" fill="rgb(0,0,0)">
&#x2D;&#x30;&#x2E;&#x34;
</text>
<line x1="76" y1="686.233" x2="67" y2="686.233" style="fill:none; stroke:rgb(0,0,0); stroke-width:1; stroke-linecap:butt; stroke-linejoin:miter; stroke-dasharray:0; opacity:1" />
<line x1="76" y1="676.896" x2="72" y2="676.896" style="fill:none; stroke:rgb(0,0,0); stroke-width:1; stroke-linecap:butt; stroke-linejoin:miter; stroke-dasharray:0; opacity:1" />
<line x1="76" y1="667.559" x2="72" y2="667.559" style="fill:none; stroke:rgb(0,0,0); stroke-width:1; stroke-linecap:butt; stroke-linejoin:miter; stroke-dasharray:0; opacity:1" />
<line x1="76" y1="658.223" x2="72" y2="658.223" style="fill:none; stroke:rgb(0,0,0); stroke-width:1; stroke-linecap:butt; stroke-linejoin:miter; stroke-dasharray:0; opacity:1" />
<line x1="76" y1="648.886" x2="72" y2="648.886" style="fill:none; stroke:rgb(0,0,0); stroke-width:1; stroke-linecap:butt; stroke-linejoin:miter; stroke-dasharray:0; opacity:1" />
<text x="63" y="639.55" font-family="Segoe UI" font-size="9pt" font-style="normal" font-weight="normal" text-decoration="none" text-anchor="end" dominant-baseline="middle" fill="rgb(0,0,0)">
&#x2D;&#x30;&#x2E;&#x33;
</text>
<line x1="76" y1="639.55" x2="67" y2="639.55" style="fill:none; stroke:rgb(0,0,0); stroke-width:1; stroke-linecap:butt; stroke-linejoin:miter; stroke-dasharray:0; opacity:1" />
<line x1="76" y1="630.213" x2="72" y2="630.213" style="fill:none; stroke:rgb(0,0,0); stroke-width:1; stroke-linecap:butt; stroke-linejoin:miter; stroke-dasharray:0; opacity:1" />
<line x1="76" y1="620.876" x2="72" y2="620.876" style="fill:none; stroke:rgb(0,0,0); stroke-width:1; stroke-linecap:butt; stroke-linejoin:miter; stroke-dasharray:0; opacity:1" />
<line x1="76" y1="611.54" x2="72" y2="611.54" style="fill:none; stroke:rgb(0,0,0); stroke-width:1; stroke-linecap:butt; stroke-linejoin:miter; stroke-dasharray:0; opacity:1" />
<line x1="76" y1="602.203" x2="72" y2="602.203" style="fill:none; stroke:rgb(0,0,0); stroke-width:1; stroke-linecap:butt; stroke-linejoin:miter; stroke-dasharray:0; opacity:1" />
<text x="63" y="592.866" font-family="Segoe UI" font-size="9pt" font-style="normal" font-weight="normal" text-decoration="none" text-anchor="end" dominant-baseline="middle" fill="rgb(0,0,0)">
&#x2D;&#x30;&#x2E;&#x32;
</text>
<line x1="76" y1="592.866" x2="67" y2="592.866" style="fill:none; stroke:rgb(0,0,0); stroke-width:1; stroke-linecap:butt; stroke-linejoin:miter; stroke-dasharray:0; opacity:1" />
<line x1="76" y1="583.53" x2="72" y2="583.53" style="fill:none; stroke:rgb(0,0,0); stroke-width:1; stroke-linecap:butt; stroke-linejoin:miter; stroke-dasharray:0; opacity:1" />
<line x1="76" y1="574.193" x2="72" y2="574.193" style="fill:none; stroke:rgb(0,0,0); stroke-width:1; stroke-linecap:butt; stroke-linejoin:miter; stroke-dasharray:0; opacity:1" />
<line x1="76" y1="564.856" x2="72" y2="564.856" style="fill:none; stroke:rgb(0,0,0); stroke-width:1; stroke-linecap:butt; stroke-linejoin:miter; stroke-dasharray:0; opacity:1" />
<line x1="76" y1="555.52" x2="72" y2="555.52" style="fill:none; stroke:rgb(0,0,0); stroke-width:1; stroke-linecap:butt; stroke-linejoin:miter; stroke-dasharray:0; opacity:1" />
<text x="63" y="546.183" font-family="Segoe UI" font-size="9pt" font-style="normal" font-weight="normal" text-decoration="none" text-anchor="end" dominant-baseline="middle" fill="rgb(0,0,0)">
&#x2D;&#x30;&#x2E;&#x31;
</text>
<line x1="76" y1="546.183" x2="67" y2="546.183" style="fill:none; stroke:rgb(0,0,0); stroke-width:1; stroke-linecap:butt; stroke-linejoin:miter; stroke-dasharray:0; opacity:1" />
<line x1="76" y1="536.847" x2="72" y2="536.847" style="fill:none; stroke:rgb(0,0,0); stroke-width:1; stroke-linecap:butt; stroke-linejoin:miter; stroke-dasharray:0; opacity:1" />
<line x1="76" y1="527.51" x2="72" y2="527.51" style="fill:none; stroke:rgb(0,0,0); stroke-width:1; stroke-linecap:butt; stroke-linejoin:miter; stroke-dasharray:0; opacity:1" />
<line x1="76" y1="518.173" x2="72" y2="518.173" style="fill:none; stroke:rgb(0,0,0); stroke-width:1; stroke-linecap:butt; stroke-linejoin:miter; stroke-dasharray:0; opacity:1" />
<line x1="76" y1="508.837" x2="72" y2="508.837" style="fill:none; stroke:rgb(0,0,0); stroke-width:1; stroke-linecap:butt; stroke-linejoin:miter; stroke-dasharray:0; opacity:1" />
<text x="63" y="499.5" font-family="Segoe UI" font-size="9pt" font-style="normal" font-weight="normal" text-decoration="none" text-anchor="end" dominant-baseline="middle" fill="rgb(0,0,0)">
&#x30;&#x2E;&#x30;
</text>
<line x1="76" y1="499.5" x2="67" y2="499.5" style="fill:none; stroke:rgb(0,0,0); stroke-width:1; stroke-linecap:butt; stroke-linejoin:miter; stroke-dasharray:0; opacity:1" />
<line x1="76" y1="490.163" x2="72" y2="490.163" style="fill:none; stroke:rgb(0,0,0); stroke-width:1; stroke-linecap:butt; stroke-linejoin:miter; stroke-dasharray:0; opacity:1" />
<line x1="76" y1="480.827" x2="72" y2="480.827" style="fill:none; stroke:rgb(0,0,0); stroke-width:1; stroke-linecap:butt; stroke-linejoin:miter; stroke-dasharray:0; opacity:1" />
<line x1="76" y1="471.49" x2="72" y2="471.49" style="fill:none; stroke:rgb(0,0,0); stroke-width:1; stroke-linecap:butt; stroke-linejoin:miter; stroke-dasharray:0; opacity:1" />
<line x1="76" y1="462.153" x2="72" y2="462.153" style="fill:none; stroke:rgb(0,0,0); stroke-width:1; stroke-linecap:butt; stroke-linejoin:miter; stroke-dasharray:0; opacity:1" />
<text x="63" y="452.817" font-family="Segoe UI" font-size="9pt" font-style="normal" font-weight="normal" text-decoration="none" text-anchor="end" dominant-baseline="middle" fill="rgb(0,0,0)">
&#x30;&#x2E;&#x31;
</text>
<line x1="76" y1="452.817" x2="67" y2="452.817" style="fill:none; stroke:rgb(0,0,0); stroke-width:1; stroke-linecap:butt; stroke-linejoin:miter; stroke-dasharray:0; opacity:1" />
<line x1="76" y1="443.48" x2="72" y2="443.48" style="fill:none; stroke:rgb(0,0,0); stroke-width:1; stroke-linecap:butt; stroke-linejoin:miter; stroke-dasharray:0; opacity:1" />
<line x1="76" y1="434.144" x2="72" y2="434.144" style="fill:none; stroke:rgb(0,0,0); stroke-width:1; stroke-linecap:butt; stroke-linejoin:miter; stroke-dasharray:0; opacity:1" />
<line x1="76" y1="424.807" x2="72" y2="424.807" style="fill:none; stroke:rgb(0,0,0); stroke-width:1; stroke-linecap:butt; stroke-linejoin:miter; stroke-dasharray:0; opacity:1" />
<line x1="76" y1="415.47" x2="72" y2="415.47" style="fill:none; stroke:rgb(0,0,0); stroke-width:1; stroke-linecap:butt; stroke-linejoin:miter; stroke-dasharray:0; opacity:1" />
<text x="63" y="406.134" font-family="Segoe UI" font-size="9pt" font-style="normal" font-weight="normal" text-decoration="none" text-anchor="end" dominant-baseline="middle" fill="rgb(0,0,0)">
&#x30;&#x2E;&#x32;
</text>
<line x1="76" y1="406.134" x2="67" y2="406.134" style="fill:none; stroke:rgb(0,0,0); stroke-width:1; stroke-linecap:butt; stroke-linejoin:miter; stroke-dasharray:0; opacity:1" />
<line x1="76" y1="396.797" x2="72" y2="396.797" style="fill:none; stroke:rgb(0,0,0); stroke-width:1; stroke-linecap:butt; stroke-linejoin:miter; stroke-dasharray:0; opacity:1" />
<line x1="76" y1="387.46" x2="72" y2="387.46" style="fill:none; stroke:rgb(0,0,0); stroke-width:1; stroke-linecap:butt; stroke-linejoin:miter; stroke-dasharray:0; opacity:1" />
<line x1="76" y1="378.124" x2="72" y2="378.124" style="fill:none; stroke:rgb(0,0,0); stroke-width:1; stroke-linecap:butt; stroke-linejoin:miter; stroke-dasharray:0; opacity:1" />
<line x1="76" y1="368.787" x2="72" y2="368.787" style="fill:none; stroke:rgb(0,0,0); stroke-width:1; stroke-linecap:butt; stroke-linejoin:miter; stroke-dasharray:0; opacity:1" />
<text x="63" y="359.45" font-family="Segoe UI" font-size="9pt" font-style="normal" font-weight="normal" text-decoration="none" text-anchor="end" dominant-baseline="middle" fill="rgb(0,0,0)">
&#x30;&#x2E;&#x33;
</text>
<line x1="76" y1="359.45" x2="67" y2="359.45" style="fill:none; stroke:rgb(0,0,0); stroke-width:1; stroke-linecap:butt; stroke-linejoin:miter; stroke-dasharray:0; opacity:1" />
<line x1="76" y1="350.114" x2="72" y2="350.114" style="fill:none; stroke:rgb(0,0,0); stroke-width:1; stroke-linecap:butt; stroke-linejoin:miter; stroke-dasharray:0; opacity:1" />
<line x1="76" y1="340.777" x2="72" y2="340.777" style="fill:none; stroke:rgb(0,0,0); stroke-width:1; stroke-linecap:butt; stroke-linejoin:miter; stroke-dasharray:0; opacity:1" />
<line x1="76" y1="331.441" x2="72" y2="331.441" style="fill:none; stroke:rgb(0,0,0); stroke-width:1; stroke-linecap:butt; stroke-linejoin:miter; stroke-dasharray:0; opacity:1" />
<line x1="76" y1="322.104" x2="72" y2="322.104" style="fill:none; stroke:rgb(0,0,0); stroke-width:1; stroke-linecap:butt; stroke-linejoin:miter; stroke-dasharray:0; opacity:1" />
<text x="63" y="312.767" font-family="Segoe UI" font-size="9pt" font-style="normal" font-weight="normal" text-decoration="none" text-anchor="end" dominant-baseline="middle" fill="rgb(0,0,0)">
&#x30;&#x2E;&#x34;
</text>
<line x1="76" y1="312.767" x2="67" y2="312.767" style="fill:none; stroke:rgb(0,0,0); stroke-width:1; stroke-linecap:butt; stroke-linejoin:miter; stroke-dasharray:0; opacity:1" />
<line x1="76" y1="303.431" x2="72" y2="303.431" style="fill:none; stroke:rgb(0,0,0); stroke-width:1; stroke-linecap:butt; stroke-linejoin:miter; stroke-dasharray:0; opacity:1" />
<line x1="76" y1="294.094" x2="72" y2="294.094" style="fill:none; stroke:rgb(0,0,0); stroke-width:1; stroke-linecap:butt; stroke-linejoin:miter; stroke-dasharray:0; opacity:1" />
<line x1="76" y1="284.757" x2="72" y2="284.757" style="fill:none; stroke:rgb(0,0,0); stroke-width:1; stroke-linecap:butt; stroke-linejoin:miter; stroke-dasharray:0; opacity:1" />
<line x1="76" y1="275.421" x2="72" y2="275.421" style="fill:none; stroke:rgb(0,0,0); stroke-width:1; stroke-linecap:butt; stroke-linejoin:miter; stroke-dasharray:0; opacity:1" />
<text x="63" y="266.084" font-family="Segoe UI" font-size="9pt" font-style="normal" font-weight="normal" text-decoration="none" text-anchor="end" dominant-baseline="middle" fill="rgb(0,0,0)">
&#x30;&#x2E;&#x35;
</text>
<line x1="76" y1="266.084" x2="67" y2="266.084" style="fill:none; stroke:rgb(0,0,0); stroke-width:1; stroke-linecap:butt; stroke-linejoin:miter; stroke-dasharray:0; opacity:1" />
<line x1="76" y1="256.748" x2="72" y2="256.748" style="fill:none; stroke:rgb(0,0,0); stroke-width:1; stroke-linecap:butt; stroke-linejoin:miter; stroke-dasharray:0; opacity:1" />
<line x1="76" y1="247.411" x2="72" y2="247.411" style="fill:none; stroke:rgb(0,0,0); stroke-width:1; stroke-linecap:butt; stroke-linejoin:miter; stroke-dasharray:0; opacity:1" />
<line x1="76" y1="238.074" x2="72" y2="238.074" style="fill:none; stroke:rgb(0,0,0); stroke-width:1; stroke-linecap:butt; stroke-linejoin:miter; stroke-dasharray:0; opacity:1" />
<line x1="76" y1="228.738" x2="72" y2="228.738" style="fill:none; stroke:rgb(0,0,0); stroke-width:1; stroke-linecap:butt; stroke-linejoin:miter; stroke-dasharray:0; opacity:1" />
<text x="63" y="219.401" font-family="Segoe UI" font-size="9pt" font-style="normal" font-weight="normal" text-decoration="none" text-anchor="end" dominant-baseline="middle" fill="rgb(0,0,0)">
&#x30;&#x2E;&#x36;
</text>
<line x1="76" y1="219.401" x2="67" y2="219.401" style="fill:none; stroke:rgb(0,0,0); stroke-width:1; stroke-linecap:butt; stroke-linejoin:miter; stroke-dasharray:0; opacity:1" />
<line x1="76" y1="210.064" x2="72" y2="210.064" style="fill:none; stroke:rgb(0,0,0); stroke-width:1; stroke-linecap:butt; stroke-linejoin:miter; stroke-dasharray:0; opacity:1" />
<line x1="76" y1="200.728" x2="72" y2="200.728" style="fill:none; stroke:rgb(0,0,0); stroke-width:1; stroke-linecap:butt; stroke-linejoin:miter; stroke-dasharray:0; opacity:1" />
<line x1="76" y1="191.391" x2="72" y2="191.391" style="fill:none; stroke:rgb(0,0,0); stroke-width:1; stroke-linecap:butt; stroke-linejoin:miter; stroke-dasharray:0; opacity:1" />
<line x1="76" y1="182.054" x2="72" y2="182.054" style="fill:none; stroke:rgb(0,0,0); stroke-width:1; stroke-linecap:butt; stroke-linejoin:miter; stroke-dasharray:0; opacity:1" />
<text x="63" y="172.718" font-family="Segoe UI" font-size="9pt" font-style="normal" font-weight="normal" text-decoration="none" text-anchor="end" dominant-baseline="middle" fill="rgb(0,0,0)">
&#x30;&#x2E;&#x37;
</text>
<line x1="76" y1="172.718" x2="67" y2="172.718" style="fill:none; stroke:rgb(0,0,0); stroke-width:1; stroke-linecap:butt; stroke-linejoin:miter; stroke-dasharray:0; opacity:1" />
<line x1="76" y1="163.381" x2="72" y2="163.381" style="fill:none; stroke:rgb(0,0,0); stroke-width:1; stroke-linecap:butt; stroke-linejoin:miter; stroke-dasharray:0; opacity:1" />
<line x1="76" y1="154.045" x2="72" y2="154.045" style="fill:none; stroke:rgb(0,0,0); stroke-width:1; stroke-linecap:butt; stroke-linejoin:miter; stroke-dasharray:0; opacity:1" />
<line x1="76" y1="144.708" x2="72" y2="144.708" style="fill:none; stroke:rgb(0,0,0); stroke-width:1; stroke-linecap:butt; stroke-linejoin:miter; stroke-dasharray:0; opacity:1" />
<line x1="76" y1="135.371" x2="72" y2="135.371" style="fill:none; stroke:rgb(0,0,0); stroke-width:1; stroke-linecap:butt; stroke-linejoin:miter; stroke-dasharray:0; opacity:1" />
<text x="63" y="126.035" font-family="Segoe UI" font-size="9pt" font-style="normal" font-weight="normal" text-decoration="none" text-anchor="end" dominant-baseline="middle" fill="rgb(0,0,0)">
&#x30;&#x2E;&#x38;
</text>
<line x1="76" y1="126.035" x2="67" y2="126.035" style="fill:none; stroke:rgb(0,0,0); stroke-width:1; stroke-linecap:butt; stroke-linejoin:miter; stroke-dasharray:0; opacity:1" />
<line x1="76" y1="116.698" x2="72" y2="116.698" style="fill:none; stroke:rgb(0,0,0); stroke-width:1; stroke-linecap:butt; stroke-linejoin:miter; stroke-dasharray:0; opacity:1" />
<line x1="76" y1="107.361" x2="72" y2="107.361" style="fill:none; stroke:rgb(0,0,0); stroke-width:1; stroke-linecap:butt; stroke-linejoin:miter; stroke-dasharray:0; opacity:1" />
<line x1="76" y1="98.0248" x2="72" y2="98.0248" style="fill:none; stroke:rgb(0,0,0); stroke-width:1; stroke-linecap:butt; stroke-linejoin:miter; stroke-dasharray:0; opacity:1" />
<line x1="76" y1="88.6881" x2="72" y2="88.6881" style="fill:none; stroke:rgb(0,0,0); stroke-width:1; stroke-linecap:butt; stroke-linejoin:miter; stroke-dasharray:0; opacity:1" />
<text x="63" y="79.3515" font-family="Segoe UI" font-size="9pt" font-style="normal" font-weight="normal" text-decoration="none" text-anchor="end" dominant-baseline="middle" fill="rgb(0,0,0)">
&#x30;&#x2E;&#x39;
</text>
<line x1="76" y1="79.3515" x2="67" y2="79.3515" style="fill:none; stroke:rgb(0,0,0); stroke-width:1; stroke-linecap:butt; stroke-linejoin:miter; stroke-dasharray:0; opacity:1" />
<line x1="76" y1="70.0149" x2="72" y2="70.0149" style="fill:none; stroke:rgb(0,0,0); stroke-width:1; stroke-linecap:butt; stroke-linejoin:miter; stroke-dasharray:0; opacity:1" />
<line x1="76" y1="60.6782" x2="72" y2="60.6782" style="fill:none; stroke:rgb(0,0,0); stroke-width:1; stroke-linecap:butt; stroke-linejoin:miter; stroke-dasharray:0; opacity:1" />
<line x1="76" y1="51.3416" x2="72" y2="51.3416" style="fill:none; stroke:rgb(0,0,0); stroke-width:1; stroke-linecap:butt; stroke-linejoin:miter; stroke-dasharray:0; opacity:1" />
<line x1="76" y1="42.005" x2="72" y2="42.005" style="fill:none; stroke:rgb(0,0,0); stroke-width:1; stroke-linecap:butt; stroke-linejoin:miter; stroke-dasharray:0; opacity:1" />
<text x="63" y="32.6683" font-family="Segoe UI" font-size="9pt" font-style="normal" font-weight="normal" text-decoration="none" text-anchor="end" dominant-baseline="middle" fill="rgb(0,0,0)">
&#x31;&#x2E;&#x30;
</text>
<line x1="76" y1="32.6683" x2="67" y2="32.6683" style="fill:none; stroke:rgb(0,0,0); stroke-width:1; stroke-linecap:butt; stroke-linejoin:miter; stroke-dasharray:0; opacity:1" />
<clipPath id="cliprect0">
<rect x="76" y="29" width="1500" height="943" />
</clipPath>
</g>
<g clip-path="url(#cliprect0)">
<polyline style="fill:none; stroke:rgb(0,0,0); stroke-width:1; stroke-linecap:butt; stroke-linejoin:miter; stroke-dasharray:0; opacity:1" points="76,388.468 1576,388.468 " />
<polyline style="fill:none; stroke:rgb(204,170,0); stroke-width:1; stroke-linecap:butt; stroke-linejoin:miter; stroke-dasharray:0; opacity:1" points="76,518.57 81.8824,433.967 87.7647,360.526 93.6471,304.912 99.5294,251.874 105.412,205.601 111.294,165.048 117.176,129.784 123.059,99.5634 128.941,74.4235 134.824,54.7027 140.706,40.9076 146.588,33.503 152.471,32.6683 158.353,38.0721 164.235,48.7268 170.118,62.9818 176,78.6969 181.882,93.5908 187.765,105.685 193.647,113.707 199.529,117.293 205.412,116.917 211.294,113.563 217.176,108.287 223.059,101.86 228.941,94.6246 234.824,86.6056 240.706,77.7777 246.588,68.3482 252.471,58.9144 258.353,50.4301 264.235,44.0045 270.118,40.6158 276,40.844 281.882,44.705 287.765,51.6248 293.647,60.5456 299.529,70.1268 305.412,78.99 311.294,85.9616 317.176,90.275 323.059,91.7017 328.941,90.591 334.824,87.8055 340.706,84.5679 346.588,82.2528 352.471,82.1815 358.353,85.4687 364.235,92.944 370.118,105.13 376,122.232 381.882,144.107 387.765,170.198 393.647,199.482 399.529,230.487 405.412,261.437 411.294,290.503 417.176,316.126 423.059,337.29 428.941,353.686 434.824,365.7 440.706,374.248 446.588,380.51 452.471,385.64 458.353,390.531 464.235,395.681 470.118,401.177 476,406.793 481.882,412.144 487.765,416.845 493.647,420.624 499.529,423.348 505.412,424.987 511.294,425.523 517.176,424.878 523.059,422.885 528.941,419.314 534.824,413.939 540.706,406.602 546.588,397.253 552.471,385.956 558.353,372.866 564.235,358.223 570.118,342.368 576,325.785 581.882,309.158 587.765,293.353 593.647,279.325 599.529,267.899 605.412,259.518 611.294,254.015 617.176,250.571 623.059,247.884 628.941,244.537 634.824,239.447 640.706,232.211 646.588,223.235 652.471,213.597 658.353,204.731 664.235,198.046 670.118,194.625 676,195.047 681.882,199.35 687.765,207.072 693.647,217.352 699.529,229.05 705.412,240.916 711.294,251.771 717.176,260.715 723.059,267.281 728.941,271.505 734.824,273.891 740.706,275.288 746.588,276.724 752.471,279.242 758.353,283.771 764.235,291.008 770.118,301.327 776,314.686 781.882,330.588 787.765,348.113 793.647,366.074 799.529,383.256 805.412,398.683 811.294,411.813 817.176,422.6 823.059,431.385 828.941,438.686 834.824,444.947 840.706,450.353 846.588,454.763 852.471,457.759 858.353,458.799 864.235,457.422 870.118,453.435 876,447.042 881.882,438.864 887.765,429.853 893.647,421.099 899.529,413.603 905.412,408.072 911.294,404.804 917.176,403.696 923.059,404.36 928.941,406.271 934.824,408.92 940.706,411.888 946.588,414.864 952.471,417.62 958.353,419.978 964.235,421.793 970.118,422.965 976,423.466 981.882,423.369 987.765,422.859 993.647,422.218 999.529,421.79 1005.41,421.924 1011.29,422.903 1017.18,424.895 1023.06,427.914 1028.94,431.834 1034.82,436.421 1040.71,441.403 1046.59,446.528 1052.47,451.604 1058.35,456.507 1064.24,461.148 1070.12,465.433 1076,469.217 1081.88,472.29 1087.76,474.382 1093.65,475.213 1099.53,474.546 1105.41,472.248 1111.29,468.341 1117.18,463.015 1123.06,456.616 1128.94,449.599 1134.82,442.467 1140.71,435.704 1146.59,429.708 1152.47,424.748 1158.35,420.928 1164.24,418.171 1170.12,416.238 1176,414.773 1181.88,413.389 1187.76,411.779 1193.65,409.823 1199.53,407.667 1205.41,405.724 1211.29,404.598 1217.18,404.933 1223.06,407.223 1228.94,411.651 1234.82,417.995 1240.71,425.659 1246.59,433.801 1252.47,441.538 1258.35,448.144 1264.24,453.177 1270.12,456.513 1276,458.258 1281.88,458.611 1287.76,457.7 1293.65,455.468 1299.53,451.631 1305.41,445.747 1311.29,437.367 1317.18,426.231 1323.06,412.461 1328.94,396.646 1334.82,379.813 1340.71,363.246 1346.59,348.223 1352.47,335.75 1358.35,326.362 1364.24,320.043 1370.12,316.29 1376,314.272 1381.88,313.051 1387.76,311.797 1393.65,309.952 1399.53,307.298 1405.41,303.941 1411.29,300.208 1417.18,296.516 1423.06,293.256 1428.94,290.714 1434.82,289.052 1440.71,288.335 1446.59,288.585 1452.47,289.843 1458.35,292.219 1464.24,295.901 1470.12,301.131 1476,308.142 1481.88,317.085 1487.76,327.974 1493.65,340.678 1499.53,354.955 1505.41,370.511 1511.29,387.053 1517.18,404.303 1523.06,421.979 1528.94,439.739 1534.82,457.138 1540.71,473.606 1546.59,488.5 1552.47,501.177 1558.35,510.777 1564.24,519.23 1570.12,518.562 1576,512.075 " />
<polyline style="fill:none; stroke:rgb(204,0,0); stroke-width:1; stroke-linecap:butt; stroke-linejoin:miter; stroke-dasharray:0; opacity:1" points="76,499.5 81.8824,499.5 87.7647,499.5 93.6471,499.5 99.5294,499.5 105.412,499.5 111.294,499.5 117.176,499.5 123.059,499.5 128.941,499.5 134.824,499.5 140.706,499.5 146.588,499.5 152.471,32.6683 158.353,499.5 164.235,499.5 170.118,499.5 176,499.5 181.882,499.5 187.765,499.5 193.647,499.5 199.529,499.5 205.412,499.5 211.294,499.5 217.176,499.5 223.059,499.5 228.941,499.5 234.824,499.5 240.706,499.5 246.588,499.5 252.471,499.5 258.353,499.5 264.235,499.5 270.118,40.6158 276,499.5 281.882,499.5 287.765,499.5 293.647,499.5 299.529,499.5 305.412,499.5 311.294,499.5 317.176,499.5 323.059,499.5 328.941,499.5 334.824,499.5 340.706,499.5 346.588,499.5 352.471,82.1815 358.353,499.5 364.235,499.5 370.118,499.5 376,499.5 381.882,499.5 387.765,499.5 393.647,499.5 399.529,499.5 405.412,499.5 411.294,499.5 417.176,499.5 423.059,499.5 428.941,499.5 434.824,499.5 440.706,499.5 446.588,499.5 452.471,499.5 458.353,499.5 464.235,499.5 470.118,499.5 476,499.5 481.882,499.5 487.765,499.5 493.647,499.5 499.529,499.5 505.412,499.5 511.294,499.5 517.176,499.5 523.059,499.5 528.941,499.5 534.824,499.5 540.706,499.5 546.588,499.5 552.471,499.5 558.353,499.5 564.235,499.5 570.118,499.5 576,499.5 581.882,499.5 587.765,499.5 593.647,499.5 599.529,499.5 605.412,499.5 611.294,499.5 617.176,499.5 623.059,499.5 628.941,499.5 634.824,499.5 640.706,499.5 646.588,499.5 652.471,499.5 658.353,499.5 664.235,499.5 670.118,194.625 676,499.5 681.882,499.5 687.765,499.5 693.647,499.5 699.529,499.5 705.412,499.5 711.294,499.5 717.176,499.5 723.059,499.5 728.941,499.5 734.824,499.5 740.706,499.5 746.588,499.5 752.471,499.5 758.353,499.5 764.235,499.5 770.118,499.5 776,499.5 781.882,499.5 787.765,499.5 793.647,499.5 799.529,499.5 805.412,499.5 811.294,499.5 817.176,499.5 823.059,499.5 828.941,499.5 834.824,499.5 840.706,499.5 846.588,499.5 852.471,499.5 858.353,499.5 864.235,499.5 870.118,499.5 876,499.5 881.882,499.5 887.765,499.5 893.647,499.5 899.529,499.5 905.412,499.5 911.294,499.5 917.176,403.696 923.059,499.5 928.941,499.5 934.824,499.5 940.706,499.5 946.588,499.5 952.471,499.5 958.353,499.5 964.235,499.5 970.118,499.5 976,499.5 981.882,499.5 987.765,499.5 993.647,499.5 999.529,421.79 1005.41,499.5 1011.29,499.5 1017.18,499.5 1023.06,499.5 1028.94,499.5 1034.82,499.5 1040.71,499.5 1046.59,499.5 1052.47,499.5 1058.35,499.5 1064.24,499.5 1070.12,499.5 1076,499.5 1081.88,499.5 1087.76,499.5 1093.65,499.5 1099.53,499.5 1105.41,499.5 1111.29,499.5 1117.18,499.5 1123.06,499.5 1128.94,499.5 1134.82,499.5 1140.71,499.5 1146.59,499.5 1152.47,499.5 1158.35,499.5 1164.24,499.5 1170.12,499.5 1176,499.5 1181.88,499.5 1187.76,499.5 1193.65,499.5 1199.53,499.5 1205.41,499.5 1211.29,404.598 1217.18,499.5 1223.06,499.5 1228.94,499.5 1234.82,499.5 1240.71,499.5 1246.59,499.5 1252.47,499.5 1258.35,499.5 1264.24,499.5 1270.12,499.5 1276,499.5 1281.88,499.5 1287.76,499.5 1293.65,499.5 1299.53,499.5 1305.41,499.5 1311.29,499.5 1317.18,499.5 1323.06,499.5 1328.94,499.5 1334.82,499.5 1340.71,499.5 1346.59,499.5 1352.47,499.5 1358.35,499.5 1364.24,499.5 1370.12,499.5 1376,499.5 1381.88,499.5 1387.76,499.5 1393.65,499.5 1399.53,499.5 1405.41,499.5 1411.29,499.5 1417.18,499.5 1423.06,499.5 1428.94,499.5 1434.82,499.5 1440.71,288.335 1446.59,499.5 1452.47,499.5 1458.35,499.5 1464.24,499.5 1470.12,499.5 1476,499.5 1481.88,499.5 1487.76,499.5 1493.65,499.5 1499.53,499.5 1505.41,499.5 1511.29,499.5 1517.18,499.5 1523.06,499.5 1528.94,499.5 1534.82,499.5 1540.71,499.5 1546.59,499.5 1552.47,499.5 1558.35,499.5 1564.24,499.5 1570.12,499.5 1576,499.5 " />
<clipPath id="cliprect1">
<rect x="0" y="0" width="1618" height="1017" />
</clipPath>
</g>
<g clip-path="url(#cliprect1)">
</g>
</g>
</svg>
