<?xml version="1.0" encoding="UTF-8"?>
<svg xmlns="http://www.w3.org/2000/svg" xmlns:xlink="http://www.w3.org/1999/xlink" width="970.801pt" height="610.2pt" viewBox="0 0 1618 1017" version="1.1">
<g>
<pattern id="pattern0" patternUnits="userSpaceOnUse" x="0" y="0" width="7" height="7">
<line x1="0" y1="3" x2="7" y2="3" style="fill:none; stroke:rgb(0,0,0); opacity:1" />
</pattern>
<rect x="0" y="0" width="1617" height="1016" style="fill:rgb(255,255,255); stroke:none; opacity:1" />
<g clip-path="url(#cliprect-1)">
<line x1="76" y1="971" x2="1576" y2="971" style="fill:none; stroke:rgb(0,0,0); stroke-width:1; stroke-linecap:butt; stroke-linejoin:miter; stroke-dasharray:0; opacity:1" />
<line x1="1576" y1="971" x2="1582" y2="971" style="fill:none; stroke:rgb(0,0,0); stroke-width:1; stroke-linecap:butt; stroke-linejoin:miter; stroke-dasharray:0; opacity:1" />
<polygon style="fill:rgb(0,0,0); fill-rule:evenodd; stroke:none; opacity:1" points="1582,971 1578,975 1578,967 " />
<text x="76" y="984" font-family="Segoe UI" font-size="9pt" font-style="normal" font-weight="normal" text-decoration="none" text-anchor="middle" dominant-baseline="text-before-edge" fill="rgb(0,0,0)">
&#x30;
</text>
<line x1="76" y1="971" x2="76" y2="980" style="fill:none; stroke:rgb(0,0,0); stroke-width:1; stroke-linecap:butt; stroke-linejoin:miter; stroke-dasharray:0; opacity:1" />
<line x1="99.5294" y1="971" x2="99.5294" y2="975" style="fill:none; stroke:rgb(0,0,0); stroke-width:1; stroke-linecap:butt; stroke-linejoin:miter; stroke-dasharray:0; opacity:1" />
<line x1="123.059" y1="971" x2="123.059" y2="975" style="fill:none; stroke:rgb(0,0,0); stroke-width:1; stroke-linecap:butt; stroke-linejoin:miter; stroke-dasharray:0; opacity:1" />
<line x1="146.588" y1="971" x2="146.588" y2="975" style="fill:none; stroke:rgb(0,0,0); stroke-width:1; stroke-linecap:butt; stroke-linejoin:miter; stroke-dasharray:0; opacity:1" />
<line x1="170.118" y1="971" x2="170.118" y2="975" style="fill:none; stroke:rgb(0,0,0); stroke-width:1; stroke-linecap:butt; stroke-linejoin:miter; stroke-dasharray:0; opacity:1" />
<text x="193.647" y="984" font-family="Segoe UI" font-size="9pt" font-style="normal" font-weight="normal" text-decoration="none" text-anchor="middle" dominant-baseline="text-before-edge" fill="rgb(0,0,0)">
&#x32;&#x30;
</text>
<line x1="193.647" y1="971" x2="193.647" y2="980" style="fill:none; stroke:rgb(0,0,0); stroke-width:1; stroke-linecap:butt; stroke-linejoin:miter; stroke-dasharray:0; opacity:1" />
<line x1="217.176" y1="971" x2="217.176" y2="975" style="fill:none; stroke:rgb(0,0,0); stroke-width:1; stroke-linecap:butt; stroke-linejoin:miter; stroke-dasharray:0; opacity:1" />
<line x1="240.706" y1="971" x2="240.706" y2="975" style="fill:none; stroke:rgb(0,0,0); stroke-width:1; stroke-linecap:butt; stroke-linejoin:miter; stroke-dasharray:0; opacity:1" />
<line x1="264.235" y1="971" x2="264.235" y2="975" style="fill:none; stroke:rgb(0,0,0); stroke-width:1; stroke-linecap:butt; stroke-linejoin:miter; stroke-dasharray:0; opacity:1" />
<line x1="287.765" y1="971" x2="287.765" y2="975" style="fill:none; stroke:rgb(0,0,0); stroke-width:1; stroke-linecap:butt; stroke-linejoin:miter; stroke-dasharray:0; opacity:1" />
<text x="311.294" y="984" font-family="Segoe UI" font-size="9pt" font-style="normal" font-weight="normal" text-decoration="none" text-anchor="middle" dominant-baseline="text-before-edge" fill="rgb(0,0,0)">
&#x34;&#x30;
</text>
<line x1="311.294" y1="971" x2="311.294" y2="980" style="fill:none; stroke:rgb(0,0,0); stroke-width:1; stroke-linecap:butt; stroke-linejoin:miter; stroke-dasharray:0; opacity:1" />
<line x1="334.824" y1="971" x2="334.824" y2="975" style="fill:none; stroke:rgb(0,0,0); stroke-width:1; stroke-linecap:butt; stroke-linejoin:miter; stroke-dasharray:0; opacity:1" />
<line x1="358.353" y1="971" x2="358.353" y2="975" style="fill:none; stroke:rgb(0,0,0); stroke-width:1; stroke-linecap:butt; stroke-linejoin:miter; stroke-dasharray:0; opacity:1" />
<line x1="381.882" y1="971" x2="381.882" y2="975" style="fill:none; stroke:rgb(0,0,0); stroke-width:1; stroke-linecap:butt; stroke-linejoin:miter; stroke-dasharray:0; opacity:1" />
<line x1="405.412" y1="971" x2="405.412" y2="975" style="fill:none; stroke:rgb(0,0,0); stroke-width:1; stroke-linecap:butt; stroke-linejoin:miter; stroke-dasharray:0; opacity:1" />
<text x="428.941" y="984" font-family="Segoe UI" font-size="9pt" font-style="normal" font-weight="normal" text-decoration="none" text-anchor="middle" dominant-baseline="text-before-edge" fill="rgb(0,0,0)">
&#x36;&#x30;
</text>
<line x1="428.941" y1="971" x2="428.941" y2="980" style="fill:none; stroke:rgb(0,0,0); stroke-width:1; stroke-linecap:butt; stroke-linejoin:miter; stroke-dasharray:0; opacity:1" />
<line x1="452.471" y1="971" x2="452.471" y2="975" style="fill:none; stroke:rgb(0,0,0); stroke-width:1; stroke-linecap:butt; stroke-linejoin:miter; stroke-dasharray:0; opacity:1" />
<line x1="476" y1="971" x2="476" y2="975" style="fill:none; stroke:rgb(0,0,0); stroke-width:1; stroke-linecap:butt; stroke-linejoin:miter; stroke-dasharray:0; opacity:1" />
<line x1="499.529" y1="971" x2="499.529" y2="975" style="fill:none; stroke:rgb(0,0,0); stroke-width:1; stroke-linecap:butt; stroke-linejoin:miter; stroke-dasharray:0; opacity:1" />
<line x1="523.059" y1="971" x2="523.059" y2="975" style="fill:none; stroke:rgb(0,0,0); stroke-width:1; stroke-linecap:butt; stroke-linejoin:miter; stroke-dasharray:0; opacity:1" />
<text x="546.588" y="984" font-family="Segoe UI" font-size="9pt" font-style="normal" font-weight="normal" text-decoration="none" text-anchor="middle" dominant-baseline="text-before-edge" fill="rgb(0,0,0)">
&#x38;&#x30;
</text>
<line x1="546.588" y1="971" x2="546.588" y2="980" style="fill:none; stroke:rgb(0,0,0); stroke-width:1; stroke-linecap:butt; stroke-linejoin:miter; stroke-dasharray:0; opacity:1" />
<line x1="570.118" y1="971" x2="570.118" y2="975" style="fill:none; stroke:rgb(0,0,0); stroke-width:1; stroke-linecap:butt; stroke-linejoin:miter; stroke-dasharray:0; opacity:1" />
<line x1="593.647" y1="971" x2="593.647" y2="975" style="fill:none; stroke:rgb(0,0,0); stroke-width:1; stroke-linecap:butt; stroke-linejoin:miter; stroke-dasharray:0; opacity:1" />
<line x1="617.176" y1="971" x2="617.176" y2="975" style="fill:none; stroke:rgb(0,0,0); stroke-width:1; stroke-linecap:butt; stroke-linejoin:miter; stroke-dasharray:0; opacity:1" />
<line x1="640.706" y1="971" x2="640.706" y2="975" style="fill:none; stroke:rgb(0,0,0); stroke-width:1; stroke-linecap:butt; stroke-linejoin:miter; stroke-dasharray:0; opacity:1" />
<text x="664.235" y="984" font-family="Segoe UI" font-size="9pt" font-style="normal" font-weight="normal" text-decoration="none" text-anchor="middle" dominant-baseline="text-before-edge" fill="rgb(0,0,0)">
&#x31;&#x30;&#x30;
</text>
<line x1="664.235" y1="971" x2="664.235" y2="980" style="fill:none; stroke:rgb(0,0,0); stroke-width:1; stroke-linecap:butt; stroke-linejoin:miter; stroke-dasharray:0; opacity:1" />
<line x1="687.765" y1="971" x2="687.765" y2="975" style="fill:none; stroke:rgb(0,0,0); stroke-width:1; stroke-linecap:butt; stroke-linejoin:miter; stroke-dasharray:0; opacity:1" />
<line x1="711.294" y1="971" x2="711.294" y2="975" style="fill:none; stroke:rgb(0,0,0); stroke-width:1; stroke-linecap:butt; stroke-linejoin:miter; stroke-dasharray:0; opacity:1" />
<line x1="734.824" y1="971" x2="734.824" y2="975" style="fill:none; stroke:rgb(0,0,0); stroke-width:1; stroke-linecap:butt; stroke-linejoin:miter; stroke-dasharray:0; opacity:1" />
<line x1="758.353" y1="971" x2="758.353" y2="975" style="fill:none; stroke:rgb(0,0,0); stroke-width:1; stroke-linecap:butt; stroke-linejoin:miter; stroke-dasharray:0; opacity:1" />
<text x="781.882" y="984" font-family="Segoe UI" font-size="9pt" font-style="normal" font-weight="normal" text-decoration="none" text-anchor="middle" dominant-baseline="text-before-edge" fill="rgb(0,0,0)">
&#x31;&#x32;&#x30;
</text>
<line x1="781.882" y1="971" x2="781.882" y2="980" style="fill:none; stroke:rgb(0,0,0); stroke-width:1; stroke-linecap:butt; stroke-linejoin:miter; stroke-dasharray:0; opacity:1" />
<line x1="805.412" y1="971" x2="805.412" y2="975" style="fill:none; stroke:rgb(0,0,0); stroke-width:1; stroke-linecap:butt; stroke-linejoin:miter; stroke-dasharray:0; opacity:1" />
<line x1="828.941" y1="971" x2="828.941" y2="975" style="fill:none; stroke:rgb(0,0,0); stroke-width:1; stroke-linecap:butt; stroke-linejoin:miter; stroke-dasharray:0; opacity:1" />
<line x1="852.471" y1="971" x2="852.471" y2="975" style="fill:none; stroke:rgb(0,0,0); stroke-width:1; stroke-linecap:butt; stroke-linejoin:miter; stroke-dasharray:0; opacity:1" />
<line x1="876" y1="971" x2="876" y2="975" style="fill:none; stroke:rgb(0,0,0); stroke-width:1; stroke-linecap:butt; stroke-linejoin:miter; stroke-dasharray:0; opacity:1" />
<text x="899.529" y="984" font-family="Segoe UI" font-size="9pt" font-style="normal" font-weight="normal" text-decoration="none" text-anchor="middle" dominant-baseline="text-before-edge" fill="rgb(0,0,0)">
&#x31;&#x34;&#x30;
</text>
<line x1="899.529" y1="971" x2="899.529" y2="980" style="fill:none; stroke:rgb(0,0,0); stroke-width:1; stroke-linecap:butt; stroke-linejoin:miter; stroke-dasharray:0; opacity:1" />
<line x1="923.059" y1="971" x2="923.059" y2="975" style="fill:none; stroke:rgb(0,0,0); stroke-width:1; stroke-linecap:butt; stroke-linejoin:miter; stroke-dasharray:0; opacity:1" />
<line x1="946.588" y1="971" x2="946.588" y2="975" style="fill:none; stroke:rgb(0,0,0); stroke-width:1; stroke-linecap:butt; stroke-linejoin:miter; stroke-dasharray:0; opacity:1" />
<line x1="970.118" y1="971" x2="970.118" y2="975" style="fill:none; stroke:rgb(0,0,0); stroke-width:1; stroke-linecap:butt; stroke-linejoin:miter; stroke-dasharray:0; opacity:1" />
<line x1="993.647" y1="971" x2="993.647" y2="975" style="fill:none; stroke:rgb(0,0,0); stroke-width:1; stroke-linecap:butt; stroke-linejoin:miter; stroke-dasharray:0; opacity:1" />
<text x="1017.18" y="984" font-family="Segoe UI" font-size="9pt" font-style="normal" font-weight="normal" text-decoration="none" text-anchor="middle" dominant-baseline="text-before-edge" fill="rgb(0,0,0)">
&#x31;&#x36;&#x30;
</text>
<line x1="1017.18" y1="971" x2="1017.18" y2="980" style="fill:none; stroke:rgb(0,0,0); stroke-width:1; stroke-linecap:butt; stroke-linejoin:miter; stroke-dasharray:0; opacity:1" />
<line x1="1040.71" y1="971" x2="1040.71" y2="975" style="fill:none; stroke:rgb(0,0,0); stroke-width:1; stroke-linecap:butt; stroke-linejoin:miter; stroke-dasharray:0; opacity:1" />
<line x1="1064.24" y1="971" x2="1064.24" y2="975" style="fill:none; stroke:rgb(0,0,0); stroke-width:1; stroke-linecap:butt; stroke-linejoin:miter; stroke-dasharray:0; opacity:1" />
<line x1="1087.76" y1="971" x2="1087.76" y2="975" style="fill:none; stroke:rgb(0,0,0); stroke-width:1; stroke-linecap:butt; stroke-linejoin:miter; stroke-dasharray:0; opacity:1" />
<line x1="1111.29" y1="971" x2="1111.29" y2="975" style="fill:none; stroke:rgb(0,0,0); stroke-width:1; stroke-linecap:butt; stroke-linejoin:miter; stroke-dasharray:0; opacity:1" />
<text x="1134.82" y="984" font-family="Segoe UI" font-size="9pt" font-style="normal" font-weight="normal" text-decoration="none" text-anchor="middle" dominant-baseline="text-before-edge" fill="rgb(0,0,0)">
&#x31;&#x38;&#x30;
</text>
<line x1="1134.82" y1="971" x2="1134.82" y2="980" style="fill:none; stroke:rgb(0,0,0); stroke-width:1; stroke-linecap:butt; stroke-linejoin:miter; stroke-dasharray:0; opacity:1" />
<line x1="1158.35" y1="971" x2="1158.35" y2="975" style="fill:none; stroke:rgb(0,0,0); stroke-width:1; stroke-linecap:butt; stroke-linejoin:miter; stroke-dasharray:0; opacity:1" />
<line x1="1181.88" y1="971" x2="1181.88" y2="975" style="fill:none; stroke:rgb(0,0,0); stroke-width:1; stroke-linecap:butt; stroke-linejoin:miter; stroke-dasharray:0; opacity:1" />
<line x1="1205.41" y1="971" x2="1205.41" y2="975" style="fill:none; stroke:rgb(0,0,0); stroke-width:1; stroke-linecap:butt; stroke-linejoin:miter; stroke-dasharray:0; opacity:1" />
<line x1="1228.94" y1="971" x2="1228.94" y2="975" style="fill:none; stroke:rgb(0,0,0); stroke-width:1; stroke-linecap:butt; stroke-linejoin:miter; stroke-dasharray:0; opacity:1" />
<text x="1252.47" y="984" font-family="Segoe UI" font-size="9pt" font-style="normal" font-weight="normal" text-decoration="none" text-anchor="middle" dominant-baseline="text-before-edge" fill="rgb(0,0,0)">
&#x32;&#x30;&#x30;
</text>
<line x1="1252.47" y1="971" x2="1252.47" y2="980" style="fill:none; stroke:rgb(0,0,0); stroke-width:1; stroke-linecap:butt; stroke-linejoin:miter; stroke-dasharray:0; opacity:1" />
<line x1="1276" y1="971" x2="1276" y2="975" style="fill:none; stroke:rgb(0,0,0); stroke-width:1; stroke-linecap:butt; stroke-linejoin:miter; stroke-dasharray:0; opacity:1" />
<line x1="1299.53" y1="971" x2="1299.53" y2="975" style="fill:none; stroke:rgb(0,0,0); stroke-width:1; stroke-linecap:butt; stroke-linejoin:miter; stroke-dasharray:0; opacity:1" />
<line x1="1323.06" y1="971" x2="1323.06" y2="975" style="fill:none; stroke:rgb(0,0,0); stroke-width:1; stroke-linecap:butt; stroke-linejoin:miter; stroke-dasharray:0; opacity:1" />
<line x1="1346.59" y1="971" x2="1346.59" y2="975" style="fill:none; stroke:rgb(0,0,0); stroke-width:1; stroke-linecap:butt; stroke-linejoin:miter; stroke-dasharray:0; opacity:1" />
<text x="1370.12" y="984" font-family="Segoe UI" font-size="9pt" font-style="normal" font-weight="normal" text-decoration="none" text-anchor="middle" dominant-baseline="text-before-edge" fill="rgb(0,0,0)">
&#x32;&#x32;&#x30;
</text>
<line x1="1370.12" y1="971" x2="1370.12" y2="980" style="fill:none; stroke:rgb(0,0,0); stroke-width:1; stroke-linecap:butt; stroke-linejoin:miter; stroke-dasharray:0; opacity:1" />
<line x1="1393.65" y1="971" x2="1393.65" y2="975" style="fill:none; stroke:rgb(0,0,0); stroke-width:1; stroke-linecap:butt; stroke-linejoin:miter; stroke-dasharray:0; opacity:1" />
<line x1="1417.18" y1="971" x2="1417.18" y2="975" style="fill:none; stroke:rgb(0,0,0); stroke-width:1; stroke-linecap:butt; stroke-linejoin:miter; stroke-dasharray:0; opacity:1" />
<line x1="1440.71" y1="971" x2="1440.71" y2="975" style="fill:none; stroke:rgb(0,0,0); stroke-width:1; stroke-linecap:butt; stroke-linejoin:miter; stroke-dasharray:0; opacity:1" />
<line x1="1464.24" y1="971" x2="1464.24" y2="975" style="fill:none; stroke:rgb(0,0,0); stroke-width:1; stroke-linecap:butt; stroke-linejoin:miter; stroke-dasharray:0; opacity:1" />
<text x="1487.76" y="984" font-family="Segoe UI" font-size="9pt" font-style="normal" font-weight="normal" text-decoration="none" text-anchor="middle" dominant-baseline="text-before-edge" fill="rgb(0,0,0)">
&#x32;&#x34;&#x30;
</text>
<line x1="1487.76" y1="971" x2="1487.76" y2="980" style="fill:none; stroke:rgb(0,0,0); stroke-width:1; stroke-linecap:butt; stroke-linejoin:miter; stroke-dasharray:0; opacity:1" />
<line x1="1511.29" y1="971" x2="1511.29" y2="975" style="fill:none; stroke:rgb(0,0,0); stroke-width:1; stroke-linecap:butt; stroke-linejoin:miter; stroke-dasharray:0; opacity:1" />
<line x1="1534.82" y1="971" x2="1534.82" y2="975" style="fill:none; stroke:rgb(0,0,0); stroke-width:1; stroke-linecap:butt; stroke-linejoin:miter; stroke-dasharray:0; opacity:1" />
<line x1="1558.35" y1="971" x2="1558.35" y2="975" style="fill:none; stroke:rgb(0,0,0); stroke-width:1; stroke-linecap:butt; stroke-linejoin:miter; stroke-dasharray:0; opacity:1" />
<line x1="76" y1="971" x2="76" y2="28" style="fill:none; stroke:rgb(0,0,0); stroke-width:1; stroke-linecap:butt; stroke-linejoin:miter; stroke-dasharray:0; opacity:1" />
<line x1="76" y1="28" x2="76" y2="22" style="fill:none; stroke:rgb(0,0,0); stroke-width:1; stroke-linecap:butt; stroke-linejoin:miter; stroke-dasharray:0; opacity:1" />
<polygon style="fill:rgb(0,0,0); fill-rule:evenodd; stroke:none; opacity:1" points="76,22 72,26 80,26 " />
<text x="63" y="966.332" font-family="Segoe UI" font-size="9pt" font-style="normal" font-weight="normal" text-decoration="none" text-anchor="end" dominant-baseline="middle" fill="rgb(0,0,0)">
&#x2D;&#x31;&#x2E;&#x30;
</text>
<line x1="76" y1="966.332" x2="67" y2="966.332" style="fill:none; stroke:rgb(0,0,0); stroke-width:1; stroke-linecap:butt; stroke-linejoin:miter; stroke-dasharray:0; opacity:1" />
<line x1="76" y1="956.995" x2="72" y2="956.995" style="fill:none; stroke:rgb(0,0,0); stroke-width:1; stroke-linecap:butt; stroke-linejoin:miter; stroke-dasharray:0; opacity:1" />
<line x1="76" y1="947.658" x2="72" y2="947.658" style="fill:none; stroke:rgb(0,0,0); stroke-width:1; stroke-linecap:butt; stroke-linejoin:miter; stroke-dasharray:0; opacity:1" />
<line x1="76" y1="938.322" x2="72" y2="938.322" style="fill:none; stroke:rgb(0,0,0); stroke-width:1; stroke-linecap:butt; stroke-linejoin:miter; stroke-dasharray:0; opacity:1" />
<line x1="76" y1="928.985" x2="72" y2="928.985" style="fill:none; stroke:rgb(0,0,0); stroke-width:1; stroke-linecap:butt; stroke-linejoin:miter; stroke-dasharray:0; opacity:1" />
<text x="63" y="919.649" font-family="Segoe UI" font-size="9pt" font-style="normal" font-weight="normal" text-decoration="none" text-anchor="end" dominant-baseline="middle" fill="rgb(0,0,0)">
&#x2D;&#x30;&#x2E;&#x39;
</text>
<line x1="76" y1="919.649" x2="67" y2="919.649" style="fill:none; stroke:rgb(0,0,0); stroke-width:1; stroke-linecap:butt; stroke-linejoin:miter; stroke-dasharray:0; opacity:1" />
<line x1="76" y1="910.312" x2="72" y2="910.312" style="fill:none; stroke:rgb(0,0,0); stroke-width:1; stroke-linecap:butt; stroke-linejoin:miter; stroke-dasharray:0; opacity:1" />
<line x1="76" y1="900.975" x2="72" y2="900.975" style="fill:none; stroke:rgb(0,0,0); stroke-width:1; stroke-linecap:butt; stroke-linejoin:miter; stroke-dasharray:0; opacity:1" />
<line x1="76" y1="891.639" x2="72" y2="891.639" style="fill:none; stroke:rgb(0,0,0); stroke-width:1; stroke-linecap:butt; stroke-linejoin:miter; stroke-dasharray:0; opacity:1" />
<line x1="76" y1="882.302" x2="72" y2="882.302" style="fill:none; stroke:rgb(0,0,0); stroke-width:1; stroke-linecap:butt; stroke-linejoin:miter; stroke-dasharray:0; opacity:1" />
<text x="63" y="872.965" font-family="Segoe UI" font-size="9pt" font-style="normal" font-weight="normal" text-decoration="none" text-anchor="end" dominant-baseline="middle" fill="rgb(0,0,0)">
&#x2D;&#x30;&#x2E;&#x38;
</text>
<line x1="76" y1="872.965" x2="67" y2="872.965" style="fill:none; stroke:rgb(0,0,0); stroke-width:1; stroke-linecap:butt; stroke-linejoin:miter; stroke-dasharray:0; opacity:1" />
<line x1="76" y1="863.629" x2="72" y2="863.629" style="fill:none; stroke:rgb(0,0,0); stroke-width:1; stroke-linecap:butt; stroke-linejoin:miter; stroke-dasharray:0; opacity:1" />
<line x1="76" y1="854.292" x2="72" y2="854.292" style="fill:none; stroke:rgb(0,0,0); stroke-width:1; stroke-linecap:butt; stroke-linejoin:miter; stroke-dasharray:0; opacity:1" />
<line x1="76" y1="844.955" x2="72" y2="844.955" style="fill:none; stroke:rgb(0,0,0); stroke-width:1; stroke-linecap:butt; stroke-linejoin:miter; stroke-dasharray:0; opacity:1" />
<line x1="76" y1="835.619" x2="72" y2="835.619" style="fill:none; stroke:rgb(0,0,0); stroke-width:1; stroke-linecap:butt; stroke-linejoin:miter; stroke-dasharray:0; opacity:1" />
<text x="63" y="826.282" font-family="Segoe UI" font-size="9pt" font-style="normal" font-weight="normal" text-decoration="none" text-anchor="end" dominant-baseline="middle" fill="rgb(0,0,0)">
&#x2D;&#x30;&#x2E;&#x37;
</text>
<line x1="76" y1="826.282" x2="67" y2="826.282" style="fill:none; stroke:rgb(0,0,0); stroke-width:1; stroke-linecap:butt; stroke-linejoin:miter; stroke-dasharray:0; opacity:1" />
<line x1="76" y1="816.946" x2="72" y2="816.946" style="fill:none; stroke:rgb(0,0,0); stroke-width:1; stroke-linecap:butt; stroke-linejoin:miter; stroke-dasharray:0; opacity:1" />
<line x1="76" y1="807.609" x2="72" y2="807.609" style="fill:none; stroke:rgb(0,0,0); stroke-width:1; stroke-linecap:butt; stroke-linejoin:miter; stroke-dasharray:0; opacity:1" />
<line x1="76" y1="798.272" x2="72" y2="798.272" style="fill:none; stroke:rgb(0,0,0); stroke-width:1; stroke-linecap:butt; stroke-linejoin:miter; stroke-dasharray:0; opacity:1" />
<line x1="76" y1="788.936" x2="72" y2="788.936" style="fill:none; stroke:rgb(0,0,0); stroke-width:1; stroke-linecap:butt; stroke-linejoin:miter; stroke-dasharray:0; opacity:1" />
<text x="63" y="779.599" font-family="Segoe UI" font-size="9pt" font-style="normal" font-weight="normal" text-decoration="none" text-anchor="end" dominant-baseline="middle" fill="rgb(0,0,0)">
&#x2D;&#x30;&#x2E;&#x36;
</text>
<line x1="76" y1="779.599" x2="67" y2="779.599" style="fill:none; stroke:rgb(0,0,0); stroke-width:1; stroke-linecap:butt; stroke-linejoin:miter; stroke-dasharray:0; opacity:1" />
<line x1="76" y1="770.262" x2="72" y2="770.262" style="fill:none; stroke:rgb(0,0,0); stroke-width:1; stroke-linecap:butt; stroke-linejoin:miter; stroke-dasharray:0; opacity:1" />
<line x1="76" y1="760.926" x2="72" y2="760.926" style="fill:none; stroke:rgb(0,0,0); stroke-width:1; stroke-linecap:butt; stroke-linejoin:miter; stroke-dasharray:0; opacity:1" />
<line x1="76" y1="751.589" x2="72" y2="751.589" style="fill:none; stroke:rgb(0,0,0); stroke-width:1; stroke-linecap:butt; stroke-linejoin:miter; stroke-dasharray:0; opacity:1" />
<line x1="76" y1="742.252" x2="72" y2="742.252" style="fill:none; stroke:rgb(0,0,0); stroke-width:1; stroke-linecap:butt; stroke-linejoin:miter; stroke-dasharray:0; opacity:1" />
<text x="63" y="732.916" font-family="Segoe UI" font-size="9pt" font-style="normal" font-weight="normal" text-decoration="none" text-anchor="end" dominant-baseline="middle" fill="rgb(0,0,0)">
&#x2D;&#x30;&#x2E;&#x35;
</text>
<line x1="76" y1="732.916" x2="67" y2="732.916" style="fill:none; stroke:rgb(0,0,0); stroke-width:1; stroke-linecap:butt; stroke-linejoin:miter; stroke-dasharray:0; opacity:1" />
<line x1="76" y1="723.579" x2="72" y2="723.579" style="fill:none; stroke:rgb(0,0,0); stroke-width:1; stroke-linecap:butt; stroke-linejoin:miter; stroke-dasharray:0; opacity:1" />
<line x1="76" y1="714.243" x2="72" y2="714.243" style="fill:none; stroke:rgb(0,0,0); stroke-width:1; stroke-linecap:butt; stroke-linejoin:miter; stroke-dasharray:0; opacity:1" />
<line x1="76" y1="704.906" x2="72" y2="704.906" style="fill:none; stroke:rgb(0,0,0); stroke-width:1; stroke-linecap:butt; stroke-linejoin:miter; stroke-dasharray:0; opacity:1" />
<line x1="76" y1="695.569" x2="72" y2="695.569" style="fill:none; stroke:rgb(0,0,0); stroke-width:1; stroke-linecap:butt; stroke-linejoin:miter; stroke-dasharray:0; opacity:1" />
<text x="63" y="686.233" font-family="Segoe UI" font-size="9pt" font-style="normal" font-weight="normal" text-decoration="none" text-anchor="end" dominant-baseline="middle" fill="rgb(0,0,0)">
&#x2D;&#x30;&#x2E;&#x34;
</text>
<line x1="76" y1="686.233" x2="67" y2="686.233" style="fill:none; stroke:rgb(0,0,0); stroke-width:1; stroke-linecap:butt; stroke-linejoin:miter; stroke-dasharray:0; opacity:1" />
<line x1="76" y1="676.896" x2="72" y2="676.896" style="fill:none; stroke:rgb(0,0,0); stroke-width:1; stroke-linecap:butt; stroke-linejoin:miter; stroke-dasharray:0; opacity:1" />
<line x1="76" y1="667.559" x2="72" y2="667.559" style="fill:none; stroke:rgb(0,0,0); stroke-width:1; stroke-linecap:butt; stroke-linejoin:miter; stroke-dasharray:0; opacity:1" />
<line x1="76" y1="658.223" x2="72" y2="658.223" style="fill:none; stroke:rgb(0,0,0); stroke-width:1; stroke-linecap:butt; stroke-linejoin:miter; stroke-dasharray:0; opacity:1" />
<line x1="76" y1="648.886" x2="72" y2="648.886" style="fill:none; stroke:rgb(0,0,0); stroke-width:1; stroke-linecap:butt; stroke-linejoin:miter; stroke-dasharray:0; opacity:1" />
<text x="63" y="639.55" font-family="Segoe UI" font-size="9pt" font-style="normal" font-weight="normal" text-decoration="none" text-anchor="end" dominant-baseline="middle" fill="rgb(0,0,0)">
&#x2D;&#x30;&#x2E;&#x33;
</text>
<line x1="76" y1="639.55" x2="67" y2="639.55" style="fill:none; stroke:rgb(0,0,0); stroke-width:1; stroke-linecap:butt; stroke-linejoin:miter; stroke-dasharray:0; opacity:1" />
<line x1="76" y1="630.213" x2="72" y2="630.213" style="fill:none; stroke:rgb(0,0,0); stroke-width:1; stroke-linecap:butt; stroke-linejoin:miter; stroke-dasharray:0; opacity:1" />
<line x1="76" y1="620.876" x2="72" y2="620.876" style="fill:none; stroke:rgb(0,0,0); stroke-width:1; stroke-linecap:butt; stroke-linejoin:miter; stroke-dasharray:0; opacity:1" />
<line x1="76" y1="611.54" x2="72" y2="611.54" style="fill:none; stroke:rgb(0,0,0); stroke-width:1; stroke-linecap:butt; stroke-linejoin:miter; stroke-dasharray:0; opacity:1" />
<line x1="76" y1="602.203" x2="72" y2="602.203" style="fill:none; stroke:rgb(0,0,0); stroke-width:1; stroke-linecap:butt; stroke-linejoin:miter; stroke-dasharray:0; opacity:1" />
<text x="63" y="592.866" font-family="Segoe UI" font-size="9pt" font-style="normal" font-weight="normal" text-decoration="none" text-anchor="end" dominant-baseline="middle" fill="rgb(0,0,0)">
&#x2D;&#x30;&#x2E;&#x32;
</text>
<line x1="76" y1="592.866" x2="67" y2="592.866" style="fill:none; stroke:rgb(0,0,0); stroke-width:1; stroke-linecap:butt; stroke-linejoin:miter; stroke-dasharray:0; opacity:1" />
<line x1="76" y1="583.53" x2="72" y2="583.53" style="fill:none; stroke:rgb(0,0,0); stroke-width:1; stroke-linecap:butt; stroke-linejoin:miter; stroke-dasharray:0; opacity:1" />
<line x1="76" y1="574.193" x2="72" y2="574.193" style="fill:none; stroke:rgb(0,0,0); stroke-width:1; stroke-linecap:butt; stroke-linejoin:miter; stroke-dasharray:0; opacity:1" />
<line x1="76" y1="564.856" x2="72" y2="564.856" style="fill:none; stroke:rgb(0,0,0); stroke-width:1; stroke-linecap:butt; stroke-linejoin:miter; stroke-dasharray:0; opacity:1" />
<line x1="76" y1="555.52" x2="72" y2="555.52" style="fill:none; stroke:rgb(0,0,0); stroke-width:1; stroke-linecap:butt; stroke-linejoin:miter; stroke-dasharray:0; opacity:1" />
<text x="63" y="546.183" font-family="Segoe UI" font-size="9pt" font-style="normal" font-weight="normal" text-decoration="none" text-anchor="end" dominant-baseline="middle" fill="rgb(0,0,0)">
&#x2D;&#x30;&#x2E;&#x31;
</text>
<line x1="76" y1="546.183" x2="67" y2="546.183" style="fill:none; stroke:rgb(0,0,0); stroke-width:1; stroke-linecap:butt; stroke-linejoin:miter; stroke-dasharray:0; opacity:1" />
<line x1="76" y1="536.847" x2="72" y2="536.847" style="fill:none; stroke:rgb(0,0,0); stroke-width:1; stroke-linecap:butt; stroke-linejoin:miter; stroke-dasharray:0; opacity:1" />
<line x1="76" y1="527.51" x2="72" y2="527.51" style="fill:none; stroke:rgb(0,0,0); stroke-width:1; stroke-linecap:butt; stroke-linejoin:miter; stroke-dasharray:0; opacity:1" />
<line x1="76" y1="518.173" x2="72" y2="518.173" style="fill:none; stroke:rgb(0,0,0); stroke-width:1; stroke-linecap:butt; stroke-linejoin:miter; stroke-dasharray:0; opacity:1" />
<line x1="76" y1="508.837" x2="72" y2="508.837" style="fill:none; stroke:rgb(0,0,0); stroke-width:1; stroke-linecap:butt; stroke-linejoin:miter; stroke-dasharray:0; opacity:1" />
<text x="63" y="499.5" font-family="Segoe UI" font-size="9pt" font-style="normal" font-weight="normal" text-decoration="none" text-anchor="end" dominant-baseline="middle" fill="rgb(0,0,0)">
&#x30;&#x2E;&#x30;
</text>
<line x1="76" y1="499.5" x2="67" y2="499.5" style="fill:none; stroke:rgb(0,0,0); stroke-width:1; stroke-linecap:butt; stroke-linejoin:miter; stroke-dasharray:0; opacity:1" />
<line x1="76" y1="490.163" x2="72" y2="490.163" style="fill:none; stroke:rgb(0,0,0); stroke-width:1; stroke-linecap:butt; stroke-linejoin:miter; stroke-dasharray:0; opacity:1" />
<line x1="76" y1="480.827" x2="72" y2="480.827" style="fill:none; stroke:rgb(0,0,0); stroke-width:1; stroke-linecap:butt; stroke-linejoin:miter; stroke-dasharray:0; opacity:1" />
<line x1="76" y1="471.49" x2="72" y2="471.49" style="fill:none; stroke:rgb(0,0,0); stroke-width:1; stroke-linecap:butt; stroke-linejoin:miter; stroke-dasharray:0; opacity:1" />
<line x1="76" y1="462.153" x2="72" y2="462.153" style="fill:none; stroke:rgb(0,0,0); stroke-width:1; stroke-linecap:butt; stroke-linejoin:miter; stroke-dasharray:0; opacity:1" />
<text x="63" y="452.817" font-family="Segoe UI" font-size="9pt" font-style="normal" font-weight="normal" text-decoration="none" text-anchor="end" dominant-baseline="middle" fill="rgb(0,0,0)">
&#x30;&#x2E;&#x31;
</text>
<line x1="76" y1="452.817" x2="67" y2="452.817" style="fill:none; stroke:rgb(0,0,0); stroke-width:1; stroke-linecap:butt; stroke-linejoin:miter; stroke-dasharray:0; opacity:1" />
<line x1="76" y1="443.48" x2="72" y2="443.48" style="fill:none; stroke:rgb(0,0,0); stroke-width:1; stroke-linecap:butt; stroke-linejoin:miter; stroke-dasharray:0; opacity:1" />
<line x1="76" y1="434.144" x2="72" y2="434.144" style="fill:none; stroke:rgb(0,0,0); stroke-width:1; stroke-linecap:butt; stroke-linejoin:miter; stroke-dasharray:0; opacity:1" />
<line x1="76" y1="424.807" x2="72" y2="424.807" style="fill:none; stroke:rgb(0,0,0); stroke-width:1; stroke-linecap:butt; stroke-linejoin:miter; stroke-dasharray:0; opacity:1" />
<line x1="76" y1="415.47" x2="72" y2="415.47" style="fill:none; stroke:rgb(0,0,0); stroke-width:1; stroke-linecap:butt; stroke-linejoin:miter; stroke-dasharray:0; opacity:1" />
<text x="63" y="406.134" font-family="Segoe UI" font-size="9pt" font-style="normal" font-weight="normal" text-decoration="none" text-anchor="end" dominant-baseline="middle" fill="rgb(0,0,0)">
&#x30;&#x2E;&#x32;
</text>
<line x1="76" y1="406.134" x2="67" y2="406.134" style="fill:none; stroke:rgb(0,0,0); stroke-width:1; stroke-linecap:butt; stroke-linejoin:miter; stroke-dasharray:0; opacity:1" />
<line x1="76" y1="396.797" x2="72" y2="396.797" style="fill:none; stroke:rgb(0,0,0); stroke-width:1; stroke-linecap:butt; stroke-linejoin:miter; stroke-dasharray:0; opacity:1" />
<line x1="76" y1="387.46" x2="72" y2="387.46" style="fill:none; stroke:rgb(0,0,0); stroke-width:1; stroke-linecap:butt; stroke-linejoin:miter; stroke-dasharray:0; opacity:1" />
<line x1="76" y1="378.124" x2="72" y2="378.124" style="fill:none; stroke:rgb(0,0,0); stroke-width:1; stroke-linecap:butt; stroke-linejoin:miter; stroke-dasharray:0; opacity:1" />
<line x1="76" y1="368.787" x2="72" y2="368.787" style="fill:none; stroke:rgb(0,0,0); stroke-width:1; stroke-linecap:butt; stroke-linejoin:miter; stroke-dasharray:0; opacity:1" />
<text x="63" y="359.45" font-family="Segoe UI" font-size="9pt" font-style="normal" font-weight="normal" text-decoration="none" text-anchor="end" dominant-baseline="middle" fill="rgb(0,0,0)">
&#x30;&#x2E;&#x33;
</text>
<line x1="76" y1="359.45" x2="67" y2="359.45" style="fill:none; stroke:rgb(0,0,0); stroke-width:1; stroke-linecap:butt; stroke-linejoin:miter; stroke-dasharray:0; opacity:1" />
<line x1="76" y1="350.114" x2="72" y2="350.114" style="fill:none; stroke:rgb(0,0,0); stroke-width:1; stroke-linecap:butt; stroke-linejoin:miter; stroke-dasharray:0; opacity:1" />
<line x1="76" y1="340.777" x2="72" y2="340.777" style="fill:none; stroke:rgb(0,0,0); stroke-width:1; stroke-linecap:butt; stroke-linejoin:miter; stroke-dasharray:0; opacity:1" />
<line x1="76" y1="331.441" x2="72" y2="331.441" style="fill:none; stroke:rgb(0,0,0); stroke-width:1; stroke-linecap:butt; stroke-linejoin:miter; stroke-dasharray:0; opacity:1" />
<line x1="76" y1="322.104" x2="72" y2="322.104" style="fill:none; stroke:rgb(0,0,0); stroke-width:1; stroke-linecap:butt; stroke-linejoin:miter; stroke-dasharray:0; opacity:1" />
<text x="63" y="312.767" font-family="Segoe UI" font-size="9pt" font-style="normal" font-weight="normal" text-decoration="none" text-anchor="end" dominant-baseline="middle" fill="rgb(0,0,0)">
&#x30;&#x2E;&#x34;
</text>
<line x1="76" y1="312.767" x2="67" y2="312.767" style="fill:none; stroke:rgb(0,0,0); stroke-width:1; stroke-linecap:butt; stroke-linejoin:miter; stroke-dasharray:0; opacity:1" />
<line x1="76" y1="303.431" x2="72" y2="303.431" style="fill:none; stroke:rgb(0,0,0); stroke-width:1; stroke-linecap:butt; stroke-linejoin:miter; stroke-dasharray:0; opacity:1" />
<line x1="76" y1="294.094" x2="72" y2="294.094" style="fill:none; stroke:rgb(0,0,0); stroke-width:1; stroke-linecap:butt; stroke-linejoin:miter; stroke-dasharray:0; opacity:1" />
<line x1="76" y1="284.757" x2="72" y2="284.757" style="fill:none; stroke:rgb(0,0,0); stroke-width:1; stroke-linecap:butt; stroke-linejoin:miter; stroke-dasharray:0; opacity:1" />
<line x1="76" y1="275.421" x2="72" y2="275.421" style="fill:none; stroke:rgb(0,0,0); stroke-width:1; stroke-linecap:butt; stroke-linejoin:miter; stroke-dasharray:0; opacity:1" />
<text x="63" y="266.084" font-family="Segoe UI" font-size="9pt" font-style="normal" font-weight="normal" text-decoration="none" text-anchor="end" dominant-baseline="middle" fill="rgb(0,0,0)">
&#x30;&#x2E;&#x35;
</text>
<line x1="76" y1="266.084" x2="67" y2="266.084" style="fill:none; stroke:rgb(0,0,0); stroke-width:1; stroke-linecap:butt; stroke-linejoin:miter; stroke-dasharray:0; opacity:1" />
<line x1="76" y1="256.748" x2="72" y2="256.748" style="fill:none; stroke:rgb(0,0,0); stroke-width:1; stroke-linecap:butt; stroke-linejoin:miter; stroke-dasharray:0; opacity:1" />
<line x1="76" y1="247.411" x2="72" y2="247.411" style="fill:none; stroke:rgb(0,0,0); stroke-width:1; stroke-linecap:butt; stroke-linejoin:miter; stroke-dasharray:0; opacity:1" />
<line x1="76" y1="238.074" x2="72" y2="238.074" style="fill:none; stroke:rgb(0,0,0); stroke-width:1; stroke-linecap:butt; stroke-linejoin:miter; stroke-dasharray:0; opacity:1" />
<line x1="76" y1="228.738" x2="72" y2="228.738" style="fill:none; stroke:rgb(0,0,0); stroke-width:1; stroke-linecap:butt; stroke-linejoin:miter; stroke-dasharray:0; opacity:1" />
<text x="63" y="219.401" font-family="Segoe UI" font-size="9pt" font-style="normal" font-weight="normal" text-decoration="none" text-anchor="end" dominant-baseline="middle" fill="rgb(0,0,0)">
&#x30;&#x2E;&#x36;
</text>
<line x1="76" y1="219.401" x2="67" y2="219.401" style="fill:none; stroke:rgb(0,0,0); stroke-width:1; stroke-linecap:butt; stroke-linejoin:miter; stroke-dasharray:0; opacity:1" />
<line x1="76" y1="210.064" x2="72" y2="210.064" style="fill:none; stroke:rgb(0,0,0); stroke-width:1; stroke-linecap:butt; stroke-linejoin:miter; stroke-dasharray:0; opacity:1" />
<line x1="76" y1="200.728" x2="72" y2="200.728" style="fill:none; stroke:rgb(0,0,0); stroke-width:1; stroke-linecap:butt; stroke-linejoin:miter; stroke-dasharray:0; opacity:1" />
<line x1="76" y1="191.391" x2="72" y2="191.391" style="fill:none; stroke:rgb(0,0,0); stroke-width:1; stroke-linecap:butt; stroke-linejoin:miter; stroke-dasharray:0; opacity:1" />
<line x1="76" y1="182.054" x2="72" y2="182.054" style="fill:none; stroke:rgb(0,0,0); stroke-width:1; stroke-linecap:butt; stroke-linejoin:miter; stroke-dasharray:0; opacity:1" />
<text x="63" y="172.718" font-family="Segoe UI" font-size="9pt" font-style="normal" font-weight="normal" text-decoration="none" text-anchor="end" dominant-baseline="middle" fill="rgb(0,0,0)">
&#x30;&#x2E;&#x37;
</text>
<line x1="76" y1="172.718" x2="67" y2="172.718" style="fill:none; stroke:rgb(0,0,0); stroke-width:1; stroke-linecap:butt; stroke-linejoin:miter; stroke-dasharray:0; opacity:1" />
<line x1="76" y1="163.381" x2="72" y2="163.381" style="fill:none; stroke:rgb(0,0,0); stroke-width:1; stroke-linecap:butt; stroke-linejoin:miter; stroke-dasharray:0; opacity:1" />
<line x1="76" y1="154.045" x2="72" y2="154.045" style="fill:none; stroke:rgb(0,0,0); stroke-width:1; stroke-linecap:butt; stroke-linejoin:miter; stroke-dasharray:0; opacity:1" />
<line x1="76" y1="144.708" x2="72" y2="144.708" style="fill:none; stroke:rgb(0,0,0); stroke-width:1; stroke-linecap:butt; stroke-linejoin:miter; stroke-dasharray:0; opacity:1" />
<line x1="76" y1="135.371" x2="72" y2="135.371" style="fill:none; stroke:rgb(0,0,0); stroke-width:1; stroke-linecap:butt; stroke-linejoin:miter; stroke-dasharray:0; opacity:1" />
<text x="63" y="126.035" font-family="Segoe UI" font-size="9pt" font-style="normal" font-weight="normal" text-decoration="none" text-anchor="end" dominant-baseline="middle" fill="rgb(0,0,0)">
&#x30;&#x2E;&#x38;
</text>
<line x1="76" y1="126.035" x2="67" y2="126.035" style="fill:none; stroke:rgb(0,0,0); stroke-width:1; stroke-linecap:butt; stroke-linejoin:miter; stroke-dasharray:0; opacity:1" />
<line x1="76" y1="116.698" x2="72" y2="116.698" style="fill:none; stroke:rgb(0,0,0); stroke-width:1; stroke-linecap:butt; stroke-linejoin:miter; stroke-dasharray:0; opacity:1" />
<line x1="76" y1="107.361" x2="72" y2="107.361" style="fill:none; stroke:rgb(0,0,0); stroke-width:1; stroke-linecap:butt; stroke-linejoin:miter; stroke-dasharray:0; opacity:1" />
<line x1="76" y1="98.0248" x2="72" y2="98.0248" style="fill:none; stroke:rgb(0,0,0); stroke-width:1; stroke-linecap:butt; stroke-linejoin:miter; stroke-dasharray:0; opacity:1" />
<line x1="76" y1="88.6881" x2="72" y2="88.6881" style="fill:none; stroke:rgb(0,0,0); stroke-width:1; stroke-linecap:butt; stroke-linejoin:miter; stroke-dasharray:0; opacity:1" />
<text x="63" y="79.3515" font-family="Segoe UI" font-size="9pt" font-style="normal" font-weight="normal" text-decoration="none" text-anchor="end" dominant-baseline="middle" fill="rgb(0,0,0)">
&#x30;&#x2E;&#x39;
</text>
<line x1="76" y1="79.3515" x2="67" y2="79.3515" style="fill:none; stroke:rgb(0,0,0); stroke-width:1; stroke-linecap:butt; stroke-linejoin:miter; stroke-dasharray:0; opacity:1" />
<line x1="76" y1="70.0149" x2="72" y2="70.0149" style="fill:none; stroke:rgb(0,0,0); stroke-width:1; stroke-linecap:butt; stroke-linejoin:miter; stroke-dasharray:0; opacity:1" />
<line x1="76" y1="60.6782" x2="72" y2="60.6782" style="fill:none; stroke:rgb(0,0,0); stroke-width:1; stroke-linecap:butt; stroke-linejoin:miter; stroke-dasharray:0; opacity:1" />
<line x1="76" y1="51.3416" x2="72" y2="51.3416" style="fill:none; stroke:rgb(0,0,0); stroke-width:1; stroke-linecap:butt; stroke-linejoin:miter; stroke-dasharray:0; opacity:1" />
<line x1="76" y1="42.005" x2="72" y2="42.005" style="fill:none; stroke:rgb(0,0,0); stroke-width:1; stroke-linecap:butt; stroke-linejoin:miter; stroke-dasharray:0; opacity:1" />
<text x="63" y="32.6683" font-family="Segoe UI" font-size="9pt" font-style="normal" font-weight="normal" text-decoration="none" text-anchor="end" dominant-baseline="middle" fill="rgb(0,0,0)">
&#x31;&#x2E;&#x30;
</text>
<line x1="76" y1="32.6683" x2="67" y2="32.6683" style="fill:none; stroke:rgb(0,0,0); stroke-width:1; stroke-linecap:butt; stroke-linejoin:miter; stroke-dasharray:0; opacity:1" />
<clipPath id="cliprect0">
<rect x="76" y="29" width="1500" height="943" />
</clipPath>
</g>
<g clip-path="url(#cliprect0)">
<polyline style="fill:none; stroke:rgb(0,0,0); stroke-width:1; stroke-linecap:butt; stroke-linejoin:miter; stroke-dasharray:0; opacity:1" points="76,385.417 1576,385.417 " />
<polyline style="fill:none; stroke:rgb(204,170,0); stroke-width:1; stroke-linecap:butt; stroke-linejoin:miter; stroke-dasharray:0; opacity:1" points="76,519.657 81.8824,450.414 87.7647,386.407 93.6471,331.731 99.5294,279.12 105.412,231.429 111.294,188.819 117.176,151.613 123.059,119.998 128.941,94.0271 134.824,73.6451 140.706,58.6734 146.588,48.7949 152.471,43.5385 158.353,42.2741 164.235,44.2268 170.118,48.5133 176,54.1991 181.882,60.3687 187.765,66.1961 193.647,71.0061 199.529,74.3145 205.412,75.8439 211.294,75.5155 217.176,73.4236 223.059,69.7998 228.941,64.9767 234.824,59.3551 240.706,53.3747 246.588,47.4889 252.471,42.138 258.353,37.7185 264.235,34.5499 270.118,32.8419 276,32.6683 281.882,33.9551 287.765,36.488 293.647,39.9423 299.529,43.9316 305.412,48.0696 311.294,52.0355 317.176,55.6317 323.059,58.8244 328.941,61.7613 334.824,64.7623 340.706,68.2863 346.588,72.8773 352.471,79.0984 358.353,87.4616 364.235,98.3619 370.118,112.023 376,128.463 381.882,147.477 387.765,168.648 393.647,191.386 399.529,214.976 405.412,238.651 411.294,261.671 417.176,283.387 423.059,303.304 428.941,321.111 434.824,336.688 440.706,350.089 446.588,361.499 452.471,371.18 458.353,379.422 464.235,386.49 470.118,392.591 476,397.86 481.882,402.353 487.765,406.057 493.647,408.907 499.529,410.803 505.412,411.624 511.294,411.246 517.176,409.547 523.059,406.422 528.941,401.793 534.824,395.614 540.706,387.89 546.588,378.683 552.471,368.12 558.353,356.402 564.235,343.797 570.118,330.63 576,317.262 581.882,304.062 587.765,291.367 593.647,279.449 599.529,268.484 605.412,258.538 611.294,249.567 617.176,241.446 623.059,234.004 628.941,227.084 634.824,220.587 640.706,214.512 646.588,208.973 652.471,204.184 658.353,200.426 664.235,197.993 670.118,197.129 676,197.983 681.882,200.563 687.765,204.736 693.647,210.235 699.529,216.698 705.412,223.726 711.294,230.941 717.176,238.039 723.059,244.84 728.941,251.306 734.824,257.542 740.706,263.771 746.588,270.297 752.471,277.445 758.353,285.509 764.235,294.7 770.118,305.108 776,316.685 781.882,329.246 787.765,342.497 793.647,356.066 799.529,369.551 805.412,382.565 811.294,394.765 817.176,405.873 823.059,415.685 828.941,424.056 834.824,430.893 840.706,436.137 846.588,439.759 852.471,441.759 858.353,442.18 864.235,441.12 870.118,438.744 876,435.294 881.882,431.076 887.765,426.442 893.647,421.762 899.529,417.384 905.412,413.599 911.294,410.618 917.176,408.554 923.059,407.42 928.941,407.143 934.824,407.584 940.706,408.563 946.588,409.888 952.471,411.375 958.353,412.871 964.235,414.266 970.118,415.502 976,416.571 981.882,417.515 987.765,418.414 993.647,419.377 999.529,420.524 1005.41,421.969 1011.29,423.809 1017.18,426.104 1023.06,428.877 1028.94,432.109 1034.82,435.737 1040.71,439.663 1046.59,443.762 1052.47,447.888 1058.35,451.884 1064.24,455.585 1070.12,458.825 1076,461.447 1081.88,463.307 1087.76,464.285 1093.65,464.294 1099.53,463.293 1105.41,461.293 1111.29,458.362 1117.18,454.623 1123.06,450.248 1128.94,445.438 1134.82,440.411 1140.71,435.376 1146.59,430.519 1152.47,425.982 1158.35,421.862 1164.24,418.211 1170.12,415.045 1176,412.36 1181.88,410.155 1187.76,408.443 1193.65,407.267 1199.53,406.696 1205.41,406.818 1211.29,407.721 1217.18,409.467 1223.06,412.067 1228.94,415.464 1234.82,419.523 1240.71,424.036 1246.59,428.735 1252.47,433.32 1258.35,437.478 1264.24,440.911 1270.12,443.35 1276,444.564 1281.88,444.363 1287.76,442.604 1293.65,439.186 1299.53,434.064 1305.41,427.259 1311.29,418.871 1317.18,409.09 1323.06,398.199 1328.94,386.564 1334.82,374.607 1340.71,362.768 1346.59,351.461 1352.47,341.027 1358.35,331.707 1364.24,323.614 1370.12,316.741 1376,310.98 1381.88,306.154 1387.76,302.058 1393.65,298.499 1399.53,295.327 1405.41,292.453 1411.29,289.856 1417.18,287.58 1423.06,285.717 1428.94,284.394 1434.82,283.756 1440.71,283.956 1446.59,285.142 1452.47,287.456 1458.35,291.021 1464.24,295.946 1470.12,302.309 1476,310.157 1481.88,319.498 1487.76,330.289 1493.65,342.439 1499.53,355.8 1505.41,370.17 1511.29,385.296 1517.18,400.882 1523.06,416.595 1528.94,432.083 1534.82,446.993 1540.71,460.991 1546.59,473.803 1552.47,485.238 1558.35,495.076 1564.24,504.266 1570.12,509.663 1576,512.792 " />
<polyline style="fill:none; stroke:rgb(204,0,0); stroke-width:1; stroke-linecap:butt; stroke-linejoin:miter; stroke-dasharray:0; opacity:1" points="76,499.5 81.8824,499.5 87.7647,499.5 93.6471,499.5 99.5294,499.5 105.412,499.5 111.294,499.5 117.176,499.5 123.059,499.5 128.941,499.5 134.824,499.5 140.706,499.5 146.588,499.5 152.471,499.5 158.353,42.2741 164.235,499.5 170.118,499.5 176,499.5 181.882,499.5 187.765,499.5 193.647,499.5 199.529,499.5 205.412,499.5 211.294,499.5 217.176,499.5 223.059,499.5 228.941,499.5 234.824,499.5 240.706,499.5 246.588,499.5 252.471,499.5 258.353,499.5 264.235,499.5 270.118,499.5 276,32.6683 281.882,499.5 287.765,499.5 293.647,499.5 299.529,499.5 305.412,499.5 311.294,499.5 317.176,499.5 323.059,499.5 328.941,499.5 334.824,499.5 340.706,499.5 346.588,499.5 352.471,499.5 358.353,499.5 364.235,499.5 370.118,499.5 376,499.5 381.882,499.5 387.765,499.5 393.647,499.5 399.529,499.5 405.412,499.5 411.294,499.5 417.176,499.5 423.059,499.5 428.941,499.5 434.824,499.5 440.706,499.5 446.588,499.5 452.471,499.5 458.353,499.5 464.235,499.5 470.118,499.5 476,499.5 481.882,499.5 487.765,499.5 493.647,499.5 499.529,499.5 505.412,499.5 511.294,499.5 517.176,499.5 523.059,499.5 528.941,499.5 534.824,499.5 540.706,499.5 546.588,499.5 552.471,499.5 558.353,499.5 564.235,499.5 570.118,499.5 576,499.5 581.882,499.5 587.765,499.5 593.647,499.5 599.529,499.5 605.412,499.5 611.294,499.5 617.176,499.5 623.059,499.5 628.941,499.5 634.824,499.5 640.706,499.5 646.588,499.5 652.471,499.5 658.353,499.5 664.235,499.5 670.118,197.129 676,499.5 681.882,499.5 687.765,499.5 693.647,499.5 699.529,499.5 705.412,499.5 711.294,499.5 717.176,499.5 723.059,499.5 728.941,499.5 734.824,499.5 740.706,499.5 746.588,499.5 752.471,499.5 758.353,499.5 764.235,499.5 770.118,499.5 776,499.5 781.882,499.5 787.765,499.5 793.647,499.5 799.529,499.5 805.412,499.5 811.294,499.5 817.176,499.5 823.059,499.5 828.941,499.5 834.824,499.5 840.706,499.5 846.588,499.5 852.471,499.5 858.353,499.5 864.235,499.5 870.118,499.5 876,499.5 881.882,499.5 887.765,499.5 893.647,499.5 899.529,499.5 905.412,499.5 911.294,499.5 917.176,499.5 923.059,499.5 928.941,407.143 934.824,499.5 940.706,499.5 946.588,499.5 952.471,499.5 958.353,499.5 964.235,499.5 970.118,499.5 976,499.5 981.882,499.5 987.765,499.5 993.647,499.5 999.529,499.5 1005.41,499.5 1011.29,499.5 1017.18,499.5 1023.06,499.5 1028.94,499.5 1034.82,499.5 1040.71,499.5 1046.59,499.5 1052.47,499.5 1058.35,499.5 1064.24,499.5 1070.12,499.5 1076,499.5 1081.88,499.5 1087.76,499.5 1093.65,499.5 1099.53,499.5 1105.41,499.5 1111.29,499.5 1117.18,499.5 1123.06,499.5 1128.94,499.5 1134.82,499.5 1140.71,499.5 1146.59,499.5 1152.47,499.5 1158.35,499.5 1164.24,499.5 1170.12,499.5 1176,499.5 1181.88,499.5 1187.76,499.5 1193.65,499.5 1199.53,406.696 1205.41,499.5 1211.29,499.5 1217.18,499.5 1223.06,499.5 1228.94,499.5 1234.82,499.5 1240.71,499.5 1246.59,499.5 1252.47,499.5 1258.35,499.5 1264.24,499.5 1270.12,499.5 1276,499.5 1281.88,499.5 1287.76,499.5 1293.65,499.5 1299.53,499.5 1305.41,499.5 1311.29,499.5 1317.18,499.5 1323.06,499.5 1328.94,499.5 1334.82,499.5 1340.71,499.5 1346.59,499.5 1352.47,499.5 1358.35,499.5 1364.24,499.5 1370.12,499.5 1376,499.5 1381.88,499.5 1387.76,499.5 1393.65,499.5 1399.53,499.5 1405.41,499.5 1411.29,499.5 1417.18,499.5 1423.06,499.5 1428.94,499.5 1434.82,283.756 1440.71,499.5 1446.59,499.5 1452.47,499.5 1458.35,499.5 1464.24,499.5 1470.12,499.5 1476,499.5 1481.88,499.5 1487.76,499.5 1493.65,499.5 1499.53,499.5 1505.41,499.5 1511.29,499.5 1517.18,499.5 1523.06,499.5 1528.94,499.5 1534.82,499.5 1540.71,499.5 1546.59,499.5 1552.47,499.5 1558.35,499.5 1564.24,499.5 1570.12,499.5 1576,499.5 " />
<clipPath id="cliprect1">
<rect x="0" y="0" width="1618" height="1017" />
</clipPath>
</g>
<g clip-path="url(#cliprect1)">
</g>
</g>
</svg>
