<?xml version="1.0" encoding="UTF-8"?>
<svg xmlns="http://www.w3.org/2000/svg" xmlns:xlink="http://www.w3.org/1999/xlink" width="970.801pt" height="610.2pt" viewBox="0 0 1618 1017" version="1.1">
<g>
<pattern id="pattern0" patternUnits="userSpaceOnUse" x="0" y="0" width="7" height="7">
<line x1="0" y1="3" x2="7" y2="3" style="fill:none; stroke:rgb(0,0,0); opacity:1" />
</pattern>
<rect x="0" y="0" width="1617" height="1016" style="fill:rgb(255,255,255); stroke:none; opacity:1" />
<g clip-path="url(#cliprect-1)">
<line x1="76" y1="971" x2="1576" y2="971" style="fill:none; stroke:rgb(0,0,0); stroke-width:1; stroke-linecap:butt; stroke-linejoin:miter; stroke-dasharray:0; opacity:1" />
<line x1="1576" y1="971" x2="1582" y2="971" style="fill:none; stroke:rgb(0,0,0); stroke-width:1; stroke-linecap:butt; stroke-linejoin:miter; stroke-dasharray:0; opacity:1" />
<polygon style="fill:rgb(0,0,0); fill-rule:evenodd; stroke:none; opacity:1" points="1582,971 1578,975 1578,967 " />
<text x="76" y="984" font-family="Segoe UI" font-size="9pt" font-style="normal" font-weight="normal" text-decoration="none" text-anchor="middle" dominant-baseline="text-before-edge" fill="rgb(0,0,0)">
&#x30;
</text>
<line x1="76" y1="971" x2="76" y2="980" style="fill:none; stroke:rgb(0,0,0); stroke-width:1; stroke-linecap:butt; stroke-linejoin:miter; stroke-dasharray:0; opacity:1" />
<line x1="99.5294" y1="971" x2="99.5294" y2="975" style="fill:none; stroke:rgb(0,0,0); stroke-width:1; stroke-linecap:butt; stroke-linejoin:miter; stroke-dasharray:0; opacity:1" />
<line x1="123.059" y1="971" x2="123.059" y2="975" style="fill:none; stroke:rgb(0,0,0); stroke-width:1; stroke-linecap:butt; stroke-linejoin:miter; stroke-dasharray:0; opacity:1" />
<line x1="146.588" y1="971" x2="146.588" y2="975" style="fill:none; stroke:rgb(0,0,0); stroke-width:1; stroke-linecap:butt; stroke-linejoin:miter; stroke-dasharray:0; opacity:1" />
<line x1="170.118" y1="971" x2="170.118" y2="975" style="fill:none; stroke:rgb(0,0,0); stroke-width:1; stroke-linecap:butt; stroke-linejoin:miter; stroke-dasharray:0; opacity:1" />
<text x="193.647" y="984" font-family="Segoe UI" font-size="9pt" font-style="normal" font-weight="normal" text-decoration="none" text-anchor="middle" dominant-baseline="text-before-edge" fill="rgb(0,0,0)">
&#x32;&#x30;
</text>
<line x1="193.647" y1="971" x2="193.647" y2="980" style="fill:none; stroke:rgb(0,0,0); stroke-width:1; stroke-linecap:butt; stroke-linejoin:miter; stroke-dasharray:0; opacity:1" />
<line x1="217.176" y1="971" x2="217.176" y2="975" style="fill:none; stroke:rgb(0,0,0); stroke-width:1; stroke-linecap:butt; stroke-linejoin:miter; stroke-dasharray:0; opacity:1" />
<line x1="240.706" y1="971" x2="240.706" y2="975" style="fill:none; stroke:rgb(0,0,0); stroke-width:1; stroke-linecap:butt; stroke-linejoin:miter; stroke-dasharray:0; opacity:1" />
<line x1="264.235" y1="971" x2="264.235" y2="975" style="fill:none; stroke:rgb(0,0,0); stroke-width:1; stroke-linecap:butt; stroke-linejoin:miter; stroke-dasharray:0; opacity:1" />
<line x1="287.765" y1="971" x2="287.765" y2="975" style="fill:none; stroke:rgb(0,0,0); stroke-width:1; stroke-linecap:butt; stroke-linejoin:miter; stroke-dasharray:0; opacity:1" />
<text x="311.294" y="984" font-family="Segoe UI" font-size="9pt" font-style="normal" font-weight="normal" text-decoration="none" text-anchor="middle" dominant-baseline="text-before-edge" fill="rgb(0,0,0)">
&#x34;&#x30;
</text>
<line x1="311.294" y1="971" x2="311.294" y2="980" style="fill:none; stroke:rgb(0,0,0); stroke-width:1; stroke-linecap:butt; stroke-linejoin:miter; stroke-dasharray:0; opacity:1" />
<line x1="334.824" y1="971" x2="334.824" y2="975" style="fill:none; stroke:rgb(0,0,0); stroke-width:1; stroke-linecap:butt; stroke-linejoin:miter; stroke-dasharray:0; opacity:1" />
<line x1="358.353" y1="971" x2="358.353" y2="975" style="fill:none; stroke:rgb(0,0,0); stroke-width:1; stroke-linecap:butt; stroke-linejoin:miter; stroke-dasharray:0; opacity:1" />
<line x1="381.882" y1="971" x2="381.882" y2="975" style="fill:none; stroke:rgb(0,0,0); stroke-width:1; stroke-linecap:butt; stroke-linejoin:miter; stroke-dasharray:0; opacity:1" />
<line x1="405.412" y1="971" x2="405.412" y2="975" style="fill:none; stroke:rgb(0,0,0); stroke-width:1; stroke-linecap:butt; stroke-linejoin:miter; stroke-dasharray:0; opacity:1" />
<text x="428.941" y="984" font-family="Segoe UI" font-size="9pt" font-style="normal" font-weight="normal" text-decoration="none" text-anchor="middle" dominant-baseline="text-before-edge" fill="rgb(0,0,0)">
&#x36;&#x30;
</text>
<line x1="428.941" y1="971" x2="428.941" y2="980" style="fill:none; stroke:rgb(0,0,0); stroke-width:1; stroke-linecap:butt; stroke-linejoin:miter; stroke-dasharray:0; opacity:1" />
<line x1="452.471" y1="971" x2="452.471" y2="975" style="fill:none; stroke:rgb(0,0,0); stroke-width:1; stroke-linecap:butt; stroke-linejoin:miter; stroke-dasharray:0; opacity:1" />
<line x1="476" y1="971" x2="476" y2="975" style="fill:none; stroke:rgb(0,0,0); stroke-width:1; stroke-linecap:butt; stroke-linejoin:miter; stroke-dasharray:0; opacity:1" />
<line x1="499.529" y1="971" x2="499.529" y2="975" style="fill:none; stroke:rgb(0,0,0); stroke-width:1; stroke-linecap:butt; stroke-linejoin:miter; stroke-dasharray:0; opacity:1" />
<line x1="523.059" y1="971" x2="523.059" y2="975" style="fill:none; stroke:rgb(0,0,0); stroke-width:1; stroke-linecap:butt; stroke-linejoin:miter; stroke-dasharray:0; opacity:1" />
<text x="546.588" y="984" font-family="Segoe UI" font-size="9pt" font-style="normal" font-weight="normal" text-decoration="none" text-anchor="middle" dominant-baseline="text-before-edge" fill="rgb(0,0,0)">
&#x38;&#x30;
</text>
<line x1="546.588" y1="971" x2="546.588" y2="980" style="fill:none; stroke:rgb(0,0,0); stroke-width:1; stroke-linecap:butt; stroke-linejoin:miter; stroke-dasharray:0; opacity:1" />
<line x1="570.118" y1="971" x2="570.118" y2="975" style="fill:none; stroke:rgb(0,0,0); stroke-width:1; stroke-linecap:butt; stroke-linejoin:miter; stroke-dasharray:0; opacity:1" />
<line x1="593.647" y1="971" x2="593.647" y2="975" style="fill:none; stroke:rgb(0,0,0); stroke-width:1; stroke-linecap:butt; stroke-linejoin:miter; stroke-dasharray:0; opacity:1" />
<line x1="617.176" y1="971" x2="617.176" y2="975" style="fill:none; stroke:rgb(0,0,0); stroke-width:1; stroke-linecap:butt; stroke-linejoin:miter; stroke-dasharray:0; opacity:1" />
<line x1="640.706" y1="971" x2="640.706" y2="975" style="fill:none; stroke:rgb(0,0,0); stroke-width:1; stroke-linecap:butt; stroke-linejoin:miter; stroke-dasharray:0; opacity:1" />
<text x="664.235" y="984" font-family="Segoe UI" font-size="9pt" font-style="normal" font-weight="normal" text-decoration="none" text-anchor="middle" dominant-baseline="text-before-edge" fill="rgb(0,0,0)">
&#x31;&#x30;&#x30;
</text>
<line x1="664.235" y1="971" x2="664.235" y2="980" style="fill:none; stroke:rgb(0,0,0); stroke-width:1; stroke-linecap:butt; stroke-linejoin:miter; stroke-dasharray:0; opacity:1" />
<line x1="687.765" y1="971" x2="687.765" y2="975" style="fill:none; stroke:rgb(0,0,0); stroke-width:1; stroke-linecap:butt; stroke-linejoin:miter; stroke-dasharray:0; opacity:1" />
<line x1="711.294" y1="971" x2="711.294" y2="975" style="fill:none; stroke:rgb(0,0,0); stroke-width:1; stroke-linecap:butt; stroke-linejoin:miter; stroke-dasharray:0; opacity:1" />
<line x1="734.824" y1="971" x2="734.824" y2="975" style="fill:none; stroke:rgb(0,0,0); stroke-width:1; stroke-linecap:butt; stroke-linejoin:miter; stroke-dasharray:0; opacity:1" />
<line x1="758.353" y1="971" x2="758.353" y2="975" style="fill:none; stroke:rgb(0,0,0); stroke-width:1; stroke-linecap:butt; stroke-linejoin:miter; stroke-dasharray:0; opacity:1" />
<text x="781.882" y="984" font-family="Segoe UI" font-size="9pt" font-style="normal" font-weight="normal" text-decoration="none" text-anchor="middle" dominant-baseline="text-before-edge" fill="rgb(0,0,0)">
&#x31;&#x32;&#x30;
</text>
<line x1="781.882" y1="971" x2="781.882" y2="980" style="fill:none; stroke:rgb(0,0,0); stroke-width:1; stroke-linecap:butt; stroke-linejoin:miter; stroke-dasharray:0; opacity:1" />
<line x1="805.412" y1="971" x2="805.412" y2="975" style="fill:none; stroke:rgb(0,0,0); stroke-width:1; stroke-linecap:butt; stroke-linejoin:miter; stroke-dasharray:0; opacity:1" />
<line x1="828.941" y1="971" x2="828.941" y2="975" style="fill:none; stroke:rgb(0,0,0); stroke-width:1; stroke-linecap:butt; stroke-linejoin:miter; stroke-dasharray:0; opacity:1" />
<line x1="852.471" y1="971" x2="852.471" y2="975" style="fill:none; stroke:rgb(0,0,0); stroke-width:1; stroke-linecap:butt; stroke-linejoin:miter; stroke-dasharray:0; opacity:1" />
<line x1="876" y1="971" x2="876" y2="975" style="fill:none; stroke:rgb(0,0,0); stroke-width:1; stroke-linecap:butt; stroke-linejoin:miter; stroke-dasharray:0; opacity:1" />
<text x="899.529" y="984" font-family="Segoe UI" font-size="9pt" font-style="normal" font-weight="normal" text-decoration="none" text-anchor="middle" dominant-baseline="text-before-edge" fill="rgb(0,0,0)">
&#x31;&#x34;&#x30;
</text>
<line x1="899.529" y1="971" x2="899.529" y2="980" style="fill:none; stroke:rgb(0,0,0); stroke-width:1; stroke-linecap:butt; stroke-linejoin:miter; stroke-dasharray:0; opacity:1" />
<line x1="923.059" y1="971" x2="923.059" y2="975" style="fill:none; stroke:rgb(0,0,0); stroke-width:1; stroke-linecap:butt; stroke-linejoin:miter; stroke-dasharray:0; opacity:1" />
<line x1="946.588" y1="971" x2="946.588" y2="975" style="fill:none; stroke:rgb(0,0,0); stroke-width:1; stroke-linecap:butt; stroke-linejoin:miter; stroke-dasharray:0; opacity:1" />
<line x1="970.118" y1="971" x2="970.118" y2="975" style="fill:none; stroke:rgb(0,0,0); stroke-width:1; stroke-linecap:butt; stroke-linejoin:miter; stroke-dasharray:0; opacity:1" />
<line x1="993.647" y1="971" x2="993.647" y2="975" style="fill:none; stroke:rgb(0,0,0); stroke-width:1; stroke-linecap:butt; stroke-linejoin:miter; stroke-dasharray:0; opacity:1" />
<text x="1017.18" y="984" font-family="Segoe UI" font-size="9pt" font-style="normal" font-weight="normal" text-decoration="none" text-anchor="middle" dominant-baseline="text-before-edge" fill="rgb(0,0,0)">
&#x31;&#x36;&#x30;
</text>
<line x1="1017.18" y1="971" x2="1017.18" y2="980" style="fill:none; stroke:rgb(0,0,0); stroke-width:1; stroke-linecap:butt; stroke-linejoin:miter; stroke-dasharray:0; opacity:1" />
<line x1="1040.71" y1="971" x2="1040.71" y2="975" style="fill:none; stroke:rgb(0,0,0); stroke-width:1; stroke-linecap:butt; stroke-linejoin:miter; stroke-dasharray:0; opacity:1" />
<line x1="1064.24" y1="971" x2="1064.24" y2="975" style="fill:none; stroke:rgb(0,0,0); stroke-width:1; stroke-linecap:butt; stroke-linejoin:miter; stroke-dasharray:0; opacity:1" />
<line x1="1087.76" y1="971" x2="1087.76" y2="975" style="fill:none; stroke:rgb(0,0,0); stroke-width:1; stroke-linecap:butt; stroke-linejoin:miter; stroke-dasharray:0; opacity:1" />
<line x1="1111.29" y1="971" x2="1111.29" y2="975" style="fill:none; stroke:rgb(0,0,0); stroke-width:1; stroke-linecap:butt; stroke-linejoin:miter; stroke-dasharray:0; opacity:1" />
<text x="1134.82" y="984" font-family="Segoe UI" font-size="9pt" font-style="normal" font-weight="normal" text-decoration="none" text-anchor="middle" dominant-baseline="text-before-edge" fill="rgb(0,0,0)">
&#x31;&#x38;&#x30;
</text>
<line x1="1134.82" y1="971" x2="1134.82" y2="980" style="fill:none; stroke:rgb(0,0,0); stroke-width:1; stroke-linecap:butt; stroke-linejoin:miter; stroke-dasharray:0; opacity:1" />
<line x1="1158.35" y1="971" x2="1158.35" y2="975" style="fill:none; stroke:rgb(0,0,0); stroke-width:1; stroke-linecap:butt; stroke-linejoin:miter; stroke-dasharray:0; opacity:1" />
<line x1="1181.88" y1="971" x2="1181.88" y2="975" style="fill:none; stroke:rgb(0,0,0); stroke-width:1; stroke-linecap:butt; stroke-linejoin:miter; stroke-dasharray:0; opacity:1" />
<line x1="1205.41" y1="971" x2="1205.41" y2="975" style="fill:none; stroke:rgb(0,0,0); stroke-width:1; stroke-linecap:butt; stroke-linejoin:miter; stroke-dasharray:0; opacity:1" />
<line x1="1228.94" y1="971" x2="1228.94" y2="975" style="fill:none; stroke:rgb(0,0,0); stroke-width:1; stroke-linecap:butt; stroke-linejoin:miter; stroke-dasharray:0; opacity:1" />
<text x="1252.47" y="984" font-family="Segoe UI" font-size="9pt" font-style="normal" font-weight="normal" text-decoration="none" text-anchor="middle" dominant-baseline="text-before-edge" fill="rgb(0,0,0)">
&#x32;&#x30;&#x30;
</text>
<line x1="1252.47" y1="971" x2="1252.47" y2="980" style="fill:none; stroke:rgb(0,0,0); stroke-width:1; stroke-linecap:butt; stroke-linejoin:miter; stroke-dasharray:0; opacity:1" />
<line x1="1276" y1="971" x2="1276" y2="975" style="fill:none; stroke:rgb(0,0,0); stroke-width:1; stroke-linecap:butt; stroke-linejoin:miter; stroke-dasharray:0; opacity:1" />
<line x1="1299.53" y1="971" x2="1299.53" y2="975" style="fill:none; stroke:rgb(0,0,0); stroke-width:1; stroke-linecap:butt; stroke-linejoin:miter; stroke-dasharray:0; opacity:1" />
<line x1="1323.06" y1="971" x2="1323.06" y2="975" style="fill:none; stroke:rgb(0,0,0); stroke-width:1; stroke-linecap:butt; stroke-linejoin:miter; stroke-dasharray:0; opacity:1" />
<line x1="1346.59" y1="971" x2="1346.59" y2="975" style="fill:none; stroke:rgb(0,0,0); stroke-width:1; stroke-linecap:butt; stroke-linejoin:miter; stroke-dasharray:0; opacity:1" />
<text x="1370.12" y="984" font-family="Segoe UI" font-size="9pt" font-style="normal" font-weight="normal" text-decoration="none" text-anchor="middle" dominant-baseline="text-before-edge" fill="rgb(0,0,0)">
&#x32;&#x32;&#x30;
</text>
<line x1="1370.12" y1="971" x2="1370.12" y2="980" style="fill:none; stroke:rgb(0,0,0); stroke-width:1; stroke-linecap:butt; stroke-linejoin:miter; stroke-dasharray:0; opacity:1" />
<line x1="1393.65" y1="971" x2="1393.65" y2="975" style="fill:none; stroke:rgb(0,0,0); stroke-width:1; stroke-linecap:butt; stroke-linejoin:miter; stroke-dasharray:0; opacity:1" />
<line x1="1417.18" y1="971" x2="1417.18" y2="975" style="fill:none; stroke:rgb(0,0,0); stroke-width:1; stroke-linecap:butt; stroke-linejoin:miter; stroke-dasharray:0; opacity:1" />
<line x1="1440.71" y1="971" x2="1440.71" y2="975" style="fill:none; stroke:rgb(0,0,0); stroke-width:1; stroke-linecap:butt; stroke-linejoin:miter; stroke-dasharray:0; opacity:1" />
<line x1="1464.24" y1="971" x2="1464.24" y2="975" style="fill:none; stroke:rgb(0,0,0); stroke-width:1; stroke-linecap:butt; stroke-linejoin:miter; stroke-dasharray:0; opacity:1" />
<text x="1487.76" y="984" font-family="Segoe UI" font-size="9pt" font-style="normal" font-weight="normal" text-decoration="none" text-anchor="middle" dominant-baseline="text-before-edge" fill="rgb(0,0,0)">
&#x32;&#x34;&#x30;
</text>
<line x1="1487.76" y1="971" x2="1487.76" y2="980" style="fill:none; stroke:rgb(0,0,0); stroke-width:1; stroke-linecap:butt; stroke-linejoin:miter; stroke-dasharray:0; opacity:1" />
<line x1="1511.29" y1="971" x2="1511.29" y2="975" style="fill:none; stroke:rgb(0,0,0); stroke-width:1; stroke-linecap:butt; stroke-linejoin:miter; stroke-dasharray:0; opacity:1" />
<line x1="1534.82" y1="971" x2="1534.82" y2="975" style="fill:none; stroke:rgb(0,0,0); stroke-width:1; stroke-linecap:butt; stroke-linejoin:miter; stroke-dasharray:0; opacity:1" />
<line x1="1558.35" y1="971" x2="1558.35" y2="975" style="fill:none; stroke:rgb(0,0,0); stroke-width:1; stroke-linecap:butt; stroke-linejoin:miter; stroke-dasharray:0; opacity:1" />
<line x1="76" y1="971" x2="76" y2="28" style="fill:none; stroke:rgb(0,0,0); stroke-width:1; stroke-linecap:butt; stroke-linejoin:miter; stroke-dasharray:0; opacity:1" />
<line x1="76" y1="28" x2="76" y2="22" style="fill:none; stroke:rgb(0,0,0); stroke-width:1; stroke-linecap:butt; stroke-linejoin:miter; stroke-dasharray:0; opacity:1" />
<polygon style="fill:rgb(0,0,0); fill-rule:evenodd; stroke:none; opacity:1" points="76,22 72,26 80,26 " />
<text x="63" y="966.332" font-family="Segoe UI" font-size="9pt" font-style="normal" font-weight="normal" text-decoration="none" text-anchor="end" dominant-baseline="middle" fill="rgb(0,0,0)">
&#x2D;&#x31;&#x2E;&#x30;
</text>
<line x1="76" y1="966.332" x2="67" y2="966.332" style="fill:none; stroke:rgb(0,0,0); stroke-width:1; stroke-linecap:butt; stroke-linejoin:miter; stroke-dasharray:0; opacity:1" />
<line x1="76" y1="956.995" x2="72" y2="956.995" style="fill:none; stroke:rgb(0,0,0); stroke-width:1; stroke-linecap:butt; stroke-linejoin:miter; stroke-dasharray:0; opacity:1" />
<line x1="76" y1="947.658" x2="72" y2="947.658" style="fill:none; stroke:rgb(0,0,0); stroke-width:1; stroke-linecap:butt; stroke-linejoin:miter; stroke-dasharray:0; opacity:1" />
<line x1="76" y1="938.322" x2="72" y2="938.322" style="fill:none; stroke:rgb(0,0,0); stroke-width:1; stroke-linecap:butt; stroke-linejoin:miter; stroke-dasharray:0; opacity:1" />
<line x1="76" y1="928.985" x2="72" y2="928.985" style="fill:none; stroke:rgb(0,0,0); stroke-width:1; stroke-linecap:butt; stroke-linejoin:miter; stroke-dasharray:0; opacity:1" />
<text x="63" y="919.649" font-family="Segoe UI" font-size="9pt" font-style="normal" font-weight="normal" text-decoration="none" text-anchor="end" dominant-baseline="middle" fill="rgb(0,0,0)">
&#x2D;&#x30;&#x2E;&#x39;
</text>
<line x1="76" y1="919.649" x2="67" y2="919.649" style="fill:none; stroke:rgb(0,0,0); stroke-width:1; stroke-linecap:butt; stroke-linejoin:miter; stroke-dasharray:0; opacity:1" />
<line x1="76" y1="910.312" x2="72" y2="910.312" style="fill:none; stroke:rgb(0,0,0); stroke-width:1; stroke-linecap:butt; stroke-linejoin:miter; stroke-dasharray:0; opacity:1" />
<line x1="76" y1="900.975" x2="72" y2="900.975" style="fill:none; stroke:rgb(0,0,0); stroke-width:1; stroke-linecap:butt; stroke-linejoin:miter; stroke-dasharray:0; opacity:1" />
<line x1="76" y1="891.639" x2="72" y2="891.639" style="fill:none; stroke:rgb(0,0,0); stroke-width:1; stroke-linecap:butt; stroke-linejoin:miter; stroke-dasharray:0; opacity:1" />
<line x1="76" y1="882.302" x2="72" y2="882.302" style="fill:none; stroke:rgb(0,0,0); stroke-width:1; stroke-linecap:butt; stroke-linejoin:miter; stroke-dasharray:0; opacity:1" />
<text x="63" y="872.965" font-family="Segoe UI" font-size="9pt" font-style="normal" font-weight="normal" text-decoration="none" text-anchor="end" dominant-baseline="middle" fill="rgb(0,0,0)">
&#x2D;&#x30;&#x2E;&#x38;
</text>
<line x1="76" y1="872.965" x2="67" y2="872.965" style="fill:none; stroke:rgb(0,0,0); stroke-width:1; stroke-linecap:butt; stroke-linejoin:miter; stroke-dasharray:0; opacity:1" />
<line x1="76" y1="863.629" x2="72" y2="863.629" style="fill:none; stroke:rgb(0,0,0); stroke-width:1; stroke-linecap:butt; stroke-linejoin:miter; stroke-dasharray:0; opacity:1" />
<line x1="76" y1="854.292" x2="72" y2="854.292" style="fill:none; stroke:rgb(0,0,0); stroke-width:1; stroke-linecap:butt; stroke-linejoin:miter; stroke-dasharray:0; opacity:1" />
<line x1="76" y1="844.955" x2="72" y2="844.955" style="fill:none; stroke:rgb(0,0,0); stroke-width:1; stroke-linecap:butt; stroke-linejoin:miter; stroke-dasharray:0; opacity:1" />
<line x1="76" y1="835.619" x2="72" y2="835.619" style="fill:none; stroke:rgb(0,0,0); stroke-width:1; stroke-linecap:butt; stroke-linejoin:miter; stroke-dasharray:0; opacity:1" />
<text x="63" y="826.282" font-family="Segoe UI" font-size="9pt" font-style="normal" font-weight="normal" text-decoration="none" text-anchor="end" dominant-baseline="middle" fill="rgb(0,0,0)">
&#x2D;&#x30;&#x2E;&#x37;
</text>
<line x1="76" y1="826.282" x2="67" y2="826.282" style="fill:none; stroke:rgb(0,0,0); stroke-width:1; stroke-linecap:butt; stroke-linejoin:miter; stroke-dasharray:0; opacity:1" />
<line x1="76" y1="816.946" x2="72" y2="816.946" style="fill:none; stroke:rgb(0,0,0); stroke-width:1; stroke-linecap:butt; stroke-linejoin:miter; stroke-dasharray:0; opacity:1" />
<line x1="76" y1="807.609" x2="72" y2="807.609" style="fill:none; stroke:rgb(0,0,0); stroke-width:1; stroke-linecap:butt; stroke-linejoin:miter; stroke-dasharray:0; opacity:1" />
<line x1="76" y1="798.272" x2="72" y2="798.272" style="fill:none; stroke:rgb(0,0,0); stroke-width:1; stroke-linecap:butt; stroke-linejoin:miter; stroke-dasharray:0; opacity:1" />
<line x1="76" y1="788.936" x2="72" y2="788.936" style="fill:none; stroke:rgb(0,0,0); stroke-width:1; stroke-linecap:butt; stroke-linejoin:miter; stroke-dasharray:0; opacity:1" />
<text x="63" y="779.599" font-family="Segoe UI" font-size="9pt" font-style="normal" font-weight="normal" text-decoration="none" text-anchor="end" dominant-baseline="middle" fill="rgb(0,0,0)">
&#x2D;&#x30;&#x2E;&#x36;
</text>
<line x1="76" y1="779.599" x2="67" y2="779.599" style="fill:none; stroke:rgb(0,0,0); stroke-width:1; stroke-linecap:butt; stroke-linejoin:miter; stroke-dasharray:0; opacity:1" />
<line x1="76" y1="770.262" x2="72" y2="770.262" style="fill:none; stroke:rgb(0,0,0); stroke-width:1; stroke-linecap:butt; stroke-linejoin:miter; stroke-dasharray:0; opacity:1" />
<line x1="76" y1="760.926" x2="72" y2="760.926" style="fill:none; stroke:rgb(0,0,0); stroke-width:1; stroke-linecap:butt; stroke-linejoin:miter; stroke-dasharray:0; opacity:1" />
<line x1="76" y1="751.589" x2="72" y2="751.589" style="fill:none; stroke:rgb(0,0,0); stroke-width:1; stroke-linecap:butt; stroke-linejoin:miter; stroke-dasharray:0; opacity:1" />
<line x1="76" y1="742.252" x2="72" y2="742.252" style="fill:none; stroke:rgb(0,0,0); stroke-width:1; stroke-linecap:butt; stroke-linejoin:miter; stroke-dasharray:0; opacity:1" />
<text x="63" y="732.916" font-family="Segoe UI" font-size="9pt" font-style="normal" font-weight="normal" text-decoration="none" text-anchor="end" dominant-baseline="middle" fill="rgb(0,0,0)">
&#x2D;&#x30;&#x2E;&#x35;
</text>
<line x1="76" y1="732.916" x2="67" y2="732.916" style="fill:none; stroke:rgb(0,0,0); stroke-width:1; stroke-linecap:butt; stroke-linejoin:miter; stroke-dasharray:0; opacity:1" />
<line x1="76" y1="723.579" x2="72" y2="723.579" style="fill:none; stroke:rgb(0,0,0); stroke-width:1; stroke-linecap:butt; stroke-linejoin:miter; stroke-dasharray:0; opacity:1" />
<line x1="76" y1="714.243" x2="72" y2="714.243" style="fill:none; stroke:rgb(0,0,0); stroke-width:1; stroke-linecap:butt; stroke-linejoin:miter; stroke-dasharray:0; opacity:1" />
<line x1="76" y1="704.906" x2="72" y2="704.906" style="fill:none; stroke:rgb(0,0,0); stroke-width:1; stroke-linecap:butt; stroke-linejoin:miter; stroke-dasharray:0; opacity:1" />
<line x1="76" y1="695.569" x2="72" y2="695.569" style="fill:none; stroke:rgb(0,0,0); stroke-width:1; stroke-linecap:butt; stroke-linejoin:miter; stroke-dasharray:0; opacity:1" />
<text x="63" y="686.233" font-family="Segoe UI" font-size="9pt" font-style="normal" font-weight="normal" text-decoration="none" text-anchor="end" dominant-baseline="middle" fill="rgb(0,0,0)">
&#x2D;&#x30;&#x2E;&#x34;
</text>
<line x1="76" y1="686.233" x2="67" y2="686.233" style="fill:none; stroke:rgb(0,0,0); stroke-width:1; stroke-linecap:butt; stroke-linejoin:miter; stroke-dasharray:0; opacity:1" />
<line x1="76" y1="676.896" x2="72" y2="676.896" style="fill:none; stroke:rgb(0,0,0); stroke-width:1; stroke-linecap:butt; stroke-linejoin:miter; stroke-dasharray:0; opacity:1" />
<line x1="76" y1="667.559" x2="72" y2="667.559" style="fill:none; stroke:rgb(0,0,0); stroke-width:1; stroke-linecap:butt; stroke-linejoin:miter; stroke-dasharray:0; opacity:1" />
<line x1="76" y1="658.223" x2="72" y2="658.223" style="fill:none; stroke:rgb(0,0,0); stroke-width:1; stroke-linecap:butt; stroke-linejoin:miter; stroke-dasharray:0; opacity:1" />
<line x1="76" y1="648.886" x2="72" y2="648.886" style="fill:none; stroke:rgb(0,0,0); stroke-width:1; stroke-linecap:butt; stroke-linejoin:miter; stroke-dasharray:0; opacity:1" />
<text x="63" y="639.55" font-family="Segoe UI" font-size="9pt" font-style="normal" font-weight="normal" text-decoration="none" text-anchor="end" dominant-baseline="middle" fill="rgb(0,0,0)">
&#x2D;&#x30;&#x2E;&#x33;
</text>
<line x1="76" y1="639.55" x2="67" y2="639.55" style="fill:none; stroke:rgb(0,0,0); stroke-width:1; stroke-linecap:butt; stroke-linejoin:miter; stroke-dasharray:0; opacity:1" />
<line x1="76" y1="630.213" x2="72" y2="630.213" style="fill:none; stroke:rgb(0,0,0); stroke-width:1; stroke-linecap:butt; stroke-linejoin:miter; stroke-dasharray:0; opacity:1" />
<line x1="76" y1="620.876" x2="72" y2="620.876" style="fill:none; stroke:rgb(0,0,0); stroke-width:1; stroke-linecap:butt; stroke-linejoin:miter; stroke-dasharray:0; opacity:1" />
<line x1="76" y1="611.54" x2="72" y2="611.54" style="fill:none; stroke:rgb(0,0,0); stroke-width:1; stroke-linecap:butt; stroke-linejoin:miter; stroke-dasharray:0; opacity:1" />
<line x1="76" y1="602.203" x2="72" y2="602.203" style="fill:none; stroke:rgb(0,0,0); stroke-width:1; stroke-linecap:butt; stroke-linejoin:miter; stroke-dasharray:0; opacity:1" />
<text x="63" y="592.866" font-family="Segoe UI" font-size="9pt" font-style="normal" font-weight="normal" text-decoration="none" text-anchor="end" dominant-baseline="middle" fill="rgb(0,0,0)">
&#x2D;&#x30;&#x2E;&#x32;
</text>
<line x1="76" y1="592.866" x2="67" y2="592.866" style="fill:none; stroke:rgb(0,0,0); stroke-width:1; stroke-linecap:butt; stroke-linejoin:miter; stroke-dasharray:0; opacity:1" />
<line x1="76" y1="583.53" x2="72" y2="583.53" style="fill:none; stroke:rgb(0,0,0); stroke-width:1; stroke-linecap:butt; stroke-linejoin:miter; stroke-dasharray:0; opacity:1" />
<line x1="76" y1="574.193" x2="72" y2="574.193" style="fill:none; stroke:rgb(0,0,0); stroke-width:1; stroke-linecap:butt; stroke-linejoin:miter; stroke-dasharray:0; opacity:1" />
<line x1="76" y1="564.856" x2="72" y2="564.856" style="fill:none; stroke:rgb(0,0,0); stroke-width:1; stroke-linecap:butt; stroke-linejoin:miter; stroke-dasharray:0; opacity:1" />
<line x1="76" y1="555.52" x2="72" y2="555.52" style="fill:none; stroke:rgb(0,0,0); stroke-width:1; stroke-linecap:butt; stroke-linejoin:miter; stroke-dasharray:0; opacity:1" />
<text x="63" y="546.183" font-family="Segoe UI" font-size="9pt" font-style="normal" font-weight="normal" text-decoration="none" text-anchor="end" dominant-baseline="middle" fill="rgb(0,0,0)">
&#x2D;&#x30;&#x2E;&#x31;
</text>
<line x1="76" y1="546.183" x2="67" y2="546.183" style="fill:none; stroke:rgb(0,0,0); stroke-width:1; stroke-linecap:butt; stroke-linejoin:miter; stroke-dasharray:0; opacity:1" />
<line x1="76" y1="536.847" x2="72" y2="536.847" style="fill:none; stroke:rgb(0,0,0); stroke-width:1; stroke-linecap:butt; stroke-linejoin:miter; stroke-dasharray:0; opacity:1" />
<line x1="76" y1="527.51" x2="72" y2="527.51" style="fill:none; stroke:rgb(0,0,0); stroke-width:1; stroke-linecap:butt; stroke-linejoin:miter; stroke-dasharray:0; opacity:1" />
<line x1="76" y1="518.173" x2="72" y2="518.173" style="fill:none; stroke:rgb(0,0,0); stroke-width:1; stroke-linecap:butt; stroke-linejoin:miter; stroke-dasharray:0; opacity:1" />
<line x1="76" y1="508.837" x2="72" y2="508.837" style="fill:none; stroke:rgb(0,0,0); stroke-width:1; stroke-linecap:butt; stroke-linejoin:miter; stroke-dasharray:0; opacity:1" />
<text x="63" y="499.5" font-family="Segoe UI" font-size="9pt" font-style="normal" font-weight="normal" text-decoration="none" text-anchor="end" dominant-baseline="middle" fill="rgb(0,0,0)">
&#x30;&#x2E;&#x30;
</text>
<line x1="76" y1="499.5" x2="67" y2="499.5" style="fill:none; stroke:rgb(0,0,0); stroke-width:1; stroke-linecap:butt; stroke-linejoin:miter; stroke-dasharray:0; opacity:1" />
<line x1="76" y1="490.163" x2="72" y2="490.163" style="fill:none; stroke:rgb(0,0,0); stroke-width:1; stroke-linecap:butt; stroke-linejoin:miter; stroke-dasharray:0; opacity:1" />
<line x1="76" y1="480.827" x2="72" y2="480.827" style="fill:none; stroke:rgb(0,0,0); stroke-width:1; stroke-linecap:butt; stroke-linejoin:miter; stroke-dasharray:0; opacity:1" />
<line x1="76" y1="471.49" x2="72" y2="471.49" style="fill:none; stroke:rgb(0,0,0); stroke-width:1; stroke-linecap:butt; stroke-linejoin:miter; stroke-dasharray:0; opacity:1" />
<line x1="76" y1="462.153" x2="72" y2="462.153" style="fill:none; stroke:rgb(0,0,0); stroke-width:1; stroke-linecap:butt; stroke-linejoin:miter; stroke-dasharray:0; opacity:1" />
<text x="63" y="452.817" font-family="Segoe UI" font-size="9pt" font-style="normal" font-weight="normal" text-decoration="none" text-anchor="end" dominant-baseline="middle" fill="rgb(0,0,0)">
&#x30;&#x2E;&#x31;
</text>
<line x1="76" y1="452.817" x2="67" y2="452.817" style="fill:none; stroke:rgb(0,0,0); stroke-width:1; stroke-linecap:butt; stroke-linejoin:miter; stroke-dasharray:0; opacity:1" />
<line x1="76" y1="443.48" x2="72" y2="443.48" style="fill:none; stroke:rgb(0,0,0); stroke-width:1; stroke-linecap:butt; stroke-linejoin:miter; stroke-dasharray:0; opacity:1" />
<line x1="76" y1="434.144" x2="72" y2="434.144" style="fill:none; stroke:rgb(0,0,0); stroke-width:1; stroke-linecap:butt; stroke-linejoin:miter; stroke-dasharray:0; opacity:1" />
<line x1="76" y1="424.807" x2="72" y2="424.807" style="fill:none; stroke:rgb(0,0,0); stroke-width:1; stroke-linecap:butt; stroke-linejoin:miter; stroke-dasharray:0; opacity:1" />
<line x1="76" y1="415.47" x2="72" y2="415.47" style="fill:none; stroke:rgb(0,0,0); stroke-width:1; stroke-linecap:butt; stroke-linejoin:miter; stroke-dasharray:0; opacity:1" />
<text x="63" y="406.134" font-family="Segoe UI" font-size="9pt" font-style="normal" font-weight="normal" text-decoration="none" text-anchor="end" dominant-baseline="middle" fill="rgb(0,0,0)">
&#x30;&#x2E;&#x32;
</text>
<line x1="76" y1="406.134" x2="67" y2="406.134" style="fill:none; stroke:rgb(0,0,0); stroke-width:1; stroke-linecap:butt; stroke-linejoin:miter; stroke-dasharray:0; opacity:1" />
<line x1="76" y1="396.797" x2="72" y2="396.797" style="fill:none; stroke:rgb(0,0,0); stroke-width:1; stroke-linecap:butt; stroke-linejoin:miter; stroke-dasharray:0; opacity:1" />
<line x1="76" y1="387.46" x2="72" y2="387.46" style="fill:none; stroke:rgb(0,0,0); stroke-width:1; stroke-linecap:butt; stroke-linejoin:miter; stroke-dasharray:0; opacity:1" />
<line x1="76" y1="378.124" x2="72" y2="378.124" style="fill:none; stroke:rgb(0,0,0); stroke-width:1; stroke-linecap:butt; stroke-linejoin:miter; stroke-dasharray:0; opacity:1" />
<line x1="76" y1="368.787" x2="72" y2="368.787" style="fill:none; stroke:rgb(0,0,0); stroke-width:1; stroke-linecap:butt; stroke-linejoin:miter; stroke-dasharray:0; opacity:1" />
<text x="63" y="359.45" font-family="Segoe UI" font-size="9pt" font-style="normal" font-weight="normal" text-decoration="none" text-anchor="end" dominant-baseline="middle" fill="rgb(0,0,0)">
&#x30;&#x2E;&#x33;
</text>
<line x1="76" y1="359.45" x2="67" y2="359.45" style="fill:none; stroke:rgb(0,0,0); stroke-width:1; stroke-linecap:butt; stroke-linejoin:miter; stroke-dasharray:0; opacity:1" />
<line x1="76" y1="350.114" x2="72" y2="350.114" style="fill:none; stroke:rgb(0,0,0); stroke-width:1; stroke-linecap:butt; stroke-linejoin:miter; stroke-dasharray:0; opacity:1" />
<line x1="76" y1="340.777" x2="72" y2="340.777" style="fill:none; stroke:rgb(0,0,0); stroke-width:1; stroke-linecap:butt; stroke-linejoin:miter; stroke-dasharray:0; opacity:1" />
<line x1="76" y1="331.441" x2="72" y2="331.441" style="fill:none; stroke:rgb(0,0,0); stroke-width:1; stroke-linecap:butt; stroke-linejoin:miter; stroke-dasharray:0; opacity:1" />
<line x1="76" y1="322.104" x2="72" y2="322.104" style="fill:none; stroke:rgb(0,0,0); stroke-width:1; stroke-linecap:butt; stroke-linejoin:miter; stroke-dasharray:0; opacity:1" />
<text x="63" y="312.767" font-family="Segoe UI" font-size="9pt" font-style="normal" font-weight="normal" text-decoration="none" text-anchor="end" dominant-baseline="middle" fill="rgb(0,0,0)">
&#x30;&#x2E;&#x34;
</text>
<line x1="76" y1="312.767" x2="67" y2="312.767" style="fill:none; stroke:rgb(0,0,0); stroke-width:1; stroke-linecap:butt; stroke-linejoin:miter; stroke-dasharray:0; opacity:1" />
<line x1="76" y1="303.431" x2="72" y2="303.431" style="fill:none; stroke:rgb(0,0,0); stroke-width:1; stroke-linecap:butt; stroke-linejoin:miter; stroke-dasharray:0; opacity:1" />
<line x1="76" y1="294.094" x2="72" y2="294.094" style="fill:none; stroke:rgb(0,0,0); stroke-width:1; stroke-linecap:butt; stroke-linejoin:miter; stroke-dasharray:0; opacity:1" />
<line x1="76" y1="284.757" x2="72" y2="284.757" style="fill:none; stroke:rgb(0,0,0); stroke-width:1; stroke-linecap:butt; stroke-linejoin:miter; stroke-dasharray:0; opacity:1" />
<line x1="76" y1="275.421" x2="72" y2="275.421" style="fill:none; stroke:rgb(0,0,0); stroke-width:1; stroke-linecap:butt; stroke-linejoin:miter; stroke-dasharray:0; opacity:1" />
<text x="63" y="266.084" font-family="Segoe UI" font-size="9pt" font-style="normal" font-weight="normal" text-decoration="none" text-anchor="end" dominant-baseline="middle" fill="rgb(0,0,0)">
&#x30;&#x2E;&#x35;
</text>
<line x1="76" y1="266.084" x2="67" y2="266.084" style="fill:none; stroke:rgb(0,0,0); stroke-width:1; stroke-linecap:butt; stroke-linejoin:miter; stroke-dasharray:0; opacity:1" />
<line x1="76" y1="256.748" x2="72" y2="256.748" style="fill:none; stroke:rgb(0,0,0); stroke-width:1; stroke-linecap:butt; stroke-linejoin:miter; stroke-dasharray:0; opacity:1" />
<line x1="76" y1="247.411" x2="72" y2="247.411" style="fill:none; stroke:rgb(0,0,0); stroke-width:1; stroke-linecap:butt; stroke-linejoin:miter; stroke-dasharray:0; opacity:1" />
<line x1="76" y1="238.074" x2="72" y2="238.074" style="fill:none; stroke:rgb(0,0,0); stroke-width:1; stroke-linecap:butt; stroke-linejoin:miter; stroke-dasharray:0; opacity:1" />
<line x1="76" y1="228.738" x2="72" y2="228.738" style="fill:none; stroke:rgb(0,0,0); stroke-width:1; stroke-linecap:butt; stroke-linejoin:miter; stroke-dasharray:0; opacity:1" />
<text x="63" y="219.401" font-family="Segoe UI" font-size="9pt" font-style="normal" font-weight="normal" text-decoration="none" text-anchor="end" dominant-baseline="middle" fill="rgb(0,0,0)">
&#x30;&#x2E;&#x36;
</text>
<line x1="76" y1="219.401" x2="67" y2="219.401" style="fill:none; stroke:rgb(0,0,0); stroke-width:1; stroke-linecap:butt; stroke-linejoin:miter; stroke-dasharray:0; opacity:1" />
<line x1="76" y1="210.064" x2="72" y2="210.064" style="fill:none; stroke:rgb(0,0,0); stroke-width:1; stroke-linecap:butt; stroke-linejoin:miter; stroke-dasharray:0; opacity:1" />
<line x1="76" y1="200.728" x2="72" y2="200.728" style="fill:none; stroke:rgb(0,0,0); stroke-width:1; stroke-linecap:butt; stroke-linejoin:miter; stroke-dasharray:0; opacity:1" />
<line x1="76" y1="191.391" x2="72" y2="191.391" style="fill:none; stroke:rgb(0,0,0); stroke-width:1; stroke-linecap:butt; stroke-linejoin:miter; stroke-dasharray:0; opacity:1" />
<line x1="76" y1="182.054" x2="72" y2="182.054" style="fill:none; stroke:rgb(0,0,0); stroke-width:1; stroke-linecap:butt; stroke-linejoin:miter; stroke-dasharray:0; opacity:1" />
<text x="63" y="172.718" font-family="Segoe UI" font-size="9pt" font-style="normal" font-weight="normal" text-decoration="none" text-anchor="end" dominant-baseline="middle" fill="rgb(0,0,0)">
&#x30;&#x2E;&#x37;
</text>
<line x1="76" y1="172.718" x2="67" y2="172.718" style="fill:none; stroke:rgb(0,0,0); stroke-width:1; stroke-linecap:butt; stroke-linejoin:miter; stroke-dasharray:0; opacity:1" />
<line x1="76" y1="163.381" x2="72" y2="163.381" style="fill:none; stroke:rgb(0,0,0); stroke-width:1; stroke-linecap:butt; stroke-linejoin:miter; stroke-dasharray:0; opacity:1" />
<line x1="76" y1="154.045" x2="72" y2="154.045" style="fill:none; stroke:rgb(0,0,0); stroke-width:1; stroke-linecap:butt; stroke-linejoin:miter; stroke-dasharray:0; opacity:1" />
<line x1="76" y1="144.708" x2="72" y2="144.708" style="fill:none; stroke:rgb(0,0,0); stroke-width:1; stroke-linecap:butt; stroke-linejoin:miter; stroke-dasharray:0; opacity:1" />
<line x1="76" y1="135.371" x2="72" y2="135.371" style="fill:none; stroke:rgb(0,0,0); stroke-width:1; stroke-linecap:butt; stroke-linejoin:miter; stroke-dasharray:0; opacity:1" />
<text x="63" y="126.035" font-family="Segoe UI" font-size="9pt" font-style="normal" font-weight="normal" text-decoration="none" text-anchor="end" dominant-baseline="middle" fill="rgb(0,0,0)">
&#x30;&#x2E;&#x38;
</text>
<line x1="76" y1="126.035" x2="67" y2="126.035" style="fill:none; stroke:rgb(0,0,0); stroke-width:1; stroke-linecap:butt; stroke-linejoin:miter; stroke-dasharray:0; opacity:1" />
<line x1="76" y1="116.698" x2="72" y2="116.698" style="fill:none; stroke:rgb(0,0,0); stroke-width:1; stroke-linecap:butt; stroke-linejoin:miter; stroke-dasharray:0; opacity:1" />
<line x1="76" y1="107.361" x2="72" y2="107.361" style="fill:none; stroke:rgb(0,0,0); stroke-width:1; stroke-linecap:butt; stroke-linejoin:miter; stroke-dasharray:0; opacity:1" />
<line x1="76" y1="98.0248" x2="72" y2="98.0248" style="fill:none; stroke:rgb(0,0,0); stroke-width:1; stroke-linecap:butt; stroke-linejoin:miter; stroke-dasharray:0; opacity:1" />
<line x1="76" y1="88.6881" x2="72" y2="88.6881" style="fill:none; stroke:rgb(0,0,0); stroke-width:1; stroke-linecap:butt; stroke-linejoin:miter; stroke-dasharray:0; opacity:1" />
<text x="63" y="79.3515" font-family="Segoe UI" font-size="9pt" font-style="normal" font-weight="normal" text-decoration="none" text-anchor="end" dominant-baseline="middle" fill="rgb(0,0,0)">
&#x30;&#x2E;&#x39;
</text>
<line x1="76" y1="79.3515" x2="67" y2="79.3515" style="fill:none; stroke:rgb(0,0,0); stroke-width:1; stroke-linecap:butt; stroke-linejoin:miter; stroke-dasharray:0; opacity:1" />
<line x1="76" y1="70.0149" x2="72" y2="70.0149" style="fill:none; stroke:rgb(0,0,0); stroke-width:1; stroke-linecap:butt; stroke-linejoin:miter; stroke-dasharray:0; opacity:1" />
<line x1="76" y1="60.6782" x2="72" y2="60.6782" style="fill:none; stroke:rgb(0,0,0); stroke-width:1; stroke-linecap:butt; stroke-linejoin:miter; stroke-dasharray:0; opacity:1" />
<line x1="76" y1="51.3416" x2="72" y2="51.3416" style="fill:none; stroke:rgb(0,0,0); stroke-width:1; stroke-linecap:butt; stroke-linejoin:miter; stroke-dasharray:0; opacity:1" />
<line x1="76" y1="42.005" x2="72" y2="42.005" style="fill:none; stroke:rgb(0,0,0); stroke-width:1; stroke-linecap:butt; stroke-linejoin:miter; stroke-dasharray:0; opacity:1" />
<text x="63" y="32.6683" font-family="Segoe UI" font-size="9pt" font-style="normal" font-weight="normal" text-decoration="none" text-anchor="end" dominant-baseline="middle" fill="rgb(0,0,0)">
&#x31;&#x2E;&#x30;
</text>
<line x1="76" y1="32.6683" x2="67" y2="32.6683" style="fill:none; stroke:rgb(0,0,0); stroke-width:1; stroke-linecap:butt; stroke-linejoin:miter; stroke-dasharray:0; opacity:1" />
<clipPath id="cliprect0">
<rect x="76" y="29" width="1500" height="943" />
</clipPath>
</g>
<g clip-path="url(#cliprect0)">
<polyline style="fill:none; stroke:rgb(0,0,0); stroke-width:1; stroke-linecap:butt; stroke-linejoin:miter; stroke-dasharray:0; opacity:1" points="76,490.64 1576,490.64 " />
<polyline style="fill:none; stroke:rgb(204,170,0); stroke-width:1; stroke-linecap:butt; stroke-linejoin:miter; stroke-dasharray:0; opacity:1" points="76,515.866 81.8824,404.399 87.7647,317.508 93.6471,209.855 99.5294,221.799 105.412,256.259 111.294,236.945 117.176,120.209 123.059,154.03 128.941,140.975 134.824,45.1317 140.706,45.8487 146.588,44.3709 152.471,42.8932 158.353,60.0661 164.235,77.2391 170.118,94.4121 176,76.4453 181.882,58.4786 187.765,318.784 193.647,579.09 199.529,140.937 205.412,38.241 211.294,81.1545 217.176,124.068 223.059,183.136 228.941,183.225 234.824,183.314 240.706,183.403 246.588,153.256 252.471,123.109 258.353,92.9623 264.235,62.8153 270.118,32.6683 276,55.1606 281.882,77.6529 287.765,100.145 293.647,122.638 299.529,145.13 305.412,167.622 311.294,190.114 317.176,147.428 323.059,173.681 328.941,252.208 334.824,172.613 340.706,93.018 346.588,66.904 352.471,103.006 358.353,139.108 364.235,49.6091 370.118,247.304 376,123.955 381.882,139.085 387.765,154.214 393.647,169.344 399.529,246.94 405.412,324.536 411.294,402.133 417.176,455.261 423.059,394.035 428.941,398.231 434.824,411.515 440.706,414.132 446.588,412.815 452.471,328.342 458.353,417.402 464.235,376.171 470.118,424.656 476,391.536 481.882,472.473 487.765,451.832 493.647,463.889 499.529,461.956 505.412,356.219 511.294,459.933 517.176,421.009 523.059,463.157 528.941,459.02 534.824,463.9 540.706,414.78 546.588,417.935 552.471,452.087 558.353,330.746 564.235,441.81 570.118,344.987 576,378.821 581.882,276.71 587.765,434.901 593.647,255.196 599.529,300.109 605.412,183.971 611.294,256.116 617.176,47.6218 623.059,445.647 628.941,391.447 634.824,378.888 640.706,379.96 646.588,155.975 652.471,260.996 658.353,92.6969 664.235,268.238 670.118,270.476 676,118.358 681.882,275.932 687.765,200.403 693.647,258.034 699.529,201.925 705.412,275.197 711.294,338.414 717.176,402.389 723.059,376.222 728.941,200.253 734.824,401.04 740.706,257.841 746.588,257.002 752.471,315.362 758.353,326.632 764.235,317.202 770.118,264.403 776,310.808 781.882,320.289 787.765,258.93 793.647,444.809 799.529,467.95 805.412,540.829 811.294,441.807 817.176,389.644 823.059,444.374 828.941,415.983 834.824,476.6 840.706,432.006 846.588,472.649 852.471,466.893 858.353,495.321 864.235,505.454 870.118,494.874 876,481.682 881.882,447.713 887.765,486.537 893.647,426.115 899.529,337.228 905.412,325.743 911.294,395.862 917.176,476.334 923.059,408.796 928.941,475.997 934.824,374.81 940.706,395.358 946.588,421.497 952.471,474.184 958.353,437.345 964.235,400.081 970.118,460.921 976,448.428 981.882,446.481 987.765,413.734 993.647,451.947 999.529,440.913 1005.41,388.561 1011.29,450.529 1017.18,415.421 1023.06,395.534 1028.94,463.433 1034.82,432.583 1040.71,457.753 1046.59,491.602 1052.47,424.215 1058.35,494.936 1064.24,435.788 1070.12,473.762 1076,471.682 1081.88,485.987 1087.76,507.284 1093.65,462.885 1099.53,498.89 1105.41,489.004 1111.29,505.818 1117.18,494.736 1123.06,446.059 1128.94,455.894 1134.82,428.938 1140.71,443.529 1146.59,456.784 1152.47,397.491 1158.35,425.288 1164.24,421.712 1170.12,423.267 1176,387.661 1181.88,461.272 1187.76,437.738 1193.65,461.87 1199.53,408.889 1205.41,419.267 1211.29,424.116 1217.18,381.772 1223.06,393.895 1228.94,376.63 1234.82,394.59 1240.71,394.768 1246.59,490.808 1252.47,503.988 1258.35,515.233 1264.24,466.991 1270.12,432.067 1276,426.833 1281.88,535.404 1287.76,472.91 1293.65,428.905 1299.53,458.304 1305.41,451.9 1311.29,467.196 1317.18,492.934 1323.06,528.501 1328.94,428.845 1334.82,387.695 1340.71,335.943 1346.59,287.867 1352.47,310.158 1358.35,342.903 1364.24,390.323 1370.12,254.277 1376,298.654 1381.88,370.312 1387.76,426.418 1393.65,363.587 1399.53,300.756 1405.41,371.28 1411.29,286.959 1417.18,271.943 1423.06,355.445 1428.94,343.994 1434.82,309.896 1440.71,275.798 1446.59,296.335 1452.47,332.592 1458.35,337.043 1464.24,353.386 1470.12,300.295 1476,276.845 1481.88,321.276 1487.76,321.596 1493.65,362.553 1499.53,405.792 1505.41,392.853 1511.29,384.021 1517.18,387.448 1523.06,447.249 1528.94,470.091 1534.82,412.339 1540.71,502.953 1546.59,513.67 1552.47,508.029 1558.35,558.889 1564.24,550.383 1570.12,544.921 1576,510.291 " />
<polyline style="fill:none; stroke:rgb(204,0,0); stroke-width:1; stroke-linecap:butt; stroke-linejoin:miter; stroke-dasharray:0; opacity:1" points="76,499.5 81.8824,499.5 87.7647,414.465 93.6471,209.855 99.5294,414.465 105.412,499.5 111.294,388.146 117.176,120.209 123.059,388.146 128.941,366.105 134.824,45.1317 140.706,366.105 146.588,365.448 152.471,42.8932 158.353,365.448 164.235,499.5 170.118,499.5 176,370.023 181.882,58.4786 187.765,370.023 193.647,499.5 199.529,364.082 205.412,38.241 211.294,364.082 217.176,499.5 223.059,499.5 228.941,499.5 234.824,499.5 240.706,499.5 246.588,499.5 252.471,499.5 258.353,499.5 264.235,362.446 270.118,32.6683 276,362.446 281.882,499.5 287.765,499.5 293.647,499.5 299.529,499.5 305.412,499.5 311.294,396.138 317.176,147.428 323.059,396.138 328.941,499.5 334.824,499.5 340.706,372.497 346.588,66.904 352.471,372.497 358.353,367.419 364.235,49.6091 370.118,367.419 376,123.955 381.882,389.246 387.765,499.5 393.647,499.5 399.529,499.5 405.412,499.5 411.294,499.5 417.176,468.537 423.059,394.035 428.941,468.537 434.824,499.5 440.706,499.5 446.588,449.251 452.471,328.342 458.353,449.251 464.235,499.5 470.118,467.804 476,391.536 481.882,467.804 487.765,499.5 493.647,499.5 499.529,457.435 505.412,356.219 511.294,457.435 517.176,499.5 523.059,499.5 528.941,499.5 534.824,474.628 540.706,414.78 546.588,474.628 552.471,449.957 558.353,330.746 564.235,449.957 570.118,499.5 576,434.093 581.882,276.71 587.765,427.776 593.647,255.196 599.529,427.776 605.412,499.5 611.294,366.836 617.176,47.6218 623.059,366.836 628.941,499.5 634.824,499.5 640.706,398.647 646.588,155.975 652.471,380.069 658.353,92.6969 664.235,380.069 670.118,387.603 676,118.358 681.882,387.603 687.765,200.403 693.647,411.69 699.529,201.925 705.412,412.137 711.294,499.5 717.176,499.5 723.059,411.646 728.941,200.253 734.824,411.646 740.706,428.307 746.588,257.002 752.471,428.307 758.353,499.5 764.235,430.48 770.118,264.403 776,430.48 781.882,428.873 787.765,258.93 793.647,428.873 799.529,499.5 805.412,499.5 811.294,467.248 817.176,389.644 823.059,467.248 828.941,415.983 834.824,474.981 840.706,432.006 846.588,479.685 852.471,499.5 858.353,499.5 864.235,499.5 870.118,499.5 876,484.296 881.882,447.713 887.765,484.296 893.647,499.5 899.529,448.488 905.412,325.743 911.294,448.488 917.176,472.871 923.059,408.796 928.941,462.893 934.824,374.81 940.706,462.893 946.588,499.5 952.471,499.5 958.353,470.312 964.235,400.081 970.118,470.312 976,499.5 981.882,474.321 987.765,413.734 993.647,474.321 999.529,466.93 1005.41,388.561 1011.29,466.93 1017.18,468.977 1023.06,395.534 1028.94,468.977 1034.82,499.5 1040.71,499.5 1046.59,477.398 1052.47,424.215 1058.35,477.398 1064.24,435.788 1070.12,480.795 1076,499.5 1081.88,499.5 1087.76,488.75 1093.65,462.885 1099.53,488.75 1105.41,499.5 1111.29,499.5 1117.18,483.811 1123.06,446.059 1128.94,478.784 1134.82,428.938 1140.71,478.784 1146.59,469.552 1152.47,397.491 1158.35,469.552 1164.24,499.5 1170.12,466.666 1176,387.661 1181.88,466.666 1187.76,499.5 1193.65,472.898 1199.53,408.889 1205.41,472.898 1211.29,464.937 1217.18,381.772 1223.06,463.427 1228.94,376.63 1234.82,463.427 1240.71,499.5 1246.59,499.5 1252.47,499.5 1258.35,499.5 1264.24,499.5 1270.12,478.166 1276,426.833 1281.88,478.166 1287.76,478.774 1293.65,428.905 1299.53,478.774 1305.41,499.5 1311.29,499.5 1317.18,499.5 1323.06,499.5 1328.94,499.5 1334.82,499.5 1340.71,437.368 1346.59,287.867 1352.47,437.368 1358.35,499.5 1364.24,427.507 1370.12,254.277 1376,427.507 1381.88,499.5 1387.76,499.5 1393.65,441.152 1399.53,300.756 1405.41,441.152 1411.29,432.693 1417.18,271.943 1423.06,432.693 1428.94,499.5 1434.82,433.825 1440.71,275.798 1446.59,433.825 1452.47,499.5 1458.35,499.5 1464.24,499.5 1470.12,434.132 1476,276.845 1481.88,434.132 1487.76,499.5 1493.65,499.5 1499.53,499.5 1505.41,465.597 1511.29,384.021 1517.18,465.597 1523.06,499.5 1528.94,473.911 1534.82,412.339 1540.71,473.911 1546.59,499.5 1552.47,499.5 1558.35,499.5 1564.24,499.5 1570.12,499.5 1576,499.5 " />
<clipPath id="cliprect1">
<rect x="0" y="0" width="1618" height="1017" />
</clipPath>
</g>
<g clip-path="url(#cliprect1)">
</g>
</g>
</svg>
