<?xml version="1.0" encoding="UTF-8" standalone="no"?>
<svg
   xmlns:dc="http://purl.org/dc/elements/1.1/"
   xmlns:cc="http://creativecommons.org/ns#"
   xmlns:rdf="http://www.w3.org/1999/02/22-rdf-syntax-ns#"
   xmlns:svg="http://www.w3.org/2000/svg"
   xmlns="http://www.w3.org/2000/svg"
   xmlns:sodipodi="http://sodipodi.sourceforge.net/DTD/sodipodi-0.dtd"
   xmlns:inkscape="http://www.inkscape.org/namespaces/inkscape"
   width="1030.8pt"
   height="610.2pt"
   viewBox="0 0 1717 1017"
   version="1.1"
   id="svg5074"
   sodipodi:docname="temp.svg"
   inkscape:version="0.92.1 r15371">
  <metadata
     id="metadata5080">
    <rdf:RDF>
      <cc:Work
         rdf:about="">
        <dc:format>image/svg+xml</dc:format>
        <dc:type
           rdf:resource="http://purl.org/dc/dcmitype/StillImage" />
      </cc:Work>
    </rdf:RDF>
  </metadata>
  <defs
     id="defs5078" />
  <sodipodi:namedview
     pagecolor="#ffffff"
     bordercolor="#666666"
     borderopacity="1"
     objecttolerance="10"
     gridtolerance="10"
     guidetolerance="10"
     inkscape:pageopacity="0"
     inkscape:pageshadow="2"
     inkscape:window-width="1920"
     inkscape:window-height="1019"
     id="namedview5076"
     showgrid="false"
     showguides="true"
     inkscape:guide-bbox="true"
     inkscape:zoom="0.97836773"
     inkscape:cx="691.8748"
     inkscape:cy="395.09885"
     inkscape:window-x="-9"
     inkscape:window-y="-9"
     inkscape:window-maximized="1"
     inkscape:current-layer="g5123">
    <sodipodi:guide
       position="351.14599,328.35301"
       orientation="1,0"
       id="guide5082"
       inkscape:locked="false" />
    <sodipodi:guide
       position="389.45283,323.24245"
       orientation="1,0"
       id="guide5084"
       inkscape:locked="false" />
    <sodipodi:guide
       position="76.45545,349.44095"
       orientation="1,0"
       id="guide5086"
       inkscape:locked="false" />
    <sodipodi:guide
       position="878.50343,371.7927"
       orientation="1,0"
       id="guide5088"
       inkscape:locked="false" />
    <sodipodi:guide
       position="1016.408,306.63316"
       orientation="1,0"
       id="guide5090"
       inkscape:locked="false" />
    <sodipodi:guide
       position="1674.5248,517.49997"
       orientation="1,0"
       id="guide5092"
       inkscape:locked="false" />
    <sodipodi:guide
       position="702.29198,304.07788"
       orientation="1,0"
       id="guide5094"
       inkscape:locked="false" />
    <sodipodi:guide
       position="1348.4823,74.984408"
       orientation="1,0"
       id="guide5096"
       inkscape:locked="false" />
    <sodipodi:guide
       position="625.67831,986.33666"
       orientation="0,1"
       id="guide5100"
       inkscape:locked="false" />
    <sodipodi:guide
       position="739.32192,49.827888"
       orientation="0,1"
       id="guide5102"
       inkscape:locked="false" />
    <sodipodi:guide
       position="360.82172,533.24756"
       orientation="0,1"
       id="guide5127"
       inkscape:locked="false" />
    <sodipodi:guide
       position="406.07962,495.30364"
       orientation="0,1"
       id="guide5245"
       inkscape:locked="false" />
  </sodipodi:namedview>
  <g
     id="g5072">
    <pattern
       id="pattern0"
       patternUnits="userSpaceOnUse"
       x="0"
       y="0"
       width="7"
       height="7">
      <line
         x1="0"
         y1="3"
         x2="7"
         y2="3"
         style="fill:none; stroke:rgb(0,0,0); opacity:1"
         id="line4485" />
    </pattern>
    <g
       clip-path="url(#cliprect0)"
       id="g5068"
       style="stroke-width:4.99999977;stroke-miterlimit:4;stroke-dasharray:none">
      <polyline
         style="fill:none;stroke:rgb(20, 20, 200);stroke-width:4.99999977;stroke-linecap:butt;stroke-linejoin:miter;stroke-dasharray:none;opacity:1;stroke-miterlimit:4"
         points="76,496.638 82.2706,479.856 88.5412,463.797 94.8118,449.005 101.082,434.476 107.353,420.577 113.624,407.301 119.894,394.654 126.165,382.621 132.435,371.166 138.706,360.248 144.976,349.822 151.247,339.842 157.518,330.271 163.788,321.073 170.059,312.221 176.329,303.691 182.6,295.463 188.871,287.517 195.141,279.833 201.412,272.391 207.682,265.169 213.953,258.144 220.224,251.293 226.494,244.594 232.765,238.027 239.035,231.577 245.306,225.229 251.576,218.975 257.847,212.807 264.118,206.722 270.388,200.722 276.659,194.809 282.929,188.995 289.2,183.295 295.471,177.739 301.741,172.37 308.012,167.25 314.282,162.46 320.553,158.098 326.824,154.275 333.094,151.103 339.365,148.683 345.635,147.082 351.906,146.322 358.176,146.359 364.447,147.083 370.718,148.315 376.988,149.821 383.259,151.341 389.529,152.615 395.8,153.417 402.071,153.582 408.341,153.024 414.612,151.743 420.882,149.815 427.153,147.375 433.424,144.585 439.694,141.608 445.965,138.576 452.235,135.573 458.506,132.624 464.776,129.701 471.047,126.733 477.318,123.635 483.588,120.333 489.859,116.786 496.129,113.011 502.4,109.081 508.671,105.119 514.941,101.278 521.212,97.7109 527.482,94.5383 533.753,91.8223 540.024,89.5495 546.294,87.6293 552.565,85.9065 558.835,84.1877 565.106,82.2745 571.376,79.9983 577.647,77.2495 583.918,73.9947 590.188,70.2802 596.459,66.2204 602.729,61.9761 609,57.7261 615.271,53.6389 621.541,49.851 627.812,46.4536 634.082,43.4899 640.353,40.9624 646.624,38.8449 652.894,37.0976 659.165,35.68 665.435,34.559 671.706,33.7119 677.976,33.1239 684.247,32.7819 690.518,32.6683 696.788,32.7563 703.059,33.009 709.329,33.3839 715.6,33.8404 721.871,34.3496 728.141,34.9024 734.412,35.515 740.682,36.2271 746.953,37.096 753.224,38.1857 759.494,39.5543 765.765,41.2423 772.035,43.2643 778.306,45.6054 784.576,48.2217 790.847,51.0452 797.118,53.9911 803.388,56.967 809.659,59.8835 815.929,62.6654 822.2,65.2624 828.471,67.6587 834.741,69.8792 841.012,71.9906 847.282,74.0953 853.553,76.3205 859.824,78.8013 866.094,81.665 872.365,85.0166 878.635,88.9322 884.906,93.4599 891.176,98.6279 897.447,104.457 903.718,110.975 909.988,118.223 916.259,126.263 922.529,135.167 928.8,145.012 935.071,155.854 941.341,167.713 947.612,180.553 953.882,194.263 960.153,208.646 966.424,223.42 972.694,238.216 978.965,252.603 985.235,266.106 991.506,278.241 997.776,288.561 1004.05,296.686 1010.32,302.348 1016.59,305.412 1022.86,305.89 1029.13,303.933 1035.4,299.817 1041.67,293.906 1047.94,286.615 1054.21,278.373 1060.48,269.585 1066.75,260.61 1073.02,251.745 1079.29,243.216 1085.56,235.179 1091.84,227.731 1098.11,220.912 1104.38,214.72 1110.65,209.122 1116.92,204.064 1123.19,199.48 1129.46,195.308 1135.73,191.495 1142,188.005 1148.27,184.815 1154.54,181.919 1160.81,179.318 1167.08,177.01 1173.35,174.987 1179.62,173.224 1185.89,171.682 1192.16,170.31 1198.44,169.055 1204.71,167.868 1210.98,166.722 1217.25,165.612 1223.52,164.557 1229.79,163.6 1236.06,162.795 1242.33,162.193 1248.6,161.831 1254.87,161.725 1261.14,161.861 1267.41,162.196 1273.68,162.673 1279.95,163.223 1286.22,163.781 1292.49,164.302 1298.76,164.76 1305.04,165.164 1311.31,165.549 1317.58,165.977 1323.85,166.527 1330.12,167.29 1336.39,168.354 1342.66,169.798 1348.93,171.682 1355.2,174.036 1361.47,176.862 1367.74,180.126 1374.01,183.767 1380.28,187.697 1386.55,191.817 1392.82,196.026 1399.09,200.232 1405.36,204.363 1411.64,208.373 1417.91,212.242 1424.18,215.976 1430.45,219.6 1436.72,223.154 1442.99,226.68 1449.26,230.224 1455.53,233.824 1461.8,237.511 1468.07,241.311 1474.34,245.239 1480.61,249.306 1486.88,253.519 1493.15,257.883 1499.42,262.402 1505.69,267.084 1511.96,271.937 1518.24,276.971 1524.51,282.201 1530.78,287.64 1537.05,293.303 1543.32,299.199 1549.59,305.337 1555.86,311.721 1562.13,318.354 1568.4,325.238 1574.67,332.377 1580.94,339.782 1587.21,347.469 1593.48,355.462 1599.75,363.791 1606.02,372.491 1612.29,381.598 1618.56,391.146 1624.84,401.161 1631.11,411.658 1637.38,422.638 1643.65,434.084 1649.92,445.962 1656.19,458.242 1662.46,470.696 1668.73,483.845 1675,497.368 "
         id="polyline5059" />
      <polyline
         style="fill:none;stroke:rgb(20, 200, 20);stroke-width:4.99999977;stroke-linecap:butt;stroke-linejoin:miter;stroke-dasharray:none;opacity:1;stroke-miterlimit:4"
         points="76,476.151 82.2706,434.47 88.5412,398.853 94.8118,373.667 101.082,350.491 107.353,332.184 113.624,318.476 119.894,309.211 126.165,304.044 132.435,302.488 138.706,304.005 144.976,308.045 151.247,314.095 157.518,321.693 163.788,330.448 170.059,340.037 176.329,350.205 182.6,360.759 188.871,371.555 195.141,382.495 201.412,393.518 207.682,404.589 213.953,415.692 220.224,426.828 226.494,438.002 232.765,449.225 239.035,460.504 245.306,471.846 251.576,483.251 257.847,494.721 264.118,506.253 270.388,517.845 276.659,529.495 282.929,541.198 289.2,552.945 295.471,564.716 301.741,576.474 308.012,588.158 314.282,599.678 320.553,610.911 326.824,621.706 333.094,631.893 339.365,641.295 345.635,649.757 351.906,657.159 358.176,663.451 364.447,668.66 370.718,672.902 376.988,676.378 383.259,679.349 389.529,682.115 395.8,684.973 402.071,688.184 408.341,691.944 414.612,696.366 420.882,701.476 427.153,707.223 433.424,713.504 439.694,720.184 445.965,727.134 452.235,734.246 458.506,741.455 464.776,748.739 471.047,756.11 477.318,763.601 483.588,771.243 489.859,779.041 496.129,786.966 502.4,794.942 508.671,802.855 514.941,810.57 521.212,817.957 527.482,824.912 533.753,831.384 540.024,837.386 546.294,842.998 552.565,848.356 558.835,853.627 565.106,858.982 571.376,864.568 577.647,870.48 583.918,876.746 590.188,883.33 596.459,890.133 602.729,897.021 609,903.843 615.271,910.456 621.541,916.747 627.812,922.637 634.082,928.09 640.353,933.098 646.624,937.678 652.894,941.852 659.165,945.643 665.435,949.061 671.706,952.114 677.976,954.799 684.247,957.121 690.518,959.093 696.788,960.741 703.059,962.105 709.329,963.235 715.6,964.174 721.871,964.958 728.141,965.596 734.412,966.069 740.682,966.332 746.953,966.318 753.224,965.954 759.494,965.17 765.765,963.916 772.035,962.169 778.306,959.941 784.576,957.276 790.847,954.25 797.118,950.957 803.388,947.505 809.659,944.001 815.929,940.537 822.2,937.176 828.471,933.94 834.741,930.798 841.012,927.671 847.282,924.431 853.553,920.92 859.824,916.97 866.094,912.419 872.365,907.137 878.635,901.026 884.906,894.024 891.176,886.093 897.447,877.201 903.718,867.308 909.988,856.353 916.259,844.251 922.529,830.902 928.8,816.208 935.071,800.098 941.341,782.553 947.612,763.635 953.882,743.511 960.153,722.463 966.424,700.897 972.694,679.332 978.965,658.38 985.235,638.711 991.506,621.008 997.776,605.912 1004.05,593.965 1010.32,585.562 1016.59,580.915 1022.86,580.032 1029.13,582.723 1035.4,588.624 1041.67,597.24 1047.94,607.995 1054.21,620.284 1060.48,633.526 1066.75,647.193 1073.02,660.842 1079.29,674.119 1085.56,686.766 1091.84,698.611 1098.11,709.561 1104.38,719.588 1110.65,728.712 1116.92,736.991 1123.19,744.5 1129.46,751.321 1135.73,757.527 1142,763.176 1148.27,768.304 1154.54,772.928 1160.81,777.051 1167.08,780.671 1173.35,783.79 1179.62,786.423 1185.89,788.602 1192.16,790.373 1198.44,791.792 1204.71,792.915 1210.98,793.788 1217.25,794.44 1223.52,794.877 1229.79,795.084 1236.06,795.029 1242.33,794.673 1248.6,793.979 1254.87,792.922 1261.14,791.489 1267.41,789.686 1273.68,787.536 1279.95,785.067 1286.22,782.313 1292.49,779.305 1298.76,776.065 1305.04,772.607 1311.31,768.937 1317.58,765.053 1323.85,760.949 1330.12,756.622 1336.39,752.068 1342.66,747.289 1348.93,742.289 1355.2,737.075 1361.47,731.655 1367.74,726.033 1374.01,720.213 1380.28,714.195 1386.55,707.974 1392.82,701.543 1399.09,694.896 1405.36,688.026 1411.64,680.927 1417.91,673.596 1424.18,666.032 1430.45,658.24 1436.72,650.222 1442.99,641.985 1449.26,633.535 1455.53,624.878 1461.8,616.019 1468.07,606.961 1474.34,597.705 1480.61,588.254 1486.88,578.607 1493.15,568.768 1499.42,558.747 1505.69,548.557 1511.96,538.221 1518.24,527.767 1524.51,517.229 1530.78,506.639 1537.05,496.029 1543.32,485.423 1549.59,474.838 1555.86,464.287 1562.13,453.784 1568.4,443.355 1574.67,433.054 1580.94,422.973 1587.21,413.266 1593.48,404.156 1599.75,395.95 1606.02,389.043 1612.29,383.914 1618.56,381.112 1624.84,381.222 1631.11,384.825 1637.38,392.443 1643.65,404.451 1649.92,421.026 1656.19,442.447 1662.46,465.87 1668.73,499.684 1675,539.537 "
         id="polyline5061" />
      <clipPath
         id="cliprect1">
        <rect
           x="0"
           y="0"
           width="1717"
           height="1017"
           id="rect5065" />
      </clipPath>
    </g>
    <g
       clip-path="url(#cliprect1)"
       id="g5070" />
    <g
       id="g5123">
      <path
         inkscape:connector-curvature="0"
         id="path5098"
         d="M 1675,499.49999 H 65.539335"
         style="fill:none;stroke:#000000;stroke-width:1.67210937;stroke-linecap:butt;stroke-linejoin:miter;stroke-miterlimit:4;stroke-dasharray:none;stroke-opacity:1" />
      <path
         inkscape:connector-curvature="0"
         id="path5104"
         d="M 76,30.663337 V 967.17209"
         style="fill:none;stroke:#000000;stroke-width:1.66666663;stroke-linecap:butt;stroke-linejoin:miter;stroke-miterlimit:4;stroke-dasharray:none;stroke-opacity:1" />
      <path
         style="fill:none;stroke:#000000;stroke-width:1.47302938;stroke-linecap:butt;stroke-linejoin:miter;stroke-miterlimit:4;stroke-dasharray:none;stroke-opacity:1"
         d="M 350.85052,483.75241 V 515.1896"
         id="path5125"
         inkscape:connector-curvature="0" />
      <path
         style="fill:none;stroke:#000000;stroke-width:1.47302938;stroke-linecap:butt;stroke-linejoin:miter;stroke-miterlimit:4;stroke-dasharray:none;stroke-opacity:1"
         d="M 389.17966,483.75241 V 515.1896"
         id="path5125-2"
         inkscape:connector-curvature="0" />
      <path
         style="fill:none;stroke:#000000;stroke-width:1.47302938;stroke-linecap:butt;stroke-linejoin:miter;stroke-miterlimit:4;stroke-dasharray:none;stroke-opacity:1"
         d="M 702.20101,483.75241 V 515.1896"
         id="path5125-6"
         inkscape:connector-curvature="0" />
      <path
         style="fill:none;stroke:#000000;stroke-width:1.47302938;stroke-linecap:butt;stroke-linejoin:miter;stroke-miterlimit:4;stroke-dasharray:none;stroke-opacity:1"
         d="M 878.51508,483.75241 V 515.1896"
         id="path5125-9"
         inkscape:connector-curvature="0" />
      <path
         style="fill:none;stroke:#000000;stroke-width:1.47302938;stroke-linecap:butt;stroke-linejoin:miter;stroke-miterlimit:4;stroke-dasharray:none;stroke-opacity:1"
         d="M 1016.5,483.75241 V 515.1896"
         id="path5125-4"
         inkscape:connector-curvature="0" />
      <path
         style="fill:none;stroke:#000000;stroke-width:1.47302938;stroke-linecap:butt;stroke-linejoin:miter;stroke-miterlimit:4;stroke-dasharray:none;stroke-opacity:1"
         d="M 1348.7677,483.75241 V 515.1896"
         id="path5125-29"
         inkscape:connector-curvature="0" />
      <path
         style="fill:none;stroke:#000000;stroke-width:1.47302938;stroke-linecap:butt;stroke-linejoin:miter;stroke-miterlimit:4;stroke-dasharray:none;stroke-opacity:1"
         d="M 1675,483.75241 V 515.1896"
         id="path5125-7"
         inkscape:connector-curvature="0" />
      <text
         xml:space="preserve"
         style="font-style:normal;font-variant:normal;font-weight:normal;font-stretch:normal;font-size:23.33333229px;line-height:1.25;font-family:sans-serif;-inkscape-font-specification:'sans-serif, Normal';font-variant-ligatures:normal;font-variant-caps:normal;font-variant-numeric:normal;font-feature-settings:normal;text-align:start;letter-spacing:0px;word-spacing:0px;writing-mode:lr;text-anchor:start;fill:#000000;fill-opacity:1;stroke:none;stroke-width:1.24999988;"
         x="49.327911"
         y="530.21985"
         id="text5176"><tspan
           sodipodi:role="line"
           id="tspan5174"
           x="49.327911"
           y="530.21985"
           style="font-style:normal;font-variant:normal;font-weight:normal;font-stretch:normal;font-size:23.33333229px;font-family:sans-serif;-inkscape-font-specification:'sans-serif, Normal';font-variant-ligatures:normal;font-variant-caps:normal;font-variant-numeric:normal;font-feature-settings:normal;text-align:start;writing-mode:lr;text-anchor:start;stroke-width:1.24999988;">0</tspan></text>
      <text
         xml:space="preserve"
         style="font-style:normal;font-variant:normal;font-weight:normal;font-stretch:normal;font-size:23.33333229px;line-height:1.25;font-family:sans-serif;-inkscape-font-specification:'sans-serif, Normal';font-variant-ligatures:normal;font-variant-caps:normal;font-variant-numeric:normal;font-feature-settings:normal;text-align:start;letter-spacing:0px;word-spacing:0px;writing-mode:lr;text-anchor:start;fill:#000000;fill-opacity:1;stroke:none;stroke-width:1.24999988;"
         x="32.718605"
         y="42.161991"
         id="text5180"><tspan
           sodipodi:role="line"
           id="tspan5178"
           x="32.718605"
           y="42.161991"
           style="font-style:normal;font-variant:normal;font-weight:normal;font-stretch:normal;font-size:23.33333229px;font-family:sans-serif;-inkscape-font-specification:'sans-serif, Normal';font-variant-ligatures:normal;font-variant-caps:normal;font-variant-numeric:normal;font-feature-settings:normal;text-align:start;writing-mode:lr;text-anchor:start;stroke-width:1.24999988;">1</tspan></text>
      <text
         xml:space="preserve"
         style="font-style:normal;font-variant:normal;font-weight:normal;font-stretch:normal;font-size:23.33333229px;line-height:1.25;font-family:sans-serif;-inkscape-font-specification:'sans-serif, Normal';font-variant-ligatures:normal;font-variant-caps:normal;font-variant-numeric:normal;font-feature-settings:normal;text-align:start;letter-spacing:0px;word-spacing:0px;writing-mode:lr;text-anchor:start;fill:#000000;fill-opacity:1;stroke:none;stroke-width:1.24999988;"
         x="19.942225"
         y="976.11554"
         id="text5188"><tspan
           sodipodi:role="line"
           id="tspan5186"
           x="19.942225"
           y="976.11554"
           style="font-style:normal;font-variant:normal;font-weight:normal;font-stretch:normal;font-size:23.33333229px;font-family:sans-serif;-inkscape-font-specification:'sans-serif, Normal';font-variant-ligatures:normal;font-variant-caps:normal;font-variant-numeric:normal;font-feature-settings:normal;text-align:start;writing-mode:lr;text-anchor:start;stroke-width:1.24999988;">-1</tspan></text>
      <path
         style="fill:none;stroke:#000000;stroke-width:0.93686736px;stroke-linecap:butt;stroke-linejoin:miter;stroke-opacity:1"
         d="M 58.77515,967.17209 H 76"
         id="path5194"
         inkscape:connector-curvature="0" />
      <path
         style="fill:none;stroke:#000000;stroke-width:0.93686736px;stroke-linecap:butt;stroke-linejoin:miter;stroke-opacity:1"
         d="M 58.77515,30.663315 H 76"
         id="path5194-9"
         inkscape:connector-curvature="0" />
      <text
         xml:space="preserve"
         style="font-style:normal;font-variant:normal;font-weight:normal;font-stretch:normal;font-size:23.33333206px;line-height:1.25;font-family:sans-serif;-inkscape-font-specification:'sans-serif, Normal';font-variant-ligatures:normal;font-variant-caps:normal;font-variant-numeric:normal;font-feature-settings:normal;text-align:start;letter-spacing:0px;word-spacing:0px;writing-mode:lr-tb;text-anchor:start;fill:#000000;fill-opacity:1;stroke:none;stroke-width:1.24999988"
         x="336.36472"
         y="539.0083"
         id="text5219"><tspan
           sodipodi:role="line"
           id="tspan5217"
           x="336.36472"
           y="539.0083"
           style="font-style:normal;font-variant:normal;font-weight:normal;font-stretch:normal;font-size:23.33333206px;font-family:sans-serif;-inkscape-font-specification:'sans-serif, Normal';font-variant-ligatures:normal;font-variant-caps:normal;font-variant-numeric:normal;font-feature-settings:normal;text-align:start;writing-mode:lr-tb;text-anchor:start;stroke-width:1.24999988">44</tspan></text>
      <text
         xml:space="preserve"
         style="font-style:normal;font-variant:normal;font-weight:normal;font-stretch:normal;font-size:23.33333206px;line-height:1.25;font-family:sans-serif;-inkscape-font-specification:'sans-serif, Normal';font-variant-ligatures:normal;font-variant-caps:normal;font-variant-numeric:normal;font-feature-settings:normal;text-align:start;letter-spacing:0px;word-spacing:0px;writing-mode:lr-tb;text-anchor:start;fill:#000000;fill-opacity:1;stroke:none;stroke-width:1.24999988"
         x="374.5322"
         y="539.53748"
         id="text5223"><tspan
           sodipodi:role="line"
           id="tspan5221"
           x="374.5322"
           y="539.53748"
           style="font-style:normal;font-variant:normal;font-weight:normal;font-stretch:normal;font-size:23.33333206px;font-family:sans-serif;-inkscape-font-specification:'sans-serif, Normal';font-variant-ligatures:normal;font-variant-caps:normal;font-variant-numeric:normal;font-feature-settings:normal;text-align:start;writing-mode:lr-tb;text-anchor:start;stroke-width:1.24999988">50</tspan></text>
      <text
         xml:space="preserve"
         style="font-style:normal;font-variant:normal;font-weight:normal;font-stretch:normal;font-size:23.33333206px;line-height:1.25;font-family:sans-serif;-inkscape-font-specification:'sans-serif, Normal';font-variant-ligatures:normal;font-variant-caps:normal;font-variant-numeric:normal;font-feature-settings:normal;text-align:start;letter-spacing:0px;word-spacing:0px;writing-mode:lr-tb;text-anchor:start;fill:#000000;fill-opacity:1;stroke:none;stroke-width:1.24999988"
         x="679.44263"
         y="539.22083"
         id="text5227"><tspan
           sodipodi:role="line"
           id="tspan5225"
           x="679.44263"
           y="539.22083"
           style="font-style:normal;font-variant:normal;font-weight:normal;font-stretch:normal;font-size:23.33333206px;font-family:sans-serif;-inkscape-font-specification:'sans-serif, Normal';font-variant-ligatures:normal;font-variant-caps:normal;font-variant-numeric:normal;font-feature-settings:normal;text-align:start;writing-mode:lr-tb;text-anchor:start;stroke-width:1.24999988">100</tspan></text>
      <text
         xml:space="preserve"
         style="font-style:normal;font-variant:normal;font-weight:normal;font-stretch:normal;font-size:23.33333206px;line-height:1.25;font-family:sans-serif;-inkscape-font-specification:'sans-serif, Normal';font-variant-ligatures:normal;font-variant-caps:normal;font-variant-numeric:normal;font-feature-settings:normal;text-align:start;letter-spacing:0px;word-spacing:0px;writing-mode:lr-tb;text-anchor:start;fill:#000000;fill-opacity:1;stroke:none;stroke-width:1.24999988"
         x="856.58038"
         y="539.33826"
         id="text5231"><tspan
           sodipodi:role="line"
           id="tspan5229"
           x="856.58038"
           y="539.33826"
           style="font-style:normal;font-variant:normal;font-weight:normal;font-stretch:normal;font-size:23.33333206px;font-family:sans-serif;-inkscape-font-specification:'sans-serif, Normal';font-variant-ligatures:normal;font-variant-caps:normal;font-variant-numeric:normal;font-feature-settings:normal;text-align:start;writing-mode:lr-tb;text-anchor:start;stroke-width:1.24999988">128</tspan></text>
      <text
         xml:space="preserve"
         style="font-style:normal;font-variant:normal;font-weight:normal;font-stretch:normal;font-size:23.33333206px;line-height:1.25;font-family:sans-serif;-inkscape-font-specification:'sans-serif, Normal';font-variant-ligatures:normal;font-variant-caps:normal;font-variant-numeric:normal;font-feature-settings:normal;text-align:start;letter-spacing:0px;word-spacing:0px;writing-mode:lr-tb;text-anchor:start;fill:#000000;fill-opacity:1;stroke:none;stroke-width:1.24999988"
         x="993.76367"
         y="538.9574"
         id="text5235"><tspan
           sodipodi:role="line"
           id="tspan5233"
           x="993.76367"
           y="538.9574"
           style="font-style:normal;font-variant:normal;font-weight:normal;font-stretch:normal;font-size:23.33333206px;font-family:sans-serif;-inkscape-font-specification:'sans-serif, Normal';font-variant-ligatures:normal;font-variant-caps:normal;font-variant-numeric:normal;font-feature-settings:normal;text-align:start;writing-mode:lr-tb;text-anchor:start;stroke-width:1.24999988">150</tspan></text>
      <text
         xml:space="preserve"
         style="font-style:normal;font-variant:normal;font-weight:normal;font-stretch:normal;font-size:23.33333206px;line-height:1.25;font-family:sans-serif;-inkscape-font-specification:'sans-serif, Normal';font-variant-ligatures:normal;font-variant-caps:normal;font-variant-numeric:normal;font-feature-settings:normal;text-align:start;letter-spacing:0px;word-spacing:0px;writing-mode:lr-tb;text-anchor:start;fill:#000000;fill-opacity:1;stroke:none;stroke-width:1.24999988"
         x="1326.6982"
         y="538.95068"
         id="text5239"><tspan
           sodipodi:role="line"
           id="tspan5237"
           x="1326.6982"
           y="538.95068"
           style="font-style:normal;font-variant:normal;font-weight:normal;font-stretch:normal;font-size:23.33333206px;font-family:sans-serif;-inkscape-font-specification:'sans-serif, Normal';font-variant-ligatures:normal;font-variant-caps:normal;font-variant-numeric:normal;font-feature-settings:normal;text-align:start;writing-mode:lr-tb;text-anchor:start;stroke-width:1.24999988">203</tspan></text>
      <text
         xml:space="preserve"
         style="font-style:normal;font-variant:normal;font-weight:normal;font-stretch:normal;font-size:23.33333206px;line-height:1.25;font-family:sans-serif;-inkscape-font-specification:'sans-serif, Normal';font-variant-ligatures:normal;font-variant-caps:normal;font-variant-numeric:normal;font-feature-settings:normal;text-align:start;letter-spacing:0px;word-spacing:0px;writing-mode:lr-tb;text-anchor:start;fill:#000000;fill-opacity:1;stroke:none;stroke-width:1.24999988"
         x="1653.0184"
         y="538.74915"
         id="text5243"><tspan
           sodipodi:role="line"
           id="tspan5241"
           x="1653.0184"
           y="538.74915"
           style="font-style:normal;font-variant:normal;font-weight:normal;font-stretch:normal;font-size:23.33333206px;font-family:sans-serif;-inkscape-font-specification:'sans-serif, Normal';font-variant-ligatures:normal;font-variant-caps:normal;font-variant-numeric:normal;font-feature-settings:normal;text-align:start;writing-mode:lr-tb;text-anchor:start;stroke-width:1.24999988">255</tspan></text>
    </g>
  </g>
</svg>
