<?xml version="1.0" encoding="utf-8"?>
<!-- Generator: Adobe Illustrator 21.0.2, SVG Export Plug-In . SVG Version: 6.00 Build 0)  -->
<svg version="1.1" id="Camada_1" xmlns="http://www.w3.org/2000/svg" xmlns:xlink="http://www.w3.org/1999/xlink" x="0px" y="0px"
	 viewBox="0 0 502 199" style="enable-background:new 0 0 502 199;" xml:space="preserve">
<style type="text/css">
	.st0{fill:none;stroke:#000000;stroke-width:0.223;stroke-linecap:round;stroke-linejoin:round;stroke-miterlimit:10;}
	.st1{fill:none;stroke:#000000;stroke-width:0.893;stroke-linecap:round;stroke-linejoin:round;stroke-miterlimit:10;}
	.st2{font-family:'MyriadPro-Regular';}
	.st3{font-size:12px;}
</style>
<path class="st0" d="M110,158.3v-69 M108.6,90.3h2.8 M108.6,107.1h2.8 M108.6,123.8h2.8 M108.6,140.6h2.8 M54.1,157.3h111.7
	 M165,158.7v-2.8 M151.2,158.7v-2.8 M137.5,158.7v-2.8 M123.7,158.7v-2.8 M96.2,158.7v-2.8 M82.5,158.7v-2.8 M68.7,158.7v-2.8
	 M54.9,158.7v-2.8"/>
<polyline class="st1" points="54.9,157.3 110,157.3 110,90.3 165,90.3 "/>
<path d="M171.4,120.9l1.2-2.1l-2.2-1c0,0-0.1-0.1-0.1-0.1c0-0.1,0.1-0.1,0.1-0.1l2.4,0.5l0.3-2.4c0,0,0.1-0.1,0.1-0.1
	c0,0,0.1,0,0.1,0.1l0.3,2.4l2.4-0.5c0.1,0,0.1,0.1,0.1,0.1c0,0,0,0.1-0.1,0.1l-2.2,1l1.2,2.1c0,0,0,0,0,0.1c0,0.1-0.1,0.1-0.1,0.1
	c0,0-0.1,0-0.1,0l-1.7-1.8l-1.7,1.8c0,0,0,0-0.1,0C171.4,121,171.4,121,171.4,120.9C171.4,120.9,171.4,120.9,171.4,120.9z"/>
<path class="st0" d="M240.3,158.3v-69 M238.9,90.3h2.8 M238.9,107.1h2.8 M238.9,123.8h2.8 M238.9,140.6h2.8 M184.5,157.3h111.7
	 M293.5,158.7v-2.8 M280.2,158.7v-2.8 M266.9,158.7v-2.8 M253.6,158.7v-2.8 M227,158.7v-2.8 M213.7,158.7v-2.8 M200.4,158.7v-2.8
	 M187.1,158.7v-2.8"/>
<polyline class="st1" points="187.1,157.3 188.2,157.3 189.3,157.3 190.4,157.3 191.5,157.3 192.6,157.2 193.6,157.2 194.7,157.2 
	195.8,157.1 196.9,157.1 198,157 199.1,156.9 200.2,156.8 201.2,156.6 202.3,156.4 203.4,156.2 204.5,155.9 206.7,155.2 
	208.8,154.1 211,152.6 213.2,150.7 215.3,148.1 217.5,145 219.7,141.2 221.9,136.9 224,132 226.2,126.8 228.4,121.5 230.5,116.4 
	232.7,111.8 234.9,108 236,106.5 237.1,105.3 237.6,104.8 238.1,104.4 238.7,104.1 239,104 239.2,103.9 239.5,103.8 239.6,103.8 
	239.8,103.8 239.9,103.7 240,103.7 240,103.7 240.1,103.7 240.2,103.7 240.2,103.7 240.3,103.7 240.4,103.7 240.4,103.7 "/>
<polyline class="st1" points="240.4,103.7 240.5,103.7 240.6,103.7 240.6,103.7 240.7,103.7 240.9,103.8 241,103.8 241.1,103.8 
	241.4,103.9 241.7,104 241.9,104.1 242.5,104.4 243.6,105.3 244.7,106.5 245.7,108 247.9,111.8 250.1,116.4 252.3,121.5 
	254.4,126.8 256.6,132 258.8,136.9 260.9,141.2 263.1,145 265.3,148.1 267.4,150.7 269.6,152.6 271.8,154.1 274,155.2 275,155.6 
	276.1,155.9 277.2,156.2 278.3,156.4 279.4,156.6 280.5,156.8 281.6,156.9 282.6,157 283.7,157.1 284.8,157.1 285.9,157.2 
	287,157.2 288.1,157.2 289.2,157.3 290.2,157.3 291.3,157.3 292.4,157.3 293.5,157.3 "/>
<path class="st0" d="M373.8,158.3v-69 M372.5,90.3h2.8 M372.5,107.1h2.8 M372.5,123.8h2.8 M372.5,140.6h2.8 M318,157.3h111.7
	 M427,158.7v-2.8 M413.7,158.7v-2.8 M400.4,158.7v-2.8 M387.1,158.7v-2.8 M360.6,158.7v-2.8 M347.3,158.7v-2.8 M334,158.7v-2.8
	 M320.7,158.7v-2.8"/>
<polyline class="st1" points="320.7,157.3 321.8,157.3 322.8,157.3 323.9,157.3 325,157.3 326.1,157.3 327.2,157.3 328.3,157.3 
	329.3,157.3 330.4,157.3 331.5,157.3 332.6,157.3 333.7,157.2 334.8,157.2 335.9,157.2 336.9,157.1 338,157.1 339.1,157 
	340.2,156.9 341.3,156.9 342.4,156.7 343.5,156.6 344.5,156.4 346.7,155.9 348.9,155.3 351.1,154.4 353.2,153.3 355.4,151.8 
	357.6,149.9 359.7,147.7 361.9,145 364.1,141.8 366.3,138.3 368.4,134.4 370.6,130.3 372.8,126 374.9,121.6 377.1,117.3 
	379.3,113.2 381.4,109.3 383.6,105.8 385.8,102.7 388,100 390.1,97.7 392.3,95.9 394.5,94.4 396.6,93.2 398.8,92.3 401,91.7 
	402.1,91.5 "/>
<polyline class="st1" points="402.1,91.5 403.2,91.2 404.2,91.1 405.3,90.9 406.4,90.8 407.5,90.7 408.6,90.6 409.7,90.6 
	410.8,90.5 411.8,90.5 412.9,90.4 414,90.4 415.1,90.4 416.2,90.4 417.3,90.4 418.3,90.3 419.4,90.3 420.5,90.3 422.7,90.3 
	423.8,90.3 424.9,90.3 425.9,90.3 427,90.3 "/>
<text transform="matrix(1 0 0 1 304.4452 121.0411)" class="st2 st3">=</text>
</svg>
