<?xml version="1.0" encoding="UTF-8"?>
<svg xmlns="http://www.w3.org/2000/svg" xmlns:xlink="http://www.w3.org/1999/xlink" width="970.801pt" height="610.2pt" viewBox="0 0 1618 1017" version="1.1">
<g>
<pattern id="pattern0" patternUnits="userSpaceOnUse" x="0" y="0" width="7" height="7">
<line x1="0" y1="3" x2="7" y2="3" style="fill:none; stroke:rgb(0,0,0); opacity:1" />
</pattern>
<rect x="0" y="0" width="1617" height="1016" style="fill:rgb(255,255,255); stroke:none; opacity:1" />
<g clip-path="url(#cliprect-1)">
<line x1="76" y1="971" x2="1576" y2="971" style="fill:none; stroke:rgb(0,0,0); stroke-width:1; stroke-linecap:butt; stroke-linejoin:miter; stroke-dasharray:0; opacity:1" />
<line x1="1576" y1="971" x2="1582" y2="971" style="fill:none; stroke:rgb(0,0,0); stroke-width:1; stroke-linecap:butt; stroke-linejoin:miter; stroke-dasharray:0; opacity:1" />
<polygon style="fill:rgb(0,0,0); fill-rule:evenodd; stroke:none; opacity:1" points="1582,971 1578,975 1578,967 " />
<text x="76" y="984" font-family="Segoe UI" font-size="9pt" font-style="normal" font-weight="normal" text-decoration="none" text-anchor="middle" dominant-baseline="text-before-edge" fill="rgb(0,0,0)">
&#x30;
</text>
<line x1="76" y1="971" x2="76" y2="980" style="fill:none; stroke:rgb(0,0,0); stroke-width:1; stroke-linecap:butt; stroke-linejoin:miter; stroke-dasharray:0; opacity:1" />
<line x1="99.5294" y1="971" x2="99.5294" y2="975" style="fill:none; stroke:rgb(0,0,0); stroke-width:1; stroke-linecap:butt; stroke-linejoin:miter; stroke-dasharray:0; opacity:1" />
<line x1="123.059" y1="971" x2="123.059" y2="975" style="fill:none; stroke:rgb(0,0,0); stroke-width:1; stroke-linecap:butt; stroke-linejoin:miter; stroke-dasharray:0; opacity:1" />
<line x1="146.588" y1="971" x2="146.588" y2="975" style="fill:none; stroke:rgb(0,0,0); stroke-width:1; stroke-linecap:butt; stroke-linejoin:miter; stroke-dasharray:0; opacity:1" />
<line x1="170.118" y1="971" x2="170.118" y2="975" style="fill:none; stroke:rgb(0,0,0); stroke-width:1; stroke-linecap:butt; stroke-linejoin:miter; stroke-dasharray:0; opacity:1" />
<text x="193.647" y="984" font-family="Segoe UI" font-size="9pt" font-style="normal" font-weight="normal" text-decoration="none" text-anchor="middle" dominant-baseline="text-before-edge" fill="rgb(0,0,0)">
&#x32;&#x30;
</text>
<line x1="193.647" y1="971" x2="193.647" y2="980" style="fill:none; stroke:rgb(0,0,0); stroke-width:1; stroke-linecap:butt; stroke-linejoin:miter; stroke-dasharray:0; opacity:1" />
<line x1="217.176" y1="971" x2="217.176" y2="975" style="fill:none; stroke:rgb(0,0,0); stroke-width:1; stroke-linecap:butt; stroke-linejoin:miter; stroke-dasharray:0; opacity:1" />
<line x1="240.706" y1="971" x2="240.706" y2="975" style="fill:none; stroke:rgb(0,0,0); stroke-width:1; stroke-linecap:butt; stroke-linejoin:miter; stroke-dasharray:0; opacity:1" />
<line x1="264.235" y1="971" x2="264.235" y2="975" style="fill:none; stroke:rgb(0,0,0); stroke-width:1; stroke-linecap:butt; stroke-linejoin:miter; stroke-dasharray:0; opacity:1" />
<line x1="287.765" y1="971" x2="287.765" y2="975" style="fill:none; stroke:rgb(0,0,0); stroke-width:1; stroke-linecap:butt; stroke-linejoin:miter; stroke-dasharray:0; opacity:1" />
<text x="311.294" y="984" font-family="Segoe UI" font-size="9pt" font-style="normal" font-weight="normal" text-decoration="none" text-anchor="middle" dominant-baseline="text-before-edge" fill="rgb(0,0,0)">
&#x34;&#x30;
</text>
<line x1="311.294" y1="971" x2="311.294" y2="980" style="fill:none; stroke:rgb(0,0,0); stroke-width:1; stroke-linecap:butt; stroke-linejoin:miter; stroke-dasharray:0; opacity:1" />
<line x1="334.824" y1="971" x2="334.824" y2="975" style="fill:none; stroke:rgb(0,0,0); stroke-width:1; stroke-linecap:butt; stroke-linejoin:miter; stroke-dasharray:0; opacity:1" />
<line x1="358.353" y1="971" x2="358.353" y2="975" style="fill:none; stroke:rgb(0,0,0); stroke-width:1; stroke-linecap:butt; stroke-linejoin:miter; stroke-dasharray:0; opacity:1" />
<line x1="381.882" y1="971" x2="381.882" y2="975" style="fill:none; stroke:rgb(0,0,0); stroke-width:1; stroke-linecap:butt; stroke-linejoin:miter; stroke-dasharray:0; opacity:1" />
<line x1="405.412" y1="971" x2="405.412" y2="975" style="fill:none; stroke:rgb(0,0,0); stroke-width:1; stroke-linecap:butt; stroke-linejoin:miter; stroke-dasharray:0; opacity:1" />
<text x="428.941" y="984" font-family="Segoe UI" font-size="9pt" font-style="normal" font-weight="normal" text-decoration="none" text-anchor="middle" dominant-baseline="text-before-edge" fill="rgb(0,0,0)">
&#x36;&#x30;
</text>
<line x1="428.941" y1="971" x2="428.941" y2="980" style="fill:none; stroke:rgb(0,0,0); stroke-width:1; stroke-linecap:butt; stroke-linejoin:miter; stroke-dasharray:0; opacity:1" />
<line x1="452.471" y1="971" x2="452.471" y2="975" style="fill:none; stroke:rgb(0,0,0); stroke-width:1; stroke-linecap:butt; stroke-linejoin:miter; stroke-dasharray:0; opacity:1" />
<line x1="476" y1="971" x2="476" y2="975" style="fill:none; stroke:rgb(0,0,0); stroke-width:1; stroke-linecap:butt; stroke-linejoin:miter; stroke-dasharray:0; opacity:1" />
<line x1="499.529" y1="971" x2="499.529" y2="975" style="fill:none; stroke:rgb(0,0,0); stroke-width:1; stroke-linecap:butt; stroke-linejoin:miter; stroke-dasharray:0; opacity:1" />
<line x1="523.059" y1="971" x2="523.059" y2="975" style="fill:none; stroke:rgb(0,0,0); stroke-width:1; stroke-linecap:butt; stroke-linejoin:miter; stroke-dasharray:0; opacity:1" />
<text x="546.588" y="984" font-family="Segoe UI" font-size="9pt" font-style="normal" font-weight="normal" text-decoration="none" text-anchor="middle" dominant-baseline="text-before-edge" fill="rgb(0,0,0)">
&#x38;&#x30;
</text>
<line x1="546.588" y1="971" x2="546.588" y2="980" style="fill:none; stroke:rgb(0,0,0); stroke-width:1; stroke-linecap:butt; stroke-linejoin:miter; stroke-dasharray:0; opacity:1" />
<line x1="570.118" y1="971" x2="570.118" y2="975" style="fill:none; stroke:rgb(0,0,0); stroke-width:1; stroke-linecap:butt; stroke-linejoin:miter; stroke-dasharray:0; opacity:1" />
<line x1="593.647" y1="971" x2="593.647" y2="975" style="fill:none; stroke:rgb(0,0,0); stroke-width:1; stroke-linecap:butt; stroke-linejoin:miter; stroke-dasharray:0; opacity:1" />
<line x1="617.176" y1="971" x2="617.176" y2="975" style="fill:none; stroke:rgb(0,0,0); stroke-width:1; stroke-linecap:butt; stroke-linejoin:miter; stroke-dasharray:0; opacity:1" />
<line x1="640.706" y1="971" x2="640.706" y2="975" style="fill:none; stroke:rgb(0,0,0); stroke-width:1; stroke-linecap:butt; stroke-linejoin:miter; stroke-dasharray:0; opacity:1" />
<text x="664.235" y="984" font-family="Segoe UI" font-size="9pt" font-style="normal" font-weight="normal" text-decoration="none" text-anchor="middle" dominant-baseline="text-before-edge" fill="rgb(0,0,0)">
&#x31;&#x30;&#x30;
</text>
<line x1="664.235" y1="971" x2="664.235" y2="980" style="fill:none; stroke:rgb(0,0,0); stroke-width:1; stroke-linecap:butt; stroke-linejoin:miter; stroke-dasharray:0; opacity:1" />
<line x1="687.765" y1="971" x2="687.765" y2="975" style="fill:none; stroke:rgb(0,0,0); stroke-width:1; stroke-linecap:butt; stroke-linejoin:miter; stroke-dasharray:0; opacity:1" />
<line x1="711.294" y1="971" x2="711.294" y2="975" style="fill:none; stroke:rgb(0,0,0); stroke-width:1; stroke-linecap:butt; stroke-linejoin:miter; stroke-dasharray:0; opacity:1" />
<line x1="734.824" y1="971" x2="734.824" y2="975" style="fill:none; stroke:rgb(0,0,0); stroke-width:1; stroke-linecap:butt; stroke-linejoin:miter; stroke-dasharray:0; opacity:1" />
<line x1="758.353" y1="971" x2="758.353" y2="975" style="fill:none; stroke:rgb(0,0,0); stroke-width:1; stroke-linecap:butt; stroke-linejoin:miter; stroke-dasharray:0; opacity:1" />
<text x="781.882" y="984" font-family="Segoe UI" font-size="9pt" font-style="normal" font-weight="normal" text-decoration="none" text-anchor="middle" dominant-baseline="text-before-edge" fill="rgb(0,0,0)">
&#x31;&#x32;&#x30;
</text>
<line x1="781.882" y1="971" x2="781.882" y2="980" style="fill:none; stroke:rgb(0,0,0); stroke-width:1; stroke-linecap:butt; stroke-linejoin:miter; stroke-dasharray:0; opacity:1" />
<line x1="805.412" y1="971" x2="805.412" y2="975" style="fill:none; stroke:rgb(0,0,0); stroke-width:1; stroke-linecap:butt; stroke-linejoin:miter; stroke-dasharray:0; opacity:1" />
<line x1="828.941" y1="971" x2="828.941" y2="975" style="fill:none; stroke:rgb(0,0,0); stroke-width:1; stroke-linecap:butt; stroke-linejoin:miter; stroke-dasharray:0; opacity:1" />
<line x1="852.471" y1="971" x2="852.471" y2="975" style="fill:none; stroke:rgb(0,0,0); stroke-width:1; stroke-linecap:butt; stroke-linejoin:miter; stroke-dasharray:0; opacity:1" />
<line x1="876" y1="971" x2="876" y2="975" style="fill:none; stroke:rgb(0,0,0); stroke-width:1; stroke-linecap:butt; stroke-linejoin:miter; stroke-dasharray:0; opacity:1" />
<text x="899.529" y="984" font-family="Segoe UI" font-size="9pt" font-style="normal" font-weight="normal" text-decoration="none" text-anchor="middle" dominant-baseline="text-before-edge" fill="rgb(0,0,0)">
&#x31;&#x34;&#x30;
</text>
<line x1="899.529" y1="971" x2="899.529" y2="980" style="fill:none; stroke:rgb(0,0,0); stroke-width:1; stroke-linecap:butt; stroke-linejoin:miter; stroke-dasharray:0; opacity:1" />
<line x1="923.059" y1="971" x2="923.059" y2="975" style="fill:none; stroke:rgb(0,0,0); stroke-width:1; stroke-linecap:butt; stroke-linejoin:miter; stroke-dasharray:0; opacity:1" />
<line x1="946.588" y1="971" x2="946.588" y2="975" style="fill:none; stroke:rgb(0,0,0); stroke-width:1; stroke-linecap:butt; stroke-linejoin:miter; stroke-dasharray:0; opacity:1" />
<line x1="970.118" y1="971" x2="970.118" y2="975" style="fill:none; stroke:rgb(0,0,0); stroke-width:1; stroke-linecap:butt; stroke-linejoin:miter; stroke-dasharray:0; opacity:1" />
<line x1="993.647" y1="971" x2="993.647" y2="975" style="fill:none; stroke:rgb(0,0,0); stroke-width:1; stroke-linecap:butt; stroke-linejoin:miter; stroke-dasharray:0; opacity:1" />
<text x="1017.18" y="984" font-family="Segoe UI" font-size="9pt" font-style="normal" font-weight="normal" text-decoration="none" text-anchor="middle" dominant-baseline="text-before-edge" fill="rgb(0,0,0)">
&#x31;&#x36;&#x30;
</text>
<line x1="1017.18" y1="971" x2="1017.18" y2="980" style="fill:none; stroke:rgb(0,0,0); stroke-width:1; stroke-linecap:butt; stroke-linejoin:miter; stroke-dasharray:0; opacity:1" />
<line x1="1040.71" y1="971" x2="1040.71" y2="975" style="fill:none; stroke:rgb(0,0,0); stroke-width:1; stroke-linecap:butt; stroke-linejoin:miter; stroke-dasharray:0; opacity:1" />
<line x1="1064.24" y1="971" x2="1064.24" y2="975" style="fill:none; stroke:rgb(0,0,0); stroke-width:1; stroke-linecap:butt; stroke-linejoin:miter; stroke-dasharray:0; opacity:1" />
<line x1="1087.76" y1="971" x2="1087.76" y2="975" style="fill:none; stroke:rgb(0,0,0); stroke-width:1; stroke-linecap:butt; stroke-linejoin:miter; stroke-dasharray:0; opacity:1" />
<line x1="1111.29" y1="971" x2="1111.29" y2="975" style="fill:none; stroke:rgb(0,0,0); stroke-width:1; stroke-linecap:butt; stroke-linejoin:miter; stroke-dasharray:0; opacity:1" />
<text x="1134.82" y="984" font-family="Segoe UI" font-size="9pt" font-style="normal" font-weight="normal" text-decoration="none" text-anchor="middle" dominant-baseline="text-before-edge" fill="rgb(0,0,0)">
&#x31;&#x38;&#x30;
</text>
<line x1="1134.82" y1="971" x2="1134.82" y2="980" style="fill:none; stroke:rgb(0,0,0); stroke-width:1; stroke-linecap:butt; stroke-linejoin:miter; stroke-dasharray:0; opacity:1" />
<line x1="1158.35" y1="971" x2="1158.35" y2="975" style="fill:none; stroke:rgb(0,0,0); stroke-width:1; stroke-linecap:butt; stroke-linejoin:miter; stroke-dasharray:0; opacity:1" />
<line x1="1181.88" y1="971" x2="1181.88" y2="975" style="fill:none; stroke:rgb(0,0,0); stroke-width:1; stroke-linecap:butt; stroke-linejoin:miter; stroke-dasharray:0; opacity:1" />
<line x1="1205.41" y1="971" x2="1205.41" y2="975" style="fill:none; stroke:rgb(0,0,0); stroke-width:1; stroke-linecap:butt; stroke-linejoin:miter; stroke-dasharray:0; opacity:1" />
<line x1="1228.94" y1="971" x2="1228.94" y2="975" style="fill:none; stroke:rgb(0,0,0); stroke-width:1; stroke-linecap:butt; stroke-linejoin:miter; stroke-dasharray:0; opacity:1" />
<text x="1252.47" y="984" font-family="Segoe UI" font-size="9pt" font-style="normal" font-weight="normal" text-decoration="none" text-anchor="middle" dominant-baseline="text-before-edge" fill="rgb(0,0,0)">
&#x32;&#x30;&#x30;
</text>
<line x1="1252.47" y1="971" x2="1252.47" y2="980" style="fill:none; stroke:rgb(0,0,0); stroke-width:1; stroke-linecap:butt; stroke-linejoin:miter; stroke-dasharray:0; opacity:1" />
<line x1="1276" y1="971" x2="1276" y2="975" style="fill:none; stroke:rgb(0,0,0); stroke-width:1; stroke-linecap:butt; stroke-linejoin:miter; stroke-dasharray:0; opacity:1" />
<line x1="1299.53" y1="971" x2="1299.53" y2="975" style="fill:none; stroke:rgb(0,0,0); stroke-width:1; stroke-linecap:butt; stroke-linejoin:miter; stroke-dasharray:0; opacity:1" />
<line x1="1323.06" y1="971" x2="1323.06" y2="975" style="fill:none; stroke:rgb(0,0,0); stroke-width:1; stroke-linecap:butt; stroke-linejoin:miter; stroke-dasharray:0; opacity:1" />
<line x1="1346.59" y1="971" x2="1346.59" y2="975" style="fill:none; stroke:rgb(0,0,0); stroke-width:1; stroke-linecap:butt; stroke-linejoin:miter; stroke-dasharray:0; opacity:1" />
<text x="1370.12" y="984" font-family="Segoe UI" font-size="9pt" font-style="normal" font-weight="normal" text-decoration="none" text-anchor="middle" dominant-baseline="text-before-edge" fill="rgb(0,0,0)">
&#x32;&#x32;&#x30;
</text>
<line x1="1370.12" y1="971" x2="1370.12" y2="980" style="fill:none; stroke:rgb(0,0,0); stroke-width:1; stroke-linecap:butt; stroke-linejoin:miter; stroke-dasharray:0; opacity:1" />
<line x1="1393.65" y1="971" x2="1393.65" y2="975" style="fill:none; stroke:rgb(0,0,0); stroke-width:1; stroke-linecap:butt; stroke-linejoin:miter; stroke-dasharray:0; opacity:1" />
<line x1="1417.18" y1="971" x2="1417.18" y2="975" style="fill:none; stroke:rgb(0,0,0); stroke-width:1; stroke-linecap:butt; stroke-linejoin:miter; stroke-dasharray:0; opacity:1" />
<line x1="1440.71" y1="971" x2="1440.71" y2="975" style="fill:none; stroke:rgb(0,0,0); stroke-width:1; stroke-linecap:butt; stroke-linejoin:miter; stroke-dasharray:0; opacity:1" />
<line x1="1464.24" y1="971" x2="1464.24" y2="975" style="fill:none; stroke:rgb(0,0,0); stroke-width:1; stroke-linecap:butt; stroke-linejoin:miter; stroke-dasharray:0; opacity:1" />
<text x="1487.76" y="984" font-family="Segoe UI" font-size="9pt" font-style="normal" font-weight="normal" text-decoration="none" text-anchor="middle" dominant-baseline="text-before-edge" fill="rgb(0,0,0)">
&#x32;&#x34;&#x30;
</text>
<line x1="1487.76" y1="971" x2="1487.76" y2="980" style="fill:none; stroke:rgb(0,0,0); stroke-width:1; stroke-linecap:butt; stroke-linejoin:miter; stroke-dasharray:0; opacity:1" />
<line x1="1511.29" y1="971" x2="1511.29" y2="975" style="fill:none; stroke:rgb(0,0,0); stroke-width:1; stroke-linecap:butt; stroke-linejoin:miter; stroke-dasharray:0; opacity:1" />
<line x1="1534.82" y1="971" x2="1534.82" y2="975" style="fill:none; stroke:rgb(0,0,0); stroke-width:1; stroke-linecap:butt; stroke-linejoin:miter; stroke-dasharray:0; opacity:1" />
<line x1="1558.35" y1="971" x2="1558.35" y2="975" style="fill:none; stroke:rgb(0,0,0); stroke-width:1; stroke-linecap:butt; stroke-linejoin:miter; stroke-dasharray:0; opacity:1" />
<line x1="76" y1="971" x2="76" y2="28" style="fill:none; stroke:rgb(0,0,0); stroke-width:1; stroke-linecap:butt; stroke-linejoin:miter; stroke-dasharray:0; opacity:1" />
<line x1="76" y1="28" x2="76" y2="22" style="fill:none; stroke:rgb(0,0,0); stroke-width:1; stroke-linecap:butt; stroke-linejoin:miter; stroke-dasharray:0; opacity:1" />
<polygon style="fill:rgb(0,0,0); fill-rule:evenodd; stroke:none; opacity:1" points="76,22 72,26 80,26 " />
<text x="63" y="966.332" font-family="Segoe UI" font-size="9pt" font-style="normal" font-weight="normal" text-decoration="none" text-anchor="end" dominant-baseline="middle" fill="rgb(0,0,0)">
&#x2D;&#x31;&#x2E;&#x30;
</text>
<line x1="76" y1="966.332" x2="67" y2="966.332" style="fill:none; stroke:rgb(0,0,0); stroke-width:1; stroke-linecap:butt; stroke-linejoin:miter; stroke-dasharray:0; opacity:1" />
<line x1="76" y1="956.995" x2="72" y2="956.995" style="fill:none; stroke:rgb(0,0,0); stroke-width:1; stroke-linecap:butt; stroke-linejoin:miter; stroke-dasharray:0; opacity:1" />
<line x1="76" y1="947.658" x2="72" y2="947.658" style="fill:none; stroke:rgb(0,0,0); stroke-width:1; stroke-linecap:butt; stroke-linejoin:miter; stroke-dasharray:0; opacity:1" />
<line x1="76" y1="938.322" x2="72" y2="938.322" style="fill:none; stroke:rgb(0,0,0); stroke-width:1; stroke-linecap:butt; stroke-linejoin:miter; stroke-dasharray:0; opacity:1" />
<line x1="76" y1="928.985" x2="72" y2="928.985" style="fill:none; stroke:rgb(0,0,0); stroke-width:1; stroke-linecap:butt; stroke-linejoin:miter; stroke-dasharray:0; opacity:1" />
<text x="63" y="919.649" font-family="Segoe UI" font-size="9pt" font-style="normal" font-weight="normal" text-decoration="none" text-anchor="end" dominant-baseline="middle" fill="rgb(0,0,0)">
&#x2D;&#x30;&#x2E;&#x39;
</text>
<line x1="76" y1="919.649" x2="67" y2="919.649" style="fill:none; stroke:rgb(0,0,0); stroke-width:1; stroke-linecap:butt; stroke-linejoin:miter; stroke-dasharray:0; opacity:1" />
<line x1="76" y1="910.312" x2="72" y2="910.312" style="fill:none; stroke:rgb(0,0,0); stroke-width:1; stroke-linecap:butt; stroke-linejoin:miter; stroke-dasharray:0; opacity:1" />
<line x1="76" y1="900.975" x2="72" y2="900.975" style="fill:none; stroke:rgb(0,0,0); stroke-width:1; stroke-linecap:butt; stroke-linejoin:miter; stroke-dasharray:0; opacity:1" />
<line x1="76" y1="891.639" x2="72" y2="891.639" style="fill:none; stroke:rgb(0,0,0); stroke-width:1; stroke-linecap:butt; stroke-linejoin:miter; stroke-dasharray:0; opacity:1" />
<line x1="76" y1="882.302" x2="72" y2="882.302" style="fill:none; stroke:rgb(0,0,0); stroke-width:1; stroke-linecap:butt; stroke-linejoin:miter; stroke-dasharray:0; opacity:1" />
<text x="63" y="872.965" font-family="Segoe UI" font-size="9pt" font-style="normal" font-weight="normal" text-decoration="none" text-anchor="end" dominant-baseline="middle" fill="rgb(0,0,0)">
&#x2D;&#x30;&#x2E;&#x38;
</text>
<line x1="76" y1="872.965" x2="67" y2="872.965" style="fill:none; stroke:rgb(0,0,0); stroke-width:1; stroke-linecap:butt; stroke-linejoin:miter; stroke-dasharray:0; opacity:1" />
<line x1="76" y1="863.629" x2="72" y2="863.629" style="fill:none; stroke:rgb(0,0,0); stroke-width:1; stroke-linecap:butt; stroke-linejoin:miter; stroke-dasharray:0; opacity:1" />
<line x1="76" y1="854.292" x2="72" y2="854.292" style="fill:none; stroke:rgb(0,0,0); stroke-width:1; stroke-linecap:butt; stroke-linejoin:miter; stroke-dasharray:0; opacity:1" />
<line x1="76" y1="844.955" x2="72" y2="844.955" style="fill:none; stroke:rgb(0,0,0); stroke-width:1; stroke-linecap:butt; stroke-linejoin:miter; stroke-dasharray:0; opacity:1" />
<line x1="76" y1="835.619" x2="72" y2="835.619" style="fill:none; stroke:rgb(0,0,0); stroke-width:1; stroke-linecap:butt; stroke-linejoin:miter; stroke-dasharray:0; opacity:1" />
<text x="63" y="826.282" font-family="Segoe UI" font-size="9pt" font-style="normal" font-weight="normal" text-decoration="none" text-anchor="end" dominant-baseline="middle" fill="rgb(0,0,0)">
&#x2D;&#x30;&#x2E;&#x37;
</text>
<line x1="76" y1="826.282" x2="67" y2="826.282" style="fill:none; stroke:rgb(0,0,0); stroke-width:1; stroke-linecap:butt; stroke-linejoin:miter; stroke-dasharray:0; opacity:1" />
<line x1="76" y1="816.946" x2="72" y2="816.946" style="fill:none; stroke:rgb(0,0,0); stroke-width:1; stroke-linecap:butt; stroke-linejoin:miter; stroke-dasharray:0; opacity:1" />
<line x1="76" y1="807.609" x2="72" y2="807.609" style="fill:none; stroke:rgb(0,0,0); stroke-width:1; stroke-linecap:butt; stroke-linejoin:miter; stroke-dasharray:0; opacity:1" />
<line x1="76" y1="798.272" x2="72" y2="798.272" style="fill:none; stroke:rgb(0,0,0); stroke-width:1; stroke-linecap:butt; stroke-linejoin:miter; stroke-dasharray:0; opacity:1" />
<line x1="76" y1="788.936" x2="72" y2="788.936" style="fill:none; stroke:rgb(0,0,0); stroke-width:1; stroke-linecap:butt; stroke-linejoin:miter; stroke-dasharray:0; opacity:1" />
<text x="63" y="779.599" font-family="Segoe UI" font-size="9pt" font-style="normal" font-weight="normal" text-decoration="none" text-anchor="end" dominant-baseline="middle" fill="rgb(0,0,0)">
&#x2D;&#x30;&#x2E;&#x36;
</text>
<line x1="76" y1="779.599" x2="67" y2="779.599" style="fill:none; stroke:rgb(0,0,0); stroke-width:1; stroke-linecap:butt; stroke-linejoin:miter; stroke-dasharray:0; opacity:1" />
<line x1="76" y1="770.262" x2="72" y2="770.262" style="fill:none; stroke:rgb(0,0,0); stroke-width:1; stroke-linecap:butt; stroke-linejoin:miter; stroke-dasharray:0; opacity:1" />
<line x1="76" y1="760.926" x2="72" y2="760.926" style="fill:none; stroke:rgb(0,0,0); stroke-width:1; stroke-linecap:butt; stroke-linejoin:miter; stroke-dasharray:0; opacity:1" />
<line x1="76" y1="751.589" x2="72" y2="751.589" style="fill:none; stroke:rgb(0,0,0); stroke-width:1; stroke-linecap:butt; stroke-linejoin:miter; stroke-dasharray:0; opacity:1" />
<line x1="76" y1="742.252" x2="72" y2="742.252" style="fill:none; stroke:rgb(0,0,0); stroke-width:1; stroke-linecap:butt; stroke-linejoin:miter; stroke-dasharray:0; opacity:1" />
<text x="63" y="732.916" font-family="Segoe UI" font-size="9pt" font-style="normal" font-weight="normal" text-decoration="none" text-anchor="end" dominant-baseline="middle" fill="rgb(0,0,0)">
&#x2D;&#x30;&#x2E;&#x35;
</text>
<line x1="76" y1="732.916" x2="67" y2="732.916" style="fill:none; stroke:rgb(0,0,0); stroke-width:1; stroke-linecap:butt; stroke-linejoin:miter; stroke-dasharray:0; opacity:1" />
<line x1="76" y1="723.579" x2="72" y2="723.579" style="fill:none; stroke:rgb(0,0,0); stroke-width:1; stroke-linecap:butt; stroke-linejoin:miter; stroke-dasharray:0; opacity:1" />
<line x1="76" y1="714.243" x2="72" y2="714.243" style="fill:none; stroke:rgb(0,0,0); stroke-width:1; stroke-linecap:butt; stroke-linejoin:miter; stroke-dasharray:0; opacity:1" />
<line x1="76" y1="704.906" x2="72" y2="704.906" style="fill:none; stroke:rgb(0,0,0); stroke-width:1; stroke-linecap:butt; stroke-linejoin:miter; stroke-dasharray:0; opacity:1" />
<line x1="76" y1="695.569" x2="72" y2="695.569" style="fill:none; stroke:rgb(0,0,0); stroke-width:1; stroke-linecap:butt; stroke-linejoin:miter; stroke-dasharray:0; opacity:1" />
<text x="63" y="686.233" font-family="Segoe UI" font-size="9pt" font-style="normal" font-weight="normal" text-decoration="none" text-anchor="end" dominant-baseline="middle" fill="rgb(0,0,0)">
&#x2D;&#x30;&#x2E;&#x34;
</text>
<line x1="76" y1="686.233" x2="67" y2="686.233" style="fill:none; stroke:rgb(0,0,0); stroke-width:1; stroke-linecap:butt; stroke-linejoin:miter; stroke-dasharray:0; opacity:1" />
<line x1="76" y1="676.896" x2="72" y2="676.896" style="fill:none; stroke:rgb(0,0,0); stroke-width:1; stroke-linecap:butt; stroke-linejoin:miter; stroke-dasharray:0; opacity:1" />
<line x1="76" y1="667.559" x2="72" y2="667.559" style="fill:none; stroke:rgb(0,0,0); stroke-width:1; stroke-linecap:butt; stroke-linejoin:miter; stroke-dasharray:0; opacity:1" />
<line x1="76" y1="658.223" x2="72" y2="658.223" style="fill:none; stroke:rgb(0,0,0); stroke-width:1; stroke-linecap:butt; stroke-linejoin:miter; stroke-dasharray:0; opacity:1" />
<line x1="76" y1="648.886" x2="72" y2="648.886" style="fill:none; stroke:rgb(0,0,0); stroke-width:1; stroke-linecap:butt; stroke-linejoin:miter; stroke-dasharray:0; opacity:1" />
<text x="63" y="639.55" font-family="Segoe UI" font-size="9pt" font-style="normal" font-weight="normal" text-decoration="none" text-anchor="end" dominant-baseline="middle" fill="rgb(0,0,0)">
&#x2D;&#x30;&#x2E;&#x33;
</text>
<line x1="76" y1="639.55" x2="67" y2="639.55" style="fill:none; stroke:rgb(0,0,0); stroke-width:1; stroke-linecap:butt; stroke-linejoin:miter; stroke-dasharray:0; opacity:1" />
<line x1="76" y1="630.213" x2="72" y2="630.213" style="fill:none; stroke:rgb(0,0,0); stroke-width:1; stroke-linecap:butt; stroke-linejoin:miter; stroke-dasharray:0; opacity:1" />
<line x1="76" y1="620.876" x2="72" y2="620.876" style="fill:none; stroke:rgb(0,0,0); stroke-width:1; stroke-linecap:butt; stroke-linejoin:miter; stroke-dasharray:0; opacity:1" />
<line x1="76" y1="611.54" x2="72" y2="611.54" style="fill:none; stroke:rgb(0,0,0); stroke-width:1; stroke-linecap:butt; stroke-linejoin:miter; stroke-dasharray:0; opacity:1" />
<line x1="76" y1="602.203" x2="72" y2="602.203" style="fill:none; stroke:rgb(0,0,0); stroke-width:1; stroke-linecap:butt; stroke-linejoin:miter; stroke-dasharray:0; opacity:1" />
<text x="63" y="592.866" font-family="Segoe UI" font-size="9pt" font-style="normal" font-weight="normal" text-decoration="none" text-anchor="end" dominant-baseline="middle" fill="rgb(0,0,0)">
&#x2D;&#x30;&#x2E;&#x32;
</text>
<line x1="76" y1="592.866" x2="67" y2="592.866" style="fill:none; stroke:rgb(0,0,0); stroke-width:1; stroke-linecap:butt; stroke-linejoin:miter; stroke-dasharray:0; opacity:1" />
<line x1="76" y1="583.53" x2="72" y2="583.53" style="fill:none; stroke:rgb(0,0,0); stroke-width:1; stroke-linecap:butt; stroke-linejoin:miter; stroke-dasharray:0; opacity:1" />
<line x1="76" y1="574.193" x2="72" y2="574.193" style="fill:none; stroke:rgb(0,0,0); stroke-width:1; stroke-linecap:butt; stroke-linejoin:miter; stroke-dasharray:0; opacity:1" />
<line x1="76" y1="564.856" x2="72" y2="564.856" style="fill:none; stroke:rgb(0,0,0); stroke-width:1; stroke-linecap:butt; stroke-linejoin:miter; stroke-dasharray:0; opacity:1" />
<line x1="76" y1="555.52" x2="72" y2="555.52" style="fill:none; stroke:rgb(0,0,0); stroke-width:1; stroke-linecap:butt; stroke-linejoin:miter; stroke-dasharray:0; opacity:1" />
<text x="63" y="546.183" font-family="Segoe UI" font-size="9pt" font-style="normal" font-weight="normal" text-decoration="none" text-anchor="end" dominant-baseline="middle" fill="rgb(0,0,0)">
&#x2D;&#x30;&#x2E;&#x31;
</text>
<line x1="76" y1="546.183" x2="67" y2="546.183" style="fill:none; stroke:rgb(0,0,0); stroke-width:1; stroke-linecap:butt; stroke-linejoin:miter; stroke-dasharray:0; opacity:1" />
<line x1="76" y1="536.847" x2="72" y2="536.847" style="fill:none; stroke:rgb(0,0,0); stroke-width:1; stroke-linecap:butt; stroke-linejoin:miter; stroke-dasharray:0; opacity:1" />
<line x1="76" y1="527.51" x2="72" y2="527.51" style="fill:none; stroke:rgb(0,0,0); stroke-width:1; stroke-linecap:butt; stroke-linejoin:miter; stroke-dasharray:0; opacity:1" />
<line x1="76" y1="518.173" x2="72" y2="518.173" style="fill:none; stroke:rgb(0,0,0); stroke-width:1; stroke-linecap:butt; stroke-linejoin:miter; stroke-dasharray:0; opacity:1" />
<line x1="76" y1="508.837" x2="72" y2="508.837" style="fill:none; stroke:rgb(0,0,0); stroke-width:1; stroke-linecap:butt; stroke-linejoin:miter; stroke-dasharray:0; opacity:1" />
<text x="63" y="499.5" font-family="Segoe UI" font-size="9pt" font-style="normal" font-weight="normal" text-decoration="none" text-anchor="end" dominant-baseline="middle" fill="rgb(0,0,0)">
&#x30;&#x2E;&#x30;
</text>
<line x1="76" y1="499.5" x2="67" y2="499.5" style="fill:none; stroke:rgb(0,0,0); stroke-width:1; stroke-linecap:butt; stroke-linejoin:miter; stroke-dasharray:0; opacity:1" />
<line x1="76" y1="490.163" x2="72" y2="490.163" style="fill:none; stroke:rgb(0,0,0); stroke-width:1; stroke-linecap:butt; stroke-linejoin:miter; stroke-dasharray:0; opacity:1" />
<line x1="76" y1="480.827" x2="72" y2="480.827" style="fill:none; stroke:rgb(0,0,0); stroke-width:1; stroke-linecap:butt; stroke-linejoin:miter; stroke-dasharray:0; opacity:1" />
<line x1="76" y1="471.49" x2="72" y2="471.49" style="fill:none; stroke:rgb(0,0,0); stroke-width:1; stroke-linecap:butt; stroke-linejoin:miter; stroke-dasharray:0; opacity:1" />
<line x1="76" y1="462.153" x2="72" y2="462.153" style="fill:none; stroke:rgb(0,0,0); stroke-width:1; stroke-linecap:butt; stroke-linejoin:miter; stroke-dasharray:0; opacity:1" />
<text x="63" y="452.817" font-family="Segoe UI" font-size="9pt" font-style="normal" font-weight="normal" text-decoration="none" text-anchor="end" dominant-baseline="middle" fill="rgb(0,0,0)">
&#x30;&#x2E;&#x31;
</text>
<line x1="76" y1="452.817" x2="67" y2="452.817" style="fill:none; stroke:rgb(0,0,0); stroke-width:1; stroke-linecap:butt; stroke-linejoin:miter; stroke-dasharray:0; opacity:1" />
<line x1="76" y1="443.48" x2="72" y2="443.48" style="fill:none; stroke:rgb(0,0,0); stroke-width:1; stroke-linecap:butt; stroke-linejoin:miter; stroke-dasharray:0; opacity:1" />
<line x1="76" y1="434.144" x2="72" y2="434.144" style="fill:none; stroke:rgb(0,0,0); stroke-width:1; stroke-linecap:butt; stroke-linejoin:miter; stroke-dasharray:0; opacity:1" />
<line x1="76" y1="424.807" x2="72" y2="424.807" style="fill:none; stroke:rgb(0,0,0); stroke-width:1; stroke-linecap:butt; stroke-linejoin:miter; stroke-dasharray:0; opacity:1" />
<line x1="76" y1="415.47" x2="72" y2="415.47" style="fill:none; stroke:rgb(0,0,0); stroke-width:1; stroke-linecap:butt; stroke-linejoin:miter; stroke-dasharray:0; opacity:1" />
<text x="63" y="406.134" font-family="Segoe UI" font-size="9pt" font-style="normal" font-weight="normal" text-decoration="none" text-anchor="end" dominant-baseline="middle" fill="rgb(0,0,0)">
&#x30;&#x2E;&#x32;
</text>
<line x1="76" y1="406.134" x2="67" y2="406.134" style="fill:none; stroke:rgb(0,0,0); stroke-width:1; stroke-linecap:butt; stroke-linejoin:miter; stroke-dasharray:0; opacity:1" />
<line x1="76" y1="396.797" x2="72" y2="396.797" style="fill:none; stroke:rgb(0,0,0); stroke-width:1; stroke-linecap:butt; stroke-linejoin:miter; stroke-dasharray:0; opacity:1" />
<line x1="76" y1="387.46" x2="72" y2="387.46" style="fill:none; stroke:rgb(0,0,0); stroke-width:1; stroke-linecap:butt; stroke-linejoin:miter; stroke-dasharray:0; opacity:1" />
<line x1="76" y1="378.124" x2="72" y2="378.124" style="fill:none; stroke:rgb(0,0,0); stroke-width:1; stroke-linecap:butt; stroke-linejoin:miter; stroke-dasharray:0; opacity:1" />
<line x1="76" y1="368.787" x2="72" y2="368.787" style="fill:none; stroke:rgb(0,0,0); stroke-width:1; stroke-linecap:butt; stroke-linejoin:miter; stroke-dasharray:0; opacity:1" />
<text x="63" y="359.45" font-family="Segoe UI" font-size="9pt" font-style="normal" font-weight="normal" text-decoration="none" text-anchor="end" dominant-baseline="middle" fill="rgb(0,0,0)">
&#x30;&#x2E;&#x33;
</text>
<line x1="76" y1="359.45" x2="67" y2="359.45" style="fill:none; stroke:rgb(0,0,0); stroke-width:1; stroke-linecap:butt; stroke-linejoin:miter; stroke-dasharray:0; opacity:1" />
<line x1="76" y1="350.114" x2="72" y2="350.114" style="fill:none; stroke:rgb(0,0,0); stroke-width:1; stroke-linecap:butt; stroke-linejoin:miter; stroke-dasharray:0; opacity:1" />
<line x1="76" y1="340.777" x2="72" y2="340.777" style="fill:none; stroke:rgb(0,0,0); stroke-width:1; stroke-linecap:butt; stroke-linejoin:miter; stroke-dasharray:0; opacity:1" />
<line x1="76" y1="331.441" x2="72" y2="331.441" style="fill:none; stroke:rgb(0,0,0); stroke-width:1; stroke-linecap:butt; stroke-linejoin:miter; stroke-dasharray:0; opacity:1" />
<line x1="76" y1="322.104" x2="72" y2="322.104" style="fill:none; stroke:rgb(0,0,0); stroke-width:1; stroke-linecap:butt; stroke-linejoin:miter; stroke-dasharray:0; opacity:1" />
<text x="63" y="312.767" font-family="Segoe UI" font-size="9pt" font-style="normal" font-weight="normal" text-decoration="none" text-anchor="end" dominant-baseline="middle" fill="rgb(0,0,0)">
&#x30;&#x2E;&#x34;
</text>
<line x1="76" y1="312.767" x2="67" y2="312.767" style="fill:none; stroke:rgb(0,0,0); stroke-width:1; stroke-linecap:butt; stroke-linejoin:miter; stroke-dasharray:0; opacity:1" />
<line x1="76" y1="303.431" x2="72" y2="303.431" style="fill:none; stroke:rgb(0,0,0); stroke-width:1; stroke-linecap:butt; stroke-linejoin:miter; stroke-dasharray:0; opacity:1" />
<line x1="76" y1="294.094" x2="72" y2="294.094" style="fill:none; stroke:rgb(0,0,0); stroke-width:1; stroke-linecap:butt; stroke-linejoin:miter; stroke-dasharray:0; opacity:1" />
<line x1="76" y1="284.757" x2="72" y2="284.757" style="fill:none; stroke:rgb(0,0,0); stroke-width:1; stroke-linecap:butt; stroke-linejoin:miter; stroke-dasharray:0; opacity:1" />
<line x1="76" y1="275.421" x2="72" y2="275.421" style="fill:none; stroke:rgb(0,0,0); stroke-width:1; stroke-linecap:butt; stroke-linejoin:miter; stroke-dasharray:0; opacity:1" />
<text x="63" y="266.084" font-family="Segoe UI" font-size="9pt" font-style="normal" font-weight="normal" text-decoration="none" text-anchor="end" dominant-baseline="middle" fill="rgb(0,0,0)">
&#x30;&#x2E;&#x35;
</text>
<line x1="76" y1="266.084" x2="67" y2="266.084" style="fill:none; stroke:rgb(0,0,0); stroke-width:1; stroke-linecap:butt; stroke-linejoin:miter; stroke-dasharray:0; opacity:1" />
<line x1="76" y1="256.748" x2="72" y2="256.748" style="fill:none; stroke:rgb(0,0,0); stroke-width:1; stroke-linecap:butt; stroke-linejoin:miter; stroke-dasharray:0; opacity:1" />
<line x1="76" y1="247.411" x2="72" y2="247.411" style="fill:none; stroke:rgb(0,0,0); stroke-width:1; stroke-linecap:butt; stroke-linejoin:miter; stroke-dasharray:0; opacity:1" />
<line x1="76" y1="238.074" x2="72" y2="238.074" style="fill:none; stroke:rgb(0,0,0); stroke-width:1; stroke-linecap:butt; stroke-linejoin:miter; stroke-dasharray:0; opacity:1" />
<line x1="76" y1="228.738" x2="72" y2="228.738" style="fill:none; stroke:rgb(0,0,0); stroke-width:1; stroke-linecap:butt; stroke-linejoin:miter; stroke-dasharray:0; opacity:1" />
<text x="63" y="219.401" font-family="Segoe UI" font-size="9pt" font-style="normal" font-weight="normal" text-decoration="none" text-anchor="end" dominant-baseline="middle" fill="rgb(0,0,0)">
&#x30;&#x2E;&#x36;
</text>
<line x1="76" y1="219.401" x2="67" y2="219.401" style="fill:none; stroke:rgb(0,0,0); stroke-width:1; stroke-linecap:butt; stroke-linejoin:miter; stroke-dasharray:0; opacity:1" />
<line x1="76" y1="210.064" x2="72" y2="210.064" style="fill:none; stroke:rgb(0,0,0); stroke-width:1; stroke-linecap:butt; stroke-linejoin:miter; stroke-dasharray:0; opacity:1" />
<line x1="76" y1="200.728" x2="72" y2="200.728" style="fill:none; stroke:rgb(0,0,0); stroke-width:1; stroke-linecap:butt; stroke-linejoin:miter; stroke-dasharray:0; opacity:1" />
<line x1="76" y1="191.391" x2="72" y2="191.391" style="fill:none; stroke:rgb(0,0,0); stroke-width:1; stroke-linecap:butt; stroke-linejoin:miter; stroke-dasharray:0; opacity:1" />
<line x1="76" y1="182.054" x2="72" y2="182.054" style="fill:none; stroke:rgb(0,0,0); stroke-width:1; stroke-linecap:butt; stroke-linejoin:miter; stroke-dasharray:0; opacity:1" />
<text x="63" y="172.718" font-family="Segoe UI" font-size="9pt" font-style="normal" font-weight="normal" text-decoration="none" text-anchor="end" dominant-baseline="middle" fill="rgb(0,0,0)">
&#x30;&#x2E;&#x37;
</text>
<line x1="76" y1="172.718" x2="67" y2="172.718" style="fill:none; stroke:rgb(0,0,0); stroke-width:1; stroke-linecap:butt; stroke-linejoin:miter; stroke-dasharray:0; opacity:1" />
<line x1="76" y1="163.381" x2="72" y2="163.381" style="fill:none; stroke:rgb(0,0,0); stroke-width:1; stroke-linecap:butt; stroke-linejoin:miter; stroke-dasharray:0; opacity:1" />
<line x1="76" y1="154.045" x2="72" y2="154.045" style="fill:none; stroke:rgb(0,0,0); stroke-width:1; stroke-linecap:butt; stroke-linejoin:miter; stroke-dasharray:0; opacity:1" />
<line x1="76" y1="144.708" x2="72" y2="144.708" style="fill:none; stroke:rgb(0,0,0); stroke-width:1; stroke-linecap:butt; stroke-linejoin:miter; stroke-dasharray:0; opacity:1" />
<line x1="76" y1="135.371" x2="72" y2="135.371" style="fill:none; stroke:rgb(0,0,0); stroke-width:1; stroke-linecap:butt; stroke-linejoin:miter; stroke-dasharray:0; opacity:1" />
<text x="63" y="126.035" font-family="Segoe UI" font-size="9pt" font-style="normal" font-weight="normal" text-decoration="none" text-anchor="end" dominant-baseline="middle" fill="rgb(0,0,0)">
&#x30;&#x2E;&#x38;
</text>
<line x1="76" y1="126.035" x2="67" y2="126.035" style="fill:none; stroke:rgb(0,0,0); stroke-width:1; stroke-linecap:butt; stroke-linejoin:miter; stroke-dasharray:0; opacity:1" />
<line x1="76" y1="116.698" x2="72" y2="116.698" style="fill:none; stroke:rgb(0,0,0); stroke-width:1; stroke-linecap:butt; stroke-linejoin:miter; stroke-dasharray:0; opacity:1" />
<line x1="76" y1="107.361" x2="72" y2="107.361" style="fill:none; stroke:rgb(0,0,0); stroke-width:1; stroke-linecap:butt; stroke-linejoin:miter; stroke-dasharray:0; opacity:1" />
<line x1="76" y1="98.0248" x2="72" y2="98.0248" style="fill:none; stroke:rgb(0,0,0); stroke-width:1; stroke-linecap:butt; stroke-linejoin:miter; stroke-dasharray:0; opacity:1" />
<line x1="76" y1="88.6881" x2="72" y2="88.6881" style="fill:none; stroke:rgb(0,0,0); stroke-width:1; stroke-linecap:butt; stroke-linejoin:miter; stroke-dasharray:0; opacity:1" />
<text x="63" y="79.3515" font-family="Segoe UI" font-size="9pt" font-style="normal" font-weight="normal" text-decoration="none" text-anchor="end" dominant-baseline="middle" fill="rgb(0,0,0)">
&#x30;&#x2E;&#x39;
</text>
<line x1="76" y1="79.3515" x2="67" y2="79.3515" style="fill:none; stroke:rgb(0,0,0); stroke-width:1; stroke-linecap:butt; stroke-linejoin:miter; stroke-dasharray:0; opacity:1" />
<line x1="76" y1="70.0149" x2="72" y2="70.0149" style="fill:none; stroke:rgb(0,0,0); stroke-width:1; stroke-linecap:butt; stroke-linejoin:miter; stroke-dasharray:0; opacity:1" />
<line x1="76" y1="60.6782" x2="72" y2="60.6782" style="fill:none; stroke:rgb(0,0,0); stroke-width:1; stroke-linecap:butt; stroke-linejoin:miter; stroke-dasharray:0; opacity:1" />
<line x1="76" y1="51.3416" x2="72" y2="51.3416" style="fill:none; stroke:rgb(0,0,0); stroke-width:1; stroke-linecap:butt; stroke-linejoin:miter; stroke-dasharray:0; opacity:1" />
<line x1="76" y1="42.005" x2="72" y2="42.005" style="fill:none; stroke:rgb(0,0,0); stroke-width:1; stroke-linecap:butt; stroke-linejoin:miter; stroke-dasharray:0; opacity:1" />
<text x="63" y="32.6683" font-family="Segoe UI" font-size="9pt" font-style="normal" font-weight="normal" text-decoration="none" text-anchor="end" dominant-baseline="middle" fill="rgb(0,0,0)">
&#x31;&#x2E;&#x30;
</text>
<line x1="76" y1="32.6683" x2="67" y2="32.6683" style="fill:none; stroke:rgb(0,0,0); stroke-width:1; stroke-linecap:butt; stroke-linejoin:miter; stroke-dasharray:0; opacity:1" />
<clipPath id="cliprect0">
<rect x="76" y="29" width="1500" height="943" />
</clipPath>
</g>
<g clip-path="url(#cliprect0)">
<polyline style="fill:none; stroke:rgb(0,0,0); stroke-width:1; stroke-linecap:butt; stroke-linejoin:miter; stroke-dasharray:0; opacity:1" points="76,487.105 1576,487.105 " />
<polyline style="fill:none; stroke:rgb(204,170,0); stroke-width:1; stroke-linecap:butt; stroke-linejoin:miter; stroke-dasharray:0; opacity:1" points="76,488.076 81.8824,492.01 87.7647,495.063 93.6471,496.681 99.5294,498.055 105.412,498.801 111.294,498.927 117.176,498.373 123.059,497.05 128.941,494.85 134.824,491.658 140.706,487.375 146.588,481.947 152.471,475.382 158.353,467.753 164.235,459.195 170.118,449.88 176,439.984 181.882,429.664 187.765,419.029 193.647,408.142 199.529,397.029 205.412,385.701 211.294,374.185 217.176,362.54 223.059,350.871 228.941,339.321 234.824,328.052 240.706,317.227 246.588,306.987 252.471,297.442 258.353,288.661 264.235,280.68 270.118,273.511 276,267.147 281.882,261.574 287.765,256.774 293.647,252.728 299.529,249.419 305.412,246.834 311.294,244.967 317.176,243.815 323.059,243.386 328.941,243.691 334.824,244.744 340.706,246.565 346.588,249.176 352.471,252.602 358.353,256.876 364.235,262.039 370.118,268.148 376,275.274 381.882,283.508 387.765,292.951 393.647,303.707 399.529,315.858 405.412,329.437 411.294,344.397 417.176,360.581 423.059,377.703 428.941,395.347 434.824,412.977 440.706,429.968 446.588,445.641 452.471,459.297 458.353,470.256 464.235,477.897 470.118,481.703 476,481.337 481.882,476.706 487.765,468.031 493.647,455.862 499.529,441.042 505.412,424.612 511.294,407.665 517.176,391.208 523.059,376.053 528.941,362.751 534.824,351.599 540.706,342.676 546.588,335.904 552.471,331.106 558.353,328.054 564.235,326.502 570.118,326.203 576,326.916 581.882,328.416 587.765,330.495 593.647,332.968 599.529,335.678 605.412,338.498 611.294,341.34 617.176,344.146 623.059,346.887 628.941,349.552 634.824,352.14 640.706,354.649 646.588,357.065 652.471,359.367 658.353,361.518 664.235,363.471 670.118,365.176 676,366.587 681.882,367.672 687.765,368.418 693.647,368.841 699.529,368.986 705.412,368.92 711.294,368.725 717.176,368.49 723.059,368.298 728.941,368.217 734.824,368.297 740.706,368.568 746.588,369.037 752.471,369.695 758.353,370.515 764.235,371.464 770.118,372.506 776,373.611 781.882,374.753 787.765,375.92 793.647,377.106 799.529,378.307 805.412,379.522 811.294,380.745 817.176,381.968 823.059,383.183 828.941,384.382 834.824,385.562 840.706,386.724 846.588,387.872 852.471,389.008 858.353,390.138 864.235,391.262 870.118,392.382 876,393.498 881.882,394.614 887.765,395.735 893.647,396.868 899.529,398.025 905.412,399.221 911.294,400.483 917.176,401.847 923.059,403.363 928.941,405.087 934.824,407.072 940.706,409.358 946.588,411.959 952.471,414.858 958.353,418.005 964.235,421.32 970.118,424.704 976,428.05 981.882,431.255 987.765,434.227 993.647,436.896 999.529,439.212 1005.41,441.144 1011.29,442.685 1017.18,443.851 1023.06,444.685 1028.94,445.254 1034.82,445.632 1040.71,445.878 1046.59,445.988 1052.47,445.859 1058.35,445.268 1064.24,443.88 1070.12,441.31 1076,437.21 1081.88,431.361 1087.76,423.741 1093.65,414.528 1099.53,404.054 1105.41,392.703 1111.29,380.807 1117.18,368.572 1123.06,356.057 1128.94,343.205 1134.82,329.91 1140.71,316.095 1146.59,301.776 1152.47,287.097 1158.35,272.33 1164.24,257.844 1170.12,244.042 1176,231.29 1181.88,219.831 1187.76,209.742 1193.65,200.914 1199.53,193.104 1205.41,186.005 1211.29,179.34 1217.18,172.936 1223.06,166.749 1228.94,160.842 1234.82,155.343 1240.71,150.381 1246.59,146.04 1252.47,142.341 1258.35,139.238 1264.24,136.642 1270.12,134.447 1276,132.551 1281.88,130.874 1287.76,129.354 1293.65,127.929 1299.53,126.531 1305.41,125.071 1311.29,123.451 1317.18,121.58 1323.06,119.39 1328.94,116.836 1334.82,113.889 1340.71,110.504 1346.59,106.592 1352.47,102.003 1358.35,96.5476 1364.24,90.0573 1370.12,82.4703 1376,73.9204 1381.88,64.7891 1387.76,55.6895 1393.65,47.3726 1399.53,40.5673 1405.41,35.7976 1411.29,33.2381 1417.18,32.6683 1423.06,33.5615 1428.94,35.2917 1434.82,37.3819 1440.71,39.686 1446.59,42.413 1452.47,45.9736 1458.35,50.7176 1464.24,56.6903 1470.12,63.5288 1476,70.5451 1481.88,76.9499 1487.76,82.1093 1493.65,85.7234 1499.53,87.8742 1505.41,88.9588 1511.29,89.5758 1517.18,90.4332 1523.06,92.3174 1528.94,96.1147 1534.82,102.844 1540.71,113.663 1546.59,129.757 1552.47,152.201 1558.35,182.506 1564.24,215.853 1570.12,270.116 1576,337.394 " />
<polyline style="fill:none; stroke:rgb(204,0,0); stroke-width:1; stroke-linecap:butt; stroke-linejoin:miter; stroke-dasharray:0; opacity:1" points="76,499.5 81.8824,499.5 87.7647,499.5 93.6471,499.5 99.5294,499.5 105.412,499.5 111.294,499.5 117.176,499.5 123.059,499.5 128.941,499.5 134.824,499.5 140.706,499.5 146.588,499.5 152.471,499.5 158.353,499.5 164.235,499.5 170.118,499.5 176,499.5 181.882,499.5 187.765,499.5 193.647,499.5 199.529,499.5 205.412,499.5 211.294,499.5 217.176,499.5 223.059,499.5 228.941,499.5 234.824,499.5 240.706,499.5 246.588,499.5 252.471,499.5 258.353,499.5 264.235,499.5 270.118,499.5 276,499.5 281.882,499.5 287.765,499.5 293.647,499.5 299.529,499.5 305.412,499.5 311.294,499.5 317.176,499.5 323.059,243.386 328.941,499.5 334.824,499.5 340.706,499.5 346.588,499.5 352.471,499.5 358.353,499.5 364.235,499.5 370.118,499.5 376,499.5 381.882,499.5 387.765,499.5 393.647,499.5 399.529,499.5 405.412,499.5 411.294,499.5 417.176,499.5 423.059,499.5 428.941,499.5 434.824,499.5 440.706,499.5 446.588,499.5 452.471,499.5 458.353,499.5 464.235,499.5 470.118,499.5 476,499.5 481.882,499.5 487.765,499.5 493.647,499.5 499.529,499.5 505.412,499.5 511.294,499.5 517.176,499.5 523.059,499.5 528.941,499.5 534.824,499.5 540.706,499.5 546.588,499.5 552.471,499.5 558.353,499.5 564.235,499.5 570.118,326.203 576,499.5 581.882,499.5 587.765,499.5 593.647,499.5 599.529,499.5 605.412,499.5 611.294,499.5 617.176,499.5 623.059,499.5 628.941,499.5 634.824,499.5 640.706,499.5 646.588,499.5 652.471,499.5 658.353,499.5 664.235,499.5 670.118,499.5 676,499.5 681.882,499.5 687.765,499.5 693.647,499.5 699.529,499.5 705.412,499.5 711.294,499.5 717.176,499.5 723.059,499.5 728.941,368.217 734.824,499.5 740.706,499.5 746.588,499.5 752.471,499.5 758.353,499.5 764.235,499.5 770.118,499.5 776,499.5 781.882,499.5 787.765,499.5 793.647,499.5 799.529,499.5 805.412,499.5 811.294,499.5 817.176,499.5 823.059,499.5 828.941,499.5 834.824,499.5 840.706,499.5 846.588,499.5 852.471,499.5 858.353,499.5 864.235,499.5 870.118,499.5 876,499.5 881.882,499.5 887.765,499.5 893.647,499.5 899.529,499.5 905.412,499.5 911.294,499.5 917.176,499.5 923.059,499.5 928.941,499.5 934.824,499.5 940.706,499.5 946.588,499.5 952.471,499.5 958.353,499.5 964.235,499.5 970.118,499.5 976,499.5 981.882,499.5 987.765,499.5 993.647,499.5 999.529,499.5 1005.41,499.5 1011.29,499.5 1017.18,499.5 1023.06,499.5 1028.94,499.5 1034.82,499.5 1040.71,499.5 1046.59,499.5 1052.47,499.5 1058.35,499.5 1064.24,499.5 1070.12,499.5 1076,499.5 1081.88,499.5 1087.76,499.5 1093.65,499.5 1099.53,499.5 1105.41,499.5 1111.29,499.5 1117.18,499.5 1123.06,499.5 1128.94,499.5 1134.82,499.5 1140.71,499.5 1146.59,499.5 1152.47,499.5 1158.35,499.5 1164.24,499.5 1170.12,499.5 1176,499.5 1181.88,499.5 1187.76,499.5 1193.65,499.5 1199.53,499.5 1205.41,499.5 1211.29,499.5 1217.18,499.5 1223.06,499.5 1228.94,499.5 1234.82,499.5 1240.71,499.5 1246.59,499.5 1252.47,499.5 1258.35,499.5 1264.24,499.5 1270.12,499.5 1276,499.5 1281.88,499.5 1287.76,499.5 1293.65,499.5 1299.53,499.5 1305.41,499.5 1311.29,499.5 1317.18,499.5 1323.06,499.5 1328.94,499.5 1334.82,499.5 1340.71,499.5 1346.59,499.5 1352.47,499.5 1358.35,499.5 1364.24,499.5 1370.12,499.5 1376,499.5 1381.88,499.5 1387.76,499.5 1393.65,499.5 1399.53,499.5 1405.41,499.5 1411.29,499.5 1417.18,32.6683 1423.06,499.5 1428.94,499.5 1434.82,499.5 1440.71,499.5 1446.59,499.5 1452.47,499.5 1458.35,499.5 1464.24,499.5 1470.12,499.5 1476,499.5 1481.88,499.5 1487.76,499.5 1493.65,499.5 1499.53,499.5 1505.41,499.5 1511.29,499.5 1517.18,499.5 1523.06,499.5 1528.94,499.5 1534.82,499.5 1540.71,499.5 1546.59,499.5 1552.47,499.5 1558.35,499.5 1564.24,499.5 1570.12,499.5 1576,499.5 " />
<clipPath id="cliprect1">
<rect x="0" y="0" width="1618" height="1017" />
</clipPath>
</g>
<g clip-path="url(#cliprect1)">
</g>
</g>
</svg>
