<?xml version="1.0" encoding="UTF-8"?>
<svg xmlns="http://www.w3.org/2000/svg" xmlns:xlink="http://www.w3.org/1999/xlink" width="970.801pt" height="610.2pt" viewBox="0 0 1618 1017" version="1.1">
<g>
<pattern id="pattern0" patternUnits="userSpaceOnUse" x="0" y="0" width="7" height="7">
<line x1="0" y1="3" x2="7" y2="3" style="fill:none; stroke:rgb(0,0,0); opacity:1" />
</pattern>
<rect x="0" y="0" width="1617" height="1016" style="fill:rgb(255,255,255); stroke:none; opacity:1" />
<g clip-path="url(#cliprect-1)">
<line x1="76" y1="971" x2="1576" y2="971" style="fill:none; stroke:rgb(0,0,0); stroke-width:1; stroke-linecap:butt; stroke-linejoin:miter; stroke-dasharray:0; opacity:1" />
<line x1="1576" y1="971" x2="1582" y2="971" style="fill:none; stroke:rgb(0,0,0); stroke-width:1; stroke-linecap:butt; stroke-linejoin:miter; stroke-dasharray:0; opacity:1" />
<polygon style="fill:rgb(0,0,0); fill-rule:evenodd; stroke:none; opacity:1" points="1582,971 1578,975 1578,967 " />
<text x="76" y="984" font-family="Segoe UI" font-size="9pt" font-style="normal" font-weight="normal" text-decoration="none" text-anchor="middle" dominant-baseline="text-before-edge" fill="rgb(0,0,0)">
&#x30;
</text>
<line x1="76" y1="971" x2="76" y2="980" style="fill:none; stroke:rgb(0,0,0); stroke-width:1; stroke-linecap:butt; stroke-linejoin:miter; stroke-dasharray:0; opacity:1" />
<line x1="99.5294" y1="971" x2="99.5294" y2="975" style="fill:none; stroke:rgb(0,0,0); stroke-width:1; stroke-linecap:butt; stroke-linejoin:miter; stroke-dasharray:0; opacity:1" />
<line x1="123.059" y1="971" x2="123.059" y2="975" style="fill:none; stroke:rgb(0,0,0); stroke-width:1; stroke-linecap:butt; stroke-linejoin:miter; stroke-dasharray:0; opacity:1" />
<line x1="146.588" y1="971" x2="146.588" y2="975" style="fill:none; stroke:rgb(0,0,0); stroke-width:1; stroke-linecap:butt; stroke-linejoin:miter; stroke-dasharray:0; opacity:1" />
<line x1="170.118" y1="971" x2="170.118" y2="975" style="fill:none; stroke:rgb(0,0,0); stroke-width:1; stroke-linecap:butt; stroke-linejoin:miter; stroke-dasharray:0; opacity:1" />
<text x="193.647" y="984" font-family="Segoe UI" font-size="9pt" font-style="normal" font-weight="normal" text-decoration="none" text-anchor="middle" dominant-baseline="text-before-edge" fill="rgb(0,0,0)">
&#x32;&#x30;
</text>
<line x1="193.647" y1="971" x2="193.647" y2="980" style="fill:none; stroke:rgb(0,0,0); stroke-width:1; stroke-linecap:butt; stroke-linejoin:miter; stroke-dasharray:0; opacity:1" />
<line x1="217.176" y1="971" x2="217.176" y2="975" style="fill:none; stroke:rgb(0,0,0); stroke-width:1; stroke-linecap:butt; stroke-linejoin:miter; stroke-dasharray:0; opacity:1" />
<line x1="240.706" y1="971" x2="240.706" y2="975" style="fill:none; stroke:rgb(0,0,0); stroke-width:1; stroke-linecap:butt; stroke-linejoin:miter; stroke-dasharray:0; opacity:1" />
<line x1="264.235" y1="971" x2="264.235" y2="975" style="fill:none; stroke:rgb(0,0,0); stroke-width:1; stroke-linecap:butt; stroke-linejoin:miter; stroke-dasharray:0; opacity:1" />
<line x1="287.765" y1="971" x2="287.765" y2="975" style="fill:none; stroke:rgb(0,0,0); stroke-width:1; stroke-linecap:butt; stroke-linejoin:miter; stroke-dasharray:0; opacity:1" />
<text x="311.294" y="984" font-family="Segoe UI" font-size="9pt" font-style="normal" font-weight="normal" text-decoration="none" text-anchor="middle" dominant-baseline="text-before-edge" fill="rgb(0,0,0)">
&#x34;&#x30;
</text>
<line x1="311.294" y1="971" x2="311.294" y2="980" style="fill:none; stroke:rgb(0,0,0); stroke-width:1; stroke-linecap:butt; stroke-linejoin:miter; stroke-dasharray:0; opacity:1" />
<line x1="334.824" y1="971" x2="334.824" y2="975" style="fill:none; stroke:rgb(0,0,0); stroke-width:1; stroke-linecap:butt; stroke-linejoin:miter; stroke-dasharray:0; opacity:1" />
<line x1="358.353" y1="971" x2="358.353" y2="975" style="fill:none; stroke:rgb(0,0,0); stroke-width:1; stroke-linecap:butt; stroke-linejoin:miter; stroke-dasharray:0; opacity:1" />
<line x1="381.882" y1="971" x2="381.882" y2="975" style="fill:none; stroke:rgb(0,0,0); stroke-width:1; stroke-linecap:butt; stroke-linejoin:miter; stroke-dasharray:0; opacity:1" />
<line x1="405.412" y1="971" x2="405.412" y2="975" style="fill:none; stroke:rgb(0,0,0); stroke-width:1; stroke-linecap:butt; stroke-linejoin:miter; stroke-dasharray:0; opacity:1" />
<text x="428.941" y="984" font-family="Segoe UI" font-size="9pt" font-style="normal" font-weight="normal" text-decoration="none" text-anchor="middle" dominant-baseline="text-before-edge" fill="rgb(0,0,0)">
&#x36;&#x30;
</text>
<line x1="428.941" y1="971" x2="428.941" y2="980" style="fill:none; stroke:rgb(0,0,0); stroke-width:1; stroke-linecap:butt; stroke-linejoin:miter; stroke-dasharray:0; opacity:1" />
<line x1="452.471" y1="971" x2="452.471" y2="975" style="fill:none; stroke:rgb(0,0,0); stroke-width:1; stroke-linecap:butt; stroke-linejoin:miter; stroke-dasharray:0; opacity:1" />
<line x1="476" y1="971" x2="476" y2="975" style="fill:none; stroke:rgb(0,0,0); stroke-width:1; stroke-linecap:butt; stroke-linejoin:miter; stroke-dasharray:0; opacity:1" />
<line x1="499.529" y1="971" x2="499.529" y2="975" style="fill:none; stroke:rgb(0,0,0); stroke-width:1; stroke-linecap:butt; stroke-linejoin:miter; stroke-dasharray:0; opacity:1" />
<line x1="523.059" y1="971" x2="523.059" y2="975" style="fill:none; stroke:rgb(0,0,0); stroke-width:1; stroke-linecap:butt; stroke-linejoin:miter; stroke-dasharray:0; opacity:1" />
<text x="546.588" y="984" font-family="Segoe UI" font-size="9pt" font-style="normal" font-weight="normal" text-decoration="none" text-anchor="middle" dominant-baseline="text-before-edge" fill="rgb(0,0,0)">
&#x38;&#x30;
</text>
<line x1="546.588" y1="971" x2="546.588" y2="980" style="fill:none; stroke:rgb(0,0,0); stroke-width:1; stroke-linecap:butt; stroke-linejoin:miter; stroke-dasharray:0; opacity:1" />
<line x1="570.118" y1="971" x2="570.118" y2="975" style="fill:none; stroke:rgb(0,0,0); stroke-width:1; stroke-linecap:butt; stroke-linejoin:miter; stroke-dasharray:0; opacity:1" />
<line x1="593.647" y1="971" x2="593.647" y2="975" style="fill:none; stroke:rgb(0,0,0); stroke-width:1; stroke-linecap:butt; stroke-linejoin:miter; stroke-dasharray:0; opacity:1" />
<line x1="617.176" y1="971" x2="617.176" y2="975" style="fill:none; stroke:rgb(0,0,0); stroke-width:1; stroke-linecap:butt; stroke-linejoin:miter; stroke-dasharray:0; opacity:1" />
<line x1="640.706" y1="971" x2="640.706" y2="975" style="fill:none; stroke:rgb(0,0,0); stroke-width:1; stroke-linecap:butt; stroke-linejoin:miter; stroke-dasharray:0; opacity:1" />
<text x="664.235" y="984" font-family="Segoe UI" font-size="9pt" font-style="normal" font-weight="normal" text-decoration="none" text-anchor="middle" dominant-baseline="text-before-edge" fill="rgb(0,0,0)">
&#x31;&#x30;&#x30;
</text>
<line x1="664.235" y1="971" x2="664.235" y2="980" style="fill:none; stroke:rgb(0,0,0); stroke-width:1; stroke-linecap:butt; stroke-linejoin:miter; stroke-dasharray:0; opacity:1" />
<line x1="687.765" y1="971" x2="687.765" y2="975" style="fill:none; stroke:rgb(0,0,0); stroke-width:1; stroke-linecap:butt; stroke-linejoin:miter; stroke-dasharray:0; opacity:1" />
<line x1="711.294" y1="971" x2="711.294" y2="975" style="fill:none; stroke:rgb(0,0,0); stroke-width:1; stroke-linecap:butt; stroke-linejoin:miter; stroke-dasharray:0; opacity:1" />
<line x1="734.824" y1="971" x2="734.824" y2="975" style="fill:none; stroke:rgb(0,0,0); stroke-width:1; stroke-linecap:butt; stroke-linejoin:miter; stroke-dasharray:0; opacity:1" />
<line x1="758.353" y1="971" x2="758.353" y2="975" style="fill:none; stroke:rgb(0,0,0); stroke-width:1; stroke-linecap:butt; stroke-linejoin:miter; stroke-dasharray:0; opacity:1" />
<text x="781.882" y="984" font-family="Segoe UI" font-size="9pt" font-style="normal" font-weight="normal" text-decoration="none" text-anchor="middle" dominant-baseline="text-before-edge" fill="rgb(0,0,0)">
&#x31;&#x32;&#x30;
</text>
<line x1="781.882" y1="971" x2="781.882" y2="980" style="fill:none; stroke:rgb(0,0,0); stroke-width:1; stroke-linecap:butt; stroke-linejoin:miter; stroke-dasharray:0; opacity:1" />
<line x1="805.412" y1="971" x2="805.412" y2="975" style="fill:none; stroke:rgb(0,0,0); stroke-width:1; stroke-linecap:butt; stroke-linejoin:miter; stroke-dasharray:0; opacity:1" />
<line x1="828.941" y1="971" x2="828.941" y2="975" style="fill:none; stroke:rgb(0,0,0); stroke-width:1; stroke-linecap:butt; stroke-linejoin:miter; stroke-dasharray:0; opacity:1" />
<line x1="852.471" y1="971" x2="852.471" y2="975" style="fill:none; stroke:rgb(0,0,0); stroke-width:1; stroke-linecap:butt; stroke-linejoin:miter; stroke-dasharray:0; opacity:1" />
<line x1="876" y1="971" x2="876" y2="975" style="fill:none; stroke:rgb(0,0,0); stroke-width:1; stroke-linecap:butt; stroke-linejoin:miter; stroke-dasharray:0; opacity:1" />
<text x="899.529" y="984" font-family="Segoe UI" font-size="9pt" font-style="normal" font-weight="normal" text-decoration="none" text-anchor="middle" dominant-baseline="text-before-edge" fill="rgb(0,0,0)">
&#x31;&#x34;&#x30;
</text>
<line x1="899.529" y1="971" x2="899.529" y2="980" style="fill:none; stroke:rgb(0,0,0); stroke-width:1; stroke-linecap:butt; stroke-linejoin:miter; stroke-dasharray:0; opacity:1" />
<line x1="923.059" y1="971" x2="923.059" y2="975" style="fill:none; stroke:rgb(0,0,0); stroke-width:1; stroke-linecap:butt; stroke-linejoin:miter; stroke-dasharray:0; opacity:1" />
<line x1="946.588" y1="971" x2="946.588" y2="975" style="fill:none; stroke:rgb(0,0,0); stroke-width:1; stroke-linecap:butt; stroke-linejoin:miter; stroke-dasharray:0; opacity:1" />
<line x1="970.118" y1="971" x2="970.118" y2="975" style="fill:none; stroke:rgb(0,0,0); stroke-width:1; stroke-linecap:butt; stroke-linejoin:miter; stroke-dasharray:0; opacity:1" />
<line x1="993.647" y1="971" x2="993.647" y2="975" style="fill:none; stroke:rgb(0,0,0); stroke-width:1; stroke-linecap:butt; stroke-linejoin:miter; stroke-dasharray:0; opacity:1" />
<text x="1017.18" y="984" font-family="Segoe UI" font-size="9pt" font-style="normal" font-weight="normal" text-decoration="none" text-anchor="middle" dominant-baseline="text-before-edge" fill="rgb(0,0,0)">
&#x31;&#x36;&#x30;
</text>
<line x1="1017.18" y1="971" x2="1017.18" y2="980" style="fill:none; stroke:rgb(0,0,0); stroke-width:1; stroke-linecap:butt; stroke-linejoin:miter; stroke-dasharray:0; opacity:1" />
<line x1="1040.71" y1="971" x2="1040.71" y2="975" style="fill:none; stroke:rgb(0,0,0); stroke-width:1; stroke-linecap:butt; stroke-linejoin:miter; stroke-dasharray:0; opacity:1" />
<line x1="1064.24" y1="971" x2="1064.24" y2="975" style="fill:none; stroke:rgb(0,0,0); stroke-width:1; stroke-linecap:butt; stroke-linejoin:miter; stroke-dasharray:0; opacity:1" />
<line x1="1087.76" y1="971" x2="1087.76" y2="975" style="fill:none; stroke:rgb(0,0,0); stroke-width:1; stroke-linecap:butt; stroke-linejoin:miter; stroke-dasharray:0; opacity:1" />
<line x1="1111.29" y1="971" x2="1111.29" y2="975" style="fill:none; stroke:rgb(0,0,0); stroke-width:1; stroke-linecap:butt; stroke-linejoin:miter; stroke-dasharray:0; opacity:1" />
<text x="1134.82" y="984" font-family="Segoe UI" font-size="9pt" font-style="normal" font-weight="normal" text-decoration="none" text-anchor="middle" dominant-baseline="text-before-edge" fill="rgb(0,0,0)">
&#x31;&#x38;&#x30;
</text>
<line x1="1134.82" y1="971" x2="1134.82" y2="980" style="fill:none; stroke:rgb(0,0,0); stroke-width:1; stroke-linecap:butt; stroke-linejoin:miter; stroke-dasharray:0; opacity:1" />
<line x1="1158.35" y1="971" x2="1158.35" y2="975" style="fill:none; stroke:rgb(0,0,0); stroke-width:1; stroke-linecap:butt; stroke-linejoin:miter; stroke-dasharray:0; opacity:1" />
<line x1="1181.88" y1="971" x2="1181.88" y2="975" style="fill:none; stroke:rgb(0,0,0); stroke-width:1; stroke-linecap:butt; stroke-linejoin:miter; stroke-dasharray:0; opacity:1" />
<line x1="1205.41" y1="971" x2="1205.41" y2="975" style="fill:none; stroke:rgb(0,0,0); stroke-width:1; stroke-linecap:butt; stroke-linejoin:miter; stroke-dasharray:0; opacity:1" />
<line x1="1228.94" y1="971" x2="1228.94" y2="975" style="fill:none; stroke:rgb(0,0,0); stroke-width:1; stroke-linecap:butt; stroke-linejoin:miter; stroke-dasharray:0; opacity:1" />
<text x="1252.47" y="984" font-family="Segoe UI" font-size="9pt" font-style="normal" font-weight="normal" text-decoration="none" text-anchor="middle" dominant-baseline="text-before-edge" fill="rgb(0,0,0)">
&#x32;&#x30;&#x30;
</text>
<line x1="1252.47" y1="971" x2="1252.47" y2="980" style="fill:none; stroke:rgb(0,0,0); stroke-width:1; stroke-linecap:butt; stroke-linejoin:miter; stroke-dasharray:0; opacity:1" />
<line x1="1276" y1="971" x2="1276" y2="975" style="fill:none; stroke:rgb(0,0,0); stroke-width:1; stroke-linecap:butt; stroke-linejoin:miter; stroke-dasharray:0; opacity:1" />
<line x1="1299.53" y1="971" x2="1299.53" y2="975" style="fill:none; stroke:rgb(0,0,0); stroke-width:1; stroke-linecap:butt; stroke-linejoin:miter; stroke-dasharray:0; opacity:1" />
<line x1="1323.06" y1="971" x2="1323.06" y2="975" style="fill:none; stroke:rgb(0,0,0); stroke-width:1; stroke-linecap:butt; stroke-linejoin:miter; stroke-dasharray:0; opacity:1" />
<line x1="1346.59" y1="971" x2="1346.59" y2="975" style="fill:none; stroke:rgb(0,0,0); stroke-width:1; stroke-linecap:butt; stroke-linejoin:miter; stroke-dasharray:0; opacity:1" />
<text x="1370.12" y="984" font-family="Segoe UI" font-size="9pt" font-style="normal" font-weight="normal" text-decoration="none" text-anchor="middle" dominant-baseline="text-before-edge" fill="rgb(0,0,0)">
&#x32;&#x32;&#x30;
</text>
<line x1="1370.12" y1="971" x2="1370.12" y2="980" style="fill:none; stroke:rgb(0,0,0); stroke-width:1; stroke-linecap:butt; stroke-linejoin:miter; stroke-dasharray:0; opacity:1" />
<line x1="1393.65" y1="971" x2="1393.65" y2="975" style="fill:none; stroke:rgb(0,0,0); stroke-width:1; stroke-linecap:butt; stroke-linejoin:miter; stroke-dasharray:0; opacity:1" />
<line x1="1417.18" y1="971" x2="1417.18" y2="975" style="fill:none; stroke:rgb(0,0,0); stroke-width:1; stroke-linecap:butt; stroke-linejoin:miter; stroke-dasharray:0; opacity:1" />
<line x1="1440.71" y1="971" x2="1440.71" y2="975" style="fill:none; stroke:rgb(0,0,0); stroke-width:1; stroke-linecap:butt; stroke-linejoin:miter; stroke-dasharray:0; opacity:1" />
<line x1="1464.24" y1="971" x2="1464.24" y2="975" style="fill:none; stroke:rgb(0,0,0); stroke-width:1; stroke-linecap:butt; stroke-linejoin:miter; stroke-dasharray:0; opacity:1" />
<text x="1487.76" y="984" font-family="Segoe UI" font-size="9pt" font-style="normal" font-weight="normal" text-decoration="none" text-anchor="middle" dominant-baseline="text-before-edge" fill="rgb(0,0,0)">
&#x32;&#x34;&#x30;
</text>
<line x1="1487.76" y1="971" x2="1487.76" y2="980" style="fill:none; stroke:rgb(0,0,0); stroke-width:1; stroke-linecap:butt; stroke-linejoin:miter; stroke-dasharray:0; opacity:1" />
<line x1="1511.29" y1="971" x2="1511.29" y2="975" style="fill:none; stroke:rgb(0,0,0); stroke-width:1; stroke-linecap:butt; stroke-linejoin:miter; stroke-dasharray:0; opacity:1" />
<line x1="1534.82" y1="971" x2="1534.82" y2="975" style="fill:none; stroke:rgb(0,0,0); stroke-width:1; stroke-linecap:butt; stroke-linejoin:miter; stroke-dasharray:0; opacity:1" />
<line x1="1558.35" y1="971" x2="1558.35" y2="975" style="fill:none; stroke:rgb(0,0,0); stroke-width:1; stroke-linecap:butt; stroke-linejoin:miter; stroke-dasharray:0; opacity:1" />
<line x1="76" y1="971" x2="76" y2="28" style="fill:none; stroke:rgb(0,0,0); stroke-width:1; stroke-linecap:butt; stroke-linejoin:miter; stroke-dasharray:0; opacity:1" />
<line x1="76" y1="28" x2="76" y2="22" style="fill:none; stroke:rgb(0,0,0); stroke-width:1; stroke-linecap:butt; stroke-linejoin:miter; stroke-dasharray:0; opacity:1" />
<polygon style="fill:rgb(0,0,0); fill-rule:evenodd; stroke:none; opacity:1" points="76,22 72,26 80,26 " />
<text x="63" y="966.332" font-family="Segoe UI" font-size="9pt" font-style="normal" font-weight="normal" text-decoration="none" text-anchor="end" dominant-baseline="middle" fill="rgb(0,0,0)">
&#x2D;&#x31;&#x2E;&#x30;
</text>
<line x1="76" y1="966.332" x2="67" y2="966.332" style="fill:none; stroke:rgb(0,0,0); stroke-width:1; stroke-linecap:butt; stroke-linejoin:miter; stroke-dasharray:0; opacity:1" />
<line x1="76" y1="956.995" x2="72" y2="956.995" style="fill:none; stroke:rgb(0,0,0); stroke-width:1; stroke-linecap:butt; stroke-linejoin:miter; stroke-dasharray:0; opacity:1" />
<line x1="76" y1="947.658" x2="72" y2="947.658" style="fill:none; stroke:rgb(0,0,0); stroke-width:1; stroke-linecap:butt; stroke-linejoin:miter; stroke-dasharray:0; opacity:1" />
<line x1="76" y1="938.322" x2="72" y2="938.322" style="fill:none; stroke:rgb(0,0,0); stroke-width:1; stroke-linecap:butt; stroke-linejoin:miter; stroke-dasharray:0; opacity:1" />
<line x1="76" y1="928.985" x2="72" y2="928.985" style="fill:none; stroke:rgb(0,0,0); stroke-width:1; stroke-linecap:butt; stroke-linejoin:miter; stroke-dasharray:0; opacity:1" />
<text x="63" y="919.649" font-family="Segoe UI" font-size="9pt" font-style="normal" font-weight="normal" text-decoration="none" text-anchor="end" dominant-baseline="middle" fill="rgb(0,0,0)">
&#x2D;&#x30;&#x2E;&#x39;
</text>
<line x1="76" y1="919.649" x2="67" y2="919.649" style="fill:none; stroke:rgb(0,0,0); stroke-width:1; stroke-linecap:butt; stroke-linejoin:miter; stroke-dasharray:0; opacity:1" />
<line x1="76" y1="910.312" x2="72" y2="910.312" style="fill:none; stroke:rgb(0,0,0); stroke-width:1; stroke-linecap:butt; stroke-linejoin:miter; stroke-dasharray:0; opacity:1" />
<line x1="76" y1="900.975" x2="72" y2="900.975" style="fill:none; stroke:rgb(0,0,0); stroke-width:1; stroke-linecap:butt; stroke-linejoin:miter; stroke-dasharray:0; opacity:1" />
<line x1="76" y1="891.639" x2="72" y2="891.639" style="fill:none; stroke:rgb(0,0,0); stroke-width:1; stroke-linecap:butt; stroke-linejoin:miter; stroke-dasharray:0; opacity:1" />
<line x1="76" y1="882.302" x2="72" y2="882.302" style="fill:none; stroke:rgb(0,0,0); stroke-width:1; stroke-linecap:butt; stroke-linejoin:miter; stroke-dasharray:0; opacity:1" />
<text x="63" y="872.965" font-family="Segoe UI" font-size="9pt" font-style="normal" font-weight="normal" text-decoration="none" text-anchor="end" dominant-baseline="middle" fill="rgb(0,0,0)">
&#x2D;&#x30;&#x2E;&#x38;
</text>
<line x1="76" y1="872.965" x2="67" y2="872.965" style="fill:none; stroke:rgb(0,0,0); stroke-width:1; stroke-linecap:butt; stroke-linejoin:miter; stroke-dasharray:0; opacity:1" />
<line x1="76" y1="863.629" x2="72" y2="863.629" style="fill:none; stroke:rgb(0,0,0); stroke-width:1; stroke-linecap:butt; stroke-linejoin:miter; stroke-dasharray:0; opacity:1" />
<line x1="76" y1="854.292" x2="72" y2="854.292" style="fill:none; stroke:rgb(0,0,0); stroke-width:1; stroke-linecap:butt; stroke-linejoin:miter; stroke-dasharray:0; opacity:1" />
<line x1="76" y1="844.955" x2="72" y2="844.955" style="fill:none; stroke:rgb(0,0,0); stroke-width:1; stroke-linecap:butt; stroke-linejoin:miter; stroke-dasharray:0; opacity:1" />
<line x1="76" y1="835.619" x2="72" y2="835.619" style="fill:none; stroke:rgb(0,0,0); stroke-width:1; stroke-linecap:butt; stroke-linejoin:miter; stroke-dasharray:0; opacity:1" />
<text x="63" y="826.282" font-family="Segoe UI" font-size="9pt" font-style="normal" font-weight="normal" text-decoration="none" text-anchor="end" dominant-baseline="middle" fill="rgb(0,0,0)">
&#x2D;&#x30;&#x2E;&#x37;
</text>
<line x1="76" y1="826.282" x2="67" y2="826.282" style="fill:none; stroke:rgb(0,0,0); stroke-width:1; stroke-linecap:butt; stroke-linejoin:miter; stroke-dasharray:0; opacity:1" />
<line x1="76" y1="816.946" x2="72" y2="816.946" style="fill:none; stroke:rgb(0,0,0); stroke-width:1; stroke-linecap:butt; stroke-linejoin:miter; stroke-dasharray:0; opacity:1" />
<line x1="76" y1="807.609" x2="72" y2="807.609" style="fill:none; stroke:rgb(0,0,0); stroke-width:1; stroke-linecap:butt; stroke-linejoin:miter; stroke-dasharray:0; opacity:1" />
<line x1="76" y1="798.272" x2="72" y2="798.272" style="fill:none; stroke:rgb(0,0,0); stroke-width:1; stroke-linecap:butt; stroke-linejoin:miter; stroke-dasharray:0; opacity:1" />
<line x1="76" y1="788.936" x2="72" y2="788.936" style="fill:none; stroke:rgb(0,0,0); stroke-width:1; stroke-linecap:butt; stroke-linejoin:miter; stroke-dasharray:0; opacity:1" />
<text x="63" y="779.599" font-family="Segoe UI" font-size="9pt" font-style="normal" font-weight="normal" text-decoration="none" text-anchor="end" dominant-baseline="middle" fill="rgb(0,0,0)">
&#x2D;&#x30;&#x2E;&#x36;
</text>
<line x1="76" y1="779.599" x2="67" y2="779.599" style="fill:none; stroke:rgb(0,0,0); stroke-width:1; stroke-linecap:butt; stroke-linejoin:miter; stroke-dasharray:0; opacity:1" />
<line x1="76" y1="770.262" x2="72" y2="770.262" style="fill:none; stroke:rgb(0,0,0); stroke-width:1; stroke-linecap:butt; stroke-linejoin:miter; stroke-dasharray:0; opacity:1" />
<line x1="76" y1="760.926" x2="72" y2="760.926" style="fill:none; stroke:rgb(0,0,0); stroke-width:1; stroke-linecap:butt; stroke-linejoin:miter; stroke-dasharray:0; opacity:1" />
<line x1="76" y1="751.589" x2="72" y2="751.589" style="fill:none; stroke:rgb(0,0,0); stroke-width:1; stroke-linecap:butt; stroke-linejoin:miter; stroke-dasharray:0; opacity:1" />
<line x1="76" y1="742.252" x2="72" y2="742.252" style="fill:none; stroke:rgb(0,0,0); stroke-width:1; stroke-linecap:butt; stroke-linejoin:miter; stroke-dasharray:0; opacity:1" />
<text x="63" y="732.916" font-family="Segoe UI" font-size="9pt" font-style="normal" font-weight="normal" text-decoration="none" text-anchor="end" dominant-baseline="middle" fill="rgb(0,0,0)">
&#x2D;&#x30;&#x2E;&#x35;
</text>
<line x1="76" y1="732.916" x2="67" y2="732.916" style="fill:none; stroke:rgb(0,0,0); stroke-width:1; stroke-linecap:butt; stroke-linejoin:miter; stroke-dasharray:0; opacity:1" />
<line x1="76" y1="723.579" x2="72" y2="723.579" style="fill:none; stroke:rgb(0,0,0); stroke-width:1; stroke-linecap:butt; stroke-linejoin:miter; stroke-dasharray:0; opacity:1" />
<line x1="76" y1="714.243" x2="72" y2="714.243" style="fill:none; stroke:rgb(0,0,0); stroke-width:1; stroke-linecap:butt; stroke-linejoin:miter; stroke-dasharray:0; opacity:1" />
<line x1="76" y1="704.906" x2="72" y2="704.906" style="fill:none; stroke:rgb(0,0,0); stroke-width:1; stroke-linecap:butt; stroke-linejoin:miter; stroke-dasharray:0; opacity:1" />
<line x1="76" y1="695.569" x2="72" y2="695.569" style="fill:none; stroke:rgb(0,0,0); stroke-width:1; stroke-linecap:butt; stroke-linejoin:miter; stroke-dasharray:0; opacity:1" />
<text x="63" y="686.233" font-family="Segoe UI" font-size="9pt" font-style="normal" font-weight="normal" text-decoration="none" text-anchor="end" dominant-baseline="middle" fill="rgb(0,0,0)">
&#x2D;&#x30;&#x2E;&#x34;
</text>
<line x1="76" y1="686.233" x2="67" y2="686.233" style="fill:none; stroke:rgb(0,0,0); stroke-width:1; stroke-linecap:butt; stroke-linejoin:miter; stroke-dasharray:0; opacity:1" />
<line x1="76" y1="676.896" x2="72" y2="676.896" style="fill:none; stroke:rgb(0,0,0); stroke-width:1; stroke-linecap:butt; stroke-linejoin:miter; stroke-dasharray:0; opacity:1" />
<line x1="76" y1="667.559" x2="72" y2="667.559" style="fill:none; stroke:rgb(0,0,0); stroke-width:1; stroke-linecap:butt; stroke-linejoin:miter; stroke-dasharray:0; opacity:1" />
<line x1="76" y1="658.223" x2="72" y2="658.223" style="fill:none; stroke:rgb(0,0,0); stroke-width:1; stroke-linecap:butt; stroke-linejoin:miter; stroke-dasharray:0; opacity:1" />
<line x1="76" y1="648.886" x2="72" y2="648.886" style="fill:none; stroke:rgb(0,0,0); stroke-width:1; stroke-linecap:butt; stroke-linejoin:miter; stroke-dasharray:0; opacity:1" />
<text x="63" y="639.55" font-family="Segoe UI" font-size="9pt" font-style="normal" font-weight="normal" text-decoration="none" text-anchor="end" dominant-baseline="middle" fill="rgb(0,0,0)">
&#x2D;&#x30;&#x2E;&#x33;
</text>
<line x1="76" y1="639.55" x2="67" y2="639.55" style="fill:none; stroke:rgb(0,0,0); stroke-width:1; stroke-linecap:butt; stroke-linejoin:miter; stroke-dasharray:0; opacity:1" />
<line x1="76" y1="630.213" x2="72" y2="630.213" style="fill:none; stroke:rgb(0,0,0); stroke-width:1; stroke-linecap:butt; stroke-linejoin:miter; stroke-dasharray:0; opacity:1" />
<line x1="76" y1="620.876" x2="72" y2="620.876" style="fill:none; stroke:rgb(0,0,0); stroke-width:1; stroke-linecap:butt; stroke-linejoin:miter; stroke-dasharray:0; opacity:1" />
<line x1="76" y1="611.54" x2="72" y2="611.54" style="fill:none; stroke:rgb(0,0,0); stroke-width:1; stroke-linecap:butt; stroke-linejoin:miter; stroke-dasharray:0; opacity:1" />
<line x1="76" y1="602.203" x2="72" y2="602.203" style="fill:none; stroke:rgb(0,0,0); stroke-width:1; stroke-linecap:butt; stroke-linejoin:miter; stroke-dasharray:0; opacity:1" />
<text x="63" y="592.866" font-family="Segoe UI" font-size="9pt" font-style="normal" font-weight="normal" text-decoration="none" text-anchor="end" dominant-baseline="middle" fill="rgb(0,0,0)">
&#x2D;&#x30;&#x2E;&#x32;
</text>
<line x1="76" y1="592.866" x2="67" y2="592.866" style="fill:none; stroke:rgb(0,0,0); stroke-width:1; stroke-linecap:butt; stroke-linejoin:miter; stroke-dasharray:0; opacity:1" />
<line x1="76" y1="583.53" x2="72" y2="583.53" style="fill:none; stroke:rgb(0,0,0); stroke-width:1; stroke-linecap:butt; stroke-linejoin:miter; stroke-dasharray:0; opacity:1" />
<line x1="76" y1="574.193" x2="72" y2="574.193" style="fill:none; stroke:rgb(0,0,0); stroke-width:1; stroke-linecap:butt; stroke-linejoin:miter; stroke-dasharray:0; opacity:1" />
<line x1="76" y1="564.856" x2="72" y2="564.856" style="fill:none; stroke:rgb(0,0,0); stroke-width:1; stroke-linecap:butt; stroke-linejoin:miter; stroke-dasharray:0; opacity:1" />
<line x1="76" y1="555.52" x2="72" y2="555.52" style="fill:none; stroke:rgb(0,0,0); stroke-width:1; stroke-linecap:butt; stroke-linejoin:miter; stroke-dasharray:0; opacity:1" />
<text x="63" y="546.183" font-family="Segoe UI" font-size="9pt" font-style="normal" font-weight="normal" text-decoration="none" text-anchor="end" dominant-baseline="middle" fill="rgb(0,0,0)">
&#x2D;&#x30;&#x2E;&#x31;
</text>
<line x1="76" y1="546.183" x2="67" y2="546.183" style="fill:none; stroke:rgb(0,0,0); stroke-width:1; stroke-linecap:butt; stroke-linejoin:miter; stroke-dasharray:0; opacity:1" />
<line x1="76" y1="536.847" x2="72" y2="536.847" style="fill:none; stroke:rgb(0,0,0); stroke-width:1; stroke-linecap:butt; stroke-linejoin:miter; stroke-dasharray:0; opacity:1" />
<line x1="76" y1="527.51" x2="72" y2="527.51" style="fill:none; stroke:rgb(0,0,0); stroke-width:1; stroke-linecap:butt; stroke-linejoin:miter; stroke-dasharray:0; opacity:1" />
<line x1="76" y1="518.173" x2="72" y2="518.173" style="fill:none; stroke:rgb(0,0,0); stroke-width:1; stroke-linecap:butt; stroke-linejoin:miter; stroke-dasharray:0; opacity:1" />
<line x1="76" y1="508.837" x2="72" y2="508.837" style="fill:none; stroke:rgb(0,0,0); stroke-width:1; stroke-linecap:butt; stroke-linejoin:miter; stroke-dasharray:0; opacity:1" />
<text x="63" y="499.5" font-family="Segoe UI" font-size="9pt" font-style="normal" font-weight="normal" text-decoration="none" text-anchor="end" dominant-baseline="middle" fill="rgb(0,0,0)">
&#x30;&#x2E;&#x30;
</text>
<line x1="76" y1="499.5" x2="67" y2="499.5" style="fill:none; stroke:rgb(0,0,0); stroke-width:1; stroke-linecap:butt; stroke-linejoin:miter; stroke-dasharray:0; opacity:1" />
<line x1="76" y1="490.163" x2="72" y2="490.163" style="fill:none; stroke:rgb(0,0,0); stroke-width:1; stroke-linecap:butt; stroke-linejoin:miter; stroke-dasharray:0; opacity:1" />
<line x1="76" y1="480.827" x2="72" y2="480.827" style="fill:none; stroke:rgb(0,0,0); stroke-width:1; stroke-linecap:butt; stroke-linejoin:miter; stroke-dasharray:0; opacity:1" />
<line x1="76" y1="471.49" x2="72" y2="471.49" style="fill:none; stroke:rgb(0,0,0); stroke-width:1; stroke-linecap:butt; stroke-linejoin:miter; stroke-dasharray:0; opacity:1" />
<line x1="76" y1="462.153" x2="72" y2="462.153" style="fill:none; stroke:rgb(0,0,0); stroke-width:1; stroke-linecap:butt; stroke-linejoin:miter; stroke-dasharray:0; opacity:1" />
<text x="63" y="452.817" font-family="Segoe UI" font-size="9pt" font-style="normal" font-weight="normal" text-decoration="none" text-anchor="end" dominant-baseline="middle" fill="rgb(0,0,0)">
&#x30;&#x2E;&#x31;
</text>
<line x1="76" y1="452.817" x2="67" y2="452.817" style="fill:none; stroke:rgb(0,0,0); stroke-width:1; stroke-linecap:butt; stroke-linejoin:miter; stroke-dasharray:0; opacity:1" />
<line x1="76" y1="443.48" x2="72" y2="443.48" style="fill:none; stroke:rgb(0,0,0); stroke-width:1; stroke-linecap:butt; stroke-linejoin:miter; stroke-dasharray:0; opacity:1" />
<line x1="76" y1="434.144" x2="72" y2="434.144" style="fill:none; stroke:rgb(0,0,0); stroke-width:1; stroke-linecap:butt; stroke-linejoin:miter; stroke-dasharray:0; opacity:1" />
<line x1="76" y1="424.807" x2="72" y2="424.807" style="fill:none; stroke:rgb(0,0,0); stroke-width:1; stroke-linecap:butt; stroke-linejoin:miter; stroke-dasharray:0; opacity:1" />
<line x1="76" y1="415.47" x2="72" y2="415.47" style="fill:none; stroke:rgb(0,0,0); stroke-width:1; stroke-linecap:butt; stroke-linejoin:miter; stroke-dasharray:0; opacity:1" />
<text x="63" y="406.134" font-family="Segoe UI" font-size="9pt" font-style="normal" font-weight="normal" text-decoration="none" text-anchor="end" dominant-baseline="middle" fill="rgb(0,0,0)">
&#x30;&#x2E;&#x32;
</text>
<line x1="76" y1="406.134" x2="67" y2="406.134" style="fill:none; stroke:rgb(0,0,0); stroke-width:1; stroke-linecap:butt; stroke-linejoin:miter; stroke-dasharray:0; opacity:1" />
<line x1="76" y1="396.797" x2="72" y2="396.797" style="fill:none; stroke:rgb(0,0,0); stroke-width:1; stroke-linecap:butt; stroke-linejoin:miter; stroke-dasharray:0; opacity:1" />
<line x1="76" y1="387.46" x2="72" y2="387.46" style="fill:none; stroke:rgb(0,0,0); stroke-width:1; stroke-linecap:butt; stroke-linejoin:miter; stroke-dasharray:0; opacity:1" />
<line x1="76" y1="378.124" x2="72" y2="378.124" style="fill:none; stroke:rgb(0,0,0); stroke-width:1; stroke-linecap:butt; stroke-linejoin:miter; stroke-dasharray:0; opacity:1" />
<line x1="76" y1="368.787" x2="72" y2="368.787" style="fill:none; stroke:rgb(0,0,0); stroke-width:1; stroke-linecap:butt; stroke-linejoin:miter; stroke-dasharray:0; opacity:1" />
<text x="63" y="359.45" font-family="Segoe UI" font-size="9pt" font-style="normal" font-weight="normal" text-decoration="none" text-anchor="end" dominant-baseline="middle" fill="rgb(0,0,0)">
&#x30;&#x2E;&#x33;
</text>
<line x1="76" y1="359.45" x2="67" y2="359.45" style="fill:none; stroke:rgb(0,0,0); stroke-width:1; stroke-linecap:butt; stroke-linejoin:miter; stroke-dasharray:0; opacity:1" />
<line x1="76" y1="350.114" x2="72" y2="350.114" style="fill:none; stroke:rgb(0,0,0); stroke-width:1; stroke-linecap:butt; stroke-linejoin:miter; stroke-dasharray:0; opacity:1" />
<line x1="76" y1="340.777" x2="72" y2="340.777" style="fill:none; stroke:rgb(0,0,0); stroke-width:1; stroke-linecap:butt; stroke-linejoin:miter; stroke-dasharray:0; opacity:1" />
<line x1="76" y1="331.441" x2="72" y2="331.441" style="fill:none; stroke:rgb(0,0,0); stroke-width:1; stroke-linecap:butt; stroke-linejoin:miter; stroke-dasharray:0; opacity:1" />
<line x1="76" y1="322.104" x2="72" y2="322.104" style="fill:none; stroke:rgb(0,0,0); stroke-width:1; stroke-linecap:butt; stroke-linejoin:miter; stroke-dasharray:0; opacity:1" />
<text x="63" y="312.767" font-family="Segoe UI" font-size="9pt" font-style="normal" font-weight="normal" text-decoration="none" text-anchor="end" dominant-baseline="middle" fill="rgb(0,0,0)">
&#x30;&#x2E;&#x34;
</text>
<line x1="76" y1="312.767" x2="67" y2="312.767" style="fill:none; stroke:rgb(0,0,0); stroke-width:1; stroke-linecap:butt; stroke-linejoin:miter; stroke-dasharray:0; opacity:1" />
<line x1="76" y1="303.431" x2="72" y2="303.431" style="fill:none; stroke:rgb(0,0,0); stroke-width:1; stroke-linecap:butt; stroke-linejoin:miter; stroke-dasharray:0; opacity:1" />
<line x1="76" y1="294.094" x2="72" y2="294.094" style="fill:none; stroke:rgb(0,0,0); stroke-width:1; stroke-linecap:butt; stroke-linejoin:miter; stroke-dasharray:0; opacity:1" />
<line x1="76" y1="284.757" x2="72" y2="284.757" style="fill:none; stroke:rgb(0,0,0); stroke-width:1; stroke-linecap:butt; stroke-linejoin:miter; stroke-dasharray:0; opacity:1" />
<line x1="76" y1="275.421" x2="72" y2="275.421" style="fill:none; stroke:rgb(0,0,0); stroke-width:1; stroke-linecap:butt; stroke-linejoin:miter; stroke-dasharray:0; opacity:1" />
<text x="63" y="266.084" font-family="Segoe UI" font-size="9pt" font-style="normal" font-weight="normal" text-decoration="none" text-anchor="end" dominant-baseline="middle" fill="rgb(0,0,0)">
&#x30;&#x2E;&#x35;
</text>
<line x1="76" y1="266.084" x2="67" y2="266.084" style="fill:none; stroke:rgb(0,0,0); stroke-width:1; stroke-linecap:butt; stroke-linejoin:miter; stroke-dasharray:0; opacity:1" />
<line x1="76" y1="256.748" x2="72" y2="256.748" style="fill:none; stroke:rgb(0,0,0); stroke-width:1; stroke-linecap:butt; stroke-linejoin:miter; stroke-dasharray:0; opacity:1" />
<line x1="76" y1="247.411" x2="72" y2="247.411" style="fill:none; stroke:rgb(0,0,0); stroke-width:1; stroke-linecap:butt; stroke-linejoin:miter; stroke-dasharray:0; opacity:1" />
<line x1="76" y1="238.074" x2="72" y2="238.074" style="fill:none; stroke:rgb(0,0,0); stroke-width:1; stroke-linecap:butt; stroke-linejoin:miter; stroke-dasharray:0; opacity:1" />
<line x1="76" y1="228.738" x2="72" y2="228.738" style="fill:none; stroke:rgb(0,0,0); stroke-width:1; stroke-linecap:butt; stroke-linejoin:miter; stroke-dasharray:0; opacity:1" />
<text x="63" y="219.401" font-family="Segoe UI" font-size="9pt" font-style="normal" font-weight="normal" text-decoration="none" text-anchor="end" dominant-baseline="middle" fill="rgb(0,0,0)">
&#x30;&#x2E;&#x36;
</text>
<line x1="76" y1="219.401" x2="67" y2="219.401" style="fill:none; stroke:rgb(0,0,0); stroke-width:1; stroke-linecap:butt; stroke-linejoin:miter; stroke-dasharray:0; opacity:1" />
<line x1="76" y1="210.064" x2="72" y2="210.064" style="fill:none; stroke:rgb(0,0,0); stroke-width:1; stroke-linecap:butt; stroke-linejoin:miter; stroke-dasharray:0; opacity:1" />
<line x1="76" y1="200.728" x2="72" y2="200.728" style="fill:none; stroke:rgb(0,0,0); stroke-width:1; stroke-linecap:butt; stroke-linejoin:miter; stroke-dasharray:0; opacity:1" />
<line x1="76" y1="191.391" x2="72" y2="191.391" style="fill:none; stroke:rgb(0,0,0); stroke-width:1; stroke-linecap:butt; stroke-linejoin:miter; stroke-dasharray:0; opacity:1" />
<line x1="76" y1="182.054" x2="72" y2="182.054" style="fill:none; stroke:rgb(0,0,0); stroke-width:1; stroke-linecap:butt; stroke-linejoin:miter; stroke-dasharray:0; opacity:1" />
<text x="63" y="172.718" font-family="Segoe UI" font-size="9pt" font-style="normal" font-weight="normal" text-decoration="none" text-anchor="end" dominant-baseline="middle" fill="rgb(0,0,0)">
&#x30;&#x2E;&#x37;
</text>
<line x1="76" y1="172.718" x2="67" y2="172.718" style="fill:none; stroke:rgb(0,0,0); stroke-width:1; stroke-linecap:butt; stroke-linejoin:miter; stroke-dasharray:0; opacity:1" />
<line x1="76" y1="163.381" x2="72" y2="163.381" style="fill:none; stroke:rgb(0,0,0); stroke-width:1; stroke-linecap:butt; stroke-linejoin:miter; stroke-dasharray:0; opacity:1" />
<line x1="76" y1="154.045" x2="72" y2="154.045" style="fill:none; stroke:rgb(0,0,0); stroke-width:1; stroke-linecap:butt; stroke-linejoin:miter; stroke-dasharray:0; opacity:1" />
<line x1="76" y1="144.708" x2="72" y2="144.708" style="fill:none; stroke:rgb(0,0,0); stroke-width:1; stroke-linecap:butt; stroke-linejoin:miter; stroke-dasharray:0; opacity:1" />
<line x1="76" y1="135.371" x2="72" y2="135.371" style="fill:none; stroke:rgb(0,0,0); stroke-width:1; stroke-linecap:butt; stroke-linejoin:miter; stroke-dasharray:0; opacity:1" />
<text x="63" y="126.035" font-family="Segoe UI" font-size="9pt" font-style="normal" font-weight="normal" text-decoration="none" text-anchor="end" dominant-baseline="middle" fill="rgb(0,0,0)">
&#x30;&#x2E;&#x38;
</text>
<line x1="76" y1="126.035" x2="67" y2="126.035" style="fill:none; stroke:rgb(0,0,0); stroke-width:1; stroke-linecap:butt; stroke-linejoin:miter; stroke-dasharray:0; opacity:1" />
<line x1="76" y1="116.698" x2="72" y2="116.698" style="fill:none; stroke:rgb(0,0,0); stroke-width:1; stroke-linecap:butt; stroke-linejoin:miter; stroke-dasharray:0; opacity:1" />
<line x1="76" y1="107.361" x2="72" y2="107.361" style="fill:none; stroke:rgb(0,0,0); stroke-width:1; stroke-linecap:butt; stroke-linejoin:miter; stroke-dasharray:0; opacity:1" />
<line x1="76" y1="98.0248" x2="72" y2="98.0248" style="fill:none; stroke:rgb(0,0,0); stroke-width:1; stroke-linecap:butt; stroke-linejoin:miter; stroke-dasharray:0; opacity:1" />
<line x1="76" y1="88.6881" x2="72" y2="88.6881" style="fill:none; stroke:rgb(0,0,0); stroke-width:1; stroke-linecap:butt; stroke-linejoin:miter; stroke-dasharray:0; opacity:1" />
<text x="63" y="79.3515" font-family="Segoe UI" font-size="9pt" font-style="normal" font-weight="normal" text-decoration="none" text-anchor="end" dominant-baseline="middle" fill="rgb(0,0,0)">
&#x30;&#x2E;&#x39;
</text>
<line x1="76" y1="79.3515" x2="67" y2="79.3515" style="fill:none; stroke:rgb(0,0,0); stroke-width:1; stroke-linecap:butt; stroke-linejoin:miter; stroke-dasharray:0; opacity:1" />
<line x1="76" y1="70.0149" x2="72" y2="70.0149" style="fill:none; stroke:rgb(0,0,0); stroke-width:1; stroke-linecap:butt; stroke-linejoin:miter; stroke-dasharray:0; opacity:1" />
<line x1="76" y1="60.6782" x2="72" y2="60.6782" style="fill:none; stroke:rgb(0,0,0); stroke-width:1; stroke-linecap:butt; stroke-linejoin:miter; stroke-dasharray:0; opacity:1" />
<line x1="76" y1="51.3416" x2="72" y2="51.3416" style="fill:none; stroke:rgb(0,0,0); stroke-width:1; stroke-linecap:butt; stroke-linejoin:miter; stroke-dasharray:0; opacity:1" />
<line x1="76" y1="42.005" x2="72" y2="42.005" style="fill:none; stroke:rgb(0,0,0); stroke-width:1; stroke-linecap:butt; stroke-linejoin:miter; stroke-dasharray:0; opacity:1" />
<text x="63" y="32.6683" font-family="Segoe UI" font-size="9pt" font-style="normal" font-weight="normal" text-decoration="none" text-anchor="end" dominant-baseline="middle" fill="rgb(0,0,0)">
&#x31;&#x2E;&#x30;
</text>
<line x1="76" y1="32.6683" x2="67" y2="32.6683" style="fill:none; stroke:rgb(0,0,0); stroke-width:1; stroke-linecap:butt; stroke-linejoin:miter; stroke-dasharray:0; opacity:1" />
<clipPath id="cliprect0">
<rect x="76" y="29" width="1500" height="943" />
</clipPath>
</g>
<g clip-path="url(#cliprect0)">
<polyline style="fill:none; stroke:rgb(0,0,0); stroke-width:1; stroke-linecap:butt; stroke-linejoin:miter; stroke-dasharray:0; opacity:1" points="76,495.867 1576,495.867 " />
<polyline style="fill:none; stroke:rgb(204,170,0); stroke-width:1; stroke-linecap:butt; stroke-linejoin:miter; stroke-dasharray:0; opacity:1" points="76,491.975 81.8824,500.145 87.7647,500.32 93.6471,499.963 99.5294,500.754 105.412,500.788 111.294,502.055 117.176,499.468 123.059,500.901 128.941,502.776 134.824,501.607 140.706,498.344 146.588,495.805 152.471,491.775 158.353,484.916 164.235,477.899 170.118,469.604 176,458.013 181.882,451.222 187.765,445.746 193.647,440.058 199.529,434.33 205.412,429.239 211.294,419.862 217.176,410.214 223.059,402.117 228.941,392.246 234.824,382.111 240.706,375.659 246.588,368.015 252.471,360.51 258.353,356.178 264.235,353.262 270.118,346.953 276,343.954 281.882,336.318 287.765,333.357 293.647,337.259 299.529,330.729 305.412,330.409 311.294,327.578 317.176,327.49 323.059,326.833 328.941,328.741 334.824,327.525 340.706,327.533 346.588,331.508 352.471,334.129 358.353,335.444 364.235,335.645 370.118,344.218 376,349.605 381.882,348.457 387.765,357.641 393.647,365.957 399.529,369.918 405.412,376.241 411.294,387.164 417.176,400.455 423.059,413.409 428.941,427.623 434.824,443.148 440.706,458.948 446.588,479.392 452.471,493.486 458.353,496.281 464.235,500.897 470.118,503.85 476,506.375 481.882,524.761 487.765,527.8 493.647,497.555 499.529,457.514 505.412,438.203 511.294,424.765 517.176,414.859 523.059,404.556 528.941,397.808 534.824,388.374 540.706,382.944 546.588,383.514 552.471,380.366 558.353,379.329 564.235,378.465 570.118,381.896 576,382.835 581.882,382.265 587.765,385.927 593.647,390.871 599.529,393.696 605.412,392.393 611.294,396.484 617.176,398.03 623.059,399.851 628.941,401.519 634.824,402.034 640.706,401.691 646.588,406.906 652.471,410.055 658.353,408.329 664.235,410.859 670.118,411.175 676,414.613 681.882,415.778 687.765,416.288 693.647,415.605 699.529,415.126 705.412,414.668 711.294,411.765 717.176,411.214 723.059,414.154 728.941,412.145 734.824,409.764 740.706,414.247 746.588,411.466 752.471,411.248 758.353,413.714 764.235,417.425 770.118,413.727 776,418.813 781.882,416.9 787.765,417.221 793.647,419.922 799.529,418.38 805.412,420.273 811.294,420.578 817.176,423.086 823.059,423.408 828.941,423.729 834.824,424.465 840.706,426.206 846.588,424.866 852.471,427.913 858.353,425.589 864.235,427.98 870.118,428.873 876,433.329 881.882,429.302 887.765,430.24 893.647,431.218 899.529,430.045 905.412,435.794 911.294,436.305 917.176,433.849 923.059,435.14 928.941,436.536 934.824,436.178 940.706,435.122 946.588,440.031 952.471,443.052 958.353,445.814 964.235,445.044 970.118,449.936 976,454.555 981.882,456.767 987.765,461.281 993.647,457.397 999.529,461.332 1005.41,467.205 1011.29,460.923 1017.18,460.427 1023.06,468.117 1028.94,473.503 1034.82,463.996 1040.71,461.149 1046.59,454.74 1052.47,470.148 1058.35,458.025 1064.24,462.221 1070.12,463.685 1076,479.297 1081.88,490.115 1087.76,476.289 1093.65,442.42 1099.53,427.138 1105.41,411.834 1111.29,432.883 1117.18,393.202 1123.06,418.114 1128.94,402.652 1134.82,399.166 1140.71,387.649 1146.59,358.19 1152.47,365.781 1158.35,353.154 1164.24,355.143 1170.12,310.877 1176,309.699 1181.88,298.302 1187.76,301.591 1193.65,278.103 1199.53,296.74 1205.41,297.459 1211.29,315.306 1217.18,326.368 1223.06,215.682 1228.94,266.595 1234.82,276.991 1240.71,287.257 1246.59,277.827 1252.47,223.659 1258.35,241.764 1264.24,302.688 1270.12,234.139 1276,263.793 1281.88,273.584 1287.76,260.952 1293.65,216.319 1299.53,237.484 1305.41,295.27 1311.29,254.859 1317.18,263.05 1323.06,219.34 1328.94,232.94 1334.82,279.975 1340.71,292.017 1346.59,178.549 1352.47,222.029 1358.35,260.08 1364.24,234.474 1370.12,247.48 1376,275.963 1381.88,167.806 1387.76,240.258 1393.65,110.233 1399.53,253.367 1405.41,195.96 1411.29,166.352 1417.18,32.6683 1423.06,235.266 1428.94,239.231 1434.82,302.398 1440.71,142.305 1446.59,258.618 1452.47,181.71 1458.35,87.1385 1464.24,79.9123 1470.12,280.307 1476,320.09 1481.88,316.598 1487.76,122.869 1493.65,245.385 1499.53,226.692 1505.41,286.616 1511.29,194.265 1517.18,188.574 1523.06,209.677 1528.94,337.767 1534.82,193.084 1540.71,168.713 1546.59,164.763 1552.47,424.944 1558.35,89.3774 1564.24,264.746 1570.12,328.739 1576,392.732 " />
<polyline style="fill:none; stroke:rgb(204,0,0); stroke-width:1; stroke-linecap:butt; stroke-linejoin:miter; stroke-dasharray:0; opacity:1" points="76,499.475 81.8824,499.373 87.7647,499.165 93.6471,499.037 99.5294,499.165 105.412,499.373 111.294,499.475 117.176,499.5 123.059,499.5 128.941,499.5 134.824,499.5 140.706,499.5 146.588,499.5 152.471,499.5 158.353,499.5 164.235,499.5 170.118,499.5 176,499.5 181.882,499.5 187.765,499.5 193.647,499.5 199.529,499.5 205.412,499.5 211.294,499.5 217.176,499.5 223.059,499.5 228.941,499.5 234.824,499.5 240.706,499.5 246.588,499.5 252.471,499.5 258.353,499.5 264.235,499.5 270.118,490.425 276,453.864 281.882,379.221 287.765,333.357 293.647,379.221 299.529,453.864 305.412,490.069 311.294,452.072 317.176,374.498 323.059,326.833 328.941,374.498 334.824,327.525 340.706,374.999 346.588,452.262 352.471,490.106 358.353,499.5 364.235,491.25 370.118,458.011 376,390.153 381.882,348.457 387.765,390.153 393.647,458.011 399.529,491.25 405.412,499.5 411.294,499.5 417.176,499.5 423.059,499.5 428.941,499.5 434.824,499.5 440.706,499.5 446.588,499.5 452.471,499.5 458.353,499.5 464.235,499.5 470.118,499.5 476,499.5 481.882,499.5 487.765,499.5 493.647,499.5 499.529,499.5 505.412,499.5 511.294,499.5 517.176,499.5 523.059,493.134 528.941,467.484 534.824,415.119 540.706,382.944 546.588,415.119 552.471,466.254 558.353,411.877 564.235,378.465 570.118,411.877 576,414.628 581.882,382.265 587.765,414.628 593.647,467.298 599.529,421.96 605.412,392.393 611.294,421.96 617.176,470.08 623.059,493.65 628.941,472.634 634.824,428.692 640.706,401.691 646.588,428.692 652.471,433.497 658.353,408.329 664.235,433.497 670.118,474.457 676,494.52 681.882,499.5 687.765,499.5 693.647,499.5 699.529,494.678 705.412,475.25 711.294,435.585 717.176,411.214 723.059,435.585 728.941,434.536 734.824,409.764 740.706,434.536 746.588,435.61 752.471,411.248 758.353,435.61 764.235,437.405 770.118,413.727 776,437.405 781.882,416.9 787.765,439.702 793.647,440.774 799.529,418.38 805.412,440.774 811.294,477.218 817.176,495.069 823.059,499.5 828.941,495.423 834.824,479 840.706,445.469 846.588,424.866 852.471,445.469 858.353,425.589 864.235,445.992 870.118,479.198 876,448.68 881.882,429.302 887.765,448.68 893.647,449.218 899.529,430.045 905.412,449.218 911.294,451.972 917.176,433.849 923.059,451.972 928.941,481.467 934.824,452.894 940.706,435.122 946.588,452.894 952.471,481.817 958.353,460.076 964.235,445.044 970.118,460.076 976,484.542 981.882,487.935 987.765,469.02 993.647,457.397 999.529,469.02 1005.41,487.935 1011.29,471.213 1017.18,460.427 1023.06,471.213 1028.94,488.767 1034.82,487.205 1040.71,467.096 1046.59,454.74 1052.47,467.096 1058.35,487.205 1064.24,497.055 1070.12,499.5 1076,499.5 1081.88,499.5 1087.76,499.5 1093.65,499.5 1099.53,493.694 1105.41,470.302 1111.29,422.546 1117.18,393.202 1123.06,422.546 1128.94,470.302 1134.82,460.685 1140.71,397.199 1146.59,358.19 1152.47,393.553 1158.35,353.154 1164.24,393.553 1170.12,459.302 1176,487.407 1181.88,438.687 1187.76,339.22 1193.65,278.103 1199.53,339.22 1205.41,438.687 1211.29,421.541 1217.18,294.03 1223.06,215.682 1228.94,294.03 1234.82,421.541 1240.71,423.732 1246.59,299.806 1252.47,223.659 1258.35,299.806 1264.24,307.393 1270.12,234.139 1276,307.393 1281.88,421.716 1287.76,294.492 1293.65,216.319 1299.53,294.492 1305.41,421.716 1311.29,422.546 1317.18,296.679 1323.06,219.34 1328.94,296.679 1334.82,411.341 1340.71,267.148 1346.59,178.549 1352.47,267.148 1358.35,411.341 1364.24,481.969 1370.12,499.5 1376,478.238 1381.88,392.576 1387.76,217.691 1393.65,110.233 1399.53,217.691 1405.41,371.271 1411.29,161.539 1417.18,32.6683 1423.06,161.539 1428.94,371.271 1434.82,240.91 1440.71,142.305 1446.59,240.91 1452.47,384.248 1458.35,195.741 1464.24,79.9123 1470.12,195.741 1476,384.248 1481.88,226.839 1487.76,122.869 1493.65,226.839 1499.53,396.047 1505.41,414.095 1511.29,274.406 1517.18,188.574 1523.06,274.406 1528.94,414.095 1534.82,482.517 1540.71,477.099 1546.59,386.847 1552.47,202.593 1558.35,89.3774 1564.24,202.593 1570.12,386.847 1576,477.099 " />
<clipPath id="cliprect1">
<rect x="0" y="0" width="1618" height="1017" />
</clipPath>
</g>
<g clip-path="url(#cliprect1)">
</g>
</g>
</svg>
